<?xml version="1.0" encoding="utf-8" standalone="no"?>
<!DOCTYPE svg PUBLIC "-//W3C//DTD SVG 1.1//EN"
  "http://www.w3.org/Graphics/SVG/1.1/DTD/svg11.dtd">
<!-- Created with matplotlib (https://matplotlib.org/) -->
<svg height="345.6pt" version="1.1" viewBox="0 0 460.8 345.6" width="460.8pt" xmlns="http://www.w3.org/2000/svg" xmlns:xlink="http://www.w3.org/1999/xlink">
 <defs>
  <style type="text/css">
*{stroke-linecap:butt;stroke-linejoin:round;}
  </style>
 </defs>
 <g id="figure_1">
  <g id="patch_1">
   <path d="M 0 345.6 
L 460.8 345.6 
L 460.8 0 
L 0 0 
z
" style="fill:#ffffff;"/>
  </g>
  <g id="axes_1">
   <g id="patch_2">
    <path d="M 57.6 307.584 
L 414.72 307.584 
L 414.72 41.472 
L 57.6 41.472 
z
" style="fill:#ffffff;"/>
   </g>
   <g id="PolyCollection_1">
    <path clip-path="url(#p7950627828)" d="M 73.832727 133.54584 
L 73.832727 133.717483 
L 84.654545 136.080577 
L 95.476364 138.684158 
L 106.298182 141.658038 
L 117.12 144.996657 
L 127.941818 148.77099 
L 138.763636 152.979124 
L 149.585455 157.642767 
L 160.407273 162.721412 
L 171.229091 168.358586 
L 182.050909 174.413893 
L 192.872727 180.416823 
L 203.694545 186.588532 
L 214.516364 192.528899 
L 225.338182 197.785827 
L 236.16 202.69592 
L 246.981818 206.608404 
L 257.803636 208.531457 
L 268.625455 216.066488 
L 279.447273 222.044131 
L 290.269091 228.493968 
L 301.090909 234.155531 
L 311.912727 240.73017 
L 322.734545 250.625237 
L 333.556364 265.775078 
L 344.378182 256.088814 
L 355.2 254.225201 
L 366.021818 253.326814 
L 376.843636 223.1805 
L 387.665455 277.425608 
L 398.487273 251.121144 
L 398.487273 200.192686 
L 398.487273 200.192686 
L 387.665455 220.350409 
L 376.843636 199.309404 
L 366.021818 211.463322 
L 355.2 214.788367 
L 344.378182 218.997543 
L 333.556364 225.824473 
L 322.734545 228.634083 
L 311.912727 219.710903 
L 301.090909 221.901075 
L 290.269091 218.848917 
L 279.447273 211.944551 
L 268.625455 209.764309 
L 257.803636 205.266011 
L 246.981818 203.801997 
L 236.16 201.232821 
L 225.338182 196.648172 
L 214.516364 191.579114 
L 203.694545 185.934036 
L 192.872727 180.0337 
L 182.050909 173.894819 
L 171.229091 167.966102 
L 160.407273 162.440468 
L 149.585455 157.317613 
L 138.763636 152.651697 
L 127.941818 148.470925 
L 117.12 144.799267 
L 106.298182 141.479064 
L 95.476364 138.481073 
L 84.654545 135.92443 
L 73.832727 133.54584 
z
" style="fill:#0088ff;fill-opacity:0.15;"/>
   </g>
   <g id="PolyCollection_2">
    <path clip-path="url(#p7950627828)" d="M 73.832727 148.696713 
L 73.832727 148.927764 
L 84.654545 154.134877 
L 95.476364 160.205134 
L 106.298182 167.744888 
L 117.12 176.813436 
L 127.941818 188.614938 
L 138.763636 203.901126 
L 149.585455 226.253195 
L 160.407273 264.957764 
L 171.229091 295.488 
L 182.050909 247.908675 
L 192.872727 225.097921 
L 203.694545 212.645968 
L 214.516364 206.38861 
L 225.338182 203.771993 
L 236.16 205.492487 
L 246.981818 213.638657 
L 257.803636 224.160118 
L 268.625455 248.297061 
L 279.447273 279.753912 
L 290.269091 263.057925 
L 301.090909 243.402171 
L 311.912727 235.444612 
L 322.734545 239.032861 
L 333.556364 241.899796 
L 344.378182 235.347125 
L 355.2 235.781918 
L 366.021818 229.267076 
L 376.843636 213.366647 
L 387.665455 241.705072 
L 398.487273 212.06172 
L 398.487273 186.726373 
L 398.487273 186.726373 
L 387.665455 201.778597 
L 376.843636 196.224652 
L 366.021818 205.951629 
L 355.2 204.983403 
L 344.378182 206.054948 
L 333.556364 214.79598 
L 322.734545 229.890645 
L 311.912727 224.754184 
L 301.090909 227.249048 
L 290.269091 235.229424 
L 279.447273 254.588494 
L 268.625455 235.906805 
L 257.803636 218.007231 
L 246.981818 210.101653 
L 236.16 203.412921 
L 225.338182 201.709771 
L 214.516364 204.540277 
L 203.694545 211.011311 
L 192.872727 222.956981 
L 182.050909 242.975832 
L 171.229091 284.740193 
L 160.407273 258.973334 
L 149.585455 223.832683 
L 138.763636 202.665831 
L 127.941818 187.903157 
L 117.12 176.27593 
L 106.298182 167.301448 
L 95.476364 159.946725 
L 84.654545 153.846084 
L 73.832727 148.696713 
z
" style="fill:#dd5500;fill-opacity:0.15;"/>
   </g>
   <g id="matplotlib.axis_1">
    <g id="xtick_1">
     <g id="line2d_1">
      <path clip-path="url(#p7950627828)" d="M 73.832727 307.584 
L 73.832727 41.472 
" style="fill:none;stroke:#dddddd;stroke-linecap:square;stroke-width:0.5;"/>
     </g>
     <g id="line2d_2">
      <defs>
       <path d="M 0 0 
L 0 3.5 
" id="mfa0cdf0001" style="stroke:#000000;stroke-width:0.8;"/>
      </defs>
      <g>
       <use style="stroke:#000000;stroke-width:0.8;" x="73.832727" xlink:href="#mfa0cdf0001" y="307.584"/>
      </g>
     </g>
     <g id="text_1">
      <!-- $10^{1}$ -->
      <defs>
       <path d="M 26.59375 63.796875 
C 26.59375 65.890625 26.5 66 25.09375 66 
C 21.203125 61.359375 15.296875 59.890625 9.703125 59.6875 
C 9.40625 59.6875 8.90625 59.6875 8.796875 59.5 
C 8.703125 59.296875 8.703125 59.09375 8.703125 57 
C 11.796875 57 17 57.59375 21 59.984375 
L 21 7.296875 
C 21 3.796875 20.796875 2.59375 12.203125 2.59375 
L 9.203125 2.59375 
L 9.203125 0 
C 14 0.09375 19 0.1875 23.796875 0.1875 
C 28.59375 0.1875 33.59375 0.09375 38.40625 0 
L 38.40625 2.59375 
L 35.40625 2.59375 
C 26.796875 2.59375 26.59375 3.6875 26.59375 7.296875 
z
" id="CMR17-49"/>
       <path d="M 42 31.84375 
C 42 37.96875 41.90625 48.421875 37.703125 56.453125 
C 34 63.484375 28.09375 66 22.90625 66 
C 18.09375 66 12 63.78125 8.203125 56.5625 
C 4.203125 49.015625 3.796875 39.671875 3.796875 31.84375 
C 3.796875 26.109375 3.90625 17.375 7 9.734375 
C 11.296875 -0.609375 19 -2 22.90625 -2 
C 27.5 -2 34.5 -0.109375 38.59375 9.4375 
C 41.59375 16.375 42 24.5 42 31.84375 
z
M 22.90625 -0.40625 
C 16.5 -0.40625 12.703125 5.125 11.296875 12.75 
C 10.203125 18.6875 10.203125 27.328125 10.203125 32.953125 
C 10.203125 40.6875 10.203125 47.109375 11.5 53.234375 
C 13.40625 61.78125 19 64.390625 22.90625 64.390625 
C 27 64.390625 32.296875 61.671875 34.203125 53.4375 
C 35.5 47.71875 35.59375 40.984375 35.59375 32.953125 
C 35.59375 26.421875 35.59375 18.375 34.40625 12.453125 
C 32.296875 1.5 26.40625 -0.40625 22.90625 -0.40625 
z
" id="CMR17-48"/>
      </defs>
      <g transform="translate(66.865773 321.502498)scale(0.1 -0.1)">
       <use transform="scale(0.996264)" xlink:href="#CMR17-49"/>
       <use transform="translate(45.690477 0)scale(0.996264)" xlink:href="#CMR17-48"/>
       <use transform="translate(91.380954 36.153639)scale(0.697382)" xlink:href="#CMR17-49"/>
      </g>
     </g>
    </g>
    <g id="xtick_2">
     <g id="line2d_3">
      <path clip-path="url(#p7950627828)" d="M 204.140402 307.584 
L 204.140402 41.472 
" style="fill:none;stroke:#dddddd;stroke-linecap:square;stroke-width:0.5;"/>
     </g>
     <g id="line2d_4">
      <defs>
       <path d="M 0 0 
L 0 2 
" id="m4ef32cf66b" style="stroke:#000000;stroke-width:0.6;"/>
      </defs>
      <g>
       <use style="stroke:#000000;stroke-width:0.6;" x="204.140402" xlink:href="#m4ef32cf66b" y="307.584"/>
      </g>
     </g>
     <g id="text_2">
      <!-- $2\times10^{1}$ -->
      <defs>
       <path d="M 41.703125 15.46875 
L 39.90625 15.46875 
C 38.90625 8.390625 38.09375 7.1875 37.703125 6.59375 
C 37.203125 5.796875 30 5.796875 28.59375 5.796875 
L 9.40625 5.796875 
C 13 9.6875 20 16.765625 28.5 24.9375 
C 34.59375 30.71875 41.703125 37.5 41.703125 47.390625 
C 41.703125 59.1875 32.296875 66 21.796875 66 
C 10.796875 66 4.09375 56.296875 4.09375 47.296875 
C 4.09375 43.390625 7 42.890625 8.203125 42.890625 
C 9.203125 42.890625 12.203125 43.484375 12.203125 46.984375 
C 12.203125 50.09375 9.59375 51 8.203125 51 
C 7.59375 51 7 50.890625 6.59375 50.6875 
C 8.5 59.1875 14.296875 63.390625 20.40625 63.390625 
C 29.09375 63.390625 34.796875 56.5 34.796875 47.390625 
C 34.796875 38.703125 29.703125 31.21875 24 24.734375 
L 4.09375 2.296875 
L 4.09375 0 
L 39.296875 0 
z
" id="CMR17-50"/>
       <path d="M 38.90625 27.734375 
L 18.90625 47.59375 
C 17.703125 48.796875 17.5 49 16.703125 49 
C 15.703125 49 14.703125 48.09375 14.703125 47 
C 14.703125 46.296875 14.90625 46.09375 16 45 
L 36 24.9375 
L 16 4.890625 
C 14.90625 3.796875 14.703125 3.59375 14.703125 2.890625 
C 14.703125 1.796875 15.703125 0.890625 16.703125 0.890625 
C 17.5 0.890625 17.703125 1.09375 18.90625 2.296875 
L 38.796875 22.15625 
L 59.5 1.484375 
C 59.703125 1.390625 60.40625 0.890625 61 0.890625 
C 62.203125 0.890625 63 1.796875 63 2.890625 
C 63 3.09375 63 3.484375 62.703125 3.984375 
C 62.59375 4.1875 46.703125 19.859375 41.703125 24.9375 
L 60 43.203125 
C 60.5 43.796875 62 45.09375 62.5 45.703125 
C 62.59375 45.890625 63 46.296875 63 47 
C 63 48.09375 62.203125 49 61 49 
C 60.203125 49 59.796875 48.59375 58.703125 47.5 
z
" id="CMSY10-2"/>
      </defs>
      <g transform="translate(188.594543 319.986655)scale(0.1 -0.1)">
       <use transform="scale(0.996264)" xlink:href="#CMR17-50"/>
       <use transform="translate(67.829684 0)scale(0.996264)" xlink:href="#CMSY10-2"/>
       <use transform="translate(167.456359 0)scale(0.996264)" xlink:href="#CMR17-49"/>
       <use transform="translate(213.146836 0)scale(0.996264)" xlink:href="#CMR17-48"/>
       <use transform="translate(258.837313 36.153639)scale(0.697382)" xlink:href="#CMR17-49"/>
      </g>
     </g>
    </g>
    <g id="xtick_3">
     <g id="line2d_5">
      <path clip-path="url(#p7950627828)" d="M 280.365506 307.584 
L 280.365506 41.472 
" style="fill:none;stroke:#dddddd;stroke-linecap:square;stroke-width:0.5;"/>
     </g>
     <g id="line2d_6">
      <g>
       <use style="stroke:#000000;stroke-width:0.6;" x="280.365506" xlink:href="#m4ef32cf66b" y="307.584"/>
      </g>
     </g>
     <g id="text_3">
      <!-- $3\times10^{1}$ -->
      <defs>
       <path d="M 22.09375 34 
C 31 34 34.90625 26.140625 34.90625 17.09375 
C 34.90625 5.03125 28.5 0.390625 22.703125 0.390625 
C 17.40625 0.390625 8.796875 3.015625 6.09375 10.796875 
C 6.59375 10.59375 7.09375 10.59375 7.59375 10.59375 
C 10 10.59375 11.796875 12.1875 11.796875 14.796875 
C 11.796875 17.6875 9.59375 19 7.59375 19 
C 5.90625 19 3.296875 18.1875 3.296875 14.484375 
C 3.296875 5.234375 12.296875 -2 22.90625 -2 
C 34 -2 42.5 6.75 42.5 16.984375 
C 42.5 26.84375 34.5 34 25 35.09375 
C 32.59375 36.671875 39.90625 43.375 39.90625 52.390625 
C 39.90625 60.25 32 66 23 66 
C 13.90625 66 5.90625 60.34375 5.90625 52.296875 
C 5.90625 48.796875 8.5 48.1875 9.796875 48.1875 
C 11.90625 48.1875 13.703125 49.484375 13.703125 52.09375 
C 13.703125 54.6875 11.90625 56 9.796875 56 
C 9.40625 56 8.90625 56 8.5 55.796875 
C 11.40625 62.484375 19.296875 63.6875 22.796875 63.6875 
C 26.296875 63.6875 32.90625 61.96875 32.90625 52.296875 
C 32.90625 49.484375 32.5 44.546875 29.09375 40.21875 
C 26.09375 36.390625 22.703125 36.1875 19.40625 35.890625 
C 18.90625 35.890625 16.59375 35.6875 16.203125 35.6875 
C 15.5 35.59375 15.09375 35.5 15.09375 34.796875 
C 15.09375 34.09375 15.203125 34 17.203125 34 
z
" id="CMR17-51"/>
      </defs>
      <g transform="translate(264.819647 319.986655)scale(0.1 -0.1)">
       <use transform="scale(0.996264)" xlink:href="#CMR17-51"/>
       <use transform="translate(67.829684 0)scale(0.996264)" xlink:href="#CMSY10-2"/>
       <use transform="translate(167.456359 0)scale(0.996264)" xlink:href="#CMR17-49"/>
       <use transform="translate(213.146836 0)scale(0.996264)" xlink:href="#CMR17-48"/>
       <use transform="translate(258.837313 36.153639)scale(0.697382)" xlink:href="#CMR17-49"/>
      </g>
     </g>
    </g>
    <g id="xtick_4">
     <g id="line2d_7">
      <path clip-path="url(#p7950627828)" d="M 334.448078 307.584 
L 334.448078 41.472 
" style="fill:none;stroke:#dddddd;stroke-linecap:square;stroke-width:0.5;"/>
     </g>
     <g id="line2d_8">
      <g>
       <use style="stroke:#000000;stroke-width:0.6;" x="334.448078" xlink:href="#m4ef32cf66b" y="307.584"/>
      </g>
     </g>
     <g id="text_4">
      <!-- $4\times10^{1}$ -->
      <defs>
       <path d="M 33.59375 64.796875 
C 33.59375 66.890625 33.5 67 31.703125 67 
L 2 19.59375 
L 2 17 
L 27.796875 17 
L 27.796875 7.1875 
C 27.796875 3.59375 27.59375 2.59375 20.59375 2.59375 
L 18.703125 2.59375 
L 18.703125 0 
C 21.90625 0.1875 27.296875 0.1875 30.703125 0.1875 
C 34.09375 0.1875 39.5 0.1875 42.703125 0 
L 42.703125 2.59375 
L 40.796875 2.59375 
C 33.796875 2.59375 33.59375 3.59375 33.59375 7.1875 
L 33.59375 17 
L 43.796875 17 
L 43.796875 19.59375 
L 33.59375 19.59375 
z
M 28.09375 58.171875 
L 28.09375 19.59375 
L 4 19.59375 
z
" id="CMR17-52"/>
      </defs>
      <g transform="translate(318.902218 319.986655)scale(0.1 -0.1)">
       <use transform="scale(0.996264)" xlink:href="#CMR17-52"/>
       <use transform="translate(67.829684 0)scale(0.996264)" xlink:href="#CMSY10-2"/>
       <use transform="translate(167.456359 0)scale(0.996264)" xlink:href="#CMR17-49"/>
       <use transform="translate(213.146836 0)scale(0.996264)" xlink:href="#CMR17-48"/>
       <use transform="translate(258.837313 36.153639)scale(0.697382)" xlink:href="#CMR17-49"/>
      </g>
     </g>
    </g>
    <g id="xtick_5">
     <g id="line2d_9">
      <path clip-path="url(#p7950627828)" d="M 376.397779 307.584 
L 376.397779 41.472 
" style="fill:none;stroke:#dddddd;stroke-linecap:square;stroke-width:0.5;"/>
     </g>
     <g id="line2d_10">
      <g>
       <use style="stroke:#000000;stroke-width:0.6;" x="376.397779" xlink:href="#m4ef32cf66b" y="307.584"/>
      </g>
     </g>
    </g>
    <g id="xtick_6">
     <g id="line2d_11">
      <path clip-path="url(#p7950627828)" d="M 410.673181 307.584 
L 410.673181 41.472 
" style="fill:none;stroke:#dddddd;stroke-linecap:square;stroke-width:0.5;"/>
     </g>
     <g id="line2d_12">
      <g>
       <use style="stroke:#000000;stroke-width:0.6;" x="410.673181" xlink:href="#m4ef32cf66b" y="307.584"/>
      </g>
     </g>
     <g id="text_5">
      <!-- $6\times10^{1}$ -->
      <defs>
       <path d="M 10.59375 34.34375 
C 10.59375 58 21.796875 63.6875 28.296875 63.6875 
C 30.40625 63.6875 35.5 63.265625 37.5 59.09375 
C 35.90625 59.09375 32.90625 59.09375 32.90625 55.59375 
C 32.90625 52.890625 35.09375 52 36.5 52 
C 37.40625 52 40.09375 52.390625 40.09375 55.796875 
C 40.09375 62.296875 35.09375 66 28.203125 66 
C 16.296875 66 3.796875 53.296875 3.796875 31.421875 
C 3.796875 4.015625 15.09375 -2 23.09375 -2 
C 32.796875 -2 42 6.734375 42 20.234375 
C 42 32.828125 33.90625 42 23.703125 42 
C 17.59375 42 13.09375 37.96875 10.59375 30.921875 
z
M 23.09375 0.390625 
C 10.796875 0.390625 10.796875 18.9375 10.796875 22.65625 
C 10.796875 29.90625 14.203125 40.390625 23.5 40.390625 
C 25.203125 40.390625 30.09375 40.390625 33.40625 33.4375 
C 35.203125 29.515625 35.203125 25.375 35.203125 20.34375 
C 35.203125 14.90625 35.203125 10.875 33.09375 6.84375 
C 30.90625 2.703125 27.703125 0.390625 23.09375 0.390625 
z
" id="CMR17-54"/>
      </defs>
      <g transform="translate(395.127322 319.986655)scale(0.1 -0.1)">
       <use transform="scale(0.996264)" xlink:href="#CMR17-54"/>
       <use transform="translate(67.829684 0)scale(0.996264)" xlink:href="#CMSY10-2"/>
       <use transform="translate(167.456359 0)scale(0.996264)" xlink:href="#CMR17-49"/>
       <use transform="translate(213.146836 0)scale(0.996264)" xlink:href="#CMR17-48"/>
       <use transform="translate(258.837313 36.153639)scale(0.697382)" xlink:href="#CMR17-49"/>
      </g>
     </g>
    </g>
    <g id="text_6">
     <!-- sweep time $t_f$ in ns -->
     <defs>
      <path d="M 30.90625 42 
C 30.90625 43.796875 30.796875 43.890625 30.203125 43.890625 
C 29.796875 43.890625 29.703125 43.796875 28.5 42.296875 
C 28.203125 41.890625 27.296875 40.890625 27 40.5 
C 23.796875 43.890625 19.296875 44 17.59375 44 
C 6.5 44 2.5 38.1875 2.5 32.390625 
C 2.5 23.390625 12.703125 21.296875 15.59375 20.6875 
C 21.90625 19.390625 24.09375 19 26.203125 17.1875 
C 27.5 16 29.703125 13.796875 29.703125 10.1875 
C 29.703125 6 27.296875 0.59375 18.09375 0.59375 
C 9.40625 0.59375 6.296875 7.1875 4.5 16 
C 4.203125 17.390625 4.203125 17.5 3.40625 17.5 
C 2.59375 17.5 2.5 17.390625 2.5 15.390625 
L 2.5 1 
C 2.5 -0.8125 2.59375 -0.90625 3.203125 -0.90625 
C 3.703125 -0.90625 3.796875 -0.8125 4.296875 0 
C 4.90625 0.890625 6.40625 3.296875 7 4.296875 
C 9 1.59375 12.5 -1 18.09375 -1 
C 28 -1 33.296875 4.390625 33.296875 12.1875 
C 33.296875 17.296875 30.59375 20 29.296875 21.1875 
C 26.296875 24.296875 22.796875 25 18.59375 25.796875 
C 13.09375 27 6.09375 28.390625 6.09375 34.5 
C 6.09375 37.09375 7.5 42.59375 17.59375 42.59375 
C 28.296875 42.59375 28.90625 32.59375 29.09375 29.390625 
C 29.203125 28.890625 29.703125 28.796875 30 28.796875 
C 30.90625 28.796875 30.90625 29.09375 30.90625 30.796875 
z
" id="CMR17-115"/>
      <path d="M 58.203125 34.15625 
C 60.203125 40.09375 64.203125 40.296875 65.703125 40.390625 
L 65.703125 43 
C 63.703125 42.890625 61.703125 42.796875 59.703125 42.796875 
C 57.796875 42.796875 53.5 42.796875 51.796875 43 
L 51.796875 40.390625 
C 54.90625 40.1875 56.59375 38.375 56.59375 35.875 
C 56.59375 35.171875 56.40625 34.265625 56.203125 33.5625 
L 46.796875 6.21875 
L 36.59375 35.875 
C 36.40625 36.578125 36.09375 37.375 36.09375 37.78125 
C 36.09375 40.390625 39.5 40.390625 41.09375 40.390625 
L 41.09375 43 
C 38.796875 42.796875 34.59375 42.796875 32.203125 42.796875 
C 29.703125 42.796875 27.09375 42.796875 24.796875 43 
L 24.796875 40.390625 
C 30.296875 40.390625 30.296875 40.1875 32.40625 33.859375 
L 23.203125 6.921875 
L 13.296875 35.96875 
C 12.796875 37.28125 12.796875 37.484375 12.796875 37.78125 
C 12.796875 40.390625 16.203125 40.390625 17.796875 40.390625 
L 17.796875 43 
C 15.40625 42.796875 11.203125 42.796875 8.703125 42.796875 
C 6.5 42.796875 3.09375 42.796875 1 43 
L 1 40.390625 
C 5.40625 40.390625 6.5 40.09375 7.59375 36.765625 
L 19.90625 0.59375 
C 20.296875 -0.703125 20.59375 -1 21.40625 -1 
C 22.09375 -1 22.5 -0.8125 23 0.6875 
L 33.296875 31.046875 
L 43.703125 0.6875 
C 44.203125 -0.8125 44.59375 -1 45.296875 -1 
C 46.09375 -1 46.40625 -0.703125 46.796875 0.59375 
z
" id="CMR17-119"/>
      <path d="M 38.09375 23.484375 
C 38.5 23.890625 38.5 24.09375 38.5 25.09375 
C 38.5 35.171875 33.09375 44 21.703125 44 
C 11.09375 44 2.703125 33.984375 2.703125 21.78125 
C 2.703125 8.65625 12.203125 -1 22.796875 -1 
C 34 -1 38.40625 9.671875 38.40625 11.796875 
C 38.40625 12.5 37.796875 12.5 37.59375 12.5 
C 36.90625 12.5 36.796875 12.296875 36.40625 11.078125 
C 34.203125 4.21875 28.703125 0.796875 23.5 0.796875 
C 19.203125 0.796875 14.90625 3.21875 12.203125 7.65625 
C 9.09375 12.796875 9.09375 18.75 9.09375 23.484375 
z
M 9.203125 25 
C 9.90625 39.234375 17.59375 42.390625 21.59375 42.390625 
C 28.40625 42.390625 33 36.0625 33.09375 25 
z
" id="CMR17-101"/>
      <path d="M 22 -17.40625 
C 15.59375 -17.40625 15.203125 -17 15.203125 -13.03125 
L 15.203125 5.9375 
C 18.09375 1.703125 22.296875 -1 27.59375 -1 
C 37.59375 -1 47.703125 7.859375 47.703125 21.59375 
C 47.703125 34.3125 39 44 28.703125 44 
C 22.703125 44 17.796875 40.671875 15 36.640625 
L 15 44 
L 3.09375 42.890625 
L 3.09375 40.265625 
C 9 40.265625 9.90625 39.671875 9.90625 34.8125 
L 9.90625 -13.03125 
C 9.90625 -16.890625 9.5 -17.40625 3.09375 -17.40625 
L 3.09375 -20 
C 5.5 -19.8125 9.90625 -19.8125 12.5 -19.8125 
C 15.09375 -19.8125 19.59375 -19.8125 22 -20 
z
M 15.203125 31.484375 
C 15.203125 32.90625 15.203125 35.015625 19.09375 38.765625 
C 19.59375 39.15625 23 42.1875 28 42.1875 
C 35.296875 42.1875 41.296875 33 41.296875 21.5 
C 41.296875 9.984375 34.90625 0.59375 27 0.59375 
C 23.40625 0.59375 19.5 2.3125 16.5 7.046875 
C 15.203125 9.28125 15.203125 9.875 15.203125 11.5 
z
" id="CMR17-112"/>
      <path d="M 15.09375 40.390625 
L 29.09375 40.390625 
L 29.09375 43 
L 15.09375 43 
L 15.09375 62 
L 13.296875 62 
C 13.09375 51.4375 9.59375 42.1875 1.09375 41.984375 
L 1.09375 40.390625 
L 9.796875 40.390625 
L 9.796875 12.15625 
C 9.796875 10.234375 9.796875 -1 21.40625 -1 
C 27.296875 -1 30.703125 4.8125 30.703125 12.25 
L 30.703125 17.984375 
L 28.90625 17.984375 
L 28.90625 12.34375 
C 28.90625 5.421875 26.203125 0.796875 22 0.796875 
C 19.09375 0.796875 15.09375 2.796875 15.09375 11.953125 
z
" id="CMR17-116"/>
      <path d="M 15.5 61.890625 
C 15.5 64.09375 13.703125 66 11.40625 66 
C 9.203125 66 7.296875 64.1875 7.296875 61.890625 
C 7.296875 59.6875 9.09375 57.796875 11.40625 57.796875 
C 13.59375 57.796875 15.5 59.59375 15.5 61.890625 
z
M 3.796875 42.890625 
L 3.796875 40.296875 
C 9.40625 40.296875 10.203125 39.6875 10.203125 34.859375 
L 10.203125 6.921875 
C 10.203125 3.09375 9.796875 2.59375 3.40625 2.59375 
L 3.40625 0 
C 5.796875 0.1875 10.09375 0.1875 12.59375 0.1875 
C 15 0.1875 19.09375 0.1875 21.40625 0 
L 21.40625 2.59375 
C 15.5 2.59375 15.296875 3.203125 15.296875 6.8125 
L 15.296875 44 
z
" id="CMR17-105"/>
      <path d="M 67.59375 30.53125 
C 67.59375 35.5625 66.703125 44 54.796875 44 
C 48 44 43.296875 39.375 41.5 33.953125 
L 41.40625 33.953125 
C 40.203125 42.1875 34.296875 44 28.703125 44 
C 20.796875 44 16.703125 37.875 15.203125 33.84375 
L 15.09375 33.84375 
L 15.09375 44 
L 3.296875 42.890625 
L 3.296875 40.28125 
C 9.203125 40.28125 10.09375 39.6875 10.09375 34.859375 
L 10.09375 6.921875 
C 10.09375 3.09375 9.703125 2.59375 3.296875 2.59375 
L 3.296875 0 
C 5.703125 0.1875 10.09375 0.1875 12.703125 0.1875 
C 15.296875 0.1875 19.796875 0.1875 22.203125 0 
L 22.203125 2.59375 
C 15.796875 2.59375 15.40625 3 15.40625 6.921875 
L 15.40625 26.21875 
C 15.40625 35.453125 21 42.390625 28 42.390625 
C 35.40625 42.390625 36.203125 35.765625 36.203125 30.9375 
L 36.203125 6.921875 
C 36.203125 3.09375 35.796875 2.59375 29.40625 2.59375 
L 29.40625 0 
C 31.796875 0.1875 36.203125 0.1875 38.796875 0.1875 
C 41.40625 0.1875 45.90625 0.1875 48.296875 0 
L 48.296875 2.59375 
C 41.90625 2.59375 41.5 3 41.5 6.921875 
L 41.5 26.21875 
C 41.5 35.453125 47.09375 42.390625 54.09375 42.390625 
C 61.5 42.390625 62.296875 35.765625 62.296875 30.9375 
L 62.296875 6.921875 
C 62.296875 3.09375 61.90625 2.59375 55.5 2.59375 
L 55.5 0 
C 57.90625 0.1875 62.296875 0.1875 64.90625 0.1875 
C 67.5 0.1875 72 0.1875 74.40625 0 
L 74.40625 2.59375 
C 68 2.59375 67.59375 3 67.59375 6.921875 
z
" id="CMR17-109"/>
      <path d="M 20.09375 40.09375 
L 29.296875 40.09375 
C 31.203125 40.09375 32.203125 40.09375 32.203125 41.890625 
C 32.203125 43 31.59375 43 29.59375 43 
L 20.796875 43 
L 24.5 57.25 
C 24.90625 58.625 24.90625 58.8125 24.90625 59.5 
C 24.90625 61.09375 23.59375 62 22.296875 62 
C 21.5 62 19.203125 61.6875 18.40625 58.53125 
L 14.5 43 
L 5.09375 43 
C 3.09375 43 2.203125 43 2.203125 41.09375 
C 2.203125 40.09375 2.90625 40.09375 4.796875 40.09375 
L 13.703125 40.09375 
L 7.09375 13.765625 
C 6.296875 10.265625 6 9.265625 6 7.96875 
C 6 3.28125 9.296875 -1 14.90625 -1 
C 25 -1 30.40625 13.5625 30.40625 14.265625 
C 30.40625 14.859375 30 15.15625 29.40625 15.15625 
C 29.203125 15.15625 28.796875 15.15625 28.59375 14.75 
C 28.5 14.65625 28.40625 14.5625 27.703125 12.96875 
C 25.59375 7.96875 21 1 15.203125 1 
C 12.203125 1 12 3.484375 12 5.6875 
C 12 5.78125 12 7.671875 12.296875 8.875 
z
" id="CMMI12-116"/>
      <path d="M 44.59375 40.09375 
C 46.59375 40.09375 47.40625 40.09375 47.40625 41.984375 
C 47.40625 43 46.59375 43 44.796875 43 
L 36.703125 43 
C 38.59375 53.09375 40 60.09375 40.796875 63.296875 
C 41.40625 65.6875 43.5 67.984375 46.09375 67.984375 
C 48.203125 67.984375 50.296875 67.09375 51.296875 66.1875 
C 47.40625 65.796875 46.203125 62.890625 46.203125 61.1875 
C 46.203125 59.1875 47.703125 58 49.59375 58 
C 51.59375 58 54.59375 59.6875 54.59375 63.5 
C 54.59375 67.6875 50.40625 70 46 70 
C 41.703125 70 37.5 66.796875 35.5 62.890625 
C 33.703125 59.390625 32.703125 55.828125 30.40625 43 
L 23.703125 43 
C 21.796875 43 20.796875 43 20.796875 41.1875 
C 20.796875 40.09375 21.40625 40.09375 23.40625 40.09375 
L 29.796875 40.09375 
C 28 30.890625 23.90625 8.515625 21.59375 -2.0625 
C 19.90625 -10.703125 18.40625 -18 13.40625 -18 
C 13.09375 -18 10.203125 -18 8.40625 -16.109375 
C 13.5 -15.703125 13.5 -11.3125 13.5 -11.203125 
C 13.5 -9.203125 12 -8 10.09375 -8 
C 8.09375 -8 5.09375 -9.703125 5.09375 -13.515625 
C 5.09375 -17.8125 9.5 -20 13.40625 -20 
C 23.59375 -20 27.796875 -1.765625 28.90625 3.171875 
C 30.703125 10.796875 35.59375 37.125 36.09375 40.09375 
z
" id="CMMI12-102"/>
      <path d="M 41.5 30.53125 
C 41.5 35.65625 40.5 44 28.703125 44 
C 20.796875 44 16.703125 37.875 15.203125 33.84375 
L 15.09375 33.84375 
L 15.09375 44 
L 3.296875 42.890625 
L 3.296875 40.28125 
C 9.203125 40.28125 10.09375 39.6875 10.09375 34.859375 
L 10.09375 6.921875 
C 10.09375 3.09375 9.703125 2.59375 3.296875 2.59375 
L 3.296875 0 
C 5.703125 0.1875 10.09375 0.1875 12.703125 0.1875 
C 15.296875 0.1875 19.796875 0.1875 22.203125 0 
L 22.203125 2.59375 
C 15.796875 2.59375 15.40625 3 15.40625 6.921875 
L 15.40625 26.21875 
C 15.40625 35.453125 21 42.390625 28 42.390625 
C 35.40625 42.390625 36.203125 35.765625 36.203125 30.9375 
L 36.203125 6.921875 
C 36.203125 3.09375 35.796875 2.59375 29.40625 2.59375 
L 29.40625 0 
C 31.796875 0.1875 36.203125 0.1875 38.796875 0.1875 
C 41.40625 0.1875 45.90625 0.1875 48.296875 0 
L 48.296875 2.59375 
C 41.90625 2.59375 41.5 3 41.5 6.921875 
z
" id="CMR17-110"/>
     </defs>
     <g transform="translate(193.948436 335.006531)scale(0.1 -0.1)">
      <use transform="translate(0 14.943915)scale(0.996264)" xlink:href="#CMR17-115"/>
      <use transform="translate(35.801338 14.943915)scale(0.996264)" xlink:href="#CMR17-119"/>
      <use transform="translate(99.708764 14.943915)scale(0.996264)" xlink:href="#CMR17-101"/>
      <use transform="translate(140.194425 14.943915)scale(0.996264)" xlink:href="#CMR17-101"/>
      <use transform="translate(180.680085 14.943915)scale(0.996264)" xlink:href="#CMR17-112"/>
      <use transform="translate(261.651421 14.943915)scale(0.996264)" xlink:href="#CMR17-116"/>
      <use transform="translate(296.932189 14.943915)scale(0.996264)" xlink:href="#CMR17-105"/>
      <use transform="translate(321.803248 14.943915)scale(0.996264)" xlink:href="#CMR17-109"/>
      <use transform="translate(398.722837 14.943915)scale(0.996264)" xlink:href="#CMR17-101"/>
      <use transform="translate(469.284464 14.943915)scale(0.996264)" xlink:href="#CMMI12-116"/>
      <use transform="translate(504.510794 0)scale(0.697382)" xlink:href="#CMMI12-102"/>
      <use transform="translate(576.188916 14.943915)scale(0.996264)" xlink:href="#CMR17-105"/>
      <use transform="translate(601.059975 14.943915)scale(0.996264)" xlink:href="#CMR17-110"/>
      <use transform="translate(682.031311 14.943915)scale(0.996264)" xlink:href="#CMR17-110"/>
      <use transform="translate(732.926681 14.943915)scale(0.996264)" xlink:href="#CMR17-115"/>
     </g>
    </g>
   </g>
   <g id="matplotlib.axis_2">
    <g id="ytick_1">
     <g id="line2d_13">
      <path clip-path="url(#p7950627828)" d="M 57.6 278.31355 
L 414.72 278.31355 
" style="fill:none;stroke:#dddddd;stroke-linecap:square;stroke-width:0.5;"/>
     </g>
     <g id="line2d_14">
      <defs>
       <path d="M 0 0 
L -3.5 0 
" id="me323a639b0" style="stroke:#000000;stroke-width:0.8;"/>
      </defs>
      <g>
       <use style="stroke:#000000;stroke-width:0.8;" x="57.6" xlink:href="#me323a639b0" y="278.31355"/>
      </g>
     </g>
     <g id="text_7">
      <!-- $10^{-4}$ -->
      <defs>
       <path d="M 65.90625 23 
C 67.59375 23 69.40625 23 69.40625 25 
C 69.40625 27 67.59375 27 65.90625 27 
L 11.796875 27 
C 10.09375 27 8.296875 27 8.296875 25 
C 8.296875 23 10.09375 23 11.796875 23 
z
" id="CMSY10-0"/>
      </defs>
      <g transform="translate(30.439427 281.7728)scale(0.1 -0.1)">
       <use transform="scale(0.996264)" xlink:href="#CMR17-49"/>
       <use transform="translate(45.690477 0)scale(0.996264)" xlink:href="#CMR17-48"/>
       <use transform="translate(91.380954 36.153639)scale(0.697382)" xlink:href="#CMSY10-0"/>
       <use transform="translate(145.621947 36.153639)scale(0.697382)" xlink:href="#CMR17-52"/>
      </g>
     </g>
    </g>
    <g id="ytick_2">
     <g id="line2d_15">
      <path clip-path="url(#p7950627828)" d="M 57.6 222.127163 
L 414.72 222.127163 
" style="fill:none;stroke:#dddddd;stroke-linecap:square;stroke-width:0.5;"/>
     </g>
     <g id="line2d_16">
      <g>
       <use style="stroke:#000000;stroke-width:0.8;" x="57.6" xlink:href="#me323a639b0" y="222.127163"/>
      </g>
     </g>
     <g id="text_8">
      <!-- $10^{-3}$ -->
      <g transform="translate(30.439427 225.586412)scale(0.1 -0.1)">
       <use transform="scale(0.996264)" xlink:href="#CMR17-49"/>
       <use transform="translate(45.690477 0)scale(0.996264)" xlink:href="#CMR17-48"/>
       <use transform="translate(91.380954 36.153639)scale(0.697382)" xlink:href="#CMSY10-0"/>
       <use transform="translate(145.621947 36.153639)scale(0.697382)" xlink:href="#CMR17-51"/>
      </g>
     </g>
    </g>
    <g id="ytick_3">
     <g id="line2d_17">
      <path clip-path="url(#p7950627828)" d="M 57.6 165.940775 
L 414.72 165.940775 
" style="fill:none;stroke:#dddddd;stroke-linecap:square;stroke-width:0.5;"/>
     </g>
     <g id="line2d_18">
      <g>
       <use style="stroke:#000000;stroke-width:0.8;" x="57.6" xlink:href="#me323a639b0" y="165.940775"/>
      </g>
     </g>
     <g id="text_9">
      <!-- $10^{-2}$ -->
      <g transform="translate(30.439427 169.400024)scale(0.1 -0.1)">
       <use transform="scale(0.996264)" xlink:href="#CMR17-49"/>
       <use transform="translate(45.690477 0)scale(0.996264)" xlink:href="#CMR17-48"/>
       <use transform="translate(91.380954 36.153639)scale(0.697382)" xlink:href="#CMSY10-0"/>
       <use transform="translate(145.621947 36.153639)scale(0.697382)" xlink:href="#CMR17-50"/>
      </g>
     </g>
    </g>
    <g id="ytick_4">
     <g id="line2d_19">
      <path clip-path="url(#p7950627828)" d="M 57.6 109.754388 
L 414.72 109.754388 
" style="fill:none;stroke:#dddddd;stroke-linecap:square;stroke-width:0.5;"/>
     </g>
     <g id="line2d_20">
      <g>
       <use style="stroke:#000000;stroke-width:0.8;" x="57.6" xlink:href="#me323a639b0" y="109.754388"/>
      </g>
     </g>
     <g id="text_10">
      <!-- $10^{-1}$ -->
      <g transform="translate(30.439427 113.213637)scale(0.1 -0.1)">
       <use transform="scale(0.996264)" xlink:href="#CMR17-49"/>
       <use transform="translate(45.690477 0)scale(0.996264)" xlink:href="#CMR17-48"/>
       <use transform="translate(91.380954 36.153639)scale(0.697382)" xlink:href="#CMSY10-0"/>
       <use transform="translate(145.621947 36.153639)scale(0.697382)" xlink:href="#CMR17-49"/>
      </g>
     </g>
    </g>
    <g id="ytick_5">
     <g id="line2d_21">
      <path clip-path="url(#p7950627828)" d="M 57.6 53.568 
L 414.72 53.568 
" style="fill:none;stroke:#dddddd;stroke-linecap:square;stroke-width:0.5;"/>
     </g>
     <g id="line2d_22">
      <g>
       <use style="stroke:#000000;stroke-width:0.8;" x="57.6" xlink:href="#me323a639b0" y="53.568"/>
      </g>
     </g>
     <g id="text_11">
      <!-- $10^{0}$ -->
      <g transform="translate(36.666092 57.027249)scale(0.1 -0.1)">
       <use transform="scale(0.996264)" xlink:href="#CMR17-49"/>
       <use transform="translate(45.690477 0)scale(0.996264)" xlink:href="#CMR17-48"/>
       <use transform="translate(91.380954 36.153639)scale(0.697382)" xlink:href="#CMR17-48"/>
      </g>
     </g>
    </g>
    <g id="ytick_6">
     <g id="line2d_23">
      <path clip-path="url(#p7950627828)" d="M 57.6 300.672362 
L 414.72 300.672362 
" style="fill:none;stroke:#dddddd;stroke-linecap:square;stroke-width:0.5;"/>
     </g>
     <g id="line2d_24">
      <defs>
       <path d="M 0 0 
L -2 0 
" id="m8dd500c289" style="stroke:#000000;stroke-width:0.6;"/>
      </defs>
      <g>
       <use style="stroke:#000000;stroke-width:0.6;" x="57.6" xlink:href="#m8dd500c289" y="300.672362"/>
      </g>
     </g>
    </g>
    <g id="ytick_7">
     <g id="line2d_25">
      <path clip-path="url(#p7950627828)" d="M 57.6 295.227338 
L 414.72 295.227338 
" style="fill:none;stroke:#dddddd;stroke-linecap:square;stroke-width:0.5;"/>
     </g>
     <g id="line2d_26">
      <g>
       <use style="stroke:#000000;stroke-width:0.6;" x="57.6" xlink:href="#m8dd500c289" y="295.227338"/>
      </g>
     </g>
    </g>
    <g id="ytick_8">
     <g id="line2d_27">
      <path clip-path="url(#p7950627828)" d="M 57.6 290.77843 
L 414.72 290.77843 
" style="fill:none;stroke:#dddddd;stroke-linecap:square;stroke-width:0.5;"/>
     </g>
     <g id="line2d_28">
      <g>
       <use style="stroke:#000000;stroke-width:0.6;" x="57.6" xlink:href="#m8dd500c289" y="290.77843"/>
      </g>
     </g>
    </g>
    <g id="ytick_9">
     <g id="line2d_29">
      <path clip-path="url(#p7950627828)" d="M 57.6 287.016932 
L 414.72 287.016932 
" style="fill:none;stroke:#dddddd;stroke-linecap:square;stroke-width:0.5;"/>
     </g>
     <g id="line2d_30">
      <g>
       <use style="stroke:#000000;stroke-width:0.6;" x="57.6" xlink:href="#m8dd500c289" y="287.016932"/>
      </g>
     </g>
    </g>
    <g id="ytick_10">
     <g id="line2d_31">
      <path clip-path="url(#p7950627828)" d="M 57.6 283.758574 
L 414.72 283.758574 
" style="fill:none;stroke:#dddddd;stroke-linecap:square;stroke-width:0.5;"/>
     </g>
     <g id="line2d_32">
      <g>
       <use style="stroke:#000000;stroke-width:0.6;" x="57.6" xlink:href="#m8dd500c289" y="283.758574"/>
      </g>
     </g>
    </g>
    <g id="ytick_11">
     <g id="line2d_33">
      <path clip-path="url(#p7950627828)" d="M 57.6 280.884499 
L 414.72 280.884499 
" style="fill:none;stroke:#dddddd;stroke-linecap:square;stroke-width:0.5;"/>
     </g>
     <g id="line2d_34">
      <g>
       <use style="stroke:#000000;stroke-width:0.6;" x="57.6" xlink:href="#m8dd500c289" y="280.884499"/>
      </g>
     </g>
    </g>
    <g id="ytick_12">
     <g id="line2d_35">
      <path clip-path="url(#p7950627828)" d="M 57.6 261.399762 
L 414.72 261.399762 
" style="fill:none;stroke:#dddddd;stroke-linecap:square;stroke-width:0.5;"/>
     </g>
     <g id="line2d_36">
      <g>
       <use style="stroke:#000000;stroke-width:0.6;" x="57.6" xlink:href="#m8dd500c289" y="261.399762"/>
      </g>
     </g>
    </g>
    <g id="ytick_13">
     <g id="line2d_37">
      <path clip-path="url(#p7950627828)" d="M 57.6 251.505831 
L 414.72 251.505831 
" style="fill:none;stroke:#dddddd;stroke-linecap:square;stroke-width:0.5;"/>
     </g>
     <g id="line2d_38">
      <g>
       <use style="stroke:#000000;stroke-width:0.6;" x="57.6" xlink:href="#m8dd500c289" y="251.505831"/>
      </g>
     </g>
    </g>
    <g id="ytick_14">
     <g id="line2d_39">
      <path clip-path="url(#p7950627828)" d="M 57.6 244.485974 
L 414.72 244.485974 
" style="fill:none;stroke:#dddddd;stroke-linecap:square;stroke-width:0.5;"/>
     </g>
     <g id="line2d_40">
      <g>
       <use style="stroke:#000000;stroke-width:0.6;" x="57.6" xlink:href="#m8dd500c289" y="244.485974"/>
      </g>
     </g>
    </g>
    <g id="ytick_15">
     <g id="line2d_41">
      <path clip-path="url(#p7950627828)" d="M 57.6 239.040951 
L 414.72 239.040951 
" style="fill:none;stroke:#dddddd;stroke-linecap:square;stroke-width:0.5;"/>
     </g>
     <g id="line2d_42">
      <g>
       <use style="stroke:#000000;stroke-width:0.6;" x="57.6" xlink:href="#m8dd500c289" y="239.040951"/>
      </g>
     </g>
    </g>
    <g id="ytick_16">
     <g id="line2d_43">
      <path clip-path="url(#p7950627828)" d="M 57.6 234.592043 
L 414.72 234.592043 
" style="fill:none;stroke:#dddddd;stroke-linecap:square;stroke-width:0.5;"/>
     </g>
     <g id="line2d_44">
      <g>
       <use style="stroke:#000000;stroke-width:0.6;" x="57.6" xlink:href="#m8dd500c289" y="234.592043"/>
      </g>
     </g>
    </g>
    <g id="ytick_17">
     <g id="line2d_45">
      <path clip-path="url(#p7950627828)" d="M 57.6 230.830544 
L 414.72 230.830544 
" style="fill:none;stroke:#dddddd;stroke-linecap:square;stroke-width:0.5;"/>
     </g>
     <g id="line2d_46">
      <g>
       <use style="stroke:#000000;stroke-width:0.6;" x="57.6" xlink:href="#m8dd500c289" y="230.830544"/>
      </g>
     </g>
    </g>
    <g id="ytick_18">
     <g id="line2d_47">
      <path clip-path="url(#p7950627828)" d="M 57.6 227.572186 
L 414.72 227.572186 
" style="fill:none;stroke:#dddddd;stroke-linecap:square;stroke-width:0.5;"/>
     </g>
     <g id="line2d_48">
      <g>
       <use style="stroke:#000000;stroke-width:0.6;" x="57.6" xlink:href="#m8dd500c289" y="227.572186"/>
      </g>
     </g>
    </g>
    <g id="ytick_19">
     <g id="line2d_49">
      <path clip-path="url(#p7950627828)" d="M 57.6 224.698111 
L 414.72 224.698111 
" style="fill:none;stroke:#dddddd;stroke-linecap:square;stroke-width:0.5;"/>
     </g>
     <g id="line2d_50">
      <g>
       <use style="stroke:#000000;stroke-width:0.6;" x="57.6" xlink:href="#m8dd500c289" y="224.698111"/>
      </g>
     </g>
    </g>
    <g id="ytick_20">
     <g id="line2d_51">
      <path clip-path="url(#p7950627828)" d="M 57.6 205.213375 
L 414.72 205.213375 
" style="fill:none;stroke:#dddddd;stroke-linecap:square;stroke-width:0.5;"/>
     </g>
     <g id="line2d_52">
      <g>
       <use style="stroke:#000000;stroke-width:0.6;" x="57.6" xlink:href="#m8dd500c289" y="205.213375"/>
      </g>
     </g>
    </g>
    <g id="ytick_21">
     <g id="line2d_53">
      <path clip-path="url(#p7950627828)" d="M 57.6 195.319443 
L 414.72 195.319443 
" style="fill:none;stroke:#dddddd;stroke-linecap:square;stroke-width:0.5;"/>
     </g>
     <g id="line2d_54">
      <g>
       <use style="stroke:#000000;stroke-width:0.6;" x="57.6" xlink:href="#m8dd500c289" y="195.319443"/>
      </g>
     </g>
    </g>
    <g id="ytick_22">
     <g id="line2d_55">
      <path clip-path="url(#p7950627828)" d="M 57.6 188.299587 
L 414.72 188.299587 
" style="fill:none;stroke:#dddddd;stroke-linecap:square;stroke-width:0.5;"/>
     </g>
     <g id="line2d_56">
      <g>
       <use style="stroke:#000000;stroke-width:0.6;" x="57.6" xlink:href="#m8dd500c289" y="188.299587"/>
      </g>
     </g>
    </g>
    <g id="ytick_23">
     <g id="line2d_57">
      <path clip-path="url(#p7950627828)" d="M 57.6 182.854563 
L 414.72 182.854563 
" style="fill:none;stroke:#dddddd;stroke-linecap:square;stroke-width:0.5;"/>
     </g>
     <g id="line2d_58">
      <g>
       <use style="stroke:#000000;stroke-width:0.6;" x="57.6" xlink:href="#m8dd500c289" y="182.854563"/>
      </g>
     </g>
    </g>
    <g id="ytick_24">
     <g id="line2d_59">
      <path clip-path="url(#p7950627828)" d="M 57.6 178.405655 
L 414.72 178.405655 
" style="fill:none;stroke:#dddddd;stroke-linecap:square;stroke-width:0.5;"/>
     </g>
     <g id="line2d_60">
      <g>
       <use style="stroke:#000000;stroke-width:0.6;" x="57.6" xlink:href="#m8dd500c289" y="178.405655"/>
      </g>
     </g>
    </g>
    <g id="ytick_25">
     <g id="line2d_61">
      <path clip-path="url(#p7950627828)" d="M 57.6 174.644157 
L 414.72 174.644157 
" style="fill:none;stroke:#dddddd;stroke-linecap:square;stroke-width:0.5;"/>
     </g>
     <g id="line2d_62">
      <g>
       <use style="stroke:#000000;stroke-width:0.6;" x="57.6" xlink:href="#m8dd500c289" y="174.644157"/>
      </g>
     </g>
    </g>
    <g id="ytick_26">
     <g id="line2d_63">
      <path clip-path="url(#p7950627828)" d="M 57.6 171.385799 
L 414.72 171.385799 
" style="fill:none;stroke:#dddddd;stroke-linecap:square;stroke-width:0.5;"/>
     </g>
     <g id="line2d_64">
      <g>
       <use style="stroke:#000000;stroke-width:0.6;" x="57.6" xlink:href="#m8dd500c289" y="171.385799"/>
      </g>
     </g>
    </g>
    <g id="ytick_27">
     <g id="line2d_65">
      <path clip-path="url(#p7950627828)" d="M 57.6 168.511723 
L 414.72 168.511723 
" style="fill:none;stroke:#dddddd;stroke-linecap:square;stroke-width:0.5;"/>
     </g>
     <g id="line2d_66">
      <g>
       <use style="stroke:#000000;stroke-width:0.6;" x="57.6" xlink:href="#m8dd500c289" y="168.511723"/>
      </g>
     </g>
    </g>
    <g id="ytick_28">
     <g id="line2d_67">
      <path clip-path="url(#p7950627828)" d="M 57.6 149.026987 
L 414.72 149.026987 
" style="fill:none;stroke:#dddddd;stroke-linecap:square;stroke-width:0.5;"/>
     </g>
     <g id="line2d_68">
      <g>
       <use style="stroke:#000000;stroke-width:0.6;" x="57.6" xlink:href="#m8dd500c289" y="149.026987"/>
      </g>
     </g>
    </g>
    <g id="ytick_29">
     <g id="line2d_69">
      <path clip-path="url(#p7950627828)" d="M 57.6 139.133055 
L 414.72 139.133055 
" style="fill:none;stroke:#dddddd;stroke-linecap:square;stroke-width:0.5;"/>
     </g>
     <g id="line2d_70">
      <g>
       <use style="stroke:#000000;stroke-width:0.6;" x="57.6" xlink:href="#m8dd500c289" y="139.133055"/>
      </g>
     </g>
    </g>
    <g id="ytick_30">
     <g id="line2d_71">
      <path clip-path="url(#p7950627828)" d="M 57.6 132.113199 
L 414.72 132.113199 
" style="fill:none;stroke:#dddddd;stroke-linecap:square;stroke-width:0.5;"/>
     </g>
     <g id="line2d_72">
      <g>
       <use style="stroke:#000000;stroke-width:0.6;" x="57.6" xlink:href="#m8dd500c289" y="132.113199"/>
      </g>
     </g>
    </g>
    <g id="ytick_31">
     <g id="line2d_73">
      <path clip-path="url(#p7950627828)" d="M 57.6 126.668176 
L 414.72 126.668176 
" style="fill:none;stroke:#dddddd;stroke-linecap:square;stroke-width:0.5;"/>
     </g>
     <g id="line2d_74">
      <g>
       <use style="stroke:#000000;stroke-width:0.6;" x="57.6" xlink:href="#m8dd500c289" y="126.668176"/>
      </g>
     </g>
    </g>
    <g id="ytick_32">
     <g id="line2d_75">
      <path clip-path="url(#p7950627828)" d="M 57.6 122.219267 
L 414.72 122.219267 
" style="fill:none;stroke:#dddddd;stroke-linecap:square;stroke-width:0.5;"/>
     </g>
     <g id="line2d_76">
      <g>
       <use style="stroke:#000000;stroke-width:0.6;" x="57.6" xlink:href="#m8dd500c289" y="122.219267"/>
      </g>
     </g>
    </g>
    <g id="ytick_33">
     <g id="line2d_77">
      <path clip-path="url(#p7950627828)" d="M 57.6 118.457769 
L 414.72 118.457769 
" style="fill:none;stroke:#dddddd;stroke-linecap:square;stroke-width:0.5;"/>
     </g>
     <g id="line2d_78">
      <g>
       <use style="stroke:#000000;stroke-width:0.6;" x="57.6" xlink:href="#m8dd500c289" y="118.457769"/>
      </g>
     </g>
    </g>
    <g id="ytick_34">
     <g id="line2d_79">
      <path clip-path="url(#p7950627828)" d="M 57.6 115.199411 
L 414.72 115.199411 
" style="fill:none;stroke:#dddddd;stroke-linecap:square;stroke-width:0.5;"/>
     </g>
     <g id="line2d_80">
      <g>
       <use style="stroke:#000000;stroke-width:0.6;" x="57.6" xlink:href="#m8dd500c289" y="115.199411"/>
      </g>
     </g>
    </g>
    <g id="ytick_35">
     <g id="line2d_81">
      <path clip-path="url(#p7950627828)" d="M 57.6 112.325336 
L 414.72 112.325336 
" style="fill:none;stroke:#dddddd;stroke-linecap:square;stroke-width:0.5;"/>
     </g>
     <g id="line2d_82">
      <g>
       <use style="stroke:#000000;stroke-width:0.6;" x="57.6" xlink:href="#m8dd500c289" y="112.325336"/>
      </g>
     </g>
    </g>
    <g id="ytick_36">
     <g id="line2d_83">
      <path clip-path="url(#p7950627828)" d="M 57.6 92.8406 
L 414.72 92.8406 
" style="fill:none;stroke:#dddddd;stroke-linecap:square;stroke-width:0.5;"/>
     </g>
     <g id="line2d_84">
      <g>
       <use style="stroke:#000000;stroke-width:0.6;" x="57.6" xlink:href="#m8dd500c289" y="92.8406"/>
      </g>
     </g>
    </g>
    <g id="ytick_37">
     <g id="line2d_85">
      <path clip-path="url(#p7950627828)" d="M 57.6 82.946668 
L 414.72 82.946668 
" style="fill:none;stroke:#dddddd;stroke-linecap:square;stroke-width:0.5;"/>
     </g>
     <g id="line2d_86">
      <g>
       <use style="stroke:#000000;stroke-width:0.6;" x="57.6" xlink:href="#m8dd500c289" y="82.946668"/>
      </g>
     </g>
    </g>
    <g id="ytick_38">
     <g id="line2d_87">
      <path clip-path="url(#p7950627828)" d="M 57.6 75.926812 
L 414.72 75.926812 
" style="fill:none;stroke:#dddddd;stroke-linecap:square;stroke-width:0.5;"/>
     </g>
     <g id="line2d_88">
      <g>
       <use style="stroke:#000000;stroke-width:0.6;" x="57.6" xlink:href="#m8dd500c289" y="75.926812"/>
      </g>
     </g>
    </g>
    <g id="ytick_39">
     <g id="line2d_89">
      <path clip-path="url(#p7950627828)" d="M 57.6 70.481788 
L 414.72 70.481788 
" style="fill:none;stroke:#dddddd;stroke-linecap:square;stroke-width:0.5;"/>
     </g>
     <g id="line2d_90">
      <g>
       <use style="stroke:#000000;stroke-width:0.6;" x="57.6" xlink:href="#m8dd500c289" y="70.481788"/>
      </g>
     </g>
    </g>
    <g id="ytick_40">
     <g id="line2d_91">
      <path clip-path="url(#p7950627828)" d="M 57.6 66.03288 
L 414.72 66.03288 
" style="fill:none;stroke:#dddddd;stroke-linecap:square;stroke-width:0.5;"/>
     </g>
     <g id="line2d_92">
      <g>
       <use style="stroke:#000000;stroke-width:0.6;" x="57.6" xlink:href="#m8dd500c289" y="66.03288"/>
      </g>
     </g>
    </g>
    <g id="ytick_41">
     <g id="line2d_93">
      <path clip-path="url(#p7950627828)" d="M 57.6 62.271382 
L 414.72 62.271382 
" style="fill:none;stroke:#dddddd;stroke-linecap:square;stroke-width:0.5;"/>
     </g>
     <g id="line2d_94">
      <g>
       <use style="stroke:#000000;stroke-width:0.6;" x="57.6" xlink:href="#m8dd500c289" y="62.271382"/>
      </g>
     </g>
    </g>
    <g id="ytick_42">
     <g id="line2d_95">
      <path clip-path="url(#p7950627828)" d="M 57.6 59.013024 
L 414.72 59.013024 
" style="fill:none;stroke:#dddddd;stroke-linecap:square;stroke-width:0.5;"/>
     </g>
     <g id="line2d_96">
      <g>
       <use style="stroke:#000000;stroke-width:0.6;" x="57.6" xlink:href="#m8dd500c289" y="59.013024"/>
      </g>
     </g>
    </g>
    <g id="ytick_43">
     <g id="line2d_97">
      <path clip-path="url(#p7950627828)" d="M 57.6 56.138948 
L 414.72 56.138948 
" style="fill:none;stroke:#dddddd;stroke-linecap:square;stroke-width:0.5;"/>
     </g>
     <g id="line2d_98">
      <g>
       <use style="stroke:#000000;stroke-width:0.6;" x="57.6" xlink:href="#m8dd500c289" y="56.138948"/>
      </g>
     </g>
    </g>
    <g id="text_12">
     <!-- error $\epsilon$ -->
     <defs>
      <path d="M 15 23.703125 
C 15 33.34375 19.09375 42.390625 26.59375 42.390625 
C 27.296875 42.390625 28 42.296875 28.703125 41.984375 
C 28.703125 41.984375 26.5 41.28125 26.5 38.671875 
C 26.5 36.265625 28.40625 35.265625 29.90625 35.265625 
C 31.09375 35.265625 33.296875 35.96875 33.296875 38.78125 
C 33.296875 41.984375 30.09375 44 26.703125 44 
C 19.09375 44 15.796875 36.5625 14.796875 33.046875 
L 14.703125 33.046875 
L 14.703125 44 
L 3.09375 42.890625 
L 3.09375 40.28125 
C 9 40.28125 9.90625 39.6875 9.90625 34.859375 
L 9.90625 6.921875 
C 9.90625 3.09375 9.5 2.59375 3.09375 2.59375 
L 3.09375 0 
C 5.5 0.1875 10.09375 0.1875 12.703125 0.1875 
C 15.59375 0.1875 20.703125 0.1875 23.40625 0 
L 23.40625 2.59375 
C 16.203125 2.59375 15 2.59375 15 7.109375 
z
" id="CMR17-114"/>
      <path d="M 43.09375 21.1875 
C 43.09375 34 33.796875 44 22.90625 44 
C 12 44 2.703125 34 2.703125 21.1875 
C 2.703125 8.59375 12 -1 22.90625 -1 
C 33.796875 -1 43.09375 8.59375 43.09375 21.1875 
z
M 22.90625 0.796875 
C 18.203125 0.796875 14.203125 3.59375 11.90625 7.5 
C 9.40625 12 9.09375 17.59375 9.09375 22 
C 9.09375 26.1875 9.296875 31.390625 11.90625 35.890625 
C 13.90625 39.1875 17.796875 42.390625 22.90625 42.390625 
C 27.40625 42.390625 31.203125 39.890625 33.59375 36.390625 
C 36.703125 31.6875 36.703125 25.09375 36.703125 22 
C 36.703125 18.09375 36.5 12.09375 33.796875 7.296875 
C 31 2.6875 26.703125 0.796875 22.90625 0.796875 
z
" id="CMR17-111"/>
      <path d="M 29.09375 23 
C 30.59375 23 32.296875 23 32.296875 24.59375 
C 32.296875 25.890625 31.296875 25.890625 29.5 25.890625 
L 13.296875 25.890625 
C 15.796875 34.75 21.703125 40.09375 30.59375 40.09375 
L 33.5 40.09375 
C 35.203125 40.09375 36.703125 40.09375 36.703125 41.6875 
C 36.703125 43 35.59375 43 33.796875 43 
L 30.40625 43 
C 18.09375 43 4.59375 33.375 4.59375 17.828125 
C 4.59375 6.5625 12.09375 -1 22 -1 
C 28.40625 -1 34.703125 3.015625 34.703125 4.03125 
C 34.703125 4.640625 34.40625 5.25 33.796875 5.25 
C 33.5 5.25 33.296875 5.15625 32.796875 4.75 
C 29 2.203125 25.296875 1 22.296875 1 
C 17 1 11.40625 4.546875 11.40625 14.375 
C 11.40625 16.296875 11.59375 18.9375 12.5 23 
z
" id="CMMI12-15"/>
     </defs>
     <g transform="translate(24.502248 188.768019)rotate(-90)scale(0.1 -0.1)">
      <use transform="scale(0.996264)" xlink:href="#CMR17-101"/>
      <use transform="translate(40.48566 0)scale(0.996264)" xlink:href="#CMR17-114"/>
      <use transform="translate(75.766428 0)scale(0.996264)" xlink:href="#CMR17-114"/>
      <use transform="translate(111.047196 0)scale(0.996264)" xlink:href="#CMR17-111"/>
      <use transform="translate(156.737673 0)scale(0.996264)" xlink:href="#CMR17-114"/>
      <use transform="translate(222.094407 0)scale(0.996264)" xlink:href="#CMMI12-15"/>
     </g>
    </g>
   </g>
   <g id="line2d_99">
    <path clip-path="url(#p7950627828)" d="M 73.832727 133.638418 
L 84.654545 135.995005 
L 95.476364 138.592441 
L 106.298182 141.559459 
L 117.12 144.913405 
L 127.941818 148.666952 
L 138.763636 152.834686 
L 149.585455 157.485684 
L 160.407273 162.587551 
L 171.229091 168.18585 
L 182.050909 174.172803 
L 192.872727 180.256603 
L 203.694545 186.230789 
L 214.516364 192.035084 
L 225.338182 197.314804 
L 236.16 202.02361 
L 246.981818 205.438471 
L 257.803636 206.491758 
L 268.625455 213.111659 
L 279.447273 217.564011 
L 290.269091 224.160292 
L 301.090909 226.976285 
L 311.912727 224.316731 
L 322.734545 236.007126 
L 333.556364 238.162142 
L 344.378182 232.718456 
L 355.2 224.429385 
L 366.021818 231.216167 
L 376.843636 204.586411 
L 387.665455 241.697919 
L 398.487273 215.946097 
" style="fill:none;stroke:#0088ff;stroke-linecap:square;stroke-width:1.5;"/>
   </g>
   <g id="line2d_100">
    <path clip-path="url(#p7950627828)" d="M 73.832727 53.568 
L 84.654545 53.568 
L 95.476364 53.568 
L 106.298182 53.568 
L 117.12 53.568 
L 127.941818 53.568 
L 138.763636 53.568 
L 149.585455 53.568 
L 160.407273 53.568 
L 171.229091 53.568 
L 182.050909 53.568 
L 192.872727 53.568 
L 203.694545 53.568 
L 214.516364 53.568 
L 225.338182 53.568 
L 236.16 53.568 
L 246.981818 53.568 
L 257.803636 53.568 
L 268.625455 53.568 
L 279.447273 53.568 
L 290.269091 53.568 
L 301.090909 53.568 
L 311.912727 53.568 
L 322.734545 53.568 
L 333.556364 53.568 
L 344.378182 53.568 
L 355.2 53.568 
L 366.021818 53.568 
L 376.843636 53.568 
L 387.665455 53.568 
L 398.487273 53.568 
" style="fill:none;stroke:#000000;stroke-linecap:square;stroke-width:1.5;"/>
   </g>
   <g id="line2d_101">
    <path clip-path="url(#p7950627828)" d="M 73.832727 53.568 
L 84.654545 53.568 
L 95.476364 53.568 
L 106.298182 53.568 
L 117.12 53.568 
L 127.941818 53.568 
L 138.763636 53.568 
L 149.585455 53.568 
L 160.407273 53.568 
L 171.229091 53.568 
L 182.050909 53.568 
L 192.872727 53.568 
L 203.694545 53.568 
L 214.516364 53.568 
L 225.338182 53.568 
L 236.16 53.568 
L 246.981818 53.568 
L 257.803636 53.568 
L 268.625455 53.568 
L 279.447273 53.568 
L 290.269091 53.568 
L 301.090909 53.568 
L 311.912727 53.568 
L 322.734545 53.568 
L 333.556364 53.568 
L 344.378182 53.568 
L 355.2 53.568 
L 366.021818 53.568 
L 376.843636 53.568 
L 387.665455 53.568 
L 398.487273 53.568 
" style="fill:none;stroke:#000000;stroke-linecap:square;stroke-width:1.5;"/>
   </g>
   <g id="line2d_102">
    <path clip-path="url(#p7950627828)" d="M 73.832727 148.803842 
L 84.654545 153.997765 
L 95.476364 160.089279 
L 106.298182 167.517533 
L 117.12 176.534975 
L 127.941818 188.231235 
L 138.763636 203.334676 
L 149.585455 224.79123 
L 160.407273 262.179367 
L 171.229091 289.360509 
L 182.050909 245.255335 
L 192.872727 224.085985 
L 203.694545 211.895356 
L 214.516364 205.517414 
L 225.338182 202.711741 
L 236.16 204.284008 
L 246.981818 212.253101 
L 257.803636 221.403217 
L 268.625455 241.545493 
L 279.447273 269.57382 
L 290.269091 245.887636 
L 301.090909 232.810483 
L 311.912727 230.617052 
L 322.734545 234.447437 
L 333.556364 227.997132 
L 344.378182 216.307373 
L 355.2 211.090731 
L 366.021818 216.788201 
L 376.843636 203.465035 
L 387.665455 216.26094 
L 398.487273 195.886601 
" style="fill:none;stroke:#dd5500;stroke-linecap:square;stroke-width:1.5;"/>
   </g>
   <g id="line2d_103">
    <path clip-path="url(#p7950627828)" d="M 73.832727 53.568 
L 84.654545 53.568 
L 95.476364 53.568 
L 106.298182 53.568 
L 117.12 53.568 
L 127.941818 53.568 
L 138.763636 53.568 
L 149.585455 53.568 
L 160.407273 53.568 
L 171.229091 53.568 
L 182.050909 53.568 
L 192.872727 53.568 
L 203.694545 53.568 
L 214.516364 53.568 
L 225.338182 53.568 
L 236.16 53.568 
L 246.981818 53.568 
L 257.803636 53.568 
L 268.625455 53.568 
L 279.447273 53.568 
L 290.269091 53.568 
L 301.090909 53.568 
L 311.912727 53.568 
L 322.734545 53.568 
L 333.556364 53.568 
L 344.378182 53.568 
L 355.2 53.568 
L 366.021818 53.568 
L 376.843636 53.568 
L 387.665455 53.568 
L 398.487273 53.568 
" style="fill:none;stroke:#000000;stroke-linecap:square;stroke-width:1.5;"/>
   </g>
   <g id="line2d_104">
    <path clip-path="url(#p7950627828)" d="M 73.832727 53.568 
L 84.654545 53.568 
L 95.476364 53.568 
L 106.298182 53.568 
L 117.12 53.568 
L 127.941818 53.568 
L 138.763636 53.568 
L 149.585455 53.568 
L 160.407273 53.568 
L 171.229091 53.568 
L 182.050909 53.568 
L 192.872727 53.568 
L 203.694545 53.568 
L 214.516364 53.568 
L 225.338182 53.568 
L 236.16 53.568 
L 246.981818 53.568 
L 257.803636 53.568 
L 268.625455 53.568 
L 279.447273 53.568 
L 290.269091 53.568 
L 301.090909 53.568 
L 311.912727 53.568 
L 322.734545 53.568 
L 333.556364 53.568 
L 344.378182 53.568 
L 355.2 53.568 
L 366.021818 53.568 
L 376.843636 53.568 
L 387.665455 53.568 
L 398.487273 53.568 
" style="fill:none;stroke:#000000;stroke-linecap:square;stroke-width:1.5;"/>
   </g>
   <g id="patch_3">
    <path d="M 57.6 307.584 
L 57.6 41.472 
" style="fill:none;stroke:#000000;stroke-linecap:square;stroke-linejoin:miter;stroke-width:0.8;"/>
   </g>
   <g id="patch_4">
    <path d="M 414.72 307.584 
L 414.72 41.472 
" style="fill:none;stroke:#000000;stroke-linecap:square;stroke-linejoin:miter;stroke-width:0.8;"/>
   </g>
   <g id="patch_5">
    <path d="M 57.6 307.584 
L 414.72 307.584 
" style="fill:none;stroke:#000000;stroke-linecap:square;stroke-linejoin:miter;stroke-width:0.8;"/>
   </g>
   <g id="patch_6">
    <path d="M 57.6 41.472 
L 414.72 41.472 
" style="fill:none;stroke:#000000;stroke-linecap:square;stroke-linejoin:miter;stroke-width:0.8;"/>
   </g>
   <g id="text_13">
    <!-- Conversion error $\epsilon$, gaussian spectrum noise model -->
    <defs>
     <path d="M 62.09375 67.984375 
C 62.09375 69.796875 62 69.890625 61.40625 69.890625 
C 61 69.890625 60.90625 69.796875 60.203125 68.59375 
L 55.796875 60.140625 
C 50.90625 66.390625 44.90625 70 37.203125 70 
C 20.09375 70 4.59375 54.796875 4.59375 34.046875 
C 4.59375 13.078125 20.09375 -2 37.296875 -2 
C 52.59375 -2 62.09375 11.578125 62.09375 23.15625 
C 62.09375 24.171875 62.09375 24.578125 61.203125 24.578125 
C 60.40625 24.578125 60.40625 24.265625 60.296875 23.359375 
C 59.5 9.25 49.5 0.59375 38.703125 0.59375 
C 28.5 0.59375 12.203125 7.84375 12.203125 34.046875 
C 12.203125 60.34375 28.796875 67.390625 38.5 67.390625 
C 49.796875 67.390625 58 57.515625 59.90625 43.515625 
C 60.09375 42.296875 60.09375 42.109375 61 42.109375 
C 62.09375 42.109375 62.09375 42.296875 62.09375 44.125 
z
" id="CMR17-67"/>
     <path d="M 39.09375 33.953125 
C 40 36.171875 41.59375 40.1875 47.40625 40.390625 
L 47.40625 43 
C 45.5 42.890625 43 42.796875 41.09375 42.796875 
C 39 42.796875 35.703125 42.796875 33.703125 43 
L 33.703125 40.390625 
C 36.203125 40.1875 37.59375 38.984375 37.59375 36.375 
C 37.59375 35.46875 37.59375 35.265625 37 33.859375 
L 26 5.921875 
L 14.09375 36.0625 
C 13.5 37.375 13.5 37.578125 13.5 37.984375 
C 13.5 40.390625 16.796875 40.390625 18.296875 40.390625 
L 18.296875 43 
C 15.90625 42.796875 11.5 42.796875 9 42.796875 
C 6.296875 42.796875 3.203125 42.796875 1 43 
L 1 40.390625 
C 4.796875 40.390625 6.90625 40.390625 8.09375 37.28125 
L 22.59375 0.6875 
C 23.203125 -0.8125 23.296875 -1 24.203125 -1 
C 25.09375 -1 25.203125 -0.8125 25.796875 0.6875 
z
" id="CMR17-118"/>
     <path d="M 15.796875 1.59375 
C 16 0.6875 16 0.390625 16 -1.1875 
C 16 -7.046875 14 -12.421875 9.796875 -17.3125 
C 9.296875 -17.8125 9.296875 -18 9.296875 -18.203125 
C 9.296875 -18.609375 9.703125 -19 10.09375 -19 
C 10.703125 -19 17.59375 -12.125 17.59375 -1.28125 
C 17.59375 2 17.203125 8.1875 12.5 8.1875 
C 10.296875 8.1875 8.40625 6.6875 8.40625 4.09375 
C 8.40625 1.5 10.296875 0 12.5 0 
C 13.703125 0 15 0.5 15.796875 1.59375 
z
" id="CMR17-44"/>
     <path d="M 11.09375 18.203125 
C 13 16.6875 16.296875 15 20.296875 15 
C 28.203125 15 35 21.234375 35 29.609375 
C 35 32.234375 34.203125 36.265625 31.203125 39.390625 
C 34 42.390625 38.09375 43.390625 40.40625 43.390625 
C 40.796875 43.390625 41.40625 43.390625 41.90625 43.09375 
C 41.5 42.984375 40.59375 42.59375 40.59375 40.984375 
C 40.59375 39.6875 41.5 38.796875 42.796875 38.796875 
C 44.296875 38.796875 45.09375 39.796875 45.09375 41.09375 
C 45.09375 42.984375 43.59375 45 40.40625 45 
C 36.40625 45 32.90625 43.09375 30.09375 40.484375 
C 27.09375 43.1875 23.5 44.1875 20.296875 44.1875 
C 12.40625 44.1875 5.59375 37.984375 5.59375 29.609375 
C 5.59375 23.859375 8.90625 20.21875 9.90625 19.21875 
C 6.90625 15.6875 6.90625 11.59375 6.90625 11.09375 
C 6.90625 8.5 7.90625 4.6875 11.296875 2.59375 
C 6.09375 1.28125 2 -2.875 2 -8.078125 
C 2 -15.5625 11.5 -21 22.90625 -21 
C 33.90625 -21 43.796875 -15.765625 43.796875 -7.96875 
C 43.796875 6 29 6 21.296875 6 
C 19 6 14.90625 6 14.40625 6.09375 
C 11.296875 6.59375 9.203125 9.390625 9.203125 12.890625 
C 9.203125 13.796875 9.203125 16 11.09375 18.203125 
z
M 20.296875 16.6875 
C 11.5 16.6875 11.5 27.59375 11.5 29.609375 
C 11.5 31.625 11.5 42.484375 20.296875 42.484375 
C 29.09375 42.484375 29.09375 31.625 29.09375 29.609375 
C 29.09375 27.59375 29.09375 16.6875 20.296875 16.6875 
z
M 22.90625 -19.3125 
C 12.90625 -19.3125 6 -13.796875 6 -8.078125 
C 6 -4.859375 7.703125 -1.84375 9.90625 -0.171875 
C 12.40625 1.59375 13.40625 1.59375 20.203125 1.59375 
C 28.40625 1.59375 39.796875 1.59375 39.796875 -8.078125 
C 39.796875 -13.796875 32.90625 -19.3125 22.90625 -19.3125 
z
" id="CMR17-103"/>
     <path d="M 36 25.875 
C 36 32 36 35.546875 31.796875 39.59375 
C 28.09375 42.984375 23.796875 44 20.40625 44 
C 12.5 44 6.796875 37.625 6.796875 30.890625 
C 6.796875 27.1875 9.796875 27 10.40625 27 
C 11.703125 27 14 27.796875 14 30.59375 
C 14 33.09375 12.09375 34.1875 10.40625 34.1875 
C 10 34.1875 9.5 34.09375 9.203125 34 
C 11.296875 40.53125 16.703125 42.390625 20.203125 42.390625 
C 25.203125 42.390625 30.703125 37.828125 30.703125 29.296875 
L 30.703125 25.5 
C 24.796875 25.296875 17.703125 24.5 12.09375 21.453125 
C 5.796875 17.921875 4 12.84375 4 9 
C 4 1.203125 13 -1 18.296875 -1 
C 23.796875 -1 28.90625 2.109375 31.09375 7.890625 
C 31.296875 3.421875 34.09375 -0.609375 38.5 -0.609375 
C 40.59375 -0.609375 45.90625 0.796875 45.90625 8.796875 
L 45.90625 14.46875 
L 44.09375 14.46875 
L 44.09375 8.703125 
C 44.09375 2.515625 41.40625 1.703125 40.09375 1.703125 
C 36 1.703125 36 6.96875 36 11.4375 
z
M 30.703125 13.859375 
C 30.703125 5.046875 24.5 0.59375 19 0.59375 
C 14 0.59375 10.09375 4.34375 10.09375 9 
C 10.09375 12.046875 11.40625 17.40625 17.203125 20.65625 
C 22 23.390625 27.5 23.796875 30.703125 24 
z
" id="CMR17-97"/>
     <path d="M 29.40625 42.890625 
L 29.40625 40.296875 
C 35.296875 40.296875 36.203125 39.6875 36.203125 34.828125 
L 36.203125 16.453125 
C 36.203125 7.96875 31.703125 0.59375 24.296875 0.59375 
C 16.09375 0.59375 15.40625 5.546875 15.40625 10.796875 
L 15.40625 44 
L 3.296875 42.890625 
L 3.296875 40.296875 
C 7.296875 40.296875 10 40.296875 10.09375 36.25 
L 10.09375 16.859375 
C 10.09375 10.09375 10.09375 5.75 12.703125 2.921875 
C 14 1.609375 16.5 -1 23.703125 -1 
C 32.203125 -1 35.5 6.25 36.296875 8.375 
L 36.40625 8.375 
L 36.40625 -1 
L 48.296875 -0.203125 
L 48.296875 2.40625 
C 42.40625 2.40625 41.5 3.015625 41.5 7.859375 
L 41.5 44 
z
" id="CMR17-117"/>
     <path d="M 34.90625 35 
C 33 35 30.203125 35 30.203125 31.484375 
C 30.203125 28.6875 32.5 27.890625 33.796875 27.890625 
C 34.5 27.890625 37.40625 28.1875 37.40625 31.6875 
C 37.40625 38.6875 30.59375 44 22.90625 44 
C 12.296875 44 3.296875 34.390625 3.296875 21.546875 
C 3.296875 8.140625 12.703125 -1 22.90625 -1 
C 35.296875 -1 38.40625 10.5625 38.40625 11.671875 
C 38.40625 12.078125 38.296875 12.375 37.59375 12.375 
C 36.90625 12.375 36.796875 12.28125 36.40625 10.96875 
C 33.796875 2.8125 28.09375 0.796875 23.796875 0.796875 
C 17.40625 0.796875 9.703125 6.734375 9.703125 21.640625 
C 9.703125 36.84375 17.09375 42.1875 23 42.1875 
C 26.90625 42.1875 32.703125 40.34375 34.90625 35 
z
" id="CMR17-99"/>
     <path d="M 29.203125 67.890625 
L 29.203125 65.296875 
C 35.09375 65.296875 36 64.703125 36 60.046875 
L 36 37.046875 
C 35.59375 37.546875 31.5 44 23.40625 44 
C 13.203125 44 3.296875 34.8125 3.296875 21.5 
C 3.296875 8.265625 12.59375 -1 22.40625 -1 
C 30.90625 -1 35.296875 5.640625 35.796875 6.34375 
L 35.796875 -1 
L 47.90625 -0.203125 
L 47.90625 2.40625 
C 42 2.40625 41.09375 3.015625 41.09375 7.859375 
L 41.09375 69 
z
M 35.796875 11.90625 
C 35.796875 8.875 34 6.140625 31.703125 4.125 
C 28.296875 1.09375 24.90625 0.59375 23 0.59375 
C 20.09375 0.59375 9.703125 2.109375 9.703125 21.390625 
C 9.703125 41.1875 21.296875 42.390625 23.90625 42.390625 
C 28.5 42.390625 32.203125 39.765625 34.5 36.140625 
C 35.796875 34.015625 35.796875 33.703125 35.796875 31.890625 
z
" id="CMR17-100"/>
     <path d="M 15.296875 69 
L 3.40625 67.890625 
L 3.40625 65.296875 
C 9.296875 65.296875 10.203125 64.703125 10.203125 59.921875 
L 10.203125 6.859375 
C 10.203125 3.09375 9.796875 2.59375 3.40625 2.59375 
L 3.40625 0 
C 5.796875 0.1875 10.203125 0.1875 12.703125 0.1875 
C 15.296875 0.1875 19.703125 0.1875 22.09375 0 
L 22.09375 2.59375 
C 15.703125 2.59375 15.296875 2.984375 15.296875 6.859375 
z
" id="CMR17-108"/>
    </defs>
    <g transform="translate(106.656708 35.472)scale(0.12 -0.12)">
     <use transform="scale(0.996264)" xlink:href="#CMR17-67"/>
     <use transform="translate(66.509881 0)scale(0.996264)" xlink:href="#CMR17-111"/>
     <use transform="translate(112.200358 0)scale(0.996264)" xlink:href="#CMR17-110"/>
     <use transform="translate(160.493274 0)scale(0.996264)" xlink:href="#CMR17-118"/>
     <use transform="translate(206.183735 0)scale(0.996264)" xlink:href="#CMR17-101"/>
     <use transform="translate(246.669396 0)scale(0.996264)" xlink:href="#CMR17-114"/>
     <use transform="translate(281.950164 0)scale(0.996264)" xlink:href="#CMR17-115"/>
     <use transform="translate(317.751501 0)scale(0.996264)" xlink:href="#CMR17-105"/>
     <use transform="translate(342.62256 0)scale(0.996264)" xlink:href="#CMR17-111"/>
     <use transform="translate(388.313037 0)scale(0.996264)" xlink:href="#CMR17-110"/>
     <use transform="translate(469.284373 0)scale(0.996264)" xlink:href="#CMR17-101"/>
     <use transform="translate(509.770034 0)scale(0.996264)" xlink:href="#CMR17-114"/>
     <use transform="translate(545.050801 0)scale(0.996264)" xlink:href="#CMR17-114"/>
     <use transform="translate(580.331569 0)scale(0.996264)" xlink:href="#CMR17-111"/>
     <use transform="translate(626.022046 0)scale(0.996264)" xlink:href="#CMR17-114"/>
     <use transform="translate(691.37878 0)scale(0.996264)" xlink:href="#CMMI12-15"/>
     <use transform="translate(730.767739 0)scale(0.996264)" xlink:href="#CMR17-44"/>
     <use transform="translate(785.714763 0)scale(0.996264)" xlink:href="#CMR17-103"/>
     <use transform="translate(831.405241 0)scale(0.996264)" xlink:href="#CMR17-97"/>
     <use transform="translate(877.095718 0)scale(0.996264)" xlink:href="#CMR17-117"/>
     <use transform="translate(927.991087 0)scale(0.996264)" xlink:href="#CMR17-115"/>
     <use transform="translate(963.792425 0)scale(0.996264)" xlink:href="#CMR17-115"/>
     <use transform="translate(999.593763 0)scale(0.996264)" xlink:href="#CMR17-105"/>
     <use transform="translate(1024.464821 0)scale(0.996264)" xlink:href="#CMR17-97"/>
     <use transform="translate(1070.155298 0)scale(0.996264)" xlink:href="#CMR17-110"/>
     <use transform="translate(1151.126634 0)scale(0.996264)" xlink:href="#CMR17-115"/>
     <use transform="translate(1186.927972 0)scale(0.996264)" xlink:href="#CMR17-112"/>
     <use transform="translate(1240.425781 0)scale(0.996264)" xlink:href="#CMR17-101"/>
     <use transform="translate(1280.911441 0)scale(0.996264)" xlink:href="#CMR17-99"/>
     <use transform="translate(1321.397102 0)scale(0.996264)" xlink:href="#CMR17-116"/>
     <use transform="translate(1356.677869 0)scale(0.996264)" xlink:href="#CMR17-114"/>
     <use transform="translate(1391.958637 0)scale(0.996264)" xlink:href="#CMR17-117"/>
     <use transform="translate(1442.854007 0)scale(0.996264)" xlink:href="#CMR17-109"/>
     <use transform="translate(1549.849563 0)scale(0.996264)" xlink:href="#CMR17-110"/>
     <use transform="translate(1600.744933 0)scale(0.996264)" xlink:href="#CMR17-111"/>
     <use transform="translate(1646.43541 0)scale(0.996264)" xlink:href="#CMR17-105"/>
     <use transform="translate(1671.306469 0)scale(0.996264)" xlink:href="#CMR17-115"/>
     <use transform="translate(1707.107806 0)scale(0.996264)" xlink:href="#CMR17-101"/>
     <use transform="translate(1777.669433 0)scale(0.996264)" xlink:href="#CMR17-109"/>
     <use transform="translate(1854.589023 0)scale(0.996264)" xlink:href="#CMR17-111"/>
     <use transform="translate(1902.881939 0)scale(0.996264)" xlink:href="#CMR17-100"/>
     <use transform="translate(1953.777308 0)scale(0.996264)" xlink:href="#CMR17-101"/>
     <use transform="translate(1994.262969 0)scale(0.996264)" xlink:href="#CMR17-108"/>
    </g>
   </g>
   <g id="legend_1">
    <g id="patch_7">
     <path d="M 289.091077 302.584 
L 407.72 302.584 
Q 409.72 302.584 409.72 300.584 
L 409.72 272.600025 
Q 409.72 270.600025 407.72 270.600025 
L 289.091077 270.600025 
Q 287.091077 270.600025 287.091077 272.600025 
L 287.091077 300.584 
Q 287.091077 302.584 289.091077 302.584 
z
" style="fill:#ffffff;opacity:0.8;stroke:#cccccc;stroke-linejoin:miter;"/>
    </g>
    <g id="line2d_105">
     <path d="M 291.091077 278.100025 
L 311.091077 278.100025 
" style="fill:none;stroke:#0088ff;stroke-linecap:square;stroke-width:1.5;"/>
    </g>
    <g id="line2d_106"/>
    <g id="text_14">
     <!-- linear $\Gamma = 0.0 ns^{-1}$ -->
     <defs>
      <path d="M 51.796875 68 
L 5.09375 68 
L 5.09375 65.390625 
C 12 65.390625 13.09375 65.390625 13.09375 60.890625 
L 13.09375 7.078125 
C 13.09375 2.59375 12 2.59375 5.09375 2.59375 
L 5.09375 0 
C 8 0.1875 13.59375 0.1875 16.703125 0.1875 
C 20.796875 0.1875 25.59375 0.1875 29.703125 0 
L 29.703125 2.59375 
L 27.5 2.59375 
C 19.90625 2.59375 19.703125 3.59375 19.703125 7.1875 
L 19.703125 61.5 
C 19.703125 64.890625 19.90625 65.390625 23.90625 65.390625 
L 34.90625 65.390625 
C 50.09375 65.390625 50.90625 58.40625 52.40625 45.921875 
L 54.203125 45.921875 
z
" id="CMR17-0"/>
      <path d="M 64.296875 32 
C 65.796875 32 67.296875 32 67.296875 33.6875 
C 67.296875 35.5 65.59375 35.5 63.90625 35.5 
L 8 35.5 
C 6.296875 35.5 4.59375 35.5 4.59375 33.6875 
C 4.59375 32 6.09375 32 7.59375 32 
z
M 63.90625 14.484375 
C 65.59375 14.484375 67.296875 14.484375 67.296875 16.296875 
C 67.296875 18 65.796875 18 64.296875 18 
L 7.59375 18 
C 6.09375 18 4.59375 18 4.59375 16.296875 
C 4.59375 14.484375 6.296875 14.484375 8 14.484375 
z
" id="CMR17-61"/>
      <path d="M 18.40625 4.796875 
C 18.40625 7.6875 16 9.6875 13.59375 9.6875 
C 10.703125 9.6875 8.703125 7.296875 8.703125 4.890625 
C 8.703125 2 11.09375 0 13.5 0 
C 16.40625 0 18.40625 2.390625 18.40625 4.796875 
z
" id="CMMI12-58"/>
      <path d="M 20.59375 29.21875 
C 20.796875 29.828125 23.296875 34.8125 27 38 
C 29.59375 40.390625 33 41.984375 36.90625 41.984375 
C 40.90625 41.984375 42.296875 39 42.296875 35.015625 
C 42.296875 29.328125 38.203125 17.953125 36.203125 12.5625 
C 35.296875 10.171875 34.796875 8.875 34.796875 7.078125 
C 34.796875 2.59375 37.90625 -1 42.703125 -1 
C 52 -1 55.5 13.65625 55.5 14.265625 
C 55.5 14.765625 55.09375 15.15625 54.5 15.15625 
C 53.59375 15.15625 53.5 14.859375 53 13.15625 
C 50.703125 4.984375 46.90625 1 43 1 
C 42 1 40.40625 1.09375 40.40625 4.28125 
C 40.40625 6.78125 41.5 9.765625 42.09375 11.171875 
C 44.09375 16.65625 48.296875 27.828125 48.296875 33.515625 
C 48.296875 39.5 44.796875 44 37.203125 44 
C 28.296875 44 23.59375 37.703125 21.796875 35.203125 
C 21.5 40.890625 17.40625 44 13 44 
C 9.796875 44 7.59375 42.09375 5.90625 38.703125 
C 4.09375 35.109375 2.703125 29.125 2.703125 28.71875 
C 2.703125 28.328125 3.09375 27.828125 3.796875 27.828125 
C 4.59375 27.828125 4.703125 27.921875 5.296875 30.21875 
C 6.90625 36.3125 8.703125 41.984375 12.703125 41.984375 
C 15 41.984375 15.796875 40.390625 15.796875 37.40625 
C 15.796875 35.203125 14.796875 31.3125 14.09375 28.234375 
L 11.296875 17.453125 
C 10.90625 15.5625 9.796875 11.0625 9.296875 9.265625 
C 8.59375 6.671875 7.5 1.984375 7.5 1.484375 
C 7.5 0.09375 8.59375 -1 10.09375 -1 
C 11.296875 -1 12.703125 -0.40625 13.5 1.09375 
C 13.703125 1.59375 14.59375 5.078125 15.09375 7.078125 
L 17.296875 16.0625 
z
" id="CMMI12-110"/>
      <path d="M 22.796875 20.15625 
C 24.5 19.859375 27.203125 19.265625 27.796875 19.171875 
C 29.09375 18.765625 33.59375 17.171875 33.59375 12.390625 
C 33.59375 9.296875 30.796875 1 19.203125 1 
C 17.09375 1 9.59375 1.296875 7.59375 6.984375 
C 11.59375 6.46875 13.59375 9.59375 13.59375 11.796875 
C 13.59375 13.890625 12.203125 15 10.203125 15 
C 8 15 5.09375 13.296875 5.09375 8.796875 
C 5.09375 2.75 11.09375 -1 19.09375 -1 
C 34.296875 -1 38.796875 10.390625 38.796875 15.59375 
C 38.796875 17.078125 38.796875 19.859375 35.59375 23.046875 
C 33.09375 25.421875 30.703125 25.921875 25.296875 27.015625 
C 22.59375 27.609375 18.296875 28.5 18.296875 32.984375 
C 18.296875 34.984375 20.09375 41.984375 29.59375 41.984375 
C 33.796875 41.984375 37.90625 40.453125 38.90625 37 
C 34.5 37 34.296875 33.1875 34.296875 33.09375 
C 34.296875 30.984375 36.203125 30.390625 37.09375 30.390625 
C 38.5 30.390625 41.296875 31.484375 41.296875 35.6875 
C 41.296875 39.78125 37.5 44 29.703125 44 
C 16.59375 44 13.09375 33.890625 13.09375 29.796875 
C 13.09375 22.25 20.5 20.65625 22.796875 20.15625 
z
" id="CMMI12-115"/>
     </defs>
     <g transform="translate(319.091077 281.600025)scale(0.1 -0.1)">
      <use transform="scale(0.996264)" xlink:href="#CMR17-108"/>
      <use transform="translate(24.871058 0)scale(0.996264)" xlink:href="#CMR17-105"/>
      <use transform="translate(49.742117 0)scale(0.996264)" xlink:href="#CMR17-110"/>
      <use transform="translate(100.637487 0)scale(0.996264)" xlink:href="#CMR17-101"/>
      <use transform="translate(141.123147 0)scale(0.996264)" xlink:href="#CMR17-97"/>
      <use transform="translate(186.813624 0)scale(0.996264)" xlink:href="#CMR17-114"/>
      <use transform="translate(252.170358 0)scale(0.996264)" xlink:href="#CMR17-0"/>
      <use transform="translate(337.225775 0)scale(0.996264)" xlink:href="#CMR17-61"/>
      <use transform="translate(436.614572 0)scale(0.996264)" xlink:href="#CMR17-48"/>
      <use transform="translate(482.305049 0)scale(0.996264)" xlink:href="#CMMI12-58"/>
      <use transform="translate(509.402226 0)scale(0.996264)" xlink:href="#CMR17-48"/>
      <use transform="translate(555.092704 0)scale(0.996264)" xlink:href="#CMMI12-110"/>
      <use transform="translate(613.322751 0)scale(0.996264)" xlink:href="#CMMI12-115"/>
      <use transform="translate(659.272798 36.153639)scale(0.697382)" xlink:href="#CMSY10-0"/>
      <use transform="translate(713.513792 36.153639)scale(0.697382)" xlink:href="#CMR17-49"/>
     </g>
    </g>
    <g id="line2d_107">
     <path d="M 291.091077 293.146822 
L 311.091077 293.146822 
" style="fill:none;stroke:#dd5500;stroke-linecap:square;stroke-width:1.5;"/>
    </g>
    <g id="line2d_108"/>
    <g id="text_15">
     <!-- shaped $\Gamma = 0.0 ns^{-1}$ -->
     <defs>
      <path d="M 41.5 30.53125 
C 41.5 35.65625 40.5 44 28.703125 44 
C 20.5 44 16.5 37.375 15.296875 34.046875 
L 15.203125 34.046875 
L 15.203125 69 
L 3.296875 67.890625 
L 3.296875 65.296875 
C 9.203125 65.296875 10.09375 64.703125 10.09375 60.046875 
L 10.09375 6.921875 
C 10.09375 3.09375 9.703125 2.59375 3.296875 2.59375 
L 3.296875 0 
C 5.703125 0.1875 10.09375 0.1875 12.703125 0.1875 
C 15.296875 0.1875 19.796875 0.1875 22.203125 0 
L 22.203125 2.59375 
C 15.796875 2.59375 15.40625 3 15.40625 6.921875 
L 15.40625 26.21875 
C 15.40625 35.453125 21 42.390625 28 42.390625 
C 35.40625 42.390625 36.203125 35.765625 36.203125 30.9375 
L 36.203125 6.921875 
C 36.203125 3.09375 35.796875 2.59375 29.40625 2.59375 
L 29.40625 0 
C 31.796875 0.1875 36.203125 0.1875 38.796875 0.1875 
C 41.40625 0.1875 45.90625 0.1875 48.296875 0 
L 48.296875 2.59375 
C 41.90625 2.59375 41.5 3 41.5 6.921875 
z
" id="CMR17-104"/>
     </defs>
     <g transform="translate(319.091077 296.646822)scale(0.1 -0.1)">
      <use transform="scale(0.996264)" xlink:href="#CMR17-115"/>
      <use transform="translate(35.801338 0)scale(0.996264)" xlink:href="#CMR17-104"/>
      <use transform="translate(86.696707 0)scale(0.996264)" xlink:href="#CMR17-97"/>
      <use transform="translate(132.387185 0)scale(0.996264)" xlink:href="#CMR17-112"/>
      <use transform="translate(185.884993 0)scale(0.996264)" xlink:href="#CMR17-101"/>
      <use transform="translate(226.370654 0)scale(0.996264)" xlink:href="#CMR17-100"/>
      <use transform="translate(307.34199 0)scale(0.996264)" xlink:href="#CMR17-0"/>
      <use transform="translate(392.397406 0)scale(0.996264)" xlink:href="#CMR17-61"/>
      <use transform="translate(491.786203 0)scale(0.996264)" xlink:href="#CMR17-48"/>
      <use transform="translate(537.47668 0)scale(0.996264)" xlink:href="#CMMI12-58"/>
      <use transform="translate(564.573858 0)scale(0.996264)" xlink:href="#CMR17-48"/>
      <use transform="translate(610.264335 0)scale(0.996264)" xlink:href="#CMMI12-110"/>
      <use transform="translate(668.494382 0)scale(0.996264)" xlink:href="#CMMI12-115"/>
      <use transform="translate(714.44443 36.153639)scale(0.697382)" xlink:href="#CMSY10-0"/>
      <use transform="translate(768.685423 36.153639)scale(0.697382)" xlink:href="#CMR17-49"/>
     </g>
    </g>
   </g>
  </g>
 </g>
 <defs>
  <clipPath id="p7950627828">
   <rect height="266.112" width="357.12" x="57.6" y="41.472"/>
  </clipPath>
 </defs>
</svg>
