<?xml version="1.0" encoding="utf-8" standalone="no"?>
<!DOCTYPE svg PUBLIC "-//W3C//DTD SVG 1.1//EN"
  "http://www.w3.org/Graphics/SVG/1.1/DTD/svg11.dtd">
<!-- Created with matplotlib (https://matplotlib.org/) -->
<svg height="345.6pt" version="1.1" viewBox="0 0 460.8 345.6" width="460.8pt" xmlns="http://www.w3.org/2000/svg" xmlns:xlink="http://www.w3.org/1999/xlink">
 <metadata>
  <rdf:RDF xmlns:cc="http://creativecommons.org/ns#" xmlns:dc="http://purl.org/dc/elements/1.1/" xmlns:rdf="http://www.w3.org/1999/02/22-rdf-syntax-ns#">
   <cc:Work>
    <dc:type rdf:resource="http://purl.org/dc/dcmitype/StillImage"/>
    <dc:date>2020-09-03T20:52:17.368900</dc:date>
    <dc:format>image/svg+xml</dc:format>
    <dc:creator>
     <cc:Agent>
      <dc:title>Matplotlib v3.3.1, https://matplotlib.org/</dc:title>
     </cc:Agent>
    </dc:creator>
   </cc:Work>
  </rdf:RDF>
 </metadata>
 <defs>
  <style type="text/css">*{stroke-linecap:butt;stroke-linejoin:round;}</style>
 </defs>
 <g id="figure_1">
  <g id="patch_1">
   <path d="M 0 345.6 
L 460.8 345.6 
L 460.8 0 
L 0 0 
z
" style="fill:#ffffff;"/>
  </g>
  <g id="axes_1">
   <g id="patch_2">
    <path d="M 50.81625 304.981683 
L 443.033046 304.981683 
L 443.033046 10.8 
L 50.81625 10.8 
z
" style="fill:#ffffff;"/>
   </g>
   <g id="PolyCollection_1">
    <path clip-path="url(#pf492f931ee)" d="M 50.81625 25.461892 
L 50.81625 70.019994 
L 85.349225 70.019994 
L 85.349225 85.895559 
L 128.855628 85.895559 
L 128.855628 94.855284 
L 157.512563 94.855284 
L 157.512563 95.413823 
L 178.91671 95.413823 
L 178.91671 96.920257 
L 196.007591 96.920257 
L 196.007591 96.18817 
L 210.235386 96.18817 
L 210.235386 91.177349 
L 222.423113 91.177349 
L 222.423113 100.070409 
L 233.083107 100.070409 
L 233.083107 99.411493 
L 242.55606 99.411493 
L 242.55606 100.353612 
L 251.080048 100.353612 
L 251.080048 101.186293 
L 258.828004 101.186293 
L 258.828004 101.626099 
L 265.929515 101.626099 
L 265.929515 101.604035 
L 272.484195 101.604035 
L 272.484195 101.635277 
L 278.570268 101.635277 
L 278.570268 101.653114 
L 284.250292 101.653114 
L 284.250292 101.75758 
L 289.575076 101.75758 
L 289.575076 101.945817 
L 294.58645 101.945817 
L 294.58645 102.052019 
L 299.319268 102.052019 
L 299.319268 101.605424 
L 303.802871 101.605424 
L 303.802871 101.563921 
L 324.964026 101.563921 
L 324.964026 101.473905 
L 353.620961 101.473905 
L 353.620961 101.680738 
L 375.025108 101.680738 
L 375.025108 101.375666 
L 392.115989 101.375666 
L 392.115989 101.431931 
L 406.343784 101.431931 
L 406.343784 101.285952 
L 418.53151 101.285952 
L 418.53151 101.451772 
L 429.191505 101.451772 
L 429.191505 101.314984 
L 438.664458 101.314984 
L 438.664458 101.242924 
L 536.600531 101.242924 
L 536.600531 101.168249 
L 614.639908 101.168249 
L 614.639908 101.151847 
L 732.708929 101.151847 
L 732.708929 101.129865 
L 810.748306 101.129865 
L 810.748306 101.1277 
L 928.817327 101.1277 
L 928.817327 101.127481 
L 1006.856704 101.127481 
L 1006.856704 101.13055 
L 1031.35824 101.13055 
L 1031.35824 101.083293 
L 1031.35824 101.083293 
L 1006.856704 101.083293 
L 1006.856704 101.079465 
L 928.817327 101.079465 
L 928.817327 101.087463 
L 810.748306 101.087463 
L 810.748306 101.079378 
L 732.708929 101.079378 
L 732.708929 101.089345 
L 614.639908 101.089345 
L 614.639908 101.023363 
L 536.600531 101.023363 
L 536.600531 100.750677 
L 438.664458 100.750677 
L 438.664458 100.837591 
L 429.191505 100.837591 
L 429.191505 100.776877 
L 418.53151 100.776877 
L 418.53151 100.691861 
L 406.343784 100.691861 
L 406.343784 100.714574 
L 392.115989 100.714574 
L 392.115989 100.556362 
L 375.025108 100.556362 
L 375.025108 100.944039 
L 353.620961 100.944039 
L 353.620961 100.538582 
L 324.964026 100.538582 
L 324.964026 100.293576 
L 303.802871 100.293576 
L 303.802871 100.372934 
L 299.319268 100.372934 
L 299.319268 100.104168 
L 294.58645 100.104168 
L 294.58645 100.279858 
L 289.575076 100.279858 
L 289.575076 100.05801 
L 284.250292 100.05801 
L 284.250292 99.625267 
L 278.570268 99.625267 
L 278.570268 98.756986 
L 272.484195 98.756986 
L 272.484195 98.797652 
L 265.929515 98.797652 
L 265.929515 98.405168 
L 258.828004 98.405168 
L 258.828004 95.626361 
L 251.080048 95.626361 
L 251.080048 92.548662 
L 242.55606 92.548662 
L 242.55606 84.806877 
L 233.083107 84.806877 
L 233.083107 90.868867 
L 222.423113 90.868867 
L 222.423113 74.453736 
L 210.235386 74.453736 
L 210.235386 75.523593 
L 196.007591 75.523593 
L 196.007591 72.082023 
L 178.91671 72.082023 
L 178.91671 68.821015 
L 157.512563 68.821015 
L 157.512563 59.052718 
L 128.855628 59.052718 
L 128.855628 46.823751 
L 85.349225 46.823751 
L 85.349225 25.461892 
L 50.81625 25.461892 
z
" style="fill:#0088ff;fill-opacity:0.15;"/>
   </g>
   <g id="PolyCollection_2">
    <path clip-path="url(#pf492f931ee)" d="M 50.81625 54.154984 
L 50.81625 94.350644 
L 85.349225 94.350644 
L 85.349225 95.763082 
L 128.855628 95.763082 
L 128.855628 109.858493 
L 157.512563 109.858493 
L 157.512563 111.117944 
L 178.91671 111.117944 
L 178.91671 146.199477 
L 196.007591 146.199477 
L 196.007591 152.667602 
L 210.235386 152.667602 
L 210.235386 143.85881 
L 222.423113 143.85881 
L 222.423113 164.275003 
L 233.083107 164.275003 
L 233.083107 186.046557 
L 242.55606 186.046557 
L 242.55606 203.036596 
L 251.080048 203.036596 
L 251.080048 192.544694 
L 258.828004 192.544694 
L 258.828004 213.613935 
L 265.929515 213.613935 
L 265.929515 232.977582 
L 272.484195 232.977582 
L 272.484195 220.076357 
L 278.570268 220.076357 
L 278.570268 244.33653 
L 284.250292 244.33653 
L 284.250292 235.85871 
L 289.575076 235.85871 
L 289.575076 255.002705 
L 294.58645 255.002705 
L 294.58645 258.215193 
L 299.319268 258.215193 
L 299.319268 259.942227 
L 303.802871 259.942227 
L 303.802871 259.231398 
L 324.964026 259.231398 
L 324.964026 248.487959 
L 353.620961 248.487959 
L 353.620961 254.78178 
L 375.025108 254.78178 
L 375.025108 255.632765 
L 392.115989 255.632765 
L 392.115989 249.299545 
L 406.343784 249.299545 
L 406.343784 252.017692 
L 418.53151 252.017692 
L 418.53151 255.274607 
L 429.191505 255.274607 
L 429.191505 251.006358 
L 438.664458 251.006358 
L 438.664458 251.082065 
L 536.600531 251.082065 
L 536.600531 246.165541 
L 614.639908 246.165541 
L 614.639908 241.452234 
L 732.708929 241.452234 
L 732.708929 240.300906 
L 810.748306 240.300906 
L 810.748306 240.502177 
L 928.817327 240.502177 
L 928.817327 238.993224 
L 1006.856704 238.993224 
L 1006.856704 239.425971 
L 1031.35824 239.425971 
L 1031.35824 236.786686 
L 1031.35824 236.786686 
L 1006.856704 236.786686 
L 1006.856704 236.893019 
L 928.817327 236.893019 
L 928.817327 236.894652 
L 810.748306 236.894652 
L 810.748306 237.016056 
L 732.708929 237.016056 
L 732.708929 236.581141 
L 614.639908 236.581141 
L 614.639908 236.279154 
L 536.600531 236.279154 
L 536.600531 236.361441 
L 438.664458 236.361441 
L 438.664458 235.430615 
L 429.191505 235.430615 
L 429.191505 233.600032 
L 418.53151 233.600032 
L 418.53151 232.909992 
L 406.343784 232.909992 
L 406.343784 234.066006 
L 392.115989 234.066006 
L 392.115989 234.265892 
L 375.025108 234.265892 
L 375.025108 234.135458 
L 353.620961 234.135458 
L 353.620961 232.324731 
L 324.964026 232.324731 
L 324.964026 229.318689 
L 303.802871 229.318689 
L 303.802871 219.363883 
L 299.319268 219.363883 
L 299.319268 218.128358 
L 294.58645 218.128358 
L 294.58645 218.432652 
L 289.575076 218.432652 
L 289.575076 200.615989 
L 284.250292 200.615989 
L 284.250292 205.786486 
L 278.570268 205.786486 
L 278.570268 177.400693 
L 272.484195 177.400693 
L 272.484195 193.371295 
L 265.929515 193.371295 
L 265.929515 157.879553 
L 258.828004 157.879553 
L 258.828004 137.797411 
L 251.080048 137.797411 
L 251.080048 153.882803 
L 242.55606 153.882803 
L 242.55606 134.166858 
L 233.083107 134.166858 
L 233.083107 134.24029 
L 222.423113 134.24029 
L 222.423113 94.288646 
L 210.235386 94.288646 
L 210.235386 90.337555 
L 196.007591 90.337555 
L 196.007591 95.368404 
L 178.91671 95.368404 
L 178.91671 57.362184 
L 157.512563 57.362184 
L 157.512563 78.342299 
L 128.855628 78.342299 
L 128.855628 55.955068 
L 85.349225 55.955068 
L 85.349225 54.154984 
L 50.81625 54.154984 
z
" style="fill:#dd5500;fill-opacity:0.15;"/>
   </g>
   <g id="matplotlib.axis_1">
    <g id="xtick_1">
     <g id="line2d_1">
      <path clip-path="url(#pf492f931ee)" d="M 50.81625 304.981683 
L 50.81625 10.8 
" style="fill:none;stroke:#dddddd;stroke-linecap:square;stroke-width:0.5;"/>
     </g>
     <g id="line2d_2">
      <defs>
       <path d="M 0 0 
L 0 3.5 
" id="m3a4b222ee5" style="stroke:#000000;stroke-width:0.8;"/>
      </defs>
      <g>
       <use style="stroke:#000000;stroke-width:0.8;" x="50.81625" xlink:href="#m3a4b222ee5" y="304.981683"/>
      </g>
     </g>
     <g id="text_1">
      <!-- $\mathdefault{10^{-2}}$ -->
      <g transform="translate(40.735963 318.900182)scale(0.1 -0.1)">
       <defs>
        <path d="M 26.59375 63.796875 
C 26.59375 65.890625 26.5 66 25.09375 66 
C 21.203125 61.359375 15.296875 59.890625 9.703125 59.6875 
C 9.40625 59.6875 8.90625 59.6875 8.796875 59.5 
C 8.703125 59.296875 8.703125 59.09375 8.703125 57 
C 11.796875 57 17 57.59375 21 59.984375 
L 21 7.296875 
C 21 3.796875 20.796875 2.59375 12.203125 2.59375 
L 9.203125 2.59375 
L 9.203125 0 
C 14 0.09375 19 0.1875 23.796875 0.1875 
C 28.59375 0.1875 33.59375 0.09375 38.40625 0 
L 38.40625 2.59375 
L 35.40625 2.59375 
C 26.796875 2.59375 26.59375 3.6875 26.59375 7.296875 
z
" id="CMR17-49"/>
        <path d="M 42 31.84375 
C 42 37.96875 41.90625 48.421875 37.703125 56.453125 
C 34 63.484375 28.09375 66 22.90625 66 
C 18.09375 66 12 63.78125 8.203125 56.5625 
C 4.203125 49.015625 3.796875 39.671875 3.796875 31.84375 
C 3.796875 26.109375 3.90625 17.375 7 9.734375 
C 11.296875 -0.609375 19 -2 22.90625 -2 
C 27.5 -2 34.5 -0.109375 38.59375 9.4375 
C 41.59375 16.375 42 24.5 42 31.84375 
z
M 22.90625 -0.40625 
C 16.5 -0.40625 12.703125 5.125 11.296875 12.75 
C 10.203125 18.6875 10.203125 27.328125 10.203125 32.953125 
C 10.203125 40.6875 10.203125 47.109375 11.5 53.234375 
C 13.40625 61.78125 19 64.390625 22.90625 64.390625 
C 27 64.390625 32.296875 61.671875 34.203125 53.4375 
C 35.5 47.71875 35.59375 40.984375 35.59375 32.953125 
C 35.59375 26.421875 35.59375 18.375 34.40625 12.453125 
C 32.296875 1.5 26.40625 -0.40625 22.90625 -0.40625 
z
" id="CMR17-48"/>
        <path d="M 65.90625 23 
C 67.59375 23 69.40625 23 69.40625 25 
C 69.40625 27 67.59375 27 65.90625 27 
L 11.796875 27 
C 10.09375 27 8.296875 27 8.296875 25 
C 8.296875 23 10.09375 23 11.796875 23 
z
" id="CMSY10-0"/>
        <path d="M 41.703125 15.46875 
L 39.90625 15.46875 
C 38.90625 8.390625 38.09375 7.1875 37.703125 6.59375 
C 37.203125 5.796875 30 5.796875 28.59375 5.796875 
L 9.40625 5.796875 
C 13 9.6875 20 16.765625 28.5 24.9375 
C 34.59375 30.71875 41.703125 37.5 41.703125 47.390625 
C 41.703125 59.1875 32.296875 66 21.796875 66 
C 10.796875 66 4.09375 56.296875 4.09375 47.296875 
C 4.09375 43.390625 7 42.890625 8.203125 42.890625 
C 9.203125 42.890625 12.203125 43.484375 12.203125 46.984375 
C 12.203125 50.09375 9.59375 51 8.203125 51 
C 7.59375 51 7 50.890625 6.59375 50.6875 
C 8.5 59.1875 14.296875 63.390625 20.40625 63.390625 
C 29.09375 63.390625 34.796875 56.5 34.796875 47.390625 
C 34.796875 38.703125 29.703125 31.21875 24 24.734375 
L 4.09375 2.296875 
L 4.09375 0 
L 39.296875 0 
z
" id="CMR17-50"/>
       </defs>
       <use transform="scale(0.996264)" xlink:href="#CMR17-49"/>
       <use transform="translate(45.690477 0)scale(0.996264)" xlink:href="#CMR17-48"/>
       <use transform="translate(91.380954 36.153639)scale(0.697382)" xlink:href="#CMSY10-0"/>
       <use transform="translate(145.621947 36.153639)scale(0.697382)" xlink:href="#CMR17-50"/>
      </g>
     </g>
    </g>
    <g id="xtick_2">
     <g id="line2d_3">
      <path clip-path="url(#pf492f931ee)" d="M 246.924648 304.981683 
L 246.924648 10.8 
" style="fill:none;stroke:#dddddd;stroke-linecap:square;stroke-width:0.5;"/>
     </g>
     <g id="line2d_4">
      <g>
       <use style="stroke:#000000;stroke-width:0.8;" x="246.924648" xlink:href="#m3a4b222ee5" y="304.981683"/>
      </g>
     </g>
     <g id="text_2">
      <!-- $\mathdefault{10^{-1}}$ -->
      <g transform="translate(236.844361 318.900182)scale(0.1 -0.1)">
       <use transform="scale(0.996264)" xlink:href="#CMR17-49"/>
       <use transform="translate(45.690477 0)scale(0.996264)" xlink:href="#CMR17-48"/>
       <use transform="translate(91.380954 36.153639)scale(0.697382)" xlink:href="#CMSY10-0"/>
       <use transform="translate(145.621947 36.153639)scale(0.697382)" xlink:href="#CMR17-49"/>
      </g>
     </g>
    </g>
    <g id="xtick_3">
     <g id="line2d_5">
      <path clip-path="url(#pf492f931ee)" d="M 443.033046 304.981683 
L 443.033046 10.8 
" style="fill:none;stroke:#dddddd;stroke-linecap:square;stroke-width:0.5;"/>
     </g>
     <g id="line2d_6">
      <g>
       <use style="stroke:#000000;stroke-width:0.8;" x="443.033046" xlink:href="#m3a4b222ee5" y="304.981683"/>
      </g>
     </g>
     <g id="text_3">
      <!-- $\mathdefault{10^{0}}$ -->
      <g transform="translate(436.066092 318.900182)scale(0.1 -0.1)">
       <use transform="scale(0.996264)" xlink:href="#CMR17-49"/>
       <use transform="translate(45.690477 0)scale(0.996264)" xlink:href="#CMR17-48"/>
       <use transform="translate(91.380954 36.153639)scale(0.697382)" xlink:href="#CMR17-48"/>
      </g>
     </g>
    </g>
    <g id="xtick_4">
     <g id="line2d_7">
      <path clip-path="url(#pf492f931ee)" d="M 109.85076 304.981683 
L 109.85076 10.8 
" style="fill:none;stroke:#dddddd;stroke-linecap:square;stroke-width:0.5;"/>
     </g>
     <g id="line2d_8">
      <defs>
       <path d="M 0 0 
L 0 2 
" id="m4901388570" style="stroke:#000000;stroke-width:0.6;"/>
      </defs>
      <g>
       <use style="stroke:#000000;stroke-width:0.6;" x="109.85076" xlink:href="#m4901388570" y="304.981683"/>
      </g>
     </g>
    </g>
    <g id="xtick_5">
     <g id="line2d_9">
      <path clip-path="url(#pf492f931ee)" d="M 144.383735 304.981683 
L 144.383735 10.8 
" style="fill:none;stroke:#dddddd;stroke-linecap:square;stroke-width:0.5;"/>
     </g>
     <g id="line2d_10">
      <g>
       <use style="stroke:#000000;stroke-width:0.6;" x="144.383735" xlink:href="#m4901388570" y="304.981683"/>
      </g>
     </g>
    </g>
    <g id="xtick_6">
     <g id="line2d_11">
      <path clip-path="url(#pf492f931ee)" d="M 168.88527 304.981683 
L 168.88527 10.8 
" style="fill:none;stroke:#dddddd;stroke-linecap:square;stroke-width:0.5;"/>
     </g>
     <g id="line2d_12">
      <g>
       <use style="stroke:#000000;stroke-width:0.6;" x="168.88527" xlink:href="#m4901388570" y="304.981683"/>
      </g>
     </g>
    </g>
    <g id="xtick_7">
     <g id="line2d_13">
      <path clip-path="url(#pf492f931ee)" d="M 187.890138 304.981683 
L 187.890138 10.8 
" style="fill:none;stroke:#dddddd;stroke-linecap:square;stroke-width:0.5;"/>
     </g>
     <g id="line2d_14">
      <g>
       <use style="stroke:#000000;stroke-width:0.6;" x="187.890138" xlink:href="#m4901388570" y="304.981683"/>
      </g>
     </g>
    </g>
    <g id="xtick_8">
     <g id="line2d_15">
      <path clip-path="url(#pf492f931ee)" d="M 203.418245 304.981683 
L 203.418245 10.8 
" style="fill:none;stroke:#dddddd;stroke-linecap:square;stroke-width:0.5;"/>
     </g>
     <g id="line2d_16">
      <g>
       <use style="stroke:#000000;stroke-width:0.6;" x="203.418245" xlink:href="#m4901388570" y="304.981683"/>
      </g>
     </g>
    </g>
    <g id="xtick_9">
     <g id="line2d_17">
      <path clip-path="url(#pf492f931ee)" d="M 216.547073 304.981683 
L 216.547073 10.8 
" style="fill:none;stroke:#dddddd;stroke-linecap:square;stroke-width:0.5;"/>
     </g>
     <g id="line2d_18">
      <g>
       <use style="stroke:#000000;stroke-width:0.6;" x="216.547073" xlink:href="#m4901388570" y="304.981683"/>
      </g>
     </g>
    </g>
    <g id="xtick_10">
     <g id="line2d_19">
      <path clip-path="url(#pf492f931ee)" d="M 227.919781 304.981683 
L 227.919781 10.8 
" style="fill:none;stroke:#dddddd;stroke-linecap:square;stroke-width:0.5;"/>
     </g>
     <g id="line2d_20">
      <g>
       <use style="stroke:#000000;stroke-width:0.6;" x="227.919781" xlink:href="#m4901388570" y="304.981683"/>
      </g>
     </g>
    </g>
    <g id="xtick_11">
     <g id="line2d_21">
      <path clip-path="url(#pf492f931ee)" d="M 237.95122 304.981683 
L 237.95122 10.8 
" style="fill:none;stroke:#dddddd;stroke-linecap:square;stroke-width:0.5;"/>
     </g>
     <g id="line2d_22">
      <g>
       <use style="stroke:#000000;stroke-width:0.6;" x="237.95122" xlink:href="#m4901388570" y="304.981683"/>
      </g>
     </g>
    </g>
    <g id="xtick_12">
     <g id="line2d_23">
      <path clip-path="url(#pf492f931ee)" d="M 305.959158 304.981683 
L 305.959158 10.8 
" style="fill:none;stroke:#dddddd;stroke-linecap:square;stroke-width:0.5;"/>
     </g>
     <g id="line2d_24">
      <g>
       <use style="stroke:#000000;stroke-width:0.6;" x="305.959158" xlink:href="#m4901388570" y="304.981683"/>
      </g>
     </g>
    </g>
    <g id="xtick_13">
     <g id="line2d_25">
      <path clip-path="url(#pf492f931ee)" d="M 340.492133 304.981683 
L 340.492133 10.8 
" style="fill:none;stroke:#dddddd;stroke-linecap:square;stroke-width:0.5;"/>
     </g>
     <g id="line2d_26">
      <g>
       <use style="stroke:#000000;stroke-width:0.6;" x="340.492133" xlink:href="#m4901388570" y="304.981683"/>
      </g>
     </g>
    </g>
    <g id="xtick_14">
     <g id="line2d_27">
      <path clip-path="url(#pf492f931ee)" d="M 364.993668 304.981683 
L 364.993668 10.8 
" style="fill:none;stroke:#dddddd;stroke-linecap:square;stroke-width:0.5;"/>
     </g>
     <g id="line2d_28">
      <g>
       <use style="stroke:#000000;stroke-width:0.6;" x="364.993668" xlink:href="#m4901388570" y="304.981683"/>
      </g>
     </g>
    </g>
    <g id="xtick_15">
     <g id="line2d_29">
      <path clip-path="url(#pf492f931ee)" d="M 383.998536 304.981683 
L 383.998536 10.8 
" style="fill:none;stroke:#dddddd;stroke-linecap:square;stroke-width:0.5;"/>
     </g>
     <g id="line2d_30">
      <g>
       <use style="stroke:#000000;stroke-width:0.6;" x="383.998536" xlink:href="#m4901388570" y="304.981683"/>
      </g>
     </g>
    </g>
    <g id="xtick_16">
     <g id="line2d_31">
      <path clip-path="url(#pf492f931ee)" d="M 399.526643 304.981683 
L 399.526643 10.8 
" style="fill:none;stroke:#dddddd;stroke-linecap:square;stroke-width:0.5;"/>
     </g>
     <g id="line2d_32">
      <g>
       <use style="stroke:#000000;stroke-width:0.6;" x="399.526643" xlink:href="#m4901388570" y="304.981683"/>
      </g>
     </g>
    </g>
    <g id="xtick_17">
     <g id="line2d_33">
      <path clip-path="url(#pf492f931ee)" d="M 412.655471 304.981683 
L 412.655471 10.8 
" style="fill:none;stroke:#dddddd;stroke-linecap:square;stroke-width:0.5;"/>
     </g>
     <g id="line2d_34">
      <g>
       <use style="stroke:#000000;stroke-width:0.6;" x="412.655471" xlink:href="#m4901388570" y="304.981683"/>
      </g>
     </g>
    </g>
    <g id="xtick_18">
     <g id="line2d_35">
      <path clip-path="url(#pf492f931ee)" d="M 424.028179 304.981683 
L 424.028179 10.8 
" style="fill:none;stroke:#dddddd;stroke-linecap:square;stroke-width:0.5;"/>
     </g>
     <g id="line2d_36">
      <g>
       <use style="stroke:#000000;stroke-width:0.6;" x="424.028179" xlink:href="#m4901388570" y="304.981683"/>
      </g>
     </g>
    </g>
    <g id="xtick_19">
     <g id="line2d_37">
      <path clip-path="url(#pf492f931ee)" d="M 434.059618 304.981683 
L 434.059618 10.8 
" style="fill:none;stroke:#dddddd;stroke-linecap:square;stroke-width:0.5;"/>
     </g>
     <g id="line2d_38">
      <g>
       <use style="stroke:#000000;stroke-width:0.6;" x="434.059618" xlink:href="#m4901388570" y="304.981683"/>
      </g>
     </g>
    </g>
    <g id="text_4">
     <!-- correlation time $\tau_c$ (ns) -->
     <g transform="translate(196.170032 332.30934)scale(0.1 -0.1)">
      <defs>
       <path d="M 34.90625 35 
C 33 35 30.203125 35 30.203125 31.484375 
C 30.203125 28.6875 32.5 27.890625 33.796875 27.890625 
C 34.5 27.890625 37.40625 28.1875 37.40625 31.6875 
C 37.40625 38.6875 30.59375 44 22.90625 44 
C 12.296875 44 3.296875 34.390625 3.296875 21.546875 
C 3.296875 8.140625 12.703125 -1 22.90625 -1 
C 35.296875 -1 38.40625 10.5625 38.40625 11.671875 
C 38.40625 12.078125 38.296875 12.375 37.59375 12.375 
C 36.90625 12.375 36.796875 12.28125 36.40625 10.96875 
C 33.796875 2.8125 28.09375 0.796875 23.796875 0.796875 
C 17.40625 0.796875 9.703125 6.734375 9.703125 21.640625 
C 9.703125 36.84375 17.09375 42.1875 23 42.1875 
C 26.90625 42.1875 32.703125 40.34375 34.90625 35 
z
" id="CMR17-99"/>
       <path d="M 43.09375 21.1875 
C 43.09375 34 33.796875 44 22.90625 44 
C 12 44 2.703125 34 2.703125 21.1875 
C 2.703125 8.59375 12 -1 22.90625 -1 
C 33.796875 -1 43.09375 8.59375 43.09375 21.1875 
z
M 22.90625 0.796875 
C 18.203125 0.796875 14.203125 3.59375 11.90625 7.5 
C 9.40625 12 9.09375 17.59375 9.09375 22 
C 9.09375 26.1875 9.296875 31.390625 11.90625 35.890625 
C 13.90625 39.1875 17.796875 42.390625 22.90625 42.390625 
C 27.40625 42.390625 31.203125 39.890625 33.59375 36.390625 
C 36.703125 31.6875 36.703125 25.09375 36.703125 22 
C 36.703125 18.09375 36.5 12.09375 33.796875 7.296875 
C 31 2.6875 26.703125 0.796875 22.90625 0.796875 
z
" id="CMR17-111"/>
       <path d="M 15 23.703125 
C 15 33.34375 19.09375 42.390625 26.59375 42.390625 
C 27.296875 42.390625 28 42.296875 28.703125 41.984375 
C 28.703125 41.984375 26.5 41.28125 26.5 38.671875 
C 26.5 36.265625 28.40625 35.265625 29.90625 35.265625 
C 31.09375 35.265625 33.296875 35.96875 33.296875 38.78125 
C 33.296875 41.984375 30.09375 44 26.703125 44 
C 19.09375 44 15.796875 36.5625 14.796875 33.046875 
L 14.703125 33.046875 
L 14.703125 44 
L 3.09375 42.890625 
L 3.09375 40.28125 
C 9 40.28125 9.90625 39.6875 9.90625 34.859375 
L 9.90625 6.921875 
C 9.90625 3.09375 9.5 2.59375 3.09375 2.59375 
L 3.09375 0 
C 5.5 0.1875 10.09375 0.1875 12.703125 0.1875 
C 15.59375 0.1875 20.703125 0.1875 23.40625 0 
L 23.40625 2.59375 
C 16.203125 2.59375 15 2.59375 15 7.109375 
z
" id="CMR17-114"/>
       <path d="M 38.09375 23.484375 
C 38.5 23.890625 38.5 24.09375 38.5 25.09375 
C 38.5 35.171875 33.09375 44 21.703125 44 
C 11.09375 44 2.703125 33.984375 2.703125 21.78125 
C 2.703125 8.65625 12.203125 -1 22.796875 -1 
C 34 -1 38.40625 9.671875 38.40625 11.796875 
C 38.40625 12.5 37.796875 12.5 37.59375 12.5 
C 36.90625 12.5 36.796875 12.296875 36.40625 11.078125 
C 34.203125 4.21875 28.703125 0.796875 23.5 0.796875 
C 19.203125 0.796875 14.90625 3.21875 12.203125 7.65625 
C 9.09375 12.796875 9.09375 18.75 9.09375 23.484375 
z
M 9.203125 25 
C 9.90625 39.234375 17.59375 42.390625 21.59375 42.390625 
C 28.40625 42.390625 33 36.0625 33.09375 25 
z
" id="CMR17-101"/>
       <path d="M 15.296875 69 
L 3.40625 67.890625 
L 3.40625 65.296875 
C 9.296875 65.296875 10.203125 64.703125 10.203125 59.921875 
L 10.203125 6.859375 
C 10.203125 3.09375 9.796875 2.59375 3.40625 2.59375 
L 3.40625 0 
C 5.796875 0.1875 10.203125 0.1875 12.703125 0.1875 
C 15.296875 0.1875 19.703125 0.1875 22.09375 0 
L 22.09375 2.59375 
C 15.703125 2.59375 15.296875 2.984375 15.296875 6.859375 
z
" id="CMR17-108"/>
       <path d="M 36 25.875 
C 36 32 36 35.546875 31.796875 39.59375 
C 28.09375 42.984375 23.796875 44 20.40625 44 
C 12.5 44 6.796875 37.625 6.796875 30.890625 
C 6.796875 27.1875 9.796875 27 10.40625 27 
C 11.703125 27 14 27.796875 14 30.59375 
C 14 33.09375 12.09375 34.1875 10.40625 34.1875 
C 10 34.1875 9.5 34.09375 9.203125 34 
C 11.296875 40.53125 16.703125 42.390625 20.203125 42.390625 
C 25.203125 42.390625 30.703125 37.828125 30.703125 29.296875 
L 30.703125 25.5 
C 24.796875 25.296875 17.703125 24.5 12.09375 21.453125 
C 5.796875 17.921875 4 12.84375 4 9 
C 4 1.203125 13 -1 18.296875 -1 
C 23.796875 -1 28.90625 2.109375 31.09375 7.890625 
C 31.296875 3.421875 34.09375 -0.609375 38.5 -0.609375 
C 40.59375 -0.609375 45.90625 0.796875 45.90625 8.796875 
L 45.90625 14.46875 
L 44.09375 14.46875 
L 44.09375 8.703125 
C 44.09375 2.515625 41.40625 1.703125 40.09375 1.703125 
C 36 1.703125 36 6.96875 36 11.4375 
z
M 30.703125 13.859375 
C 30.703125 5.046875 24.5 0.59375 19 0.59375 
C 14 0.59375 10.09375 4.34375 10.09375 9 
C 10.09375 12.046875 11.40625 17.40625 17.203125 20.65625 
C 22 23.390625 27.5 23.796875 30.703125 24 
z
" id="CMR17-97"/>
       <path d="M 15.09375 40.390625 
L 29.09375 40.390625 
L 29.09375 43 
L 15.09375 43 
L 15.09375 62 
L 13.296875 62 
C 13.09375 51.4375 9.59375 42.1875 1.09375 41.984375 
L 1.09375 40.390625 
L 9.796875 40.390625 
L 9.796875 12.15625 
C 9.796875 10.234375 9.796875 -1 21.40625 -1 
C 27.296875 -1 30.703125 4.8125 30.703125 12.25 
L 30.703125 17.984375 
L 28.90625 17.984375 
L 28.90625 12.34375 
C 28.90625 5.421875 26.203125 0.796875 22 0.796875 
C 19.09375 0.796875 15.09375 2.796875 15.09375 11.953125 
z
" id="CMR17-116"/>
       <path d="M 15.5 61.890625 
C 15.5 64.09375 13.703125 66 11.40625 66 
C 9.203125 66 7.296875 64.1875 7.296875 61.890625 
C 7.296875 59.6875 9.09375 57.796875 11.40625 57.796875 
C 13.59375 57.796875 15.5 59.59375 15.5 61.890625 
z
M 3.796875 42.890625 
L 3.796875 40.296875 
C 9.40625 40.296875 10.203125 39.6875 10.203125 34.859375 
L 10.203125 6.921875 
C 10.203125 3.09375 9.796875 2.59375 3.40625 2.59375 
L 3.40625 0 
C 5.796875 0.1875 10.09375 0.1875 12.59375 0.1875 
C 15 0.1875 19.09375 0.1875 21.40625 0 
L 21.40625 2.59375 
C 15.5 2.59375 15.296875 3.203125 15.296875 6.8125 
L 15.296875 44 
z
" id="CMR17-105"/>
       <path d="M 41.5 30.53125 
C 41.5 35.65625 40.5 44 28.703125 44 
C 20.796875 44 16.703125 37.875 15.203125 33.84375 
L 15.09375 33.84375 
L 15.09375 44 
L 3.296875 42.890625 
L 3.296875 40.28125 
C 9.203125 40.28125 10.09375 39.6875 10.09375 34.859375 
L 10.09375 6.921875 
C 10.09375 3.09375 9.703125 2.59375 3.296875 2.59375 
L 3.296875 0 
C 5.703125 0.1875 10.09375 0.1875 12.703125 0.1875 
C 15.296875 0.1875 19.796875 0.1875 22.203125 0 
L 22.203125 2.59375 
C 15.796875 2.59375 15.40625 3 15.40625 6.921875 
L 15.40625 26.21875 
C 15.40625 35.453125 21 42.390625 28 42.390625 
C 35.40625 42.390625 36.203125 35.765625 36.203125 30.9375 
L 36.203125 6.921875 
C 36.203125 3.09375 35.796875 2.59375 29.40625 2.59375 
L 29.40625 0 
C 31.796875 0.1875 36.203125 0.1875 38.796875 0.1875 
C 41.40625 0.1875 45.90625 0.1875 48.296875 0 
L 48.296875 2.59375 
C 41.90625 2.59375 41.5 3 41.5 6.921875 
z
" id="CMR17-110"/>
       <path d="M 67.59375 30.53125 
C 67.59375 35.5625 66.703125 44 54.796875 44 
C 48 44 43.296875 39.375 41.5 33.953125 
L 41.40625 33.953125 
C 40.203125 42.1875 34.296875 44 28.703125 44 
C 20.796875 44 16.703125 37.875 15.203125 33.84375 
L 15.09375 33.84375 
L 15.09375 44 
L 3.296875 42.890625 
L 3.296875 40.28125 
C 9.203125 40.28125 10.09375 39.6875 10.09375 34.859375 
L 10.09375 6.921875 
C 10.09375 3.09375 9.703125 2.59375 3.296875 2.59375 
L 3.296875 0 
C 5.703125 0.1875 10.09375 0.1875 12.703125 0.1875 
C 15.296875 0.1875 19.796875 0.1875 22.203125 0 
L 22.203125 2.59375 
C 15.796875 2.59375 15.40625 3 15.40625 6.921875 
L 15.40625 26.21875 
C 15.40625 35.453125 21 42.390625 28 42.390625 
C 35.40625 42.390625 36.203125 35.765625 36.203125 30.9375 
L 36.203125 6.921875 
C 36.203125 3.09375 35.796875 2.59375 29.40625 2.59375 
L 29.40625 0 
C 31.796875 0.1875 36.203125 0.1875 38.796875 0.1875 
C 41.40625 0.1875 45.90625 0.1875 48.296875 0 
L 48.296875 2.59375 
C 41.90625 2.59375 41.5 3 41.5 6.921875 
L 41.5 26.21875 
C 41.5 35.453125 47.09375 42.390625 54.09375 42.390625 
C 61.5 42.390625 62.296875 35.765625 62.296875 30.9375 
L 62.296875 6.921875 
C 62.296875 3.09375 61.90625 2.59375 55.5 2.59375 
L 55.5 0 
C 57.90625 0.1875 62.296875 0.1875 64.90625 0.1875 
C 67.5 0.1875 72 0.1875 74.40625 0 
L 74.40625 2.59375 
C 68 2.59375 67.59375 3 67.59375 6.921875 
z
" id="CMR17-109"/>
       <path d="M 28.703125 37.59375 
L 45.296875 37.59375 
C 46.59375 37.59375 49.90625 37.59375 49.90625 40.796875 
C 49.90625 43 48 43 46.203125 43 
L 18.703125 43 
C 16.40625 43 13 43 8.40625 38.09375 
C 5.796875 35.203125 2.59375 29.9375 2.59375 29.34375 
C 2.59375 28.734375 3.09375 28.546875 3.703125 28.546875 
C 4.40625 28.546875 4.5 28.84375 5 29.4375 
C 10.203125 37.59375 15.40625 37.59375 17.90625 37.59375 
L 26.203125 37.59375 
L 15.796875 3.484375 
C 15.296875 1.984375 15.296875 1.78125 15.296875 1.484375 
C 15.296875 0.390625 16 -1 18 -1 
C 21.09375 -1 21.59375 1.6875 21.90625 3.1875 
z
" id="CMMI12-28"/>
       <path d="M 39.09375 38 
C 37.203125 38 36.296875 38 34.90625 36.796875 
C 34.296875 36.296875 33.203125 34.796875 33.203125 33.1875 
C 33.203125 31.1875 34.703125 29.984375 36.59375 29.984375 
C 39 29.984375 41.703125 31.984375 41.703125 35.984375 
C 41.703125 40.484375 37.09375 44 30.203125 44 
C 17.09375 44 4 30.1875 4 15.796875 
C 4 6.96875 9.40625 -1 19.59375 -1 
C 33.203125 -1 41.796875 9.71875 41.796875 11.03125 
C 41.796875 11.640625 41.203125 12.140625 40.796875 12.140625 
C 40.5 12.140625 40.40625 12.046875 39.5 11.125 
C 33.09375 2.515625 23.59375 1 19.796875 1 
C 12.90625 1 10.703125 7.078125 10.703125 12.140625 
C 10.703125 15.6875 12.40625 25.53125 16 32.390625 
C 18.59375 37.09375 24 41.984375 30.296875 41.984375 
C 31.59375 41.984375 37.09375 41.8125 39.09375 38 
z
" id="CMMI12-99"/>
       <path d="M 30.59375 -24.40625 
C 30.59375 -24.3125 30.59375 -24.109375 30.296875 -23.8125 
C 25.703125 -19.109375 13.40625 -6.296875 13.40625 24.9375 
C 13.40625 56.171875 25.5 68.875 30.40625 73.890625 
C 30.40625 73.984375 30.59375 74.1875 30.59375 74.484375 
C 30.59375 74.796875 30.296875 75 29.90625 75 
C 28.796875 75 20.296875 67.578125 15.40625 56.5625 
C 10.40625 45.453125 9 34.65625 9 25.046875 
C 9 17.828125 9.703125 5.625 15.703125 -7.296875 
C 20.5 -17.703125 28.703125 -25 29.90625 -25 
C 30.40625 -25 30.59375 -24.8125 30.59375 -24.40625 
z
" id="CMR17-40"/>
       <path d="M 30.90625 42 
C 30.90625 43.796875 30.796875 43.890625 30.203125 43.890625 
C 29.796875 43.890625 29.703125 43.796875 28.5 42.296875 
C 28.203125 41.890625 27.296875 40.890625 27 40.5 
C 23.796875 43.890625 19.296875 44 17.59375 44 
C 6.5 44 2.5 38.1875 2.5 32.390625 
C 2.5 23.390625 12.703125 21.296875 15.59375 20.6875 
C 21.90625 19.390625 24.09375 19 26.203125 17.1875 
C 27.5 16 29.703125 13.796875 29.703125 10.1875 
C 29.703125 6 27.296875 0.59375 18.09375 0.59375 
C 9.40625 0.59375 6.296875 7.1875 4.5 16 
C 4.203125 17.390625 4.203125 17.5 3.40625 17.5 
C 2.59375 17.5 2.5 17.390625 2.5 15.390625 
L 2.5 1 
C 2.5 -0.8125 2.59375 -0.90625 3.203125 -0.90625 
C 3.703125 -0.90625 3.796875 -0.8125 4.296875 0 
C 4.90625 0.890625 6.40625 3.296875 7 4.296875 
C 9 1.59375 12.5 -1 18.09375 -1 
C 28 -1 33.296875 4.390625 33.296875 12.1875 
C 33.296875 17.296875 30.59375 20 29.296875 21.1875 
C 26.296875 24.296875 22.796875 25 18.59375 25.796875 
C 13.09375 27 6.09375 28.390625 6.09375 34.5 
C 6.09375 37.09375 7.5 42.59375 17.59375 42.59375 
C 28.296875 42.59375 28.90625 32.59375 29.09375 29.390625 
C 29.203125 28.890625 29.703125 28.796875 30 28.796875 
C 30.90625 28.796875 30.90625 29.09375 30.90625 30.796875 
z
" id="CMR17-115"/>
       <path d="M 26.296875 24.9375 
C 26.296875 32.140625 25.59375 44.359375 19.59375 57.265625 
C 14.796875 67.6875 6.59375 75 5.40625 75 
C 5.09375 75 4.703125 74.890625 4.703125 74.390625 
C 4.703125 74.1875 4.796875 74.09375 4.90625 73.890625 
C 9.703125 68.875 21.90625 56.171875 21.90625 25.046875 
C 21.90625 -6.1875 9.796875 -18.90625 4.90625 -23.90625 
C 4.796875 -24.109375 4.703125 -24.203125 4.703125 -24.40625 
C 4.703125 -24.90625 5.09375 -25 5.40625 -25 
C 6.5 -25 15 -17.609375 19.90625 -6.59375 
C 24.90625 4.515625 26.296875 15.328125 26.296875 24.9375 
z
" id="CMR17-41"/>
      </defs>
      <use transform="scale(0.996264)" xlink:href="#CMR17-99"/>
      <use transform="translate(40.48566 0)scale(0.996264)" xlink:href="#CMR17-111"/>
      <use transform="translate(86.176138 0)scale(0.996264)" xlink:href="#CMR17-114"/>
      <use transform="translate(121.456905 0)scale(0.996264)" xlink:href="#CMR17-114"/>
      <use transform="translate(156.737673 0)scale(0.996264)" xlink:href="#CMR17-101"/>
      <use transform="translate(197.223334 0)scale(0.996264)" xlink:href="#CMR17-108"/>
      <use transform="translate(222.094392 0)scale(0.996264)" xlink:href="#CMR17-97"/>
      <use transform="translate(267.784869 0)scale(0.996264)" xlink:href="#CMR17-116"/>
      <use transform="translate(303.065637 0)scale(0.996264)" xlink:href="#CMR17-105"/>
      <use transform="translate(327.936696 0)scale(0.996264)" xlink:href="#CMR17-111"/>
      <use transform="translate(373.627173 0)scale(0.996264)" xlink:href="#CMR17-110"/>
      <use transform="translate(454.598509 0)scale(0.996264)" xlink:href="#CMR17-116"/>
      <use transform="translate(489.879277 0)scale(0.996264)" xlink:href="#CMR17-105"/>
      <use transform="translate(514.750335 0)scale(0.996264)" xlink:href="#CMR17-109"/>
      <use transform="translate(591.669925 0)scale(0.996264)" xlink:href="#CMR17-101"/>
      <use transform="translate(662.231552 0)scale(0.996264)" xlink:href="#CMMI12-28"/>
      <use transform="translate(704.595392 -14.943915)scale(0.697382)" xlink:href="#CMMI12-99"/>
      <use transform="translate(764.557622 0)scale(0.996264)" xlink:href="#CMR17-40"/>
      <use transform="translate(799.83839 0)scale(0.996264)" xlink:href="#CMR17-110"/>
      <use transform="translate(850.73376 0)scale(0.996264)" xlink:href="#CMR17-115"/>
      <use transform="translate(886.535097 0)scale(0.996264)" xlink:href="#CMR17-41"/>
     </g>
    </g>
   </g>
   <g id="matplotlib.axis_2">
    <g id="ytick_1">
     <g id="line2d_39">
      <path clip-path="url(#pf492f931ee)" d="M 50.81625 304.981683 
L 443.033046 304.981683 
" style="fill:none;stroke:#dddddd;stroke-linecap:square;stroke-width:0.5;"/>
     </g>
     <g id="line2d_40">
      <defs>
       <path d="M 0 0 
L -3.5 0 
" id="m1d14d24bfd" style="stroke:#000000;stroke-width:0.8;"/>
      </defs>
      <g>
       <use style="stroke:#000000;stroke-width:0.8;" x="50.81625" xlink:href="#m1d14d24bfd" y="304.981683"/>
      </g>
     </g>
     <g id="text_5">
      <!-- $\mathdefault{10^{-5}}$ -->
      <g transform="translate(23.655677 308.440932)scale(0.1 -0.1)">
       <defs>
        <path d="M 11.40625 58.59375 
C 12.40625 58.1875 16.5 56.890625 20.703125 56.890625 
C 30 56.890625 35.09375 61.890625 38 64.6875 
C 38 65.484375 38 66 37.40625 66 
C 37.296875 66 37.09375 66 36.296875 65.59375 
C 32.796875 64.09375 28.703125 63 23.703125 63 
C 20.703125 63 16.203125 63.359375 11.296875 65.484375 
C 10.203125 66 10 66 9.90625 66 
C 9.40625 66 9.296875 65.890625 9.296875 63.90625 
L 9.296875 34.859375 
C 9.296875 33.015625 9.296875 32.5 10.296875 32.5 
C 10.796875 32.5 11 32.703125 11.5 33.421875 
C 14.703125 38.046875 19.09375 40 24.09375 40 
C 27.59375 40 35.09375 37.734375 35.09375 20.203125 
C 35.09375 16.984375 35.09375 11.1875 32.09375 6.59375 
C 29.59375 2.484375 25.703125 0.390625 21.40625 0.390625 
C 14.796875 0.390625 8.09375 4.984375 6.296875 12.6875 
C 6.703125 12.59375 7.5 12.390625 7.90625 12.390625 
C 9.203125 12.390625 11.703125 13.09375 11.703125 16.1875 
C 11.703125 18.890625 9.796875 20 7.90625 20 
C 5.59375 20 4.09375 18.59375 4.09375 15.796875 
C 4.09375 7.09375 11 -2 21.59375 -2 
C 31.90625 -2 41.703125 6.890625 41.703125 19.796875 
C 41.703125 32.09375 33.90625 41.59375 24.203125 41.59375 
C 19.09375 41.59375 14.796875 39.6875 11.40625 36 
z
" id="CMR17-53"/>
       </defs>
       <use transform="scale(0.996264)" xlink:href="#CMR17-49"/>
       <use transform="translate(45.690477 0)scale(0.996264)" xlink:href="#CMR17-48"/>
       <use transform="translate(91.380954 36.153639)scale(0.697382)" xlink:href="#CMSY10-0"/>
       <use transform="translate(145.621947 36.153639)scale(0.697382)" xlink:href="#CMR17-53"/>
      </g>
     </g>
    </g>
    <g id="ytick_2">
     <g id="line2d_41">
      <path clip-path="url(#pf492f931ee)" d="M 50.81625 236.583722 
L 443.033046 236.583722 
" style="fill:none;stroke:#dddddd;stroke-linecap:square;stroke-width:0.5;"/>
     </g>
     <g id="line2d_42">
      <g>
       <use style="stroke:#000000;stroke-width:0.8;" x="50.81625" xlink:href="#m1d14d24bfd" y="236.583722"/>
      </g>
     </g>
     <g id="text_6">
      <!-- $\mathdefault{10^{-4}}$ -->
      <g transform="translate(23.655677 240.042971)scale(0.1 -0.1)">
       <defs>
        <path d="M 33.59375 64.796875 
C 33.59375 66.890625 33.5 67 31.703125 67 
L 2 19.59375 
L 2 17 
L 27.796875 17 
L 27.796875 7.1875 
C 27.796875 3.59375 27.59375 2.59375 20.59375 2.59375 
L 18.703125 2.59375 
L 18.703125 0 
C 21.90625 0.1875 27.296875 0.1875 30.703125 0.1875 
C 34.09375 0.1875 39.5 0.1875 42.703125 0 
L 42.703125 2.59375 
L 40.796875 2.59375 
C 33.796875 2.59375 33.59375 3.59375 33.59375 7.1875 
L 33.59375 17 
L 43.796875 17 
L 43.796875 19.59375 
L 33.59375 19.59375 
z
M 28.09375 58.171875 
L 28.09375 19.59375 
L 4 19.59375 
z
" id="CMR17-52"/>
       </defs>
       <use transform="scale(0.996264)" xlink:href="#CMR17-49"/>
       <use transform="translate(45.690477 0)scale(0.996264)" xlink:href="#CMR17-48"/>
       <use transform="translate(91.380954 36.153639)scale(0.697382)" xlink:href="#CMSY10-0"/>
       <use transform="translate(145.621947 36.153639)scale(0.697382)" xlink:href="#CMR17-52"/>
      </g>
     </g>
    </g>
    <g id="ytick_3">
     <g id="line2d_43">
      <path clip-path="url(#pf492f931ee)" d="M 50.81625 168.185761 
L 443.033046 168.185761 
" style="fill:none;stroke:#dddddd;stroke-linecap:square;stroke-width:0.5;"/>
     </g>
     <g id="line2d_44">
      <g>
       <use style="stroke:#000000;stroke-width:0.8;" x="50.81625" xlink:href="#m1d14d24bfd" y="168.185761"/>
      </g>
     </g>
     <g id="text_7">
      <!-- $\mathdefault{10^{-3}}$ -->
      <g transform="translate(23.655677 171.64501)scale(0.1 -0.1)">
       <defs>
        <path d="M 22.09375 34 
C 31 34 34.90625 26.140625 34.90625 17.09375 
C 34.90625 5.03125 28.5 0.390625 22.703125 0.390625 
C 17.40625 0.390625 8.796875 3.015625 6.09375 10.796875 
C 6.59375 10.59375 7.09375 10.59375 7.59375 10.59375 
C 10 10.59375 11.796875 12.1875 11.796875 14.796875 
C 11.796875 17.6875 9.59375 19 7.59375 19 
C 5.90625 19 3.296875 18.1875 3.296875 14.484375 
C 3.296875 5.234375 12.296875 -2 22.90625 -2 
C 34 -2 42.5 6.75 42.5 16.984375 
C 42.5 26.84375 34.5 34 25 35.09375 
C 32.59375 36.671875 39.90625 43.375 39.90625 52.390625 
C 39.90625 60.25 32 66 23 66 
C 13.90625 66 5.90625 60.34375 5.90625 52.296875 
C 5.90625 48.796875 8.5 48.1875 9.796875 48.1875 
C 11.90625 48.1875 13.703125 49.484375 13.703125 52.09375 
C 13.703125 54.6875 11.90625 56 9.796875 56 
C 9.40625 56 8.90625 56 8.5 55.796875 
C 11.40625 62.484375 19.296875 63.6875 22.796875 63.6875 
C 26.296875 63.6875 32.90625 61.96875 32.90625 52.296875 
C 32.90625 49.484375 32.5 44.546875 29.09375 40.21875 
C 26.09375 36.390625 22.703125 36.1875 19.40625 35.890625 
C 18.90625 35.890625 16.59375 35.6875 16.203125 35.6875 
C 15.5 35.59375 15.09375 35.5 15.09375 34.796875 
C 15.09375 34.09375 15.203125 34 17.203125 34 
z
" id="CMR17-51"/>
       </defs>
       <use transform="scale(0.996264)" xlink:href="#CMR17-49"/>
       <use transform="translate(45.690477 0)scale(0.996264)" xlink:href="#CMR17-48"/>
       <use transform="translate(91.380954 36.153639)scale(0.697382)" xlink:href="#CMSY10-0"/>
       <use transform="translate(145.621947 36.153639)scale(0.697382)" xlink:href="#CMR17-51"/>
      </g>
     </g>
    </g>
    <g id="ytick_4">
     <g id="line2d_45">
      <path clip-path="url(#pf492f931ee)" d="M 50.81625 99.787799 
L 443.033046 99.787799 
" style="fill:none;stroke:#dddddd;stroke-linecap:square;stroke-width:0.5;"/>
     </g>
     <g id="line2d_46">
      <g>
       <use style="stroke:#000000;stroke-width:0.8;" x="50.81625" xlink:href="#m1d14d24bfd" y="99.787799"/>
      </g>
     </g>
     <g id="text_8">
      <!-- $\mathdefault{10^{-2}}$ -->
      <g transform="translate(23.655677 103.247048)scale(0.1 -0.1)">
       <use transform="scale(0.996264)" xlink:href="#CMR17-49"/>
       <use transform="translate(45.690477 0)scale(0.996264)" xlink:href="#CMR17-48"/>
       <use transform="translate(91.380954 36.153639)scale(0.697382)" xlink:href="#CMSY10-0"/>
       <use transform="translate(145.621947 36.153639)scale(0.697382)" xlink:href="#CMR17-50"/>
      </g>
     </g>
    </g>
    <g id="ytick_5">
     <g id="line2d_47">
      <path clip-path="url(#pf492f931ee)" d="M 50.81625 31.389838 
L 443.033046 31.389838 
" style="fill:none;stroke:#dddddd;stroke-linecap:square;stroke-width:0.5;"/>
     </g>
     <g id="line2d_48">
      <g>
       <use style="stroke:#000000;stroke-width:0.8;" x="50.81625" xlink:href="#m1d14d24bfd" y="31.389838"/>
      </g>
     </g>
     <g id="text_9">
      <!-- $\mathdefault{10^{-1}}$ -->
      <g transform="translate(23.655677 34.849087)scale(0.1 -0.1)">
       <use transform="scale(0.996264)" xlink:href="#CMR17-49"/>
       <use transform="translate(45.690477 0)scale(0.996264)" xlink:href="#CMR17-48"/>
       <use transform="translate(91.380954 36.153639)scale(0.697382)" xlink:href="#CMSY10-0"/>
       <use transform="translate(145.621947 36.153639)scale(0.697382)" xlink:href="#CMR17-49"/>
      </g>
     </g>
    </g>
    <g id="ytick_6">
     <g id="line2d_49">
      <path clip-path="url(#pf492f931ee)" d="M 50.81625 284.391845 
L 443.033046 284.391845 
" style="fill:none;stroke:#dddddd;stroke-linecap:square;stroke-width:0.5;"/>
     </g>
     <g id="line2d_50">
      <defs>
       <path d="M 0 0 
L -2 0 
" id="m4870a407bb" style="stroke:#000000;stroke-width:0.6;"/>
      </defs>
      <g>
       <use style="stroke:#000000;stroke-width:0.6;" x="50.81625" xlink:href="#m4870a407bb" y="284.391845"/>
      </g>
     </g>
    </g>
    <g id="ytick_7">
     <g id="line2d_51">
      <path clip-path="url(#pf492f931ee)" d="M 50.81625 272.347562 
L 443.033046 272.347562 
" style="fill:none;stroke:#dddddd;stroke-linecap:square;stroke-width:0.5;"/>
     </g>
     <g id="line2d_52">
      <g>
       <use style="stroke:#000000;stroke-width:0.6;" x="50.81625" xlink:href="#m4870a407bb" y="272.347562"/>
      </g>
     </g>
    </g>
    <g id="ytick_8">
     <g id="line2d_53">
      <path clip-path="url(#pf492f931ee)" d="M 50.81625 263.802007 
L 443.033046 263.802007 
" style="fill:none;stroke:#dddddd;stroke-linecap:square;stroke-width:0.5;"/>
     </g>
     <g id="line2d_54">
      <g>
       <use style="stroke:#000000;stroke-width:0.6;" x="50.81625" xlink:href="#m4870a407bb" y="263.802007"/>
      </g>
     </g>
    </g>
    <g id="ytick_9">
     <g id="line2d_55">
      <path clip-path="url(#pf492f931ee)" d="M 50.81625 257.17356 
L 443.033046 257.17356 
" style="fill:none;stroke:#dddddd;stroke-linecap:square;stroke-width:0.5;"/>
     </g>
     <g id="line2d_56">
      <g>
       <use style="stroke:#000000;stroke-width:0.6;" x="50.81625" xlink:href="#m4870a407bb" y="257.17356"/>
      </g>
     </g>
    </g>
    <g id="ytick_10">
     <g id="line2d_57">
      <path clip-path="url(#pf492f931ee)" d="M 50.81625 251.757724 
L 443.033046 251.757724 
" style="fill:none;stroke:#dddddd;stroke-linecap:square;stroke-width:0.5;"/>
     </g>
     <g id="line2d_58">
      <g>
       <use style="stroke:#000000;stroke-width:0.6;" x="50.81625" xlink:href="#m4870a407bb" y="251.757724"/>
      </g>
     </g>
    </g>
    <g id="ytick_11">
     <g id="line2d_59">
      <path clip-path="url(#pf492f931ee)" d="M 50.81625 247.1787 
L 443.033046 247.1787 
" style="fill:none;stroke:#dddddd;stroke-linecap:square;stroke-width:0.5;"/>
     </g>
     <g id="line2d_60">
      <g>
       <use style="stroke:#000000;stroke-width:0.6;" x="50.81625" xlink:href="#m4870a407bb" y="247.1787"/>
      </g>
     </g>
    </g>
    <g id="ytick_12">
     <g id="line2d_61">
      <path clip-path="url(#pf492f931ee)" d="M 50.81625 243.212169 
L 443.033046 243.212169 
" style="fill:none;stroke:#dddddd;stroke-linecap:square;stroke-width:0.5;"/>
     </g>
     <g id="line2d_62">
      <g>
       <use style="stroke:#000000;stroke-width:0.6;" x="50.81625" xlink:href="#m4870a407bb" y="243.212169"/>
      </g>
     </g>
    </g>
    <g id="ytick_13">
     <g id="line2d_63">
      <path clip-path="url(#pf492f931ee)" d="M 50.81625 239.713441 
L 443.033046 239.713441 
" style="fill:none;stroke:#dddddd;stroke-linecap:square;stroke-width:0.5;"/>
     </g>
     <g id="line2d_64">
      <g>
       <use style="stroke:#000000;stroke-width:0.6;" x="50.81625" xlink:href="#m4870a407bb" y="239.713441"/>
      </g>
     </g>
    </g>
    <g id="ytick_14">
     <g id="line2d_65">
      <path clip-path="url(#pf492f931ee)" d="M 50.81625 215.993884 
L 443.033046 215.993884 
" style="fill:none;stroke:#dddddd;stroke-linecap:square;stroke-width:0.5;"/>
     </g>
     <g id="line2d_66">
      <g>
       <use style="stroke:#000000;stroke-width:0.6;" x="50.81625" xlink:href="#m4870a407bb" y="215.993884"/>
      </g>
     </g>
    </g>
    <g id="ytick_15">
     <g id="line2d_67">
      <path clip-path="url(#pf492f931ee)" d="M 50.81625 203.949601 
L 443.033046 203.949601 
" style="fill:none;stroke:#dddddd;stroke-linecap:square;stroke-width:0.5;"/>
     </g>
     <g id="line2d_68">
      <g>
       <use style="stroke:#000000;stroke-width:0.6;" x="50.81625" xlink:href="#m4870a407bb" y="203.949601"/>
      </g>
     </g>
    </g>
    <g id="ytick_16">
     <g id="line2d_69">
      <path clip-path="url(#pf492f931ee)" d="M 50.81625 195.404046 
L 443.033046 195.404046 
" style="fill:none;stroke:#dddddd;stroke-linecap:square;stroke-width:0.5;"/>
     </g>
     <g id="line2d_70">
      <g>
       <use style="stroke:#000000;stroke-width:0.6;" x="50.81625" xlink:href="#m4870a407bb" y="195.404046"/>
      </g>
     </g>
    </g>
    <g id="ytick_17">
     <g id="line2d_71">
      <path clip-path="url(#pf492f931ee)" d="M 50.81625 188.775599 
L 443.033046 188.775599 
" style="fill:none;stroke:#dddddd;stroke-linecap:square;stroke-width:0.5;"/>
     </g>
     <g id="line2d_72">
      <g>
       <use style="stroke:#000000;stroke-width:0.6;" x="50.81625" xlink:href="#m4870a407bb" y="188.775599"/>
      </g>
     </g>
    </g>
    <g id="ytick_18">
     <g id="line2d_73">
      <path clip-path="url(#pf492f931ee)" d="M 50.81625 183.359763 
L 443.033046 183.359763 
" style="fill:none;stroke:#dddddd;stroke-linecap:square;stroke-width:0.5;"/>
     </g>
     <g id="line2d_74">
      <g>
       <use style="stroke:#000000;stroke-width:0.6;" x="50.81625" xlink:href="#m4870a407bb" y="183.359763"/>
      </g>
     </g>
    </g>
    <g id="ytick_19">
     <g id="line2d_75">
      <path clip-path="url(#pf492f931ee)" d="M 50.81625 178.780739 
L 443.033046 178.780739 
" style="fill:none;stroke:#dddddd;stroke-linecap:square;stroke-width:0.5;"/>
     </g>
     <g id="line2d_76">
      <g>
       <use style="stroke:#000000;stroke-width:0.6;" x="50.81625" xlink:href="#m4870a407bb" y="178.780739"/>
      </g>
     </g>
    </g>
    <g id="ytick_20">
     <g id="line2d_77">
      <path clip-path="url(#pf492f931ee)" d="M 50.81625 174.814208 
L 443.033046 174.814208 
" style="fill:none;stroke:#dddddd;stroke-linecap:square;stroke-width:0.5;"/>
     </g>
     <g id="line2d_78">
      <g>
       <use style="stroke:#000000;stroke-width:0.6;" x="50.81625" xlink:href="#m4870a407bb" y="174.814208"/>
      </g>
     </g>
    </g>
    <g id="ytick_21">
     <g id="line2d_79">
      <path clip-path="url(#pf492f931ee)" d="M 50.81625 171.31548 
L 443.033046 171.31548 
" style="fill:none;stroke:#dddddd;stroke-linecap:square;stroke-width:0.5;"/>
     </g>
     <g id="line2d_80">
      <g>
       <use style="stroke:#000000;stroke-width:0.6;" x="50.81625" xlink:href="#m4870a407bb" y="171.31548"/>
      </g>
     </g>
    </g>
    <g id="ytick_22">
     <g id="line2d_81">
      <path clip-path="url(#pf492f931ee)" d="M 50.81625 147.595923 
L 443.033046 147.595923 
" style="fill:none;stroke:#dddddd;stroke-linecap:square;stroke-width:0.5;"/>
     </g>
     <g id="line2d_82">
      <g>
       <use style="stroke:#000000;stroke-width:0.6;" x="50.81625" xlink:href="#m4870a407bb" y="147.595923"/>
      </g>
     </g>
    </g>
    <g id="ytick_23">
     <g id="line2d_83">
      <path clip-path="url(#pf492f931ee)" d="M 50.81625 135.551639 
L 443.033046 135.551639 
" style="fill:none;stroke:#dddddd;stroke-linecap:square;stroke-width:0.5;"/>
     </g>
     <g id="line2d_84">
      <g>
       <use style="stroke:#000000;stroke-width:0.6;" x="50.81625" xlink:href="#m4870a407bb" y="135.551639"/>
      </g>
     </g>
    </g>
    <g id="ytick_24">
     <g id="line2d_85">
      <path clip-path="url(#pf492f931ee)" d="M 50.81625 127.006085 
L 443.033046 127.006085 
" style="fill:none;stroke:#dddddd;stroke-linecap:square;stroke-width:0.5;"/>
     </g>
     <g id="line2d_86">
      <g>
       <use style="stroke:#000000;stroke-width:0.6;" x="50.81625" xlink:href="#m4870a407bb" y="127.006085"/>
      </g>
     </g>
    </g>
    <g id="ytick_25">
     <g id="line2d_87">
      <path clip-path="url(#pf492f931ee)" d="M 50.81625 120.377637 
L 443.033046 120.377637 
" style="fill:none;stroke:#dddddd;stroke-linecap:square;stroke-width:0.5;"/>
     </g>
     <g id="line2d_88">
      <g>
       <use style="stroke:#000000;stroke-width:0.6;" x="50.81625" xlink:href="#m4870a407bb" y="120.377637"/>
      </g>
     </g>
    </g>
    <g id="ytick_26">
     <g id="line2d_89">
      <path clip-path="url(#pf492f931ee)" d="M 50.81625 114.961801 
L 443.033046 114.961801 
" style="fill:none;stroke:#dddddd;stroke-linecap:square;stroke-width:0.5;"/>
     </g>
     <g id="line2d_90">
      <g>
       <use style="stroke:#000000;stroke-width:0.6;" x="50.81625" xlink:href="#m4870a407bb" y="114.961801"/>
      </g>
     </g>
    </g>
    <g id="ytick_27">
     <g id="line2d_91">
      <path clip-path="url(#pf492f931ee)" d="M 50.81625 110.382778 
L 443.033046 110.382778 
" style="fill:none;stroke:#dddddd;stroke-linecap:square;stroke-width:0.5;"/>
     </g>
     <g id="line2d_92">
      <g>
       <use style="stroke:#000000;stroke-width:0.6;" x="50.81625" xlink:href="#m4870a407bb" y="110.382778"/>
      </g>
     </g>
    </g>
    <g id="ytick_28">
     <g id="line2d_93">
      <path clip-path="url(#pf492f931ee)" d="M 50.81625 106.416247 
L 443.033046 106.416247 
" style="fill:none;stroke:#dddddd;stroke-linecap:square;stroke-width:0.5;"/>
     </g>
     <g id="line2d_94">
      <g>
       <use style="stroke:#000000;stroke-width:0.6;" x="50.81625" xlink:href="#m4870a407bb" y="106.416247"/>
      </g>
     </g>
    </g>
    <g id="ytick_29">
     <g id="line2d_95">
      <path clip-path="url(#pf492f931ee)" d="M 50.81625 102.917518 
L 443.033046 102.917518 
" style="fill:none;stroke:#dddddd;stroke-linecap:square;stroke-width:0.5;"/>
     </g>
     <g id="line2d_96">
      <g>
       <use style="stroke:#000000;stroke-width:0.6;" x="50.81625" xlink:href="#m4870a407bb" y="102.917518"/>
      </g>
     </g>
    </g>
    <g id="ytick_30">
     <g id="line2d_97">
      <path clip-path="url(#pf492f931ee)" d="M 50.81625 79.197961 
L 443.033046 79.197961 
" style="fill:none;stroke:#dddddd;stroke-linecap:square;stroke-width:0.5;"/>
     </g>
     <g id="line2d_98">
      <g>
       <use style="stroke:#000000;stroke-width:0.6;" x="50.81625" xlink:href="#m4870a407bb" y="79.197961"/>
      </g>
     </g>
    </g>
    <g id="ytick_31">
     <g id="line2d_99">
      <path clip-path="url(#pf492f931ee)" d="M 50.81625 67.153678 
L 443.033046 67.153678 
" style="fill:none;stroke:#dddddd;stroke-linecap:square;stroke-width:0.5;"/>
     </g>
     <g id="line2d_100">
      <g>
       <use style="stroke:#000000;stroke-width:0.6;" x="50.81625" xlink:href="#m4870a407bb" y="67.153678"/>
      </g>
     </g>
    </g>
    <g id="ytick_32">
     <g id="line2d_101">
      <path clip-path="url(#pf492f931ee)" d="M 50.81625 58.608123 
L 443.033046 58.608123 
" style="fill:none;stroke:#dddddd;stroke-linecap:square;stroke-width:0.5;"/>
     </g>
     <g id="line2d_102">
      <g>
       <use style="stroke:#000000;stroke-width:0.6;" x="50.81625" xlink:href="#m4870a407bb" y="58.608123"/>
      </g>
     </g>
    </g>
    <g id="ytick_33">
     <g id="line2d_103">
      <path clip-path="url(#pf492f931ee)" d="M 50.81625 51.979676 
L 443.033046 51.979676 
" style="fill:none;stroke:#dddddd;stroke-linecap:square;stroke-width:0.5;"/>
     </g>
     <g id="line2d_104">
      <g>
       <use style="stroke:#000000;stroke-width:0.6;" x="50.81625" xlink:href="#m4870a407bb" y="51.979676"/>
      </g>
     </g>
    </g>
    <g id="ytick_34">
     <g id="line2d_105">
      <path clip-path="url(#pf492f931ee)" d="M 50.81625 46.56384 
L 443.033046 46.56384 
" style="fill:none;stroke:#dddddd;stroke-linecap:square;stroke-width:0.5;"/>
     </g>
     <g id="line2d_106">
      <g>
       <use style="stroke:#000000;stroke-width:0.6;" x="50.81625" xlink:href="#m4870a407bb" y="46.56384"/>
      </g>
     </g>
    </g>
    <g id="ytick_35">
     <g id="line2d_107">
      <path clip-path="url(#pf492f931ee)" d="M 50.81625 41.984816 
L 443.033046 41.984816 
" style="fill:none;stroke:#dddddd;stroke-linecap:square;stroke-width:0.5;"/>
     </g>
     <g id="line2d_108">
      <g>
       <use style="stroke:#000000;stroke-width:0.6;" x="50.81625" xlink:href="#m4870a407bb" y="41.984816"/>
      </g>
     </g>
    </g>
    <g id="ytick_36">
     <g id="line2d_109">
      <path clip-path="url(#pf492f931ee)" d="M 50.81625 38.018285 
L 443.033046 38.018285 
" style="fill:none;stroke:#dddddd;stroke-linecap:square;stroke-width:0.5;"/>
     </g>
     <g id="line2d_110">
      <g>
       <use style="stroke:#000000;stroke-width:0.6;" x="50.81625" xlink:href="#m4870a407bb" y="38.018285"/>
      </g>
     </g>
    </g>
    <g id="ytick_37">
     <g id="line2d_111">
      <path clip-path="url(#pf492f931ee)" d="M 50.81625 34.519557 
L 443.033046 34.519557 
" style="fill:none;stroke:#dddddd;stroke-linecap:square;stroke-width:0.5;"/>
     </g>
     <g id="line2d_112">
      <g>
       <use style="stroke:#000000;stroke-width:0.6;" x="50.81625" xlink:href="#m4870a407bb" y="34.519557"/>
      </g>
     </g>
    </g>
    <g id="ytick_38">
     <g id="line2d_113">
      <path clip-path="url(#pf492f931ee)" d="M 50.81625 10.8 
L 443.033046 10.8 
" style="fill:none;stroke:#dddddd;stroke-linecap:square;stroke-width:0.5;"/>
     </g>
     <g id="line2d_114">
      <g>
       <use style="stroke:#000000;stroke-width:0.6;" x="50.81625" xlink:href="#m4870a407bb" y="10.8"/>
      </g>
     </g>
    </g>
    <g id="text_10">
     <!-- conversion error $\epsilon$ -->
     <g transform="translate(17.718498 196.387159)rotate(-90)scale(0.1 -0.1)">
      <defs>
       <path d="M 39.09375 33.953125 
C 40 36.171875 41.59375 40.1875 47.40625 40.390625 
L 47.40625 43 
C 45.5 42.890625 43 42.796875 41.09375 42.796875 
C 39 42.796875 35.703125 42.796875 33.703125 43 
L 33.703125 40.390625 
C 36.203125 40.1875 37.59375 38.984375 37.59375 36.375 
C 37.59375 35.46875 37.59375 35.265625 37 33.859375 
L 26 5.921875 
L 14.09375 36.0625 
C 13.5 37.375 13.5 37.578125 13.5 37.984375 
C 13.5 40.390625 16.796875 40.390625 18.296875 40.390625 
L 18.296875 43 
C 15.90625 42.796875 11.5 42.796875 9 42.796875 
C 6.296875 42.796875 3.203125 42.796875 1 43 
L 1 40.390625 
C 4.796875 40.390625 6.90625 40.390625 8.09375 37.28125 
L 22.59375 0.6875 
C 23.203125 -0.8125 23.296875 -1 24.203125 -1 
C 25.09375 -1 25.203125 -0.8125 25.796875 0.6875 
z
" id="CMR17-118"/>
       <path d="M 29.09375 23 
C 30.59375 23 32.296875 23 32.296875 24.59375 
C 32.296875 25.890625 31.296875 25.890625 29.5 25.890625 
L 13.296875 25.890625 
C 15.796875 34.75 21.703125 40.09375 30.59375 40.09375 
L 33.5 40.09375 
C 35.203125 40.09375 36.703125 40.09375 36.703125 41.6875 
C 36.703125 43 35.59375 43 33.796875 43 
L 30.40625 43 
C 18.09375 43 4.59375 33.375 4.59375 17.828125 
C 4.59375 6.5625 12.09375 -1 22 -1 
C 28.40625 -1 34.703125 3.015625 34.703125 4.03125 
C 34.703125 4.640625 34.40625 5.25 33.796875 5.25 
C 33.5 5.25 33.296875 5.15625 32.796875 4.75 
C 29 2.203125 25.296875 1 22.296875 1 
C 17 1 11.40625 4.546875 11.40625 14.375 
C 11.40625 16.296875 11.59375 18.9375 12.5 23 
z
" id="CMMI12-15"/>
      </defs>
      <use transform="scale(0.996264)" xlink:href="#CMR17-99"/>
      <use transform="translate(40.48566 0)scale(0.996264)" xlink:href="#CMR17-111"/>
      <use transform="translate(86.176138 0)scale(0.996264)" xlink:href="#CMR17-110"/>
      <use transform="translate(134.469053 0)scale(0.996264)" xlink:href="#CMR17-118"/>
      <use transform="translate(180.159515 0)scale(0.996264)" xlink:href="#CMR17-101"/>
      <use transform="translate(220.645176 0)scale(0.996264)" xlink:href="#CMR17-114"/>
      <use transform="translate(255.925944 0)scale(0.996264)" xlink:href="#CMR17-115"/>
      <use transform="translate(291.727281 0)scale(0.996264)" xlink:href="#CMR17-105"/>
      <use transform="translate(316.59834 0)scale(0.996264)" xlink:href="#CMR17-111"/>
      <use transform="translate(362.288817 0)scale(0.996264)" xlink:href="#CMR17-110"/>
      <use transform="translate(443.260153 0)scale(0.996264)" xlink:href="#CMR17-101"/>
      <use transform="translate(483.745813 0)scale(0.996264)" xlink:href="#CMR17-114"/>
      <use transform="translate(519.026581 0)scale(0.996264)" xlink:href="#CMR17-114"/>
      <use transform="translate(554.307349 0)scale(0.996264)" xlink:href="#CMR17-111"/>
      <use transform="translate(599.997826 0)scale(0.996264)" xlink:href="#CMR17-114"/>
      <use transform="translate(665.35456 0)scale(0.996264)" xlink:href="#CMMI12-15"/>
     </g>
    </g>
   </g>
   <g id="LineCollection_1">
    <path clip-path="url(#pf492f931ee)" d="M 249.765405 304.981683 
L 249.765405 -1 
" style="fill:none;stroke:#000000;stroke-width:1.5;"/>
   </g>
   <g id="line2d_115">
    <path clip-path="url(#pf492f931ee)" d="M 50.81625 50.999108 
L 109.85076 68.770062 
L 144.383735 74.557067 
L 168.88527 80.145513 
L 187.890138 82.198071 
L 203.418245 84.766956 
L 216.547073 85.242655 
L 227.919781 96.109297 
L 237.95122 94.290926 
L 246.924648 97.566327 
L 255.042101 98.604123 
L 262.452755 100.523114 
L 269.269896 100.454747 
L 275.581583 100.45619 
L 281.457623 100.774466 
L 286.954291 100.913998 
L 292.117617 101.203867 
L 296.98573 101.130899 
L 301.59057 101.006161 
L 305.959158 101.017448 
L 340.492133 100.993917 
L 364.993668 101.263896 
L 383.998536 101.042571 
L 399.526643 101.072604 
L 412.655471 101.050642 
L 424.028179 101.159912 
L 434.059618 101.071605 
L 443.033046 101.007435 
L 461.8 101.020608 
" style="fill:none;stroke:#0088ff;stroke-linecap:square;stroke-width:1.5;"/>
    <defs>
     <path d="M -1.5 1.5 
L 1.5 1.5 
L 1.5 -1.5 
L -1.5 -1.5 
z
" id="m444ba9b096" style="stroke:#0088ff;stroke-linejoin:miter;"/>
    </defs>
    <g clip-path="url(#pf492f931ee)">
     <use style="fill:#0088ff;stroke:#0088ff;stroke-linejoin:miter;" x="50.81625" xlink:href="#m444ba9b096" y="50.999108"/>
     <use style="fill:#0088ff;stroke:#0088ff;stroke-linejoin:miter;" x="109.85076" xlink:href="#m444ba9b096" y="68.770062"/>
     <use style="fill:#0088ff;stroke:#0088ff;stroke-linejoin:miter;" x="144.383735" xlink:href="#m444ba9b096" y="74.557067"/>
     <use style="fill:#0088ff;stroke:#0088ff;stroke-linejoin:miter;" x="168.88527" xlink:href="#m444ba9b096" y="80.145513"/>
     <use style="fill:#0088ff;stroke:#0088ff;stroke-linejoin:miter;" x="187.890138" xlink:href="#m444ba9b096" y="82.198071"/>
     <use style="fill:#0088ff;stroke:#0088ff;stroke-linejoin:miter;" x="203.418245" xlink:href="#m444ba9b096" y="84.766956"/>
     <use style="fill:#0088ff;stroke:#0088ff;stroke-linejoin:miter;" x="216.547073" xlink:href="#m444ba9b096" y="85.242655"/>
     <use style="fill:#0088ff;stroke:#0088ff;stroke-linejoin:miter;" x="227.919781" xlink:href="#m444ba9b096" y="96.109297"/>
     <use style="fill:#0088ff;stroke:#0088ff;stroke-linejoin:miter;" x="237.95122" xlink:href="#m444ba9b096" y="94.290926"/>
     <use style="fill:#0088ff;stroke:#0088ff;stroke-linejoin:miter;" x="246.924648" xlink:href="#m444ba9b096" y="97.566327"/>
     <use style="fill:#0088ff;stroke:#0088ff;stroke-linejoin:miter;" x="255.042101" xlink:href="#m444ba9b096" y="98.604123"/>
     <use style="fill:#0088ff;stroke:#0088ff;stroke-linejoin:miter;" x="262.452755" xlink:href="#m444ba9b096" y="100.523114"/>
     <use style="fill:#0088ff;stroke:#0088ff;stroke-linejoin:miter;" x="269.269896" xlink:href="#m444ba9b096" y="100.454747"/>
     <use style="fill:#0088ff;stroke:#0088ff;stroke-linejoin:miter;" x="275.581583" xlink:href="#m444ba9b096" y="100.45619"/>
     <use style="fill:#0088ff;stroke:#0088ff;stroke-linejoin:miter;" x="281.457623" xlink:href="#m444ba9b096" y="100.774466"/>
     <use style="fill:#0088ff;stroke:#0088ff;stroke-linejoin:miter;" x="286.954291" xlink:href="#m444ba9b096" y="100.913998"/>
     <use style="fill:#0088ff;stroke:#0088ff;stroke-linejoin:miter;" x="292.117617" xlink:href="#m444ba9b096" y="101.203867"/>
     <use style="fill:#0088ff;stroke:#0088ff;stroke-linejoin:miter;" x="296.98573" xlink:href="#m444ba9b096" y="101.130899"/>
     <use style="fill:#0088ff;stroke:#0088ff;stroke-linejoin:miter;" x="301.59057" xlink:href="#m444ba9b096" y="101.006161"/>
     <use style="fill:#0088ff;stroke:#0088ff;stroke-linejoin:miter;" x="305.959158" xlink:href="#m444ba9b096" y="101.017448"/>
     <use style="fill:#0088ff;stroke:#0088ff;stroke-linejoin:miter;" x="340.492133" xlink:href="#m444ba9b096" y="100.993917"/>
     <use style="fill:#0088ff;stroke:#0088ff;stroke-linejoin:miter;" x="364.993668" xlink:href="#m444ba9b096" y="101.263896"/>
     <use style="fill:#0088ff;stroke:#0088ff;stroke-linejoin:miter;" x="383.998536" xlink:href="#m444ba9b096" y="101.042571"/>
     <use style="fill:#0088ff;stroke:#0088ff;stroke-linejoin:miter;" x="399.526643" xlink:href="#m444ba9b096" y="101.072604"/>
     <use style="fill:#0088ff;stroke:#0088ff;stroke-linejoin:miter;" x="412.655471" xlink:href="#m444ba9b096" y="101.050642"/>
     <use style="fill:#0088ff;stroke:#0088ff;stroke-linejoin:miter;" x="424.028179" xlink:href="#m444ba9b096" y="101.159912"/>
     <use style="fill:#0088ff;stroke:#0088ff;stroke-linejoin:miter;" x="434.059618" xlink:href="#m444ba9b096" y="101.071605"/>
     <use style="fill:#0088ff;stroke:#0088ff;stroke-linejoin:miter;" x="443.033046" xlink:href="#m444ba9b096" y="101.007435"/>
     <use style="fill:#0088ff;stroke:#0088ff;stroke-linejoin:miter;" x="580.106934" xlink:href="#m444ba9b096" y="101.10365"/>
     <use style="fill:#0088ff;stroke:#0088ff;stroke-linejoin:miter;" x="639.141444" xlink:href="#m444ba9b096" y="101.112425"/>
     <use style="fill:#0088ff;stroke:#0088ff;stroke-linejoin:miter;" x="776.215332" xlink:href="#m444ba9b096" y="101.101268"/>
     <use style="fill:#0088ff;stroke:#0088ff;stroke-linejoin:miter;" x="835.249842" xlink:href="#m444ba9b096" y="101.10731"/>
     <use style="fill:#0088ff;stroke:#0088ff;stroke-linejoin:miter;" x="972.32373" xlink:href="#m444ba9b096" y="101.10118"/>
     <use style="fill:#0088ff;stroke:#0088ff;stroke-linejoin:miter;" x="1031.35824" xlink:href="#m444ba9b096" y="101.107055"/>
    </g>
   </g>
   <g id="line2d_116">
    <path clip-path="url(#pf492f931ee)" d="M 50.81625 70.637141 
L 109.85076 73.893623 
L 144.383735 92.422753 
L 168.88527 77.1533 
L 187.890138 112.606201 
L 203.418245 115.237413 
L 216.547073 119.36575 
L 227.919781 146.33186 
L 237.95122 156.288773 
L 246.924648 172.801054 
L 255.042101 167.877999 
L 262.452755 183.536495 
L 269.269896 207.601457 
L 275.581583 192.555528 
L 281.457623 220.976602 
L 286.954291 215.249645 
L 292.117617 236.364056 
L 296.98573 231.741485 
L 301.59057 234.356638 
L 305.959158 240.551626 
L 340.492133 239.230414 
L 364.993668 242.907839 
L 383.998536 244.527281 
L 399.526643 241.797715 
L 412.655471 239.481543 
L 424.028179 241.905761 
L 434.059618 241.567799 
L 443.033046 242.608099 
L 461.8 242.12338 
" style="fill:none;stroke:#dd5500;stroke-linecap:square;stroke-width:1.5;"/>
    <defs>
     <path d="M 0 1.5 
C 0.397805 1.5 0.77937 1.341951 1.06066 1.06066 
C 1.341951 0.77937 1.5 0.397805 1.5 0 
C 1.5 -0.397805 1.341951 -0.77937 1.06066 -1.06066 
C 0.77937 -1.341951 0.397805 -1.5 0 -1.5 
C -0.397805 -1.5 -0.77937 -1.341951 -1.06066 -1.06066 
C -1.341951 -0.77937 -1.5 -0.397805 -1.5 0 
C -1.5 0.397805 -1.341951 0.77937 -1.06066 1.06066 
C -0.77937 1.341951 -0.397805 1.5 0 1.5 
z
" id="ma241d0dc07" style="stroke:#dd5500;"/>
    </defs>
    <g clip-path="url(#pf492f931ee)">
     <use style="fill:#dd5500;stroke:#dd5500;" x="50.81625" xlink:href="#ma241d0dc07" y="70.637141"/>
     <use style="fill:#dd5500;stroke:#dd5500;" x="109.85076" xlink:href="#ma241d0dc07" y="73.893623"/>
     <use style="fill:#dd5500;stroke:#dd5500;" x="144.383735" xlink:href="#ma241d0dc07" y="92.422753"/>
     <use style="fill:#dd5500;stroke:#dd5500;" x="168.88527" xlink:href="#ma241d0dc07" y="77.1533"/>
     <use style="fill:#dd5500;stroke:#dd5500;" x="187.890138" xlink:href="#ma241d0dc07" y="112.606201"/>
     <use style="fill:#dd5500;stroke:#dd5500;" x="203.418245" xlink:href="#ma241d0dc07" y="115.237413"/>
     <use style="fill:#dd5500;stroke:#dd5500;" x="216.547073" xlink:href="#ma241d0dc07" y="119.36575"/>
     <use style="fill:#dd5500;stroke:#dd5500;" x="227.919781" xlink:href="#ma241d0dc07" y="146.33186"/>
     <use style="fill:#dd5500;stroke:#dd5500;" x="237.95122" xlink:href="#ma241d0dc07" y="156.288773"/>
     <use style="fill:#dd5500;stroke:#dd5500;" x="246.924648" xlink:href="#ma241d0dc07" y="172.801054"/>
     <use style="fill:#dd5500;stroke:#dd5500;" x="255.042101" xlink:href="#ma241d0dc07" y="167.877999"/>
     <use style="fill:#dd5500;stroke:#dd5500;" x="262.452755" xlink:href="#ma241d0dc07" y="183.536495"/>
     <use style="fill:#dd5500;stroke:#dd5500;" x="269.269896" xlink:href="#ma241d0dc07" y="207.601457"/>
     <use style="fill:#dd5500;stroke:#dd5500;" x="275.581583" xlink:href="#ma241d0dc07" y="192.555528"/>
     <use style="fill:#dd5500;stroke:#dd5500;" x="281.457623" xlink:href="#ma241d0dc07" y="220.976602"/>
     <use style="fill:#dd5500;stroke:#dd5500;" x="286.954291" xlink:href="#ma241d0dc07" y="215.249645"/>
     <use style="fill:#dd5500;stroke:#dd5500;" x="292.117617" xlink:href="#ma241d0dc07" y="236.364056"/>
     <use style="fill:#dd5500;stroke:#dd5500;" x="296.98573" xlink:href="#ma241d0dc07" y="231.741485"/>
     <use style="fill:#dd5500;stroke:#dd5500;" x="301.59057" xlink:href="#ma241d0dc07" y="234.356638"/>
     <use style="fill:#dd5500;stroke:#dd5500;" x="305.959158" xlink:href="#ma241d0dc07" y="240.551626"/>
     <use style="fill:#dd5500;stroke:#dd5500;" x="340.492133" xlink:href="#ma241d0dc07" y="239.230414"/>
     <use style="fill:#dd5500;stroke:#dd5500;" x="364.993668" xlink:href="#ma241d0dc07" y="242.907839"/>
     <use style="fill:#dd5500;stroke:#dd5500;" x="383.998536" xlink:href="#ma241d0dc07" y="244.527281"/>
     <use style="fill:#dd5500;stroke:#dd5500;" x="399.526643" xlink:href="#ma241d0dc07" y="241.797715"/>
     <use style="fill:#dd5500;stroke:#dd5500;" x="412.655471" xlink:href="#ma241d0dc07" y="239.481543"/>
     <use style="fill:#dd5500;stroke:#dd5500;" x="424.028179" xlink:href="#ma241d0dc07" y="241.905761"/>
     <use style="fill:#dd5500;stroke:#dd5500;" x="434.059618" xlink:href="#ma241d0dc07" y="241.567799"/>
     <use style="fill:#dd5500;stroke:#dd5500;" x="443.033046" xlink:href="#ma241d0dc07" y="242.608099"/>
     <use style="fill:#dd5500;stroke:#dd5500;" x="580.106934" xlink:href="#ma241d0dc07" y="239.067709"/>
     <use style="fill:#dd5500;stroke:#dd5500;" x="639.141444" xlink:href="#ma241d0dc07" y="238.925574"/>
     <use style="fill:#dd5500;stroke:#dd5500;" x="776.215332" xlink:href="#ma241d0dc07" y="238.04874"/>
     <use style="fill:#dd5500;stroke:#dd5500;" x="835.249842" xlink:href="#ma241d0dc07" y="238.228819"/>
     <use style="fill:#dd5500;stroke:#dd5500;" x="972.32373" xlink:href="#ma241d0dc07" y="237.72234"/>
     <use style="fill:#dd5500;stroke:#dd5500;" x="1031.35824" xlink:href="#ma241d0dc07" y="237.546224"/>
    </g>
   </g>
   <g id="patch_3">
    <path d="M 50.81625 304.981683 
L 50.81625 10.8 
" style="fill:none;stroke:#000000;stroke-linecap:square;stroke-linejoin:miter;stroke-width:0.8;"/>
   </g>
   <g id="patch_4">
    <path d="M 443.033046 304.981683 
L 443.033046 10.8 
" style="fill:none;stroke:#000000;stroke-linecap:square;stroke-linejoin:miter;stroke-width:0.8;"/>
   </g>
   <g id="patch_5">
    <path d="M 50.81625 304.981683 
L 443.033046 304.981683 
" style="fill:none;stroke:#000000;stroke-linecap:square;stroke-linejoin:miter;stroke-width:0.8;"/>
   </g>
   <g id="patch_6">
    <path d="M 50.81625 10.8 
L 443.033046 10.8 
" style="fill:none;stroke:#000000;stroke-linecap:square;stroke-linejoin:miter;stroke-width:0.8;"/>
   </g>
   <g id="legend_1">
    <g id="patch_7">
     <path d="M 373.812967 46.876241 
L 436.033046 46.876241 
Q 438.033046 46.876241 438.033046 44.876241 
L 438.033046 17.8 
Q 438.033046 15.8 436.033046 15.8 
L 373.812967 15.8 
Q 371.812967 15.8 371.812967 17.8 
L 371.812967 44.876241 
Q 371.812967 46.876241 373.812967 46.876241 
z
" style="fill:#ffffff;opacity:0.8;stroke:#cccccc;stroke-linejoin:miter;"/>
    </g>
    <g id="line2d_117">
     <path d="M 375.812967 23.3 
L 395.812967 23.3 
" style="fill:none;stroke:#0088ff;stroke-linecap:square;stroke-width:1.5;"/>
    </g>
    <g id="line2d_118">
     <g>
      <use style="fill:#0088ff;stroke:#0088ff;stroke-linejoin:miter;" x="385.812967" xlink:href="#m444ba9b096" y="23.3"/>
     </g>
    </g>
    <g id="text_11">
     <!-- linear -->
     <g transform="translate(403.812967 26.8)scale(0.1 -0.1)">
      <use transform="scale(0.996264)" xlink:href="#CMR17-108"/>
      <use transform="translate(24.871058 0)scale(0.996264)" xlink:href="#CMR17-105"/>
      <use transform="translate(49.742117 0)scale(0.996264)" xlink:href="#CMR17-110"/>
      <use transform="translate(100.637487 0)scale(0.996264)" xlink:href="#CMR17-101"/>
      <use transform="translate(141.123147 0)scale(0.996264)" xlink:href="#CMR17-97"/>
      <use transform="translate(186.813624 0)scale(0.996264)" xlink:href="#CMR17-114"/>
     </g>
    </g>
    <g id="line2d_119">
     <path d="M 375.812967 37.439063 
L 395.812967 37.439063 
" style="fill:none;stroke:#dd5500;stroke-linecap:square;stroke-width:1.5;"/>
    </g>
    <g id="line2d_120">
     <g>
      <use style="fill:#dd5500;stroke:#dd5500;" x="385.812967" xlink:href="#ma241d0dc07" y="37.439063"/>
     </g>
    </g>
    <g id="text_12">
     <!-- shaped -->
     <g transform="translate(403.812967 40.939063)scale(0.1 -0.1)">
      <defs>
       <path d="M 41.5 30.53125 
C 41.5 35.65625 40.5 44 28.703125 44 
C 20.5 44 16.5 37.375 15.296875 34.046875 
L 15.203125 34.046875 
L 15.203125 69 
L 3.296875 67.890625 
L 3.296875 65.296875 
C 9.203125 65.296875 10.09375 64.703125 10.09375 60.046875 
L 10.09375 6.921875 
C 10.09375 3.09375 9.703125 2.59375 3.296875 2.59375 
L 3.296875 0 
C 5.703125 0.1875 10.09375 0.1875 12.703125 0.1875 
C 15.296875 0.1875 19.796875 0.1875 22.203125 0 
L 22.203125 2.59375 
C 15.796875 2.59375 15.40625 3 15.40625 6.921875 
L 15.40625 26.21875 
C 15.40625 35.453125 21 42.390625 28 42.390625 
C 35.40625 42.390625 36.203125 35.765625 36.203125 30.9375 
L 36.203125 6.921875 
C 36.203125 3.09375 35.796875 2.59375 29.40625 2.59375 
L 29.40625 0 
C 31.796875 0.1875 36.203125 0.1875 38.796875 0.1875 
C 41.40625 0.1875 45.90625 0.1875 48.296875 0 
L 48.296875 2.59375 
C 41.90625 2.59375 41.5 3 41.5 6.921875 
z
" id="CMR17-104"/>
       <path d="M 22 -17.40625 
C 15.59375 -17.40625 15.203125 -17 15.203125 -13.03125 
L 15.203125 5.9375 
C 18.09375 1.703125 22.296875 -1 27.59375 -1 
C 37.59375 -1 47.703125 7.859375 47.703125 21.59375 
C 47.703125 34.3125 39 44 28.703125 44 
C 22.703125 44 17.796875 40.671875 15 36.640625 
L 15 44 
L 3.09375 42.890625 
L 3.09375 40.265625 
C 9 40.265625 9.90625 39.671875 9.90625 34.8125 
L 9.90625 -13.03125 
C 9.90625 -16.890625 9.5 -17.40625 3.09375 -17.40625 
L 3.09375 -20 
C 5.5 -19.8125 9.90625 -19.8125 12.5 -19.8125 
C 15.09375 -19.8125 19.59375 -19.8125 22 -20 
z
M 15.203125 31.484375 
C 15.203125 32.90625 15.203125 35.015625 19.09375 38.765625 
C 19.59375 39.15625 23 42.1875 28 42.1875 
C 35.296875 42.1875 41.296875 33 41.296875 21.5 
C 41.296875 9.984375 34.90625 0.59375 27 0.59375 
C 23.40625 0.59375 19.5 2.3125 16.5 7.046875 
C 15.203125 9.28125 15.203125 9.875 15.203125 11.5 
z
" id="CMR17-112"/>
       <path d="M 29.203125 67.890625 
L 29.203125 65.296875 
C 35.09375 65.296875 36 64.703125 36 60.046875 
L 36 37.046875 
C 35.59375 37.546875 31.5 44 23.40625 44 
C 13.203125 44 3.296875 34.8125 3.296875 21.5 
C 3.296875 8.265625 12.59375 -1 22.40625 -1 
C 30.90625 -1 35.296875 5.640625 35.796875 6.34375 
L 35.796875 -1 
L 47.90625 -0.203125 
L 47.90625 2.40625 
C 42 2.40625 41.09375 3.015625 41.09375 7.859375 
L 41.09375 69 
z
M 35.796875 11.90625 
C 35.796875 8.875 34 6.140625 31.703125 4.125 
C 28.296875 1.09375 24.90625 0.59375 23 0.59375 
C 20.09375 0.59375 9.703125 2.109375 9.703125 21.390625 
C 9.703125 41.1875 21.296875 42.390625 23.90625 42.390625 
C 28.5 42.390625 32.203125 39.765625 34.5 36.140625 
C 35.796875 34.015625 35.796875 33.703125 35.796875 31.890625 
z
" id="CMR17-100"/>
      </defs>
      <use transform="scale(0.996264)" xlink:href="#CMR17-115"/>
      <use transform="translate(35.801338 0)scale(0.996264)" xlink:href="#CMR17-104"/>
      <use transform="translate(86.696707 0)scale(0.996264)" xlink:href="#CMR17-97"/>
      <use transform="translate(132.387185 0)scale(0.996264)" xlink:href="#CMR17-112"/>
      <use transform="translate(185.884993 0)scale(0.996264)" xlink:href="#CMR17-101"/>
      <use transform="translate(226.370654 0)scale(0.996264)" xlink:href="#CMR17-100"/>
     </g>
    </g>
   </g>
  </g>
 </g>
 <defs>
  <clipPath id="pf492f931ee">
   <rect height="294.181683" width="392.216796" x="50.81625" y="10.8"/>
  </clipPath>
 </defs>
</svg>
