<?xml version="1.0" encoding="utf-8" standalone="no"?>
<!DOCTYPE svg PUBLIC "-//W3C//DTD SVG 1.1//EN"
  "http://www.w3.org/Graphics/SVG/1.1/DTD/svg11.dtd">
<!-- Created with matplotlib (https://matplotlib.org/) -->
<svg height="345.6pt" version="1.1" viewBox="0 0 460.8 345.6" width="460.8pt" xmlns="http://www.w3.org/2000/svg" xmlns:xlink="http://www.w3.org/1999/xlink">
 <metadata>
  <rdf:RDF xmlns:cc="http://creativecommons.org/ns#" xmlns:dc="http://purl.org/dc/elements/1.1/" xmlns:rdf="http://www.w3.org/1999/02/22-rdf-syntax-ns#">
   <cc:Work>
    <dc:type rdf:resource="http://purl.org/dc/dcmitype/StillImage"/>
    <dc:date>2020-08-31T19:44:38.369757</dc:date>
    <dc:format>image/svg+xml</dc:format>
    <dc:creator>
     <cc:Agent>
      <dc:title>Matplotlib v3.3.1, https://matplotlib.org/</dc:title>
     </cc:Agent>
    </dc:creator>
   </cc:Work>
  </rdf:RDF>
 </metadata>
 <defs>
  <style type="text/css">*{stroke-linecap:butt;stroke-linejoin:round;}</style>
 </defs>
 <g id="figure_1">
  <g id="patch_1">
   <path d="M 0 345.6 
L 460.8 345.6 
L 460.8 0 
L 0 0 
z
" style="fill:#ffffff;"/>
  </g>
  <g id="axes_1">
   <g id="patch_2">
    <path d="M 50.81625 303.985404 
L 445.018665 303.985404 
L 445.018665 14.259249 
L 50.81625 14.259249 
z
" style="fill:#ffffff;"/>
   </g>
   <g id="PolyCollection_1">
    <path clip-path="url(#pa83490950e)" d="M 60.67131 20.717552 
L 60.67131 20.890846 
L 64.514784 21.062323 
L 68.358258 21.334483 
L 72.201731 21.733262 
L 76.045205 22.185877 
L 79.888678 22.698439 
L 83.732152 23.297248 
L 87.575625 23.93973 
L 91.419099 24.679842 
L 95.262572 25.489583 
L 99.106046 26.378413 
L 102.949519 27.368024 
L 106.792993 28.37824 
L 110.636467 29.53241 
L 114.47994 30.669968 
L 118.323414 31.955776 
L 122.166887 33.308995 
L 126.010361 34.743815 
L 129.853834 36.231967 
L 133.697308 37.872976 
L 137.540781 39.490914 
L 141.384255 41.264601 
L 145.227728 43.036082 
L 149.071202 44.9569 
L 152.914675 46.913766 
L 156.758149 49.002392 
L 160.601623 51.165436 
L 164.445096 53.302034 
L 168.28857 55.633861 
L 172.132043 58.078104 
L 175.975517 60.386826 
L 179.81899 62.904574 
L 183.662464 65.517157 
L 187.505937 68.241948 
L 191.349411 70.872652 
L 195.192884 73.765404 
L 199.036358 76.561032 
L 202.879832 79.354456 
L 206.723305 82.437398 
L 210.566779 85.321237 
L 214.410252 88.355773 
L 218.253726 91.325248 
L 222.097199 94.424983 
L 225.940673 97.394005 
L 229.784146 100.327827 
L 233.62762 103.251324 
L 237.471093 106.129063 
L 241.314567 108.981609 
L 245.158041 111.635513 
L 249.001514 114.518003 
L 252.844988 116.972434 
L 256.688461 119.392089 
L 260.531935 122.091627 
L 264.375408 123.926806 
L 268.218882 126.079709 
L 272.062355 127.416538 
L 275.905829 128.965985 
L 279.749302 131.365554 
L 283.592776 133.039013 
L 287.436249 135.170763 
L 291.279723 136.436285 
L 295.123197 137.726428 
L 298.96667 139.705799 
L 302.810144 139.429695 
L 306.653617 138.219642 
L 310.497091 143.197068 
L 314.340564 144.834477 
L 318.184038 145.416738 
L 322.027511 147.37795 
L 325.870985 146.086521 
L 329.714458 152.395247 
L 333.557932 148.951405 
L 337.401406 149.76607 
L 341.244879 155.182733 
L 345.088353 158.155239 
L 348.931826 159.018646 
L 352.7753 154.44389 
L 356.618773 160.700675 
L 360.462247 167.033079 
L 364.30572 172.236195 
L 368.149194 165.444033 
L 371.992667 169.395751 
L 375.836141 179.706676 
L 379.679615 177.696784 
L 383.523088 178.07594 
L 387.366562 186.583074 
L 391.210035 167.872007 
L 395.053509 197.319791 
L 398.896982 200.512201 
L 402.740456 176.316926 
L 406.583929 177.200628 
L 410.427403 168.994145 
L 414.270876 218.810932 
L 418.11435 202.612473 
L 421.957823 206.671939 
L 425.801297 240.990159 
L 429.644771 232.822997 
L 433.488244 229.596863 
L 437.331718 247.13129 
L 441.175191 222.194633 
L 445.018665 193.498609 
L 445.018665 160.239916 
L 445.018665 160.239916 
L 441.175191 158.820055 
L 437.331718 166.824018 
L 433.488244 179.974924 
L 429.644771 171.947643 
L 425.801297 187.971036 
L 421.957823 165.602345 
L 418.11435 161.419301 
L 414.270876 169.1956 
L 410.427403 154.546603 
L 406.583929 166.282469 
L 402.740456 156.012876 
L 398.896982 169.349707 
L 395.053509 174.048821 
L 391.210035 155.911432 
L 387.366562 158.428612 
L 383.523088 161.115524 
L 379.679615 157.580491 
L 375.836141 163.113998 
L 371.992667 155.061496 
L 368.149194 152.026626 
L 364.30572 158.653316 
L 360.462247 153.347596 
L 356.618773 149.512896 
L 352.7753 146.484311 
L 348.931826 147.723304 
L 345.088353 147.847353 
L 341.244879 146.466454 
L 337.401406 143.391561 
L 333.557932 143.07557 
L 329.714458 147.956182 
L 325.870985 140.336892 
L 322.027511 142.793169 
L 318.184038 140.553203 
L 314.340564 140.471368 
L 310.497091 138.60547 
L 306.653617 134.892587 
L 302.810144 135.530828 
L 298.96667 136.349732 
L 295.123197 133.242773 
L 291.279723 133.304829 
L 287.436249 132.327686 
L 283.592776 130.31734 
L 279.749302 128.791465 
L 275.905829 126.905913 
L 272.062355 125.391989 
L 268.218882 124.594842 
L 264.375408 122.361346 
L 260.531935 120.561438 
L 256.688461 118.283914 
L 252.844988 116.048744 
L 249.001514 113.554597 
L 245.158041 110.830527 
L 241.314567 108.295547 
L 237.471093 105.174744 
L 233.62762 102.794393 
L 229.784146 99.689019 
L 225.940673 96.706338 
L 222.097199 93.969733 
L 218.253726 90.848601 
L 214.410252 87.886205 
L 210.566779 84.829592 
L 206.723305 82.033036 
L 202.879832 78.950994 
L 199.036358 76.099412 
L 195.192884 73.386591 
L 191.349411 70.45821 
L 187.505937 67.919008 
L 183.662464 65.215359 
L 179.81899 62.618995 
L 175.975517 60.128029 
L 172.132043 57.763779 
L 168.28857 55.384597 
L 164.445096 53.070715 
L 160.601623 50.999532 
L 156.758149 48.777364 
L 152.914675 46.721775 
L 149.071202 44.743553 
L 145.227728 42.837718 
L 141.384255 41.07813 
L 137.540781 39.287687 
L 133.697308 37.668757 
L 129.853834 36.067084 
L 126.010361 34.570936 
L 122.166887 33.182266 
L 118.323414 31.807071 
L 114.47994 30.554988 
L 110.636467 29.394587 
L 106.792993 28.268017 
L 102.949519 27.235778 
L 99.106046 26.267227 
L 95.262572 25.368924 
L 91.419099 24.565951 
L 87.575625 23.83309 
L 83.732152 23.187478 
L 79.888678 22.584706 
L 76.045205 22.066063 
L 72.201731 21.650473 
L 68.358258 21.240057 
L 64.514784 20.94893 
L 60.67131 20.717552 
z
" style="fill:#0088ff;fill-opacity:0.15;"/>
   </g>
   <g id="PolyCollection_2">
    <path clip-path="url(#pa83490950e)" d="M 60.67131 20.888495 
L 60.67131 20.970539 
L 64.514784 21.311184 
L 68.358258 21.784637 
L 72.201731 22.315008 
L 76.045205 23.031483 
L 79.888678 23.819859 
L 83.732152 24.764967 
L 87.575625 25.825292 
L 91.419099 27.03868 
L 95.262572 28.330867 
L 99.106046 29.803239 
L 102.949519 31.40964 
L 106.792993 33.144754 
L 110.636467 35.05465 
L 114.47994 37.155197 
L 118.323414 39.36965 
L 122.166887 41.752595 
L 126.010361 44.378091 
L 129.853834 47.08084 
L 133.697308 50.138339 
L 137.540781 53.38115 
L 141.384255 56.761399 
L 145.227728 60.551228 
L 149.071202 64.389372 
L 152.914675 68.658629 
L 156.758149 73.320409 
L 160.601623 78.408272 
L 164.445096 83.789141 
L 168.28857 89.352446 
L 172.132043 95.605449 
L 175.975517 102.853134 
L 179.81899 110.410901 
L 183.662464 119.165311 
L 187.505937 129.000423 
L 191.349411 139.811576 
L 195.192884 152.211847 
L 199.036358 167.460249 
L 202.879832 188.012437 
L 206.723305 211.596845 
L 210.566779 235.12425 
L 214.410252 244.971071 
L 218.253726 234.744752 
L 222.097199 209.340836 
L 225.940673 192.196449 
L 229.784146 181.03059 
L 233.62762 170.439407 
L 237.471093 160.042933 
L 241.314567 154.637376 
L 245.158041 149.735207 
L 249.001514 145.317839 
L 252.844988 142.274657 
L 256.688461 139.166737 
L 260.531935 137.366888 
L 264.375408 137.075162 
L 268.218882 136.436551 
L 272.062355 136.290991 
L 275.905829 133.839491 
L 279.749302 137.190955 
L 283.592776 138.732222 
L 287.436249 138.708268 
L 291.279723 142.246898 
L 295.123197 144.753165 
L 298.96667 147.618382 
L 302.810144 150.481159 
L 306.653617 156.422807 
L 310.497091 159.272967 
L 314.340564 158.481211 
L 318.184038 172.873809 
L 322.027511 181.507966 
L 325.870985 179.808176 
L 329.714458 191.28075 
L 333.557932 192.997119 
L 337.401406 214.594009 
L 341.244879 208.840252 
L 345.088353 211.079288 
L 348.931826 242.144922 
L 352.7753 196.772755 
L 356.618773 217.749362 
L 360.462247 244.585625 
L 364.30572 199.104681 
L 368.149194 192.596322 
L 371.992667 192.193068 
L 375.836141 201.242539 
L 379.679615 190.232104 
L 383.523088 173.814494 
L 387.366562 183.742296 
L 391.210035 157.597044 
L 395.053509 177.86178 
L 398.896982 161.883366 
L 402.740456 177.063859 
L 406.583929 168.008044 
L 410.427403 160.205991 
L 414.270876 167.489298 
L 418.11435 181.273067 
L 421.957823 175.092162 
L 425.801297 164.603487 
L 429.644771 153.97029 
L 433.488244 150.10399 
L 437.331718 168.212877 
L 441.175191 161.93511 
L 445.018665 153.728884 
L 445.018665 142.531729 
L 445.018665 142.531729 
L 441.175191 148.03682 
L 437.331718 148.227337 
L 433.488244 142.4573 
L 429.644771 138.047857 
L 425.801297 148.65841 
L 421.957823 149.921045 
L 418.11435 168.306626 
L 414.270876 151.875961 
L 410.427403 145.805965 
L 406.583929 146.736669 
L 402.740456 153.372035 
L 398.896982 149.132029 
L 395.053509 153.130694 
L 391.210035 145.470407 
L 387.366562 162.797309 
L 383.523088 160.563031 
L 379.679615 167.558158 
L 375.836141 175.702913 
L 371.992667 172.831048 
L 368.149194 170.370436 
L 364.30572 170.752817 
L 360.462247 193.513423 
L 356.618773 174.394847 
L 352.7753 183.112219 
L 348.931826 199.70454 
L 345.088353 179.634989 
L 341.244879 180.997212 
L 337.401406 188.430934 
L 333.557932 174.530533 
L 329.714458 169.385485 
L 325.870985 168.50956 
L 322.027511 171.912091 
L 318.184038 156.780917 
L 314.340564 146.091834 
L 310.497091 150.13658 
L 306.653617 150.879323 
L 302.810144 145.095443 
L 298.96667 143.25807 
L 295.123197 138.884496 
L 291.279723 138.568824 
L 287.436249 135.743034 
L 283.592776 134.686112 
L 279.749302 133.160845 
L 275.905829 131.329509 
L 272.062355 134.037241 
L 268.218882 133.985486 
L 264.375408 134.615254 
L 260.531935 134.355152 
L 256.688461 137.398233 
L 252.844988 139.911342 
L 249.001514 143.443371 
L 245.158041 147.539176 
L 241.314567 152.00999 
L 237.471093 157.79209 
L 233.62762 166.866237 
L 229.784146 176.711535 
L 225.940673 186.444638 
L 222.097199 202.220747 
L 218.253726 223.824228 
L 214.410252 231.72342 
L 210.566779 224.051706 
L 206.723305 204.806563 
L 202.879832 183.608241 
L 199.036358 164.46049 
L 195.192884 150.252711 
L 191.349411 138.372811 
L 187.505937 127.42287 
L 183.662464 118.29492 
L 179.81899 109.607528 
L 175.975517 102.155201 
L 172.132043 95.011384 
L 168.28857 88.891712 
L 164.445096 83.210424 
L 160.601623 77.951489 
L 156.758149 72.952466 
L 152.914675 68.336584 
L 149.071202 64.18179 
L 145.227728 60.2582 
L 141.384255 56.530585 
L 137.540781 53.114353 
L 133.697308 49.850579 
L 129.853834 46.911384 
L 126.010361 44.163991 
L 122.166887 41.592924 
L 118.323414 39.166345 
L 114.47994 36.945237 
L 110.636467 34.881189 
L 106.792993 32.99051 
L 102.949519 31.265075 
L 99.106046 29.65211 
L 95.262572 28.207259 
L 91.419099 26.863048 
L 87.575625 25.709158 
L 83.732152 24.643869 
L 79.888678 23.677381 
L 76.045205 22.897469 
L 72.201731 22.212368 
L 68.358258 21.681932 
L 64.514784 21.180757 
L 60.67131 20.888495 
z
" style="fill:#dd5500;fill-opacity:0.15;"/>
   </g>
   <g id="matplotlib.axis_1">
    <g id="xtick_1">
     <g id="line2d_1">
      <path clip-path="url(#pa83490950e)" d="M 50.81625 303.985404 
L 50.81625 14.259249 
" style="fill:none;stroke:#dddddd;stroke-linecap:square;stroke-width:0.5;"/>
     </g>
     <g id="line2d_2">
      <defs>
       <path d="M 0 0 
L 0 3.5 
" id="mfd7b86e543" style="stroke:#000000;stroke-width:0.8;"/>
      </defs>
      <g>
       <use style="stroke:#000000;stroke-width:0.8;" x="50.81625" xlink:href="#mfd7b86e543" y="303.985404"/>
      </g>
     </g>
     <g id="text_1">
      <!-- $\mathdefault{0}$ -->
      <g transform="translate(48.325582 317.903902)scale(0.1 -0.1)">
       <defs>
        <path d="M 42 31.84375 
C 42 37.96875 41.90625 48.421875 37.703125 56.453125 
C 34 63.484375 28.09375 66 22.90625 66 
C 18.09375 66 12 63.78125 8.203125 56.5625 
C 4.203125 49.015625 3.796875 39.671875 3.796875 31.84375 
C 3.796875 26.109375 3.90625 17.375 7 9.734375 
C 11.296875 -0.609375 19 -2 22.90625 -2 
C 27.5 -2 34.5 -0.109375 38.59375 9.4375 
C 41.59375 16.375 42 24.5 42 31.84375 
z
M 22.90625 -0.40625 
C 16.5 -0.40625 12.703125 5.125 11.296875 12.75 
C 10.203125 18.6875 10.203125 27.328125 10.203125 32.953125 
C 10.203125 40.6875 10.203125 47.109375 11.5 53.234375 
C 13.40625 61.78125 19 64.390625 22.90625 64.390625 
C 27 64.390625 32.296875 61.671875 34.203125 53.4375 
C 35.5 47.71875 35.59375 40.984375 35.59375 32.953125 
C 35.59375 26.421875 35.59375 18.375 34.40625 12.453125 
C 32.296875 1.5 26.40625 -0.40625 22.90625 -0.40625 
z
" id="CMR17-48"/>
       </defs>
       <use transform="scale(0.996264)" xlink:href="#CMR17-48"/>
      </g>
     </g>
    </g>
    <g id="xtick_2">
     <g id="line2d_3">
      <path clip-path="url(#pa83490950e)" d="M 100.091552 303.985404 
L 100.091552 14.259249 
" style="fill:none;stroke:#dddddd;stroke-linecap:square;stroke-width:0.5;"/>
     </g>
     <g id="line2d_4">
      <g>
       <use style="stroke:#000000;stroke-width:0.8;" x="100.091552" xlink:href="#mfd7b86e543" y="303.985404"/>
      </g>
     </g>
     <g id="text_2">
      <!-- $\mathdefault{5}$ -->
      <g transform="translate(97.600884 317.903902)scale(0.1 -0.1)">
       <defs>
        <path d="M 11.40625 58.59375 
C 12.40625 58.1875 16.5 56.890625 20.703125 56.890625 
C 30 56.890625 35.09375 61.890625 38 64.6875 
C 38 65.484375 38 66 37.40625 66 
C 37.296875 66 37.09375 66 36.296875 65.59375 
C 32.796875 64.09375 28.703125 63 23.703125 63 
C 20.703125 63 16.203125 63.359375 11.296875 65.484375 
C 10.203125 66 10 66 9.90625 66 
C 9.40625 66 9.296875 65.890625 9.296875 63.90625 
L 9.296875 34.859375 
C 9.296875 33.015625 9.296875 32.5 10.296875 32.5 
C 10.796875 32.5 11 32.703125 11.5 33.421875 
C 14.703125 38.046875 19.09375 40 24.09375 40 
C 27.59375 40 35.09375 37.734375 35.09375 20.203125 
C 35.09375 16.984375 35.09375 11.1875 32.09375 6.59375 
C 29.59375 2.484375 25.703125 0.390625 21.40625 0.390625 
C 14.796875 0.390625 8.09375 4.984375 6.296875 12.6875 
C 6.703125 12.59375 7.5 12.390625 7.90625 12.390625 
C 9.203125 12.390625 11.703125 13.09375 11.703125 16.1875 
C 11.703125 18.890625 9.796875 20 7.90625 20 
C 5.59375 20 4.09375 18.59375 4.09375 15.796875 
C 4.09375 7.09375 11 -2 21.59375 -2 
C 31.90625 -2 41.703125 6.890625 41.703125 19.796875 
C 41.703125 32.09375 33.90625 41.59375 24.203125 41.59375 
C 19.09375 41.59375 14.796875 39.6875 11.40625 36 
z
" id="CMR17-53"/>
       </defs>
       <use transform="scale(0.996264)" xlink:href="#CMR17-53"/>
      </g>
     </g>
    </g>
    <g id="xtick_3">
     <g id="line2d_5">
      <path clip-path="url(#pa83490950e)" d="M 149.366854 303.985404 
L 149.366854 14.259249 
" style="fill:none;stroke:#dddddd;stroke-linecap:square;stroke-width:0.5;"/>
     </g>
     <g id="line2d_6">
      <g>
       <use style="stroke:#000000;stroke-width:0.8;" x="149.366854" xlink:href="#mfd7b86e543" y="303.985404"/>
      </g>
     </g>
     <g id="text_3">
      <!-- $\mathdefault{10}$ -->
      <g transform="translate(144.385519 317.903902)scale(0.1 -0.1)">
       <defs>
        <path d="M 26.59375 63.796875 
C 26.59375 65.890625 26.5 66 25.09375 66 
C 21.203125 61.359375 15.296875 59.890625 9.703125 59.6875 
C 9.40625 59.6875 8.90625 59.6875 8.796875 59.5 
C 8.703125 59.296875 8.703125 59.09375 8.703125 57 
C 11.796875 57 17 57.59375 21 59.984375 
L 21 7.296875 
C 21 3.796875 20.796875 2.59375 12.203125 2.59375 
L 9.203125 2.59375 
L 9.203125 0 
C 14 0.09375 19 0.1875 23.796875 0.1875 
C 28.59375 0.1875 33.59375 0.09375 38.40625 0 
L 38.40625 2.59375 
L 35.40625 2.59375 
C 26.796875 2.59375 26.59375 3.6875 26.59375 7.296875 
z
" id="CMR17-49"/>
       </defs>
       <use transform="scale(0.996264)" xlink:href="#CMR17-49"/>
       <use transform="translate(45.690477 0)scale(0.996264)" xlink:href="#CMR17-48"/>
      </g>
     </g>
    </g>
    <g id="xtick_4">
     <g id="line2d_7">
      <path clip-path="url(#pa83490950e)" d="M 198.642156 303.985404 
L 198.642156 14.259249 
" style="fill:none;stroke:#dddddd;stroke-linecap:square;stroke-width:0.5;"/>
     </g>
     <g id="line2d_8">
      <g>
       <use style="stroke:#000000;stroke-width:0.8;" x="198.642156" xlink:href="#mfd7b86e543" y="303.985404"/>
      </g>
     </g>
     <g id="text_4">
      <!-- $\mathdefault{15}$ -->
      <g transform="translate(193.66082 317.903902)scale(0.1 -0.1)">
       <use transform="scale(0.996264)" xlink:href="#CMR17-49"/>
       <use transform="translate(45.690477 0)scale(0.996264)" xlink:href="#CMR17-53"/>
      </g>
     </g>
    </g>
    <g id="xtick_5">
     <g id="line2d_9">
      <path clip-path="url(#pa83490950e)" d="M 247.917457 303.985404 
L 247.917457 14.259249 
" style="fill:none;stroke:#dddddd;stroke-linecap:square;stroke-width:0.5;"/>
     </g>
     <g id="line2d_10">
      <g>
       <use style="stroke:#000000;stroke-width:0.8;" x="247.917457" xlink:href="#mfd7b86e543" y="303.985404"/>
      </g>
     </g>
     <g id="text_5">
      <!-- $\mathdefault{20}$ -->
      <g transform="translate(242.936122 317.903902)scale(0.1 -0.1)">
       <defs>
        <path d="M 41.703125 15.46875 
L 39.90625 15.46875 
C 38.90625 8.390625 38.09375 7.1875 37.703125 6.59375 
C 37.203125 5.796875 30 5.796875 28.59375 5.796875 
L 9.40625 5.796875 
C 13 9.6875 20 16.765625 28.5 24.9375 
C 34.59375 30.71875 41.703125 37.5 41.703125 47.390625 
C 41.703125 59.1875 32.296875 66 21.796875 66 
C 10.796875 66 4.09375 56.296875 4.09375 47.296875 
C 4.09375 43.390625 7 42.890625 8.203125 42.890625 
C 9.203125 42.890625 12.203125 43.484375 12.203125 46.984375 
C 12.203125 50.09375 9.59375 51 8.203125 51 
C 7.59375 51 7 50.890625 6.59375 50.6875 
C 8.5 59.1875 14.296875 63.390625 20.40625 63.390625 
C 29.09375 63.390625 34.796875 56.5 34.796875 47.390625 
C 34.796875 38.703125 29.703125 31.21875 24 24.734375 
L 4.09375 2.296875 
L 4.09375 0 
L 39.296875 0 
z
" id="CMR17-50"/>
       </defs>
       <use transform="scale(0.996264)" xlink:href="#CMR17-50"/>
       <use transform="translate(45.690477 0)scale(0.996264)" xlink:href="#CMR17-48"/>
      </g>
     </g>
    </g>
    <g id="xtick_6">
     <g id="line2d_11">
      <path clip-path="url(#pa83490950e)" d="M 297.192759 303.985404 
L 297.192759 14.259249 
" style="fill:none;stroke:#dddddd;stroke-linecap:square;stroke-width:0.5;"/>
     </g>
     <g id="line2d_12">
      <g>
       <use style="stroke:#000000;stroke-width:0.8;" x="297.192759" xlink:href="#mfd7b86e543" y="303.985404"/>
      </g>
     </g>
     <g id="text_6">
      <!-- $\mathdefault{25}$ -->
      <g transform="translate(292.211424 317.903902)scale(0.1 -0.1)">
       <use transform="scale(0.996264)" xlink:href="#CMR17-50"/>
       <use transform="translate(45.690477 0)scale(0.996264)" xlink:href="#CMR17-53"/>
      </g>
     </g>
    </g>
    <g id="xtick_7">
     <g id="line2d_13">
      <path clip-path="url(#pa83490950e)" d="M 346.468061 303.985404 
L 346.468061 14.259249 
" style="fill:none;stroke:#dddddd;stroke-linecap:square;stroke-width:0.5;"/>
     </g>
     <g id="line2d_14">
      <g>
       <use style="stroke:#000000;stroke-width:0.8;" x="346.468061" xlink:href="#mfd7b86e543" y="303.985404"/>
      </g>
     </g>
     <g id="text_7">
      <!-- $\mathdefault{30}$ -->
      <g transform="translate(341.486726 317.903902)scale(0.1 -0.1)">
       <defs>
        <path d="M 22.09375 34 
C 31 34 34.90625 26.140625 34.90625 17.09375 
C 34.90625 5.03125 28.5 0.390625 22.703125 0.390625 
C 17.40625 0.390625 8.796875 3.015625 6.09375 10.796875 
C 6.59375 10.59375 7.09375 10.59375 7.59375 10.59375 
C 10 10.59375 11.796875 12.1875 11.796875 14.796875 
C 11.796875 17.6875 9.59375 19 7.59375 19 
C 5.90625 19 3.296875 18.1875 3.296875 14.484375 
C 3.296875 5.234375 12.296875 -2 22.90625 -2 
C 34 -2 42.5 6.75 42.5 16.984375 
C 42.5 26.84375 34.5 34 25 35.09375 
C 32.59375 36.671875 39.90625 43.375 39.90625 52.390625 
C 39.90625 60.25 32 66 23 66 
C 13.90625 66 5.90625 60.34375 5.90625 52.296875 
C 5.90625 48.796875 8.5 48.1875 9.796875 48.1875 
C 11.90625 48.1875 13.703125 49.484375 13.703125 52.09375 
C 13.703125 54.6875 11.90625 56 9.796875 56 
C 9.40625 56 8.90625 56 8.5 55.796875 
C 11.40625 62.484375 19.296875 63.6875 22.796875 63.6875 
C 26.296875 63.6875 32.90625 61.96875 32.90625 52.296875 
C 32.90625 49.484375 32.5 44.546875 29.09375 40.21875 
C 26.09375 36.390625 22.703125 36.1875 19.40625 35.890625 
C 18.90625 35.890625 16.59375 35.6875 16.203125 35.6875 
C 15.5 35.59375 15.09375 35.5 15.09375 34.796875 
C 15.09375 34.09375 15.203125 34 17.203125 34 
z
" id="CMR17-51"/>
       </defs>
       <use transform="scale(0.996264)" xlink:href="#CMR17-51"/>
       <use transform="translate(45.690477 0)scale(0.996264)" xlink:href="#CMR17-48"/>
      </g>
     </g>
    </g>
    <g id="xtick_8">
     <g id="line2d_15">
      <path clip-path="url(#pa83490950e)" d="M 395.743363 303.985404 
L 395.743363 14.259249 
" style="fill:none;stroke:#dddddd;stroke-linecap:square;stroke-width:0.5;"/>
     </g>
     <g id="line2d_16">
      <g>
       <use style="stroke:#000000;stroke-width:0.8;" x="395.743363" xlink:href="#mfd7b86e543" y="303.985404"/>
      </g>
     </g>
     <g id="text_8">
      <!-- $\mathdefault{35}$ -->
      <g transform="translate(390.762028 317.903902)scale(0.1 -0.1)">
       <use transform="scale(0.996264)" xlink:href="#CMR17-51"/>
       <use transform="translate(45.690477 0)scale(0.996264)" xlink:href="#CMR17-53"/>
      </g>
     </g>
    </g>
    <g id="xtick_9">
     <g id="line2d_17">
      <path clip-path="url(#pa83490950e)" d="M 445.018665 303.985404 
L 445.018665 14.259249 
" style="fill:none;stroke:#dddddd;stroke-linecap:square;stroke-width:0.5;"/>
     </g>
     <g id="line2d_18">
      <g>
       <use style="stroke:#000000;stroke-width:0.8;" x="445.018665" xlink:href="#mfd7b86e543" y="303.985404"/>
      </g>
     </g>
     <g id="text_9">
      <!-- $\mathdefault{40}$ -->
      <g transform="translate(440.037329 317.903902)scale(0.1 -0.1)">
       <defs>
        <path d="M 33.59375 64.796875 
C 33.59375 66.890625 33.5 67 31.703125 67 
L 2 19.59375 
L 2 17 
L 27.796875 17 
L 27.796875 7.1875 
C 27.796875 3.59375 27.59375 2.59375 20.59375 2.59375 
L 18.703125 2.59375 
L 18.703125 0 
C 21.90625 0.1875 27.296875 0.1875 30.703125 0.1875 
C 34.09375 0.1875 39.5 0.1875 42.703125 0 
L 42.703125 2.59375 
L 40.796875 2.59375 
C 33.796875 2.59375 33.59375 3.59375 33.59375 7.1875 
L 33.59375 17 
L 43.796875 17 
L 43.796875 19.59375 
L 33.59375 19.59375 
z
M 28.09375 58.171875 
L 28.09375 19.59375 
L 4 19.59375 
z
" id="CMR17-52"/>
       </defs>
       <use transform="scale(0.996264)" xlink:href="#CMR17-52"/>
       <use transform="translate(45.690477 0)scale(0.996264)" xlink:href="#CMR17-48"/>
      </g>
     </g>
    </g>
    <g id="text_10">
     <!-- final time $t_\textrm{f}$ (ns) -->
     <g transform="translate(211.664444 331.313061)scale(0.1 -0.1)">
      <defs>
       <path d="M 39.90625 44 
C 37.5 43.890625 30.09375 43.390625 28.203125 43.1875 
C 27.59375 43.09375 27.40625 43.09375 26.203125 43.09375 
L 14.796875 43.09375 
L 14.796875 54.953125 
C 14.796875 64.484375 22.40625 69 28.40625 69 
C 30.296875 69 34.59375 68.484375 36.796875 65 
C 35.796875 65 32.59375 65 32.59375 61.484375 
C 32.59375 59.09375 34.203125 57.890625 36.203125 57.890625 
C 38 57.890625 39.796875 58.890625 39.796875 61.59375 
C 39.796875 66.640625 35 70.59375 28.796875 70.59375 
C 20.90625 70.59375 9.90625 66.015625 9.90625 54.953125 
L 9.90625 43.09375 
L 1.90625 43.09375 
L 1.90625 40.484375 
L 9.90625 40.484375 
L 9.90625 6.90625 
C 9.90625 3.09375 9.5 2.59375 3.09375 2.59375 
L 3.09375 0 
C 5.5 0.1875 9.90625 0.1875 12.40625 0.1875 
C 15 0.1875 19.40625 0.1875 21.796875 0 
L 21.796875 2.59375 
C 15.40625 2.59375 15 3 15 6.90625 
L 15 40.484375 
L 29.703125 40.484375 
C 34 40.484375 34.796875 39.59375 34.796875 35.171875 
L 34.796875 6.90625 
C 34.796875 3.09375 34.40625 2.59375 28 2.59375 
L 28 0 
C 30.40625 0.1875 34.796875 0.1875 37.296875 0.1875 
C 39.90625 0.1875 44.296875 0.1875 46.703125 0 
L 46.703125 2.59375 
C 40.296875 2.59375 39.90625 3 39.90625 6.90625 
z
" id="CMR17-12"/>
       <path d="M 41.5 30.53125 
C 41.5 35.65625 40.5 44 28.703125 44 
C 20.796875 44 16.703125 37.875 15.203125 33.84375 
L 15.09375 33.84375 
L 15.09375 44 
L 3.296875 42.890625 
L 3.296875 40.28125 
C 9.203125 40.28125 10.09375 39.6875 10.09375 34.859375 
L 10.09375 6.921875 
C 10.09375 3.09375 9.703125 2.59375 3.296875 2.59375 
L 3.296875 0 
C 5.703125 0.1875 10.09375 0.1875 12.703125 0.1875 
C 15.296875 0.1875 19.796875 0.1875 22.203125 0 
L 22.203125 2.59375 
C 15.796875 2.59375 15.40625 3 15.40625 6.921875 
L 15.40625 26.21875 
C 15.40625 35.453125 21 42.390625 28 42.390625 
C 35.40625 42.390625 36.203125 35.765625 36.203125 30.9375 
L 36.203125 6.921875 
C 36.203125 3.09375 35.796875 2.59375 29.40625 2.59375 
L 29.40625 0 
C 31.796875 0.1875 36.203125 0.1875 38.796875 0.1875 
C 41.40625 0.1875 45.90625 0.1875 48.296875 0 
L 48.296875 2.59375 
C 41.90625 2.59375 41.5 3 41.5 6.921875 
z
" id="CMR17-110"/>
       <path d="M 36 25.875 
C 36 32 36 35.546875 31.796875 39.59375 
C 28.09375 42.984375 23.796875 44 20.40625 44 
C 12.5 44 6.796875 37.625 6.796875 30.890625 
C 6.796875 27.1875 9.796875 27 10.40625 27 
C 11.703125 27 14 27.796875 14 30.59375 
C 14 33.09375 12.09375 34.1875 10.40625 34.1875 
C 10 34.1875 9.5 34.09375 9.203125 34 
C 11.296875 40.53125 16.703125 42.390625 20.203125 42.390625 
C 25.203125 42.390625 30.703125 37.828125 30.703125 29.296875 
L 30.703125 25.5 
C 24.796875 25.296875 17.703125 24.5 12.09375 21.453125 
C 5.796875 17.921875 4 12.84375 4 9 
C 4 1.203125 13 -1 18.296875 -1 
C 23.796875 -1 28.90625 2.109375 31.09375 7.890625 
C 31.296875 3.421875 34.09375 -0.609375 38.5 -0.609375 
C 40.59375 -0.609375 45.90625 0.796875 45.90625 8.796875 
L 45.90625 14.46875 
L 44.09375 14.46875 
L 44.09375 8.703125 
C 44.09375 2.515625 41.40625 1.703125 40.09375 1.703125 
C 36 1.703125 36 6.96875 36 11.4375 
z
M 30.703125 13.859375 
C 30.703125 5.046875 24.5 0.59375 19 0.59375 
C 14 0.59375 10.09375 4.34375 10.09375 9 
C 10.09375 12.046875 11.40625 17.40625 17.203125 20.65625 
C 22 23.390625 27.5 23.796875 30.703125 24 
z
" id="CMR17-97"/>
       <path d="M 15.296875 69 
L 3.40625 67.890625 
L 3.40625 65.296875 
C 9.296875 65.296875 10.203125 64.703125 10.203125 59.921875 
L 10.203125 6.859375 
C 10.203125 3.09375 9.796875 2.59375 3.40625 2.59375 
L 3.40625 0 
C 5.796875 0.1875 10.203125 0.1875 12.703125 0.1875 
C 15.296875 0.1875 19.703125 0.1875 22.09375 0 
L 22.09375 2.59375 
C 15.703125 2.59375 15.296875 2.984375 15.296875 6.859375 
z
" id="CMR17-108"/>
       <path d="M 15.09375 40.390625 
L 29.09375 40.390625 
L 29.09375 43 
L 15.09375 43 
L 15.09375 62 
L 13.296875 62 
C 13.09375 51.4375 9.59375 42.1875 1.09375 41.984375 
L 1.09375 40.390625 
L 9.796875 40.390625 
L 9.796875 12.15625 
C 9.796875 10.234375 9.796875 -1 21.40625 -1 
C 27.296875 -1 30.703125 4.8125 30.703125 12.25 
L 30.703125 17.984375 
L 28.90625 17.984375 
L 28.90625 12.34375 
C 28.90625 5.421875 26.203125 0.796875 22 0.796875 
C 19.09375 0.796875 15.09375 2.796875 15.09375 11.953125 
z
" id="CMR17-116"/>
       <path d="M 15.5 61.890625 
C 15.5 64.09375 13.703125 66 11.40625 66 
C 9.203125 66 7.296875 64.1875 7.296875 61.890625 
C 7.296875 59.6875 9.09375 57.796875 11.40625 57.796875 
C 13.59375 57.796875 15.5 59.59375 15.5 61.890625 
z
M 3.796875 42.890625 
L 3.796875 40.296875 
C 9.40625 40.296875 10.203125 39.6875 10.203125 34.859375 
L 10.203125 6.921875 
C 10.203125 3.09375 9.796875 2.59375 3.40625 2.59375 
L 3.40625 0 
C 5.796875 0.1875 10.09375 0.1875 12.59375 0.1875 
C 15 0.1875 19.09375 0.1875 21.40625 0 
L 21.40625 2.59375 
C 15.5 2.59375 15.296875 3.203125 15.296875 6.8125 
L 15.296875 44 
z
" id="CMR17-105"/>
       <path d="M 67.59375 30.53125 
C 67.59375 35.5625 66.703125 44 54.796875 44 
C 48 44 43.296875 39.375 41.5 33.953125 
L 41.40625 33.953125 
C 40.203125 42.1875 34.296875 44 28.703125 44 
C 20.796875 44 16.703125 37.875 15.203125 33.84375 
L 15.09375 33.84375 
L 15.09375 44 
L 3.296875 42.890625 
L 3.296875 40.28125 
C 9.203125 40.28125 10.09375 39.6875 10.09375 34.859375 
L 10.09375 6.921875 
C 10.09375 3.09375 9.703125 2.59375 3.296875 2.59375 
L 3.296875 0 
C 5.703125 0.1875 10.09375 0.1875 12.703125 0.1875 
C 15.296875 0.1875 19.796875 0.1875 22.203125 0 
L 22.203125 2.59375 
C 15.796875 2.59375 15.40625 3 15.40625 6.921875 
L 15.40625 26.21875 
C 15.40625 35.453125 21 42.390625 28 42.390625 
C 35.40625 42.390625 36.203125 35.765625 36.203125 30.9375 
L 36.203125 6.921875 
C 36.203125 3.09375 35.796875 2.59375 29.40625 2.59375 
L 29.40625 0 
C 31.796875 0.1875 36.203125 0.1875 38.796875 0.1875 
C 41.40625 0.1875 45.90625 0.1875 48.296875 0 
L 48.296875 2.59375 
C 41.90625 2.59375 41.5 3 41.5 6.921875 
L 41.5 26.21875 
C 41.5 35.453125 47.09375 42.390625 54.09375 42.390625 
C 61.5 42.390625 62.296875 35.765625 62.296875 30.9375 
L 62.296875 6.921875 
C 62.296875 3.09375 61.90625 2.59375 55.5 2.59375 
L 55.5 0 
C 57.90625 0.1875 62.296875 0.1875 64.90625 0.1875 
C 67.5 0.1875 72 0.1875 74.40625 0 
L 74.40625 2.59375 
C 68 2.59375 67.59375 3 67.59375 6.921875 
z
" id="CMR17-109"/>
       <path d="M 38.09375 23.484375 
C 38.5 23.890625 38.5 24.09375 38.5 25.09375 
C 38.5 35.171875 33.09375 44 21.703125 44 
C 11.09375 44 2.703125 33.984375 2.703125 21.78125 
C 2.703125 8.65625 12.203125 -1 22.796875 -1 
C 34 -1 38.40625 9.671875 38.40625 11.796875 
C 38.40625 12.5 37.796875 12.5 37.59375 12.5 
C 36.90625 12.5 36.796875 12.296875 36.40625 11.078125 
C 34.203125 4.21875 28.703125 0.796875 23.5 0.796875 
C 19.203125 0.796875 14.90625 3.21875 12.203125 7.65625 
C 9.09375 12.796875 9.09375 18.75 9.09375 23.484375 
z
M 9.203125 25 
C 9.90625 39.234375 17.59375 42.390625 21.59375 42.390625 
C 28.40625 42.390625 33 36.0625 33.09375 25 
z
" id="CMR17-101"/>
       <path d="M 20.09375 40.09375 
L 29.296875 40.09375 
C 31.203125 40.09375 32.203125 40.09375 32.203125 41.890625 
C 32.203125 43 31.59375 43 29.59375 43 
L 20.796875 43 
L 24.5 57.25 
C 24.90625 58.625 24.90625 58.8125 24.90625 59.5 
C 24.90625 61.09375 23.59375 62 22.296875 62 
C 21.5 62 19.203125 61.6875 18.40625 58.53125 
L 14.5 43 
L 5.09375 43 
C 3.09375 43 2.203125 43 2.203125 41.09375 
C 2.203125 40.09375 2.90625 40.09375 4.796875 40.09375 
L 13.703125 40.09375 
L 7.09375 13.765625 
C 6.296875 10.265625 6 9.265625 6 7.96875 
C 6 3.28125 9.296875 -1 14.90625 -1 
C 25 -1 30.40625 13.5625 30.40625 14.265625 
C 30.40625 14.859375 30 15.15625 29.40625 15.15625 
C 29.203125 15.15625 28.796875 15.15625 28.59375 14.75 
C 28.5 14.65625 28.40625 14.5625 27.703125 12.96875 
C 25.59375 7.96875 21 1 15.203125 1 
C 12.203125 1 12 3.484375 12 5.6875 
C 12 5.78125 12 7.671875 12.296875 8.875 
z
" id="CMMI12-116"/>
       <path d="M 15.296875 40.390625 
L 26.703125 40.390625 
L 26.703125 43 
L 15.09375 43 
L 15.09375 55.296875 
C 15.09375 63.6875 19.296875 68.390625 23.59375 68.390625 
C 24.90625 68.390625 26.40625 68.171875 27.40625 67.796875 
C 26.59375 67.59375 24.5 66.890625 24.5 64.390625 
C 24.5 61.796875 26.5 61 27.90625 61 
C 29.296875 61 31.296875 61.796875 31.296875 64.390625 
C 31.296875 68.015625 27.703125 70 23.703125 70 
C 18 70 10.203125 65.796875 10.203125 55.09375 
L 10.203125 43 
L 2.203125 43 
L 2.203125 40.390625 
L 10.203125 40.390625 
L 10.203125 6.890625 
C 10.203125 3.09375 9.796875 2.59375 3.40625 2.59375 
L 3.40625 0 
C 5.796875 0.1875 10.40625 0.1875 13 0.1875 
C 15.90625 0.1875 21 0.1875 23.703125 0 
L 23.703125 2.59375 
C 16.5 2.59375 15.296875 2.59375 15.296875 7.09375 
z
" id="CMR17-102"/>
       <path d="M 30.59375 -24.40625 
C 30.59375 -24.3125 30.59375 -24.109375 30.296875 -23.8125 
C 25.703125 -19.109375 13.40625 -6.296875 13.40625 24.9375 
C 13.40625 56.171875 25.5 68.875 30.40625 73.890625 
C 30.40625 73.984375 30.59375 74.1875 30.59375 74.484375 
C 30.59375 74.796875 30.296875 75 29.90625 75 
C 28.796875 75 20.296875 67.578125 15.40625 56.5625 
C 10.40625 45.453125 9 34.65625 9 25.046875 
C 9 17.828125 9.703125 5.625 15.703125 -7.296875 
C 20.5 -17.703125 28.703125 -25 29.90625 -25 
C 30.40625 -25 30.59375 -24.8125 30.59375 -24.40625 
z
" id="CMR17-40"/>
       <path d="M 30.90625 42 
C 30.90625 43.796875 30.796875 43.890625 30.203125 43.890625 
C 29.796875 43.890625 29.703125 43.796875 28.5 42.296875 
C 28.203125 41.890625 27.296875 40.890625 27 40.5 
C 23.796875 43.890625 19.296875 44 17.59375 44 
C 6.5 44 2.5 38.1875 2.5 32.390625 
C 2.5 23.390625 12.703125 21.296875 15.59375 20.6875 
C 21.90625 19.390625 24.09375 19 26.203125 17.1875 
C 27.5 16 29.703125 13.796875 29.703125 10.1875 
C 29.703125 6 27.296875 0.59375 18.09375 0.59375 
C 9.40625 0.59375 6.296875 7.1875 4.5 16 
C 4.203125 17.390625 4.203125 17.5 3.40625 17.5 
C 2.59375 17.5 2.5 17.390625 2.5 15.390625 
L 2.5 1 
C 2.5 -0.8125 2.59375 -0.90625 3.203125 -0.90625 
C 3.703125 -0.90625 3.796875 -0.8125 4.296875 0 
C 4.90625 0.890625 6.40625 3.296875 7 4.296875 
C 9 1.59375 12.5 -1 18.09375 -1 
C 28 -1 33.296875 4.390625 33.296875 12.1875 
C 33.296875 17.296875 30.59375 20 29.296875 21.1875 
C 26.296875 24.296875 22.796875 25 18.59375 25.796875 
C 13.09375 27 6.09375 28.390625 6.09375 34.5 
C 6.09375 37.09375 7.5 42.59375 17.59375 42.59375 
C 28.296875 42.59375 28.90625 32.59375 29.09375 29.390625 
C 29.203125 28.890625 29.703125 28.796875 30 28.796875 
C 30.90625 28.796875 30.90625 29.09375 30.90625 30.796875 
z
" id="CMR17-115"/>
       <path d="M 26.296875 24.9375 
C 26.296875 32.140625 25.59375 44.359375 19.59375 57.265625 
C 14.796875 67.6875 6.59375 75 5.40625 75 
C 5.09375 75 4.703125 74.890625 4.703125 74.390625 
C 4.703125 74.1875 4.796875 74.09375 4.90625 73.890625 
C 9.703125 68.875 21.90625 56.171875 21.90625 25.046875 
C 21.90625 -6.1875 9.796875 -18.90625 4.90625 -23.90625 
C 4.796875 -24.109375 4.703125 -24.203125 4.703125 -24.40625 
C 4.703125 -24.90625 5.09375 -25 5.40625 -25 
C 6.5 -25 15 -17.609375 19.90625 -6.59375 
C 24.90625 4.515625 26.296875 15.328125 26.296875 24.9375 
z
" id="CMR17-41"/>
      </defs>
      <use transform="scale(0.996264)" xlink:href="#CMR17-12"/>
      <use transform="translate(49.742223 0)scale(0.996264)" xlink:href="#CMR17-110"/>
      <use transform="translate(100.637593 0)scale(0.996264)" xlink:href="#CMR17-97"/>
      <use transform="translate(146.32807 0)scale(0.996264)" xlink:href="#CMR17-108"/>
      <use transform="translate(201.275095 0)scale(0.996264)" xlink:href="#CMR17-116"/>
      <use transform="translate(236.555863 0)scale(0.996264)" xlink:href="#CMR17-105"/>
      <use transform="translate(261.426921 0)scale(0.996264)" xlink:href="#CMR17-109"/>
      <use transform="translate(338.346511 0)scale(0.996264)" xlink:href="#CMR17-101"/>
      <use transform="translate(408.908138 0)scale(0.996264)" xlink:href="#CMMI12-116"/>
      <use transform="translate(444.134468 -34.869286)scale(0.996264)" xlink:href="#CMR17-102"/>
      <use transform="translate(502.182079 0)scale(0.996264)" xlink:href="#CMR17-40"/>
      <use transform="translate(537.462847 0)scale(0.996264)" xlink:href="#CMR17-110"/>
      <use transform="translate(588.358217 0)scale(0.996264)" xlink:href="#CMR17-115"/>
      <use transform="translate(624.159554 0)scale(0.996264)" xlink:href="#CMR17-41"/>
     </g>
    </g>
   </g>
   <g id="matplotlib.axis_2">
    <g id="ytick_1">
     <g id="line2d_19">
      <path clip-path="url(#pa83490950e)" d="M 50.81625 303.985404 
L 445.018665 303.985404 
" style="fill:none;stroke:#dddddd;stroke-linecap:square;stroke-width:0.5;"/>
     </g>
     <g id="line2d_20">
      <defs>
       <path d="M 0 0 
L -3.5 0 
" id="me2d68b60e2" style="stroke:#000000;stroke-width:0.8;"/>
      </defs>
      <g>
       <use style="stroke:#000000;stroke-width:0.8;" x="50.81625" xlink:href="#me2d68b60e2" y="303.985404"/>
      </g>
     </g>
     <g id="text_11">
      <!-- $\mathdefault{10^{-5}}$ -->
      <g transform="translate(23.655677 307.444653)scale(0.1 -0.1)">
       <defs>
        <path d="M 65.90625 23 
C 67.59375 23 69.40625 23 69.40625 25 
C 69.40625 27 67.59375 27 65.90625 27 
L 11.796875 27 
C 10.09375 27 8.296875 27 8.296875 25 
C 8.296875 23 10.09375 23 11.796875 23 
z
" id="CMSY10-0"/>
       </defs>
       <use transform="scale(0.996264)" xlink:href="#CMR17-49"/>
       <use transform="translate(45.690477 0)scale(0.996264)" xlink:href="#CMR17-48"/>
       <use transform="translate(91.380954 36.153639)scale(0.697382)" xlink:href="#CMSY10-0"/>
       <use transform="translate(145.621947 36.153639)scale(0.697382)" xlink:href="#CMR17-53"/>
      </g>
     </g>
    </g>
    <g id="ytick_2">
     <g id="line2d_21">
      <path clip-path="url(#pa83490950e)" d="M 50.81625 231.553865 
L 445.018665 231.553865 
" style="fill:none;stroke:#dddddd;stroke-linecap:square;stroke-width:0.5;"/>
     </g>
     <g id="line2d_22">
      <g>
       <use style="stroke:#000000;stroke-width:0.8;" x="50.81625" xlink:href="#me2d68b60e2" y="231.553865"/>
      </g>
     </g>
     <g id="text_12">
      <!-- $\mathdefault{10^{-4}}$ -->
      <g transform="translate(23.655677 235.013114)scale(0.1 -0.1)">
       <use transform="scale(0.996264)" xlink:href="#CMR17-49"/>
       <use transform="translate(45.690477 0)scale(0.996264)" xlink:href="#CMR17-48"/>
       <use transform="translate(91.380954 36.153639)scale(0.697382)" xlink:href="#CMSY10-0"/>
       <use transform="translate(145.621947 36.153639)scale(0.697382)" xlink:href="#CMR17-52"/>
      </g>
     </g>
    </g>
    <g id="ytick_3">
     <g id="line2d_23">
      <path clip-path="url(#pa83490950e)" d="M 50.81625 159.122327 
L 445.018665 159.122327 
" style="fill:none;stroke:#dddddd;stroke-linecap:square;stroke-width:0.5;"/>
     </g>
     <g id="line2d_24">
      <g>
       <use style="stroke:#000000;stroke-width:0.8;" x="50.81625" xlink:href="#me2d68b60e2" y="159.122327"/>
      </g>
     </g>
     <g id="text_13">
      <!-- $\mathdefault{10^{-3}}$ -->
      <g transform="translate(23.655677 162.581576)scale(0.1 -0.1)">
       <use transform="scale(0.996264)" xlink:href="#CMR17-49"/>
       <use transform="translate(45.690477 0)scale(0.996264)" xlink:href="#CMR17-48"/>
       <use transform="translate(91.380954 36.153639)scale(0.697382)" xlink:href="#CMSY10-0"/>
       <use transform="translate(145.621947 36.153639)scale(0.697382)" xlink:href="#CMR17-51"/>
      </g>
     </g>
    </g>
    <g id="ytick_4">
     <g id="line2d_25">
      <path clip-path="url(#pa83490950e)" d="M 50.81625 86.690788 
L 445.018665 86.690788 
" style="fill:none;stroke:#dddddd;stroke-linecap:square;stroke-width:0.5;"/>
     </g>
     <g id="line2d_26">
      <g>
       <use style="stroke:#000000;stroke-width:0.8;" x="50.81625" xlink:href="#me2d68b60e2" y="86.690788"/>
      </g>
     </g>
     <g id="text_14">
      <!-- $\mathdefault{10^{-2}}$ -->
      <g transform="translate(23.655677 90.150037)scale(0.1 -0.1)">
       <use transform="scale(0.996264)" xlink:href="#CMR17-49"/>
       <use transform="translate(45.690477 0)scale(0.996264)" xlink:href="#CMR17-48"/>
       <use transform="translate(91.380954 36.153639)scale(0.697382)" xlink:href="#CMSY10-0"/>
       <use transform="translate(145.621947 36.153639)scale(0.697382)" xlink:href="#CMR17-50"/>
      </g>
     </g>
    </g>
    <g id="ytick_5">
     <g id="line2d_27">
      <path clip-path="url(#pa83490950e)" d="M 50.81625 14.259249 
L 445.018665 14.259249 
" style="fill:none;stroke:#dddddd;stroke-linecap:square;stroke-width:0.5;"/>
     </g>
     <g id="line2d_28">
      <g>
       <use style="stroke:#000000;stroke-width:0.8;" x="50.81625" xlink:href="#me2d68b60e2" y="14.259249"/>
      </g>
     </g>
     <g id="text_15">
      <!-- $\mathdefault{10^{-1}}$ -->
      <g transform="translate(23.655677 17.718498)scale(0.1 -0.1)">
       <use transform="scale(0.996264)" xlink:href="#CMR17-49"/>
       <use transform="translate(45.690477 0)scale(0.996264)" xlink:href="#CMR17-48"/>
       <use transform="translate(91.380954 36.153639)scale(0.697382)" xlink:href="#CMSY10-0"/>
       <use transform="translate(145.621947 36.153639)scale(0.697382)" xlink:href="#CMR17-49"/>
      </g>
     </g>
    </g>
    <g id="ytick_6">
     <g id="line2d_29">
      <path clip-path="url(#pa83490950e)" d="M 50.81625 282.181338 
L 445.018665 282.181338 
" style="fill:none;stroke:#dddddd;stroke-linecap:square;stroke-width:0.5;"/>
     </g>
     <g id="line2d_30">
      <defs>
       <path d="M 0 0 
L -2 0 
" id="m4450f19081" style="stroke:#000000;stroke-width:0.6;"/>
      </defs>
      <g>
       <use style="stroke:#000000;stroke-width:0.6;" x="50.81625" xlink:href="#m4450f19081" y="282.181338"/>
      </g>
     </g>
    </g>
    <g id="ytick_7">
     <g id="line2d_31">
      <path clip-path="url(#pa83490950e)" d="M 50.81625 269.426777 
L 445.018665 269.426777 
" style="fill:none;stroke:#dddddd;stroke-linecap:square;stroke-width:0.5;"/>
     </g>
     <g id="line2d_32">
      <g>
       <use style="stroke:#000000;stroke-width:0.6;" x="50.81625" xlink:href="#m4450f19081" y="269.426777"/>
      </g>
     </g>
    </g>
    <g id="ytick_8">
     <g id="line2d_33">
      <path clip-path="url(#pa83490950e)" d="M 50.81625 260.377272 
L 445.018665 260.377272 
" style="fill:none;stroke:#dddddd;stroke-linecap:square;stroke-width:0.5;"/>
     </g>
     <g id="line2d_34">
      <g>
       <use style="stroke:#000000;stroke-width:0.6;" x="50.81625" xlink:href="#m4450f19081" y="260.377272"/>
      </g>
     </g>
    </g>
    <g id="ytick_9">
     <g id="line2d_35">
      <path clip-path="url(#pa83490950e)" d="M 50.81625 253.357931 
L 445.018665 253.357931 
" style="fill:none;stroke:#dddddd;stroke-linecap:square;stroke-width:0.5;"/>
     </g>
     <g id="line2d_36">
      <g>
       <use style="stroke:#000000;stroke-width:0.6;" x="50.81625" xlink:href="#m4450f19081" y="253.357931"/>
      </g>
     </g>
    </g>
    <g id="ytick_10">
     <g id="line2d_37">
      <path clip-path="url(#pa83490950e)" d="M 50.81625 247.622712 
L 445.018665 247.622712 
" style="fill:none;stroke:#dddddd;stroke-linecap:square;stroke-width:0.5;"/>
     </g>
     <g id="line2d_38">
      <g>
       <use style="stroke:#000000;stroke-width:0.6;" x="50.81625" xlink:href="#m4450f19081" y="247.622712"/>
      </g>
     </g>
    </g>
    <g id="ytick_11">
     <g id="line2d_39">
      <path clip-path="url(#pa83490950e)" d="M 50.81625 242.773653 
L 445.018665 242.773653 
" style="fill:none;stroke:#dddddd;stroke-linecap:square;stroke-width:0.5;"/>
     </g>
     <g id="line2d_40">
      <g>
       <use style="stroke:#000000;stroke-width:0.6;" x="50.81625" xlink:href="#m4450f19081" y="242.773653"/>
      </g>
     </g>
    </g>
    <g id="ytick_12">
     <g id="line2d_41">
      <path clip-path="url(#pa83490950e)" d="M 50.81625 238.573207 
L 445.018665 238.573207 
" style="fill:none;stroke:#dddddd;stroke-linecap:square;stroke-width:0.5;"/>
     </g>
     <g id="line2d_42">
      <g>
       <use style="stroke:#000000;stroke-width:0.6;" x="50.81625" xlink:href="#m4450f19081" y="238.573207"/>
      </g>
     </g>
    </g>
    <g id="ytick_13">
     <g id="line2d_43">
      <path clip-path="url(#pa83490950e)" d="M 50.81625 234.868151 
L 445.018665 234.868151 
" style="fill:none;stroke:#dddddd;stroke-linecap:square;stroke-width:0.5;"/>
     </g>
     <g id="line2d_44">
      <g>
       <use style="stroke:#000000;stroke-width:0.6;" x="50.81625" xlink:href="#m4450f19081" y="234.868151"/>
      </g>
     </g>
    </g>
    <g id="ytick_14">
     <g id="line2d_45">
      <path clip-path="url(#pa83490950e)" d="M 50.81625 209.7498 
L 445.018665 209.7498 
" style="fill:none;stroke:#dddddd;stroke-linecap:square;stroke-width:0.5;"/>
     </g>
     <g id="line2d_46">
      <g>
       <use style="stroke:#000000;stroke-width:0.6;" x="50.81625" xlink:href="#m4450f19081" y="209.7498"/>
      </g>
     </g>
    </g>
    <g id="ytick_15">
     <g id="line2d_47">
      <path clip-path="url(#pa83490950e)" d="M 50.81625 196.995239 
L 445.018665 196.995239 
" style="fill:none;stroke:#dddddd;stroke-linecap:square;stroke-width:0.5;"/>
     </g>
     <g id="line2d_48">
      <g>
       <use style="stroke:#000000;stroke-width:0.6;" x="50.81625" xlink:href="#m4450f19081" y="196.995239"/>
      </g>
     </g>
    </g>
    <g id="ytick_16">
     <g id="line2d_49">
      <path clip-path="url(#pa83490950e)" d="M 50.81625 187.945734 
L 445.018665 187.945734 
" style="fill:none;stroke:#dddddd;stroke-linecap:square;stroke-width:0.5;"/>
     </g>
     <g id="line2d_50">
      <g>
       <use style="stroke:#000000;stroke-width:0.6;" x="50.81625" xlink:href="#m4450f19081" y="187.945734"/>
      </g>
     </g>
    </g>
    <g id="ytick_17">
     <g id="line2d_51">
      <path clip-path="url(#pa83490950e)" d="M 50.81625 180.926392 
L 445.018665 180.926392 
" style="fill:none;stroke:#dddddd;stroke-linecap:square;stroke-width:0.5;"/>
     </g>
     <g id="line2d_52">
      <g>
       <use style="stroke:#000000;stroke-width:0.6;" x="50.81625" xlink:href="#m4450f19081" y="180.926392"/>
      </g>
     </g>
    </g>
    <g id="ytick_18">
     <g id="line2d_53">
      <path clip-path="url(#pa83490950e)" d="M 50.81625 175.191173 
L 445.018665 175.191173 
" style="fill:none;stroke:#dddddd;stroke-linecap:square;stroke-width:0.5;"/>
     </g>
     <g id="line2d_54">
      <g>
       <use style="stroke:#000000;stroke-width:0.6;" x="50.81625" xlink:href="#m4450f19081" y="175.191173"/>
      </g>
     </g>
    </g>
    <g id="ytick_19">
     <g id="line2d_55">
      <path clip-path="url(#pa83490950e)" d="M 50.81625 170.342114 
L 445.018665 170.342114 
" style="fill:none;stroke:#dddddd;stroke-linecap:square;stroke-width:0.5;"/>
     </g>
     <g id="line2d_56">
      <g>
       <use style="stroke:#000000;stroke-width:0.6;" x="50.81625" xlink:href="#m4450f19081" y="170.342114"/>
      </g>
     </g>
    </g>
    <g id="ytick_20">
     <g id="line2d_57">
      <path clip-path="url(#pa83490950e)" d="M 50.81625 166.141668 
L 445.018665 166.141668 
" style="fill:none;stroke:#dddddd;stroke-linecap:square;stroke-width:0.5;"/>
     </g>
     <g id="line2d_58">
      <g>
       <use style="stroke:#000000;stroke-width:0.6;" x="50.81625" xlink:href="#m4450f19081" y="166.141668"/>
      </g>
     </g>
    </g>
    <g id="ytick_21">
     <g id="line2d_59">
      <path clip-path="url(#pa83490950e)" d="M 50.81625 162.436612 
L 445.018665 162.436612 
" style="fill:none;stroke:#dddddd;stroke-linecap:square;stroke-width:0.5;"/>
     </g>
     <g id="line2d_60">
      <g>
       <use style="stroke:#000000;stroke-width:0.6;" x="50.81625" xlink:href="#m4450f19081" y="162.436612"/>
      </g>
     </g>
    </g>
    <g id="ytick_22">
     <g id="line2d_61">
      <path clip-path="url(#pa83490950e)" d="M 50.81625 137.318261 
L 445.018665 137.318261 
" style="fill:none;stroke:#dddddd;stroke-linecap:square;stroke-width:0.5;"/>
     </g>
     <g id="line2d_62">
      <g>
       <use style="stroke:#000000;stroke-width:0.6;" x="50.81625" xlink:href="#m4450f19081" y="137.318261"/>
      </g>
     </g>
    </g>
    <g id="ytick_23">
     <g id="line2d_63">
      <path clip-path="url(#pa83490950e)" d="M 50.81625 124.5637 
L 445.018665 124.5637 
" style="fill:none;stroke:#dddddd;stroke-linecap:square;stroke-width:0.5;"/>
     </g>
     <g id="line2d_64">
      <g>
       <use style="stroke:#000000;stroke-width:0.6;" x="50.81625" xlink:href="#m4450f19081" y="124.5637"/>
      </g>
     </g>
    </g>
    <g id="ytick_24">
     <g id="line2d_65">
      <path clip-path="url(#pa83490950e)" d="M 50.81625 115.514195 
L 445.018665 115.514195 
" style="fill:none;stroke:#dddddd;stroke-linecap:square;stroke-width:0.5;"/>
     </g>
     <g id="line2d_66">
      <g>
       <use style="stroke:#000000;stroke-width:0.6;" x="50.81625" xlink:href="#m4450f19081" y="115.514195"/>
      </g>
     </g>
    </g>
    <g id="ytick_25">
     <g id="line2d_67">
      <path clip-path="url(#pa83490950e)" d="M 50.81625 108.494854 
L 445.018665 108.494854 
" style="fill:none;stroke:#dddddd;stroke-linecap:square;stroke-width:0.5;"/>
     </g>
     <g id="line2d_68">
      <g>
       <use style="stroke:#000000;stroke-width:0.6;" x="50.81625" xlink:href="#m4450f19081" y="108.494854"/>
      </g>
     </g>
    </g>
    <g id="ytick_26">
     <g id="line2d_69">
      <path clip-path="url(#pa83490950e)" d="M 50.81625 102.759634 
L 445.018665 102.759634 
" style="fill:none;stroke:#dddddd;stroke-linecap:square;stroke-width:0.5;"/>
     </g>
     <g id="line2d_70">
      <g>
       <use style="stroke:#000000;stroke-width:0.6;" x="50.81625" xlink:href="#m4450f19081" y="102.759634"/>
      </g>
     </g>
    </g>
    <g id="ytick_27">
     <g id="line2d_71">
      <path clip-path="url(#pa83490950e)" d="M 50.81625 97.910575 
L 445.018665 97.910575 
" style="fill:none;stroke:#dddddd;stroke-linecap:square;stroke-width:0.5;"/>
     </g>
     <g id="line2d_72">
      <g>
       <use style="stroke:#000000;stroke-width:0.6;" x="50.81625" xlink:href="#m4450f19081" y="97.910575"/>
      </g>
     </g>
    </g>
    <g id="ytick_28">
     <g id="line2d_73">
      <path clip-path="url(#pa83490950e)" d="M 50.81625 93.710129 
L 445.018665 93.710129 
" style="fill:none;stroke:#dddddd;stroke-linecap:square;stroke-width:0.5;"/>
     </g>
     <g id="line2d_74">
      <g>
       <use style="stroke:#000000;stroke-width:0.6;" x="50.81625" xlink:href="#m4450f19081" y="93.710129"/>
      </g>
     </g>
    </g>
    <g id="ytick_29">
     <g id="line2d_75">
      <path clip-path="url(#pa83490950e)" d="M 50.81625 90.005073 
L 445.018665 90.005073 
" style="fill:none;stroke:#dddddd;stroke-linecap:square;stroke-width:0.5;"/>
     </g>
     <g id="line2d_76">
      <g>
       <use style="stroke:#000000;stroke-width:0.6;" x="50.81625" xlink:href="#m4450f19081" y="90.005073"/>
      </g>
     </g>
    </g>
    <g id="ytick_30">
     <g id="line2d_77">
      <path clip-path="url(#pa83490950e)" d="M 50.81625 64.886722 
L 445.018665 64.886722 
" style="fill:none;stroke:#dddddd;stroke-linecap:square;stroke-width:0.5;"/>
     </g>
     <g id="line2d_78">
      <g>
       <use style="stroke:#000000;stroke-width:0.6;" x="50.81625" xlink:href="#m4450f19081" y="64.886722"/>
      </g>
     </g>
    </g>
    <g id="ytick_31">
     <g id="line2d_79">
      <path clip-path="url(#pa83490950e)" d="M 50.81625 52.132161 
L 445.018665 52.132161 
" style="fill:none;stroke:#dddddd;stroke-linecap:square;stroke-width:0.5;"/>
     </g>
     <g id="line2d_80">
      <g>
       <use style="stroke:#000000;stroke-width:0.6;" x="50.81625" xlink:href="#m4450f19081" y="52.132161"/>
      </g>
     </g>
    </g>
    <g id="ytick_32">
     <g id="line2d_81">
      <path clip-path="url(#pa83490950e)" d="M 50.81625 43.082656 
L 445.018665 43.082656 
" style="fill:none;stroke:#dddddd;stroke-linecap:square;stroke-width:0.5;"/>
     </g>
     <g id="line2d_82">
      <g>
       <use style="stroke:#000000;stroke-width:0.6;" x="50.81625" xlink:href="#m4450f19081" y="43.082656"/>
      </g>
     </g>
    </g>
    <g id="ytick_33">
     <g id="line2d_83">
      <path clip-path="url(#pa83490950e)" d="M 50.81625 36.063315 
L 445.018665 36.063315 
" style="fill:none;stroke:#dddddd;stroke-linecap:square;stroke-width:0.5;"/>
     </g>
     <g id="line2d_84">
      <g>
       <use style="stroke:#000000;stroke-width:0.6;" x="50.81625" xlink:href="#m4450f19081" y="36.063315"/>
      </g>
     </g>
    </g>
    <g id="ytick_34">
     <g id="line2d_85">
      <path clip-path="url(#pa83490950e)" d="M 50.81625 30.328095 
L 445.018665 30.328095 
" style="fill:none;stroke:#dddddd;stroke-linecap:square;stroke-width:0.5;"/>
     </g>
     <g id="line2d_86">
      <g>
       <use style="stroke:#000000;stroke-width:0.6;" x="50.81625" xlink:href="#m4450f19081" y="30.328095"/>
      </g>
     </g>
    </g>
    <g id="ytick_35">
     <g id="line2d_87">
      <path clip-path="url(#pa83490950e)" d="M 50.81625 25.479036 
L 445.018665 25.479036 
" style="fill:none;stroke:#dddddd;stroke-linecap:square;stroke-width:0.5;"/>
     </g>
     <g id="line2d_88">
      <g>
       <use style="stroke:#000000;stroke-width:0.6;" x="50.81625" xlink:href="#m4450f19081" y="25.479036"/>
      </g>
     </g>
    </g>
    <g id="ytick_36">
     <g id="line2d_89">
      <path clip-path="url(#pa83490950e)" d="M 50.81625 21.278591 
L 445.018665 21.278591 
" style="fill:none;stroke:#dddddd;stroke-linecap:square;stroke-width:0.5;"/>
     </g>
     <g id="line2d_90">
      <g>
       <use style="stroke:#000000;stroke-width:0.6;" x="50.81625" xlink:href="#m4450f19081" y="21.278591"/>
      </g>
     </g>
    </g>
    <g id="ytick_37">
     <g id="line2d_91">
      <path clip-path="url(#pa83490950e)" d="M 50.81625 17.573535 
L 445.018665 17.573535 
" style="fill:none;stroke:#dddddd;stroke-linecap:square;stroke-width:0.5;"/>
     </g>
     <g id="line2d_92">
      <g>
       <use style="stroke:#000000;stroke-width:0.6;" x="50.81625" xlink:href="#m4450f19081" y="17.573535"/>
      </g>
     </g>
    </g>
    <g id="text_16">
     <!-- conversion error $\epsilon$ -->
     <g transform="translate(17.718498 197.618644)rotate(-90)scale(0.1 -0.1)">
      <defs>
       <path d="M 34.90625 35 
C 33 35 30.203125 35 30.203125 31.484375 
C 30.203125 28.6875 32.5 27.890625 33.796875 27.890625 
C 34.5 27.890625 37.40625 28.1875 37.40625 31.6875 
C 37.40625 38.6875 30.59375 44 22.90625 44 
C 12.296875 44 3.296875 34.390625 3.296875 21.546875 
C 3.296875 8.140625 12.703125 -1 22.90625 -1 
C 35.296875 -1 38.40625 10.5625 38.40625 11.671875 
C 38.40625 12.078125 38.296875 12.375 37.59375 12.375 
C 36.90625 12.375 36.796875 12.28125 36.40625 10.96875 
C 33.796875 2.8125 28.09375 0.796875 23.796875 0.796875 
C 17.40625 0.796875 9.703125 6.734375 9.703125 21.640625 
C 9.703125 36.84375 17.09375 42.1875 23 42.1875 
C 26.90625 42.1875 32.703125 40.34375 34.90625 35 
z
" id="CMR17-99"/>
       <path d="M 43.09375 21.1875 
C 43.09375 34 33.796875 44 22.90625 44 
C 12 44 2.703125 34 2.703125 21.1875 
C 2.703125 8.59375 12 -1 22.90625 -1 
C 33.796875 -1 43.09375 8.59375 43.09375 21.1875 
z
M 22.90625 0.796875 
C 18.203125 0.796875 14.203125 3.59375 11.90625 7.5 
C 9.40625 12 9.09375 17.59375 9.09375 22 
C 9.09375 26.1875 9.296875 31.390625 11.90625 35.890625 
C 13.90625 39.1875 17.796875 42.390625 22.90625 42.390625 
C 27.40625 42.390625 31.203125 39.890625 33.59375 36.390625 
C 36.703125 31.6875 36.703125 25.09375 36.703125 22 
C 36.703125 18.09375 36.5 12.09375 33.796875 7.296875 
C 31 2.6875 26.703125 0.796875 22.90625 0.796875 
z
" id="CMR17-111"/>
       <path d="M 39.09375 33.953125 
C 40 36.171875 41.59375 40.1875 47.40625 40.390625 
L 47.40625 43 
C 45.5 42.890625 43 42.796875 41.09375 42.796875 
C 39 42.796875 35.703125 42.796875 33.703125 43 
L 33.703125 40.390625 
C 36.203125 40.1875 37.59375 38.984375 37.59375 36.375 
C 37.59375 35.46875 37.59375 35.265625 37 33.859375 
L 26 5.921875 
L 14.09375 36.0625 
C 13.5 37.375 13.5 37.578125 13.5 37.984375 
C 13.5 40.390625 16.796875 40.390625 18.296875 40.390625 
L 18.296875 43 
C 15.90625 42.796875 11.5 42.796875 9 42.796875 
C 6.296875 42.796875 3.203125 42.796875 1 43 
L 1 40.390625 
C 4.796875 40.390625 6.90625 40.390625 8.09375 37.28125 
L 22.59375 0.6875 
C 23.203125 -0.8125 23.296875 -1 24.203125 -1 
C 25.09375 -1 25.203125 -0.8125 25.796875 0.6875 
z
" id="CMR17-118"/>
       <path d="M 15 23.703125 
C 15 33.34375 19.09375 42.390625 26.59375 42.390625 
C 27.296875 42.390625 28 42.296875 28.703125 41.984375 
C 28.703125 41.984375 26.5 41.28125 26.5 38.671875 
C 26.5 36.265625 28.40625 35.265625 29.90625 35.265625 
C 31.09375 35.265625 33.296875 35.96875 33.296875 38.78125 
C 33.296875 41.984375 30.09375 44 26.703125 44 
C 19.09375 44 15.796875 36.5625 14.796875 33.046875 
L 14.703125 33.046875 
L 14.703125 44 
L 3.09375 42.890625 
L 3.09375 40.28125 
C 9 40.28125 9.90625 39.6875 9.90625 34.859375 
L 9.90625 6.921875 
C 9.90625 3.09375 9.5 2.59375 3.09375 2.59375 
L 3.09375 0 
C 5.5 0.1875 10.09375 0.1875 12.703125 0.1875 
C 15.59375 0.1875 20.703125 0.1875 23.40625 0 
L 23.40625 2.59375 
C 16.203125 2.59375 15 2.59375 15 7.109375 
z
" id="CMR17-114"/>
       <path d="M 29.09375 23 
C 30.59375 23 32.296875 23 32.296875 24.59375 
C 32.296875 25.890625 31.296875 25.890625 29.5 25.890625 
L 13.296875 25.890625 
C 15.796875 34.75 21.703125 40.09375 30.59375 40.09375 
L 33.5 40.09375 
C 35.203125 40.09375 36.703125 40.09375 36.703125 41.6875 
C 36.703125 43 35.59375 43 33.796875 43 
L 30.40625 43 
C 18.09375 43 4.59375 33.375 4.59375 17.828125 
C 4.59375 6.5625 12.09375 -1 22 -1 
C 28.40625 -1 34.703125 3.015625 34.703125 4.03125 
C 34.703125 4.640625 34.40625 5.25 33.796875 5.25 
C 33.5 5.25 33.296875 5.15625 32.796875 4.75 
C 29 2.203125 25.296875 1 22.296875 1 
C 17 1 11.40625 4.546875 11.40625 14.375 
C 11.40625 16.296875 11.59375 18.9375 12.5 23 
z
" id="CMMI12-15"/>
      </defs>
      <use transform="scale(0.996264)" xlink:href="#CMR17-99"/>
      <use transform="translate(40.48566 0)scale(0.996264)" xlink:href="#CMR17-111"/>
      <use transform="translate(86.176138 0)scale(0.996264)" xlink:href="#CMR17-110"/>
      <use transform="translate(134.469053 0)scale(0.996264)" xlink:href="#CMR17-118"/>
      <use transform="translate(180.159515 0)scale(0.996264)" xlink:href="#CMR17-101"/>
      <use transform="translate(220.645176 0)scale(0.996264)" xlink:href="#CMR17-114"/>
      <use transform="translate(255.925944 0)scale(0.996264)" xlink:href="#CMR17-115"/>
      <use transform="translate(291.727281 0)scale(0.996264)" xlink:href="#CMR17-105"/>
      <use transform="translate(316.59834 0)scale(0.996264)" xlink:href="#CMR17-111"/>
      <use transform="translate(362.288817 0)scale(0.996264)" xlink:href="#CMR17-110"/>
      <use transform="translate(443.260153 0)scale(0.996264)" xlink:href="#CMR17-101"/>
      <use transform="translate(483.745813 0)scale(0.996264)" xlink:href="#CMR17-114"/>
      <use transform="translate(519.026581 0)scale(0.996264)" xlink:href="#CMR17-114"/>
      <use transform="translate(554.307349 0)scale(0.996264)" xlink:href="#CMR17-111"/>
      <use transform="translate(599.997826 0)scale(0.996264)" xlink:href="#CMR17-114"/>
      <use transform="translate(665.35456 0)scale(0.996264)" xlink:href="#CMMI12-15"/>
     </g>
    </g>
   </g>
   <g id="line2d_93">
    <path clip-path="url(#pa83490950e)" d="M 60.67131 20.797713 
L 64.514784 21.006151 
L 68.358258 21.285133 
L 72.201731 21.686855 
L 76.045205 22.12151 
L 79.888678 22.64043 
L 83.732152 23.236617 
L 87.575625 23.88213 
L 91.419099 24.618856 
L 95.262572 25.433316 
L 99.106046 26.323216 
L 102.949519 27.304812 
L 106.792993 28.317666 
L 110.636467 29.454775 
L 114.47994 30.616944 
L 118.323414 31.881066 
L 122.166887 33.253124 
L 126.010361 34.667192 
L 129.853834 36.161903 
L 133.697308 37.752585 
L 137.540781 39.397637 
L 141.384255 41.14397 
L 145.227728 42.952635 
L 149.071202 44.852357 
L 152.914675 46.817987 
L 156.758149 48.867568 
L 160.601623 51.073927 
L 164.445096 53.171646 
L 168.28857 55.524186 
L 172.132043 57.934568 
L 175.975517 60.23956 
L 179.81899 62.740496 
L 183.662464 65.349789 
L 187.505937 68.080128 
L 191.349411 70.671455 
L 195.192884 73.594617 
L 199.036358 76.315621 
L 202.879832 79.156169 
L 206.723305 82.187084 
L 210.566779 85.106533 
L 214.410252 88.097319 
L 218.253726 91.075615 
L 222.097199 94.206201 
L 225.940673 96.993008 
L 229.784146 99.968716 
L 233.62762 103.010862 
L 237.471093 105.634132 
L 241.314567 108.642852 
L 245.158041 111.254479 
L 249.001514 114.03195 
L 252.844988 116.46773 
L 256.688461 118.815517 
L 260.531935 121.239658 
L 264.375408 123.208696 
L 268.218882 125.276423 
L 272.062355 126.384106 
L 275.905829 127.747022 
L 279.749302 129.976148 
L 283.592776 131.755163 
L 287.436249 133.989947 
L 291.279723 135.279211 
L 295.123197 135.704068 
L 298.96667 138.13233 
L 302.810144 137.575493 
L 306.653617 136.329125 
L 310.497091 141.214128 
L 314.340564 142.436652 
L 318.184038 142.924198 
L 322.027511 145.443973 
L 325.870985 142.801252 
L 329.714458 150.581433 
L 333.557932 146.168413 
L 337.401406 146.116301 
L 341.244879 149.792496 
L 345.088353 153.477963 
L 348.931826 153.258147 
L 352.7753 149.370366 
L 356.618773 154.438361 
L 360.462247 159.513984 
L 364.30572 166.443683 
L 368.149194 157.032719 
L 371.992667 161.331346 
L 375.836141 170.550614 
L 379.679615 164.949462 
L 383.523088 168.538524 
L 387.366562 175.147113 
L 391.210035 160.544532 
L 395.053509 186.027856 
L 398.896982 187.743548 
L 402.740456 168.702616 
L 406.583929 171.379466 
L 410.427403 159.191798 
L 414.270876 187.022513 
L 418.11435 176.326226 
L 421.957823 182.850563 
L 425.801297 209.500299 
L 429.644771 196.068824 
L 433.488244 199.824779 
L 437.331718 201.945041 
L 441.175191 177.230794 
L 445.018665 170.089172 
" style="fill:none;stroke:#0088ff;stroke-linecap:square;stroke-width:1.5;"/>
   </g>
   <g id="line2d_94">
    <path clip-path="url(#pa83490950e)" style="fill:none;stroke:#000000;stroke-linecap:square;stroke-width:1.5;"/>
   </g>
   <g id="line2d_95">
    <path clip-path="url(#pa83490950e)" style="fill:none;stroke:#000000;stroke-linecap:square;stroke-width:1.5;"/>
   </g>
   <g id="line2d_96">
    <path clip-path="url(#pa83490950e)" d="M 60.67131 20.929393 
L 64.514784 21.250641 
L 68.358258 21.724127 
L 72.201731 22.261802 
L 76.045205 22.964732 
L 79.888678 23.743237 
L 83.732152 24.697392 
L 87.575625 25.764473 
L 91.419099 26.963202 
L 95.262572 28.268093 
L 99.106046 29.731863 
L 102.949519 31.337249 
L 106.792993 33.065789 
L 110.636467 34.964379 
L 114.47994 37.037273 
L 118.323414 39.242304 
L 122.166887 41.667061 
L 126.010361 44.2581 
L 129.853834 46.98662 
L 133.697308 49.985675 
L 137.540781 53.22371 
L 141.384255 56.640883 
L 145.227728 60.393646 
L 149.071202 64.272966 
L 152.914675 68.535515 
L 156.758149 73.152188 
L 160.601623 78.17466 
L 164.445096 83.474442 
L 168.28857 89.159506 
L 172.132043 95.355843 
L 175.975517 102.474964 
L 179.81899 110.00959 
L 183.662464 118.66915 
L 187.505937 128.116803 
L 191.349411 139.081777 
L 195.192884 151.147484 
L 199.036358 165.891956 
L 202.879832 185.703848 
L 206.723305 207.4382 
L 210.566779 230.18248 
L 214.410252 237.41923 
L 218.253726 227.99842 
L 222.097199 205.345823 
L 225.940673 188.560983 
L 229.784146 178.800697 
L 233.62762 168.40915 
L 237.471093 159.061436 
L 241.314567 153.349996 
L 245.158041 148.755913 
L 249.001514 144.231275 
L 252.844988 141.220642 
L 256.688461 138.371845 
L 260.531935 135.825627 
L 264.375408 135.854749 
L 268.218882 135.4305 
L 272.062355 135.375635 
L 275.905829 132.653176 
L 279.749302 135.144778 
L 283.592776 137.092002 
L 287.436249 137.174906 
L 291.279723 140.47234 
L 295.123197 141.692906 
L 298.96667 145.509524 
L 302.810144 147.286987 
L 306.653617 154.200473 
L 310.497091 155.277129 
L 314.340564 153.42063 
L 318.184038 165.521516 
L 322.027511 177.2674 
L 325.870985 173.971506 
L 329.714458 182.08481 
L 333.557932 181.965148 
L 337.401406 201.685138 
L 341.244879 189.620911 
L 345.088353 191.808825 
L 348.931826 218.144725 
L 352.7753 188.605731 
L 356.618773 186.745779 
L 360.462247 207.172887 
L 364.30572 183.729635 
L 368.149194 176.702948 
L 371.992667 177.940748 
L 375.836141 188.752324 
L 379.679615 176.362737 
L 383.523088 166.893378 
L 387.366562 172.571985 
L 391.210035 149.870297 
L 395.053509 169.480385 
L 398.896982 154.890267 
L 402.740456 166.074411 
L 406.583929 153.828304 
L 410.427403 150.955631 
L 414.270876 159.626226 
L 418.11435 174.830709 
L 421.957823 160.400656 
L 425.801297 154.571843 
L 429.644771 145.818484 
L 433.488244 145.843221 
L 437.331718 155.542236 
L 441.175191 153.234433 
L 445.018665 146.092497 
" style="fill:none;stroke:#dd5500;stroke-linecap:square;stroke-width:1.5;"/>
    <defs>
     <path d="M 0 1.5 
C 0.397805 1.5 0.77937 1.341951 1.06066 1.06066 
C 1.341951 0.77937 1.5 0.397805 1.5 0 
C 1.5 -0.397805 1.341951 -0.77937 1.06066 -1.06066 
C 0.77937 -1.341951 0.397805 -1.5 0 -1.5 
C -0.397805 -1.5 -0.77937 -1.341951 -1.06066 -1.06066 
C -1.341951 -0.77937 -1.5 -0.397805 -1.5 0 
C -1.5 0.397805 -1.341951 0.77937 -1.06066 1.06066 
C -0.77937 1.341951 -0.397805 1.5 0 1.5 
z
" id="mab5061891d" style="stroke:#dd5500;"/>
    </defs>
    <g clip-path="url(#pa83490950e)">
     <use style="fill:#dd5500;stroke:#dd5500;" x="60.67131" xlink:href="#mab5061891d" y="20.929393"/>
     <use style="fill:#dd5500;stroke:#dd5500;" x="64.514784" xlink:href="#mab5061891d" y="21.250641"/>
     <use style="fill:#dd5500;stroke:#dd5500;" x="68.358258" xlink:href="#mab5061891d" y="21.724127"/>
     <use style="fill:#dd5500;stroke:#dd5500;" x="72.201731" xlink:href="#mab5061891d" y="22.261802"/>
     <use style="fill:#dd5500;stroke:#dd5500;" x="76.045205" xlink:href="#mab5061891d" y="22.964732"/>
     <use style="fill:#dd5500;stroke:#dd5500;" x="79.888678" xlink:href="#mab5061891d" y="23.743237"/>
     <use style="fill:#dd5500;stroke:#dd5500;" x="83.732152" xlink:href="#mab5061891d" y="24.697392"/>
     <use style="fill:#dd5500;stroke:#dd5500;" x="87.575625" xlink:href="#mab5061891d" y="25.764473"/>
     <use style="fill:#dd5500;stroke:#dd5500;" x="91.419099" xlink:href="#mab5061891d" y="26.963202"/>
     <use style="fill:#dd5500;stroke:#dd5500;" x="95.262572" xlink:href="#mab5061891d" y="28.268093"/>
     <use style="fill:#dd5500;stroke:#dd5500;" x="99.106046" xlink:href="#mab5061891d" y="29.731863"/>
     <use style="fill:#dd5500;stroke:#dd5500;" x="102.949519" xlink:href="#mab5061891d" y="31.337249"/>
     <use style="fill:#dd5500;stroke:#dd5500;" x="106.792993" xlink:href="#mab5061891d" y="33.065789"/>
     <use style="fill:#dd5500;stroke:#dd5500;" x="110.636467" xlink:href="#mab5061891d" y="34.964379"/>
     <use style="fill:#dd5500;stroke:#dd5500;" x="114.47994" xlink:href="#mab5061891d" y="37.037273"/>
     <use style="fill:#dd5500;stroke:#dd5500;" x="118.323414" xlink:href="#mab5061891d" y="39.242304"/>
     <use style="fill:#dd5500;stroke:#dd5500;" x="122.166887" xlink:href="#mab5061891d" y="41.667061"/>
     <use style="fill:#dd5500;stroke:#dd5500;" x="126.010361" xlink:href="#mab5061891d" y="44.2581"/>
     <use style="fill:#dd5500;stroke:#dd5500;" x="129.853834" xlink:href="#mab5061891d" y="46.98662"/>
     <use style="fill:#dd5500;stroke:#dd5500;" x="133.697308" xlink:href="#mab5061891d" y="49.985675"/>
     <use style="fill:#dd5500;stroke:#dd5500;" x="137.540781" xlink:href="#mab5061891d" y="53.22371"/>
     <use style="fill:#dd5500;stroke:#dd5500;" x="141.384255" xlink:href="#mab5061891d" y="56.640883"/>
     <use style="fill:#dd5500;stroke:#dd5500;" x="145.227728" xlink:href="#mab5061891d" y="60.393646"/>
     <use style="fill:#dd5500;stroke:#dd5500;" x="149.071202" xlink:href="#mab5061891d" y="64.272966"/>
     <use style="fill:#dd5500;stroke:#dd5500;" x="152.914675" xlink:href="#mab5061891d" y="68.535515"/>
     <use style="fill:#dd5500;stroke:#dd5500;" x="156.758149" xlink:href="#mab5061891d" y="73.152188"/>
     <use style="fill:#dd5500;stroke:#dd5500;" x="160.601623" xlink:href="#mab5061891d" y="78.17466"/>
     <use style="fill:#dd5500;stroke:#dd5500;" x="164.445096" xlink:href="#mab5061891d" y="83.474442"/>
     <use style="fill:#dd5500;stroke:#dd5500;" x="168.28857" xlink:href="#mab5061891d" y="89.159506"/>
     <use style="fill:#dd5500;stroke:#dd5500;" x="172.132043" xlink:href="#mab5061891d" y="95.355843"/>
     <use style="fill:#dd5500;stroke:#dd5500;" x="175.975517" xlink:href="#mab5061891d" y="102.474964"/>
     <use style="fill:#dd5500;stroke:#dd5500;" x="179.81899" xlink:href="#mab5061891d" y="110.00959"/>
     <use style="fill:#dd5500;stroke:#dd5500;" x="183.662464" xlink:href="#mab5061891d" y="118.66915"/>
     <use style="fill:#dd5500;stroke:#dd5500;" x="187.505937" xlink:href="#mab5061891d" y="128.116803"/>
     <use style="fill:#dd5500;stroke:#dd5500;" x="191.349411" xlink:href="#mab5061891d" y="139.081777"/>
     <use style="fill:#dd5500;stroke:#dd5500;" x="195.192884" xlink:href="#mab5061891d" y="151.147484"/>
     <use style="fill:#dd5500;stroke:#dd5500;" x="199.036358" xlink:href="#mab5061891d" y="165.891956"/>
     <use style="fill:#dd5500;stroke:#dd5500;" x="202.879832" xlink:href="#mab5061891d" y="185.703848"/>
     <use style="fill:#dd5500;stroke:#dd5500;" x="206.723305" xlink:href="#mab5061891d" y="207.4382"/>
     <use style="fill:#dd5500;stroke:#dd5500;" x="210.566779" xlink:href="#mab5061891d" y="230.18248"/>
     <use style="fill:#dd5500;stroke:#dd5500;" x="214.410252" xlink:href="#mab5061891d" y="237.41923"/>
     <use style="fill:#dd5500;stroke:#dd5500;" x="218.253726" xlink:href="#mab5061891d" y="227.99842"/>
     <use style="fill:#dd5500;stroke:#dd5500;" x="222.097199" xlink:href="#mab5061891d" y="205.345823"/>
     <use style="fill:#dd5500;stroke:#dd5500;" x="225.940673" xlink:href="#mab5061891d" y="188.560983"/>
     <use style="fill:#dd5500;stroke:#dd5500;" x="229.784146" xlink:href="#mab5061891d" y="178.800697"/>
     <use style="fill:#dd5500;stroke:#dd5500;" x="233.62762" xlink:href="#mab5061891d" y="168.40915"/>
     <use style="fill:#dd5500;stroke:#dd5500;" x="237.471093" xlink:href="#mab5061891d" y="159.061436"/>
     <use style="fill:#dd5500;stroke:#dd5500;" x="241.314567" xlink:href="#mab5061891d" y="153.349996"/>
     <use style="fill:#dd5500;stroke:#dd5500;" x="245.158041" xlink:href="#mab5061891d" y="148.755913"/>
     <use style="fill:#dd5500;stroke:#dd5500;" x="249.001514" xlink:href="#mab5061891d" y="144.231275"/>
     <use style="fill:#dd5500;stroke:#dd5500;" x="252.844988" xlink:href="#mab5061891d" y="141.220642"/>
     <use style="fill:#dd5500;stroke:#dd5500;" x="256.688461" xlink:href="#mab5061891d" y="138.371845"/>
     <use style="fill:#dd5500;stroke:#dd5500;" x="260.531935" xlink:href="#mab5061891d" y="135.825627"/>
     <use style="fill:#dd5500;stroke:#dd5500;" x="264.375408" xlink:href="#mab5061891d" y="135.854749"/>
     <use style="fill:#dd5500;stroke:#dd5500;" x="268.218882" xlink:href="#mab5061891d" y="135.4305"/>
     <use style="fill:#dd5500;stroke:#dd5500;" x="272.062355" xlink:href="#mab5061891d" y="135.375635"/>
     <use style="fill:#dd5500;stroke:#dd5500;" x="275.905829" xlink:href="#mab5061891d" y="132.653176"/>
     <use style="fill:#dd5500;stroke:#dd5500;" x="279.749302" xlink:href="#mab5061891d" y="135.144778"/>
     <use style="fill:#dd5500;stroke:#dd5500;" x="283.592776" xlink:href="#mab5061891d" y="137.092002"/>
     <use style="fill:#dd5500;stroke:#dd5500;" x="287.436249" xlink:href="#mab5061891d" y="137.174906"/>
     <use style="fill:#dd5500;stroke:#dd5500;" x="291.279723" xlink:href="#mab5061891d" y="140.47234"/>
     <use style="fill:#dd5500;stroke:#dd5500;" x="295.123197" xlink:href="#mab5061891d" y="141.692906"/>
     <use style="fill:#dd5500;stroke:#dd5500;" x="298.96667" xlink:href="#mab5061891d" y="145.509524"/>
     <use style="fill:#dd5500;stroke:#dd5500;" x="302.810144" xlink:href="#mab5061891d" y="147.286987"/>
     <use style="fill:#dd5500;stroke:#dd5500;" x="306.653617" xlink:href="#mab5061891d" y="154.200473"/>
     <use style="fill:#dd5500;stroke:#dd5500;" x="310.497091" xlink:href="#mab5061891d" y="155.277129"/>
     <use style="fill:#dd5500;stroke:#dd5500;" x="314.340564" xlink:href="#mab5061891d" y="153.42063"/>
     <use style="fill:#dd5500;stroke:#dd5500;" x="318.184038" xlink:href="#mab5061891d" y="165.521516"/>
     <use style="fill:#dd5500;stroke:#dd5500;" x="322.027511" xlink:href="#mab5061891d" y="177.2674"/>
     <use style="fill:#dd5500;stroke:#dd5500;" x="325.870985" xlink:href="#mab5061891d" y="173.971506"/>
     <use style="fill:#dd5500;stroke:#dd5500;" x="329.714458" xlink:href="#mab5061891d" y="182.08481"/>
     <use style="fill:#dd5500;stroke:#dd5500;" x="333.557932" xlink:href="#mab5061891d" y="181.965148"/>
     <use style="fill:#dd5500;stroke:#dd5500;" x="337.401406" xlink:href="#mab5061891d" y="201.685138"/>
     <use style="fill:#dd5500;stroke:#dd5500;" x="341.244879" xlink:href="#mab5061891d" y="189.620911"/>
     <use style="fill:#dd5500;stroke:#dd5500;" x="345.088353" xlink:href="#mab5061891d" y="191.808825"/>
     <use style="fill:#dd5500;stroke:#dd5500;" x="348.931826" xlink:href="#mab5061891d" y="218.144725"/>
     <use style="fill:#dd5500;stroke:#dd5500;" x="352.7753" xlink:href="#mab5061891d" y="188.605731"/>
     <use style="fill:#dd5500;stroke:#dd5500;" x="356.618773" xlink:href="#mab5061891d" y="186.745779"/>
     <use style="fill:#dd5500;stroke:#dd5500;" x="360.462247" xlink:href="#mab5061891d" y="207.172887"/>
     <use style="fill:#dd5500;stroke:#dd5500;" x="364.30572" xlink:href="#mab5061891d" y="183.729635"/>
     <use style="fill:#dd5500;stroke:#dd5500;" x="368.149194" xlink:href="#mab5061891d" y="176.702948"/>
     <use style="fill:#dd5500;stroke:#dd5500;" x="371.992667" xlink:href="#mab5061891d" y="177.940748"/>
     <use style="fill:#dd5500;stroke:#dd5500;" x="375.836141" xlink:href="#mab5061891d" y="188.752324"/>
     <use style="fill:#dd5500;stroke:#dd5500;" x="379.679615" xlink:href="#mab5061891d" y="176.362737"/>
     <use style="fill:#dd5500;stroke:#dd5500;" x="383.523088" xlink:href="#mab5061891d" y="166.893378"/>
     <use style="fill:#dd5500;stroke:#dd5500;" x="387.366562" xlink:href="#mab5061891d" y="172.571985"/>
     <use style="fill:#dd5500;stroke:#dd5500;" x="391.210035" xlink:href="#mab5061891d" y="149.870297"/>
     <use style="fill:#dd5500;stroke:#dd5500;" x="395.053509" xlink:href="#mab5061891d" y="169.480385"/>
     <use style="fill:#dd5500;stroke:#dd5500;" x="398.896982" xlink:href="#mab5061891d" y="154.890267"/>
     <use style="fill:#dd5500;stroke:#dd5500;" x="402.740456" xlink:href="#mab5061891d" y="166.074411"/>
     <use style="fill:#dd5500;stroke:#dd5500;" x="406.583929" xlink:href="#mab5061891d" y="153.828304"/>
     <use style="fill:#dd5500;stroke:#dd5500;" x="410.427403" xlink:href="#mab5061891d" y="150.955631"/>
     <use style="fill:#dd5500;stroke:#dd5500;" x="414.270876" xlink:href="#mab5061891d" y="159.626226"/>
     <use style="fill:#dd5500;stroke:#dd5500;" x="418.11435" xlink:href="#mab5061891d" y="174.830709"/>
     <use style="fill:#dd5500;stroke:#dd5500;" x="421.957823" xlink:href="#mab5061891d" y="160.400656"/>
     <use style="fill:#dd5500;stroke:#dd5500;" x="425.801297" xlink:href="#mab5061891d" y="154.571843"/>
     <use style="fill:#dd5500;stroke:#dd5500;" x="429.644771" xlink:href="#mab5061891d" y="145.818484"/>
     <use style="fill:#dd5500;stroke:#dd5500;" x="433.488244" xlink:href="#mab5061891d" y="145.843221"/>
     <use style="fill:#dd5500;stroke:#dd5500;" x="437.331718" xlink:href="#mab5061891d" y="155.542236"/>
     <use style="fill:#dd5500;stroke:#dd5500;" x="441.175191" xlink:href="#mab5061891d" y="153.234433"/>
     <use style="fill:#dd5500;stroke:#dd5500;" x="445.018665" xlink:href="#mab5061891d" y="146.092497"/>
    </g>
   </g>
   <g id="line2d_97">
    <path clip-path="url(#pa83490950e)" style="fill:none;stroke:#000000;stroke-linecap:square;stroke-width:1.5;"/>
   </g>
   <g id="line2d_98">
    <path clip-path="url(#pa83490950e)" style="fill:none;stroke:#000000;stroke-linecap:square;stroke-width:1.5;"/>
   </g>
   <g id="line2d_99">
    <path clip-path="url(#pa83490950e)" d="M 60.67131 303.985404 
L 61.044961 302.814793 
L 61.432778 301.644183 
L 61.8353 300.473572 
L 62.253082 299.302961 
L 62.686705 298.13235 
L 63.136769 296.96174 
L 63.603896 295.791129 
L 64.088734 294.620518 
L 64.591955 293.449907 
L 65.114255 292.279297 
L 65.656358 291.108686 
L 66.219015 289.938075 
L 66.803004 288.767465 
L 67.409136 287.596854 
L 68.038248 286.426243 
L 68.691213 285.255632 
L 69.368935 284.085022 
L 70.072352 282.914411 
L 70.802439 281.7438 
L 71.560208 280.573189 
L 72.346706 279.402579 
L 73.163024 278.231968 
L 74.010293 277.061357 
L 74.889686 275.890747 
L 75.80242 274.720136 
L 76.749761 273.549525 
L 77.733019 272.378914 
L 78.753557 271.208304 
L 79.812789 270.037693 
L 80.91218 268.867082 
L 82.053255 267.696471 
L 83.237593 266.525861 
L 84.466835 265.35525 
L 85.742683 264.184639 
L 87.066905 263.014029 
L 88.441333 261.843418 
L 89.867873 260.672807 
L 91.348499 259.502196 
L 92.885263 258.331586 
L 94.480292 257.160975 
L 96.135796 255.990364 
L 97.854068 254.819753 
L 99.637488 253.649143 
L 101.488525 252.478532 
L 103.409743 251.307921 
L 105.403804 250.137311 
L 107.473468 248.9667 
L 109.621604 247.796089 
L 111.851184 246.625478 
L 114.165299 245.454868 
L 116.567152 244.284257 
L 119.06007 243.113646 
L 121.647507 241.943035 
L 124.333044 240.772425 
L 127.120403 239.601814 
L 130.013444 238.431203 
L 133.016173 237.260593 
L 136.132749 236.089982 
L 139.367489 234.919371 
L 142.724873 233.74876 
L 146.209551 232.57815 
L 149.826348 231.407539 
L 153.580275 230.236928 
L 157.476531 229.066317 
L 161.520512 227.895707 
L 165.717818 226.725096 
L 170.074264 225.554485 
L 174.595882 224.383875 
L 179.288936 223.213264 
L 184.159925 222.042653 
L 189.215596 220.872042 
L 194.46295 219.701432 
L 199.909255 218.530821 
L 205.562055 217.36021 
L 211.429179 216.189599 
L 217.518752 215.018989 
L 223.839208 213.848378 
L 230.399303 212.677767 
L 237.20812 211.507157 
L 244.275091 210.336546 
L 251.610003 209.165935 
L 259.223016 207.995324 
L 267.124673 206.824714 
L 275.325917 205.654103 
L 283.838109 204.483492 
L 292.673037 203.312882 
L 301.842937 202.142271 
L 311.360511 200.97166 
L 321.238939 199.801049 
L 331.491904 198.630439 
L 342.133606 197.459828 
L 353.178784 196.289217 
L 364.642735 195.118606 
L 376.541337 193.947996 
L 388.891069 192.777385 
L 401.709037 191.606774 
L 415.012992 190.436164 
L 428.821362 189.265553 
L 443.15327 188.094942 
" style="fill:none;stroke:#000000;stroke-linecap:square;stroke-width:1.5;"/>
   </g>
   <g id="line2d_100">
    <path clip-path="url(#pa83490950e)" d="M 76.248874 346.6 
L 76.749761 345.981064 
L 77.733019 344.810453 
L 78.753557 343.639842 
L 79.812789 342.469232 
L 80.91218 341.298621 
L 82.053255 340.12801 
L 83.237593 338.957399 
L 84.466835 337.786789 
L 85.742683 336.616178 
L 87.066905 335.445567 
L 88.441333 334.274957 
L 89.867873 333.104346 
L 91.348499 331.933735 
L 92.885263 330.763124 
L 94.480292 329.592514 
L 96.135796 328.421903 
L 97.854068 327.251292 
L 99.637488 326.080681 
L 101.488525 324.910071 
L 103.409743 323.73946 
L 105.403804 322.568849 
L 107.473468 321.398239 
L 109.621604 320.227628 
L 111.851184 319.057017 
L 114.165299 317.886406 
L 116.567152 316.715796 
L 119.06007 315.545185 
L 121.647507 314.374574 
L 124.333044 313.203963 
L 127.120403 312.033353 
L 130.013444 310.862742 
L 133.016173 309.692131 
L 136.132749 308.521521 
L 139.367489 307.35091 
L 142.724873 306.180299 
L 146.209551 305.009688 
L 149.826348 303.839078 
L 153.580275 302.668467 
L 157.476531 301.497856 
L 161.520512 300.327245 
L 165.717818 299.156635 
L 170.074264 297.986024 
L 174.595882 296.815413 
L 179.288936 295.644803 
L 184.159925 294.474192 
L 189.215596 293.303581 
L 194.46295 292.13297 
L 199.909255 290.96236 
L 205.562055 289.791749 
L 211.429179 288.621138 
L 217.518752 287.450527 
L 223.839208 286.279917 
L 230.399303 285.109306 
L 237.20812 283.938695 
L 244.275091 282.768085 
L 251.610003 281.597474 
L 259.223016 280.426863 
L 267.124673 279.256252 
L 275.325917 278.085642 
L 283.838109 276.915031 
L 292.673037 275.74442 
L 301.842937 274.573809 
L 311.360511 273.403199 
L 321.238939 272.232588 
L 331.491904 271.061977 
L 342.133606 269.891367 
L 353.178784 268.720756 
L 364.642735 267.550145 
L 376.541337 266.379534 
L 388.891069 265.208924 
L 401.709037 264.038313 
L 415.012992 262.867702 
L 428.821362 261.697091 
L 443.15327 260.526481 
" style="fill:none;stroke:#000000;stroke-linecap:square;stroke-width:1.5;"/>
   </g>
   <g id="patch_3">
    <path d="M 50.81625 303.985404 
L 50.81625 14.259249 
" style="fill:none;stroke:#000000;stroke-linecap:square;stroke-linejoin:miter;stroke-width:0.8;"/>
   </g>
   <g id="patch_4">
    <path d="M 445.018665 303.985404 
L 445.018665 14.259249 
" style="fill:none;stroke:#000000;stroke-linecap:square;stroke-linejoin:miter;stroke-width:0.8;"/>
   </g>
   <g id="patch_5">
    <path d="M 50.81625 303.985404 
L 445.018665 303.985404 
" style="fill:none;stroke:#000000;stroke-linecap:square;stroke-linejoin:miter;stroke-width:0.8;"/>
   </g>
   <g id="patch_6">
    <path d="M 50.81625 14.259249 
L 445.018665 14.259249 
" style="fill:none;stroke:#000000;stroke-linecap:square;stroke-linejoin:miter;stroke-width:0.8;"/>
   </g>
   <g id="legend_1">
    <g id="patch_7">
     <path d="M 300.753634 82.455213 
L 438.018665 82.455213 
Q 440.018665 82.455213 440.018665 80.455213 
L 440.018665 21.259249 
Q 440.018665 19.259249 438.018665 19.259249 
L 300.753634 19.259249 
Q 298.753634 19.259249 298.753634 21.259249 
L 298.753634 80.455213 
Q 298.753634 82.455213 300.753634 82.455213 
z
" style="fill:#ffffff;opacity:0.8;stroke:#cccccc;stroke-linejoin:miter;"/>
    </g>
    <g id="line2d_101">
     <path d="M 302.753634 26.759249 
L 322.753634 26.759249 
" style="fill:none;stroke:#0088ff;stroke-linecap:square;stroke-width:1.5;"/>
    </g>
    <g id="line2d_102"/>
    <g id="text_17">
     <!-- linear $\tau = 5.0 \textrm{ ns}$ -->
     <g transform="translate(330.753634 30.259249)scale(0.1 -0.1)">
      <defs>
       <path d="M 28.703125 37.59375 
L 45.296875 37.59375 
C 46.59375 37.59375 49.90625 37.59375 49.90625 40.796875 
C 49.90625 43 48 43 46.203125 43 
L 18.703125 43 
C 16.40625 43 13 43 8.40625 38.09375 
C 5.796875 35.203125 2.59375 29.9375 2.59375 29.34375 
C 2.59375 28.734375 3.09375 28.546875 3.703125 28.546875 
C 4.40625 28.546875 4.5 28.84375 5 29.4375 
C 10.203125 37.59375 15.40625 37.59375 17.90625 37.59375 
L 26.203125 37.59375 
L 15.796875 3.484375 
C 15.296875 1.984375 15.296875 1.78125 15.296875 1.484375 
C 15.296875 0.390625 16 -1 18 -1 
C 21.09375 -1 21.59375 1.6875 21.90625 3.1875 
z
" id="CMMI12-28"/>
       <path d="M 64.296875 32 
C 65.796875 32 67.296875 32 67.296875 33.6875 
C 67.296875 35.5 65.59375 35.5 63.90625 35.5 
L 8 35.5 
C 6.296875 35.5 4.59375 35.5 4.59375 33.6875 
C 4.59375 32 6.09375 32 7.59375 32 
z
M 63.90625 14.484375 
C 65.59375 14.484375 67.296875 14.484375 67.296875 16.296875 
C 67.296875 18 65.796875 18 64.296875 18 
L 7.59375 18 
C 6.09375 18 4.59375 18 4.59375 16.296875 
C 4.59375 14.484375 6.296875 14.484375 8 14.484375 
z
" id="CMR17-61"/>
       <path d="M 18.40625 4.796875 
C 18.40625 7.6875 16 9.6875 13.59375 9.6875 
C 10.703125 9.6875 8.703125 7.296875 8.703125 4.890625 
C 8.703125 2 11.09375 0 13.5 0 
C 16.40625 0 18.40625 2.390625 18.40625 4.796875 
z
" id="CMMI12-58"/>
      </defs>
      <use transform="scale(0.996264)" xlink:href="#CMR17-108"/>
      <use transform="translate(24.871058 0)scale(0.996264)" xlink:href="#CMR17-105"/>
      <use transform="translate(49.742117 0)scale(0.996264)" xlink:href="#CMR17-110"/>
      <use transform="translate(100.637487 0)scale(0.996264)" xlink:href="#CMR17-101"/>
      <use transform="translate(141.123147 0)scale(0.996264)" xlink:href="#CMR17-97"/>
      <use transform="translate(186.813624 0)scale(0.996264)" xlink:href="#CMR17-114"/>
      <use transform="translate(252.170358 0)scale(0.996264)" xlink:href="#CMMI12-28"/>
      <use transform="translate(333.335533 0)scale(0.996264)" xlink:href="#CMR17-61"/>
      <use transform="translate(432.72433 0)scale(0.996264)" xlink:href="#CMR17-53"/>
      <use transform="translate(478.414807 0)scale(0.996264)" xlink:href="#CMMI12-58"/>
      <use transform="translate(505.511984 0)scale(0.996264)" xlink:href="#CMR17-48"/>
      <use transform="translate(581.278427 0)scale(0.996264)" xlink:href="#CMR17-110"/>
      <use transform="translate(632.173797 0)scale(0.996264)" xlink:href="#CMR17-115"/>
     </g>
    </g>
    <g id="line2d_103">
     <path d="M 302.753634 40.898312 
L 322.753634 40.898312 
" style="fill:none;stroke:#dd5500;stroke-linecap:square;stroke-width:1.5;"/>
    </g>
    <g id="line2d_104">
     <g>
      <use style="fill:#dd5500;stroke:#dd5500;" x="312.753634" xlink:href="#mab5061891d" y="40.898312"/>
     </g>
    </g>
    <g id="text_18">
     <!-- shaped $\tau = 5.0 \textrm{ ns}$ -->
     <g transform="translate(330.753634 44.398312)scale(0.1 -0.1)">
      <defs>
       <path d="M 41.5 30.53125 
C 41.5 35.65625 40.5 44 28.703125 44 
C 20.5 44 16.5 37.375 15.296875 34.046875 
L 15.203125 34.046875 
L 15.203125 69 
L 3.296875 67.890625 
L 3.296875 65.296875 
C 9.203125 65.296875 10.09375 64.703125 10.09375 60.046875 
L 10.09375 6.921875 
C 10.09375 3.09375 9.703125 2.59375 3.296875 2.59375 
L 3.296875 0 
C 5.703125 0.1875 10.09375 0.1875 12.703125 0.1875 
C 15.296875 0.1875 19.796875 0.1875 22.203125 0 
L 22.203125 2.59375 
C 15.796875 2.59375 15.40625 3 15.40625 6.921875 
L 15.40625 26.21875 
C 15.40625 35.453125 21 42.390625 28 42.390625 
C 35.40625 42.390625 36.203125 35.765625 36.203125 30.9375 
L 36.203125 6.921875 
C 36.203125 3.09375 35.796875 2.59375 29.40625 2.59375 
L 29.40625 0 
C 31.796875 0.1875 36.203125 0.1875 38.796875 0.1875 
C 41.40625 0.1875 45.90625 0.1875 48.296875 0 
L 48.296875 2.59375 
C 41.90625 2.59375 41.5 3 41.5 6.921875 
z
" id="CMR17-104"/>
       <path d="M 22 -17.40625 
C 15.59375 -17.40625 15.203125 -17 15.203125 -13.03125 
L 15.203125 5.9375 
C 18.09375 1.703125 22.296875 -1 27.59375 -1 
C 37.59375 -1 47.703125 7.859375 47.703125 21.59375 
C 47.703125 34.3125 39 44 28.703125 44 
C 22.703125 44 17.796875 40.671875 15 36.640625 
L 15 44 
L 3.09375 42.890625 
L 3.09375 40.265625 
C 9 40.265625 9.90625 39.671875 9.90625 34.8125 
L 9.90625 -13.03125 
C 9.90625 -16.890625 9.5 -17.40625 3.09375 -17.40625 
L 3.09375 -20 
C 5.5 -19.8125 9.90625 -19.8125 12.5 -19.8125 
C 15.09375 -19.8125 19.59375 -19.8125 22 -20 
z
M 15.203125 31.484375 
C 15.203125 32.90625 15.203125 35.015625 19.09375 38.765625 
C 19.59375 39.15625 23 42.1875 28 42.1875 
C 35.296875 42.1875 41.296875 33 41.296875 21.5 
C 41.296875 9.984375 34.90625 0.59375 27 0.59375 
C 23.40625 0.59375 19.5 2.3125 16.5 7.046875 
C 15.203125 9.28125 15.203125 9.875 15.203125 11.5 
z
" id="CMR17-112"/>
       <path d="M 29.203125 67.890625 
L 29.203125 65.296875 
C 35.09375 65.296875 36 64.703125 36 60.046875 
L 36 37.046875 
C 35.59375 37.546875 31.5 44 23.40625 44 
C 13.203125 44 3.296875 34.8125 3.296875 21.5 
C 3.296875 8.265625 12.59375 -1 22.40625 -1 
C 30.90625 -1 35.296875 5.640625 35.796875 6.34375 
L 35.796875 -1 
L 47.90625 -0.203125 
L 47.90625 2.40625 
C 42 2.40625 41.09375 3.015625 41.09375 7.859375 
L 41.09375 69 
z
M 35.796875 11.90625 
C 35.796875 8.875 34 6.140625 31.703125 4.125 
C 28.296875 1.09375 24.90625 0.59375 23 0.59375 
C 20.09375 0.59375 9.703125 2.109375 9.703125 21.390625 
C 9.703125 41.1875 21.296875 42.390625 23.90625 42.390625 
C 28.5 42.390625 32.203125 39.765625 34.5 36.140625 
C 35.796875 34.015625 35.796875 33.703125 35.796875 31.890625 
z
" id="CMR17-100"/>
      </defs>
      <use transform="scale(0.996264)" xlink:href="#CMR17-115"/>
      <use transform="translate(35.801338 0)scale(0.996264)" xlink:href="#CMR17-104"/>
      <use transform="translate(86.696707 0)scale(0.996264)" xlink:href="#CMR17-97"/>
      <use transform="translate(132.387185 0)scale(0.996264)" xlink:href="#CMR17-112"/>
      <use transform="translate(185.884993 0)scale(0.996264)" xlink:href="#CMR17-101"/>
      <use transform="translate(226.370654 0)scale(0.996264)" xlink:href="#CMR17-100"/>
      <use transform="translate(307.34199 0)scale(0.996264)" xlink:href="#CMMI12-28"/>
      <use transform="translate(388.507164 0)scale(0.996264)" xlink:href="#CMR17-61"/>
      <use transform="translate(487.895961 0)scale(0.996264)" xlink:href="#CMR17-53"/>
      <use transform="translate(533.586438 0)scale(0.996264)" xlink:href="#CMMI12-58"/>
      <use transform="translate(560.683615 0)scale(0.996264)" xlink:href="#CMR17-48"/>
      <use transform="translate(636.450058 0)scale(0.996264)" xlink:href="#CMR17-110"/>
      <use transform="translate(687.345428 0)scale(0.996264)" xlink:href="#CMR17-115"/>
     </g>
    </g>
    <g id="line2d_105">
     <path d="M 302.753634 55.509354 
L 322.753634 55.509354 
" style="fill:none;stroke:#000000;stroke-linecap:square;stroke-width:1.5;"/>
    </g>
    <g id="line2d_106"/>
    <g id="text_19">
     <!-- $t_\textrm{f}/T_1$, $T_1=0.1\textrm{ ns}$ decay -->
     <g transform="translate(330.753634 59.009354)scale(0.1 -0.1)">
      <defs>
       <path d="M 42.90625 71.296875 
C 42.90625 71.390625 43.5 72.890625 43.5 73.09375 
C 43.5 74.296875 42.5 75 41.703125 75 
C 41.203125 75 40.296875 75 39.5 72.796875 
L 6 -21.3125 
C 6 -21.40625 5.40625 -22.90625 5.40625 -23.109375 
C 5.40625 -24.3125 6.40625 -25 7.203125 -25 
C 7.796875 -25 8.703125 -24.90625 9.40625 -22.8125 
z
" id="CMMI12-61"/>
       <path d="M 41.703125 60.71875 
C 42.296875 63.09375 42.5 64 44 64.390625 
C 44.796875 64.59375 48.09375 64.59375 50.203125 64.59375 
C 60.203125 64.59375 64.90625 64.203125 64.90625 56.4375 
C 64.90625 54.9375 64.5 51.15625 63.90625 47.46875 
L 63.796875 46.28125 
C 63.796875 45.890625 64.203125 45.28125 64.796875 45.28125 
C 65.796875 45.28125 65.796875 45.78125 66.09375 47.375 
L 69 64.984375 
C 69.203125 65.890625 69.203125 66.09375 69.203125 66.390625 
C 69.203125 67.484375 68.59375 67.484375 66.59375 67.484375 
L 11.90625 67.484375 
C 9.59375 67.484375 9.5 67.390625 8.90625 65.59375 
L 2.796875 47.671875 
C 2.703125 47.46875 2.40625 46.375 2.40625 46.28125 
C 2.40625 45.78125 2.796875 45.28125 3.40625 45.28125 
C 4.203125 45.28125 4.40625 45.6875 4.796875 46.984375 
C 9 59.015625 11.09375 64.59375 24.40625 64.59375 
L 31.09375 64.59375 
C 33.5 64.59375 34.5 64.59375 34.5 63.5 
C 34.5 63.203125 34.5 63 34 61.203125 
L 20.59375 7.765625 
C 19.59375 3.890625 19.40625 2.890625 8.796875 2.890625 
C 6.296875 2.890625 5.59375 2.890625 5.59375 1 
C 5.59375 0 6.703125 0 7.203125 0 
C 9.703125 0 12.296875 0.1875 14.796875 0.1875 
L 30.40625 0.1875 
C 32.90625 0.1875 35.59375 0 38.09375 0 
C 39.203125 0 40.203125 0 40.203125 1.890625 
C 40.203125 2.890625 39.5 2.890625 36.90625 2.890625 
C 27.90625 2.890625 27.90625 3.78125 27.90625 5.28125 
C 27.90625 5.375 27.90625 6.078125 28.296875 7.671875 
z
" id="CMMI12-84"/>
       <path d="M 15.796875 1.59375 
C 16 0.6875 16 0.390625 16 -1.1875 
C 16 -7.046875 14 -12.421875 9.796875 -17.3125 
C 9.296875 -17.8125 9.296875 -18 9.296875 -18.203125 
C 9.296875 -18.609375 9.703125 -19 10.09375 -19 
C 10.703125 -19 17.59375 -12.125 17.59375 -1.28125 
C 17.59375 2 17.203125 8.1875 12.5 8.1875 
C 10.296875 8.1875 8.40625 6.6875 8.40625 4.09375 
C 8.40625 1.5 10.296875 0 12.5 0 
C 13.703125 0 15 0.5 15.796875 1.59375 
z
" id="CMR17-44"/>
       <path d="M 39 34.109375 
C 41.5 40.296875 46 40.390625 47.40625 40.390625 
L 47.40625 43 
C 45.5 42.890625 43 42.796875 41.09375 42.796875 
C 39 42.796875 35.703125 42.796875 33.703125 43 
L 33.703125 40.390625 
C 37.5 40.09375 37.59375 37.25 37.59375 36.4375 
C 37.59375 35.4375 37.40625 34.921875 36.90625 33.71875 
L 26 6.390625 
L 14.09375 35.9375 
C 13.59375 37.15625 13.59375 37.859375 13.59375 37.96875 
C 13.59375 40.1875 15.90625 40.390625 18.296875 40.390625 
L 18.296875 43 
C 15.90625 42.796875 11.59375 42.796875 9.09375 42.796875 
C 6.40625 42.796875 3.203125 42.796875 1 43 
L 1 40.390625 
C 6.40625 40.390625 7 39.890625 8.296875 36.640625 
L 23.203125 -0.484375 
C 18.703125 -12.421875 16.09375 -19.40625 9.796875 -19.40625 
C 8.703125 -19.40625 6.203125 -19.109375 4.40625 -17.28125 
C 6.703125 -17.078125 7.703125 -15.65625 7.703125 -13.9375 
C 7.703125 -12.21875 6.5 -10.703125 4.5 -10.703125 
C 2.296875 -10.703125 1.203125 -12.21875 1.203125 -14.046875 
C 1.203125 -18.09375 5.296875 -21 9.796875 -21 
C 15.59375 -21 19.203125 -15.359375 21.203125 -10.296875 
z
" id="CMR17-121"/>
      </defs>
      <use transform="scale(0.996264)" xlink:href="#CMMI12-116"/>
      <use transform="translate(35.22633 -34.869286)scale(0.996264)" xlink:href="#CMR17-102"/>
      <use transform="translate(63.197975 0)scale(0.996264)" xlink:href="#CMMI12-61"/>
      <use transform="translate(111.972893 0)scale(0.996264)" xlink:href="#CMMI12-84"/>
      <use transform="translate(169.147937 -14.943915)scale(0.697382)" xlink:href="#CMR17-49"/>
      <use transform="translate(201.629251 0)scale(0.996264)" xlink:href="#CMR17-44"/>
      <use transform="translate(256.576276 0)scale(0.996264)" xlink:href="#CMMI12-84"/>
      <use transform="translate(313.75132 -14.943915)scale(0.697382)" xlink:href="#CMR17-49"/>
      <use transform="translate(373.906642 0)scale(0.996264)" xlink:href="#CMR17-61"/>
      <use transform="translate(473.295439 0)scale(0.996264)" xlink:href="#CMR17-48"/>
      <use transform="translate(518.985916 0)scale(0.996264)" xlink:href="#CMMI12-58"/>
      <use transform="translate(546.083094 0)scale(0.996264)" xlink:href="#CMR17-49"/>
      <use transform="translate(621.849537 0)scale(0.996264)" xlink:href="#CMR17-110"/>
      <use transform="translate(672.744907 0)scale(0.996264)" xlink:href="#CMR17-115"/>
      <use transform="translate(738.622211 0)scale(0.996264)" xlink:href="#CMR17-100"/>
      <use transform="translate(789.517581 0)scale(0.996264)" xlink:href="#CMR17-101"/>
      <use transform="translate(830.003241 0)scale(0.996264)" xlink:href="#CMR17-99"/>
      <use transform="translate(870.488901 0)scale(0.996264)" xlink:href="#CMR17-97"/>
      <use transform="translate(913.576925 0)scale(0.996264)" xlink:href="#CMR17-121"/>
     </g>
    </g>
    <g id="line2d_107">
     <path d="M 302.753634 71.468274 
L 322.753634 71.468274 
" style="fill:none;stroke:#000000;stroke-linecap:square;stroke-width:1.5;"/>
    </g>
    <g id="line2d_108"/>
    <g id="text_20">
     <!-- $t_\textrm{f}/T_1$, $T_1= 1\textrm{ ns}$ decay -->
     <g transform="translate(330.753634 74.968274)scale(0.1 -0.1)">
      <use transform="scale(0.996264)" xlink:href="#CMMI12-116"/>
      <use transform="translate(35.22633 -34.869286)scale(0.996264)" xlink:href="#CMR17-102"/>
      <use transform="translate(63.197975 0)scale(0.996264)" xlink:href="#CMMI12-61"/>
      <use transform="translate(111.972893 0)scale(0.996264)" xlink:href="#CMMI12-84"/>
      <use transform="translate(169.147937 -14.943915)scale(0.697382)" xlink:href="#CMR17-49"/>
      <use transform="translate(201.629251 0)scale(0.996264)" xlink:href="#CMR17-44"/>
      <use transform="translate(256.576276 0)scale(0.996264)" xlink:href="#CMMI12-84"/>
      <use transform="translate(313.75132 -14.943915)scale(0.697382)" xlink:href="#CMR17-49"/>
      <use transform="translate(373.906642 0)scale(0.996264)" xlink:href="#CMR17-61"/>
      <use transform="translate(473.295439 0)scale(0.996264)" xlink:href="#CMR17-49"/>
      <use transform="translate(549.061883 0)scale(0.996264)" xlink:href="#CMR17-110"/>
      <use transform="translate(599.957253 0)scale(0.996264)" xlink:href="#CMR17-115"/>
      <use transform="translate(665.834557 0)scale(0.996264)" xlink:href="#CMR17-100"/>
      <use transform="translate(716.729926 0)scale(0.996264)" xlink:href="#CMR17-101"/>
      <use transform="translate(757.215587 0)scale(0.996264)" xlink:href="#CMR17-99"/>
      <use transform="translate(797.701247 0)scale(0.996264)" xlink:href="#CMR17-97"/>
      <use transform="translate(840.78927 0)scale(0.996264)" xlink:href="#CMR17-121"/>
     </g>
    </g>
   </g>
  </g>
 </g>
 <defs>
  <clipPath id="pa83490950e">
   <rect height="289.726155" width="394.202415" x="50.81625" y="14.259249"/>
  </clipPath>
 </defs>
</svg>
