<?xml version="1.0" encoding="utf-8" standalone="no"?>
<!DOCTYPE svg PUBLIC "-//W3C//DTD SVG 1.1//EN"
  "http://www.w3.org/Graphics/SVG/1.1/DTD/svg11.dtd">
<!-- Created with matplotlib (https://matplotlib.org/) -->
<svg height="345.6pt" version="1.1" viewBox="0 0 460.8 345.6" width="460.8pt" xmlns="http://www.w3.org/2000/svg" xmlns:xlink="http://www.w3.org/1999/xlink">
 <defs>
  <style type="text/css">
*{stroke-linecap:butt;stroke-linejoin:round;}
  </style>
 </defs>
 <g id="figure_1">
  <g id="patch_1">
   <path d="M 0 345.6 
L 460.8 345.6 
L 460.8 0 
L 0 0 
z
" style="fill:#ffffff;"/>
  </g>
  <g id="axes_1">
   <g id="patch_2">
    <path d="M 50.81625 305.440291 
L 445.018665 305.440291 
L 445.018665 14.259249 
L 50.81625 14.259249 
z
" style="fill:#ffffff;"/>
   </g>
   <g id="PolyCollection_1">
    <path clip-path="url(#p06b855a612)" d="M 60.67131 22.836502 
L 60.67131 22.987608 
L 67.0771 23.496707 
L 73.482889 24.326524 
L 79.888678 25.452235 
L 86.294467 26.812818 
L 92.700257 28.45989 
L 99.106046 30.387085 
L 105.511835 32.616457 
L 111.917624 35.063486 
L 118.323414 37.881589 
L 124.729203 40.910381 
L 131.134992 44.237841 
L 137.540781 47.940093 
L 143.946571 51.753623 
L 150.35236 56.084963 
L 156.758149 60.508717 
L 163.163938 65.294595 
L 169.569728 70.589416 
L 175.975517 75.861713 
L 182.381306 81.491072 
L 188.787095 87.457852 
L 195.192884 93.4126 
L 201.598674 99.844154 
L 208.004463 106.283104 
L 214.410252 112.856142 
L 220.816041 119.482891 
L 227.221831 126.007314 
L 233.62762 132.758982 
L 240.033409 138.96465 
L 246.439198 144.972318 
L 252.844988 150.87194 
L 259.250777 155.703126 
L 265.656566 160.88653 
L 272.062355 165.403286 
L 278.468145 169.850624 
L 284.873934 171.140183 
L 291.279723 176.11284 
L 297.685512 178.932268 
L 304.091302 180.575536 
L 310.497091 185.405305 
L 316.90288 188.248821 
L 323.308669 190.238342 
L 329.714458 196.019938 
L 336.120248 196.164338 
L 342.526037 203.31921 
L 348.931826 206.737543 
L 355.337615 209.869812 
L 361.743405 216.785881 
L 368.149194 218.806387 
L 374.554983 230.815369 
L 380.960772 236.471478 
L 387.366562 244.191934 
L 393.772351 249.507499 
L 400.17814 252.074327 
L 406.583929 262.894039 
L 412.989719 271.795862 
L 419.395508 278.270163 
L 425.801297 287.692079 
L 432.207086 268.836669 
L 438.612876 289.581111 
L 445.018665 273.765923 
L 445.018665 261.93151 
L 445.018665 261.93151 
L 438.612876 264.823275 
L 432.207086 259.911674 
L 425.801297 264.468499 
L 419.395508 256.200265 
L 412.989719 255.970606 
L 406.583929 247.784917 
L 400.17814 237.211295 
L 393.772351 238.950364 
L 387.366562 231.448489 
L 380.960772 225.950188 
L 374.554983 222.532095 
L 368.149194 210.858635 
L 361.743405 208.734084 
L 355.337615 203.972416 
L 348.931826 199.933266 
L 342.526037 196.832309 
L 336.120248 192.044936 
L 329.714458 190.456367 
L 323.308669 186.024968 
L 316.90288 182.937432 
L 310.497091 183.23575 
L 304.091302 177.838023 
L 297.685512 176.275194 
L 291.279723 173.220402 
L 284.873934 168.946089 
L 278.468145 167.002111 
L 272.062355 163.188502 
L 265.656566 159.423474 
L 259.250777 154.167882 
L 252.844988 149.811082 
L 246.439198 144.301341 
L 240.033409 138.013181 
L 233.62762 131.907119 
L 227.221831 125.38348 
L 220.816041 118.807205 
L 214.410252 112.20414 
L 208.004463 105.826771 
L 201.598674 99.258428 
L 195.192884 93.045114 
L 188.787095 87.035753 
L 182.381306 81.082821 
L 175.975517 75.437521 
L 169.569728 70.20625 
L 163.163938 65.075755 
L 156.758149 60.282251 
L 150.35236 55.816519 
L 143.946571 51.578839 
L 137.540781 47.702456 
L 131.134992 44.066704 
L 124.729203 40.739816 
L 118.323414 37.734055 
L 111.917624 34.887154 
L 105.511835 32.412739 
L 99.106046 30.244263 
L 92.700257 28.298816 
L 86.294467 26.648328 
L 79.888678 25.314999 
L 73.482889 24.208657 
L 67.0771 23.391869 
L 60.67131 22.836502 
z
" style="fill:#0088ff;fill-opacity:0.15;"/>
   </g>
   <g id="PolyCollection_2">
    <path clip-path="url(#p06b855a612)" d="M 60.67131 23.056356 
L 60.67131 23.223779 
L 67.0771 24.037333 
L 73.482889 25.313871 
L 79.888678 27.037299 
L 86.294467 29.233596 
L 92.700257 31.823201 
L 99.106046 34.978569 
L 105.511835 38.645997 
L 111.917624 42.911209 
L 118.323414 47.737321 
L 124.729203 53.282655 
L 131.134992 59.389866 
L 137.540781 66.449793 
L 143.946571 74.180143 
L 150.35236 83.116017 
L 156.758149 93.034032 
L 163.163938 104.296177 
L 169.569728 116.964318 
L 175.975517 132.048246 
L 182.381306 149.177668 
L 188.787095 169.791659 
L 195.192884 194.346183 
L 201.598674 225.4222 
L 208.004463 259.338413 
L 214.410252 276.61998 
L 220.816041 261.178646 
L 227.221831 235.713602 
L 233.62762 215.821422 
L 240.033409 200.145729 
L 246.439198 189.439497 
L 252.844988 182.501257 
L 259.250777 177.546163 
L 265.656566 175.636665 
L 272.062355 175.392096 
L 278.468145 175.97113 
L 284.873934 179.057549 
L 291.279723 182.274277 
L 297.685512 188.396739 
L 304.091302 196.09518 
L 310.497091 202.349448 
L 316.90288 211.823849 
L 323.308669 225.545578 
L 329.714458 243.957542 
L 336.120248 257.714854 
L 342.526037 266.313661 
L 348.931826 278.581745 
L 355.337615 282.1305 
L 361.743405 257.00632 
L 368.149194 252.116669 
L 374.554983 252.044905 
L 380.960772 246.730235 
L 387.366562 233.583394 
L 393.772351 227.593527 
L 400.17814 230.87081 
L 406.583929 222.417736 
L 412.989719 224.056694 
L 419.395508 221.10756 
L 425.801297 226.230405 
L 432.207086 231.114242 
L 438.612876 231.544093 
L 445.018665 236.115172 
L 445.018665 221.982263 
L 445.018665 221.982263 
L 438.612876 219.153685 
L 432.207086 215.817197 
L 425.801297 216.738891 
L 419.395508 211.492077 
L 412.989719 214.907065 
L 406.583929 210.786285 
L 400.17814 223.111036 
L 393.772351 216.951853 
L 387.366562 224.478095 
L 380.960772 230.122788 
L 374.554983 240.313784 
L 368.149194 242.587661 
L 361.743405 247.288733 
L 355.337615 265.813904 
L 348.931826 271.781742 
L 342.526037 255.034962 
L 336.120248 247.03988 
L 329.714458 231.689291 
L 323.308669 219.171706 
L 316.90288 205.32248 
L 310.497091 198.173112 
L 304.091302 190.63646 
L 297.685512 185.119882 
L 291.279723 179.643638 
L 284.873934 176.818412 
L 278.468145 173.028487 
L 272.062355 172.838544 
L 265.656566 173.343542 
L 259.250777 175.591747 
L 252.844988 180.48498 
L 246.439198 187.883639 
L 240.033409 197.895549 
L 233.62762 212.68418 
L 227.221831 233.026801 
L 220.816041 257.412091 
L 214.410252 272.084862 
L 208.004463 255.371797 
L 201.598674 222.400082 
L 195.192884 191.98062 
L 188.787095 168.697486 
L 182.381306 148.348378 
L 175.975517 130.941767 
L 169.569728 116.493228 
L 163.163938 103.753758 
L 156.758149 92.695419 
L 150.35236 82.703647 
L 143.946571 73.849235 
L 137.540781 66.214954 
L 131.134992 59.145508 
L 124.729203 52.956983 
L 118.323414 47.515089 
L 111.917624 42.706996 
L 105.511835 38.511281 
L 99.106046 34.819595 
L 92.700257 31.673553 
L 86.294467 29.072281 
L 79.888678 26.884281 
L 73.482889 25.145972 
L 67.0771 23.864577 
L 60.67131 23.056356 
z
" style="fill:#dd5500;fill-opacity:0.15;"/>
   </g>
   <g id="matplotlib.axis_1">
    <g id="xtick_1">
     <g id="line2d_1">
      <path clip-path="url(#p06b855a612)" d="M 50.81625 305.440291 
L 50.81625 14.259249 
" style="fill:none;stroke:#dddddd;stroke-linecap:square;stroke-width:0.5;"/>
     </g>
     <g id="line2d_2">
      <defs>
       <path d="M 0 0 
L 0 3.5 
" id="m39512ca464" style="stroke:#000000;stroke-width:0.8;"/>
      </defs>
      <g>
       <use style="stroke:#000000;stroke-width:0.8;" x="50.81625" xlink:href="#m39512ca464" y="305.440291"/>
      </g>
     </g>
     <g id="text_1">
      <!-- $\mathdefault{0}$ -->
      <defs>
       <path d="M 42 31.84375 
C 42 37.96875 41.90625 48.421875 37.703125 56.453125 
C 34 63.484375 28.09375 66 22.90625 66 
C 18.09375 66 12 63.78125 8.203125 56.5625 
C 4.203125 49.015625 3.796875 39.671875 3.796875 31.84375 
C 3.796875 26.109375 3.90625 17.375 7 9.734375 
C 11.296875 -0.609375 19 -2 22.90625 -2 
C 27.5 -2 34.5 -0.109375 38.59375 9.4375 
C 41.59375 16.375 42 24.5 42 31.84375 
z
M 22.90625 -0.40625 
C 16.5 -0.40625 12.703125 5.125 11.296875 12.75 
C 10.203125 18.6875 10.203125 27.328125 10.203125 32.953125 
C 10.203125 40.6875 10.203125 47.109375 11.5 53.234375 
C 13.40625 61.78125 19 64.390625 22.90625 64.390625 
C 27 64.390625 32.296875 61.671875 34.203125 53.4375 
C 35.5 47.71875 35.59375 40.984375 35.59375 32.953125 
C 35.59375 26.421875 35.59375 18.375 34.40625 12.453125 
C 32.296875 1.5 26.40625 -0.40625 22.90625 -0.40625 
z
" id="CMR17-48"/>
      </defs>
      <g transform="translate(48.325582 319.358789)scale(0.1 -0.1)">
       <use transform="scale(0.996264)" xlink:href="#CMR17-48"/>
      </g>
     </g>
    </g>
    <g id="xtick_2">
     <g id="line2d_3">
      <path clip-path="url(#p06b855a612)" d="M 100.091552 305.440291 
L 100.091552 14.259249 
" style="fill:none;stroke:#dddddd;stroke-linecap:square;stroke-width:0.5;"/>
     </g>
     <g id="line2d_4">
      <g>
       <use style="stroke:#000000;stroke-width:0.8;" x="100.091552" xlink:href="#m39512ca464" y="305.440291"/>
      </g>
     </g>
     <g id="text_2">
      <!-- $\mathdefault{5}$ -->
      <defs>
       <path d="M 11.40625 58.59375 
C 12.40625 58.1875 16.5 56.890625 20.703125 56.890625 
C 30 56.890625 35.09375 61.890625 38 64.6875 
C 38 65.484375 38 66 37.40625 66 
C 37.296875 66 37.09375 66 36.296875 65.59375 
C 32.796875 64.09375 28.703125 63 23.703125 63 
C 20.703125 63 16.203125 63.359375 11.296875 65.484375 
C 10.203125 66 10 66 9.90625 66 
C 9.40625 66 9.296875 65.890625 9.296875 63.90625 
L 9.296875 34.859375 
C 9.296875 33.015625 9.296875 32.5 10.296875 32.5 
C 10.796875 32.5 11 32.703125 11.5 33.421875 
C 14.703125 38.046875 19.09375 40 24.09375 40 
C 27.59375 40 35.09375 37.734375 35.09375 20.203125 
C 35.09375 16.984375 35.09375 11.1875 32.09375 6.59375 
C 29.59375 2.484375 25.703125 0.390625 21.40625 0.390625 
C 14.796875 0.390625 8.09375 4.984375 6.296875 12.6875 
C 6.703125 12.59375 7.5 12.390625 7.90625 12.390625 
C 9.203125 12.390625 11.703125 13.09375 11.703125 16.1875 
C 11.703125 18.890625 9.796875 20 7.90625 20 
C 5.59375 20 4.09375 18.59375 4.09375 15.796875 
C 4.09375 7.09375 11 -2 21.59375 -2 
C 31.90625 -2 41.703125 6.890625 41.703125 19.796875 
C 41.703125 32.09375 33.90625 41.59375 24.203125 41.59375 
C 19.09375 41.59375 14.796875 39.6875 11.40625 36 
z
" id="CMR17-53"/>
      </defs>
      <g transform="translate(97.600884 319.358789)scale(0.1 -0.1)">
       <use transform="scale(0.996264)" xlink:href="#CMR17-53"/>
      </g>
     </g>
    </g>
    <g id="xtick_3">
     <g id="line2d_5">
      <path clip-path="url(#p06b855a612)" d="M 149.366854 305.440291 
L 149.366854 14.259249 
" style="fill:none;stroke:#dddddd;stroke-linecap:square;stroke-width:0.5;"/>
     </g>
     <g id="line2d_6">
      <g>
       <use style="stroke:#000000;stroke-width:0.8;" x="149.366854" xlink:href="#m39512ca464" y="305.440291"/>
      </g>
     </g>
     <g id="text_3">
      <!-- $\mathdefault{10}$ -->
      <defs>
       <path d="M 26.59375 63.796875 
C 26.59375 65.890625 26.5 66 25.09375 66 
C 21.203125 61.359375 15.296875 59.890625 9.703125 59.6875 
C 9.40625 59.6875 8.90625 59.6875 8.796875 59.5 
C 8.703125 59.296875 8.703125 59.09375 8.703125 57 
C 11.796875 57 17 57.59375 21 59.984375 
L 21 7.296875 
C 21 3.796875 20.796875 2.59375 12.203125 2.59375 
L 9.203125 2.59375 
L 9.203125 0 
C 14 0.09375 19 0.1875 23.796875 0.1875 
C 28.59375 0.1875 33.59375 0.09375 38.40625 0 
L 38.40625 2.59375 
L 35.40625 2.59375 
C 26.796875 2.59375 26.59375 3.6875 26.59375 7.296875 
z
" id="CMR17-49"/>
      </defs>
      <g transform="translate(144.385519 319.358789)scale(0.1 -0.1)">
       <use transform="scale(0.996264)" xlink:href="#CMR17-49"/>
       <use transform="translate(45.690477 0)scale(0.996264)" xlink:href="#CMR17-48"/>
      </g>
     </g>
    </g>
    <g id="xtick_4">
     <g id="line2d_7">
      <path clip-path="url(#p06b855a612)" d="M 198.642156 305.440291 
L 198.642156 14.259249 
" style="fill:none;stroke:#dddddd;stroke-linecap:square;stroke-width:0.5;"/>
     </g>
     <g id="line2d_8">
      <g>
       <use style="stroke:#000000;stroke-width:0.8;" x="198.642156" xlink:href="#m39512ca464" y="305.440291"/>
      </g>
     </g>
     <g id="text_4">
      <!-- $\mathdefault{15}$ -->
      <g transform="translate(193.66082 319.358789)scale(0.1 -0.1)">
       <use transform="scale(0.996264)" xlink:href="#CMR17-49"/>
       <use transform="translate(45.690477 0)scale(0.996264)" xlink:href="#CMR17-53"/>
      </g>
     </g>
    </g>
    <g id="xtick_5">
     <g id="line2d_9">
      <path clip-path="url(#p06b855a612)" d="M 247.917457 305.440291 
L 247.917457 14.259249 
" style="fill:none;stroke:#dddddd;stroke-linecap:square;stroke-width:0.5;"/>
     </g>
     <g id="line2d_10">
      <g>
       <use style="stroke:#000000;stroke-width:0.8;" x="247.917457" xlink:href="#m39512ca464" y="305.440291"/>
      </g>
     </g>
     <g id="text_5">
      <!-- $\mathdefault{20}$ -->
      <defs>
       <path d="M 41.703125 15.46875 
L 39.90625 15.46875 
C 38.90625 8.390625 38.09375 7.1875 37.703125 6.59375 
C 37.203125 5.796875 30 5.796875 28.59375 5.796875 
L 9.40625 5.796875 
C 13 9.6875 20 16.765625 28.5 24.9375 
C 34.59375 30.71875 41.703125 37.5 41.703125 47.390625 
C 41.703125 59.1875 32.296875 66 21.796875 66 
C 10.796875 66 4.09375 56.296875 4.09375 47.296875 
C 4.09375 43.390625 7 42.890625 8.203125 42.890625 
C 9.203125 42.890625 12.203125 43.484375 12.203125 46.984375 
C 12.203125 50.09375 9.59375 51 8.203125 51 
C 7.59375 51 7 50.890625 6.59375 50.6875 
C 8.5 59.1875 14.296875 63.390625 20.40625 63.390625 
C 29.09375 63.390625 34.796875 56.5 34.796875 47.390625 
C 34.796875 38.703125 29.703125 31.21875 24 24.734375 
L 4.09375 2.296875 
L 4.09375 0 
L 39.296875 0 
z
" id="CMR17-50"/>
      </defs>
      <g transform="translate(242.936122 319.358789)scale(0.1 -0.1)">
       <use transform="scale(0.996264)" xlink:href="#CMR17-50"/>
       <use transform="translate(45.690477 0)scale(0.996264)" xlink:href="#CMR17-48"/>
      </g>
     </g>
    </g>
    <g id="xtick_6">
     <g id="line2d_11">
      <path clip-path="url(#p06b855a612)" d="M 297.192759 305.440291 
L 297.192759 14.259249 
" style="fill:none;stroke:#dddddd;stroke-linecap:square;stroke-width:0.5;"/>
     </g>
     <g id="line2d_12">
      <g>
       <use style="stroke:#000000;stroke-width:0.8;" x="297.192759" xlink:href="#m39512ca464" y="305.440291"/>
      </g>
     </g>
     <g id="text_6">
      <!-- $\mathdefault{25}$ -->
      <g transform="translate(292.211424 319.358789)scale(0.1 -0.1)">
       <use transform="scale(0.996264)" xlink:href="#CMR17-50"/>
       <use transform="translate(45.690477 0)scale(0.996264)" xlink:href="#CMR17-53"/>
      </g>
     </g>
    </g>
    <g id="xtick_7">
     <g id="line2d_13">
      <path clip-path="url(#p06b855a612)" d="M 346.468061 305.440291 
L 346.468061 14.259249 
" style="fill:none;stroke:#dddddd;stroke-linecap:square;stroke-width:0.5;"/>
     </g>
     <g id="line2d_14">
      <g>
       <use style="stroke:#000000;stroke-width:0.8;" x="346.468061" xlink:href="#m39512ca464" y="305.440291"/>
      </g>
     </g>
     <g id="text_7">
      <!-- $\mathdefault{30}$ -->
      <defs>
       <path d="M 22.09375 34 
C 31 34 34.90625 26.140625 34.90625 17.09375 
C 34.90625 5.03125 28.5 0.390625 22.703125 0.390625 
C 17.40625 0.390625 8.796875 3.015625 6.09375 10.796875 
C 6.59375 10.59375 7.09375 10.59375 7.59375 10.59375 
C 10 10.59375 11.796875 12.1875 11.796875 14.796875 
C 11.796875 17.6875 9.59375 19 7.59375 19 
C 5.90625 19 3.296875 18.1875 3.296875 14.484375 
C 3.296875 5.234375 12.296875 -2 22.90625 -2 
C 34 -2 42.5 6.75 42.5 16.984375 
C 42.5 26.84375 34.5 34 25 35.09375 
C 32.59375 36.671875 39.90625 43.375 39.90625 52.390625 
C 39.90625 60.25 32 66 23 66 
C 13.90625 66 5.90625 60.34375 5.90625 52.296875 
C 5.90625 48.796875 8.5 48.1875 9.796875 48.1875 
C 11.90625 48.1875 13.703125 49.484375 13.703125 52.09375 
C 13.703125 54.6875 11.90625 56 9.796875 56 
C 9.40625 56 8.90625 56 8.5 55.796875 
C 11.40625 62.484375 19.296875 63.6875 22.796875 63.6875 
C 26.296875 63.6875 32.90625 61.96875 32.90625 52.296875 
C 32.90625 49.484375 32.5 44.546875 29.09375 40.21875 
C 26.09375 36.390625 22.703125 36.1875 19.40625 35.890625 
C 18.90625 35.890625 16.59375 35.6875 16.203125 35.6875 
C 15.5 35.59375 15.09375 35.5 15.09375 34.796875 
C 15.09375 34.09375 15.203125 34 17.203125 34 
z
" id="CMR17-51"/>
      </defs>
      <g transform="translate(341.486726 319.358789)scale(0.1 -0.1)">
       <use transform="scale(0.996264)" xlink:href="#CMR17-51"/>
       <use transform="translate(45.690477 0)scale(0.996264)" xlink:href="#CMR17-48"/>
      </g>
     </g>
    </g>
    <g id="xtick_8">
     <g id="line2d_15">
      <path clip-path="url(#p06b855a612)" d="M 395.743363 305.440291 
L 395.743363 14.259249 
" style="fill:none;stroke:#dddddd;stroke-linecap:square;stroke-width:0.5;"/>
     </g>
     <g id="line2d_16">
      <g>
       <use style="stroke:#000000;stroke-width:0.8;" x="395.743363" xlink:href="#m39512ca464" y="305.440291"/>
      </g>
     </g>
     <g id="text_8">
      <!-- $\mathdefault{35}$ -->
      <g transform="translate(390.762028 319.358789)scale(0.1 -0.1)">
       <use transform="scale(0.996264)" xlink:href="#CMR17-51"/>
       <use transform="translate(45.690477 0)scale(0.996264)" xlink:href="#CMR17-53"/>
      </g>
     </g>
    </g>
    <g id="xtick_9">
     <g id="line2d_17">
      <path clip-path="url(#p06b855a612)" d="M 445.018665 305.440291 
L 445.018665 14.259249 
" style="fill:none;stroke:#dddddd;stroke-linecap:square;stroke-width:0.5;"/>
     </g>
     <g id="line2d_18">
      <g>
       <use style="stroke:#000000;stroke-width:0.8;" x="445.018665" xlink:href="#m39512ca464" y="305.440291"/>
      </g>
     </g>
     <g id="text_9">
      <!-- $\mathdefault{40}$ -->
      <defs>
       <path d="M 33.59375 64.796875 
C 33.59375 66.890625 33.5 67 31.703125 67 
L 2 19.59375 
L 2 17 
L 27.796875 17 
L 27.796875 7.1875 
C 27.796875 3.59375 27.59375 2.59375 20.59375 2.59375 
L 18.703125 2.59375 
L 18.703125 0 
C 21.90625 0.1875 27.296875 0.1875 30.703125 0.1875 
C 34.09375 0.1875 39.5 0.1875 42.703125 0 
L 42.703125 2.59375 
L 40.796875 2.59375 
C 33.796875 2.59375 33.59375 3.59375 33.59375 7.1875 
L 33.59375 17 
L 43.796875 17 
L 43.796875 19.59375 
L 33.59375 19.59375 
z
M 28.09375 58.171875 
L 28.09375 19.59375 
L 4 19.59375 
z
" id="CMR17-52"/>
      </defs>
      <g transform="translate(440.037329 319.358789)scale(0.1 -0.1)">
       <use transform="scale(0.996264)" xlink:href="#CMR17-52"/>
       <use transform="translate(45.690477 0)scale(0.996264)" xlink:href="#CMR17-48"/>
      </g>
     </g>
    </g>
    <g id="text_10">
     <!-- sweep time $t_f$ $[\textrm{ns}]$ -->
     <defs>
      <path d="M 30.90625 42 
C 30.90625 43.796875 30.796875 43.890625 30.203125 43.890625 
C 29.796875 43.890625 29.703125 43.796875 28.5 42.296875 
C 28.203125 41.890625 27.296875 40.890625 27 40.5 
C 23.796875 43.890625 19.296875 44 17.59375 44 
C 6.5 44 2.5 38.1875 2.5 32.390625 
C 2.5 23.390625 12.703125 21.296875 15.59375 20.6875 
C 21.90625 19.390625 24.09375 19 26.203125 17.1875 
C 27.5 16 29.703125 13.796875 29.703125 10.1875 
C 29.703125 6 27.296875 0.59375 18.09375 0.59375 
C 9.40625 0.59375 6.296875 7.1875 4.5 16 
C 4.203125 17.390625 4.203125 17.5 3.40625 17.5 
C 2.59375 17.5 2.5 17.390625 2.5 15.390625 
L 2.5 1 
C 2.5 -0.8125 2.59375 -0.90625 3.203125 -0.90625 
C 3.703125 -0.90625 3.796875 -0.8125 4.296875 0 
C 4.90625 0.890625 6.40625 3.296875 7 4.296875 
C 9 1.59375 12.5 -1 18.09375 -1 
C 28 -1 33.296875 4.390625 33.296875 12.1875 
C 33.296875 17.296875 30.59375 20 29.296875 21.1875 
C 26.296875 24.296875 22.796875 25 18.59375 25.796875 
C 13.09375 27 6.09375 28.390625 6.09375 34.5 
C 6.09375 37.09375 7.5 42.59375 17.59375 42.59375 
C 28.296875 42.59375 28.90625 32.59375 29.09375 29.390625 
C 29.203125 28.890625 29.703125 28.796875 30 28.796875 
C 30.90625 28.796875 30.90625 29.09375 30.90625 30.796875 
z
" id="CMR17-115"/>
      <path d="M 58.203125 34.15625 
C 60.203125 40.09375 64.203125 40.296875 65.703125 40.390625 
L 65.703125 43 
C 63.703125 42.890625 61.703125 42.796875 59.703125 42.796875 
C 57.796875 42.796875 53.5 42.796875 51.796875 43 
L 51.796875 40.390625 
C 54.90625 40.1875 56.59375 38.375 56.59375 35.875 
C 56.59375 35.171875 56.40625 34.265625 56.203125 33.5625 
L 46.796875 6.21875 
L 36.59375 35.875 
C 36.40625 36.578125 36.09375 37.375 36.09375 37.78125 
C 36.09375 40.390625 39.5 40.390625 41.09375 40.390625 
L 41.09375 43 
C 38.796875 42.796875 34.59375 42.796875 32.203125 42.796875 
C 29.703125 42.796875 27.09375 42.796875 24.796875 43 
L 24.796875 40.390625 
C 30.296875 40.390625 30.296875 40.1875 32.40625 33.859375 
L 23.203125 6.921875 
L 13.296875 35.96875 
C 12.796875 37.28125 12.796875 37.484375 12.796875 37.78125 
C 12.796875 40.390625 16.203125 40.390625 17.796875 40.390625 
L 17.796875 43 
C 15.40625 42.796875 11.203125 42.796875 8.703125 42.796875 
C 6.5 42.796875 3.09375 42.796875 1 43 
L 1 40.390625 
C 5.40625 40.390625 6.5 40.09375 7.59375 36.765625 
L 19.90625 0.59375 
C 20.296875 -0.703125 20.59375 -1 21.40625 -1 
C 22.09375 -1 22.5 -0.8125 23 0.6875 
L 33.296875 31.046875 
L 43.703125 0.6875 
C 44.203125 -0.8125 44.59375 -1 45.296875 -1 
C 46.09375 -1 46.40625 -0.703125 46.796875 0.59375 
z
" id="CMR17-119"/>
      <path d="M 38.09375 23.484375 
C 38.5 23.890625 38.5 24.09375 38.5 25.09375 
C 38.5 35.171875 33.09375 44 21.703125 44 
C 11.09375 44 2.703125 33.984375 2.703125 21.78125 
C 2.703125 8.65625 12.203125 -1 22.796875 -1 
C 34 -1 38.40625 9.671875 38.40625 11.796875 
C 38.40625 12.5 37.796875 12.5 37.59375 12.5 
C 36.90625 12.5 36.796875 12.296875 36.40625 11.078125 
C 34.203125 4.21875 28.703125 0.796875 23.5 0.796875 
C 19.203125 0.796875 14.90625 3.21875 12.203125 7.65625 
C 9.09375 12.796875 9.09375 18.75 9.09375 23.484375 
z
M 9.203125 25 
C 9.90625 39.234375 17.59375 42.390625 21.59375 42.390625 
C 28.40625 42.390625 33 36.0625 33.09375 25 
z
" id="CMR17-101"/>
      <path d="M 22 -17.40625 
C 15.59375 -17.40625 15.203125 -17 15.203125 -13.03125 
L 15.203125 5.9375 
C 18.09375 1.703125 22.296875 -1 27.59375 -1 
C 37.59375 -1 47.703125 7.859375 47.703125 21.59375 
C 47.703125 34.3125 39 44 28.703125 44 
C 22.703125 44 17.796875 40.671875 15 36.640625 
L 15 44 
L 3.09375 42.890625 
L 3.09375 40.265625 
C 9 40.265625 9.90625 39.671875 9.90625 34.8125 
L 9.90625 -13.03125 
C 9.90625 -16.890625 9.5 -17.40625 3.09375 -17.40625 
L 3.09375 -20 
C 5.5 -19.8125 9.90625 -19.8125 12.5 -19.8125 
C 15.09375 -19.8125 19.59375 -19.8125 22 -20 
z
M 15.203125 31.484375 
C 15.203125 32.90625 15.203125 35.015625 19.09375 38.765625 
C 19.59375 39.15625 23 42.1875 28 42.1875 
C 35.296875 42.1875 41.296875 33 41.296875 21.5 
C 41.296875 9.984375 34.90625 0.59375 27 0.59375 
C 23.40625 0.59375 19.5 2.3125 16.5 7.046875 
C 15.203125 9.28125 15.203125 9.875 15.203125 11.5 
z
" id="CMR17-112"/>
      <path d="M 15.09375 40.390625 
L 29.09375 40.390625 
L 29.09375 43 
L 15.09375 43 
L 15.09375 62 
L 13.296875 62 
C 13.09375 51.4375 9.59375 42.1875 1.09375 41.984375 
L 1.09375 40.390625 
L 9.796875 40.390625 
L 9.796875 12.15625 
C 9.796875 10.234375 9.796875 -1 21.40625 -1 
C 27.296875 -1 30.703125 4.8125 30.703125 12.25 
L 30.703125 17.984375 
L 28.90625 17.984375 
L 28.90625 12.34375 
C 28.90625 5.421875 26.203125 0.796875 22 0.796875 
C 19.09375 0.796875 15.09375 2.796875 15.09375 11.953125 
z
" id="CMR17-116"/>
      <path d="M 15.5 61.890625 
C 15.5 64.09375 13.703125 66 11.40625 66 
C 9.203125 66 7.296875 64.1875 7.296875 61.890625 
C 7.296875 59.6875 9.09375 57.796875 11.40625 57.796875 
C 13.59375 57.796875 15.5 59.59375 15.5 61.890625 
z
M 3.796875 42.890625 
L 3.796875 40.296875 
C 9.40625 40.296875 10.203125 39.6875 10.203125 34.859375 
L 10.203125 6.921875 
C 10.203125 3.09375 9.796875 2.59375 3.40625 2.59375 
L 3.40625 0 
C 5.796875 0.1875 10.09375 0.1875 12.59375 0.1875 
C 15 0.1875 19.09375 0.1875 21.40625 0 
L 21.40625 2.59375 
C 15.5 2.59375 15.296875 3.203125 15.296875 6.8125 
L 15.296875 44 
z
" id="CMR17-105"/>
      <path d="M 67.59375 30.53125 
C 67.59375 35.5625 66.703125 44 54.796875 44 
C 48 44 43.296875 39.375 41.5 33.953125 
L 41.40625 33.953125 
C 40.203125 42.1875 34.296875 44 28.703125 44 
C 20.796875 44 16.703125 37.875 15.203125 33.84375 
L 15.09375 33.84375 
L 15.09375 44 
L 3.296875 42.890625 
L 3.296875 40.28125 
C 9.203125 40.28125 10.09375 39.6875 10.09375 34.859375 
L 10.09375 6.921875 
C 10.09375 3.09375 9.703125 2.59375 3.296875 2.59375 
L 3.296875 0 
C 5.703125 0.1875 10.09375 0.1875 12.703125 0.1875 
C 15.296875 0.1875 19.796875 0.1875 22.203125 0 
L 22.203125 2.59375 
C 15.796875 2.59375 15.40625 3 15.40625 6.921875 
L 15.40625 26.21875 
C 15.40625 35.453125 21 42.390625 28 42.390625 
C 35.40625 42.390625 36.203125 35.765625 36.203125 30.9375 
L 36.203125 6.921875 
C 36.203125 3.09375 35.796875 2.59375 29.40625 2.59375 
L 29.40625 0 
C 31.796875 0.1875 36.203125 0.1875 38.796875 0.1875 
C 41.40625 0.1875 45.90625 0.1875 48.296875 0 
L 48.296875 2.59375 
C 41.90625 2.59375 41.5 3 41.5 6.921875 
L 41.5 26.21875 
C 41.5 35.453125 47.09375 42.390625 54.09375 42.390625 
C 61.5 42.390625 62.296875 35.765625 62.296875 30.9375 
L 62.296875 6.921875 
C 62.296875 3.09375 61.90625 2.59375 55.5 2.59375 
L 55.5 0 
C 57.90625 0.1875 62.296875 0.1875 64.90625 0.1875 
C 67.5 0.1875 72 0.1875 74.40625 0 
L 74.40625 2.59375 
C 68 2.59375 67.59375 3 67.59375 6.921875 
z
" id="CMR17-109"/>
      <path d="M 20.09375 40.09375 
L 29.296875 40.09375 
C 31.203125 40.09375 32.203125 40.09375 32.203125 41.890625 
C 32.203125 43 31.59375 43 29.59375 43 
L 20.796875 43 
L 24.5 57.25 
C 24.90625 58.625 24.90625 58.8125 24.90625 59.5 
C 24.90625 61.09375 23.59375 62 22.296875 62 
C 21.5 62 19.203125 61.6875 18.40625 58.53125 
L 14.5 43 
L 5.09375 43 
C 3.09375 43 2.203125 43 2.203125 41.09375 
C 2.203125 40.09375 2.90625 40.09375 4.796875 40.09375 
L 13.703125 40.09375 
L 7.09375 13.765625 
C 6.296875 10.265625 6 9.265625 6 7.96875 
C 6 3.28125 9.296875 -1 14.90625 -1 
C 25 -1 30.40625 13.5625 30.40625 14.265625 
C 30.40625 14.859375 30 15.15625 29.40625 15.15625 
C 29.203125 15.15625 28.796875 15.15625 28.59375 14.75 
C 28.5 14.65625 28.40625 14.5625 27.703125 12.96875 
C 25.59375 7.96875 21 1 15.203125 1 
C 12.203125 1 12 3.484375 12 5.6875 
C 12 5.78125 12 7.671875 12.296875 8.875 
z
" id="CMMI12-116"/>
      <path d="M 44.59375 40.09375 
C 46.59375 40.09375 47.40625 40.09375 47.40625 41.984375 
C 47.40625 43 46.59375 43 44.796875 43 
L 36.703125 43 
C 38.59375 53.09375 40 60.09375 40.796875 63.296875 
C 41.40625 65.6875 43.5 67.984375 46.09375 67.984375 
C 48.203125 67.984375 50.296875 67.09375 51.296875 66.1875 
C 47.40625 65.796875 46.203125 62.890625 46.203125 61.1875 
C 46.203125 59.1875 47.703125 58 49.59375 58 
C 51.59375 58 54.59375 59.6875 54.59375 63.5 
C 54.59375 67.6875 50.40625 70 46 70 
C 41.703125 70 37.5 66.796875 35.5 62.890625 
C 33.703125 59.390625 32.703125 55.828125 30.40625 43 
L 23.703125 43 
C 21.796875 43 20.796875 43 20.796875 41.1875 
C 20.796875 40.09375 21.40625 40.09375 23.40625 40.09375 
L 29.796875 40.09375 
C 28 30.890625 23.90625 8.515625 21.59375 -2.0625 
C 19.90625 -10.703125 18.40625 -18 13.40625 -18 
C 13.09375 -18 10.203125 -18 8.40625 -16.109375 
C 13.5 -15.703125 13.5 -11.3125 13.5 -11.203125 
C 13.5 -9.203125 12 -8 10.09375 -8 
C 8.09375 -8 5.09375 -9.703125 5.09375 -13.515625 
C 5.09375 -17.8125 9.5 -20 13.40625 -20 
C 23.59375 -20 27.796875 -1.765625 28.90625 3.171875 
C 30.703125 10.796875 35.59375 37.125 36.09375 40.09375 
z
" id="CMMI12-102"/>
      <path d="M 23.5 -25 
L 23.5 -21.5 
L 14.09375 -21.5 
L 14.09375 71.484375 
L 23.5 71.484375 
L 23.5 75 
L 10.59375 75 
L 10.59375 -25 
z
" id="CMR17-91"/>
      <path d="M 41.5 30.53125 
C 41.5 35.65625 40.5 44 28.703125 44 
C 20.796875 44 16.703125 37.875 15.203125 33.84375 
L 15.09375 33.84375 
L 15.09375 44 
L 3.296875 42.890625 
L 3.296875 40.28125 
C 9.203125 40.28125 10.09375 39.6875 10.09375 34.859375 
L 10.09375 6.921875 
C 10.09375 3.09375 9.703125 2.59375 3.296875 2.59375 
L 3.296875 0 
C 5.703125 0.1875 10.09375 0.1875 12.703125 0.1875 
C 15.296875 0.1875 19.796875 0.1875 22.203125 0 
L 22.203125 2.59375 
C 15.796875 2.59375 15.40625 3 15.40625 6.921875 
L 15.40625 26.21875 
C 15.40625 35.453125 21 42.390625 28 42.390625 
C 35.40625 42.390625 36.203125 35.765625 36.203125 30.9375 
L 36.203125 6.921875 
C 36.203125 3.09375 35.796875 2.59375 29.40625 2.59375 
L 29.40625 0 
C 31.796875 0.1875 36.203125 0.1875 38.796875 0.1875 
C 41.40625 0.1875 45.90625 0.1875 48.296875 0 
L 48.296875 2.59375 
C 41.90625 2.59375 41.5 3 41.5 6.921875 
z
" id="CMR17-110"/>
      <path d="M 14.296875 75 
L 1.40625 75 
L 1.40625 71.484375 
L 10.796875 71.484375 
L 10.796875 -21.5 
L 1.40625 -21.5 
L 1.40625 -25 
L 14.296875 -25 
z
" id="CMR17-93"/>
     </defs>
     <g transform="translate(208.750035 332.767947)scale(0.1 -0.1)">
      <use transform="scale(0.996264)" xlink:href="#CMR17-115"/>
      <use transform="translate(35.801338 0)scale(0.996264)" xlink:href="#CMR17-119"/>
      <use transform="translate(99.708764 0)scale(0.996264)" xlink:href="#CMR17-101"/>
      <use transform="translate(140.194425 0)scale(0.996264)" xlink:href="#CMR17-101"/>
      <use transform="translate(180.680085 0)scale(0.996264)" xlink:href="#CMR17-112"/>
      <use transform="translate(261.651421 0)scale(0.996264)" xlink:href="#CMR17-116"/>
      <use transform="translate(296.932189 0)scale(0.996264)" xlink:href="#CMR17-105"/>
      <use transform="translate(321.803248 0)scale(0.996264)" xlink:href="#CMR17-109"/>
      <use transform="translate(398.722837 0)scale(0.996264)" xlink:href="#CMR17-101"/>
      <use transform="translate(469.284464 0)scale(0.996264)" xlink:href="#CMMI12-116"/>
      <use transform="translate(504.510794 -14.943915)scale(0.697382)" xlink:href="#CMMI12-102"/>
      <use transform="translate(576.188916 0)scale(0.996264)" xlink:href="#CMR17-91"/>
      <use transform="translate(601.059975 0)scale(0.996264)" xlink:href="#CMR17-110"/>
      <use transform="translate(651.955344 0)scale(0.996264)" xlink:href="#CMR17-115"/>
      <use transform="translate(687.756682 0)scale(0.996264)" xlink:href="#CMR17-93"/>
     </g>
    </g>
   </g>
   <g id="matplotlib.axis_2">
    <g id="ytick_1">
     <g id="line2d_19">
      <path clip-path="url(#p06b855a612)" d="M 50.81625 305.440291 
L 445.018665 305.440291 
" style="fill:none;stroke:#dddddd;stroke-linecap:square;stroke-width:0.5;"/>
     </g>
     <g id="line2d_20">
      <defs>
       <path d="M 0 0 
L -3.5 0 
" id="m432c661c9d" style="stroke:#000000;stroke-width:0.8;"/>
      </defs>
      <g>
       <use style="stroke:#000000;stroke-width:0.8;" x="50.81625" xlink:href="#m432c661c9d" y="305.440291"/>
      </g>
     </g>
     <g id="text_11">
      <!-- $\mathdefault{10^{-4}}$ -->
      <defs>
       <path d="M 65.90625 23 
C 67.59375 23 69.40625 23 69.40625 25 
C 69.40625 27 67.59375 27 65.90625 27 
L 11.796875 27 
C 10.09375 27 8.296875 27 8.296875 25 
C 8.296875 23 10.09375 23 11.796875 23 
z
" id="CMSY10-0"/>
      </defs>
      <g transform="translate(23.655677 308.89954)scale(0.1 -0.1)">
       <use transform="scale(0.996264)" xlink:href="#CMR17-49"/>
       <use transform="translate(45.690477 0)scale(0.996264)" xlink:href="#CMR17-48"/>
       <use transform="translate(91.380954 36.153639)scale(0.697382)" xlink:href="#CMSY10-0"/>
       <use transform="translate(145.621947 36.153639)scale(0.697382)" xlink:href="#CMR17-52"/>
      </g>
     </g>
    </g>
    <g id="ytick_2">
     <g id="line2d_21">
      <path clip-path="url(#p06b855a612)" d="M 50.81625 208.379943 
L 445.018665 208.379943 
" style="fill:none;stroke:#dddddd;stroke-linecap:square;stroke-width:0.5;"/>
     </g>
     <g id="line2d_22">
      <g>
       <use style="stroke:#000000;stroke-width:0.8;" x="50.81625" xlink:href="#m432c661c9d" y="208.379943"/>
      </g>
     </g>
     <g id="text_12">
      <!-- $\mathdefault{10^{-3}}$ -->
      <g transform="translate(23.655677 211.839193)scale(0.1 -0.1)">
       <use transform="scale(0.996264)" xlink:href="#CMR17-49"/>
       <use transform="translate(45.690477 0)scale(0.996264)" xlink:href="#CMR17-48"/>
       <use transform="translate(91.380954 36.153639)scale(0.697382)" xlink:href="#CMSY10-0"/>
       <use transform="translate(145.621947 36.153639)scale(0.697382)" xlink:href="#CMR17-51"/>
      </g>
     </g>
    </g>
    <g id="ytick_3">
     <g id="line2d_23">
      <path clip-path="url(#p06b855a612)" d="M 50.81625 111.319596 
L 445.018665 111.319596 
" style="fill:none;stroke:#dddddd;stroke-linecap:square;stroke-width:0.5;"/>
     </g>
     <g id="line2d_24">
      <g>
       <use style="stroke:#000000;stroke-width:0.8;" x="50.81625" xlink:href="#m432c661c9d" y="111.319596"/>
      </g>
     </g>
     <g id="text_13">
      <!-- $\mathdefault{10^{-2}}$ -->
      <g transform="translate(23.655677 114.778846)scale(0.1 -0.1)">
       <use transform="scale(0.996264)" xlink:href="#CMR17-49"/>
       <use transform="translate(45.690477 0)scale(0.996264)" xlink:href="#CMR17-48"/>
       <use transform="translate(91.380954 36.153639)scale(0.697382)" xlink:href="#CMSY10-0"/>
       <use transform="translate(145.621947 36.153639)scale(0.697382)" xlink:href="#CMR17-50"/>
      </g>
     </g>
    </g>
    <g id="ytick_4">
     <g id="line2d_25">
      <path clip-path="url(#p06b855a612)" d="M 50.81625 14.259249 
L 445.018665 14.259249 
" style="fill:none;stroke:#dddddd;stroke-linecap:square;stroke-width:0.5;"/>
     </g>
     <g id="line2d_26">
      <g>
       <use style="stroke:#000000;stroke-width:0.8;" x="50.81625" xlink:href="#m432c661c9d" y="14.259249"/>
      </g>
     </g>
     <g id="text_14">
      <!-- $\mathdefault{10^{-1}}$ -->
      <g transform="translate(23.655677 17.718498)scale(0.1 -0.1)">
       <use transform="scale(0.996264)" xlink:href="#CMR17-49"/>
       <use transform="translate(45.690477 0)scale(0.996264)" xlink:href="#CMR17-48"/>
       <use transform="translate(91.380954 36.153639)scale(0.697382)" xlink:href="#CMSY10-0"/>
       <use transform="translate(145.621947 36.153639)scale(0.697382)" xlink:href="#CMR17-49"/>
      </g>
     </g>
    </g>
    <g id="ytick_5">
     <g id="line2d_27">
      <path clip-path="url(#p06b855a612)" d="M 50.81625 276.222215 
L 445.018665 276.222215 
" style="fill:none;stroke:#dddddd;stroke-linecap:square;stroke-width:0.5;"/>
     </g>
     <g id="line2d_28">
      <defs>
       <path d="M 0 0 
L -2 0 
" id="m4f6f6d07f6" style="stroke:#000000;stroke-width:0.6;"/>
      </defs>
      <g>
       <use style="stroke:#000000;stroke-width:0.6;" x="50.81625" xlink:href="#m4f6f6d07f6" y="276.222215"/>
      </g>
     </g>
    </g>
    <g id="ytick_6">
     <g id="line2d_29">
      <path clip-path="url(#p06b855a612)" d="M 50.81625 259.130736 
L 445.018665 259.130736 
" style="fill:none;stroke:#dddddd;stroke-linecap:square;stroke-width:0.5;"/>
     </g>
     <g id="line2d_30">
      <g>
       <use style="stroke:#000000;stroke-width:0.6;" x="50.81625" xlink:href="#m4f6f6d07f6" y="259.130736"/>
      </g>
     </g>
    </g>
    <g id="ytick_7">
     <g id="line2d_31">
      <path clip-path="url(#p06b855a612)" d="M 50.81625 247.004139 
L 445.018665 247.004139 
" style="fill:none;stroke:#dddddd;stroke-linecap:square;stroke-width:0.5;"/>
     </g>
     <g id="line2d_32">
      <g>
       <use style="stroke:#000000;stroke-width:0.6;" x="50.81625" xlink:href="#m4f6f6d07f6" y="247.004139"/>
      </g>
     </g>
    </g>
    <g id="ytick_8">
     <g id="line2d_33">
      <path clip-path="url(#p06b855a612)" d="M 50.81625 237.598019 
L 445.018665 237.598019 
" style="fill:none;stroke:#dddddd;stroke-linecap:square;stroke-width:0.5;"/>
     </g>
     <g id="line2d_34">
      <g>
       <use style="stroke:#000000;stroke-width:0.6;" x="50.81625" xlink:href="#m4f6f6d07f6" y="237.598019"/>
      </g>
     </g>
    </g>
    <g id="ytick_9">
     <g id="line2d_35">
      <path clip-path="url(#p06b855a612)" d="M 50.81625 229.91266 
L 445.018665 229.91266 
" style="fill:none;stroke:#dddddd;stroke-linecap:square;stroke-width:0.5;"/>
     </g>
     <g id="line2d_36">
      <g>
       <use style="stroke:#000000;stroke-width:0.6;" x="50.81625" xlink:href="#m4f6f6d07f6" y="229.91266"/>
      </g>
     </g>
    </g>
    <g id="ytick_10">
     <g id="line2d_37">
      <path clip-path="url(#p06b855a612)" d="M 50.81625 223.414781 
L 445.018665 223.414781 
" style="fill:none;stroke:#dddddd;stroke-linecap:square;stroke-width:0.5;"/>
     </g>
     <g id="line2d_38">
      <g>
       <use style="stroke:#000000;stroke-width:0.6;" x="50.81625" xlink:href="#m4f6f6d07f6" y="223.414781"/>
      </g>
     </g>
    </g>
    <g id="ytick_11">
     <g id="line2d_39">
      <path clip-path="url(#p06b855a612)" d="M 50.81625 217.786063 
L 445.018665 217.786063 
" style="fill:none;stroke:#dddddd;stroke-linecap:square;stroke-width:0.5;"/>
     </g>
     <g id="line2d_40">
      <g>
       <use style="stroke:#000000;stroke-width:0.6;" x="50.81625" xlink:href="#m4f6f6d07f6" y="217.786063"/>
      </g>
     </g>
    </g>
    <g id="ytick_12">
     <g id="line2d_41">
      <path clip-path="url(#p06b855a612)" d="M 50.81625 212.821181 
L 445.018665 212.821181 
" style="fill:none;stroke:#dddddd;stroke-linecap:square;stroke-width:0.5;"/>
     </g>
     <g id="line2d_42">
      <g>
       <use style="stroke:#000000;stroke-width:0.6;" x="50.81625" xlink:href="#m4f6f6d07f6" y="212.821181"/>
      </g>
     </g>
    </g>
    <g id="ytick_13">
     <g id="line2d_43">
      <path clip-path="url(#p06b855a612)" d="M 50.81625 179.161868 
L 445.018665 179.161868 
" style="fill:none;stroke:#dddddd;stroke-linecap:square;stroke-width:0.5;"/>
     </g>
     <g id="line2d_44">
      <g>
       <use style="stroke:#000000;stroke-width:0.6;" x="50.81625" xlink:href="#m4f6f6d07f6" y="179.161868"/>
      </g>
     </g>
    </g>
    <g id="ytick_14">
     <g id="line2d_45">
      <path clip-path="url(#p06b855a612)" d="M 50.81625 162.070389 
L 445.018665 162.070389 
" style="fill:none;stroke:#dddddd;stroke-linecap:square;stroke-width:0.5;"/>
     </g>
     <g id="line2d_46">
      <g>
       <use style="stroke:#000000;stroke-width:0.6;" x="50.81625" xlink:href="#m4f6f6d07f6" y="162.070389"/>
      </g>
     </g>
    </g>
    <g id="ytick_15">
     <g id="line2d_47">
      <path clip-path="url(#p06b855a612)" d="M 50.81625 149.943792 
L 445.018665 149.943792 
" style="fill:none;stroke:#dddddd;stroke-linecap:square;stroke-width:0.5;"/>
     </g>
     <g id="line2d_48">
      <g>
       <use style="stroke:#000000;stroke-width:0.6;" x="50.81625" xlink:href="#m4f6f6d07f6" y="149.943792"/>
      </g>
     </g>
    </g>
    <g id="ytick_16">
     <g id="line2d_49">
      <path clip-path="url(#p06b855a612)" d="M 50.81625 140.537672 
L 445.018665 140.537672 
" style="fill:none;stroke:#dddddd;stroke-linecap:square;stroke-width:0.5;"/>
     </g>
     <g id="line2d_50">
      <g>
       <use style="stroke:#000000;stroke-width:0.6;" x="50.81625" xlink:href="#m4f6f6d07f6" y="140.537672"/>
      </g>
     </g>
    </g>
    <g id="ytick_17">
     <g id="line2d_51">
      <path clip-path="url(#p06b855a612)" d="M 50.81625 132.852313 
L 445.018665 132.852313 
" style="fill:none;stroke:#dddddd;stroke-linecap:square;stroke-width:0.5;"/>
     </g>
     <g id="line2d_52">
      <g>
       <use style="stroke:#000000;stroke-width:0.6;" x="50.81625" xlink:href="#m4f6f6d07f6" y="132.852313"/>
      </g>
     </g>
    </g>
    <g id="ytick_18">
     <g id="line2d_53">
      <path clip-path="url(#p06b855a612)" d="M 50.81625 126.354434 
L 445.018665 126.354434 
" style="fill:none;stroke:#dddddd;stroke-linecap:square;stroke-width:0.5;"/>
     </g>
     <g id="line2d_54">
      <g>
       <use style="stroke:#000000;stroke-width:0.6;" x="50.81625" xlink:href="#m4f6f6d07f6" y="126.354434"/>
      </g>
     </g>
    </g>
    <g id="ytick_19">
     <g id="line2d_55">
      <path clip-path="url(#p06b855a612)" d="M 50.81625 120.725716 
L 445.018665 120.725716 
" style="fill:none;stroke:#dddddd;stroke-linecap:square;stroke-width:0.5;"/>
     </g>
     <g id="line2d_56">
      <g>
       <use style="stroke:#000000;stroke-width:0.6;" x="50.81625" xlink:href="#m4f6f6d07f6" y="120.725716"/>
      </g>
     </g>
    </g>
    <g id="ytick_20">
     <g id="line2d_57">
      <path clip-path="url(#p06b855a612)" d="M 50.81625 115.760834 
L 445.018665 115.760834 
" style="fill:none;stroke:#dddddd;stroke-linecap:square;stroke-width:0.5;"/>
     </g>
     <g id="line2d_58">
      <g>
       <use style="stroke:#000000;stroke-width:0.6;" x="50.81625" xlink:href="#m4f6f6d07f6" y="115.760834"/>
      </g>
     </g>
    </g>
    <g id="ytick_21">
     <g id="line2d_59">
      <path clip-path="url(#p06b855a612)" d="M 50.81625 82.10152 
L 445.018665 82.10152 
" style="fill:none;stroke:#dddddd;stroke-linecap:square;stroke-width:0.5;"/>
     </g>
     <g id="line2d_60">
      <g>
       <use style="stroke:#000000;stroke-width:0.6;" x="50.81625" xlink:href="#m4f6f6d07f6" y="82.10152"/>
      </g>
     </g>
    </g>
    <g id="ytick_22">
     <g id="line2d_61">
      <path clip-path="url(#p06b855a612)" d="M 50.81625 65.010042 
L 445.018665 65.010042 
" style="fill:none;stroke:#dddddd;stroke-linecap:square;stroke-width:0.5;"/>
     </g>
     <g id="line2d_62">
      <g>
       <use style="stroke:#000000;stroke-width:0.6;" x="50.81625" xlink:href="#m4f6f6d07f6" y="65.010042"/>
      </g>
     </g>
    </g>
    <g id="ytick_23">
     <g id="line2d_63">
      <path clip-path="url(#p06b855a612)" d="M 50.81625 52.883445 
L 445.018665 52.883445 
" style="fill:none;stroke:#dddddd;stroke-linecap:square;stroke-width:0.5;"/>
     </g>
     <g id="line2d_64">
      <g>
       <use style="stroke:#000000;stroke-width:0.6;" x="50.81625" xlink:href="#m4f6f6d07f6" y="52.883445"/>
      </g>
     </g>
    </g>
    <g id="ytick_24">
     <g id="line2d_65">
      <path clip-path="url(#p06b855a612)" d="M 50.81625 43.477325 
L 445.018665 43.477325 
" style="fill:none;stroke:#dddddd;stroke-linecap:square;stroke-width:0.5;"/>
     </g>
     <g id="line2d_66">
      <g>
       <use style="stroke:#000000;stroke-width:0.6;" x="50.81625" xlink:href="#m4f6f6d07f6" y="43.477325"/>
      </g>
     </g>
    </g>
    <g id="ytick_25">
     <g id="line2d_67">
      <path clip-path="url(#p06b855a612)" d="M 50.81625 35.791966 
L 445.018665 35.791966 
" style="fill:none;stroke:#dddddd;stroke-linecap:square;stroke-width:0.5;"/>
     </g>
     <g id="line2d_68">
      <g>
       <use style="stroke:#000000;stroke-width:0.6;" x="50.81625" xlink:href="#m4f6f6d07f6" y="35.791966"/>
      </g>
     </g>
    </g>
    <g id="ytick_26">
     <g id="line2d_69">
      <path clip-path="url(#p06b855a612)" d="M 50.81625 29.294087 
L 445.018665 29.294087 
" style="fill:none;stroke:#dddddd;stroke-linecap:square;stroke-width:0.5;"/>
     </g>
     <g id="line2d_70">
      <g>
       <use style="stroke:#000000;stroke-width:0.6;" x="50.81625" xlink:href="#m4f6f6d07f6" y="29.294087"/>
      </g>
     </g>
    </g>
    <g id="ytick_27">
     <g id="line2d_71">
      <path clip-path="url(#p06b855a612)" d="M 50.81625 23.665369 
L 445.018665 23.665369 
" style="fill:none;stroke:#dddddd;stroke-linecap:square;stroke-width:0.5;"/>
     </g>
     <g id="line2d_72">
      <g>
       <use style="stroke:#000000;stroke-width:0.6;" x="50.81625" xlink:href="#m4f6f6d07f6" y="23.665369"/>
      </g>
     </g>
    </g>
    <g id="ytick_28">
     <g id="line2d_73">
      <path clip-path="url(#p06b855a612)" d="M 50.81625 18.700487 
L 445.018665 18.700487 
" style="fill:none;stroke:#dddddd;stroke-linecap:square;stroke-width:0.5;"/>
     </g>
     <g id="line2d_74">
      <g>
       <use style="stroke:#000000;stroke-width:0.6;" x="50.81625" xlink:href="#m4f6f6d07f6" y="18.700487"/>
      </g>
     </g>
    </g>
    <g id="text_15">
     <!-- conversion error $\epsilon$ -->
     <defs>
      <path d="M 34.90625 35 
C 33 35 30.203125 35 30.203125 31.484375 
C 30.203125 28.6875 32.5 27.890625 33.796875 27.890625 
C 34.5 27.890625 37.40625 28.1875 37.40625 31.6875 
C 37.40625 38.6875 30.59375 44 22.90625 44 
C 12.296875 44 3.296875 34.390625 3.296875 21.546875 
C 3.296875 8.140625 12.703125 -1 22.90625 -1 
C 35.296875 -1 38.40625 10.5625 38.40625 11.671875 
C 38.40625 12.078125 38.296875 12.375 37.59375 12.375 
C 36.90625 12.375 36.796875 12.28125 36.40625 10.96875 
C 33.796875 2.8125 28.09375 0.796875 23.796875 0.796875 
C 17.40625 0.796875 9.703125 6.734375 9.703125 21.640625 
C 9.703125 36.84375 17.09375 42.1875 23 42.1875 
C 26.90625 42.1875 32.703125 40.34375 34.90625 35 
z
" id="CMR17-99"/>
      <path d="M 43.09375 21.1875 
C 43.09375 34 33.796875 44 22.90625 44 
C 12 44 2.703125 34 2.703125 21.1875 
C 2.703125 8.59375 12 -1 22.90625 -1 
C 33.796875 -1 43.09375 8.59375 43.09375 21.1875 
z
M 22.90625 0.796875 
C 18.203125 0.796875 14.203125 3.59375 11.90625 7.5 
C 9.40625 12 9.09375 17.59375 9.09375 22 
C 9.09375 26.1875 9.296875 31.390625 11.90625 35.890625 
C 13.90625 39.1875 17.796875 42.390625 22.90625 42.390625 
C 27.40625 42.390625 31.203125 39.890625 33.59375 36.390625 
C 36.703125 31.6875 36.703125 25.09375 36.703125 22 
C 36.703125 18.09375 36.5 12.09375 33.796875 7.296875 
C 31 2.6875 26.703125 0.796875 22.90625 0.796875 
z
" id="CMR17-111"/>
      <path d="M 39.09375 33.953125 
C 40 36.171875 41.59375 40.1875 47.40625 40.390625 
L 47.40625 43 
C 45.5 42.890625 43 42.796875 41.09375 42.796875 
C 39 42.796875 35.703125 42.796875 33.703125 43 
L 33.703125 40.390625 
C 36.203125 40.1875 37.59375 38.984375 37.59375 36.375 
C 37.59375 35.46875 37.59375 35.265625 37 33.859375 
L 26 5.921875 
L 14.09375 36.0625 
C 13.5 37.375 13.5 37.578125 13.5 37.984375 
C 13.5 40.390625 16.796875 40.390625 18.296875 40.390625 
L 18.296875 43 
C 15.90625 42.796875 11.5 42.796875 9 42.796875 
C 6.296875 42.796875 3.203125 42.796875 1 43 
L 1 40.390625 
C 4.796875 40.390625 6.90625 40.390625 8.09375 37.28125 
L 22.59375 0.6875 
C 23.203125 -0.8125 23.296875 -1 24.203125 -1 
C 25.09375 -1 25.203125 -0.8125 25.796875 0.6875 
z
" id="CMR17-118"/>
      <path d="M 15 23.703125 
C 15 33.34375 19.09375 42.390625 26.59375 42.390625 
C 27.296875 42.390625 28 42.296875 28.703125 41.984375 
C 28.703125 41.984375 26.5 41.28125 26.5 38.671875 
C 26.5 36.265625 28.40625 35.265625 29.90625 35.265625 
C 31.09375 35.265625 33.296875 35.96875 33.296875 38.78125 
C 33.296875 41.984375 30.09375 44 26.703125 44 
C 19.09375 44 15.796875 36.5625 14.796875 33.046875 
L 14.703125 33.046875 
L 14.703125 44 
L 3.09375 42.890625 
L 3.09375 40.28125 
C 9 40.28125 9.90625 39.6875 9.90625 34.859375 
L 9.90625 6.921875 
C 9.90625 3.09375 9.5 2.59375 3.09375 2.59375 
L 3.09375 0 
C 5.5 0.1875 10.09375 0.1875 12.703125 0.1875 
C 15.59375 0.1875 20.703125 0.1875 23.40625 0 
L 23.40625 2.59375 
C 16.203125 2.59375 15 2.59375 15 7.109375 
z
" id="CMR17-114"/>
      <path d="M 29.09375 23 
C 30.59375 23 32.296875 23 32.296875 24.59375 
C 32.296875 25.890625 31.296875 25.890625 29.5 25.890625 
L 13.296875 25.890625 
C 15.796875 34.75 21.703125 40.09375 30.59375 40.09375 
L 33.5 40.09375 
C 35.203125 40.09375 36.703125 40.09375 36.703125 41.6875 
C 36.703125 43 35.59375 43 33.796875 43 
L 30.40625 43 
C 18.09375 43 4.59375 33.375 4.59375 17.828125 
C 4.59375 6.5625 12.09375 -1 22 -1 
C 28.40625 -1 34.703125 3.015625 34.703125 4.03125 
C 34.703125 4.640625 34.40625 5.25 33.796875 5.25 
C 33.5 5.25 33.296875 5.15625 32.796875 4.75 
C 29 2.203125 25.296875 1 22.296875 1 
C 17 1 11.40625 4.546875 11.40625 14.375 
C 11.40625 16.296875 11.59375 18.9375 12.5 23 
z
" id="CMMI12-15"/>
     </defs>
     <g transform="translate(17.718498 198.346087)rotate(-90)scale(0.1 -0.1)">
      <use transform="scale(0.996264)" xlink:href="#CMR17-99"/>
      <use transform="translate(40.48566 0)scale(0.996264)" xlink:href="#CMR17-111"/>
      <use transform="translate(86.176138 0)scale(0.996264)" xlink:href="#CMR17-110"/>
      <use transform="translate(134.469053 0)scale(0.996264)" xlink:href="#CMR17-118"/>
      <use transform="translate(180.159515 0)scale(0.996264)" xlink:href="#CMR17-101"/>
      <use transform="translate(220.645176 0)scale(0.996264)" xlink:href="#CMR17-114"/>
      <use transform="translate(255.925944 0)scale(0.996264)" xlink:href="#CMR17-115"/>
      <use transform="translate(291.727281 0)scale(0.996264)" xlink:href="#CMR17-105"/>
      <use transform="translate(316.59834 0)scale(0.996264)" xlink:href="#CMR17-111"/>
      <use transform="translate(362.288817 0)scale(0.996264)" xlink:href="#CMR17-110"/>
      <use transform="translate(443.260153 0)scale(0.996264)" xlink:href="#CMR17-101"/>
      <use transform="translate(483.745813 0)scale(0.996264)" xlink:href="#CMR17-114"/>
      <use transform="translate(519.026581 0)scale(0.996264)" xlink:href="#CMR17-114"/>
      <use transform="translate(554.307349 0)scale(0.996264)" xlink:href="#CMR17-111"/>
      <use transform="translate(599.997826 0)scale(0.996264)" xlink:href="#CMR17-114"/>
      <use transform="translate(665.35456 0)scale(0.996264)" xlink:href="#CMMI12-15"/>
     </g>
    </g>
   </g>
   <g id="line2d_75">
    <path clip-path="url(#p06b855a612)" d="M 60.67131 22.912388 
L 67.0771 23.445434 
L 73.482889 24.262242 
L 79.888678 25.375643 
L 86.294467 26.724451 
L 92.700257 28.379973 
L 99.106046 30.32353 
L 105.511835 32.517574 
L 111.917624 34.972615 
L 118.323414 37.817241 
L 124.729203 40.837611 
L 131.134992 44.15941 
L 137.540781 47.829009 
L 143.946571 51.675535 
L 150.35236 55.926725 
L 156.758149 60.408825 
L 163.163938 65.18761 
L 169.569728 70.393317 
L 175.975517 75.658996 
L 182.381306 81.256011 
L 188.787095 87.222694 
L 195.192884 93.214223 
L 201.598674 99.637891 
L 208.004463 106.051933 
L 214.410252 112.567168 
L 220.816041 119.140628 
L 227.221831 125.702927 
L 233.62762 132.316484 
L 240.033409 138.510844 
L 246.439198 144.619219 
L 252.844988 150.288899 
L 259.250777 154.857052 
L 265.656566 160.161119 
L 272.062355 164.15159 
L 278.468145 168.73521 
L 284.873934 169.963008 
L 291.279723 174.76871 
L 297.685512 177.690761 
L 304.091302 178.896963 
L 310.497091 184.357188 
L 316.90288 184.994211 
L 323.308669 187.902418 
L 329.714458 193.679455 
L 336.120248 193.838916 
L 342.526037 200.315435 
L 348.931826 203.092364 
L 355.337615 206.79384 
L 361.743405 212.12258 
L 368.149194 214.809998 
L 374.554983 227.916243 
L 380.960772 231.668327 
L 387.366562 237.283821 
L 393.772351 243.461608 
L 400.17814 243.206511 
L 406.583929 253.787387 
L 412.989719 264.734591 
L 419.395508 266.888423 
L 425.801297 277.420697 
L 432.207086 265.114038 
L 438.612876 274.513695 
L 445.018665 266.337378 
" style="fill:none;stroke:#0088ff;stroke-linecap:square;"/>
   </g>
   <g id="line2d_76">
    <path clip-path="url(#p06b855a612)" style="fill:none;stroke:#000000;stroke-linecap:square;stroke-width:1.5;"/>
   </g>
   <g id="line2d_77">
    <path clip-path="url(#p06b855a612)" style="fill:none;stroke:#000000;stroke-linecap:square;stroke-width:1.5;"/>
   </g>
   <g id="line2d_78">
    <path clip-path="url(#p06b855a612)" d="M 60.67131 23.149425 
L 67.0771 23.956463 
L 73.482889 25.231637 
L 79.888678 26.970659 
L 86.294467 29.146223 
L 92.700257 31.755765 
L 99.106046 34.905761 
L 105.511835 38.570074 
L 111.917624 42.811027 
L 118.323414 47.645225 
L 124.729203 53.135502 
L 131.134992 59.270598 
L 137.540781 66.305217 
L 143.946571 73.978548 
L 150.35236 82.914132 
L 156.758149 92.839069 
L 163.163938 104.079001 
L 169.569728 116.76351 
L 175.975517 131.621318 
L 182.381306 148.75833 
L 188.787095 169.191987 
L 195.192884 193.156865 
L 201.598674 223.860532 
L 208.004463 257.460718 
L 214.410252 274.259806 
L 220.816041 259.485952 
L 227.221831 234.517506 
L 233.62762 214.290785 
L 240.033409 198.892846 
L 246.439198 188.624431 
L 252.844988 181.491857 
L 259.250777 176.64134 
L 265.656566 174.541148 
L 272.062355 174.062762 
L 278.468145 174.588221 
L 284.873934 177.819704 
L 291.279723 181.135402 
L 297.685512 186.85445 
L 304.091302 193.212254 
L 310.497091 200.091453 
L 316.90288 208.736307 
L 323.308669 222.124674 
L 329.714458 238.483572 
L 336.120248 252.815137 
L 342.526037 259.296027 
L 348.931826 275.056474 
L 355.337615 275.037011 
L 361.743405 250.296066 
L 368.149194 246.811528 
L 374.554983 246.274803 
L 380.960772 237.980916 
L 387.366562 230.059758 
L 393.772351 220.654531 
L 400.17814 227.119643 
L 406.583929 215.911889 
L 412.989719 218.884112 
L 419.395508 216.124259 
L 425.801297 221.673342 
L 432.207086 224.926933 
L 438.612876 224.15821 
L 445.018665 228.444027 
" style="fill:none;stroke:#dd5500;stroke-linecap:square;"/>
    <defs>
     <path d="M 0 1.5 
C 0.397805 1.5 0.77937 1.341951 1.06066 1.06066 
C 1.341951 0.77937 1.5 0.397805 1.5 0 
C 1.5 -0.397805 1.341951 -0.77937 1.06066 -1.06066 
C 0.77937 -1.341951 0.397805 -1.5 0 -1.5 
C -0.397805 -1.5 -0.77937 -1.341951 -1.06066 -1.06066 
C -1.341951 -0.77937 -1.5 -0.397805 -1.5 0 
C -1.5 0.397805 -1.341951 0.77937 -1.06066 1.06066 
C -0.77937 1.341951 -0.397805 1.5 0 1.5 
z
" id="m4279138c07" style="stroke:#dd5500;"/>
    </defs>
    <g clip-path="url(#p06b855a612)">
     <use style="fill-opacity:0;stroke:#dd5500;" x="60.67131" xlink:href="#m4279138c07" y="23.149425"/>
     <use style="fill-opacity:0;stroke:#dd5500;" x="67.0771" xlink:href="#m4279138c07" y="23.956463"/>
     <use style="fill-opacity:0;stroke:#dd5500;" x="73.482889" xlink:href="#m4279138c07" y="25.231637"/>
     <use style="fill-opacity:0;stroke:#dd5500;" x="79.888678" xlink:href="#m4279138c07" y="26.970659"/>
     <use style="fill-opacity:0;stroke:#dd5500;" x="86.294467" xlink:href="#m4279138c07" y="29.146223"/>
     <use style="fill-opacity:0;stroke:#dd5500;" x="92.700257" xlink:href="#m4279138c07" y="31.755765"/>
     <use style="fill-opacity:0;stroke:#dd5500;" x="99.106046" xlink:href="#m4279138c07" y="34.905761"/>
     <use style="fill-opacity:0;stroke:#dd5500;" x="105.511835" xlink:href="#m4279138c07" y="38.570074"/>
     <use style="fill-opacity:0;stroke:#dd5500;" x="111.917624" xlink:href="#m4279138c07" y="42.811027"/>
     <use style="fill-opacity:0;stroke:#dd5500;" x="118.323414" xlink:href="#m4279138c07" y="47.645225"/>
     <use style="fill-opacity:0;stroke:#dd5500;" x="124.729203" xlink:href="#m4279138c07" y="53.135502"/>
     <use style="fill-opacity:0;stroke:#dd5500;" x="131.134992" xlink:href="#m4279138c07" y="59.270598"/>
     <use style="fill-opacity:0;stroke:#dd5500;" x="137.540781" xlink:href="#m4279138c07" y="66.305217"/>
     <use style="fill-opacity:0;stroke:#dd5500;" x="143.946571" xlink:href="#m4279138c07" y="73.978548"/>
     <use style="fill-opacity:0;stroke:#dd5500;" x="150.35236" xlink:href="#m4279138c07" y="82.914132"/>
     <use style="fill-opacity:0;stroke:#dd5500;" x="156.758149" xlink:href="#m4279138c07" y="92.839069"/>
     <use style="fill-opacity:0;stroke:#dd5500;" x="163.163938" xlink:href="#m4279138c07" y="104.079001"/>
     <use style="fill-opacity:0;stroke:#dd5500;" x="169.569728" xlink:href="#m4279138c07" y="116.76351"/>
     <use style="fill-opacity:0;stroke:#dd5500;" x="175.975517" xlink:href="#m4279138c07" y="131.621318"/>
     <use style="fill-opacity:0;stroke:#dd5500;" x="182.381306" xlink:href="#m4279138c07" y="148.75833"/>
     <use style="fill-opacity:0;stroke:#dd5500;" x="188.787095" xlink:href="#m4279138c07" y="169.191987"/>
     <use style="fill-opacity:0;stroke:#dd5500;" x="195.192884" xlink:href="#m4279138c07" y="193.156865"/>
     <use style="fill-opacity:0;stroke:#dd5500;" x="201.598674" xlink:href="#m4279138c07" y="223.860532"/>
     <use style="fill-opacity:0;stroke:#dd5500;" x="208.004463" xlink:href="#m4279138c07" y="257.460718"/>
     <use style="fill-opacity:0;stroke:#dd5500;" x="214.410252" xlink:href="#m4279138c07" y="274.259806"/>
     <use style="fill-opacity:0;stroke:#dd5500;" x="220.816041" xlink:href="#m4279138c07" y="259.485952"/>
     <use style="fill-opacity:0;stroke:#dd5500;" x="227.221831" xlink:href="#m4279138c07" y="234.517506"/>
     <use style="fill-opacity:0;stroke:#dd5500;" x="233.62762" xlink:href="#m4279138c07" y="214.290785"/>
     <use style="fill-opacity:0;stroke:#dd5500;" x="240.033409" xlink:href="#m4279138c07" y="198.892846"/>
     <use style="fill-opacity:0;stroke:#dd5500;" x="246.439198" xlink:href="#m4279138c07" y="188.624431"/>
     <use style="fill-opacity:0;stroke:#dd5500;" x="252.844988" xlink:href="#m4279138c07" y="181.491857"/>
     <use style="fill-opacity:0;stroke:#dd5500;" x="259.250777" xlink:href="#m4279138c07" y="176.64134"/>
     <use style="fill-opacity:0;stroke:#dd5500;" x="265.656566" xlink:href="#m4279138c07" y="174.541148"/>
     <use style="fill-opacity:0;stroke:#dd5500;" x="272.062355" xlink:href="#m4279138c07" y="174.062762"/>
     <use style="fill-opacity:0;stroke:#dd5500;" x="278.468145" xlink:href="#m4279138c07" y="174.588221"/>
     <use style="fill-opacity:0;stroke:#dd5500;" x="284.873934" xlink:href="#m4279138c07" y="177.819704"/>
     <use style="fill-opacity:0;stroke:#dd5500;" x="291.279723" xlink:href="#m4279138c07" y="181.135402"/>
     <use style="fill-opacity:0;stroke:#dd5500;" x="297.685512" xlink:href="#m4279138c07" y="186.85445"/>
     <use style="fill-opacity:0;stroke:#dd5500;" x="304.091302" xlink:href="#m4279138c07" y="193.212254"/>
     <use style="fill-opacity:0;stroke:#dd5500;" x="310.497091" xlink:href="#m4279138c07" y="200.091453"/>
     <use style="fill-opacity:0;stroke:#dd5500;" x="316.90288" xlink:href="#m4279138c07" y="208.736307"/>
     <use style="fill-opacity:0;stroke:#dd5500;" x="323.308669" xlink:href="#m4279138c07" y="222.124674"/>
     <use style="fill-opacity:0;stroke:#dd5500;" x="329.714458" xlink:href="#m4279138c07" y="238.483572"/>
     <use style="fill-opacity:0;stroke:#dd5500;" x="336.120248" xlink:href="#m4279138c07" y="252.815137"/>
     <use style="fill-opacity:0;stroke:#dd5500;" x="342.526037" xlink:href="#m4279138c07" y="259.296027"/>
     <use style="fill-opacity:0;stroke:#dd5500;" x="348.931826" xlink:href="#m4279138c07" y="275.056474"/>
     <use style="fill-opacity:0;stroke:#dd5500;" x="355.337615" xlink:href="#m4279138c07" y="275.037011"/>
     <use style="fill-opacity:0;stroke:#dd5500;" x="361.743405" xlink:href="#m4279138c07" y="250.296066"/>
     <use style="fill-opacity:0;stroke:#dd5500;" x="368.149194" xlink:href="#m4279138c07" y="246.811528"/>
     <use style="fill-opacity:0;stroke:#dd5500;" x="374.554983" xlink:href="#m4279138c07" y="246.274803"/>
     <use style="fill-opacity:0;stroke:#dd5500;" x="380.960772" xlink:href="#m4279138c07" y="237.980916"/>
     <use style="fill-opacity:0;stroke:#dd5500;" x="387.366562" xlink:href="#m4279138c07" y="230.059758"/>
     <use style="fill-opacity:0;stroke:#dd5500;" x="393.772351" xlink:href="#m4279138c07" y="220.654531"/>
     <use style="fill-opacity:0;stroke:#dd5500;" x="400.17814" xlink:href="#m4279138c07" y="227.119643"/>
     <use style="fill-opacity:0;stroke:#dd5500;" x="406.583929" xlink:href="#m4279138c07" y="215.911889"/>
     <use style="fill-opacity:0;stroke:#dd5500;" x="412.989719" xlink:href="#m4279138c07" y="218.884112"/>
     <use style="fill-opacity:0;stroke:#dd5500;" x="419.395508" xlink:href="#m4279138c07" y="216.124259"/>
     <use style="fill-opacity:0;stroke:#dd5500;" x="425.801297" xlink:href="#m4279138c07" y="221.673342"/>
     <use style="fill-opacity:0;stroke:#dd5500;" x="432.207086" xlink:href="#m4279138c07" y="224.926933"/>
     <use style="fill-opacity:0;stroke:#dd5500;" x="438.612876" xlink:href="#m4279138c07" y="224.15821"/>
     <use style="fill-opacity:0;stroke:#dd5500;" x="445.018665" xlink:href="#m4279138c07" y="228.444027"/>
    </g>
   </g>
   <g id="line2d_79">
    <path clip-path="url(#p06b855a612)" style="fill:none;stroke:#000000;stroke-linecap:square;stroke-width:1.5;"/>
   </g>
   <g id="line2d_80">
    <path clip-path="url(#p06b855a612)" style="fill:none;stroke:#000000;stroke-linecap:square;stroke-width:1.5;"/>
   </g>
   <g id="line2d_81">
    <path clip-path="url(#p06b855a612)" d="M 87.941175 346.6 
L 88.441333 346.029163 
L 89.867873 344.460511 
L 91.348499 342.891859 
L 92.885263 341.323207 
L 94.480292 339.754555 
L 96.135796 338.185903 
L 97.854068 336.617251 
L 99.637488 335.048598 
L 101.488525 333.479946 
L 103.409743 331.911294 
L 105.403804 330.342642 
L 107.473468 328.77399 
L 109.621604 327.205338 
L 111.851184 325.636686 
L 114.165299 324.068034 
L 116.567152 322.499382 
L 119.06007 320.93073 
L 121.647507 319.362078 
L 124.333044 317.793426 
L 127.120403 316.224774 
L 130.013444 314.656121 
L 133.016173 313.087469 
L 136.132749 311.518817 
L 139.367489 309.950165 
L 142.724873 308.381513 
L 146.209551 306.812861 
L 149.826348 305.244209 
L 153.580275 303.675557 
L 157.476531 302.106905 
L 161.520512 300.538253 
L 165.717818 298.969601 
L 170.074264 297.400949 
L 174.595882 295.832297 
L 179.288936 294.263645 
L 184.159925 292.694992 
L 189.215596 291.12634 
L 194.46295 289.557688 
L 199.909255 287.989036 
L 205.562055 286.420384 
L 211.429179 284.851732 
L 217.518752 283.28308 
L 223.839208 281.714428 
L 230.399303 280.145776 
L 237.20812 278.577124 
L 244.275091 277.008472 
L 251.610003 275.43982 
L 259.223016 273.871168 
L 267.124673 272.302515 
L 275.325917 270.733863 
L 283.838109 269.165211 
L 292.673037 267.596559 
L 301.842937 266.027907 
L 311.360511 264.459255 
L 321.238939 262.890603 
L 331.491904 261.321951 
L 342.133606 259.753299 
L 353.178784 258.184647 
L 364.642735 256.615995 
L 376.541337 255.047343 
L 388.891069 253.478691 
L 401.709037 251.910039 
L 415.012992 250.341386 
L 428.821362 248.772734 
L 443.15327 247.204082 
" style="fill:none;stroke:#000000;stroke-linecap:square;"/>
   </g>
   <g id="line2d_82">
    <path clip-path="url(#p06b855a612)" d="M 422.07041 346.6 
L 428.821362 345.833081 
L 443.15327 344.264429 
" style="fill:none;stroke:#000000;stroke-linecap:square;"/>
   </g>
   <g id="patch_3">
    <path d="M 50.81625 305.440291 
L 50.81625 14.259249 
" style="fill:none;stroke:#000000;stroke-linecap:square;stroke-linejoin:miter;stroke-width:0.8;"/>
   </g>
   <g id="patch_4">
    <path d="M 445.018665 305.440291 
L 445.018665 14.259249 
" style="fill:none;stroke:#000000;stroke-linecap:square;stroke-linejoin:miter;stroke-width:0.8;"/>
   </g>
   <g id="patch_5">
    <path d="M 50.81625 305.440291 
L 445.018665 305.440291 
" style="fill:none;stroke:#000000;stroke-linecap:square;stroke-linejoin:miter;stroke-width:0.8;"/>
   </g>
   <g id="patch_6">
    <path d="M 50.81625 14.259249 
L 445.018665 14.259249 
" style="fill:none;stroke:#000000;stroke-linecap:square;stroke-linejoin:miter;stroke-width:0.8;"/>
   </g>
   <g id="legend_1">
    <g id="patch_7">
     <path d="M 270.205044 80.2272 
L 438.018665 80.2272 
Q 440.018665 80.2272 440.018665 78.2272 
L 440.018665 21.259249 
Q 440.018665 19.259249 438.018665 19.259249 
L 270.205044 19.259249 
Q 268.205044 19.259249 268.205044 21.259249 
L 268.205044 78.2272 
Q 268.205044 80.2272 270.205044 80.2272 
z
" style="fill:#ffffff;opacity:0.8;stroke:#cccccc;stroke-linejoin:miter;"/>
    </g>
    <g id="line2d_83">
     <path d="M 272.205044 27.868868 
L 292.205044 27.868868 
" style="fill:none;stroke:#0088ff;stroke-linecap:square;"/>
    </g>
    <g id="line2d_84"/>
    <g id="text_16">
     <!-- linear $\tau = 5.0\textrm{ ns}$, $\Gamma = 0.1 \textrm{ns}^{-1}$ -->
     <defs>
      <path d="M 15.296875 69 
L 3.40625 67.890625 
L 3.40625 65.296875 
C 9.296875 65.296875 10.203125 64.703125 10.203125 59.921875 
L 10.203125 6.859375 
C 10.203125 3.09375 9.796875 2.59375 3.40625 2.59375 
L 3.40625 0 
C 5.796875 0.1875 10.203125 0.1875 12.703125 0.1875 
C 15.296875 0.1875 19.703125 0.1875 22.09375 0 
L 22.09375 2.59375 
C 15.703125 2.59375 15.296875 2.984375 15.296875 6.859375 
z
" id="CMR17-108"/>
      <path d="M 36 25.875 
C 36 32 36 35.546875 31.796875 39.59375 
C 28.09375 42.984375 23.796875 44 20.40625 44 
C 12.5 44 6.796875 37.625 6.796875 30.890625 
C 6.796875 27.1875 9.796875 27 10.40625 27 
C 11.703125 27 14 27.796875 14 30.59375 
C 14 33.09375 12.09375 34.1875 10.40625 34.1875 
C 10 34.1875 9.5 34.09375 9.203125 34 
C 11.296875 40.53125 16.703125 42.390625 20.203125 42.390625 
C 25.203125 42.390625 30.703125 37.828125 30.703125 29.296875 
L 30.703125 25.5 
C 24.796875 25.296875 17.703125 24.5 12.09375 21.453125 
C 5.796875 17.921875 4 12.84375 4 9 
C 4 1.203125 13 -1 18.296875 -1 
C 23.796875 -1 28.90625 2.109375 31.09375 7.890625 
C 31.296875 3.421875 34.09375 -0.609375 38.5 -0.609375 
C 40.59375 -0.609375 45.90625 0.796875 45.90625 8.796875 
L 45.90625 14.46875 
L 44.09375 14.46875 
L 44.09375 8.703125 
C 44.09375 2.515625 41.40625 1.703125 40.09375 1.703125 
C 36 1.703125 36 6.96875 36 11.4375 
z
M 30.703125 13.859375 
C 30.703125 5.046875 24.5 0.59375 19 0.59375 
C 14 0.59375 10.09375 4.34375 10.09375 9 
C 10.09375 12.046875 11.40625 17.40625 17.203125 20.65625 
C 22 23.390625 27.5 23.796875 30.703125 24 
z
" id="CMR17-97"/>
      <path d="M 28.703125 37.59375 
L 45.296875 37.59375 
C 46.59375 37.59375 49.90625 37.59375 49.90625 40.796875 
C 49.90625 43 48 43 46.203125 43 
L 18.703125 43 
C 16.40625 43 13 43 8.40625 38.09375 
C 5.796875 35.203125 2.59375 29.9375 2.59375 29.34375 
C 2.59375 28.734375 3.09375 28.546875 3.703125 28.546875 
C 4.40625 28.546875 4.5 28.84375 5 29.4375 
C 10.203125 37.59375 15.40625 37.59375 17.90625 37.59375 
L 26.203125 37.59375 
L 15.796875 3.484375 
C 15.296875 1.984375 15.296875 1.78125 15.296875 1.484375 
C 15.296875 0.390625 16 -1 18 -1 
C 21.09375 -1 21.59375 1.6875 21.90625 3.1875 
z
" id="CMMI12-28"/>
      <path d="M 64.296875 32 
C 65.796875 32 67.296875 32 67.296875 33.6875 
C 67.296875 35.5 65.59375 35.5 63.90625 35.5 
L 8 35.5 
C 6.296875 35.5 4.59375 35.5 4.59375 33.6875 
C 4.59375 32 6.09375 32 7.59375 32 
z
M 63.90625 14.484375 
C 65.59375 14.484375 67.296875 14.484375 67.296875 16.296875 
C 67.296875 18 65.796875 18 64.296875 18 
L 7.59375 18 
C 6.09375 18 4.59375 18 4.59375 16.296875 
C 4.59375 14.484375 6.296875 14.484375 8 14.484375 
z
" id="CMR17-61"/>
      <path d="M 18.40625 4.796875 
C 18.40625 7.6875 16 9.6875 13.59375 9.6875 
C 10.703125 9.6875 8.703125 7.296875 8.703125 4.890625 
C 8.703125 2 11.09375 0 13.5 0 
C 16.40625 0 18.40625 2.390625 18.40625 4.796875 
z
" id="CMMI12-58"/>
      <path d="M 15.796875 1.59375 
C 16 0.6875 16 0.390625 16 -1.1875 
C 16 -7.046875 14 -12.421875 9.796875 -17.3125 
C 9.296875 -17.8125 9.296875 -18 9.296875 -18.203125 
C 9.296875 -18.609375 9.703125 -19 10.09375 -19 
C 10.703125 -19 17.59375 -12.125 17.59375 -1.28125 
C 17.59375 2 17.203125 8.1875 12.5 8.1875 
C 10.296875 8.1875 8.40625 6.6875 8.40625 4.09375 
C 8.40625 1.5 10.296875 0 12.5 0 
C 13.703125 0 15 0.5 15.796875 1.59375 
z
" id="CMR17-44"/>
      <path d="M 51.796875 68 
L 5.09375 68 
L 5.09375 65.390625 
C 12 65.390625 13.09375 65.390625 13.09375 60.890625 
L 13.09375 7.078125 
C 13.09375 2.59375 12 2.59375 5.09375 2.59375 
L 5.09375 0 
C 8 0.1875 13.59375 0.1875 16.703125 0.1875 
C 20.796875 0.1875 25.59375 0.1875 29.703125 0 
L 29.703125 2.59375 
L 27.5 2.59375 
C 19.90625 2.59375 19.703125 3.59375 19.703125 7.1875 
L 19.703125 61.5 
C 19.703125 64.890625 19.90625 65.390625 23.90625 65.390625 
L 34.90625 65.390625 
C 50.09375 65.390625 50.90625 58.40625 52.40625 45.921875 
L 54.203125 45.921875 
z
" id="CMR17-0"/>
     </defs>
     <g transform="translate(300.205044 31.368868)scale(0.1 -0.1)">
      <use transform="scale(0.996264)" xlink:href="#CMR17-108"/>
      <use transform="translate(24.871058 0)scale(0.996264)" xlink:href="#CMR17-105"/>
      <use transform="translate(49.742117 0)scale(0.996264)" xlink:href="#CMR17-110"/>
      <use transform="translate(100.637487 0)scale(0.996264)" xlink:href="#CMR17-101"/>
      <use transform="translate(141.123147 0)scale(0.996264)" xlink:href="#CMR17-97"/>
      <use transform="translate(186.813624 0)scale(0.996264)" xlink:href="#CMR17-114"/>
      <use transform="translate(252.170358 0)scale(0.996264)" xlink:href="#CMMI12-28"/>
      <use transform="translate(333.335533 0)scale(0.996264)" xlink:href="#CMR17-61"/>
      <use transform="translate(432.72433 0)scale(0.996264)" xlink:href="#CMR17-53"/>
      <use transform="translate(478.414807 0)scale(0.996264)" xlink:href="#CMMI12-58"/>
      <use transform="translate(505.511984 0)scale(0.996264)" xlink:href="#CMR17-48"/>
      <use transform="translate(581.278427 0)scale(0.996264)" xlink:href="#CMR17-110"/>
      <use transform="translate(632.173797 0)scale(0.996264)" xlink:href="#CMR17-115"/>
      <use transform="translate(667.975135 0)scale(0.996264)" xlink:href="#CMR17-44"/>
      <use transform="translate(722.92216 0)scale(0.996264)" xlink:href="#CMR17-0"/>
      <use transform="translate(807.977576 0)scale(0.996264)" xlink:href="#CMR17-61"/>
      <use transform="translate(907.366373 0)scale(0.996264)" xlink:href="#CMR17-48"/>
      <use transform="translate(953.05685 0)scale(0.996264)" xlink:href="#CMMI12-58"/>
      <use transform="translate(980.154027 0)scale(0.996264)" xlink:href="#CMR17-49"/>
      <use transform="translate(1025.844505 0)scale(0.996264)" xlink:href="#CMR17-110"/>
      <use transform="translate(1076.739874 0)scale(0.996264)" xlink:href="#CMR17-115"/>
      <use transform="translate(1112.541212 36.153639)scale(0.697382)" xlink:href="#CMSY10-0"/>
      <use transform="translate(1166.782205 36.153639)scale(0.697382)" xlink:href="#CMR17-49"/>
     </g>
    </g>
    <g id="line2d_85">
     <path d="M 272.205044 42.915665 
L 292.205044 42.915665 
" style="fill:none;stroke:#dd5500;stroke-linecap:square;"/>
    </g>
    <g id="line2d_86">
     <g>
      <use style="fill-opacity:0;stroke:#dd5500;" x="282.205044" xlink:href="#m4279138c07" y="42.915665"/>
     </g>
    </g>
    <g id="text_17">
     <!-- shaped $\tau = 5.0\textrm{ ns}$, $\Gamma = 0.1 \textrm{ns}^{-1}$ -->
     <defs>
      <path d="M 41.5 30.53125 
C 41.5 35.65625 40.5 44 28.703125 44 
C 20.5 44 16.5 37.375 15.296875 34.046875 
L 15.203125 34.046875 
L 15.203125 69 
L 3.296875 67.890625 
L 3.296875 65.296875 
C 9.203125 65.296875 10.09375 64.703125 10.09375 60.046875 
L 10.09375 6.921875 
C 10.09375 3.09375 9.703125 2.59375 3.296875 2.59375 
L 3.296875 0 
C 5.703125 0.1875 10.09375 0.1875 12.703125 0.1875 
C 15.296875 0.1875 19.796875 0.1875 22.203125 0 
L 22.203125 2.59375 
C 15.796875 2.59375 15.40625 3 15.40625 6.921875 
L 15.40625 26.21875 
C 15.40625 35.453125 21 42.390625 28 42.390625 
C 35.40625 42.390625 36.203125 35.765625 36.203125 30.9375 
L 36.203125 6.921875 
C 36.203125 3.09375 35.796875 2.59375 29.40625 2.59375 
L 29.40625 0 
C 31.796875 0.1875 36.203125 0.1875 38.796875 0.1875 
C 41.40625 0.1875 45.90625 0.1875 48.296875 0 
L 48.296875 2.59375 
C 41.90625 2.59375 41.5 3 41.5 6.921875 
z
" id="CMR17-104"/>
      <path d="M 29.203125 67.890625 
L 29.203125 65.296875 
C 35.09375 65.296875 36 64.703125 36 60.046875 
L 36 37.046875 
C 35.59375 37.546875 31.5 44 23.40625 44 
C 13.203125 44 3.296875 34.8125 3.296875 21.5 
C 3.296875 8.265625 12.59375 -1 22.40625 -1 
C 30.90625 -1 35.296875 5.640625 35.796875 6.34375 
L 35.796875 -1 
L 47.90625 -0.203125 
L 47.90625 2.40625 
C 42 2.40625 41.09375 3.015625 41.09375 7.859375 
L 41.09375 69 
z
M 35.796875 11.90625 
C 35.796875 8.875 34 6.140625 31.703125 4.125 
C 28.296875 1.09375 24.90625 0.59375 23 0.59375 
C 20.09375 0.59375 9.703125 2.109375 9.703125 21.390625 
C 9.703125 41.1875 21.296875 42.390625 23.90625 42.390625 
C 28.5 42.390625 32.203125 39.765625 34.5 36.140625 
C 35.796875 34.015625 35.796875 33.703125 35.796875 31.890625 
z
" id="CMR17-100"/>
     </defs>
     <g transform="translate(300.205044 46.415665)scale(0.1 -0.1)">
      <use transform="scale(0.996264)" xlink:href="#CMR17-115"/>
      <use transform="translate(35.801338 0)scale(0.996264)" xlink:href="#CMR17-104"/>
      <use transform="translate(86.696707 0)scale(0.996264)" xlink:href="#CMR17-97"/>
      <use transform="translate(132.387185 0)scale(0.996264)" xlink:href="#CMR17-112"/>
      <use transform="translate(185.884993 0)scale(0.996264)" xlink:href="#CMR17-101"/>
      <use transform="translate(226.370654 0)scale(0.996264)" xlink:href="#CMR17-100"/>
      <use transform="translate(307.34199 0)scale(0.996264)" xlink:href="#CMMI12-28"/>
      <use transform="translate(388.507164 0)scale(0.996264)" xlink:href="#CMR17-61"/>
      <use transform="translate(487.895961 0)scale(0.996264)" xlink:href="#CMR17-53"/>
      <use transform="translate(533.586438 0)scale(0.996264)" xlink:href="#CMMI12-58"/>
      <use transform="translate(560.683615 0)scale(0.996264)" xlink:href="#CMR17-48"/>
      <use transform="translate(636.450058 0)scale(0.996264)" xlink:href="#CMR17-110"/>
      <use transform="translate(687.345428 0)scale(0.996264)" xlink:href="#CMR17-115"/>
      <use transform="translate(723.146766 0)scale(0.996264)" xlink:href="#CMR17-44"/>
      <use transform="translate(778.093791 0)scale(0.996264)" xlink:href="#CMR17-0"/>
      <use transform="translate(863.149207 0)scale(0.996264)" xlink:href="#CMR17-61"/>
      <use transform="translate(962.538004 0)scale(0.996264)" xlink:href="#CMR17-48"/>
      <use transform="translate(1008.228482 0)scale(0.996264)" xlink:href="#CMMI12-58"/>
      <use transform="translate(1035.325659 0)scale(0.996264)" xlink:href="#CMR17-49"/>
      <use transform="translate(1081.016136 0)scale(0.996264)" xlink:href="#CMR17-110"/>
      <use transform="translate(1131.911506 0)scale(0.996264)" xlink:href="#CMR17-115"/>
      <use transform="translate(1167.712843 36.153639)scale(0.697382)" xlink:href="#CMSY10-0"/>
      <use transform="translate(1221.953836 36.153639)scale(0.697382)" xlink:href="#CMR17-49"/>
     </g>
    </g>
    <g id="line2d_87">
     <path d="M 272.205044 56.852844 
L 292.205044 56.852844 
" style="fill:none;stroke:#000000;stroke-linecap:square;"/>
    </g>
    <g id="line2d_88"/>
    <g id="text_18">
     <!-- $T_1=0.1\textrm{ ns}$ decay -->
     <defs>
      <path d="M 41.703125 60.71875 
C 42.296875 63.09375 42.5 64 44 64.390625 
C 44.796875 64.59375 48.09375 64.59375 50.203125 64.59375 
C 60.203125 64.59375 64.90625 64.203125 64.90625 56.4375 
C 64.90625 54.9375 64.5 51.15625 63.90625 47.46875 
L 63.796875 46.28125 
C 63.796875 45.890625 64.203125 45.28125 64.796875 45.28125 
C 65.796875 45.28125 65.796875 45.78125 66.09375 47.375 
L 69 64.984375 
C 69.203125 65.890625 69.203125 66.09375 69.203125 66.390625 
C 69.203125 67.484375 68.59375 67.484375 66.59375 67.484375 
L 11.90625 67.484375 
C 9.59375 67.484375 9.5 67.390625 8.90625 65.59375 
L 2.796875 47.671875 
C 2.703125 47.46875 2.40625 46.375 2.40625 46.28125 
C 2.40625 45.78125 2.796875 45.28125 3.40625 45.28125 
C 4.203125 45.28125 4.40625 45.6875 4.796875 46.984375 
C 9 59.015625 11.09375 64.59375 24.40625 64.59375 
L 31.09375 64.59375 
C 33.5 64.59375 34.5 64.59375 34.5 63.5 
C 34.5 63.203125 34.5 63 34 61.203125 
L 20.59375 7.765625 
C 19.59375 3.890625 19.40625 2.890625 8.796875 2.890625 
C 6.296875 2.890625 5.59375 2.890625 5.59375 1 
C 5.59375 0 6.703125 0 7.203125 0 
C 9.703125 0 12.296875 0.1875 14.796875 0.1875 
L 30.40625 0.1875 
C 32.90625 0.1875 35.59375 0 38.09375 0 
C 39.203125 0 40.203125 0 40.203125 1.890625 
C 40.203125 2.890625 39.5 2.890625 36.90625 2.890625 
C 27.90625 2.890625 27.90625 3.78125 27.90625 5.28125 
C 27.90625 5.375 27.90625 6.078125 28.296875 7.671875 
z
" id="CMMI12-84"/>
      <path d="M 39 34.109375 
C 41.5 40.296875 46 40.390625 47.40625 40.390625 
L 47.40625 43 
C 45.5 42.890625 43 42.796875 41.09375 42.796875 
C 39 42.796875 35.703125 42.796875 33.703125 43 
L 33.703125 40.390625 
C 37.5 40.09375 37.59375 37.25 37.59375 36.4375 
C 37.59375 35.4375 37.40625 34.921875 36.90625 33.71875 
L 26 6.390625 
L 14.09375 35.9375 
C 13.59375 37.15625 13.59375 37.859375 13.59375 37.96875 
C 13.59375 40.1875 15.90625 40.390625 18.296875 40.390625 
L 18.296875 43 
C 15.90625 42.796875 11.59375 42.796875 9.09375 42.796875 
C 6.40625 42.796875 3.203125 42.796875 1 43 
L 1 40.390625 
C 6.40625 40.390625 7 39.890625 8.296875 36.640625 
L 23.203125 -0.484375 
C 18.703125 -12.421875 16.09375 -19.40625 9.796875 -19.40625 
C 8.703125 -19.40625 6.203125 -19.109375 4.40625 -17.28125 
C 6.703125 -17.078125 7.703125 -15.65625 7.703125 -13.9375 
C 7.703125 -12.21875 6.5 -10.703125 4.5 -10.703125 
C 2.296875 -10.703125 1.203125 -12.21875 1.203125 -14.046875 
C 1.203125 -18.09375 5.296875 -21 9.796875 -21 
C 15.59375 -21 19.203125 -15.359375 21.203125 -10.296875 
z
" id="CMR17-121"/>
     </defs>
     <g transform="translate(300.205044 60.352844)scale(0.1 -0.1)">
      <use transform="scale(0.996264)" xlink:href="#CMMI12-84"/>
      <use transform="translate(57.175044 -14.943915)scale(0.697382)" xlink:href="#CMR17-49"/>
      <use transform="translate(117.330366 0)scale(0.996264)" xlink:href="#CMR17-61"/>
      <use transform="translate(216.719163 0)scale(0.996264)" xlink:href="#CMR17-48"/>
      <use transform="translate(262.409641 0)scale(0.996264)" xlink:href="#CMMI12-58"/>
      <use transform="translate(289.506818 0)scale(0.996264)" xlink:href="#CMR17-49"/>
      <use transform="translate(365.273261 0)scale(0.996264)" xlink:href="#CMR17-110"/>
      <use transform="translate(416.168631 0)scale(0.996264)" xlink:href="#CMR17-115"/>
      <use transform="translate(482.045935 0)scale(0.996264)" xlink:href="#CMR17-100"/>
      <use transform="translate(532.941305 0)scale(0.996264)" xlink:href="#CMR17-101"/>
      <use transform="translate(573.426965 0)scale(0.996264)" xlink:href="#CMR17-99"/>
      <use transform="translate(613.912626 0)scale(0.996264)" xlink:href="#CMR17-97"/>
      <use transform="translate(657.000649 0)scale(0.996264)" xlink:href="#CMR17-121"/>
     </g>
    </g>
    <g id="line2d_89">
     <path d="M 272.205044 70.790022 
L 292.205044 70.790022 
" style="fill:none;stroke:#000000;stroke-linecap:square;"/>
    </g>
    <g id="line2d_90"/>
    <g id="text_19">
     <!-- $T_1=1\textrm{ ns}$ decay -->
     <g transform="translate(300.205044 74.290022)scale(0.1 -0.1)">
      <use transform="scale(0.996264)" xlink:href="#CMMI12-84"/>
      <use transform="translate(57.175044 -14.943915)scale(0.697382)" xlink:href="#CMR17-49"/>
      <use transform="translate(117.330366 0)scale(0.996264)" xlink:href="#CMR17-61"/>
      <use transform="translate(216.719163 0)scale(0.996264)" xlink:href="#CMR17-49"/>
      <use transform="translate(292.485607 0)scale(0.996264)" xlink:href="#CMR17-110"/>
      <use transform="translate(343.380977 0)scale(0.996264)" xlink:href="#CMR17-115"/>
      <use transform="translate(409.258281 0)scale(0.996264)" xlink:href="#CMR17-100"/>
      <use transform="translate(460.15365 0)scale(0.996264)" xlink:href="#CMR17-101"/>
      <use transform="translate(500.639311 0)scale(0.996264)" xlink:href="#CMR17-99"/>
      <use transform="translate(541.124971 0)scale(0.996264)" xlink:href="#CMR17-97"/>
      <use transform="translate(584.212995 0)scale(0.996264)" xlink:href="#CMR17-121"/>
     </g>
    </g>
   </g>
  </g>
 </g>
 <defs>
  <clipPath id="p06b855a612">
   <rect height="291.181041" width="394.202415" x="50.81625" y="14.259249"/>
  </clipPath>
 </defs>
</svg>
