<?xml version="1.0" encoding="utf-8" standalone="no"?>
<!DOCTYPE svg PUBLIC "-//W3C//DTD SVG 1.1//EN"
  "http://www.w3.org/Graphics/SVG/1.1/DTD/svg11.dtd">
<!-- Created with matplotlib (https://matplotlib.org/) -->
<svg height="345.6pt" version="1.1" viewBox="0 0 460.8 345.6" width="460.8pt" xmlns="http://www.w3.org/2000/svg" xmlns:xlink="http://www.w3.org/1999/xlink">
 <defs>
  <style type="text/css">
*{stroke-linecap:butt;stroke-linejoin:round;}
  </style>
 </defs>
 <g id="figure_1">
  <g id="patch_1">
   <path d="M 0 345.6 
L 460.8 345.6 
L 460.8 0 
L 0 0 
z
" style="fill:#ffffff;"/>
  </g>
  <g id="axes_1">
   <g id="patch_2">
    <path d="M 50.81625 305.440291 
L 445.018665 305.440291 
L 445.018665 10.8 
L 50.81625 10.8 
z
" style="fill:#ffffff;"/>
   </g>
   <g id="PolyCollection_1">
    <path clip-path="url(#pd7ef978345)" d="M 60.67131 72.770752 
L 60.67131 72.837619 
L 73.482889 73.482219 
L 86.294467 74.629318 
L 99.106046 76.270508 
L 111.917624 78.40799 
L 124.729203 81.101455 
L 137.540781 84.320017 
L 150.35236 88.095682 
L 163.163938 92.330003 
L 175.975517 97.164243 
L 188.787095 102.45661 
L 201.598674 108.227936 
L 214.410252 114.162521 
L 227.221831 120.277947 
L 240.033409 126.223732 
L 252.844988 131.538503 
L 265.656566 136.223211 
L 278.468145 140.210674 
L 291.279723 143.210696 
L 304.091302 145.34709 
L 316.90288 148.540507 
L 329.714458 152.372495 
L 342.526037 154.663924 
L 355.337615 159.099598 
L 368.149194 162.377076 
L 380.960772 170.396375 
L 393.772351 175.917344 
L 406.583929 180.174083 
L 419.395508 189.415564 
L 432.207086 188.43705 
L 445.018665 187.801356 
L 445.018665 182.487301 
L 445.018665 182.487301 
L 432.207086 181.27421 
L 419.395508 180.631564 
L 406.583929 175.373133 
L 393.772351 172.074398 
L 380.960772 166.085402 
L 368.149194 159.235051 
L 355.337615 156.206424 
L 342.526037 152.25134 
L 329.714458 150.921349 
L 316.90288 146.402362 
L 304.091302 144.333205 
L 291.279723 141.974203 
L 278.468145 139.225979 
L 265.656566 135.406136 
L 252.844988 131.156342 
L 240.033409 125.852204 
L 227.221831 119.911886 
L 214.410252 113.968761 
L 201.598674 107.966146 
L 188.787095 102.269005 
L 175.975517 97.008757 
L 163.163938 92.137592 
L 150.35236 87.957133 
L 137.540781 84.231757 
L 124.729203 81.0292 
L 111.917624 78.331933 
L 99.106046 76.182923 
L 86.294467 74.550796 
L 73.482889 73.411912 
L 60.67131 72.770752 
z
" style="fill:#0088ff;fill-opacity:0.15;"/>
   </g>
   <g id="PolyCollection_2">
    <path clip-path="url(#pd7ef978345)" d="M 60.67131 72.889602 
L 60.67131 72.96362 
L 73.482889 73.920845 
L 86.294467 75.695007 
L 99.106046 78.368526 
L 111.917624 82.040411 
L 124.729203 86.745735 
L 137.540781 92.832845 
L 150.35236 100.456443 
L 163.163938 110.311607 
L 175.975517 123.006799 
L 188.787095 140.399903 
L 201.598674 166.084521 
L 214.410252 189.307818 
L 227.221831 170.767067 
L 240.033409 153.996501 
L 252.844988 146.251009 
L 265.656566 143.131542 
L 278.468145 143.175003 
L 291.279723 146.654219 
L 304.091302 152.027521 
L 316.90288 159.77145 
L 329.714458 173.563363 
L 342.526037 183.691927 
L 355.337615 191.424851 
L 368.149194 178.404989 
L 380.960772 174.164925 
L 393.772351 164.939315 
L 406.583929 166.13442 
L 419.395508 164.307332 
L 432.207086 169.409594 
L 445.018665 170.623264 
L 445.018665 164.027492 
L 445.018665 164.027492 
L 432.207086 162.122333 
L 419.395508 159.153248 
L 406.583929 159.47442 
L 393.772351 161.138773 
L 380.960772 167.967753 
L 368.149194 173.352769 
L 355.337615 183.895157 
L 342.526037 179.457116 
L 329.714458 170.173316 
L 316.90288 156.500533 
L 304.091302 150.292045 
L 291.279723 145.143408 
L 278.468145 142.253025 
L 265.656566 142.114086 
L 252.844988 145.35515 
L 240.033409 152.99235 
L 227.221831 169.339154 
L 214.410252 187.53973 
L 201.598674 164.760019 
L 188.787095 139.748617 
L 175.975517 122.566139 
L 163.163938 110.052696 
L 150.35236 100.30493 
L 137.540781 92.6813 
L 124.729203 86.655064 
L 111.917624 81.939424 
L 99.106046 78.319152 
L 86.294467 75.634813 
L 73.482889 73.871844 
L 60.67131 72.889602 
z
" style="fill:#dd5500;fill-opacity:0.15;"/>
   </g>
   <g id="matplotlib.axis_1">
    <g id="xtick_1">
     <g id="line2d_1">
      <path clip-path="url(#pd7ef978345)" d="M 50.81625 305.440291 
L 50.81625 10.8 
" style="fill:none;stroke:#dddddd;stroke-linecap:square;stroke-width:0.5;"/>
     </g>
     <g id="line2d_2">
      <defs>
       <path d="M 0 0 
L 0 3.5 
" id="mcc3ed1b33a" style="stroke:#000000;stroke-width:0.8;"/>
      </defs>
      <g>
       <use style="stroke:#000000;stroke-width:0.8;" x="50.81625" xlink:href="#mcc3ed1b33a" y="305.440291"/>
      </g>
     </g>
     <g id="text_1">
      <!-- $\mathdefault{0}$ -->
      <defs>
       <path d="M 42 31.84375 
C 42 37.96875 41.90625 48.421875 37.703125 56.453125 
C 34 63.484375 28.09375 66 22.90625 66 
C 18.09375 66 12 63.78125 8.203125 56.5625 
C 4.203125 49.015625 3.796875 39.671875 3.796875 31.84375 
C 3.796875 26.109375 3.90625 17.375 7 9.734375 
C 11.296875 -0.609375 19 -2 22.90625 -2 
C 27.5 -2 34.5 -0.109375 38.59375 9.4375 
C 41.59375 16.375 42 24.5 42 31.84375 
z
M 22.90625 -0.40625 
C 16.5 -0.40625 12.703125 5.125 11.296875 12.75 
C 10.203125 18.6875 10.203125 27.328125 10.203125 32.953125 
C 10.203125 40.6875 10.203125 47.109375 11.5 53.234375 
C 13.40625 61.78125 19 64.390625 22.90625 64.390625 
C 27 64.390625 32.296875 61.671875 34.203125 53.4375 
C 35.5 47.71875 35.59375 40.984375 35.59375 32.953125 
C 35.59375 26.421875 35.59375 18.375 34.40625 12.453125 
C 32.296875 1.5 26.40625 -0.40625 22.90625 -0.40625 
z
" id="CMR17-48"/>
      </defs>
      <g transform="translate(48.325582 319.358789)scale(0.1 -0.1)">
       <use transform="scale(0.996264)" xlink:href="#CMR17-48"/>
      </g>
     </g>
    </g>
    <g id="xtick_2">
     <g id="line2d_3">
      <path clip-path="url(#pd7ef978345)" d="M 100.091552 305.440291 
L 100.091552 10.8 
" style="fill:none;stroke:#dddddd;stroke-linecap:square;stroke-width:0.5;"/>
     </g>
     <g id="line2d_4">
      <g>
       <use style="stroke:#000000;stroke-width:0.8;" x="100.091552" xlink:href="#mcc3ed1b33a" y="305.440291"/>
      </g>
     </g>
     <g id="text_2">
      <!-- $\mathdefault{5}$ -->
      <defs>
       <path d="M 11.40625 58.59375 
C 12.40625 58.1875 16.5 56.890625 20.703125 56.890625 
C 30 56.890625 35.09375 61.890625 38 64.6875 
C 38 65.484375 38 66 37.40625 66 
C 37.296875 66 37.09375 66 36.296875 65.59375 
C 32.796875 64.09375 28.703125 63 23.703125 63 
C 20.703125 63 16.203125 63.359375 11.296875 65.484375 
C 10.203125 66 10 66 9.90625 66 
C 9.40625 66 9.296875 65.890625 9.296875 63.90625 
L 9.296875 34.859375 
C 9.296875 33.015625 9.296875 32.5 10.296875 32.5 
C 10.796875 32.5 11 32.703125 11.5 33.421875 
C 14.703125 38.046875 19.09375 40 24.09375 40 
C 27.59375 40 35.09375 37.734375 35.09375 20.203125 
C 35.09375 16.984375 35.09375 11.1875 32.09375 6.59375 
C 29.59375 2.484375 25.703125 0.390625 21.40625 0.390625 
C 14.796875 0.390625 8.09375 4.984375 6.296875 12.6875 
C 6.703125 12.59375 7.5 12.390625 7.90625 12.390625 
C 9.203125 12.390625 11.703125 13.09375 11.703125 16.1875 
C 11.703125 18.890625 9.796875 20 7.90625 20 
C 5.59375 20 4.09375 18.59375 4.09375 15.796875 
C 4.09375 7.09375 11 -2 21.59375 -2 
C 31.90625 -2 41.703125 6.890625 41.703125 19.796875 
C 41.703125 32.09375 33.90625 41.59375 24.203125 41.59375 
C 19.09375 41.59375 14.796875 39.6875 11.40625 36 
z
" id="CMR17-53"/>
      </defs>
      <g transform="translate(97.600884 319.358789)scale(0.1 -0.1)">
       <use transform="scale(0.996264)" xlink:href="#CMR17-53"/>
      </g>
     </g>
    </g>
    <g id="xtick_3">
     <g id="line2d_5">
      <path clip-path="url(#pd7ef978345)" d="M 149.366854 305.440291 
L 149.366854 10.8 
" style="fill:none;stroke:#dddddd;stroke-linecap:square;stroke-width:0.5;"/>
     </g>
     <g id="line2d_6">
      <g>
       <use style="stroke:#000000;stroke-width:0.8;" x="149.366854" xlink:href="#mcc3ed1b33a" y="305.440291"/>
      </g>
     </g>
     <g id="text_3">
      <!-- $\mathdefault{10}$ -->
      <defs>
       <path d="M 26.59375 63.796875 
C 26.59375 65.890625 26.5 66 25.09375 66 
C 21.203125 61.359375 15.296875 59.890625 9.703125 59.6875 
C 9.40625 59.6875 8.90625 59.6875 8.796875 59.5 
C 8.703125 59.296875 8.703125 59.09375 8.703125 57 
C 11.796875 57 17 57.59375 21 59.984375 
L 21 7.296875 
C 21 3.796875 20.796875 2.59375 12.203125 2.59375 
L 9.203125 2.59375 
L 9.203125 0 
C 14 0.09375 19 0.1875 23.796875 0.1875 
C 28.59375 0.1875 33.59375 0.09375 38.40625 0 
L 38.40625 2.59375 
L 35.40625 2.59375 
C 26.796875 2.59375 26.59375 3.6875 26.59375 7.296875 
z
" id="CMR17-49"/>
      </defs>
      <g transform="translate(144.385519 319.358789)scale(0.1 -0.1)">
       <use transform="scale(0.996264)" xlink:href="#CMR17-49"/>
       <use transform="translate(45.690477 0)scale(0.996264)" xlink:href="#CMR17-48"/>
      </g>
     </g>
    </g>
    <g id="xtick_4">
     <g id="line2d_7">
      <path clip-path="url(#pd7ef978345)" d="M 198.642156 305.440291 
L 198.642156 10.8 
" style="fill:none;stroke:#dddddd;stroke-linecap:square;stroke-width:0.5;"/>
     </g>
     <g id="line2d_8">
      <g>
       <use style="stroke:#000000;stroke-width:0.8;" x="198.642156" xlink:href="#mcc3ed1b33a" y="305.440291"/>
      </g>
     </g>
     <g id="text_4">
      <!-- $\mathdefault{15}$ -->
      <g transform="translate(193.66082 319.358789)scale(0.1 -0.1)">
       <use transform="scale(0.996264)" xlink:href="#CMR17-49"/>
       <use transform="translate(45.690477 0)scale(0.996264)" xlink:href="#CMR17-53"/>
      </g>
     </g>
    </g>
    <g id="xtick_5">
     <g id="line2d_9">
      <path clip-path="url(#pd7ef978345)" d="M 247.917457 305.440291 
L 247.917457 10.8 
" style="fill:none;stroke:#dddddd;stroke-linecap:square;stroke-width:0.5;"/>
     </g>
     <g id="line2d_10">
      <g>
       <use style="stroke:#000000;stroke-width:0.8;" x="247.917457" xlink:href="#mcc3ed1b33a" y="305.440291"/>
      </g>
     </g>
     <g id="text_5">
      <!-- $\mathdefault{20}$ -->
      <defs>
       <path d="M 41.703125 15.46875 
L 39.90625 15.46875 
C 38.90625 8.390625 38.09375 7.1875 37.703125 6.59375 
C 37.203125 5.796875 30 5.796875 28.59375 5.796875 
L 9.40625 5.796875 
C 13 9.6875 20 16.765625 28.5 24.9375 
C 34.59375 30.71875 41.703125 37.5 41.703125 47.390625 
C 41.703125 59.1875 32.296875 66 21.796875 66 
C 10.796875 66 4.09375 56.296875 4.09375 47.296875 
C 4.09375 43.390625 7 42.890625 8.203125 42.890625 
C 9.203125 42.890625 12.203125 43.484375 12.203125 46.984375 
C 12.203125 50.09375 9.59375 51 8.203125 51 
C 7.59375 51 7 50.890625 6.59375 50.6875 
C 8.5 59.1875 14.296875 63.390625 20.40625 63.390625 
C 29.09375 63.390625 34.796875 56.5 34.796875 47.390625 
C 34.796875 38.703125 29.703125 31.21875 24 24.734375 
L 4.09375 2.296875 
L 4.09375 0 
L 39.296875 0 
z
" id="CMR17-50"/>
      </defs>
      <g transform="translate(242.936122 319.358789)scale(0.1 -0.1)">
       <use transform="scale(0.996264)" xlink:href="#CMR17-50"/>
       <use transform="translate(45.690477 0)scale(0.996264)" xlink:href="#CMR17-48"/>
      </g>
     </g>
    </g>
    <g id="xtick_6">
     <g id="line2d_11">
      <path clip-path="url(#pd7ef978345)" d="M 297.192759 305.440291 
L 297.192759 10.8 
" style="fill:none;stroke:#dddddd;stroke-linecap:square;stroke-width:0.5;"/>
     </g>
     <g id="line2d_12">
      <g>
       <use style="stroke:#000000;stroke-width:0.8;" x="297.192759" xlink:href="#mcc3ed1b33a" y="305.440291"/>
      </g>
     </g>
     <g id="text_6">
      <!-- $\mathdefault{25}$ -->
      <g transform="translate(292.211424 319.358789)scale(0.1 -0.1)">
       <use transform="scale(0.996264)" xlink:href="#CMR17-50"/>
       <use transform="translate(45.690477 0)scale(0.996264)" xlink:href="#CMR17-53"/>
      </g>
     </g>
    </g>
    <g id="xtick_7">
     <g id="line2d_13">
      <path clip-path="url(#pd7ef978345)" d="M 346.468061 305.440291 
L 346.468061 10.8 
" style="fill:none;stroke:#dddddd;stroke-linecap:square;stroke-width:0.5;"/>
     </g>
     <g id="line2d_14">
      <g>
       <use style="stroke:#000000;stroke-width:0.8;" x="346.468061" xlink:href="#mcc3ed1b33a" y="305.440291"/>
      </g>
     </g>
     <g id="text_7">
      <!-- $\mathdefault{30}$ -->
      <defs>
       <path d="M 22.09375 34 
C 31 34 34.90625 26.140625 34.90625 17.09375 
C 34.90625 5.03125 28.5 0.390625 22.703125 0.390625 
C 17.40625 0.390625 8.796875 3.015625 6.09375 10.796875 
C 6.59375 10.59375 7.09375 10.59375 7.59375 10.59375 
C 10 10.59375 11.796875 12.1875 11.796875 14.796875 
C 11.796875 17.6875 9.59375 19 7.59375 19 
C 5.90625 19 3.296875 18.1875 3.296875 14.484375 
C 3.296875 5.234375 12.296875 -2 22.90625 -2 
C 34 -2 42.5 6.75 42.5 16.984375 
C 42.5 26.84375 34.5 34 25 35.09375 
C 32.59375 36.671875 39.90625 43.375 39.90625 52.390625 
C 39.90625 60.25 32 66 23 66 
C 13.90625 66 5.90625 60.34375 5.90625 52.296875 
C 5.90625 48.796875 8.5 48.1875 9.796875 48.1875 
C 11.90625 48.1875 13.703125 49.484375 13.703125 52.09375 
C 13.703125 54.6875 11.90625 56 9.796875 56 
C 9.40625 56 8.90625 56 8.5 55.796875 
C 11.40625 62.484375 19.296875 63.6875 22.796875 63.6875 
C 26.296875 63.6875 32.90625 61.96875 32.90625 52.296875 
C 32.90625 49.484375 32.5 44.546875 29.09375 40.21875 
C 26.09375 36.390625 22.703125 36.1875 19.40625 35.890625 
C 18.90625 35.890625 16.59375 35.6875 16.203125 35.6875 
C 15.5 35.59375 15.09375 35.5 15.09375 34.796875 
C 15.09375 34.09375 15.203125 34 17.203125 34 
z
" id="CMR17-51"/>
      </defs>
      <g transform="translate(341.486726 319.358789)scale(0.1 -0.1)">
       <use transform="scale(0.996264)" xlink:href="#CMR17-51"/>
       <use transform="translate(45.690477 0)scale(0.996264)" xlink:href="#CMR17-48"/>
      </g>
     </g>
    </g>
    <g id="xtick_8">
     <g id="line2d_15">
      <path clip-path="url(#pd7ef978345)" d="M 395.743363 305.440291 
L 395.743363 10.8 
" style="fill:none;stroke:#dddddd;stroke-linecap:square;stroke-width:0.5;"/>
     </g>
     <g id="line2d_16">
      <g>
       <use style="stroke:#000000;stroke-width:0.8;" x="395.743363" xlink:href="#mcc3ed1b33a" y="305.440291"/>
      </g>
     </g>
     <g id="text_8">
      <!-- $\mathdefault{35}$ -->
      <g transform="translate(390.762028 319.358789)scale(0.1 -0.1)">
       <use transform="scale(0.996264)" xlink:href="#CMR17-51"/>
       <use transform="translate(45.690477 0)scale(0.996264)" xlink:href="#CMR17-53"/>
      </g>
     </g>
    </g>
    <g id="xtick_9">
     <g id="line2d_17">
      <path clip-path="url(#pd7ef978345)" d="M 445.018665 305.440291 
L 445.018665 10.8 
" style="fill:none;stroke:#dddddd;stroke-linecap:square;stroke-width:0.5;"/>
     </g>
     <g id="line2d_18">
      <g>
       <use style="stroke:#000000;stroke-width:0.8;" x="445.018665" xlink:href="#mcc3ed1b33a" y="305.440291"/>
      </g>
     </g>
     <g id="text_9">
      <!-- $\mathdefault{40}$ -->
      <defs>
       <path d="M 33.59375 64.796875 
C 33.59375 66.890625 33.5 67 31.703125 67 
L 2 19.59375 
L 2 17 
L 27.796875 17 
L 27.796875 7.1875 
C 27.796875 3.59375 27.59375 2.59375 20.59375 2.59375 
L 18.703125 2.59375 
L 18.703125 0 
C 21.90625 0.1875 27.296875 0.1875 30.703125 0.1875 
C 34.09375 0.1875 39.5 0.1875 42.703125 0 
L 42.703125 2.59375 
L 40.796875 2.59375 
C 33.796875 2.59375 33.59375 3.59375 33.59375 7.1875 
L 33.59375 17 
L 43.796875 17 
L 43.796875 19.59375 
L 33.59375 19.59375 
z
M 28.09375 58.171875 
L 28.09375 19.59375 
L 4 19.59375 
z
" id="CMR17-52"/>
      </defs>
      <g transform="translate(440.037329 319.358789)scale(0.1 -0.1)">
       <use transform="scale(0.996264)" xlink:href="#CMR17-52"/>
       <use transform="translate(45.690477 0)scale(0.996264)" xlink:href="#CMR17-48"/>
      </g>
     </g>
    </g>
    <g id="text_10">
     <!-- sweep time $t_f$ in ns -->
     <defs>
      <path d="M 30.90625 42 
C 30.90625 43.796875 30.796875 43.890625 30.203125 43.890625 
C 29.796875 43.890625 29.703125 43.796875 28.5 42.296875 
C 28.203125 41.890625 27.296875 40.890625 27 40.5 
C 23.796875 43.890625 19.296875 44 17.59375 44 
C 6.5 44 2.5 38.1875 2.5 32.390625 
C 2.5 23.390625 12.703125 21.296875 15.59375 20.6875 
C 21.90625 19.390625 24.09375 19 26.203125 17.1875 
C 27.5 16 29.703125 13.796875 29.703125 10.1875 
C 29.703125 6 27.296875 0.59375 18.09375 0.59375 
C 9.40625 0.59375 6.296875 7.1875 4.5 16 
C 4.203125 17.390625 4.203125 17.5 3.40625 17.5 
C 2.59375 17.5 2.5 17.390625 2.5 15.390625 
L 2.5 1 
C 2.5 -0.8125 2.59375 -0.90625 3.203125 -0.90625 
C 3.703125 -0.90625 3.796875 -0.8125 4.296875 0 
C 4.90625 0.890625 6.40625 3.296875 7 4.296875 
C 9 1.59375 12.5 -1 18.09375 -1 
C 28 -1 33.296875 4.390625 33.296875 12.1875 
C 33.296875 17.296875 30.59375 20 29.296875 21.1875 
C 26.296875 24.296875 22.796875 25 18.59375 25.796875 
C 13.09375 27 6.09375 28.390625 6.09375 34.5 
C 6.09375 37.09375 7.5 42.59375 17.59375 42.59375 
C 28.296875 42.59375 28.90625 32.59375 29.09375 29.390625 
C 29.203125 28.890625 29.703125 28.796875 30 28.796875 
C 30.90625 28.796875 30.90625 29.09375 30.90625 30.796875 
z
" id="CMR17-115"/>
      <path d="M 58.203125 34.15625 
C 60.203125 40.09375 64.203125 40.296875 65.703125 40.390625 
L 65.703125 43 
C 63.703125 42.890625 61.703125 42.796875 59.703125 42.796875 
C 57.796875 42.796875 53.5 42.796875 51.796875 43 
L 51.796875 40.390625 
C 54.90625 40.1875 56.59375 38.375 56.59375 35.875 
C 56.59375 35.171875 56.40625 34.265625 56.203125 33.5625 
L 46.796875 6.21875 
L 36.59375 35.875 
C 36.40625 36.578125 36.09375 37.375 36.09375 37.78125 
C 36.09375 40.390625 39.5 40.390625 41.09375 40.390625 
L 41.09375 43 
C 38.796875 42.796875 34.59375 42.796875 32.203125 42.796875 
C 29.703125 42.796875 27.09375 42.796875 24.796875 43 
L 24.796875 40.390625 
C 30.296875 40.390625 30.296875 40.1875 32.40625 33.859375 
L 23.203125 6.921875 
L 13.296875 35.96875 
C 12.796875 37.28125 12.796875 37.484375 12.796875 37.78125 
C 12.796875 40.390625 16.203125 40.390625 17.796875 40.390625 
L 17.796875 43 
C 15.40625 42.796875 11.203125 42.796875 8.703125 42.796875 
C 6.5 42.796875 3.09375 42.796875 1 43 
L 1 40.390625 
C 5.40625 40.390625 6.5 40.09375 7.59375 36.765625 
L 19.90625 0.59375 
C 20.296875 -0.703125 20.59375 -1 21.40625 -1 
C 22.09375 -1 22.5 -0.8125 23 0.6875 
L 33.296875 31.046875 
L 43.703125 0.6875 
C 44.203125 -0.8125 44.59375 -1 45.296875 -1 
C 46.09375 -1 46.40625 -0.703125 46.796875 0.59375 
z
" id="CMR17-119"/>
      <path d="M 38.09375 23.484375 
C 38.5 23.890625 38.5 24.09375 38.5 25.09375 
C 38.5 35.171875 33.09375 44 21.703125 44 
C 11.09375 44 2.703125 33.984375 2.703125 21.78125 
C 2.703125 8.65625 12.203125 -1 22.796875 -1 
C 34 -1 38.40625 9.671875 38.40625 11.796875 
C 38.40625 12.5 37.796875 12.5 37.59375 12.5 
C 36.90625 12.5 36.796875 12.296875 36.40625 11.078125 
C 34.203125 4.21875 28.703125 0.796875 23.5 0.796875 
C 19.203125 0.796875 14.90625 3.21875 12.203125 7.65625 
C 9.09375 12.796875 9.09375 18.75 9.09375 23.484375 
z
M 9.203125 25 
C 9.90625 39.234375 17.59375 42.390625 21.59375 42.390625 
C 28.40625 42.390625 33 36.0625 33.09375 25 
z
" id="CMR17-101"/>
      <path d="M 22 -17.40625 
C 15.59375 -17.40625 15.203125 -17 15.203125 -13.03125 
L 15.203125 5.9375 
C 18.09375 1.703125 22.296875 -1 27.59375 -1 
C 37.59375 -1 47.703125 7.859375 47.703125 21.59375 
C 47.703125 34.3125 39 44 28.703125 44 
C 22.703125 44 17.796875 40.671875 15 36.640625 
L 15 44 
L 3.09375 42.890625 
L 3.09375 40.265625 
C 9 40.265625 9.90625 39.671875 9.90625 34.8125 
L 9.90625 -13.03125 
C 9.90625 -16.890625 9.5 -17.40625 3.09375 -17.40625 
L 3.09375 -20 
C 5.5 -19.8125 9.90625 -19.8125 12.5 -19.8125 
C 15.09375 -19.8125 19.59375 -19.8125 22 -20 
z
M 15.203125 31.484375 
C 15.203125 32.90625 15.203125 35.015625 19.09375 38.765625 
C 19.59375 39.15625 23 42.1875 28 42.1875 
C 35.296875 42.1875 41.296875 33 41.296875 21.5 
C 41.296875 9.984375 34.90625 0.59375 27 0.59375 
C 23.40625 0.59375 19.5 2.3125 16.5 7.046875 
C 15.203125 9.28125 15.203125 9.875 15.203125 11.5 
z
" id="CMR17-112"/>
      <path d="M 15.09375 40.390625 
L 29.09375 40.390625 
L 29.09375 43 
L 15.09375 43 
L 15.09375 62 
L 13.296875 62 
C 13.09375 51.4375 9.59375 42.1875 1.09375 41.984375 
L 1.09375 40.390625 
L 9.796875 40.390625 
L 9.796875 12.15625 
C 9.796875 10.234375 9.796875 -1 21.40625 -1 
C 27.296875 -1 30.703125 4.8125 30.703125 12.25 
L 30.703125 17.984375 
L 28.90625 17.984375 
L 28.90625 12.34375 
C 28.90625 5.421875 26.203125 0.796875 22 0.796875 
C 19.09375 0.796875 15.09375 2.796875 15.09375 11.953125 
z
" id="CMR17-116"/>
      <path d="M 15.5 61.890625 
C 15.5 64.09375 13.703125 66 11.40625 66 
C 9.203125 66 7.296875 64.1875 7.296875 61.890625 
C 7.296875 59.6875 9.09375 57.796875 11.40625 57.796875 
C 13.59375 57.796875 15.5 59.59375 15.5 61.890625 
z
M 3.796875 42.890625 
L 3.796875 40.296875 
C 9.40625 40.296875 10.203125 39.6875 10.203125 34.859375 
L 10.203125 6.921875 
C 10.203125 3.09375 9.796875 2.59375 3.40625 2.59375 
L 3.40625 0 
C 5.796875 0.1875 10.09375 0.1875 12.59375 0.1875 
C 15 0.1875 19.09375 0.1875 21.40625 0 
L 21.40625 2.59375 
C 15.5 2.59375 15.296875 3.203125 15.296875 6.8125 
L 15.296875 44 
z
" id="CMR17-105"/>
      <path d="M 67.59375 30.53125 
C 67.59375 35.5625 66.703125 44 54.796875 44 
C 48 44 43.296875 39.375 41.5 33.953125 
L 41.40625 33.953125 
C 40.203125 42.1875 34.296875 44 28.703125 44 
C 20.796875 44 16.703125 37.875 15.203125 33.84375 
L 15.09375 33.84375 
L 15.09375 44 
L 3.296875 42.890625 
L 3.296875 40.28125 
C 9.203125 40.28125 10.09375 39.6875 10.09375 34.859375 
L 10.09375 6.921875 
C 10.09375 3.09375 9.703125 2.59375 3.296875 2.59375 
L 3.296875 0 
C 5.703125 0.1875 10.09375 0.1875 12.703125 0.1875 
C 15.296875 0.1875 19.796875 0.1875 22.203125 0 
L 22.203125 2.59375 
C 15.796875 2.59375 15.40625 3 15.40625 6.921875 
L 15.40625 26.21875 
C 15.40625 35.453125 21 42.390625 28 42.390625 
C 35.40625 42.390625 36.203125 35.765625 36.203125 30.9375 
L 36.203125 6.921875 
C 36.203125 3.09375 35.796875 2.59375 29.40625 2.59375 
L 29.40625 0 
C 31.796875 0.1875 36.203125 0.1875 38.796875 0.1875 
C 41.40625 0.1875 45.90625 0.1875 48.296875 0 
L 48.296875 2.59375 
C 41.90625 2.59375 41.5 3 41.5 6.921875 
L 41.5 26.21875 
C 41.5 35.453125 47.09375 42.390625 54.09375 42.390625 
C 61.5 42.390625 62.296875 35.765625 62.296875 30.9375 
L 62.296875 6.921875 
C 62.296875 3.09375 61.90625 2.59375 55.5 2.59375 
L 55.5 0 
C 57.90625 0.1875 62.296875 0.1875 64.90625 0.1875 
C 67.5 0.1875 72 0.1875 74.40625 0 
L 74.40625 2.59375 
C 68 2.59375 67.59375 3 67.59375 6.921875 
z
" id="CMR17-109"/>
      <path d="M 20.09375 40.09375 
L 29.296875 40.09375 
C 31.203125 40.09375 32.203125 40.09375 32.203125 41.890625 
C 32.203125 43 31.59375 43 29.59375 43 
L 20.796875 43 
L 24.5 57.25 
C 24.90625 58.625 24.90625 58.8125 24.90625 59.5 
C 24.90625 61.09375 23.59375 62 22.296875 62 
C 21.5 62 19.203125 61.6875 18.40625 58.53125 
L 14.5 43 
L 5.09375 43 
C 3.09375 43 2.203125 43 2.203125 41.09375 
C 2.203125 40.09375 2.90625 40.09375 4.796875 40.09375 
L 13.703125 40.09375 
L 7.09375 13.765625 
C 6.296875 10.265625 6 9.265625 6 7.96875 
C 6 3.28125 9.296875 -1 14.90625 -1 
C 25 -1 30.40625 13.5625 30.40625 14.265625 
C 30.40625 14.859375 30 15.15625 29.40625 15.15625 
C 29.203125 15.15625 28.796875 15.15625 28.59375 14.75 
C 28.5 14.65625 28.40625 14.5625 27.703125 12.96875 
C 25.59375 7.96875 21 1 15.203125 1 
C 12.203125 1 12 3.484375 12 5.6875 
C 12 5.78125 12 7.671875 12.296875 8.875 
z
" id="CMMI12-116"/>
      <path d="M 44.59375 40.09375 
C 46.59375 40.09375 47.40625 40.09375 47.40625 41.984375 
C 47.40625 43 46.59375 43 44.796875 43 
L 36.703125 43 
C 38.59375 53.09375 40 60.09375 40.796875 63.296875 
C 41.40625 65.6875 43.5 67.984375 46.09375 67.984375 
C 48.203125 67.984375 50.296875 67.09375 51.296875 66.1875 
C 47.40625 65.796875 46.203125 62.890625 46.203125 61.1875 
C 46.203125 59.1875 47.703125 58 49.59375 58 
C 51.59375 58 54.59375 59.6875 54.59375 63.5 
C 54.59375 67.6875 50.40625 70 46 70 
C 41.703125 70 37.5 66.796875 35.5 62.890625 
C 33.703125 59.390625 32.703125 55.828125 30.40625 43 
L 23.703125 43 
C 21.796875 43 20.796875 43 20.796875 41.1875 
C 20.796875 40.09375 21.40625 40.09375 23.40625 40.09375 
L 29.796875 40.09375 
C 28 30.890625 23.90625 8.515625 21.59375 -2.0625 
C 19.90625 -10.703125 18.40625 -18 13.40625 -18 
C 13.09375 -18 10.203125 -18 8.40625 -16.109375 
C 13.5 -15.703125 13.5 -11.3125 13.5 -11.203125 
C 13.5 -9.203125 12 -8 10.09375 -8 
C 8.09375 -8 5.09375 -9.703125 5.09375 -13.515625 
C 5.09375 -17.8125 9.5 -20 13.40625 -20 
C 23.59375 -20 27.796875 -1.765625 28.90625 3.171875 
C 30.703125 10.796875 35.59375 37.125 36.09375 40.09375 
z
" id="CMMI12-102"/>
      <path d="M 41.5 30.53125 
C 41.5 35.65625 40.5 44 28.703125 44 
C 20.796875 44 16.703125 37.875 15.203125 33.84375 
L 15.09375 33.84375 
L 15.09375 44 
L 3.296875 42.890625 
L 3.296875 40.28125 
C 9.203125 40.28125 10.09375 39.6875 10.09375 34.859375 
L 10.09375 6.921875 
C 10.09375 3.09375 9.703125 2.59375 3.296875 2.59375 
L 3.296875 0 
C 5.703125 0.1875 10.09375 0.1875 12.703125 0.1875 
C 15.296875 0.1875 19.796875 0.1875 22.203125 0 
L 22.203125 2.59375 
C 15.796875 2.59375 15.40625 3 15.40625 6.921875 
L 15.40625 26.21875 
C 15.40625 35.453125 21 42.390625 28 42.390625 
C 35.40625 42.390625 36.203125 35.765625 36.203125 30.9375 
L 36.203125 6.921875 
C 36.203125 3.09375 35.796875 2.59375 29.40625 2.59375 
L 29.40625 0 
C 31.796875 0.1875 36.203125 0.1875 38.796875 0.1875 
C 41.40625 0.1875 45.90625 0.1875 48.296875 0 
L 48.296875 2.59375 
C 41.90625 2.59375 41.5 3 41.5 6.921875 
z
" id="CMR17-110"/>
     </defs>
     <g transform="translate(205.705893 331.949605)scale(0.1 -0.1)">
      <use transform="scale(0.996264)" xlink:href="#CMR17-115"/>
      <use transform="translate(35.801338 0)scale(0.996264)" xlink:href="#CMR17-119"/>
      <use transform="translate(99.708764 0)scale(0.996264)" xlink:href="#CMR17-101"/>
      <use transform="translate(140.194425 0)scale(0.996264)" xlink:href="#CMR17-101"/>
      <use transform="translate(180.680085 0)scale(0.996264)" xlink:href="#CMR17-112"/>
      <use transform="translate(261.651421 0)scale(0.996264)" xlink:href="#CMR17-116"/>
      <use transform="translate(296.932189 0)scale(0.996264)" xlink:href="#CMR17-105"/>
      <use transform="translate(321.803248 0)scale(0.996264)" xlink:href="#CMR17-109"/>
      <use transform="translate(398.722837 0)scale(0.996264)" xlink:href="#CMR17-101"/>
      <use transform="translate(469.284464 0)scale(0.996264)" xlink:href="#CMMI12-116"/>
      <use transform="translate(504.510794 -14.943915)scale(0.697382)" xlink:href="#CMMI12-102"/>
      <use transform="translate(576.188916 0)scale(0.996264)" xlink:href="#CMR17-105"/>
      <use transform="translate(601.059975 0)scale(0.996264)" xlink:href="#CMR17-110"/>
      <use transform="translate(682.031311 0)scale(0.996264)" xlink:href="#CMR17-110"/>
      <use transform="translate(732.926681 0)scale(0.996264)" xlink:href="#CMR17-115"/>
     </g>
    </g>
   </g>
   <g id="matplotlib.axis_2">
    <g id="ytick_1">
     <g id="line2d_19">
      <path clip-path="url(#pd7ef978345)" d="M 50.81625 292.04755 
L 445.018665 292.04755 
" style="fill:none;stroke:#dddddd;stroke-linecap:square;stroke-width:0.5;"/>
     </g>
     <g id="line2d_20">
      <defs>
       <path d="M 0 0 
L -3.5 0 
" id="maed6e57354" style="stroke:#000000;stroke-width:0.8;"/>
      </defs>
      <g>
       <use style="stroke:#000000;stroke-width:0.8;" x="50.81625" xlink:href="#maed6e57354" y="292.04755"/>
      </g>
     </g>
     <g id="text_11">
      <!-- $\mathdefault{10^{-6}}$ -->
      <defs>
       <path d="M 65.90625 23 
C 67.59375 23 69.40625 23 69.40625 25 
C 69.40625 27 67.59375 27 65.90625 27 
L 11.796875 27 
C 10.09375 27 8.296875 27 8.296875 25 
C 8.296875 23 10.09375 23 11.796875 23 
z
" id="CMSY10-0"/>
       <path d="M 10.59375 34.34375 
C 10.59375 58 21.796875 63.6875 28.296875 63.6875 
C 30.40625 63.6875 35.5 63.265625 37.5 59.09375 
C 35.90625 59.09375 32.90625 59.09375 32.90625 55.59375 
C 32.90625 52.890625 35.09375 52 36.5 52 
C 37.40625 52 40.09375 52.390625 40.09375 55.796875 
C 40.09375 62.296875 35.09375 66 28.203125 66 
C 16.296875 66 3.796875 53.296875 3.796875 31.421875 
C 3.796875 4.015625 15.09375 -2 23.09375 -2 
C 32.796875 -2 42 6.734375 42 20.234375 
C 42 32.828125 33.90625 42 23.703125 42 
C 17.59375 42 13.09375 37.96875 10.59375 30.921875 
z
M 23.09375 0.390625 
C 10.796875 0.390625 10.796875 18.9375 10.796875 22.65625 
C 10.796875 29.90625 14.203125 40.390625 23.5 40.390625 
C 25.203125 40.390625 30.09375 40.390625 33.40625 33.4375 
C 35.203125 29.515625 35.203125 25.375 35.203125 20.34375 
C 35.203125 14.90625 35.203125 10.875 33.09375 6.84375 
C 30.90625 2.703125 27.703125 0.390625 23.09375 0.390625 
z
" id="CMR17-54"/>
      </defs>
      <g transform="translate(23.655677 295.506799)scale(0.1 -0.1)">
       <use transform="scale(0.996264)" xlink:href="#CMR17-49"/>
       <use transform="translate(45.690477 0)scale(0.996264)" xlink:href="#CMR17-48"/>
       <use transform="translate(91.380954 36.153639)scale(0.697382)" xlink:href="#CMSY10-0"/>
       <use transform="translate(145.621947 36.153639)scale(0.697382)" xlink:href="#CMR17-54"/>
      </g>
     </g>
    </g>
    <g id="ytick_2">
     <g id="line2d_21">
      <path clip-path="url(#pd7ef978345)" d="M 50.81625 247.405082 
L 445.018665 247.405082 
" style="fill:none;stroke:#dddddd;stroke-linecap:square;stroke-width:0.5;"/>
     </g>
     <g id="line2d_22">
      <g>
       <use style="stroke:#000000;stroke-width:0.8;" x="50.81625" xlink:href="#maed6e57354" y="247.405082"/>
      </g>
     </g>
     <g id="text_12">
      <!-- $\mathdefault{10^{-5}}$ -->
      <g transform="translate(23.655677 250.864331)scale(0.1 -0.1)">
       <use transform="scale(0.996264)" xlink:href="#CMR17-49"/>
       <use transform="translate(45.690477 0)scale(0.996264)" xlink:href="#CMR17-48"/>
       <use transform="translate(91.380954 36.153639)scale(0.697382)" xlink:href="#CMSY10-0"/>
       <use transform="translate(145.621947 36.153639)scale(0.697382)" xlink:href="#CMR17-53"/>
      </g>
     </g>
    </g>
    <g id="ytick_3">
     <g id="line2d_23">
      <path clip-path="url(#pd7ef978345)" d="M 50.81625 202.762614 
L 445.018665 202.762614 
" style="fill:none;stroke:#dddddd;stroke-linecap:square;stroke-width:0.5;"/>
     </g>
     <g id="line2d_24">
      <g>
       <use style="stroke:#000000;stroke-width:0.8;" x="50.81625" xlink:href="#maed6e57354" y="202.762614"/>
      </g>
     </g>
     <g id="text_13">
      <!-- $\mathdefault{10^{-4}}$ -->
      <g transform="translate(23.655677 206.221863)scale(0.1 -0.1)">
       <use transform="scale(0.996264)" xlink:href="#CMR17-49"/>
       <use transform="translate(45.690477 0)scale(0.996264)" xlink:href="#CMR17-48"/>
       <use transform="translate(91.380954 36.153639)scale(0.697382)" xlink:href="#CMSY10-0"/>
       <use transform="translate(145.621947 36.153639)scale(0.697382)" xlink:href="#CMR17-52"/>
      </g>
     </g>
    </g>
    <g id="ytick_4">
     <g id="line2d_25">
      <path clip-path="url(#pd7ef978345)" d="M 50.81625 158.120145 
L 445.018665 158.120145 
" style="fill:none;stroke:#dddddd;stroke-linecap:square;stroke-width:0.5;"/>
     </g>
     <g id="line2d_26">
      <g>
       <use style="stroke:#000000;stroke-width:0.8;" x="50.81625" xlink:href="#maed6e57354" y="158.120145"/>
      </g>
     </g>
     <g id="text_14">
      <!-- $\mathdefault{10^{-3}}$ -->
      <g transform="translate(23.655677 161.579394)scale(0.1 -0.1)">
       <use transform="scale(0.996264)" xlink:href="#CMR17-49"/>
       <use transform="translate(45.690477 0)scale(0.996264)" xlink:href="#CMR17-48"/>
       <use transform="translate(91.380954 36.153639)scale(0.697382)" xlink:href="#CMSY10-0"/>
       <use transform="translate(145.621947 36.153639)scale(0.697382)" xlink:href="#CMR17-51"/>
      </g>
     </g>
    </g>
    <g id="ytick_5">
     <g id="line2d_27">
      <path clip-path="url(#pd7ef978345)" d="M 50.81625 113.477677 
L 445.018665 113.477677 
" style="fill:none;stroke:#dddddd;stroke-linecap:square;stroke-width:0.5;"/>
     </g>
     <g id="line2d_28">
      <g>
       <use style="stroke:#000000;stroke-width:0.8;" x="50.81625" xlink:href="#maed6e57354" y="113.477677"/>
      </g>
     </g>
     <g id="text_15">
      <!-- $\mathdefault{10^{-2}}$ -->
      <g transform="translate(23.655677 116.936926)scale(0.1 -0.1)">
       <use transform="scale(0.996264)" xlink:href="#CMR17-49"/>
       <use transform="translate(45.690477 0)scale(0.996264)" xlink:href="#CMR17-48"/>
       <use transform="translate(91.380954 36.153639)scale(0.697382)" xlink:href="#CMSY10-0"/>
       <use transform="translate(145.621947 36.153639)scale(0.697382)" xlink:href="#CMR17-50"/>
      </g>
     </g>
    </g>
    <g id="ytick_6">
     <g id="line2d_29">
      <path clip-path="url(#pd7ef978345)" d="M 50.81625 68.835209 
L 445.018665 68.835209 
" style="fill:none;stroke:#dddddd;stroke-linecap:square;stroke-width:0.5;"/>
     </g>
     <g id="line2d_30">
      <g>
       <use style="stroke:#000000;stroke-width:0.8;" x="50.81625" xlink:href="#maed6e57354" y="68.835209"/>
      </g>
     </g>
     <g id="text_16">
      <!-- $\mathdefault{10^{-1}}$ -->
      <g transform="translate(23.655677 72.294458)scale(0.1 -0.1)">
       <use transform="scale(0.996264)" xlink:href="#CMR17-49"/>
       <use transform="translate(45.690477 0)scale(0.996264)" xlink:href="#CMR17-48"/>
       <use transform="translate(91.380954 36.153639)scale(0.697382)" xlink:href="#CMSY10-0"/>
       <use transform="translate(145.621947 36.153639)scale(0.697382)" xlink:href="#CMR17-49"/>
      </g>
     </g>
    </g>
    <g id="ytick_7">
     <g id="line2d_31">
      <path clip-path="url(#pd7ef978345)" d="M 50.81625 24.19274 
L 445.018665 24.19274 
" style="fill:none;stroke:#dddddd;stroke-linecap:square;stroke-width:0.5;"/>
     </g>
     <g id="line2d_32">
      <g>
       <use style="stroke:#000000;stroke-width:0.8;" x="50.81625" xlink:href="#maed6e57354" y="24.19274"/>
      </g>
     </g>
     <g id="text_17">
      <!-- $\mathdefault{10^{0}}$ -->
      <g transform="translate(29.882342 27.65199)scale(0.1 -0.1)">
       <use transform="scale(0.996264)" xlink:href="#CMR17-49"/>
       <use transform="translate(45.690477 0)scale(0.996264)" xlink:href="#CMR17-48"/>
       <use transform="translate(91.380954 36.153639)scale(0.697382)" xlink:href="#CMR17-48"/>
      </g>
     </g>
    </g>
    <g id="ytick_8">
     <g id="line2d_33">
      <path clip-path="url(#pd7ef978345)" d="M 50.81625 301.951426 
L 445.018665 301.951426 
" style="fill:none;stroke:#dddddd;stroke-linecap:square;stroke-width:0.5;"/>
     </g>
     <g id="line2d_34">
      <defs>
       <path d="M 0 0 
L -2 0 
" id="m9808879d60" style="stroke:#000000;stroke-width:0.6;"/>
      </defs>
      <g>
       <use style="stroke:#000000;stroke-width:0.6;" x="50.81625" xlink:href="#m9808879d60" y="301.951426"/>
      </g>
     </g>
    </g>
    <g id="ytick_9">
     <g id="line2d_35">
      <path clip-path="url(#pd7ef978345)" d="M 50.81625 298.962756 
L 445.018665 298.962756 
" style="fill:none;stroke:#dddddd;stroke-linecap:square;stroke-width:0.5;"/>
     </g>
     <g id="line2d_36">
      <g>
       <use style="stroke:#000000;stroke-width:0.6;" x="50.81625" xlink:href="#m9808879d60" y="298.962756"/>
      </g>
     </g>
    </g>
    <g id="ytick_10">
     <g id="line2d_37">
      <path clip-path="url(#pd7ef978345)" d="M 50.81625 296.373852 
L 445.018665 296.373852 
" style="fill:none;stroke:#dddddd;stroke-linecap:square;stroke-width:0.5;"/>
     </g>
     <g id="line2d_38">
      <g>
       <use style="stroke:#000000;stroke-width:0.6;" x="50.81625" xlink:href="#m9808879d60" y="296.373852"/>
      </g>
     </g>
    </g>
    <g id="ytick_11">
     <g id="line2d_39">
      <path clip-path="url(#pd7ef978345)" d="M 50.81625 294.090277 
L 445.018665 294.090277 
" style="fill:none;stroke:#dddddd;stroke-linecap:square;stroke-width:0.5;"/>
     </g>
     <g id="line2d_40">
      <g>
       <use style="stroke:#000000;stroke-width:0.6;" x="50.81625" xlink:href="#m9808879d60" y="294.090277"/>
      </g>
     </g>
    </g>
    <g id="ytick_12">
     <g id="line2d_41">
      <path clip-path="url(#pd7ef978345)" d="M 50.81625 278.608828 
L 445.018665 278.608828 
" style="fill:none;stroke:#dddddd;stroke-linecap:square;stroke-width:0.5;"/>
     </g>
     <g id="line2d_42">
      <g>
       <use style="stroke:#000000;stroke-width:0.6;" x="50.81625" xlink:href="#m9808879d60" y="278.608828"/>
      </g>
     </g>
    </g>
    <g id="ytick_13">
     <g id="line2d_43">
      <path clip-path="url(#pd7ef978345)" d="M 50.81625 270.74768 
L 445.018665 270.74768 
" style="fill:none;stroke:#dddddd;stroke-linecap:square;stroke-width:0.5;"/>
     </g>
     <g id="line2d_44">
      <g>
       <use style="stroke:#000000;stroke-width:0.6;" x="50.81625" xlink:href="#m9808879d60" y="270.74768"/>
      </g>
     </g>
    </g>
    <g id="ytick_14">
     <g id="line2d_45">
      <path clip-path="url(#pd7ef978345)" d="M 50.81625 265.170106 
L 445.018665 265.170106 
" style="fill:none;stroke:#dddddd;stroke-linecap:square;stroke-width:0.5;"/>
     </g>
     <g id="line2d_46">
      <g>
       <use style="stroke:#000000;stroke-width:0.6;" x="50.81625" xlink:href="#m9808879d60" y="265.170106"/>
      </g>
     </g>
    </g>
    <g id="ytick_15">
     <g id="line2d_47">
      <path clip-path="url(#pd7ef978345)" d="M 50.81625 260.843804 
L 445.018665 260.843804 
" style="fill:none;stroke:#dddddd;stroke-linecap:square;stroke-width:0.5;"/>
     </g>
     <g id="line2d_48">
      <g>
       <use style="stroke:#000000;stroke-width:0.6;" x="50.81625" xlink:href="#m9808879d60" y="260.843804"/>
      </g>
     </g>
    </g>
    <g id="ytick_16">
     <g id="line2d_49">
      <path clip-path="url(#pd7ef978345)" d="M 50.81625 257.308958 
L 445.018665 257.308958 
" style="fill:none;stroke:#dddddd;stroke-linecap:square;stroke-width:0.5;"/>
     </g>
     <g id="line2d_50">
      <g>
       <use style="stroke:#000000;stroke-width:0.6;" x="50.81625" xlink:href="#m9808879d60" y="257.308958"/>
      </g>
     </g>
    </g>
    <g id="ytick_17">
     <g id="line2d_51">
      <path clip-path="url(#pd7ef978345)" d="M 50.81625 254.320288 
L 445.018665 254.320288 
" style="fill:none;stroke:#dddddd;stroke-linecap:square;stroke-width:0.5;"/>
     </g>
     <g id="line2d_52">
      <g>
       <use style="stroke:#000000;stroke-width:0.6;" x="50.81625" xlink:href="#m9808879d60" y="254.320288"/>
      </g>
     </g>
    </g>
    <g id="ytick_18">
     <g id="line2d_53">
      <path clip-path="url(#pd7ef978345)" d="M 50.81625 251.731384 
L 445.018665 251.731384 
" style="fill:none;stroke:#dddddd;stroke-linecap:square;stroke-width:0.5;"/>
     </g>
     <g id="line2d_54">
      <g>
       <use style="stroke:#000000;stroke-width:0.6;" x="50.81625" xlink:href="#m9808879d60" y="251.731384"/>
      </g>
     </g>
    </g>
    <g id="ytick_19">
     <g id="line2d_55">
      <path clip-path="url(#pd7ef978345)" d="M 50.81625 249.447809 
L 445.018665 249.447809 
" style="fill:none;stroke:#dddddd;stroke-linecap:square;stroke-width:0.5;"/>
     </g>
     <g id="line2d_56">
      <g>
       <use style="stroke:#000000;stroke-width:0.6;" x="50.81625" xlink:href="#m9808879d60" y="249.447809"/>
      </g>
     </g>
    </g>
    <g id="ytick_20">
     <g id="line2d_57">
      <path clip-path="url(#pd7ef978345)" d="M 50.81625 233.96636 
L 445.018665 233.96636 
" style="fill:none;stroke:#dddddd;stroke-linecap:square;stroke-width:0.5;"/>
     </g>
     <g id="line2d_58">
      <g>
       <use style="stroke:#000000;stroke-width:0.6;" x="50.81625" xlink:href="#m9808879d60" y="233.96636"/>
      </g>
     </g>
    </g>
    <g id="ytick_21">
     <g id="line2d_59">
      <path clip-path="url(#pd7ef978345)" d="M 50.81625 226.105211 
L 445.018665 226.105211 
" style="fill:none;stroke:#dddddd;stroke-linecap:square;stroke-width:0.5;"/>
     </g>
     <g id="line2d_60">
      <g>
       <use style="stroke:#000000;stroke-width:0.6;" x="50.81625" xlink:href="#m9808879d60" y="226.105211"/>
      </g>
     </g>
    </g>
    <g id="ytick_22">
     <g id="line2d_61">
      <path clip-path="url(#pd7ef978345)" d="M 50.81625 220.527638 
L 445.018665 220.527638 
" style="fill:none;stroke:#dddddd;stroke-linecap:square;stroke-width:0.5;"/>
     </g>
     <g id="line2d_62">
      <g>
       <use style="stroke:#000000;stroke-width:0.6;" x="50.81625" xlink:href="#m9808879d60" y="220.527638"/>
      </g>
     </g>
    </g>
    <g id="ytick_23">
     <g id="line2d_63">
      <path clip-path="url(#pd7ef978345)" d="M 50.81625 216.201336 
L 445.018665 216.201336 
" style="fill:none;stroke:#dddddd;stroke-linecap:square;stroke-width:0.5;"/>
     </g>
     <g id="line2d_64">
      <g>
       <use style="stroke:#000000;stroke-width:0.6;" x="50.81625" xlink:href="#m9808879d60" y="216.201336"/>
      </g>
     </g>
    </g>
    <g id="ytick_24">
     <g id="line2d_65">
      <path clip-path="url(#pd7ef978345)" d="M 50.81625 212.666489 
L 445.018665 212.666489 
" style="fill:none;stroke:#dddddd;stroke-linecap:square;stroke-width:0.5;"/>
     </g>
     <g id="line2d_66">
      <g>
       <use style="stroke:#000000;stroke-width:0.6;" x="50.81625" xlink:href="#m9808879d60" y="212.666489"/>
      </g>
     </g>
    </g>
    <g id="ytick_25">
     <g id="line2d_67">
      <path clip-path="url(#pd7ef978345)" d="M 50.81625 209.677819 
L 445.018665 209.677819 
" style="fill:none;stroke:#dddddd;stroke-linecap:square;stroke-width:0.5;"/>
     </g>
     <g id="line2d_68">
      <g>
       <use style="stroke:#000000;stroke-width:0.6;" x="50.81625" xlink:href="#m9808879d60" y="209.677819"/>
      </g>
     </g>
    </g>
    <g id="ytick_26">
     <g id="line2d_69">
      <path clip-path="url(#pd7ef978345)" d="M 50.81625 207.088916 
L 445.018665 207.088916 
" style="fill:none;stroke:#dddddd;stroke-linecap:square;stroke-width:0.5;"/>
     </g>
     <g id="line2d_70">
      <g>
       <use style="stroke:#000000;stroke-width:0.6;" x="50.81625" xlink:href="#m9808879d60" y="207.088916"/>
      </g>
     </g>
    </g>
    <g id="ytick_27">
     <g id="line2d_71">
      <path clip-path="url(#pd7ef978345)" d="M 50.81625 204.805341 
L 445.018665 204.805341 
" style="fill:none;stroke:#dddddd;stroke-linecap:square;stroke-width:0.5;"/>
     </g>
     <g id="line2d_72">
      <g>
       <use style="stroke:#000000;stroke-width:0.6;" x="50.81625" xlink:href="#m9808879d60" y="204.805341"/>
      </g>
     </g>
    </g>
    <g id="ytick_28">
     <g id="line2d_73">
      <path clip-path="url(#pd7ef978345)" d="M 50.81625 189.323892 
L 445.018665 189.323892 
" style="fill:none;stroke:#dddddd;stroke-linecap:square;stroke-width:0.5;"/>
     </g>
     <g id="line2d_74">
      <g>
       <use style="stroke:#000000;stroke-width:0.6;" x="50.81625" xlink:href="#m9808879d60" y="189.323892"/>
      </g>
     </g>
    </g>
    <g id="ytick_29">
     <g id="line2d_75">
      <path clip-path="url(#pd7ef978345)" d="M 50.81625 181.462743 
L 445.018665 181.462743 
" style="fill:none;stroke:#dddddd;stroke-linecap:square;stroke-width:0.5;"/>
     </g>
     <g id="line2d_76">
      <g>
       <use style="stroke:#000000;stroke-width:0.6;" x="50.81625" xlink:href="#m9808879d60" y="181.462743"/>
      </g>
     </g>
    </g>
    <g id="ytick_30">
     <g id="line2d_77">
      <path clip-path="url(#pd7ef978345)" d="M 50.81625 175.885169 
L 445.018665 175.885169 
" style="fill:none;stroke:#dddddd;stroke-linecap:square;stroke-width:0.5;"/>
     </g>
     <g id="line2d_78">
      <g>
       <use style="stroke:#000000;stroke-width:0.6;" x="50.81625" xlink:href="#m9808879d60" y="175.885169"/>
      </g>
     </g>
    </g>
    <g id="ytick_31">
     <g id="line2d_79">
      <path clip-path="url(#pd7ef978345)" d="M 50.81625 171.558867 
L 445.018665 171.558867 
" style="fill:none;stroke:#dddddd;stroke-linecap:square;stroke-width:0.5;"/>
     </g>
     <g id="line2d_80">
      <g>
       <use style="stroke:#000000;stroke-width:0.6;" x="50.81625" xlink:href="#m9808879d60" y="171.558867"/>
      </g>
     </g>
    </g>
    <g id="ytick_32">
     <g id="line2d_81">
      <path clip-path="url(#pd7ef978345)" d="M 50.81625 168.024021 
L 445.018665 168.024021 
" style="fill:none;stroke:#dddddd;stroke-linecap:square;stroke-width:0.5;"/>
     </g>
     <g id="line2d_82">
      <g>
       <use style="stroke:#000000;stroke-width:0.6;" x="50.81625" xlink:href="#m9808879d60" y="168.024021"/>
      </g>
     </g>
    </g>
    <g id="ytick_33">
     <g id="line2d_83">
      <path clip-path="url(#pd7ef978345)" d="M 50.81625 165.035351 
L 445.018665 165.035351 
" style="fill:none;stroke:#dddddd;stroke-linecap:square;stroke-width:0.5;"/>
     </g>
     <g id="line2d_84">
      <g>
       <use style="stroke:#000000;stroke-width:0.6;" x="50.81625" xlink:href="#m9808879d60" y="165.035351"/>
      </g>
     </g>
    </g>
    <g id="ytick_34">
     <g id="line2d_85">
      <path clip-path="url(#pd7ef978345)" d="M 50.81625 162.446447 
L 445.018665 162.446447 
" style="fill:none;stroke:#dddddd;stroke-linecap:square;stroke-width:0.5;"/>
     </g>
     <g id="line2d_86">
      <g>
       <use style="stroke:#000000;stroke-width:0.6;" x="50.81625" xlink:href="#m9808879d60" y="162.446447"/>
      </g>
     </g>
    </g>
    <g id="ytick_35">
     <g id="line2d_87">
      <path clip-path="url(#pd7ef978345)" d="M 50.81625 160.162873 
L 445.018665 160.162873 
" style="fill:none;stroke:#dddddd;stroke-linecap:square;stroke-width:0.5;"/>
     </g>
     <g id="line2d_88">
      <g>
       <use style="stroke:#000000;stroke-width:0.6;" x="50.81625" xlink:href="#m9808879d60" y="160.162873"/>
      </g>
     </g>
    </g>
    <g id="ytick_36">
     <g id="line2d_89">
      <path clip-path="url(#pd7ef978345)" d="M 50.81625 144.681423 
L 445.018665 144.681423 
" style="fill:none;stroke:#dddddd;stroke-linecap:square;stroke-width:0.5;"/>
     </g>
     <g id="line2d_90">
      <g>
       <use style="stroke:#000000;stroke-width:0.6;" x="50.81625" xlink:href="#m9808879d60" y="144.681423"/>
      </g>
     </g>
    </g>
    <g id="ytick_37">
     <g id="line2d_91">
      <path clip-path="url(#pd7ef978345)" d="M 50.81625 136.820275 
L 445.018665 136.820275 
" style="fill:none;stroke:#dddddd;stroke-linecap:square;stroke-width:0.5;"/>
     </g>
     <g id="line2d_92">
      <g>
       <use style="stroke:#000000;stroke-width:0.6;" x="50.81625" xlink:href="#m9808879d60" y="136.820275"/>
      </g>
     </g>
    </g>
    <g id="ytick_38">
     <g id="line2d_93">
      <path clip-path="url(#pd7ef978345)" d="M 50.81625 131.242701 
L 445.018665 131.242701 
" style="fill:none;stroke:#dddddd;stroke-linecap:square;stroke-width:0.5;"/>
     </g>
     <g id="line2d_94">
      <g>
       <use style="stroke:#000000;stroke-width:0.6;" x="50.81625" xlink:href="#m9808879d60" y="131.242701"/>
      </g>
     </g>
    </g>
    <g id="ytick_39">
     <g id="line2d_95">
      <path clip-path="url(#pd7ef978345)" d="M 50.81625 126.916399 
L 445.018665 126.916399 
" style="fill:none;stroke:#dddddd;stroke-linecap:square;stroke-width:0.5;"/>
     </g>
     <g id="line2d_96">
      <g>
       <use style="stroke:#000000;stroke-width:0.6;" x="50.81625" xlink:href="#m9808879d60" y="126.916399"/>
      </g>
     </g>
    </g>
    <g id="ytick_40">
     <g id="line2d_97">
      <path clip-path="url(#pd7ef978345)" d="M 50.81625 123.381553 
L 445.018665 123.381553 
" style="fill:none;stroke:#dddddd;stroke-linecap:square;stroke-width:0.5;"/>
     </g>
     <g id="line2d_98">
      <g>
       <use style="stroke:#000000;stroke-width:0.6;" x="50.81625" xlink:href="#m9808879d60" y="123.381553"/>
      </g>
     </g>
    </g>
    <g id="ytick_41">
     <g id="line2d_99">
      <path clip-path="url(#pd7ef978345)" d="M 50.81625 120.392883 
L 445.018665 120.392883 
" style="fill:none;stroke:#dddddd;stroke-linecap:square;stroke-width:0.5;"/>
     </g>
     <g id="line2d_100">
      <g>
       <use style="stroke:#000000;stroke-width:0.6;" x="50.81625" xlink:href="#m9808879d60" y="120.392883"/>
      </g>
     </g>
    </g>
    <g id="ytick_42">
     <g id="line2d_101">
      <path clip-path="url(#pd7ef978345)" d="M 50.81625 117.803979 
L 445.018665 117.803979 
" style="fill:none;stroke:#dddddd;stroke-linecap:square;stroke-width:0.5;"/>
     </g>
     <g id="line2d_102">
      <g>
       <use style="stroke:#000000;stroke-width:0.6;" x="50.81625" xlink:href="#m9808879d60" y="117.803979"/>
      </g>
     </g>
    </g>
    <g id="ytick_43">
     <g id="line2d_103">
      <path clip-path="url(#pd7ef978345)" d="M 50.81625 115.520404 
L 445.018665 115.520404 
" style="fill:none;stroke:#dddddd;stroke-linecap:square;stroke-width:0.5;"/>
     </g>
     <g id="line2d_104">
      <g>
       <use style="stroke:#000000;stroke-width:0.6;" x="50.81625" xlink:href="#m9808879d60" y="115.520404"/>
      </g>
     </g>
    </g>
    <g id="ytick_44">
     <g id="line2d_105">
      <path clip-path="url(#pd7ef978345)" d="M 50.81625 100.038955 
L 445.018665 100.038955 
" style="fill:none;stroke:#dddddd;stroke-linecap:square;stroke-width:0.5;"/>
     </g>
     <g id="line2d_106">
      <g>
       <use style="stroke:#000000;stroke-width:0.6;" x="50.81625" xlink:href="#m9808879d60" y="100.038955"/>
      </g>
     </g>
    </g>
    <g id="ytick_45">
     <g id="line2d_107">
      <path clip-path="url(#pd7ef978345)" d="M 50.81625 92.177807 
L 445.018665 92.177807 
" style="fill:none;stroke:#dddddd;stroke-linecap:square;stroke-width:0.5;"/>
     </g>
     <g id="line2d_108">
      <g>
       <use style="stroke:#000000;stroke-width:0.6;" x="50.81625" xlink:href="#m9808879d60" y="92.177807"/>
      </g>
     </g>
    </g>
    <g id="ytick_46">
     <g id="line2d_109">
      <path clip-path="url(#pd7ef978345)" d="M 50.81625 86.600233 
L 445.018665 86.600233 
" style="fill:none;stroke:#dddddd;stroke-linecap:square;stroke-width:0.5;"/>
     </g>
     <g id="line2d_110">
      <g>
       <use style="stroke:#000000;stroke-width:0.6;" x="50.81625" xlink:href="#m9808879d60" y="86.600233"/>
      </g>
     </g>
    </g>
    <g id="ytick_47">
     <g id="line2d_111">
      <path clip-path="url(#pd7ef978345)" d="M 50.81625 82.273931 
L 445.018665 82.273931 
" style="fill:none;stroke:#dddddd;stroke-linecap:square;stroke-width:0.5;"/>
     </g>
     <g id="line2d_112">
      <g>
       <use style="stroke:#000000;stroke-width:0.6;" x="50.81625" xlink:href="#m9808879d60" y="82.273931"/>
      </g>
     </g>
    </g>
    <g id="ytick_48">
     <g id="line2d_113">
      <path clip-path="url(#pd7ef978345)" d="M 50.81625 78.739085 
L 445.018665 78.739085 
" style="fill:none;stroke:#dddddd;stroke-linecap:square;stroke-width:0.5;"/>
     </g>
     <g id="line2d_114">
      <g>
       <use style="stroke:#000000;stroke-width:0.6;" x="50.81625" xlink:href="#m9808879d60" y="78.739085"/>
      </g>
     </g>
    </g>
    <g id="ytick_49">
     <g id="line2d_115">
      <path clip-path="url(#pd7ef978345)" d="M 50.81625 75.750415 
L 445.018665 75.750415 
" style="fill:none;stroke:#dddddd;stroke-linecap:square;stroke-width:0.5;"/>
     </g>
     <g id="line2d_116">
      <g>
       <use style="stroke:#000000;stroke-width:0.6;" x="50.81625" xlink:href="#m9808879d60" y="75.750415"/>
      </g>
     </g>
    </g>
    <g id="ytick_50">
     <g id="line2d_117">
      <path clip-path="url(#pd7ef978345)" d="M 50.81625 73.161511 
L 445.018665 73.161511 
" style="fill:none;stroke:#dddddd;stroke-linecap:square;stroke-width:0.5;"/>
     </g>
     <g id="line2d_118">
      <g>
       <use style="stroke:#000000;stroke-width:0.6;" x="50.81625" xlink:href="#m9808879d60" y="73.161511"/>
      </g>
     </g>
    </g>
    <g id="ytick_51">
     <g id="line2d_119">
      <path clip-path="url(#pd7ef978345)" d="M 50.81625 70.877936 
L 445.018665 70.877936 
" style="fill:none;stroke:#dddddd;stroke-linecap:square;stroke-width:0.5;"/>
     </g>
     <g id="line2d_120">
      <g>
       <use style="stroke:#000000;stroke-width:0.6;" x="50.81625" xlink:href="#m9808879d60" y="70.877936"/>
      </g>
     </g>
    </g>
    <g id="ytick_52">
     <g id="line2d_121">
      <path clip-path="url(#pd7ef978345)" d="M 50.81625 55.396487 
L 445.018665 55.396487 
" style="fill:none;stroke:#dddddd;stroke-linecap:square;stroke-width:0.5;"/>
     </g>
     <g id="line2d_122">
      <g>
       <use style="stroke:#000000;stroke-width:0.6;" x="50.81625" xlink:href="#m9808879d60" y="55.396487"/>
      </g>
     </g>
    </g>
    <g id="ytick_53">
     <g id="line2d_123">
      <path clip-path="url(#pd7ef978345)" d="M 50.81625 47.535338 
L 445.018665 47.535338 
" style="fill:none;stroke:#dddddd;stroke-linecap:square;stroke-width:0.5;"/>
     </g>
     <g id="line2d_124">
      <g>
       <use style="stroke:#000000;stroke-width:0.6;" x="50.81625" xlink:href="#m9808879d60" y="47.535338"/>
      </g>
     </g>
    </g>
    <g id="ytick_54">
     <g id="line2d_125">
      <path clip-path="url(#pd7ef978345)" d="M 50.81625 41.957765 
L 445.018665 41.957765 
" style="fill:none;stroke:#dddddd;stroke-linecap:square;stroke-width:0.5;"/>
     </g>
     <g id="line2d_126">
      <g>
       <use style="stroke:#000000;stroke-width:0.6;" x="50.81625" xlink:href="#m9808879d60" y="41.957765"/>
      </g>
     </g>
    </g>
    <g id="ytick_55">
     <g id="line2d_127">
      <path clip-path="url(#pd7ef978345)" d="M 50.81625 37.631463 
L 445.018665 37.631463 
" style="fill:none;stroke:#dddddd;stroke-linecap:square;stroke-width:0.5;"/>
     </g>
     <g id="line2d_128">
      <g>
       <use style="stroke:#000000;stroke-width:0.6;" x="50.81625" xlink:href="#m9808879d60" y="37.631463"/>
      </g>
     </g>
    </g>
    <g id="ytick_56">
     <g id="line2d_129">
      <path clip-path="url(#pd7ef978345)" d="M 50.81625 34.096616 
L 445.018665 34.096616 
" style="fill:none;stroke:#dddddd;stroke-linecap:square;stroke-width:0.5;"/>
     </g>
     <g id="line2d_130">
      <g>
       <use style="stroke:#000000;stroke-width:0.6;" x="50.81625" xlink:href="#m9808879d60" y="34.096616"/>
      </g>
     </g>
    </g>
    <g id="ytick_57">
     <g id="line2d_131">
      <path clip-path="url(#pd7ef978345)" d="M 50.81625 31.107946 
L 445.018665 31.107946 
" style="fill:none;stroke:#dddddd;stroke-linecap:square;stroke-width:0.5;"/>
     </g>
     <g id="line2d_132">
      <g>
       <use style="stroke:#000000;stroke-width:0.6;" x="50.81625" xlink:href="#m9808879d60" y="31.107946"/>
      </g>
     </g>
    </g>
    <g id="ytick_58">
     <g id="line2d_133">
      <path clip-path="url(#pd7ef978345)" d="M 50.81625 28.519043 
L 445.018665 28.519043 
" style="fill:none;stroke:#dddddd;stroke-linecap:square;stroke-width:0.5;"/>
     </g>
     <g id="line2d_134">
      <g>
       <use style="stroke:#000000;stroke-width:0.6;" x="50.81625" xlink:href="#m9808879d60" y="28.519043"/>
      </g>
     </g>
    </g>
    <g id="ytick_59">
     <g id="line2d_135">
      <path clip-path="url(#pd7ef978345)" d="M 50.81625 26.235468 
L 445.018665 26.235468 
" style="fill:none;stroke:#dddddd;stroke-linecap:square;stroke-width:0.5;"/>
     </g>
     <g id="line2d_136">
      <g>
       <use style="stroke:#000000;stroke-width:0.6;" x="50.81625" xlink:href="#m9808879d60" y="26.235468"/>
      </g>
     </g>
    </g>
    <g id="text_18">
     <!-- conversion error $\epsilon$ -->
     <defs>
      <path d="M 34.90625 35 
C 33 35 30.203125 35 30.203125 31.484375 
C 30.203125 28.6875 32.5 27.890625 33.796875 27.890625 
C 34.5 27.890625 37.40625 28.1875 37.40625 31.6875 
C 37.40625 38.6875 30.59375 44 22.90625 44 
C 12.296875 44 3.296875 34.390625 3.296875 21.546875 
C 3.296875 8.140625 12.703125 -1 22.90625 -1 
C 35.296875 -1 38.40625 10.5625 38.40625 11.671875 
C 38.40625 12.078125 38.296875 12.375 37.59375 12.375 
C 36.90625 12.375 36.796875 12.28125 36.40625 10.96875 
C 33.796875 2.8125 28.09375 0.796875 23.796875 0.796875 
C 17.40625 0.796875 9.703125 6.734375 9.703125 21.640625 
C 9.703125 36.84375 17.09375 42.1875 23 42.1875 
C 26.90625 42.1875 32.703125 40.34375 34.90625 35 
z
" id="CMR17-99"/>
      <path d="M 43.09375 21.1875 
C 43.09375 34 33.796875 44 22.90625 44 
C 12 44 2.703125 34 2.703125 21.1875 
C 2.703125 8.59375 12 -1 22.90625 -1 
C 33.796875 -1 43.09375 8.59375 43.09375 21.1875 
z
M 22.90625 0.796875 
C 18.203125 0.796875 14.203125 3.59375 11.90625 7.5 
C 9.40625 12 9.09375 17.59375 9.09375 22 
C 9.09375 26.1875 9.296875 31.390625 11.90625 35.890625 
C 13.90625 39.1875 17.796875 42.390625 22.90625 42.390625 
C 27.40625 42.390625 31.203125 39.890625 33.59375 36.390625 
C 36.703125 31.6875 36.703125 25.09375 36.703125 22 
C 36.703125 18.09375 36.5 12.09375 33.796875 7.296875 
C 31 2.6875 26.703125 0.796875 22.90625 0.796875 
z
" id="CMR17-111"/>
      <path d="M 39.09375 33.953125 
C 40 36.171875 41.59375 40.1875 47.40625 40.390625 
L 47.40625 43 
C 45.5 42.890625 43 42.796875 41.09375 42.796875 
C 39 42.796875 35.703125 42.796875 33.703125 43 
L 33.703125 40.390625 
C 36.203125 40.1875 37.59375 38.984375 37.59375 36.375 
C 37.59375 35.46875 37.59375 35.265625 37 33.859375 
L 26 5.921875 
L 14.09375 36.0625 
C 13.5 37.375 13.5 37.578125 13.5 37.984375 
C 13.5 40.390625 16.796875 40.390625 18.296875 40.390625 
L 18.296875 43 
C 15.90625 42.796875 11.5 42.796875 9 42.796875 
C 6.296875 42.796875 3.203125 42.796875 1 43 
L 1 40.390625 
C 4.796875 40.390625 6.90625 40.390625 8.09375 37.28125 
L 22.59375 0.6875 
C 23.203125 -0.8125 23.296875 -1 24.203125 -1 
C 25.09375 -1 25.203125 -0.8125 25.796875 0.6875 
z
" id="CMR17-118"/>
      <path d="M 15 23.703125 
C 15 33.34375 19.09375 42.390625 26.59375 42.390625 
C 27.296875 42.390625 28 42.296875 28.703125 41.984375 
C 28.703125 41.984375 26.5 41.28125 26.5 38.671875 
C 26.5 36.265625 28.40625 35.265625 29.90625 35.265625 
C 31.09375 35.265625 33.296875 35.96875 33.296875 38.78125 
C 33.296875 41.984375 30.09375 44 26.703125 44 
C 19.09375 44 15.796875 36.5625 14.796875 33.046875 
L 14.703125 33.046875 
L 14.703125 44 
L 3.09375 42.890625 
L 3.09375 40.28125 
C 9 40.28125 9.90625 39.6875 9.90625 34.859375 
L 9.90625 6.921875 
C 9.90625 3.09375 9.5 2.59375 3.09375 2.59375 
L 3.09375 0 
C 5.5 0.1875 10.09375 0.1875 12.703125 0.1875 
C 15.59375 0.1875 20.703125 0.1875 23.40625 0 
L 23.40625 2.59375 
C 16.203125 2.59375 15 2.59375 15 7.109375 
z
" id="CMR17-114"/>
      <path d="M 29.09375 23 
C 30.59375 23 32.296875 23 32.296875 24.59375 
C 32.296875 25.890625 31.296875 25.890625 29.5 25.890625 
L 13.296875 25.890625 
C 15.796875 34.75 21.703125 40.09375 30.59375 40.09375 
L 33.5 40.09375 
C 35.203125 40.09375 36.703125 40.09375 36.703125 41.6875 
C 36.703125 43 35.59375 43 33.796875 43 
L 30.40625 43 
C 18.09375 43 4.59375 33.375 4.59375 17.828125 
C 4.59375 6.5625 12.09375 -1 22 -1 
C 28.40625 -1 34.703125 3.015625 34.703125 4.03125 
C 34.703125 4.640625 34.40625 5.25 33.796875 5.25 
C 33.5 5.25 33.296875 5.15625 32.796875 4.75 
C 29 2.203125 25.296875 1 22.296875 1 
C 17 1 11.40625 4.546875 11.40625 14.375 
C 11.40625 16.296875 11.59375 18.9375 12.5 23 
z
" id="CMMI12-15"/>
     </defs>
     <g transform="translate(17.718498 196.616462)rotate(-90)scale(0.1 -0.1)">
      <use transform="scale(0.996264)" xlink:href="#CMR17-99"/>
      <use transform="translate(40.48566 0)scale(0.996264)" xlink:href="#CMR17-111"/>
      <use transform="translate(86.176138 0)scale(0.996264)" xlink:href="#CMR17-110"/>
      <use transform="translate(134.469053 0)scale(0.996264)" xlink:href="#CMR17-118"/>
      <use transform="translate(180.159515 0)scale(0.996264)" xlink:href="#CMR17-101"/>
      <use transform="translate(220.645176 0)scale(0.996264)" xlink:href="#CMR17-114"/>
      <use transform="translate(255.925944 0)scale(0.996264)" xlink:href="#CMR17-115"/>
      <use transform="translate(291.727281 0)scale(0.996264)" xlink:href="#CMR17-105"/>
      <use transform="translate(316.59834 0)scale(0.996264)" xlink:href="#CMR17-111"/>
      <use transform="translate(362.288817 0)scale(0.996264)" xlink:href="#CMR17-110"/>
      <use transform="translate(443.260153 0)scale(0.996264)" xlink:href="#CMR17-101"/>
      <use transform="translate(483.745813 0)scale(0.996264)" xlink:href="#CMR17-114"/>
      <use transform="translate(519.026581 0)scale(0.996264)" xlink:href="#CMR17-114"/>
      <use transform="translate(554.307349 0)scale(0.996264)" xlink:href="#CMR17-111"/>
      <use transform="translate(599.997826 0)scale(0.996264)" xlink:href="#CMR17-114"/>
      <use transform="translate(665.35456 0)scale(0.996264)" xlink:href="#CMMI12-15"/>
     </g>
    </g>
   </g>
   <g id="line2d_137">
    <path clip-path="url(#pd7ef978345)" d="M 60.67131 72.810096 
L 73.482889 73.436212 
L 86.294467 74.588698 
L 99.106046 76.218429 
L 111.917624 78.377513 
L 124.729203 81.06935 
L 137.540781 84.277032 
L 150.35236 88.002533 
L 163.163938 92.263031 
L 175.975517 97.093867 
L 188.787095 102.353581 
L 201.598674 108.087735 
L 214.410252 114.042767 
L 227.221831 120.076529 
L 240.033409 126.020829 
L 252.844988 131.328436 
L 265.656566 135.828681 
L 278.468145 139.759524 
L 291.279723 142.652066 
L 304.091302 144.730644 
L 316.90288 147.343033 
L 329.714458 151.749707 
L 342.526037 153.322451 
L 355.337615 157.746995 
L 368.149194 160.805279 
L 380.960772 168.25945 
L 393.772351 174.082886 
L 406.583929 177.848324 
L 419.395508 184.247443 
L 432.207086 184.656424 
L 445.018665 185.205434 
" style="fill:none;stroke:#0088ff;stroke-linecap:square;stroke-width:1.5;"/>
   </g>
   <g id="line2d_138">
    <path clip-path="url(#pd7ef978345)" d="M 60.67131 24.19274 
L 73.482889 24.19274 
L 86.294467 24.19274 
L 99.106046 24.19274 
L 111.917624 24.19274 
L 124.729203 24.19274 
L 137.540781 24.19274 
L 150.35236 24.19274 
L 163.163938 24.19274 
L 175.975517 24.19274 
L 188.787095 24.19274 
L 201.598674 24.19274 
L 214.410252 24.19274 
L 227.221831 24.19274 
L 240.033409 24.19274 
L 252.844988 24.19274 
L 265.656566 24.19274 
L 278.468145 24.19274 
L 291.279723 24.19274 
L 304.091302 24.19274 
L 316.90288 24.19274 
L 329.714458 24.19274 
L 342.526037 24.19274 
L 355.337615 24.19274 
L 368.149194 24.19274 
L 380.960772 24.19274 
L 393.772351 24.19274 
L 406.583929 24.19274 
L 419.395508 24.19274 
L 432.207086 24.19274 
L 445.018665 24.19274 
" style="fill:none;stroke:#000000;stroke-linecap:square;stroke-width:1.5;"/>
   </g>
   <g id="line2d_139">
    <path clip-path="url(#pd7ef978345)" d="M 60.67131 24.19274 
L 73.482889 24.19274 
L 86.294467 24.19274 
L 99.106046 24.19274 
L 111.917624 24.19274 
L 124.729203 24.19274 
L 137.540781 24.19274 
L 150.35236 24.19274 
L 163.163938 24.19274 
L 175.975517 24.19274 
L 188.787095 24.19274 
L 201.598674 24.19274 
L 214.410252 24.19274 
L 227.221831 24.19274 
L 240.033409 24.19274 
L 252.844988 24.19274 
L 265.656566 24.19274 
L 278.468145 24.19274 
L 291.279723 24.19274 
L 304.091302 24.19274 
L 316.90288 24.19274 
L 329.714458 24.19274 
L 342.526037 24.19274 
L 355.337615 24.19274 
L 368.149194 24.19274 
L 380.960772 24.19274 
L 393.772351 24.19274 
L 406.583929 24.19274 
L 419.395508 24.19274 
L 432.207086 24.19274 
L 445.018665 24.19274 
" style="fill:none;stroke:#000000;stroke-linecap:square;stroke-width:1.5;"/>
   </g>
   <g id="line2d_140">
    <path clip-path="url(#pd7ef978345)" d="M 60.67131 72.927978 
L 73.482889 73.895429 
L 86.294467 75.669428 
L 99.106046 78.34421 
L 111.917624 81.987214 
L 124.729203 86.696061 
L 137.540781 92.755576 
L 150.35236 100.360258 
L 163.163938 110.194956 
L 175.975517 122.793684 
L 188.787095 140.043631 
L 201.598674 165.468169 
L 214.410252 188.514337 
L 227.221831 170.09395 
L 240.033409 153.631285 
L 252.844988 145.795361 
L 265.656566 142.622988 
L 278.468145 142.759745 
L 291.279723 145.990409 
L 304.091302 151.241405 
L 316.90288 158.087925 
L 329.714458 171.822666 
L 342.526037 181.050885 
L 355.337615 187.404188 
L 368.149194 174.863584 
L 380.960772 170.488907 
L 393.772351 162.758411 
L 406.583929 162.843261 
L 419.395508 161.117553 
L 432.207086 165.560839 
L 445.018665 167.486141 
" style="fill:none;stroke:#dd5500;stroke-linecap:square;stroke-width:1.5;"/>
   </g>
   <g id="line2d_141">
    <path clip-path="url(#pd7ef978345)" d="M 60.67131 24.19274 
L 73.482889 24.19274 
L 86.294467 24.19274 
L 99.106046 24.19274 
L 111.917624 24.19274 
L 124.729203 24.19274 
L 137.540781 24.19274 
L 150.35236 24.19274 
L 163.163938 24.19274 
L 175.975517 24.19274 
L 188.787095 24.19274 
L 201.598674 24.19274 
L 214.410252 24.19274 
L 227.221831 24.19274 
L 240.033409 24.19274 
L 252.844988 24.19274 
L 265.656566 24.19274 
L 278.468145 24.19274 
L 291.279723 24.19274 
L 304.091302 24.19274 
L 316.90288 24.19274 
L 329.714458 24.19274 
L 342.526037 24.19274 
L 355.337615 24.19274 
L 368.149194 24.19274 
L 380.960772 24.19274 
L 393.772351 24.19274 
L 406.583929 24.19274 
L 419.395508 24.19274 
L 432.207086 24.19274 
L 445.018665 24.19274 
" style="fill:none;stroke:#000000;stroke-linecap:square;stroke-width:1.5;"/>
   </g>
   <g id="line2d_142">
    <path clip-path="url(#pd7ef978345)" d="M 60.67131 24.19274 
L 73.482889 24.19274 
L 86.294467 24.19274 
L 99.106046 24.19274 
L 111.917624 24.19274 
L 124.729203 24.19274 
L 137.540781 24.19274 
L 150.35236 24.19274 
L 163.163938 24.19274 
L 175.975517 24.19274 
L 188.787095 24.19274 
L 201.598674 24.19274 
L 214.410252 24.19274 
L 227.221831 24.19274 
L 240.033409 24.19274 
L 252.844988 24.19274 
L 265.656566 24.19274 
L 278.468145 24.19274 
L 291.279723 24.19274 
L 304.091302 24.19274 
L 316.90288 24.19274 
L 329.714458 24.19274 
L 342.526037 24.19274 
L 355.337615 24.19274 
L 368.149194 24.19274 
L 380.960772 24.19274 
L 393.772351 24.19274 
L 406.583929 24.19274 
L 419.395508 24.19274 
L 432.207086 24.19274 
L 445.018665 24.19274 
" style="fill:none;stroke:#000000;stroke-linecap:square;stroke-width:1.5;"/>
   </g>
   <g id="line2d_143">
    <path clip-path="url(#pd7ef978345)" d="M 60.67131 247.405082 
L 61.044961 246.683587 
L 61.432778 245.962093 
L 61.8353 245.240599 
L 62.253082 244.519104 
L 62.686705 243.79761 
L 63.136769 243.076115 
L 63.603896 242.354621 
L 64.088734 241.633126 
L 64.591955 240.911632 
L 65.114255 240.190137 
L 65.656358 239.468643 
L 66.219015 238.747149 
L 66.803004 238.025654 
L 67.409136 237.30416 
L 68.038248 236.582665 
L 68.691213 235.861171 
L 69.368935 235.139676 
L 70.072352 234.418182 
L 70.802439 233.696688 
L 71.560208 232.975193 
L 72.346706 232.253699 
L 73.163024 231.532204 
L 74.010293 230.81071 
L 74.889686 230.089215 
L 75.80242 229.367721 
L 76.749761 228.646226 
L 77.733019 227.924732 
L 78.753557 227.203238 
L 79.812789 226.481743 
L 80.91218 225.760249 
L 82.053255 225.038754 
L 83.237593 224.31726 
L 84.466835 223.595765 
L 85.742683 222.874271 
L 87.066905 222.152777 
L 88.441333 221.431282 
L 89.867873 220.709788 
L 91.348499 219.988293 
L 92.885263 219.266799 
L 94.480292 218.545304 
L 96.135796 217.82381 
L 97.854068 217.102315 
L 99.637488 216.380821 
L 101.488525 215.659327 
L 103.409743 214.937832 
L 105.403804 214.216338 
L 107.473468 213.494843 
L 109.621604 212.773349 
L 111.851184 212.051854 
L 114.165299 211.33036 
L 116.567152 210.608866 
L 119.06007 209.887371 
L 121.647507 209.165877 
L 124.333044 208.444382 
L 127.120403 207.722888 
L 130.013444 207.001393 
L 133.016173 206.279899 
L 136.132749 205.558404 
L 139.367489 204.83691 
L 142.724873 204.115416 
L 146.209551 203.393921 
L 149.826348 202.672427 
L 153.580275 201.950932 
L 157.476531 201.229438 
L 161.520512 200.507943 
L 165.717818 199.786449 
L 170.074264 199.064955 
L 174.595882 198.34346 
L 179.288936 197.621966 
L 184.159925 196.900471 
L 189.215596 196.178977 
L 194.46295 195.457482 
L 199.909255 194.735988 
L 205.562055 194.014494 
L 211.429179 193.292999 
L 217.518752 192.571505 
L 223.839208 191.85001 
L 230.399303 191.128516 
L 237.20812 190.407021 
L 244.275091 189.685527 
L 251.610003 188.964032 
L 259.223016 188.242538 
L 267.124673 187.521044 
L 275.325917 186.799549 
L 283.838109 186.078055 
L 292.673037 185.35656 
L 301.842937 184.635066 
L 311.360511 183.913571 
L 321.238939 183.192077 
L 331.491904 182.470583 
L 342.133606 181.749088 
L 353.178784 181.027594 
L 364.642735 180.306099 
L 376.541337 179.584605 
L 388.891069 178.86311 
L 401.709037 178.141616 
L 415.012992 177.420121 
L 428.821362 176.698627 
L 443.15327 175.977133 
" style="fill:none;stroke:#000000;stroke-linecap:square;stroke-width:1.5;"/>
   </g>
   <g id="line2d_144">
    <path clip-path="url(#pd7ef978345)" d="M 60.67131 292.04755 
L 61.044961 291.326056 
L 61.432778 290.604561 
L 61.8353 289.883067 
L 62.253082 289.161572 
L 62.686705 288.440078 
L 63.136769 287.718583 
L 63.603896 286.997089 
L 64.088734 286.275595 
L 64.591955 285.5541 
L 65.114255 284.832606 
L 65.656358 284.111111 
L 66.219015 283.389617 
L 66.803004 282.668122 
L 67.409136 281.946628 
L 68.038248 281.225134 
L 68.691213 280.503639 
L 69.368935 279.782145 
L 70.072352 279.06065 
L 70.802439 278.339156 
L 71.560208 277.617661 
L 72.346706 276.896167 
L 73.163024 276.174672 
L 74.010293 275.453178 
L 74.889686 274.731684 
L 75.80242 274.010189 
L 76.749761 273.288695 
L 77.733019 272.5672 
L 78.753557 271.845706 
L 79.812789 271.124211 
L 80.91218 270.402717 
L 82.053255 269.681223 
L 83.237593 268.959728 
L 84.466835 268.238234 
L 85.742683 267.516739 
L 87.066905 266.795245 
L 88.441333 266.07375 
L 89.867873 265.352256 
L 91.348499 264.630761 
L 92.885263 263.909267 
L 94.480292 263.187773 
L 96.135796 262.466278 
L 97.854068 261.744784 
L 99.637488 261.023289 
L 101.488525 260.301795 
L 103.409743 259.5803 
L 105.403804 258.858806 
L 107.473468 258.137312 
L 109.621604 257.415817 
L 111.851184 256.694323 
L 114.165299 255.972828 
L 116.567152 255.251334 
L 119.06007 254.529839 
L 121.647507 253.808345 
L 124.333044 253.086851 
L 127.120403 252.365356 
L 130.013444 251.643862 
L 133.016173 250.922367 
L 136.132749 250.200873 
L 139.367489 249.479378 
L 142.724873 248.757884 
L 146.209551 248.036389 
L 149.826348 247.314895 
L 153.580275 246.593401 
L 157.476531 245.871906 
L 161.520512 245.150412 
L 165.717818 244.428917 
L 170.074264 243.707423 
L 174.595882 242.985928 
L 179.288936 242.264434 
L 184.159925 241.54294 
L 189.215596 240.821445 
L 194.46295 240.099951 
L 199.909255 239.378456 
L 205.562055 238.656962 
L 211.429179 237.935467 
L 217.518752 237.213973 
L 223.839208 236.492478 
L 230.399303 235.770984 
L 237.20812 235.04949 
L 244.275091 234.327995 
L 251.610003 233.606501 
L 259.223016 232.885006 
L 267.124673 232.163512 
L 275.325917 231.442017 
L 283.838109 230.720523 
L 292.673037 229.999029 
L 301.842937 229.277534 
L 311.360511 228.55604 
L 321.238939 227.834545 
L 331.491904 227.113051 
L 342.133606 226.391556 
L 353.178784 225.670062 
L 364.642735 224.948567 
L 376.541337 224.227073 
L 388.891069 223.505579 
L 401.709037 222.784084 
L 415.012992 222.06259 
L 428.821362 221.341095 
L 443.15327 220.619601 
" style="fill:none;stroke:#000000;stroke-linecap:square;stroke-width:1.5;"/>
   </g>
   <g id="patch_3">
    <path d="M 50.81625 305.440291 
L 50.81625 10.8 
" style="fill:none;stroke:#000000;stroke-linecap:square;stroke-linejoin:miter;stroke-width:0.8;"/>
   </g>
   <g id="patch_4">
    <path d="M 445.018665 305.440291 
L 445.018665 10.8 
" style="fill:none;stroke:#000000;stroke-linecap:square;stroke-linejoin:miter;stroke-width:0.8;"/>
   </g>
   <g id="patch_5">
    <path d="M 50.81625 305.440291 
L 445.018665 305.440291 
" style="fill:none;stroke:#000000;stroke-linecap:square;stroke-linejoin:miter;stroke-width:0.8;"/>
   </g>
   <g id="patch_6">
    <path d="M 50.81625 10.8 
L 445.018665 10.8 
" style="fill:none;stroke:#000000;stroke-linecap:square;stroke-linejoin:miter;stroke-width:0.8;"/>
   </g>
   <g id="legend_1">
    <g id="patch_7">
     <path d="M 317.254256 300.440291 
L 438.018665 300.440291 
Q 440.018665 300.440291 440.018665 298.440291 
L 440.018665 242.581958 
Q 440.018665 240.581958 438.018665 240.581958 
L 317.254256 240.581958 
Q 315.254256 240.581958 315.254256 242.581958 
L 315.254256 298.440291 
Q 315.254256 300.440291 317.254256 300.440291 
z
" style="fill:#ffffff;opacity:0.8;stroke:#cccccc;stroke-linejoin:miter;"/>
    </g>
    <g id="line2d_145">
     <path d="M 319.254256 248.081958 
L 339.254256 248.081958 
" style="fill:none;stroke:#0088ff;stroke-linecap:square;stroke-width:1.5;"/>
    </g>
    <g id="line2d_146"/>
    <g id="text_19">
     <!-- linear $\Gamma = 0.1 \textrm{ ns}^{-1}$ -->
     <defs>
      <path d="M 15.296875 69 
L 3.40625 67.890625 
L 3.40625 65.296875 
C 9.296875 65.296875 10.203125 64.703125 10.203125 59.921875 
L 10.203125 6.859375 
C 10.203125 3.09375 9.796875 2.59375 3.40625 2.59375 
L 3.40625 0 
C 5.796875 0.1875 10.203125 0.1875 12.703125 0.1875 
C 15.296875 0.1875 19.703125 0.1875 22.09375 0 
L 22.09375 2.59375 
C 15.703125 2.59375 15.296875 2.984375 15.296875 6.859375 
z
" id="CMR17-108"/>
      <path d="M 36 25.875 
C 36 32 36 35.546875 31.796875 39.59375 
C 28.09375 42.984375 23.796875 44 20.40625 44 
C 12.5 44 6.796875 37.625 6.796875 30.890625 
C 6.796875 27.1875 9.796875 27 10.40625 27 
C 11.703125 27 14 27.796875 14 30.59375 
C 14 33.09375 12.09375 34.1875 10.40625 34.1875 
C 10 34.1875 9.5 34.09375 9.203125 34 
C 11.296875 40.53125 16.703125 42.390625 20.203125 42.390625 
C 25.203125 42.390625 30.703125 37.828125 30.703125 29.296875 
L 30.703125 25.5 
C 24.796875 25.296875 17.703125 24.5 12.09375 21.453125 
C 5.796875 17.921875 4 12.84375 4 9 
C 4 1.203125 13 -1 18.296875 -1 
C 23.796875 -1 28.90625 2.109375 31.09375 7.890625 
C 31.296875 3.421875 34.09375 -0.609375 38.5 -0.609375 
C 40.59375 -0.609375 45.90625 0.796875 45.90625 8.796875 
L 45.90625 14.46875 
L 44.09375 14.46875 
L 44.09375 8.703125 
C 44.09375 2.515625 41.40625 1.703125 40.09375 1.703125 
C 36 1.703125 36 6.96875 36 11.4375 
z
M 30.703125 13.859375 
C 30.703125 5.046875 24.5 0.59375 19 0.59375 
C 14 0.59375 10.09375 4.34375 10.09375 9 
C 10.09375 12.046875 11.40625 17.40625 17.203125 20.65625 
C 22 23.390625 27.5 23.796875 30.703125 24 
z
" id="CMR17-97"/>
      <path d="M 51.796875 68 
L 5.09375 68 
L 5.09375 65.390625 
C 12 65.390625 13.09375 65.390625 13.09375 60.890625 
L 13.09375 7.078125 
C 13.09375 2.59375 12 2.59375 5.09375 2.59375 
L 5.09375 0 
C 8 0.1875 13.59375 0.1875 16.703125 0.1875 
C 20.796875 0.1875 25.59375 0.1875 29.703125 0 
L 29.703125 2.59375 
L 27.5 2.59375 
C 19.90625 2.59375 19.703125 3.59375 19.703125 7.1875 
L 19.703125 61.5 
C 19.703125 64.890625 19.90625 65.390625 23.90625 65.390625 
L 34.90625 65.390625 
C 50.09375 65.390625 50.90625 58.40625 52.40625 45.921875 
L 54.203125 45.921875 
z
" id="CMR17-0"/>
      <path d="M 64.296875 32 
C 65.796875 32 67.296875 32 67.296875 33.6875 
C 67.296875 35.5 65.59375 35.5 63.90625 35.5 
L 8 35.5 
C 6.296875 35.5 4.59375 35.5 4.59375 33.6875 
C 4.59375 32 6.09375 32 7.59375 32 
z
M 63.90625 14.484375 
C 65.59375 14.484375 67.296875 14.484375 67.296875 16.296875 
C 67.296875 18 65.796875 18 64.296875 18 
L 7.59375 18 
C 6.09375 18 4.59375 18 4.59375 16.296875 
C 4.59375 14.484375 6.296875 14.484375 8 14.484375 
z
" id="CMR17-61"/>
      <path d="M 18.40625 4.796875 
C 18.40625 7.6875 16 9.6875 13.59375 9.6875 
C 10.703125 9.6875 8.703125 7.296875 8.703125 4.890625 
C 8.703125 2 11.09375 0 13.5 0 
C 16.40625 0 18.40625 2.390625 18.40625 4.796875 
z
" id="CMMI12-58"/>
     </defs>
     <g transform="translate(347.254256 251.581958)scale(0.1 -0.1)">
      <use transform="scale(0.996264)" xlink:href="#CMR17-108"/>
      <use transform="translate(24.871058 0)scale(0.996264)" xlink:href="#CMR17-105"/>
      <use transform="translate(49.742117 0)scale(0.996264)" xlink:href="#CMR17-110"/>
      <use transform="translate(100.637487 0)scale(0.996264)" xlink:href="#CMR17-101"/>
      <use transform="translate(141.123147 0)scale(0.996264)" xlink:href="#CMR17-97"/>
      <use transform="translate(186.813624 0)scale(0.996264)" xlink:href="#CMR17-114"/>
      <use transform="translate(252.170358 0)scale(0.996264)" xlink:href="#CMR17-0"/>
      <use transform="translate(337.225775 0)scale(0.996264)" xlink:href="#CMR17-61"/>
      <use transform="translate(436.614572 0)scale(0.996264)" xlink:href="#CMR17-48"/>
      <use transform="translate(482.305049 0)scale(0.996264)" xlink:href="#CMMI12-58"/>
      <use transform="translate(509.402226 0)scale(0.996264)" xlink:href="#CMR17-49"/>
      <use transform="translate(585.16867 0)scale(0.996264)" xlink:href="#CMR17-110"/>
      <use transform="translate(636.06404 0)scale(0.996264)" xlink:href="#CMR17-115"/>
      <use transform="translate(671.865377 36.153639)scale(0.697382)" xlink:href="#CMSY10-0"/>
      <use transform="translate(726.106371 36.153639)scale(0.697382)" xlink:href="#CMR17-49"/>
     </g>
    </g>
    <g id="line2d_147">
     <path d="M 319.254256 263.128756 
L 339.254256 263.128756 
" style="fill:none;stroke:#dd5500;stroke-linecap:square;stroke-width:1.5;"/>
    </g>
    <g id="line2d_148"/>
    <g id="text_20">
     <!-- shaped $\Gamma = 0.1 \textrm{ ns}^{-1}$ -->
     <defs>
      <path d="M 41.5 30.53125 
C 41.5 35.65625 40.5 44 28.703125 44 
C 20.5 44 16.5 37.375 15.296875 34.046875 
L 15.203125 34.046875 
L 15.203125 69 
L 3.296875 67.890625 
L 3.296875 65.296875 
C 9.203125 65.296875 10.09375 64.703125 10.09375 60.046875 
L 10.09375 6.921875 
C 10.09375 3.09375 9.703125 2.59375 3.296875 2.59375 
L 3.296875 0 
C 5.703125 0.1875 10.09375 0.1875 12.703125 0.1875 
C 15.296875 0.1875 19.796875 0.1875 22.203125 0 
L 22.203125 2.59375 
C 15.796875 2.59375 15.40625 3 15.40625 6.921875 
L 15.40625 26.21875 
C 15.40625 35.453125 21 42.390625 28 42.390625 
C 35.40625 42.390625 36.203125 35.765625 36.203125 30.9375 
L 36.203125 6.921875 
C 36.203125 3.09375 35.796875 2.59375 29.40625 2.59375 
L 29.40625 0 
C 31.796875 0.1875 36.203125 0.1875 38.796875 0.1875 
C 41.40625 0.1875 45.90625 0.1875 48.296875 0 
L 48.296875 2.59375 
C 41.90625 2.59375 41.5 3 41.5 6.921875 
z
" id="CMR17-104"/>
      <path d="M 29.203125 67.890625 
L 29.203125 65.296875 
C 35.09375 65.296875 36 64.703125 36 60.046875 
L 36 37.046875 
C 35.59375 37.546875 31.5 44 23.40625 44 
C 13.203125 44 3.296875 34.8125 3.296875 21.5 
C 3.296875 8.265625 12.59375 -1 22.40625 -1 
C 30.90625 -1 35.296875 5.640625 35.796875 6.34375 
L 35.796875 -1 
L 47.90625 -0.203125 
L 47.90625 2.40625 
C 42 2.40625 41.09375 3.015625 41.09375 7.859375 
L 41.09375 69 
z
M 35.796875 11.90625 
C 35.796875 8.875 34 6.140625 31.703125 4.125 
C 28.296875 1.09375 24.90625 0.59375 23 0.59375 
C 20.09375 0.59375 9.703125 2.109375 9.703125 21.390625 
C 9.703125 41.1875 21.296875 42.390625 23.90625 42.390625 
C 28.5 42.390625 32.203125 39.765625 34.5 36.140625 
C 35.796875 34.015625 35.796875 33.703125 35.796875 31.890625 
z
" id="CMR17-100"/>
     </defs>
     <g transform="translate(347.254256 266.628756)scale(0.1 -0.1)">
      <use transform="scale(0.996264)" xlink:href="#CMR17-115"/>
      <use transform="translate(35.801338 0)scale(0.996264)" xlink:href="#CMR17-104"/>
      <use transform="translate(86.696707 0)scale(0.996264)" xlink:href="#CMR17-97"/>
      <use transform="translate(132.387185 0)scale(0.996264)" xlink:href="#CMR17-112"/>
      <use transform="translate(185.884993 0)scale(0.996264)" xlink:href="#CMR17-101"/>
      <use transform="translate(226.370654 0)scale(0.996264)" xlink:href="#CMR17-100"/>
      <use transform="translate(307.34199 0)scale(0.996264)" xlink:href="#CMR17-0"/>
      <use transform="translate(392.397406 0)scale(0.996264)" xlink:href="#CMR17-61"/>
      <use transform="translate(491.786203 0)scale(0.996264)" xlink:href="#CMR17-48"/>
      <use transform="translate(537.47668 0)scale(0.996264)" xlink:href="#CMMI12-58"/>
      <use transform="translate(564.573858 0)scale(0.996264)" xlink:href="#CMR17-49"/>
      <use transform="translate(640.340301 0)scale(0.996264)" xlink:href="#CMR17-110"/>
      <use transform="translate(691.235671 0)scale(0.996264)" xlink:href="#CMR17-115"/>
      <use transform="translate(727.037008 36.153639)scale(0.697382)" xlink:href="#CMSY10-0"/>
      <use transform="translate(781.278002 36.153639)scale(0.697382)" xlink:href="#CMR17-49"/>
     </g>
    </g>
    <g id="line2d_149">
     <path d="M 319.254256 277.065934 
L 339.254256 277.065934 
" style="fill:none;stroke:#000000;stroke-linecap:square;stroke-width:1.5;"/>
    </g>
    <g id="line2d_150"/>
    <g id="text_21">
     <!-- $T_1=0.1\textrm{ ns}$ -->
     <defs>
      <path d="M 41.703125 60.71875 
C 42.296875 63.09375 42.5 64 44 64.390625 
C 44.796875 64.59375 48.09375 64.59375 50.203125 64.59375 
C 60.203125 64.59375 64.90625 64.203125 64.90625 56.4375 
C 64.90625 54.9375 64.5 51.15625 63.90625 47.46875 
L 63.796875 46.28125 
C 63.796875 45.890625 64.203125 45.28125 64.796875 45.28125 
C 65.796875 45.28125 65.796875 45.78125 66.09375 47.375 
L 69 64.984375 
C 69.203125 65.890625 69.203125 66.09375 69.203125 66.390625 
C 69.203125 67.484375 68.59375 67.484375 66.59375 67.484375 
L 11.90625 67.484375 
C 9.59375 67.484375 9.5 67.390625 8.90625 65.59375 
L 2.796875 47.671875 
C 2.703125 47.46875 2.40625 46.375 2.40625 46.28125 
C 2.40625 45.78125 2.796875 45.28125 3.40625 45.28125 
C 4.203125 45.28125 4.40625 45.6875 4.796875 46.984375 
C 9 59.015625 11.09375 64.59375 24.40625 64.59375 
L 31.09375 64.59375 
C 33.5 64.59375 34.5 64.59375 34.5 63.5 
C 34.5 63.203125 34.5 63 34 61.203125 
L 20.59375 7.765625 
C 19.59375 3.890625 19.40625 2.890625 8.796875 2.890625 
C 6.296875 2.890625 5.59375 2.890625 5.59375 1 
C 5.59375 0 6.703125 0 7.203125 0 
C 9.703125 0 12.296875 0.1875 14.796875 0.1875 
L 30.40625 0.1875 
C 32.90625 0.1875 35.59375 0 38.09375 0 
C 39.203125 0 40.203125 0 40.203125 1.890625 
C 40.203125 2.890625 39.5 2.890625 36.90625 2.890625 
C 27.90625 2.890625 27.90625 3.78125 27.90625 5.28125 
C 27.90625 5.375 27.90625 6.078125 28.296875 7.671875 
z
" id="CMMI12-84"/>
     </defs>
     <g transform="translate(347.254256 280.565934)scale(0.1 -0.1)">
      <use transform="scale(0.996264)" xlink:href="#CMMI12-84"/>
      <use transform="translate(57.175044 -14.943915)scale(0.697382)" xlink:href="#CMR17-49"/>
      <use transform="translate(117.330366 0)scale(0.996264)" xlink:href="#CMR17-61"/>
      <use transform="translate(216.719163 0)scale(0.996264)" xlink:href="#CMR17-48"/>
      <use transform="translate(262.409641 0)scale(0.996264)" xlink:href="#CMMI12-58"/>
      <use transform="translate(289.506818 0)scale(0.996264)" xlink:href="#CMR17-49"/>
      <use transform="translate(365.273261 0)scale(0.996264)" xlink:href="#CMR17-110"/>
      <use transform="translate(416.168631 0)scale(0.996264)" xlink:href="#CMR17-115"/>
     </g>
    </g>
    <g id="line2d_151">
     <path d="M 319.254256 291.003112 
L 339.254256 291.003112 
" style="fill:none;stroke:#000000;stroke-linecap:square;stroke-width:1.5;"/>
    </g>
    <g id="line2d_152"/>
    <g id="text_22">
     <!-- $T_1=1\textrm{ ns}$ -->
     <g transform="translate(347.254256 294.503112)scale(0.1 -0.1)">
      <use transform="scale(0.996264)" xlink:href="#CMMI12-84"/>
      <use transform="translate(57.175044 -14.943915)scale(0.697382)" xlink:href="#CMR17-49"/>
      <use transform="translate(117.330366 0)scale(0.996264)" xlink:href="#CMR17-61"/>
      <use transform="translate(216.719163 0)scale(0.996264)" xlink:href="#CMR17-49"/>
      <use transform="translate(292.485607 0)scale(0.996264)" xlink:href="#CMR17-110"/>
      <use transform="translate(343.380977 0)scale(0.996264)" xlink:href="#CMR17-115"/>
     </g>
    </g>
   </g>
  </g>
 </g>
 <defs>
  <clipPath id="pd7ef978345">
   <rect height="294.640291" width="394.202415" x="50.81625" y="10.8"/>
  </clipPath>
 </defs>
</svg>
