<?xml version="1.0" encoding="utf-8" standalone="no"?>
<!DOCTYPE svg PUBLIC "-//W3C//DTD SVG 1.1//EN"
  "http://www.w3.org/Graphics/SVG/1.1/DTD/svg11.dtd">
<!-- Created with matplotlib (https://matplotlib.org/) -->
<svg height="250.56pt" version="1.1" viewBox="0 0 340.56 250.56" width="340.56pt" xmlns="http://www.w3.org/2000/svg" xmlns:xlink="http://www.w3.org/1999/xlink">
 <defs>
  <style type="text/css">
*{stroke-linecap:butt;stroke-linejoin:round;}
  </style>
 </defs>
 <g id="figure_1">
  <g id="patch_1">
   <path d="M 0 250.56 
L 340.56 250.56 
L 340.56 0 
L 0 0 
z
" style="fill:#ffffff;"/>
  </g>
  <g id="axes_1">
   <g id="patch_2">
    <path d="M 50.81625 209.304044 
L 322.793046 209.304044 
L 322.793046 10.8 
L 50.81625 10.8 
z
" style="fill:#ffffff;"/>
   </g>
   <g id="PolyCollection_1">
    <path clip-path="url(#pc5316731de)" d="M 254.798847 35.276577 
L 254.798847 45.9588 
L 252.829418 45.9588 
L 252.829418 45.743206 
L 248.749766 45.743206 
L 248.749766 45.55066 
L 244.670114 45.55066 
L 244.670114 48.126227 
L 240.590462 48.126227 
L 240.590462 44.675414 
L 236.51081 44.675414 
L 236.51081 43.43371 
L 232.431158 43.43371 
L 232.431158 43.359264 
L 228.351507 43.359264 
L 228.351507 45.791843 
L 224.271855 45.791843 
L 224.271855 45.918768 
L 220.192203 45.918768 
L 220.192203 41.354852 
L 216.112551 41.354852 
L 216.112551 43.134266 
L 212.032899 43.134266 
L 212.032899 45.993283 
L 207.953247 45.993283 
L 207.953247 44.538212 
L 203.873595 44.538212 
L 203.873595 46.205663 
L 199.793943 46.205663 
L 199.793943 45.665968 
L 195.714291 45.665968 
L 195.714291 46.666616 
L 191.634639 46.666616 
L 191.634639 47.837918 
L 187.554987 47.837918 
L 187.554987 47.122528 
L 183.475335 47.122528 
L 183.475335 46.965602 
L 179.395683 46.965602 
L 179.395683 48.550801 
L 175.316031 48.550801 
L 175.316031 48.713298 
L 171.236379 48.713298 
L 171.236379 48.199238 
L 167.156727 48.199238 
L 167.156727 47.899276 
L 163.077076 47.899276 
L 163.077076 48.471985 
L 158.997424 48.471985 
L 158.997424 47.507179 
L 154.917772 47.507179 
L 154.917772 48.283527 
L 150.83812 48.283527 
L 150.83812 48.670683 
L 146.758468 48.670683 
L 146.758468 46.965655 
L 142.678816 46.965655 
L 142.678816 48.439883 
L 138.599164 48.439883 
L 138.599164 48.403784 
L 134.519512 48.403784 
L 134.519512 48.30331 
L 130.43986 48.30331 
L 130.43986 48.34299 
L 126.360208 48.34299 
L 126.360208 48.516864 
L 122.280556 48.516864 
L 122.280556 49.358894 
L 118.200904 49.358894 
L 118.200904 48.718733 
L 114.121252 48.718733 
L 114.121252 48.9528 
L 110.0416 48.9528 
L 110.0416 49.281545 
L 105.961948 49.281545 
L 105.961948 49.236851 
L 101.882296 49.236851 
L 101.882296 49.499268 
L 97.802645 49.499268 
L 97.802645 48.727249 
L 93.722993 48.727249 
L 93.722993 48.881117 
L 89.643341 48.881117 
L 89.643341 48.824585 
L 85.563689 48.824585 
L 85.563689 49.422058 
L 81.484037 49.422058 
L 81.484037 49.114082 
L 77.404385 49.114082 
L 77.404385 48.975273 
L 73.324733 48.975273 
L 73.324733 48.790191 
L 69.245081 48.790191 
L 69.245081 48.933058 
L 65.165429 48.933058 
L 65.165429 48.973202 
L 61.085777 48.973202 
L 61.085777 49.252544 
L 57.006125 49.252544 
L 57.006125 48.934782 
L 52.926473 48.934782 
L 52.926473 48.706453 
L 50.81625 48.706453 
L 50.81625 47.709935 
L 50.81625 47.709935 
L 52.926473 47.709935 
L 52.926473 48.246243 
L 57.006125 48.246243 
L 57.006125 48.344841 
L 61.085777 48.344841 
L 61.085777 47.963508 
L 65.165429 47.963508 
L 65.165429 47.83554 
L 69.245081 47.83554 
L 69.245081 47.419226 
L 73.324733 47.419226 
L 73.324733 47.953772 
L 77.404385 47.953772 
L 77.404385 47.951051 
L 81.484037 47.951051 
L 81.484037 48.132985 
L 85.563689 48.132985 
L 85.563689 47.481492 
L 89.643341 47.481492 
L 89.643341 47.493434 
L 93.722993 47.493434 
L 93.722993 47.142688 
L 97.802645 47.142688 
L 97.802645 47.958708 
L 101.882296 47.958708 
L 101.882296 47.000576 
L 105.961948 47.000576 
L 105.961948 47.314186 
L 110.0416 47.314186 
L 110.0416 47.02094 
L 114.121252 47.02094 
L 114.121252 46.914565 
L 118.200904 46.914565 
L 118.200904 47.161622 
L 122.280556 47.161622 
L 122.280556 45.836869 
L 126.360208 45.836869 
L 126.360208 46.001596 
L 130.43986 46.001596 
L 130.43986 44.963858 
L 134.519512 44.963858 
L 134.519512 46.409734 
L 138.599164 46.409734 
L 138.599164 45.654773 
L 142.678816 45.654773 
L 142.678816 41.811239 
L 146.758468 41.811239 
L 146.758468 46.047557 
L 150.83812 46.047557 
L 150.83812 44.700741 
L 154.917772 44.700741 
L 154.917772 41.093487 
L 158.997424 41.093487 
L 158.997424 43.406403 
L 163.077076 43.406403 
L 163.077076 41.498093 
L 167.156727 41.498093 
L 167.156727 40.534931 
L 171.236379 40.534931 
L 171.236379 43.938454 
L 175.316031 43.938454 
L 175.316031 44.772514 
L 179.395683 44.772514 
L 179.395683 33.247062 
L 183.475335 33.247062 
L 183.475335 36.620731 
L 187.554987 36.620731 
L 187.554987 40.358704 
L 191.634639 40.358704 
L 191.634639 38.178937 
L 195.714291 38.178937 
L 195.714291 25.220412 
L 199.793943 25.220412 
L 199.793943 25.366056 
L 203.873595 25.366056 
L 203.873595 22.961043 
L 207.953247 22.961043 
L 207.953247 33.084757 
L 212.032899 33.084757 
L 212.032899 33.425982 
L 216.112551 33.425982 
L 216.112551 31.495783 
L 220.192203 31.495783 
L 220.192203 30.239528 
L 224.271855 30.239528 
L 224.271855 31.785678 
L 228.351507 31.785678 
L 228.351507 33.198882 
L 232.431158 33.198882 
L 232.431158 32.630234 
L 236.51081 32.630234 
L 236.51081 34.354896 
L 240.590462 34.354896 
L 240.590462 34.141645 
L 244.670114 34.141645 
L 244.670114 28.858164 
L 248.749766 28.858164 
L 248.749766 21.555512 
L 252.829418 21.555512 
L 252.829418 35.276577 
L 254.798847 35.276577 
z
" style="fill:#0088ff;fill-opacity:0.15;"/>
   </g>
   <g id="PolyCollection_2">
    <path clip-path="url(#pc5316731de)" d="M 254.798847 93.709323 
L 254.798847 155.28765 
L 252.829418 155.28765 
L 252.829418 150.898327 
L 248.749766 150.898327 
L 248.749766 146.358581 
L 244.670114 146.358581 
L 244.670114 134.009836 
L 240.590462 134.009836 
L 240.590462 148.412434 
L 236.51081 148.412434 
L 236.51081 140.275019 
L 232.431158 140.275019 
L 232.431158 131.245995 
L 228.351507 131.245995 
L 228.351507 142.32041 
L 224.271855 142.32041 
L 224.271855 155.965548 
L 220.192203 155.965548 
L 220.192203 157.063091 
L 216.112551 157.063091 
L 216.112551 145.709079 
L 212.032899 145.709079 
L 212.032899 161.290792 
L 207.953247 161.290792 
L 207.953247 169.976037 
L 203.873595 169.976037 
L 203.873595 151.717797 
L 199.793943 151.717797 
L 199.793943 167.860939 
L 195.714291 167.860939 
L 195.714291 156.57804 
L 191.634639 156.57804 
L 191.634639 170.013252 
L 187.554987 170.013252 
L 187.554987 162.307009 
L 183.475335 162.307009 
L 183.475335 170.794312 
L 179.395683 170.794312 
L 179.395683 182.479399 
L 175.316031 182.479399 
L 175.316031 161.093041 
L 171.236379 161.093041 
L 171.236379 184.782528 
L 167.156727 184.782528 
L 167.156727 177.895602 
L 163.077076 177.895602 
L 163.077076 172.086026 
L 158.997424 172.086026 
L 158.997424 176.136992 
L 154.917772 176.136992 
L 154.917772 182.939023 
L 150.83812 182.939023 
L 150.83812 186.16549 
L 146.758468 186.16549 
L 146.758468 182.425231 
L 142.678816 182.425231 
L 142.678816 195.21794 
L 138.599164 195.21794 
L 138.599164 181.120529 
L 134.519512 181.120529 
L 134.519512 190.450227 
L 130.43986 190.450227 
L 130.43986 180.767432 
L 126.360208 180.767432 
L 126.360208 188.231448 
L 122.280556 188.231448 
L 122.280556 181.992548 
L 118.200904 181.992548 
L 118.200904 184.917635 
L 114.121252 184.917635 
L 114.121252 184.860345 
L 110.0416 184.860345 
L 110.0416 193.86525 
L 105.961948 193.86525 
L 105.961948 194.260621 
L 101.882296 194.260621 
L 101.882296 186.890318 
L 97.802645 186.890318 
L 97.802645 196.393276 
L 93.722993 196.393276 
L 93.722993 192.653591 
L 89.643341 192.653591 
L 89.643341 192.360838 
L 85.563689 192.360838 
L 85.563689 185.132629 
L 81.484037 185.132629 
L 81.484037 190.022049 
L 77.404385 190.022049 
L 77.404385 191.732848 
L 73.324733 191.732848 
L 73.324733 194.626229 
L 69.245081 194.626229 
L 69.245081 189.781322 
L 65.165429 189.781322 
L 65.165429 192.569213 
L 61.085777 192.569213 
L 61.085777 190.299055 
L 57.006125 190.299055 
L 57.006125 200.281133 
L 52.926473 200.281133 
L 52.926473 193.498211 
L 50.81625 193.498211 
L 50.81625 176.372252 
L 50.81625 176.372252 
L 52.926473 176.372252 
L 52.926473 178.300065 
L 57.006125 178.300065 
L 57.006125 174.612678 
L 61.085777 174.612678 
L 61.085777 172.148197 
L 65.165429 172.148197 
L 65.165429 172.190639 
L 69.245081 172.190639 
L 69.245081 170.430823 
L 73.324733 170.430823 
L 73.324733 168.155056 
L 77.404385 168.155056 
L 77.404385 170.752148 
L 81.484037 170.752148 
L 81.484037 170.161979 
L 85.563689 170.161979 
L 85.563689 161.358345 
L 89.643341 161.358345 
L 89.643341 171.158709 
L 93.722993 171.158709 
L 93.722993 175.205673 
L 97.802645 175.205673 
L 97.802645 158.429378 
L 101.882296 158.429378 
L 101.882296 167.432131 
L 105.961948 167.432131 
L 105.961948 173.514998 
L 110.0416 173.514998 
L 110.0416 168.358041 
L 114.121252 168.358041 
L 114.121252 170.591807 
L 118.200904 170.591807 
L 118.200904 159.849456 
L 122.280556 159.849456 
L 122.280556 170.393299 
L 126.360208 170.393299 
L 126.360208 144.358194 
L 130.43986 144.358194 
L 130.43986 158.979508 
L 134.519512 158.979508 
L 134.519512 146.64878 
L 138.599164 146.64878 
L 138.599164 153.684564 
L 142.678816 153.684564 
L 142.678816 148.16678 
L 146.758468 148.16678 
L 146.758468 159.35018 
L 150.83812 159.35018 
L 150.83812 150.912265 
L 154.917772 150.912265 
L 154.917772 138.655373 
L 158.997424 138.655373 
L 158.997424 127.837853 
L 163.077076 127.837853 
L 163.077076 126.354821 
L 167.156727 126.354821 
L 167.156727 146.108661 
L 171.236379 146.108661 
L 171.236379 113.605947 
L 175.316031 113.605947 
L 175.316031 134.713812 
L 179.395683 134.713812 
L 179.395683 136.591143 
L 183.475335 136.591143 
L 183.475335 121.383091 
L 187.554987 121.383091 
L 187.554987 134.502157 
L 191.634639 134.502157 
L 191.634639 117.560194 
L 195.714291 117.560194 
L 195.714291 130.433762 
L 199.793943 130.433762 
L 199.793943 122.625768 
L 203.873595 122.625768 
L 203.873595 122.413548 
L 207.953247 122.413548 
L 207.953247 115.454821 
L 212.032899 115.454821 
L 212.032899 95.61755 
L 216.112551 95.61755 
L 216.112551 119.441664 
L 220.192203 119.441664 
L 220.192203 105.084555 
L 224.271855 105.084555 
L 224.271855 105.025896 
L 228.351507 105.025896 
L 228.351507 82.938497 
L 232.431158 82.938497 
L 232.431158 87.784504 
L 236.51081 87.784504 
L 236.51081 90.471627 
L 240.590462 90.471627 
L 240.590462 90.753229 
L 244.670114 90.753229 
L 244.670114 92.823046 
L 248.749766 92.823046 
L 248.749766 92.36199 
L 252.829418 92.36199 
L 252.829418 93.709323 
L 254.798847 93.709323 
z
" style="fill:#dd5500;fill-opacity:0.15;"/>
   </g>
   <g id="PolyCollection_3">
    <path clip-path="url(#pc5316731de)" d="M 322.793046 46.084596 
L 322.793046 47.964339 
L 321.464463 47.964339 
L 321.464463 47.795462 
L 318.744695 47.795462 
L 318.744695 48.530981 
L 316.024927 48.530981 
L 316.024927 47.881992 
L 313.30516 47.881992 
L 313.30516 47.976651 
L 310.585392 47.976651 
L 310.585392 48.17758 
L 307.865624 48.17758 
L 307.865624 48.031263 
L 305.145856 48.031263 
L 305.145856 47.479298 
L 302.426088 47.479298 
L 302.426088 48.099996 
L 299.70632 48.099996 
L 299.70632 48.425471 
L 296.986552 48.425471 
L 296.986552 47.852621 
L 294.266784 47.852621 
L 294.266784 47.459629 
L 291.547016 47.459629 
L 291.547016 47.613987 
L 288.827248 47.613987 
L 288.827248 47.913272 
L 286.10748 47.913272 
L 286.10748 46.374137 
L 283.387712 46.374137 
L 283.387712 46.676108 
L 280.667944 46.676108 
L 280.667944 47.564749 
L 277.948176 47.564749 
L 277.948176 44.856326 
L 275.228408 44.856326 
L 275.228408 48.239277 
L 272.50864 48.239277 
L 272.50864 47.763039 
L 269.788872 47.763039 
L 269.788872 46.676741 
L 267.069104 46.676741 
L 267.069104 46.223576 
L 264.349336 46.223576 
L 264.349336 45.343166 
L 261.629568 45.343166 
L 261.629568 44.695445 
L 258.9098 44.695445 
L 258.9098 46.511397 
L 256.190032 46.511397 
L 256.190032 45.666506 
L 253.470264 45.666506 
L 253.470264 46.135402 
L 250.750496 46.135402 
L 250.750496 43.587568 
L 248.030729 43.587568 
L 248.030729 45.715858 
L 245.310961 45.715858 
L 245.310961 45.116052 
L 242.591193 45.116052 
L 242.591193 43.555351 
L 239.871425 43.555351 
L 239.871425 41.06298 
L 237.151657 41.06298 
L 237.151657 44.959428 
L 234.431889 44.959428 
L 234.431889 45.815725 
L 231.712121 45.815725 
L 231.712121 44.826696 
L 228.992353 44.826696 
L 228.992353 43.935068 
L 226.272585 43.935068 
L 226.272585 42.266016 
L 223.552817 42.266016 
L 223.552817 43.969871 
L 220.833049 43.969871 
L 220.833049 45.404516 
L 218.113281 45.404516 
L 218.113281 41.273736 
L 215.393513 41.273736 
L 215.393513 46.787457 
L 212.673745 46.787457 
L 212.673745 44.578742 
L 209.953977 44.578742 
L 209.953977 44.186121 
L 207.234209 44.186121 
L 207.234209 45.979533 
L 204.514441 45.979533 
L 204.514441 45.577084 
L 201.794673 45.577084 
L 201.794673 45.80104 
L 199.074905 45.80104 
L 199.074905 46.267555 
L 196.355137 46.267555 
L 196.355137 45.710345 
L 193.635369 45.710345 
L 193.635369 45.113219 
L 190.915601 45.113219 
L 190.915601 46.033948 
L 188.195833 46.033948 
L 188.195833 46.968692 
L 186.804648 46.968692 
L 186.804648 36.535048 
L 186.804648 36.535048 
L 188.195833 36.535048 
L 188.195833 38.184165 
L 190.915601 38.184165 
L 190.915601 29.323472 
L 193.635369 29.323472 
L 193.635369 29.091915 
L 196.355137 29.091915 
L 196.355137 34.380303 
L 199.074905 34.380303 
L 199.074905 33.995386 
L 201.794673 33.995386 
L 201.794673 29.931741 
L 204.514441 29.931741 
L 204.514441 32.221208 
L 207.234209 32.221208 
L 207.234209 31.840932 
L 209.953977 31.840932 
L 209.953977 23.904149 
L 212.673745 23.904149 
L 212.673745 34.329223 
L 215.393513 34.329223 
L 215.393513 29.043064 
L 218.113281 29.043064 
L 218.113281 34.783051 
L 220.833049 34.783051 
L 220.833049 28.01213 
L 223.552817 28.01213 
L 223.552817 19.822911 
L 226.272585 19.822911 
L 226.272585 29.003837 
L 228.992353 29.003837 
L 228.992353 28.062681 
L 231.712121 28.062681 
L 231.712121 28.489015 
L 234.431889 28.489015 
L 234.431889 29.408698 
L 237.151657 29.408698 
L 237.151657 26.881282 
L 239.871425 26.881282 
L 239.871425 23.8444 
L 242.591193 23.8444 
L 242.591193 30.776895 
L 245.310961 30.776895 
L 245.310961 34.515466 
L 248.030729 34.515466 
L 248.030729 30.602439 
L 250.750496 30.602439 
L 250.750496 36.202572 
L 253.470264 36.202572 
L 253.470264 34.071175 
L 256.190032 34.071175 
L 256.190032 33.740607 
L 258.9098 33.740607 
L 258.9098 33.711845 
L 261.629568 33.711845 
L 261.629568 32.645799 
L 264.349336 32.645799 
L 264.349336 34.057455 
L 267.069104 34.057455 
L 267.069104 35.860907 
L 269.788872 35.860907 
L 269.788872 41.841976 
L 272.50864 41.841976 
L 272.50864 34.445408 
L 275.228408 34.445408 
L 275.228408 38.373121 
L 277.948176 38.373121 
L 277.948176 43.942157 
L 280.667944 43.942157 
L 280.667944 32.971663 
L 283.387712 32.971663 
L 283.387712 36.558549 
L 286.10748 36.558549 
L 286.10748 39.998494 
L 288.827248 39.998494 
L 288.827248 38.964459 
L 291.547016 38.964459 
L 291.547016 43.132449 
L 294.266784 43.132449 
L 294.266784 44.348505 
L 296.986552 44.348505 
L 296.986552 39.842539 
L 299.70632 39.842539 
L 299.70632 42.12607 
L 302.426088 42.12607 
L 302.426088 44.747195 
L 305.145856 44.747195 
L 305.145856 45.246327 
L 307.865624 45.246327 
L 307.865624 45.453464 
L 310.585392 45.453464 
L 310.585392 44.833535 
L 313.30516 44.833535 
L 313.30516 41.609833 
L 316.024927 41.609833 
L 316.024927 47.00903 
L 318.744695 47.00903 
L 318.744695 44.682047 
L 321.464463 44.682047 
L 321.464463 46.084596 
L 322.793046 46.084596 
z
" style="fill:#0088ff;fill-opacity:0.15;"/>
   </g>
   <g id="PolyCollection_4">
    <path clip-path="url(#pc5316731de)" d="M 322.793046 138.141275 
L 322.793046 166.851303 
L 321.464463 166.851303 
L 321.464463 167.534097 
L 318.744695 167.534097 
L 318.744695 159.932213 
L 316.024927 159.932213 
L 316.024927 166.310314 
L 313.30516 166.310314 
L 313.30516 167.966878 
L 310.585392 167.966878 
L 310.585392 154.581652 
L 307.865624 154.581652 
L 307.865624 162.39173 
L 305.145856 162.39173 
L 305.145856 155.498743 
L 302.426088 155.498743 
L 302.426088 150.614688 
L 299.70632 150.614688 
L 299.70632 161.656099 
L 296.986552 161.656099 
L 296.986552 154.756729 
L 294.266784 154.756729 
L 294.266784 145.756957 
L 291.547016 145.756957 
L 291.547016 173.015939 
L 288.827248 173.015939 
L 288.827248 136.989806 
L 286.10748 136.989806 
L 286.10748 149.696513 
L 283.387712 149.696513 
L 283.387712 173.953293 
L 280.667944 173.953293 
L 280.667944 166.40429 
L 277.948176 166.40429 
L 277.948176 151.525846 
L 275.228408 151.525846 
L 275.228408 143.70342 
L 272.50864 143.70342 
L 272.50864 146.709146 
L 269.788872 146.709146 
L 269.788872 156.926746 
L 267.069104 156.926746 
L 267.069104 164.284127 
L 264.349336 164.284127 
L 264.349336 154.928778 
L 261.629568 154.928778 
L 261.629568 144.412922 
L 258.9098 144.412922 
L 258.9098 142.968663 
L 256.190032 142.968663 
L 256.190032 147.777633 
L 253.470264 147.777633 
L 253.470264 154.912849 
L 250.750496 154.912849 
L 250.750496 133.560917 
L 248.030729 133.560917 
L 248.030729 153.678744 
L 245.310961 153.678744 
L 245.310961 154.397064 
L 242.591193 154.397064 
L 242.591193 156.561967 
L 239.871425 156.561967 
L 239.871425 148.733841 
L 237.151657 148.733841 
L 237.151657 134.461051 
L 234.431889 134.461051 
L 234.431889 152.247868 
L 231.712121 152.247868 
L 231.712121 163.88757 
L 228.992353 163.88757 
L 228.992353 145.738288 
L 226.272585 145.738288 
L 226.272585 150.540661 
L 223.552817 150.540661 
L 223.552817 159.957228 
L 220.833049 159.957228 
L 220.833049 146.299214 
L 218.113281 146.299214 
L 218.113281 177.215525 
L 215.393513 177.215525 
L 215.393513 143.370151 
L 212.673745 143.370151 
L 212.673745 156.244861 
L 209.953977 156.244861 
L 209.953977 155.190552 
L 207.234209 155.190552 
L 207.234209 170.178039 
L 204.514441 170.178039 
L 204.514441 166.003065 
L 201.794673 166.003065 
L 201.794673 171.171318 
L 199.074905 171.171318 
L 199.074905 166.671125 
L 196.355137 166.671125 
L 196.355137 159.055198 
L 193.635369 159.055198 
L 193.635369 174.082274 
L 190.915601 174.082274 
L 190.915601 163.000013 
L 188.195833 163.000013 
L 188.195833 159.921025 
L 186.804648 159.921025 
L 186.804648 110.441183 
L 186.804648 110.441183 
L 188.195833 110.441183 
L 188.195833 132.445723 
L 190.915601 132.445723 
L 190.915601 141.026669 
L 193.635369 141.026669 
L 193.635369 114.008789 
L 196.355137 114.008789 
L 196.355137 127.460492 
L 199.074905 127.460492 
L 199.074905 133.830589 
L 201.794673 133.830589 
L 201.794673 126.918567 
L 204.514441 126.918567 
L 204.514441 127.343178 
L 207.234209 127.343178 
L 207.234209 103.256523 
L 209.953977 103.256523 
L 209.953977 86.607808 
L 212.673745 86.607808 
L 212.673745 105.195523 
L 215.393513 105.195523 
L 215.393513 110.732266 
L 218.113281 110.732266 
L 218.113281 113.961876 
L 220.833049 113.961876 
L 220.833049 125.613317 
L 223.552817 125.613317 
L 223.552817 111.075111 
L 226.272585 111.075111 
L 226.272585 104.632359 
L 228.992353 104.632359 
L 228.992353 125.289686 
L 231.712121 125.289686 
L 231.712121 115.327229 
L 234.431889 115.327229 
L 234.431889 87.793657 
L 237.151657 87.793657 
L 237.151657 102.061585 
L 239.871425 102.061585 
L 239.871425 104.82895 
L 242.591193 104.82895 
L 242.591193 116.039885 
L 245.310961 116.039885 
L 245.310961 98.28973 
L 248.030729 98.28973 
L 248.030729 101.972921 
L 250.750496 101.972921 
L 250.750496 107.111277 
L 253.470264 107.111277 
L 253.470264 98.224465 
L 256.190032 98.224465 
L 256.190032 103.927948 
L 258.9098 103.927948 
L 258.9098 91.307329 
L 261.629568 91.307329 
L 261.629568 116.805768 
L 264.349336 116.805768 
L 264.349336 126.118676 
L 267.069104 126.118676 
L 267.069104 98.159234 
L 269.788872 98.159234 
L 269.788872 93.559251 
L 272.50864 93.559251 
L 272.50864 107.291034 
L 275.228408 107.291034 
L 275.228408 105.469672 
L 277.948176 105.469672 
L 277.948176 121.279722 
L 280.667944 121.279722 
L 280.667944 113.193155 
L 283.387712 113.193155 
L 283.387712 89.66311 
L 286.10748 89.66311 
L 286.10748 98.893825 
L 288.827248 98.893825 
L 288.827248 104.251309 
L 291.547016 104.251309 
L 291.547016 117.08249 
L 294.266784 117.08249 
L 294.266784 107.41297 
L 296.986552 107.41297 
L 296.986552 114.324698 
L 299.70632 114.324698 
L 299.70632 95.081787 
L 302.426088 95.081787 
L 302.426088 113.203093 
L 305.145856 113.203093 
L 305.145856 118.127635 
L 307.865624 118.127635 
L 307.865624 118.015568 
L 310.585392 118.015568 
L 310.585392 111.762327 
L 313.30516 111.762327 
L 313.30516 131.163437 
L 316.024927 131.163437 
L 316.024927 130.390445 
L 318.744695 130.390445 
L 318.744695 122.346778 
L 321.464463 122.346778 
L 321.464463 138.141275 
L 322.793046 138.141275 
z
" style="fill:#dd5500;fill-opacity:0.15;"/>
   </g>
   <g id="matplotlib.axis_1">
    <g id="xtick_1">
     <g id="line2d_1">
      <path clip-path="url(#pc5316731de)" d="M 50.81625 209.304044 
L 50.81625 10.8 
" style="fill:none;stroke:#dddddd;stroke-linecap:square;stroke-width:0.5;"/>
     </g>
     <g id="line2d_2">
      <defs>
       <path d="M 0 0 
L 0 3.5 
" id="ma5467cf7a8" style="stroke:#000000;stroke-width:0.8;"/>
      </defs>
      <g>
       <use style="stroke:#000000;stroke-width:0.8;" x="50.81625" xlink:href="#ma5467cf7a8" y="209.304044"/>
      </g>
     </g>
     <g id="text_1">
      <!-- $\mathdefault{10^{-1}}$ -->
      <defs>
       <path d="M 26.59375 63.796875 
C 26.59375 65.890625 26.5 66 25.09375 66 
C 21.203125 61.359375 15.296875 59.890625 9.703125 59.6875 
C 9.40625 59.6875 8.90625 59.6875 8.796875 59.5 
C 8.703125 59.296875 8.703125 59.09375 8.703125 57 
C 11.796875 57 17 57.59375 21 59.984375 
L 21 7.296875 
C 21 3.796875 20.796875 2.59375 12.203125 2.59375 
L 9.203125 2.59375 
L 9.203125 0 
C 14 0.09375 19 0.1875 23.796875 0.1875 
C 28.59375 0.1875 33.59375 0.09375 38.40625 0 
L 38.40625 2.59375 
L 35.40625 2.59375 
C 26.796875 2.59375 26.59375 3.6875 26.59375 7.296875 
z
" id="CMR17-49"/>
       <path d="M 42 31.84375 
C 42 37.96875 41.90625 48.421875 37.703125 56.453125 
C 34 63.484375 28.09375 66 22.90625 66 
C 18.09375 66 12 63.78125 8.203125 56.5625 
C 4.203125 49.015625 3.796875 39.671875 3.796875 31.84375 
C 3.796875 26.109375 3.90625 17.375 7 9.734375 
C 11.296875 -0.609375 19 -2 22.90625 -2 
C 27.5 -2 34.5 -0.109375 38.59375 9.4375 
C 41.59375 16.375 42 24.5 42 31.84375 
z
M 22.90625 -0.40625 
C 16.5 -0.40625 12.703125 5.125 11.296875 12.75 
C 10.203125 18.6875 10.203125 27.328125 10.203125 32.953125 
C 10.203125 40.6875 10.203125 47.109375 11.5 53.234375 
C 13.40625 61.78125 19 64.390625 22.90625 64.390625 
C 27 64.390625 32.296875 61.671875 34.203125 53.4375 
C 35.5 47.71875 35.59375 40.984375 35.59375 32.953125 
C 35.59375 26.421875 35.59375 18.375 34.40625 12.453125 
C 32.296875 1.5 26.40625 -0.40625 22.90625 -0.40625 
z
" id="CMR17-48"/>
       <path d="M 65.90625 23 
C 67.59375 23 69.40625 23 69.40625 25 
C 69.40625 27 67.59375 27 65.90625 27 
L 11.796875 27 
C 10.09375 27 8.296875 27 8.296875 25 
C 8.296875 23 10.09375 23 11.796875 23 
z
" id="CMSY10-0"/>
      </defs>
      <g transform="translate(40.735963 223.222543)scale(0.1 -0.1)">
       <use transform="scale(0.996264)" xlink:href="#CMR17-49"/>
       <use transform="translate(45.690477 0)scale(0.996264)" xlink:href="#CMR17-48"/>
       <use transform="translate(91.380954 36.153639)scale(0.697382)" xlink:href="#CMSY10-0"/>
       <use transform="translate(145.621947 36.153639)scale(0.697382)" xlink:href="#CMR17-49"/>
      </g>
     </g>
    </g>
    <g id="xtick_2">
     <g id="line2d_3">
      <path clip-path="url(#pc5316731de)" d="M 118.810449 209.304044 
L 118.810449 10.8 
" style="fill:none;stroke:#dddddd;stroke-linecap:square;stroke-width:0.5;"/>
     </g>
     <g id="line2d_4">
      <g>
       <use style="stroke:#000000;stroke-width:0.8;" x="118.810449" xlink:href="#ma5467cf7a8" y="209.304044"/>
      </g>
     </g>
     <g id="text_2">
      <!-- $\mathdefault{10^{0}}$ -->
      <g transform="translate(111.843495 223.222543)scale(0.1 -0.1)">
       <use transform="scale(0.996264)" xlink:href="#CMR17-49"/>
       <use transform="translate(45.690477 0)scale(0.996264)" xlink:href="#CMR17-48"/>
       <use transform="translate(91.380954 36.153639)scale(0.697382)" xlink:href="#CMR17-48"/>
      </g>
     </g>
    </g>
    <g id="xtick_3">
     <g id="line2d_5">
      <path clip-path="url(#pc5316731de)" d="M 186.804648 209.304044 
L 186.804648 10.8 
" style="fill:none;stroke:#dddddd;stroke-linecap:square;stroke-width:0.5;"/>
     </g>
     <g id="line2d_6">
      <g>
       <use style="stroke:#000000;stroke-width:0.8;" x="186.804648" xlink:href="#ma5467cf7a8" y="209.304044"/>
      </g>
     </g>
     <g id="text_3">
      <!-- $\mathdefault{10^{1}}$ -->
      <g transform="translate(179.837694 223.222543)scale(0.1 -0.1)">
       <use transform="scale(0.996264)" xlink:href="#CMR17-49"/>
       <use transform="translate(45.690477 0)scale(0.996264)" xlink:href="#CMR17-48"/>
       <use transform="translate(91.380954 36.153639)scale(0.697382)" xlink:href="#CMR17-49"/>
      </g>
     </g>
    </g>
    <g id="xtick_4">
     <g id="line2d_7">
      <path clip-path="url(#pc5316731de)" d="M 254.798847 209.304044 
L 254.798847 10.8 
" style="fill:none;stroke:#dddddd;stroke-linecap:square;stroke-width:0.5;"/>
     </g>
     <g id="line2d_8">
      <g>
       <use style="stroke:#000000;stroke-width:0.8;" x="254.798847" xlink:href="#ma5467cf7a8" y="209.304044"/>
      </g>
     </g>
     <g id="text_4">
      <!-- $\mathdefault{10^{2}}$ -->
      <defs>
       <path d="M 41.703125 15.46875 
L 39.90625 15.46875 
C 38.90625 8.390625 38.09375 7.1875 37.703125 6.59375 
C 37.203125 5.796875 30 5.796875 28.59375 5.796875 
L 9.40625 5.796875 
C 13 9.6875 20 16.765625 28.5 24.9375 
C 34.59375 30.71875 41.703125 37.5 41.703125 47.390625 
C 41.703125 59.1875 32.296875 66 21.796875 66 
C 10.796875 66 4.09375 56.296875 4.09375 47.296875 
C 4.09375 43.390625 7 42.890625 8.203125 42.890625 
C 9.203125 42.890625 12.203125 43.484375 12.203125 46.984375 
C 12.203125 50.09375 9.59375 51 8.203125 51 
C 7.59375 51 7 50.890625 6.59375 50.6875 
C 8.5 59.1875 14.296875 63.390625 20.40625 63.390625 
C 29.09375 63.390625 34.796875 56.5 34.796875 47.390625 
C 34.796875 38.703125 29.703125 31.21875 24 24.734375 
L 4.09375 2.296875 
L 4.09375 0 
L 39.296875 0 
z
" id="CMR17-50"/>
      </defs>
      <g transform="translate(247.831893 223.222543)scale(0.1 -0.1)">
       <use transform="scale(0.996264)" xlink:href="#CMR17-49"/>
       <use transform="translate(45.690477 0)scale(0.996264)" xlink:href="#CMR17-48"/>
       <use transform="translate(91.380954 36.153639)scale(0.697382)" xlink:href="#CMR17-50"/>
      </g>
     </g>
    </g>
    <g id="xtick_5">
     <g id="line2d_9">
      <path clip-path="url(#pc5316731de)" d="M 322.793046 209.304044 
L 322.793046 10.8 
" style="fill:none;stroke:#dddddd;stroke-linecap:square;stroke-width:0.5;"/>
     </g>
     <g id="line2d_10">
      <g>
       <use style="stroke:#000000;stroke-width:0.8;" x="322.793046" xlink:href="#ma5467cf7a8" y="209.304044"/>
      </g>
     </g>
     <g id="text_5">
      <!-- $\mathdefault{10^{3}}$ -->
      <defs>
       <path d="M 22.09375 34 
C 31 34 34.90625 26.140625 34.90625 17.09375 
C 34.90625 5.03125 28.5 0.390625 22.703125 0.390625 
C 17.40625 0.390625 8.796875 3.015625 6.09375 10.796875 
C 6.59375 10.59375 7.09375 10.59375 7.59375 10.59375 
C 10 10.59375 11.796875 12.1875 11.796875 14.796875 
C 11.796875 17.6875 9.59375 19 7.59375 19 
C 5.90625 19 3.296875 18.1875 3.296875 14.484375 
C 3.296875 5.234375 12.296875 -2 22.90625 -2 
C 34 -2 42.5 6.75 42.5 16.984375 
C 42.5 26.84375 34.5 34 25 35.09375 
C 32.59375 36.671875 39.90625 43.375 39.90625 52.390625 
C 39.90625 60.25 32 66 23 66 
C 13.90625 66 5.90625 60.34375 5.90625 52.296875 
C 5.90625 48.796875 8.5 48.1875 9.796875 48.1875 
C 11.90625 48.1875 13.703125 49.484375 13.703125 52.09375 
C 13.703125 54.6875 11.90625 56 9.796875 56 
C 9.40625 56 8.90625 56 8.5 55.796875 
C 11.40625 62.484375 19.296875 63.6875 22.796875 63.6875 
C 26.296875 63.6875 32.90625 61.96875 32.90625 52.296875 
C 32.90625 49.484375 32.5 44.546875 29.09375 40.21875 
C 26.09375 36.390625 22.703125 36.1875 19.40625 35.890625 
C 18.90625 35.890625 16.59375 35.6875 16.203125 35.6875 
C 15.5 35.59375 15.09375 35.5 15.09375 34.796875 
C 15.09375 34.09375 15.203125 34 17.203125 34 
z
" id="CMR17-51"/>
      </defs>
      <g transform="translate(315.826092 223.222543)scale(0.1 -0.1)">
       <use transform="scale(0.996264)" xlink:href="#CMR17-49"/>
       <use transform="translate(45.690477 0)scale(0.996264)" xlink:href="#CMR17-48"/>
       <use transform="translate(91.380954 36.153639)scale(0.697382)" xlink:href="#CMR17-51"/>
      </g>
     </g>
    </g>
    <g id="xtick_6">
     <g id="line2d_11">
      <path clip-path="url(#pc5316731de)" d="M 71.284544 209.304044 
L 71.284544 10.8 
" style="fill:none;stroke:#dddddd;stroke-linecap:square;stroke-width:0.5;"/>
     </g>
     <g id="line2d_12">
      <defs>
       <path d="M 0 0 
L 0 2 
" id="mc0243bac53" style="stroke:#000000;stroke-width:0.6;"/>
      </defs>
      <g>
       <use style="stroke:#000000;stroke-width:0.6;" x="71.284544" xlink:href="#mc0243bac53" y="209.304044"/>
      </g>
     </g>
    </g>
    <g id="xtick_7">
     <g id="line2d_13">
      <path clip-path="url(#pc5316731de)" d="M 83.257728 209.304044 
L 83.257728 10.8 
" style="fill:none;stroke:#dddddd;stroke-linecap:square;stroke-width:0.5;"/>
     </g>
     <g id="line2d_14">
      <g>
       <use style="stroke:#000000;stroke-width:0.6;" x="83.257728" xlink:href="#mc0243bac53" y="209.304044"/>
      </g>
     </g>
    </g>
    <g id="xtick_8">
     <g id="line2d_15">
      <path clip-path="url(#pc5316731de)" d="M 91.752837 209.304044 
L 91.752837 10.8 
" style="fill:none;stroke:#dddddd;stroke-linecap:square;stroke-width:0.5;"/>
     </g>
     <g id="line2d_16">
      <g>
       <use style="stroke:#000000;stroke-width:0.6;" x="91.752837" xlink:href="#mc0243bac53" y="209.304044"/>
      </g>
     </g>
    </g>
    <g id="xtick_9">
     <g id="line2d_17">
      <path clip-path="url(#pc5316731de)" d="M 98.342156 209.304044 
L 98.342156 10.8 
" style="fill:none;stroke:#dddddd;stroke-linecap:square;stroke-width:0.5;"/>
     </g>
     <g id="line2d_18">
      <g>
       <use style="stroke:#000000;stroke-width:0.6;" x="98.342156" xlink:href="#mc0243bac53" y="209.304044"/>
      </g>
     </g>
    </g>
    <g id="xtick_10">
     <g id="line2d_19">
      <path clip-path="url(#pc5316731de)" d="M 103.726021 209.304044 
L 103.726021 10.8 
" style="fill:none;stroke:#dddddd;stroke-linecap:square;stroke-width:0.5;"/>
     </g>
     <g id="line2d_20">
      <g>
       <use style="stroke:#000000;stroke-width:0.6;" x="103.726021" xlink:href="#mc0243bac53" y="209.304044"/>
      </g>
     </g>
    </g>
    <g id="xtick_11">
     <g id="line2d_21">
      <path clip-path="url(#pc5316731de)" d="M 108.278014 209.304044 
L 108.278014 10.8 
" style="fill:none;stroke:#dddddd;stroke-linecap:square;stroke-width:0.5;"/>
     </g>
     <g id="line2d_22">
      <g>
       <use style="stroke:#000000;stroke-width:0.6;" x="108.278014" xlink:href="#mc0243bac53" y="209.304044"/>
      </g>
     </g>
    </g>
    <g id="xtick_12">
     <g id="line2d_23">
      <path clip-path="url(#pc5316731de)" d="M 112.22113 209.304044 
L 112.22113 10.8 
" style="fill:none;stroke:#dddddd;stroke-linecap:square;stroke-width:0.5;"/>
     </g>
     <g id="line2d_24">
      <g>
       <use style="stroke:#000000;stroke-width:0.6;" x="112.22113" xlink:href="#mc0243bac53" y="209.304044"/>
      </g>
     </g>
    </g>
    <g id="xtick_13">
     <g id="line2d_25">
      <path clip-path="url(#pc5316731de)" d="M 115.699205 209.304044 
L 115.699205 10.8 
" style="fill:none;stroke:#dddddd;stroke-linecap:square;stroke-width:0.5;"/>
     </g>
     <g id="line2d_26">
      <g>
       <use style="stroke:#000000;stroke-width:0.6;" x="115.699205" xlink:href="#mc0243bac53" y="209.304044"/>
      </g>
     </g>
    </g>
    <g id="xtick_14">
     <g id="line2d_27">
      <path clip-path="url(#pc5316731de)" d="M 139.278742 209.304044 
L 139.278742 10.8 
" style="fill:none;stroke:#dddddd;stroke-linecap:square;stroke-width:0.5;"/>
     </g>
     <g id="line2d_28">
      <g>
       <use style="stroke:#000000;stroke-width:0.6;" x="139.278742" xlink:href="#mc0243bac53" y="209.304044"/>
      </g>
     </g>
    </g>
    <g id="xtick_15">
     <g id="line2d_29">
      <path clip-path="url(#pc5316731de)" d="M 151.251927 209.304044 
L 151.251927 10.8 
" style="fill:none;stroke:#dddddd;stroke-linecap:square;stroke-width:0.5;"/>
     </g>
     <g id="line2d_30">
      <g>
       <use style="stroke:#000000;stroke-width:0.6;" x="151.251927" xlink:href="#mc0243bac53" y="209.304044"/>
      </g>
     </g>
    </g>
    <g id="xtick_16">
     <g id="line2d_31">
      <path clip-path="url(#pc5316731de)" d="M 159.747036 209.304044 
L 159.747036 10.8 
" style="fill:none;stroke:#dddddd;stroke-linecap:square;stroke-width:0.5;"/>
     </g>
     <g id="line2d_32">
      <g>
       <use style="stroke:#000000;stroke-width:0.6;" x="159.747036" xlink:href="#mc0243bac53" y="209.304044"/>
      </g>
     </g>
    </g>
    <g id="xtick_17">
     <g id="line2d_33">
      <path clip-path="url(#pc5316731de)" d="M 166.336355 209.304044 
L 166.336355 10.8 
" style="fill:none;stroke:#dddddd;stroke-linecap:square;stroke-width:0.5;"/>
     </g>
     <g id="line2d_34">
      <g>
       <use style="stroke:#000000;stroke-width:0.6;" x="166.336355" xlink:href="#mc0243bac53" y="209.304044"/>
      </g>
     </g>
    </g>
    <g id="xtick_18">
     <g id="line2d_35">
      <path clip-path="url(#pc5316731de)" d="M 171.72022 209.304044 
L 171.72022 10.8 
" style="fill:none;stroke:#dddddd;stroke-linecap:square;stroke-width:0.5;"/>
     </g>
     <g id="line2d_36">
      <g>
       <use style="stroke:#000000;stroke-width:0.6;" x="171.72022" xlink:href="#mc0243bac53" y="209.304044"/>
      </g>
     </g>
    </g>
    <g id="xtick_19">
     <g id="line2d_37">
      <path clip-path="url(#pc5316731de)" d="M 176.272213 209.304044 
L 176.272213 10.8 
" style="fill:none;stroke:#dddddd;stroke-linecap:square;stroke-width:0.5;"/>
     </g>
     <g id="line2d_38">
      <g>
       <use style="stroke:#000000;stroke-width:0.6;" x="176.272213" xlink:href="#mc0243bac53" y="209.304044"/>
      </g>
     </g>
    </g>
    <g id="xtick_20">
     <g id="line2d_39">
      <path clip-path="url(#pc5316731de)" d="M 180.215329 209.304044 
L 180.215329 10.8 
" style="fill:none;stroke:#dddddd;stroke-linecap:square;stroke-width:0.5;"/>
     </g>
     <g id="line2d_40">
      <g>
       <use style="stroke:#000000;stroke-width:0.6;" x="180.215329" xlink:href="#mc0243bac53" y="209.304044"/>
      </g>
     </g>
    </g>
    <g id="xtick_21">
     <g id="line2d_41">
      <path clip-path="url(#pc5316731de)" d="M 183.693404 209.304044 
L 183.693404 10.8 
" style="fill:none;stroke:#dddddd;stroke-linecap:square;stroke-width:0.5;"/>
     </g>
     <g id="line2d_42">
      <g>
       <use style="stroke:#000000;stroke-width:0.6;" x="183.693404" xlink:href="#mc0243bac53" y="209.304044"/>
      </g>
     </g>
    </g>
    <g id="xtick_22">
     <g id="line2d_43">
      <path clip-path="url(#pc5316731de)" d="M 207.272941 209.304044 
L 207.272941 10.8 
" style="fill:none;stroke:#dddddd;stroke-linecap:square;stroke-width:0.5;"/>
     </g>
     <g id="line2d_44">
      <g>
       <use style="stroke:#000000;stroke-width:0.6;" x="207.272941" xlink:href="#mc0243bac53" y="209.304044"/>
      </g>
     </g>
    </g>
    <g id="xtick_23">
     <g id="line2d_45">
      <path clip-path="url(#pc5316731de)" d="M 219.246126 209.304044 
L 219.246126 10.8 
" style="fill:none;stroke:#dddddd;stroke-linecap:square;stroke-width:0.5;"/>
     </g>
     <g id="line2d_46">
      <g>
       <use style="stroke:#000000;stroke-width:0.6;" x="219.246126" xlink:href="#mc0243bac53" y="209.304044"/>
      </g>
     </g>
    </g>
    <g id="xtick_24">
     <g id="line2d_47">
      <path clip-path="url(#pc5316731de)" d="M 227.741235 209.304044 
L 227.741235 10.8 
" style="fill:none;stroke:#dddddd;stroke-linecap:square;stroke-width:0.5;"/>
     </g>
     <g id="line2d_48">
      <g>
       <use style="stroke:#000000;stroke-width:0.6;" x="227.741235" xlink:href="#mc0243bac53" y="209.304044"/>
      </g>
     </g>
    </g>
    <g id="xtick_25">
     <g id="line2d_49">
      <path clip-path="url(#pc5316731de)" d="M 234.330554 209.304044 
L 234.330554 10.8 
" style="fill:none;stroke:#dddddd;stroke-linecap:square;stroke-width:0.5;"/>
     </g>
     <g id="line2d_50">
      <g>
       <use style="stroke:#000000;stroke-width:0.6;" x="234.330554" xlink:href="#mc0243bac53" y="209.304044"/>
      </g>
     </g>
    </g>
    <g id="xtick_26">
     <g id="line2d_51">
      <path clip-path="url(#pc5316731de)" d="M 239.714419 209.304044 
L 239.714419 10.8 
" style="fill:none;stroke:#dddddd;stroke-linecap:square;stroke-width:0.5;"/>
     </g>
     <g id="line2d_52">
      <g>
       <use style="stroke:#000000;stroke-width:0.6;" x="239.714419" xlink:href="#mc0243bac53" y="209.304044"/>
      </g>
     </g>
    </g>
    <g id="xtick_27">
     <g id="line2d_53">
      <path clip-path="url(#pc5316731de)" d="M 244.266412 209.304044 
L 244.266412 10.8 
" style="fill:none;stroke:#dddddd;stroke-linecap:square;stroke-width:0.5;"/>
     </g>
     <g id="line2d_54">
      <g>
       <use style="stroke:#000000;stroke-width:0.6;" x="244.266412" xlink:href="#mc0243bac53" y="209.304044"/>
      </g>
     </g>
    </g>
    <g id="xtick_28">
     <g id="line2d_55">
      <path clip-path="url(#pc5316731de)" d="M 248.209528 209.304044 
L 248.209528 10.8 
" style="fill:none;stroke:#dddddd;stroke-linecap:square;stroke-width:0.5;"/>
     </g>
     <g id="line2d_56">
      <g>
       <use style="stroke:#000000;stroke-width:0.6;" x="248.209528" xlink:href="#mc0243bac53" y="209.304044"/>
      </g>
     </g>
    </g>
    <g id="xtick_29">
     <g id="line2d_57">
      <path clip-path="url(#pc5316731de)" d="M 251.687603 209.304044 
L 251.687603 10.8 
" style="fill:none;stroke:#dddddd;stroke-linecap:square;stroke-width:0.5;"/>
     </g>
     <g id="line2d_58">
      <g>
       <use style="stroke:#000000;stroke-width:0.6;" x="251.687603" xlink:href="#mc0243bac53" y="209.304044"/>
      </g>
     </g>
    </g>
    <g id="xtick_30">
     <g id="line2d_59">
      <path clip-path="url(#pc5316731de)" d="M 275.26714 209.304044 
L 275.26714 10.8 
" style="fill:none;stroke:#dddddd;stroke-linecap:square;stroke-width:0.5;"/>
     </g>
     <g id="line2d_60">
      <g>
       <use style="stroke:#000000;stroke-width:0.6;" x="275.26714" xlink:href="#mc0243bac53" y="209.304044"/>
      </g>
     </g>
    </g>
    <g id="xtick_31">
     <g id="line2d_61">
      <path clip-path="url(#pc5316731de)" d="M 287.240324 209.304044 
L 287.240324 10.8 
" style="fill:none;stroke:#dddddd;stroke-linecap:square;stroke-width:0.5;"/>
     </g>
     <g id="line2d_62">
      <g>
       <use style="stroke:#000000;stroke-width:0.6;" x="287.240324" xlink:href="#mc0243bac53" y="209.304044"/>
      </g>
     </g>
    </g>
    <g id="xtick_32">
     <g id="line2d_63">
      <path clip-path="url(#pc5316731de)" d="M 295.735434 209.304044 
L 295.735434 10.8 
" style="fill:none;stroke:#dddddd;stroke-linecap:square;stroke-width:0.5;"/>
     </g>
     <g id="line2d_64">
      <g>
       <use style="stroke:#000000;stroke-width:0.6;" x="295.735434" xlink:href="#mc0243bac53" y="209.304044"/>
      </g>
     </g>
    </g>
    <g id="xtick_33">
     <g id="line2d_65">
      <path clip-path="url(#pc5316731de)" d="M 302.324753 209.304044 
L 302.324753 10.8 
" style="fill:none;stroke:#dddddd;stroke-linecap:square;stroke-width:0.5;"/>
     </g>
     <g id="line2d_66">
      <g>
       <use style="stroke:#000000;stroke-width:0.6;" x="302.324753" xlink:href="#mc0243bac53" y="209.304044"/>
      </g>
     </g>
    </g>
    <g id="xtick_34">
     <g id="line2d_67">
      <path clip-path="url(#pc5316731de)" d="M 307.708618 209.304044 
L 307.708618 10.8 
" style="fill:none;stroke:#dddddd;stroke-linecap:square;stroke-width:0.5;"/>
     </g>
     <g id="line2d_68">
      <g>
       <use style="stroke:#000000;stroke-width:0.6;" x="307.708618" xlink:href="#mc0243bac53" y="209.304044"/>
      </g>
     </g>
    </g>
    <g id="xtick_35">
     <g id="line2d_69">
      <path clip-path="url(#pc5316731de)" d="M 312.260611 209.304044 
L 312.260611 10.8 
" style="fill:none;stroke:#dddddd;stroke-linecap:square;stroke-width:0.5;"/>
     </g>
     <g id="line2d_70">
      <g>
       <use style="stroke:#000000;stroke-width:0.6;" x="312.260611" xlink:href="#mc0243bac53" y="209.304044"/>
      </g>
     </g>
    </g>
    <g id="xtick_36">
     <g id="line2d_71">
      <path clip-path="url(#pc5316731de)" d="M 316.203727 209.304044 
L 316.203727 10.8 
" style="fill:none;stroke:#dddddd;stroke-linecap:square;stroke-width:0.5;"/>
     </g>
     <g id="line2d_72">
      <g>
       <use style="stroke:#000000;stroke-width:0.6;" x="316.203727" xlink:href="#mc0243bac53" y="209.304044"/>
      </g>
     </g>
    </g>
    <g id="xtick_37">
     <g id="line2d_73">
      <path clip-path="url(#pc5316731de)" d="M 319.681802 209.304044 
L 319.681802 10.8 
" style="fill:none;stroke:#dddddd;stroke-linecap:square;stroke-width:0.5;"/>
     </g>
     <g id="line2d_74">
      <g>
       <use style="stroke:#000000;stroke-width:0.6;" x="319.681802" xlink:href="#mc0243bac53" y="209.304044"/>
      </g>
     </g>
    </g>
    <g id="text_6">
     <!-- rate $\gamma$ [$\textrm{ns}^{-1}$] -->
     <defs>
      <path d="M 15 23.703125 
C 15 33.34375 19.09375 42.390625 26.59375 42.390625 
C 27.296875 42.390625 28 42.296875 28.703125 41.984375 
C 28.703125 41.984375 26.5 41.28125 26.5 38.671875 
C 26.5 36.265625 28.40625 35.265625 29.90625 35.265625 
C 31.09375 35.265625 33.296875 35.96875 33.296875 38.78125 
C 33.296875 41.984375 30.09375 44 26.703125 44 
C 19.09375 44 15.796875 36.5625 14.796875 33.046875 
L 14.703125 33.046875 
L 14.703125 44 
L 3.09375 42.890625 
L 3.09375 40.28125 
C 9 40.28125 9.90625 39.6875 9.90625 34.859375 
L 9.90625 6.921875 
C 9.90625 3.09375 9.5 2.59375 3.09375 2.59375 
L 3.09375 0 
C 5.5 0.1875 10.09375 0.1875 12.703125 0.1875 
C 15.59375 0.1875 20.703125 0.1875 23.40625 0 
L 23.40625 2.59375 
C 16.203125 2.59375 15 2.59375 15 7.109375 
z
" id="CMR17-114"/>
      <path d="M 36 25.875 
C 36 32 36 35.546875 31.796875 39.59375 
C 28.09375 42.984375 23.796875 44 20.40625 44 
C 12.5 44 6.796875 37.625 6.796875 30.890625 
C 6.796875 27.1875 9.796875 27 10.40625 27 
C 11.703125 27 14 27.796875 14 30.59375 
C 14 33.09375 12.09375 34.1875 10.40625 34.1875 
C 10 34.1875 9.5 34.09375 9.203125 34 
C 11.296875 40.53125 16.703125 42.390625 20.203125 42.390625 
C 25.203125 42.390625 30.703125 37.828125 30.703125 29.296875 
L 30.703125 25.5 
C 24.796875 25.296875 17.703125 24.5 12.09375 21.453125 
C 5.796875 17.921875 4 12.84375 4 9 
C 4 1.203125 13 -1 18.296875 -1 
C 23.796875 -1 28.90625 2.109375 31.09375 7.890625 
C 31.296875 3.421875 34.09375 -0.609375 38.5 -0.609375 
C 40.59375 -0.609375 45.90625 0.796875 45.90625 8.796875 
L 45.90625 14.46875 
L 44.09375 14.46875 
L 44.09375 8.703125 
C 44.09375 2.515625 41.40625 1.703125 40.09375 1.703125 
C 36 1.703125 36 6.96875 36 11.4375 
z
M 30.703125 13.859375 
C 30.703125 5.046875 24.5 0.59375 19 0.59375 
C 14 0.59375 10.09375 4.34375 10.09375 9 
C 10.09375 12.046875 11.40625 17.40625 17.203125 20.65625 
C 22 23.390625 27.5 23.796875 30.703125 24 
z
" id="CMR17-97"/>
      <path d="M 15.09375 40.390625 
L 29.09375 40.390625 
L 29.09375 43 
L 15.09375 43 
L 15.09375 62 
L 13.296875 62 
C 13.09375 51.4375 9.59375 42.1875 1.09375 41.984375 
L 1.09375 40.390625 
L 9.796875 40.390625 
L 9.796875 12.15625 
C 9.796875 10.234375 9.796875 -1 21.40625 -1 
C 27.296875 -1 30.703125 4.8125 30.703125 12.25 
L 30.703125 17.984375 
L 28.90625 17.984375 
L 28.90625 12.34375 
C 28.90625 5.421875 26.203125 0.796875 22 0.796875 
C 19.09375 0.796875 15.09375 2.796875 15.09375 11.953125 
z
" id="CMR17-116"/>
      <path d="M 38.09375 23.484375 
C 38.5 23.890625 38.5 24.09375 38.5 25.09375 
C 38.5 35.171875 33.09375 44 21.703125 44 
C 11.09375 44 2.703125 33.984375 2.703125 21.78125 
C 2.703125 8.65625 12.203125 -1 22.796875 -1 
C 34 -1 38.40625 9.671875 38.40625 11.796875 
C 38.40625 12.5 37.796875 12.5 37.59375 12.5 
C 36.90625 12.5 36.796875 12.296875 36.40625 11.078125 
C 34.203125 4.21875 28.703125 0.796875 23.5 0.796875 
C 19.203125 0.796875 14.90625 3.21875 12.203125 7.65625 
C 9.09375 12.796875 9.09375 18.75 9.09375 23.484375 
z
M 9.203125 25 
C 9.90625 39.234375 17.59375 42.390625 21.59375 42.390625 
C 28.40625 42.390625 33 36.0625 33.09375 25 
z
" id="CMR17-101"/>
      <path d="M 37.796875 12.265625 
C 37.59375 17.140625 37.40625 24.78125 33.59375 33.71875 
C 31.59375 38.6875 28.203125 44 20.90625 44 
C 8.59375 44 1.90625 28.359375 1.90625 25.765625 
C 1.90625 24.875 2.59375 24.875 2.90625 24.875 
C 3.796875 24.875 3.796875 25.078125 4.296875 26.375 
C 6.40625 32.515625 12.796875 37.390625 19.703125 37.390625 
C 33.59375 37.390625 35.59375 22 35.59375 12.171875 
C 35.59375 5.90625 34.90625 3.828125 34.296875 1.84375 
C 32.40625 -4.3125 29.09375 -16.625 29.09375 -19.40625 
C 29.09375 -20.203125 29.40625 -21.109375 30.203125 -21.109375 
C 31.703125 -21.109375 32.59375 -17.8125 33.703125 -13.84375 
C 36.09375 -5.109375 36.703125 -0.734375 37.203125 3.234375 
C 37.5 5.625 43.203125 22.015625 51.09375 37.609375 
C 51.796875 39.203125 53.203125 41.890625 53.203125 42.1875 
C 53.203125 42.296875 53.09375 43 52.203125 43 
C 52 43 51.5 43 51.296875 42.59375 
C 51.09375 42.390625 47.59375 35.625 44.59375 28.875 
C 43.09375 25.46875 41.09375 21 37.796875 12.265625 
z
" id="CMMI12-13"/>
      <path d="M 23.5 -25 
L 23.5 -21.5 
L 14.09375 -21.5 
L 14.09375 71.484375 
L 23.5 71.484375 
L 23.5 75 
L 10.59375 75 
L 10.59375 -25 
z
" id="CMR17-91"/>
      <path d="M 41.5 30.53125 
C 41.5 35.65625 40.5 44 28.703125 44 
C 20.796875 44 16.703125 37.875 15.203125 33.84375 
L 15.09375 33.84375 
L 15.09375 44 
L 3.296875 42.890625 
L 3.296875 40.28125 
C 9.203125 40.28125 10.09375 39.6875 10.09375 34.859375 
L 10.09375 6.921875 
C 10.09375 3.09375 9.703125 2.59375 3.296875 2.59375 
L 3.296875 0 
C 5.703125 0.1875 10.09375 0.1875 12.703125 0.1875 
C 15.296875 0.1875 19.796875 0.1875 22.203125 0 
L 22.203125 2.59375 
C 15.796875 2.59375 15.40625 3 15.40625 6.921875 
L 15.40625 26.21875 
C 15.40625 35.453125 21 42.390625 28 42.390625 
C 35.40625 42.390625 36.203125 35.765625 36.203125 30.9375 
L 36.203125 6.921875 
C 36.203125 3.09375 35.796875 2.59375 29.40625 2.59375 
L 29.40625 0 
C 31.796875 0.1875 36.203125 0.1875 38.796875 0.1875 
C 41.40625 0.1875 45.90625 0.1875 48.296875 0 
L 48.296875 2.59375 
C 41.90625 2.59375 41.5 3 41.5 6.921875 
z
" id="CMR17-110"/>
      <path d="M 30.90625 42 
C 30.90625 43.796875 30.796875 43.890625 30.203125 43.890625 
C 29.796875 43.890625 29.703125 43.796875 28.5 42.296875 
C 28.203125 41.890625 27.296875 40.890625 27 40.5 
C 23.796875 43.890625 19.296875 44 17.59375 44 
C 6.5 44 2.5 38.1875 2.5 32.390625 
C 2.5 23.390625 12.703125 21.296875 15.59375 20.6875 
C 21.90625 19.390625 24.09375 19 26.203125 17.1875 
C 27.5 16 29.703125 13.796875 29.703125 10.1875 
C 29.703125 6 27.296875 0.59375 18.09375 0.59375 
C 9.40625 0.59375 6.296875 7.1875 4.5 16 
C 4.203125 17.390625 4.203125 17.5 3.40625 17.5 
C 2.59375 17.5 2.5 17.390625 2.5 15.390625 
L 2.5 1 
C 2.5 -0.8125 2.59375 -0.90625 3.203125 -0.90625 
C 3.703125 -0.90625 3.796875 -0.8125 4.296875 0 
C 4.90625 0.890625 6.40625 3.296875 7 4.296875 
C 9 1.59375 12.5 -1 18.09375 -1 
C 28 -1 33.296875 4.390625 33.296875 12.1875 
C 33.296875 17.296875 30.59375 20 29.296875 21.1875 
C 26.296875 24.296875 22.796875 25 18.59375 25.796875 
C 13.09375 27 6.09375 28.390625 6.09375 34.5 
C 6.09375 37.09375 7.5 42.59375 17.59375 42.59375 
C 28.296875 42.59375 28.90625 32.59375 29.09375 29.390625 
C 29.203125 28.890625 29.703125 28.796875 30 28.796875 
C 30.90625 28.796875 30.90625 29.09375 30.90625 30.796875 
z
" id="CMR17-115"/>
      <path d="M 14.296875 75 
L 1.40625 75 
L 1.40625 71.484375 
L 10.796875 71.484375 
L 10.796875 -21.5 
L 1.40625 -21.5 
L 1.40625 -25 
L 14.296875 -25 
z
" id="CMR17-93"/>
     </defs>
     <g transform="translate(159.187578 237.26934)scale(0.1 -0.1)">
      <use transform="scale(0.996264)" xlink:href="#CMR17-114"/>
      <use transform="translate(35.280768 0)scale(0.996264)" xlink:href="#CMR17-97"/>
      <use transform="translate(80.971245 0)scale(0.996264)" xlink:href="#CMR17-116"/>
      <use transform="translate(116.252013 0)scale(0.996264)" xlink:href="#CMR17-101"/>
      <use transform="translate(186.81364 0)scale(0.996264)" xlink:href="#CMMI12-13"/>
      <use transform="translate(272.908174 0)scale(0.996264)" xlink:href="#CMR17-91"/>
      <use transform="translate(297.779232 0)scale(0.996264)" xlink:href="#CMR17-110"/>
      <use transform="translate(348.674602 0)scale(0.996264)" xlink:href="#CMR17-115"/>
      <use transform="translate(384.47594 36.153639)scale(0.697382)" xlink:href="#CMSY10-0"/>
      <use transform="translate(438.716933 36.153639)scale(0.697382)" xlink:href="#CMR17-49"/>
      <use transform="translate(471.198247 0)scale(0.996264)" xlink:href="#CMR17-93"/>
     </g>
    </g>
   </g>
   <g id="matplotlib.axis_2">
    <g id="ytick_1">
     <g id="line2d_75">
      <path clip-path="url(#pc5316731de)" d="M 50.81625 174.010446 
L 322.793046 174.010446 
" style="fill:none;stroke:#dddddd;stroke-linecap:square;stroke-width:0.5;"/>
     </g>
     <g id="line2d_76">
      <defs>
       <path d="M 0 0 
L -3.5 0 
" id="mfd2ddcc1fb" style="stroke:#000000;stroke-width:0.8;"/>
      </defs>
      <g>
       <use style="stroke:#000000;stroke-width:0.8;" x="50.81625" xlink:href="#mfd2ddcc1fb" y="174.010446"/>
      </g>
     </g>
     <g id="text_7">
      <!-- $\mathdefault{10^{-4}}$ -->
      <defs>
       <path d="M 33.59375 64.796875 
C 33.59375 66.890625 33.5 67 31.703125 67 
L 2 19.59375 
L 2 17 
L 27.796875 17 
L 27.796875 7.1875 
C 27.796875 3.59375 27.59375 2.59375 20.59375 2.59375 
L 18.703125 2.59375 
L 18.703125 0 
C 21.90625 0.1875 27.296875 0.1875 30.703125 0.1875 
C 34.09375 0.1875 39.5 0.1875 42.703125 0 
L 42.703125 2.59375 
L 40.796875 2.59375 
C 33.796875 2.59375 33.59375 3.59375 33.59375 7.1875 
L 33.59375 17 
L 43.796875 17 
L 43.796875 19.59375 
L 33.59375 19.59375 
z
M 28.09375 58.171875 
L 28.09375 19.59375 
L 4 19.59375 
z
" id="CMR17-52"/>
      </defs>
      <g transform="translate(23.655677 177.469695)scale(0.1 -0.1)">
       <use transform="scale(0.996264)" xlink:href="#CMR17-49"/>
       <use transform="translate(45.690477 0)scale(0.996264)" xlink:href="#CMR17-48"/>
       <use transform="translate(91.380954 36.153639)scale(0.697382)" xlink:href="#CMSY10-0"/>
       <use transform="translate(145.621947 36.153639)scale(0.697382)" xlink:href="#CMR17-52"/>
      </g>
     </g>
    </g>
    <g id="ytick_2">
     <g id="line2d_77">
      <path clip-path="url(#pc5316731de)" d="M 50.81625 110.737902 
L 322.793046 110.737902 
" style="fill:none;stroke:#dddddd;stroke-linecap:square;stroke-width:0.5;"/>
     </g>
     <g id="line2d_78">
      <g>
       <use style="stroke:#000000;stroke-width:0.8;" x="50.81625" xlink:href="#mfd2ddcc1fb" y="110.737902"/>
      </g>
     </g>
     <g id="text_8">
      <!-- $\mathdefault{10^{-3}}$ -->
      <g transform="translate(23.655677 114.197152)scale(0.1 -0.1)">
       <use transform="scale(0.996264)" xlink:href="#CMR17-49"/>
       <use transform="translate(45.690477 0)scale(0.996264)" xlink:href="#CMR17-48"/>
       <use transform="translate(91.380954 36.153639)scale(0.697382)" xlink:href="#CMSY10-0"/>
       <use transform="translate(145.621947 36.153639)scale(0.697382)" xlink:href="#CMR17-51"/>
      </g>
     </g>
    </g>
    <g id="ytick_3">
     <g id="line2d_79">
      <path clip-path="url(#pc5316731de)" d="M 50.81625 47.465359 
L 322.793046 47.465359 
" style="fill:none;stroke:#dddddd;stroke-linecap:square;stroke-width:0.5;"/>
     </g>
     <g id="line2d_80">
      <g>
       <use style="stroke:#000000;stroke-width:0.8;" x="50.81625" xlink:href="#mfd2ddcc1fb" y="47.465359"/>
      </g>
     </g>
     <g id="text_9">
      <!-- $\mathdefault{10^{-2}}$ -->
      <g transform="translate(23.655677 50.924608)scale(0.1 -0.1)">
       <use transform="scale(0.996264)" xlink:href="#CMR17-49"/>
       <use transform="translate(45.690477 0)scale(0.996264)" xlink:href="#CMR17-48"/>
       <use transform="translate(91.380954 36.153639)scale(0.697382)" xlink:href="#CMSY10-0"/>
       <use transform="translate(145.621947 36.153639)scale(0.697382)" xlink:href="#CMR17-50"/>
      </g>
     </g>
    </g>
    <g id="ytick_4">
     <g id="line2d_81">
      <path clip-path="url(#pc5316731de)" d="M 50.81625 207.094315 
L 322.793046 207.094315 
" style="fill:none;stroke:#dddddd;stroke-linecap:square;stroke-width:0.5;"/>
     </g>
     <g id="line2d_82">
      <defs>
       <path d="M 0 0 
L -2 0 
" id="m3c8eb34f3b" style="stroke:#000000;stroke-width:0.6;"/>
      </defs>
      <g>
       <use style="stroke:#000000;stroke-width:0.6;" x="50.81625" xlink:href="#m3c8eb34f3b" y="207.094315"/>
      </g>
     </g>
    </g>
    <g id="ytick_5">
     <g id="line2d_83">
      <path clip-path="url(#pc5316731de)" d="M 50.81625 199.189123 
L 322.793046 199.189123 
" style="fill:none;stroke:#dddddd;stroke-linecap:square;stroke-width:0.5;"/>
     </g>
     <g id="line2d_84">
      <g>
       <use style="stroke:#000000;stroke-width:0.6;" x="50.81625" xlink:href="#m3c8eb34f3b" y="199.189123"/>
      </g>
     </g>
    </g>
    <g id="ytick_6">
     <g id="line2d_85">
      <path clip-path="url(#pc5316731de)" d="M 50.81625 193.05738 
L 322.793046 193.05738 
" style="fill:none;stroke:#dddddd;stroke-linecap:square;stroke-width:0.5;"/>
     </g>
     <g id="line2d_86">
      <g>
       <use style="stroke:#000000;stroke-width:0.6;" x="50.81625" xlink:href="#m3c8eb34f3b" y="193.05738"/>
      </g>
     </g>
    </g>
    <g id="ytick_7">
     <g id="line2d_87">
      <path clip-path="url(#pc5316731de)" d="M 50.81625 188.047381 
L 322.793046 188.047381 
" style="fill:none;stroke:#dddddd;stroke-linecap:square;stroke-width:0.5;"/>
     </g>
     <g id="line2d_88">
      <g>
       <use style="stroke:#000000;stroke-width:0.6;" x="50.81625" xlink:href="#m3c8eb34f3b" y="188.047381"/>
      </g>
     </g>
    </g>
    <g id="ytick_8">
     <g id="line2d_89">
      <path clip-path="url(#pc5316731de)" d="M 50.81625 183.811487 
L 322.793046 183.811487 
" style="fill:none;stroke:#dddddd;stroke-linecap:square;stroke-width:0.5;"/>
     </g>
     <g id="line2d_90">
      <g>
       <use style="stroke:#000000;stroke-width:0.6;" x="50.81625" xlink:href="#m3c8eb34f3b" y="183.811487"/>
      </g>
     </g>
    </g>
    <g id="ytick_9">
     <g id="line2d_91">
      <path clip-path="url(#pc5316731de)" d="M 50.81625 180.142189 
L 322.793046 180.142189 
" style="fill:none;stroke:#dddddd;stroke-linecap:square;stroke-width:0.5;"/>
     </g>
     <g id="line2d_92">
      <g>
       <use style="stroke:#000000;stroke-width:0.6;" x="50.81625" xlink:href="#m3c8eb34f3b" y="180.142189"/>
      </g>
     </g>
    </g>
    <g id="ytick_10">
     <g id="line2d_93">
      <path clip-path="url(#pc5316731de)" d="M 50.81625 176.905639 
L 322.793046 176.905639 
" style="fill:none;stroke:#dddddd;stroke-linecap:square;stroke-width:0.5;"/>
     </g>
     <g id="line2d_94">
      <g>
       <use style="stroke:#000000;stroke-width:0.6;" x="50.81625" xlink:href="#m3c8eb34f3b" y="176.905639"/>
      </g>
     </g>
    </g>
    <g id="ytick_11">
     <g id="line2d_95">
      <path clip-path="url(#pc5316731de)" d="M 50.81625 154.963513 
L 322.793046 154.963513 
" style="fill:none;stroke:#dddddd;stroke-linecap:square;stroke-width:0.5;"/>
     </g>
     <g id="line2d_96">
      <g>
       <use style="stroke:#000000;stroke-width:0.6;" x="50.81625" xlink:href="#m3c8eb34f3b" y="154.963513"/>
      </g>
     </g>
    </g>
    <g id="ytick_12">
     <g id="line2d_97">
      <path clip-path="url(#pc5316731de)" d="M 50.81625 143.821771 
L 322.793046 143.821771 
" style="fill:none;stroke:#dddddd;stroke-linecap:square;stroke-width:0.5;"/>
     </g>
     <g id="line2d_98">
      <g>
       <use style="stroke:#000000;stroke-width:0.6;" x="50.81625" xlink:href="#m3c8eb34f3b" y="143.821771"/>
      </g>
     </g>
    </g>
    <g id="ytick_13">
     <g id="line2d_99">
      <path clip-path="url(#pc5316731de)" d="M 50.81625 135.916579 
L 322.793046 135.916579 
" style="fill:none;stroke:#dddddd;stroke-linecap:square;stroke-width:0.5;"/>
     </g>
     <g id="line2d_100">
      <g>
       <use style="stroke:#000000;stroke-width:0.6;" x="50.81625" xlink:href="#m3c8eb34f3b" y="135.916579"/>
      </g>
     </g>
    </g>
    <g id="ytick_14">
     <g id="line2d_101">
      <path clip-path="url(#pc5316731de)" d="M 50.81625 129.784836 
L 322.793046 129.784836 
" style="fill:none;stroke:#dddddd;stroke-linecap:square;stroke-width:0.5;"/>
     </g>
     <g id="line2d_102">
      <g>
       <use style="stroke:#000000;stroke-width:0.6;" x="50.81625" xlink:href="#m3c8eb34f3b" y="129.784836"/>
      </g>
     </g>
    </g>
    <g id="ytick_15">
     <g id="line2d_103">
      <path clip-path="url(#pc5316731de)" d="M 50.81625 124.774837 
L 322.793046 124.774837 
" style="fill:none;stroke:#dddddd;stroke-linecap:square;stroke-width:0.5;"/>
     </g>
     <g id="line2d_104">
      <g>
       <use style="stroke:#000000;stroke-width:0.6;" x="50.81625" xlink:href="#m3c8eb34f3b" y="124.774837"/>
      </g>
     </g>
    </g>
    <g id="ytick_16">
     <g id="line2d_105">
      <path clip-path="url(#pc5316731de)" d="M 50.81625 120.538943 
L 322.793046 120.538943 
" style="fill:none;stroke:#dddddd;stroke-linecap:square;stroke-width:0.5;"/>
     </g>
     <g id="line2d_106">
      <g>
       <use style="stroke:#000000;stroke-width:0.6;" x="50.81625" xlink:href="#m3c8eb34f3b" y="120.538943"/>
      </g>
     </g>
    </g>
    <g id="ytick_17">
     <g id="line2d_107">
      <path clip-path="url(#pc5316731de)" d="M 50.81625 116.869645 
L 322.793046 116.869645 
" style="fill:none;stroke:#dddddd;stroke-linecap:square;stroke-width:0.5;"/>
     </g>
     <g id="line2d_108">
      <g>
       <use style="stroke:#000000;stroke-width:0.6;" x="50.81625" xlink:href="#m3c8eb34f3b" y="116.869645"/>
      </g>
     </g>
    </g>
    <g id="ytick_18">
     <g id="line2d_109">
      <path clip-path="url(#pc5316731de)" d="M 50.81625 113.633095 
L 322.793046 113.633095 
" style="fill:none;stroke:#dddddd;stroke-linecap:square;stroke-width:0.5;"/>
     </g>
     <g id="line2d_110">
      <g>
       <use style="stroke:#000000;stroke-width:0.6;" x="50.81625" xlink:href="#m3c8eb34f3b" y="113.633095"/>
      </g>
     </g>
    </g>
    <g id="ytick_19">
     <g id="line2d_111">
      <path clip-path="url(#pc5316731de)" d="M 50.81625 91.690969 
L 322.793046 91.690969 
" style="fill:none;stroke:#dddddd;stroke-linecap:square;stroke-width:0.5;"/>
     </g>
     <g id="line2d_112">
      <g>
       <use style="stroke:#000000;stroke-width:0.6;" x="50.81625" xlink:href="#m3c8eb34f3b" y="91.690969"/>
      </g>
     </g>
    </g>
    <g id="ytick_20">
     <g id="line2d_113">
      <path clip-path="url(#pc5316731de)" d="M 50.81625 80.549227 
L 322.793046 80.549227 
" style="fill:none;stroke:#dddddd;stroke-linecap:square;stroke-width:0.5;"/>
     </g>
     <g id="line2d_114">
      <g>
       <use style="stroke:#000000;stroke-width:0.6;" x="50.81625" xlink:href="#m3c8eb34f3b" y="80.549227"/>
      </g>
     </g>
    </g>
    <g id="ytick_21">
     <g id="line2d_115">
      <path clip-path="url(#pc5316731de)" d="M 50.81625 72.644035 
L 322.793046 72.644035 
" style="fill:none;stroke:#dddddd;stroke-linecap:square;stroke-width:0.5;"/>
     </g>
     <g id="line2d_116">
      <g>
       <use style="stroke:#000000;stroke-width:0.6;" x="50.81625" xlink:href="#m3c8eb34f3b" y="72.644035"/>
      </g>
     </g>
    </g>
    <g id="ytick_22">
     <g id="line2d_117">
      <path clip-path="url(#pc5316731de)" d="M 50.81625 66.512292 
L 322.793046 66.512292 
" style="fill:none;stroke:#dddddd;stroke-linecap:square;stroke-width:0.5;"/>
     </g>
     <g id="line2d_118">
      <g>
       <use style="stroke:#000000;stroke-width:0.6;" x="50.81625" xlink:href="#m3c8eb34f3b" y="66.512292"/>
      </g>
     </g>
    </g>
    <g id="ytick_23">
     <g id="line2d_119">
      <path clip-path="url(#pc5316731de)" d="M 50.81625 61.502293 
L 322.793046 61.502293 
" style="fill:none;stroke:#dddddd;stroke-linecap:square;stroke-width:0.5;"/>
     </g>
     <g id="line2d_120">
      <g>
       <use style="stroke:#000000;stroke-width:0.6;" x="50.81625" xlink:href="#m3c8eb34f3b" y="61.502293"/>
      </g>
     </g>
    </g>
    <g id="ytick_24">
     <g id="line2d_121">
      <path clip-path="url(#pc5316731de)" d="M 50.81625 57.2664 
L 322.793046 57.2664 
" style="fill:none;stroke:#dddddd;stroke-linecap:square;stroke-width:0.5;"/>
     </g>
     <g id="line2d_122">
      <g>
       <use style="stroke:#000000;stroke-width:0.6;" x="50.81625" xlink:href="#m3c8eb34f3b" y="57.2664"/>
      </g>
     </g>
    </g>
    <g id="ytick_25">
     <g id="line2d_123">
      <path clip-path="url(#pc5316731de)" d="M 50.81625 53.597102 
L 322.793046 53.597102 
" style="fill:none;stroke:#dddddd;stroke-linecap:square;stroke-width:0.5;"/>
     </g>
     <g id="line2d_124">
      <g>
       <use style="stroke:#000000;stroke-width:0.6;" x="50.81625" xlink:href="#m3c8eb34f3b" y="53.597102"/>
      </g>
     </g>
    </g>
    <g id="ytick_26">
     <g id="line2d_125">
      <path clip-path="url(#pc5316731de)" d="M 50.81625 50.360551 
L 322.793046 50.360551 
" style="fill:none;stroke:#dddddd;stroke-linecap:square;stroke-width:0.5;"/>
     </g>
     <g id="line2d_126">
      <g>
       <use style="stroke:#000000;stroke-width:0.6;" x="50.81625" xlink:href="#m3c8eb34f3b" y="50.360551"/>
      </g>
     </g>
    </g>
    <g id="ytick_27">
     <g id="line2d_127">
      <path clip-path="url(#pc5316731de)" d="M 50.81625 28.418425 
L 322.793046 28.418425 
" style="fill:none;stroke:#dddddd;stroke-linecap:square;stroke-width:0.5;"/>
     </g>
     <g id="line2d_128">
      <g>
       <use style="stroke:#000000;stroke-width:0.6;" x="50.81625" xlink:href="#m3c8eb34f3b" y="28.418425"/>
      </g>
     </g>
    </g>
    <g id="ytick_28">
     <g id="line2d_129">
      <path clip-path="url(#pc5316731de)" d="M 50.81625 17.276683 
L 322.793046 17.276683 
" style="fill:none;stroke:#dddddd;stroke-linecap:square;stroke-width:0.5;"/>
     </g>
     <g id="line2d_130">
      <g>
       <use style="stroke:#000000;stroke-width:0.6;" x="50.81625" xlink:href="#m3c8eb34f3b" y="17.276683"/>
      </g>
     </g>
    </g>
    <g id="text_10">
     <!-- conversion error $\epsilon$ -->
     <defs>
      <path d="M 34.90625 35 
C 33 35 30.203125 35 30.203125 31.484375 
C 30.203125 28.6875 32.5 27.890625 33.796875 27.890625 
C 34.5 27.890625 37.40625 28.1875 37.40625 31.6875 
C 37.40625 38.6875 30.59375 44 22.90625 44 
C 12.296875 44 3.296875 34.390625 3.296875 21.546875 
C 3.296875 8.140625 12.703125 -1 22.90625 -1 
C 35.296875 -1 38.40625 10.5625 38.40625 11.671875 
C 38.40625 12.078125 38.296875 12.375 37.59375 12.375 
C 36.90625 12.375 36.796875 12.28125 36.40625 10.96875 
C 33.796875 2.8125 28.09375 0.796875 23.796875 0.796875 
C 17.40625 0.796875 9.703125 6.734375 9.703125 21.640625 
C 9.703125 36.84375 17.09375 42.1875 23 42.1875 
C 26.90625 42.1875 32.703125 40.34375 34.90625 35 
z
" id="CMR17-99"/>
      <path d="M 43.09375 21.1875 
C 43.09375 34 33.796875 44 22.90625 44 
C 12 44 2.703125 34 2.703125 21.1875 
C 2.703125 8.59375 12 -1 22.90625 -1 
C 33.796875 -1 43.09375 8.59375 43.09375 21.1875 
z
M 22.90625 0.796875 
C 18.203125 0.796875 14.203125 3.59375 11.90625 7.5 
C 9.40625 12 9.09375 17.59375 9.09375 22 
C 9.09375 26.1875 9.296875 31.390625 11.90625 35.890625 
C 13.90625 39.1875 17.796875 42.390625 22.90625 42.390625 
C 27.40625 42.390625 31.203125 39.890625 33.59375 36.390625 
C 36.703125 31.6875 36.703125 25.09375 36.703125 22 
C 36.703125 18.09375 36.5 12.09375 33.796875 7.296875 
C 31 2.6875 26.703125 0.796875 22.90625 0.796875 
z
" id="CMR17-111"/>
      <path d="M 39.09375 33.953125 
C 40 36.171875 41.59375 40.1875 47.40625 40.390625 
L 47.40625 43 
C 45.5 42.890625 43 42.796875 41.09375 42.796875 
C 39 42.796875 35.703125 42.796875 33.703125 43 
L 33.703125 40.390625 
C 36.203125 40.1875 37.59375 38.984375 37.59375 36.375 
C 37.59375 35.46875 37.59375 35.265625 37 33.859375 
L 26 5.921875 
L 14.09375 36.0625 
C 13.5 37.375 13.5 37.578125 13.5 37.984375 
C 13.5 40.390625 16.796875 40.390625 18.296875 40.390625 
L 18.296875 43 
C 15.90625 42.796875 11.5 42.796875 9 42.796875 
C 6.296875 42.796875 3.203125 42.796875 1 43 
L 1 40.390625 
C 4.796875 40.390625 6.90625 40.390625 8.09375 37.28125 
L 22.59375 0.6875 
C 23.203125 -0.8125 23.296875 -1 24.203125 -1 
C 25.09375 -1 25.203125 -0.8125 25.796875 0.6875 
z
" id="CMR17-118"/>
      <path d="M 15.5 61.890625 
C 15.5 64.09375 13.703125 66 11.40625 66 
C 9.203125 66 7.296875 64.1875 7.296875 61.890625 
C 7.296875 59.6875 9.09375 57.796875 11.40625 57.796875 
C 13.59375 57.796875 15.5 59.59375 15.5 61.890625 
z
M 3.796875 42.890625 
L 3.796875 40.296875 
C 9.40625 40.296875 10.203125 39.6875 10.203125 34.859375 
L 10.203125 6.921875 
C 10.203125 3.09375 9.796875 2.59375 3.40625 2.59375 
L 3.40625 0 
C 5.796875 0.1875 10.09375 0.1875 12.59375 0.1875 
C 15 0.1875 19.09375 0.1875 21.40625 0 
L 21.40625 2.59375 
C 15.5 2.59375 15.296875 3.203125 15.296875 6.8125 
L 15.296875 44 
z
" id="CMR17-105"/>
      <path d="M 29.09375 23 
C 30.59375 23 32.296875 23 32.296875 24.59375 
C 32.296875 25.890625 31.296875 25.890625 29.5 25.890625 
L 13.296875 25.890625 
C 15.796875 34.75 21.703125 40.09375 30.59375 40.09375 
L 33.5 40.09375 
C 35.203125 40.09375 36.703125 40.09375 36.703125 41.6875 
C 36.703125 43 35.59375 43 33.796875 43 
L 30.40625 43 
C 18.09375 43 4.59375 33.375 4.59375 17.828125 
C 4.59375 6.5625 12.09375 -1 22 -1 
C 28.40625 -1 34.703125 3.015625 34.703125 4.03125 
C 34.703125 4.640625 34.40625 5.25 33.796875 5.25 
C 33.5 5.25 33.296875 5.15625 32.796875 4.75 
C 29 2.203125 25.296875 1 22.296875 1 
C 17 1 11.40625 4.546875 11.40625 14.375 
C 11.40625 16.296875 11.59375 18.9375 12.5 23 
z
" id="CMMI12-15"/>
     </defs>
     <g transform="translate(17.718498 148.548339)rotate(-90)scale(0.1 -0.1)">
      <use transform="scale(0.996264)" xlink:href="#CMR17-99"/>
      <use transform="translate(40.48566 0)scale(0.996264)" xlink:href="#CMR17-111"/>
      <use transform="translate(86.176138 0)scale(0.996264)" xlink:href="#CMR17-110"/>
      <use transform="translate(134.469053 0)scale(0.996264)" xlink:href="#CMR17-118"/>
      <use transform="translate(180.159515 0)scale(0.996264)" xlink:href="#CMR17-101"/>
      <use transform="translate(220.645176 0)scale(0.996264)" xlink:href="#CMR17-114"/>
      <use transform="translate(255.925944 0)scale(0.996264)" xlink:href="#CMR17-115"/>
      <use transform="translate(291.727281 0)scale(0.996264)" xlink:href="#CMR17-105"/>
      <use transform="translate(316.59834 0)scale(0.996264)" xlink:href="#CMR17-111"/>
      <use transform="translate(362.288817 0)scale(0.996264)" xlink:href="#CMR17-110"/>
      <use transform="translate(443.260153 0)scale(0.996264)" xlink:href="#CMR17-101"/>
      <use transform="translate(483.745813 0)scale(0.996264)" xlink:href="#CMR17-114"/>
      <use transform="translate(519.026581 0)scale(0.996264)" xlink:href="#CMR17-114"/>
      <use transform="translate(554.307349 0)scale(0.996264)" xlink:href="#CMR17-111"/>
      <use transform="translate(599.997826 0)scale(0.996264)" xlink:href="#CMR17-114"/>
      <use transform="translate(665.35456 0)scale(0.996264)" xlink:href="#CMMI12-15"/>
     </g>
    </g>
   </g>
   <g id="line2d_131">
    <path clip-path="url(#pc5316731de)" d="M 254.798847 42.131119 
L 250.719195 36.742695 
L 246.639543 37.345016 
L 242.559891 41.916389 
L 238.480239 39.688209 
L 234.400587 39.43106 
L 230.320935 37.856852 
L 226.241283 41.897424 
L 222.161631 38.279788 
L 218.08198 37.443474 
L 214.002328 37.988417 
L 209.922676 39.851771 
L 205.843024 36.921646 
L 201.763372 38.903495 
L 197.68372 36.553946 
L 193.604068 42.782747 
L 189.524416 44.731392 
L 185.444764 43.454189 
L 181.365112 40.484699 
L 177.28546 46.878237 
L 173.205808 46.694138 
L 169.126156 43.366873 
L 165.046504 45.157213 
L 160.966852 46.089709 
L 156.8872 45.166396 
L 152.807549 46.674489 
L 148.727897 47.33082 
L 144.648245 45.17603 
L 140.568593 47.121795 
L 136.488941 47.647123 
L 132.409289 46.87899 
L 128.329637 47.447239 
L 124.249985 47.630261 
L 120.170333 48.201564 
L 116.090681 47.921357 
L 112.011029 47.964948 
L 107.931377 48.370568 
L 103.851725 48.207915 
L 99.772073 48.606388 
L 95.692421 47.998613 
L 91.612769 48.369768 
L 87.533118 48.189582 
L 83.453466 48.748035 
L 79.373814 48.63175 
L 75.294162 48.502588 
L 71.21451 48.050774 
L 67.134858 48.45928 
L 63.055206 48.459034 
L 58.975554 48.754651 
L 54.895902 48.580314 
L 50.81625 48.348923 
" style="fill:none;stroke:#0088ff;stroke-linecap:square;stroke-width:1.5;"/>
   </g>
   <g id="line2d_132">
    <path clip-path="url(#pc5316731de)" d="M 254.798847 116.383236 
L 250.719195 121.620014 
L 246.639543 122.017757 
L 242.559891 112.940459 
L 238.480239 110.50405 
L 234.400587 111.806874 
L 230.320935 112.18448 
L 226.241283 124.164728 
L 222.161631 124.788685 
L 218.08198 135.729087 
L 214.002328 120.720027 
L 209.922676 131.285907 
L 205.843024 143.657365 
L 201.763372 133.33696 
L 197.68372 149.652302 
L 193.604068 135.88767 
L 189.524416 149.695541 
L 185.444764 139.680019 
L 181.365112 153.214632 
L 177.28546 158.463129 
L 173.205808 137.22655 
L 169.126156 166.237437 
L 165.046504 157.232837 
L 160.966852 155.651863 
L 156.8872 160.288979 
L 152.807549 169.216467 
L 148.727897 172.098423 
L 144.648245 163.830265 
L 140.568593 169.171959 
L 136.488941 166.706487 
L 132.409289 174.732881 
L 128.329637 164.778827 
L 124.249985 178.80869 
L 120.170333 171.747956 
L 116.090681 176.981871 
L 112.011029 176.963208 
L 107.931377 182.359719 
L 103.851725 180.474032 
L 99.772073 174.82878 
L 95.692421 185.167287 
L 91.612769 179.852247 
L 87.533118 179.130044 
L 83.453466 177.401575 
L 79.373814 179.21373 
L 75.294162 178.21239 
L 71.21451 181.377852 
L 67.134858 182.168158 
L 63.055206 182.516866 
L 58.975554 183.881994 
L 54.895902 184.938836 
L 50.81625 184.145777 
" style="fill:none;stroke:#dd5500;stroke-linecap:square;stroke-width:1.5;"/>
   </g>
   <g id="line2d_133">
    <path clip-path="url(#pc5316731de)" d="M 322.793046 47.004102 
L 320.073278 46.489788 
L 317.35351 47.848927 
L 314.633742 46.251895 
L 311.913974 46.695407 
L 309.194206 47.179175 
L 306.474438 46.92799 
L 303.75467 46.189432 
L 301.034902 44.939233 
L 298.315134 47.281909 
L 295.595366 46.421654 
L 292.875598 45.071265 
L 290.15583 45.810442 
L 287.436062 44.865466 
L 284.716295 43.050906 
L 281.996527 42.987054 
L 279.276759 46.027761 
L 276.556991 42.569114 
L 273.837223 42.243733 
L 271.117455 45.118208 
L 268.397687 43.744069 
L 265.677919 42.321372 
L 262.958151 40.549253 
L 260.238383 40.317396 
L 257.518615 41.344711 
L 254.798847 40.354465 
L 252.079079 40.871409 
L 249.359311 37.662706 
L 246.639543 39.60411 
L 243.919775 38.690111 
L 241.200007 36.205 
L 238.480239 34.09727 
L 235.760471 39.396668 
L 233.040703 37.523841 
L 230.320935 36.494603 
L 227.601167 36.936055 
L 224.881399 33.271632 
L 222.161631 36.282252 
L 219.441864 41.593155 
L 216.722096 33.539105 
L 214.002328 40.323283 
L 211.28256 37.630509 
L 208.562792 38.854925 
L 205.843024 39.70534 
L 203.123256 39.628412 
L 200.403488 40.610077 
L 197.68372 42.273983 
L 194.963952 39.442365 
L 192.244184 39.299786 
L 189.524416 42.298913 
L 186.804648 44.055373 
" style="fill:none;stroke:#0088ff;stroke-linecap:square;stroke-width:1.5;"/>
   </g>
   <g id="line2d_134">
    <path clip-path="url(#pc5316731de)" d="M 322.793046 148.691363 
L 320.073278 144.489512 
L 317.35351 143.634212 
L 314.633742 146.234399 
L 311.913974 135.303195 
L 309.194206 134.009274 
L 306.474438 137.968118 
L 303.75467 137.095639 
L 301.034902 130.358318 
L 298.315134 142.663713 
L 295.595366 133.292097 
L 292.875598 135.288864 
L 290.15583 130.985336 
L 287.436062 115.997297 
L 284.716295 121.899605 
L 281.996527 138.118241 
L 279.276759 139.709803 
L 276.556991 122.80333 
L 273.837223 120.890803 
L 271.117455 119.656962 
L 268.397687 121.477272 
L 265.677919 142.749479 
L 262.958151 132.114953 
L 260.238383 116.510718 
L 257.518615 120.666803 
L 254.798847 118.319493 
L 252.079079 130.490045 
L 249.359311 116.595383 
L 246.639543 118.424579 
L 243.919775 126.514964 
L 241.200007 129.235221 
L 238.480239 121.333574 
L 235.760471 112.696617 
L 233.040703 131.624665 
L 230.320935 142.140161 
L 227.601167 121.74789 
L 224.881399 129.818324 
L 222.161631 141.05461 
L 219.441864 125.452499 
L 216.722096 129.266303 
L 214.002328 124.924255 
L 211.28256 126.633947 
L 208.562792 131.226257 
L 205.843024 148.307097 
L 203.123256 141.262601 
L 200.403488 149.739001 
L 197.68372 143.506882 
L 194.963952 138.755893 
L 192.244184 154.354924 
L 189.524416 147.134968 
L 186.804648 141.158103 
" style="fill:none;stroke:#dd5500;stroke-linecap:square;stroke-width:1.5;"/>
   </g>
   <g id="patch_3">
    <path d="M 50.81625 209.304044 
L 50.81625 10.8 
" style="fill:none;stroke:#000000;stroke-linecap:square;stroke-linejoin:miter;stroke-width:0.8;"/>
   </g>
   <g id="patch_4">
    <path d="M 322.793046 209.304044 
L 322.793046 10.8 
" style="fill:none;stroke:#000000;stroke-linecap:square;stroke-linejoin:miter;stroke-width:0.8;"/>
   </g>
   <g id="patch_5">
    <path d="M 50.81625 209.304044 
L 322.793046 209.304044 
" style="fill:none;stroke:#000000;stroke-linecap:square;stroke-linejoin:miter;stroke-width:0.8;"/>
   </g>
   <g id="patch_6">
    <path d="M 50.81625 10.8 
L 322.793046 10.8 
" style="fill:none;stroke:#000000;stroke-linecap:square;stroke-linejoin:miter;stroke-width:0.8;"/>
   </g>
   <g id="legend_1">
    <g id="patch_7">
     <path d="M 57.81625 139.426379 
L 120.036329 139.426379 
Q 122.036329 139.426379 122.036329 137.426379 
L 122.036329 82.677666 
Q 122.036329 80.677666 120.036329 80.677666 
L 57.81625 80.677666 
Q 55.81625 80.677666 55.81625 82.677666 
L 55.81625 137.426379 
Q 55.81625 139.426379 57.81625 139.426379 
z
" style="fill:#ffffff;opacity:0.8;stroke:#cccccc;stroke-linejoin:miter;"/>
    </g>
    <g id="line2d_135">
     <path d="M 59.81625 88.177666 
L 79.81625 88.177666 
" style="fill:none;stroke:#0088ff;stroke-linecap:square;stroke-width:1.5;"/>
    </g>
    <g id="line2d_136"/>
    <g id="text_11">
     <!-- linear -->
     <defs>
      <path d="M 15.296875 69 
L 3.40625 67.890625 
L 3.40625 65.296875 
C 9.296875 65.296875 10.203125 64.703125 10.203125 59.921875 
L 10.203125 6.859375 
C 10.203125 3.09375 9.796875 2.59375 3.40625 2.59375 
L 3.40625 0 
C 5.796875 0.1875 10.203125 0.1875 12.703125 0.1875 
C 15.296875 0.1875 19.703125 0.1875 22.09375 0 
L 22.09375 2.59375 
C 15.703125 2.59375 15.296875 2.984375 15.296875 6.859375 
z
" id="CMR17-108"/>
     </defs>
     <g transform="translate(87.81625 91.677666)scale(0.1 -0.1)">
      <use transform="scale(0.996264)" xlink:href="#CMR17-108"/>
      <use transform="translate(24.871058 0)scale(0.996264)" xlink:href="#CMR17-105"/>
      <use transform="translate(49.742117 0)scale(0.996264)" xlink:href="#CMR17-110"/>
      <use transform="translate(100.637487 0)scale(0.996264)" xlink:href="#CMR17-101"/>
      <use transform="translate(141.123147 0)scale(0.996264)" xlink:href="#CMR17-97"/>
      <use transform="translate(186.813624 0)scale(0.996264)" xlink:href="#CMR17-114"/>
     </g>
    </g>
    <g id="line2d_137">
     <path d="M 59.81625 102.114844 
L 79.81625 102.114844 
" style="fill:none;stroke:#dd5500;stroke-linecap:square;stroke-width:1.5;"/>
    </g>
    <g id="line2d_138"/>
    <g id="text_12">
     <!-- shaped -->
     <defs>
      <path d="M 41.5 30.53125 
C 41.5 35.65625 40.5 44 28.703125 44 
C 20.5 44 16.5 37.375 15.296875 34.046875 
L 15.203125 34.046875 
L 15.203125 69 
L 3.296875 67.890625 
L 3.296875 65.296875 
C 9.203125 65.296875 10.09375 64.703125 10.09375 60.046875 
L 10.09375 6.921875 
C 10.09375 3.09375 9.703125 2.59375 3.296875 2.59375 
L 3.296875 0 
C 5.703125 0.1875 10.09375 0.1875 12.703125 0.1875 
C 15.296875 0.1875 19.796875 0.1875 22.203125 0 
L 22.203125 2.59375 
C 15.796875 2.59375 15.40625 3 15.40625 6.921875 
L 15.40625 26.21875 
C 15.40625 35.453125 21 42.390625 28 42.390625 
C 35.40625 42.390625 36.203125 35.765625 36.203125 30.9375 
L 36.203125 6.921875 
C 36.203125 3.09375 35.796875 2.59375 29.40625 2.59375 
L 29.40625 0 
C 31.796875 0.1875 36.203125 0.1875 38.796875 0.1875 
C 41.40625 0.1875 45.90625 0.1875 48.296875 0 
L 48.296875 2.59375 
C 41.90625 2.59375 41.5 3 41.5 6.921875 
z
" id="CMR17-104"/>
      <path d="M 22 -17.40625 
C 15.59375 -17.40625 15.203125 -17 15.203125 -13.03125 
L 15.203125 5.9375 
C 18.09375 1.703125 22.296875 -1 27.59375 -1 
C 37.59375 -1 47.703125 7.859375 47.703125 21.59375 
C 47.703125 34.3125 39 44 28.703125 44 
C 22.703125 44 17.796875 40.671875 15 36.640625 
L 15 44 
L 3.09375 42.890625 
L 3.09375 40.265625 
C 9 40.265625 9.90625 39.671875 9.90625 34.8125 
L 9.90625 -13.03125 
C 9.90625 -16.890625 9.5 -17.40625 3.09375 -17.40625 
L 3.09375 -20 
C 5.5 -19.8125 9.90625 -19.8125 12.5 -19.8125 
C 15.09375 -19.8125 19.59375 -19.8125 22 -20 
z
M 15.203125 31.484375 
C 15.203125 32.90625 15.203125 35.015625 19.09375 38.765625 
C 19.59375 39.15625 23 42.1875 28 42.1875 
C 35.296875 42.1875 41.296875 33 41.296875 21.5 
C 41.296875 9.984375 34.90625 0.59375 27 0.59375 
C 23.40625 0.59375 19.5 2.3125 16.5 7.046875 
C 15.203125 9.28125 15.203125 9.875 15.203125 11.5 
z
" id="CMR17-112"/>
      <path d="M 29.203125 67.890625 
L 29.203125 65.296875 
C 35.09375 65.296875 36 64.703125 36 60.046875 
L 36 37.046875 
C 35.59375 37.546875 31.5 44 23.40625 44 
C 13.203125 44 3.296875 34.8125 3.296875 21.5 
C 3.296875 8.265625 12.59375 -1 22.40625 -1 
C 30.90625 -1 35.296875 5.640625 35.796875 6.34375 
L 35.796875 -1 
L 47.90625 -0.203125 
L 47.90625 2.40625 
C 42 2.40625 41.09375 3.015625 41.09375 7.859375 
L 41.09375 69 
z
M 35.796875 11.90625 
C 35.796875 8.875 34 6.140625 31.703125 4.125 
C 28.296875 1.09375 24.90625 0.59375 23 0.59375 
C 20.09375 0.59375 9.703125 2.109375 9.703125 21.390625 
C 9.703125 41.1875 21.296875 42.390625 23.90625 42.390625 
C 28.5 42.390625 32.203125 39.765625 34.5 36.140625 
C 35.796875 34.015625 35.796875 33.703125 35.796875 31.890625 
z
" id="CMR17-100"/>
     </defs>
     <g transform="translate(87.81625 105.614844)scale(0.1 -0.1)">
      <use transform="scale(0.996264)" xlink:href="#CMR17-115"/>
      <use transform="translate(35.801338 0)scale(0.996264)" xlink:href="#CMR17-104"/>
      <use transform="translate(86.696707 0)scale(0.996264)" xlink:href="#CMR17-97"/>
      <use transform="translate(132.387185 0)scale(0.996264)" xlink:href="#CMR17-112"/>
      <use transform="translate(185.884993 0)scale(0.996264)" xlink:href="#CMR17-101"/>
      <use transform="translate(226.370654 0)scale(0.996264)" xlink:href="#CMR17-100"/>
     </g>
    </g>
    <g id="line2d_139">
     <path d="M 59.81625 116.052022 
L 79.81625 116.052022 
" style="fill:none;stroke:#0088ff;stroke-linecap:square;stroke-width:1.5;"/>
    </g>
    <g id="line2d_140"/>
    <g id="text_13">
     <!-- linear -->
     <g transform="translate(87.81625 119.552022)scale(0.1 -0.1)">
      <use transform="scale(0.996264)" xlink:href="#CMR17-108"/>
      <use transform="translate(24.871058 0)scale(0.996264)" xlink:href="#CMR17-105"/>
      <use transform="translate(49.742117 0)scale(0.996264)" xlink:href="#CMR17-110"/>
      <use transform="translate(100.637487 0)scale(0.996264)" xlink:href="#CMR17-101"/>
      <use transform="translate(141.123147 0)scale(0.996264)" xlink:href="#CMR17-97"/>
      <use transform="translate(186.813624 0)scale(0.996264)" xlink:href="#CMR17-114"/>
     </g>
    </g>
    <g id="line2d_141">
     <path d="M 59.81625 129.989201 
L 79.81625 129.989201 
" style="fill:none;stroke:#dd5500;stroke-linecap:square;stroke-width:1.5;"/>
    </g>
    <g id="line2d_142"/>
    <g id="text_14">
     <!-- shaped -->
     <g transform="translate(87.81625 133.489201)scale(0.1 -0.1)">
      <use transform="scale(0.996264)" xlink:href="#CMR17-115"/>
      <use transform="translate(35.801338 0)scale(0.996264)" xlink:href="#CMR17-104"/>
      <use transform="translate(86.696707 0)scale(0.996264)" xlink:href="#CMR17-97"/>
      <use transform="translate(132.387185 0)scale(0.996264)" xlink:href="#CMR17-112"/>
      <use transform="translate(185.884993 0)scale(0.996264)" xlink:href="#CMR17-101"/>
      <use transform="translate(226.370654 0)scale(0.996264)" xlink:href="#CMR17-100"/>
     </g>
    </g>
   </g>
  </g>
 </g>
 <defs>
  <clipPath id="pc5316731de">
   <rect height="198.504044" width="271.976796" x="50.81625" y="10.8"/>
  </clipPath>
 </defs>
</svg>
