<?xml version="1.0" encoding="utf-8" standalone="no"?>
<!DOCTYPE svg PUBLIC "-//W3C//DTD SVG 1.1//EN"
  "http://www.w3.org/Graphics/SVG/1.1/DTD/svg11.dtd">
<!-- Created with matplotlib (https://matplotlib.org/) -->
<svg height="183.6pt" version="1.1" viewBox="0 0 294.48 183.6" width="294.48pt" xmlns="http://www.w3.org/2000/svg" xmlns:xlink="http://www.w3.org/1999/xlink">
 <defs>
  <style type="text/css">
*{stroke-linecap:butt;stroke-linejoin:round;}
  </style>
 </defs>
 <g id="figure_1">
  <g id="patch_1">
   <path d="M 0 183.6 
L 294.48 183.6 
L 294.48 0 
L 0 0 
z
" style="fill:#ffffff;"/>
  </g>
  <g id="axes_1">
   <g id="patch_2">
    <path d="M 50.81625 142.981683 
L 278.698665 142.981683 
L 278.698665 10.8 
L 50.81625 10.8 
z
" style="fill:#ffffff;"/>
   </g>
   <g id="PolyCollection_1">
    <path clip-path="url(#p7ed1e4af42)" d="M 51.955662 42.523355 
L 51.955662 42.85898 
L 52.810221 42.85898 
L 52.810221 39.657242 
L 55.089045 39.657242 
L 55.089045 39.775423 
L 57.937576 39.775423 
L 57.937576 43.08545 
L 60.786106 43.08545 
L 60.786106 43.319576 
L 67.907431 43.319576 
L 67.907431 47.75099 
L 79.301552 47.75099 
L 79.301552 52.620163 
L 90.695673 52.620163 
L 90.695673 57.59241 
L 102.089793 57.59241 
L 102.089793 62.616725 
L 113.483914 62.616725 
L 113.483914 70.076946 
L 124.878035 70.076946 
L 124.878035 76.507393 
L 136.272156 76.507393 
L 136.272156 81.737405 
L 147.666276 81.737405 
L 147.666276 86.90024 
L 159.060397 86.90024 
L 159.060397 92.516451 
L 170.454518 92.516451 
L 170.454518 98.273613 
L 181.848639 98.273613 
L 181.848639 102.476133 
L 193.242759 102.476133 
L 193.242759 105.869079 
L 204.63688 105.869079 
L 204.63688 105.414269 
L 216.031001 105.414269 
L 216.031001 110.474713 
L 227.425121 110.474713 
L 227.425121 119.381747 
L 238.819242 119.381747 
L 238.819242 119.435936 
L 250.213363 119.435936 
L 250.213363 120.421632 
L 261.607484 120.421632 
L 261.607484 123.45353 
L 273.001604 123.45353 
L 273.001604 131.769932 
L 278.698665 131.769932 
L 278.698665 126.541957 
L 278.698665 126.541957 
L 273.001604 126.541957 
L 273.001604 121.619066 
L 261.607484 121.619066 
L 261.607484 114.327212 
L 250.213363 114.327212 
L 250.213363 113.006892 
L 238.819242 113.006892 
L 238.819242 106.925022 
L 227.425121 106.925022 
L 227.425121 105.764732 
L 216.031001 105.764732 
L 216.031001 102.297667 
L 204.63688 102.297667 
L 204.63688 101.042693 
L 193.242759 101.042693 
L 193.242759 97.859715 
L 181.848639 97.859715 
L 181.848639 95.510566 
L 170.454518 95.510566 
L 170.454518 89.798656 
L 159.060397 89.798656 
L 159.060397 84.562565 
L 147.666276 84.562565 
L 147.666276 79.708136 
L 136.272156 79.708136 
L 136.272156 74.953624 
L 124.878035 74.953624 
L 124.878035 69.295704 
L 113.483914 69.295704 
L 113.483914 61.480069 
L 102.089793 61.480069 
L 102.089793 57.113505 
L 90.695673 57.113505 
L 90.695673 52.282353 
L 79.301552 52.282353 
L 79.301552 47.623964 
L 67.907431 47.623964 
L 67.907431 42.902415 
L 60.786106 42.902415 
L 60.786106 42.797496 
L 57.937576 42.797496 
L 57.937576 39.653738 
L 55.089045 39.653738 
L 55.089045 39.489937 
L 52.810221 39.489937 
L 52.810221 42.523355 
L 51.955662 42.523355 
z
" style="fill:#0088ff;fill-opacity:0.15;"/>
   </g>
   <g id="PolyCollection_2">
    <path clip-path="url(#p7ed1e4af42)" d="M 51.955662 28.367969 
L 51.955662 28.651002 
L 52.810221 28.651002 
L 52.810221 36.290367 
L 55.089045 36.290367 
L 55.089045 45.451314 
L 57.937576 45.451314 
L 57.937576 53.295744 
L 60.786106 53.295744 
L 60.786106 59.495436 
L 67.907431 59.495436 
L 67.907431 77.397982 
L 79.301552 77.397982 
L 79.301552 92.867132 
L 90.695673 92.867132 
L 90.695673 108.513751 
L 102.089793 108.513751 
L 102.089793 112.918314 
L 113.483914 112.918314 
L 113.483914 118.282352 
L 124.878035 118.282352 
L 124.878035 114.475096 
L 136.272156 114.475096 
L 136.272156 115.9521 
L 147.666276 115.9521 
L 147.666276 118.82259 
L 159.060397 118.82259 
L 159.060397 121.640231 
L 170.454518 121.640231 
L 170.454518 121.631378 
L 181.848639 121.631378 
L 181.848639 127.055569 
L 193.242759 127.055569 
L 193.242759 122.326541 
L 204.63688 122.326541 
L 204.63688 116.058488 
L 216.031001 116.058488 
L 216.031001 121.494063 
L 227.425121 121.494063 
L 227.425121 130.312521 
L 238.819242 130.312521 
L 238.819242 128.654693 
L 250.213363 128.654693 
L 250.213363 133.231126 
L 261.607484 133.231126 
L 261.607484 131.505447 
L 273.001604 131.505447 
L 273.001604 136.190508 
L 278.698665 136.190508 
L 278.698665 124.171787 
L 278.698665 124.171787 
L 273.001604 124.171787 
L 273.001604 122.797919 
L 261.607484 122.797919 
L 261.607484 122.257226 
L 250.213363 122.257226 
L 250.213363 120.601797 
L 238.819242 120.601797 
L 238.819242 119.580953 
L 227.425121 119.580953 
L 227.425121 111.569481 
L 216.031001 111.569481 
L 216.031001 111.908222 
L 204.63688 111.908222 
L 204.63688 114.596667 
L 193.242759 114.596667 
L 193.242759 111.029915 
L 181.848639 111.029915 
L 181.848639 114.026561 
L 170.454518 114.026561 
L 170.454518 113.741787 
L 159.060397 113.741787 
L 159.060397 111.906498 
L 147.666276 111.906498 
L 147.666276 110.143452 
L 136.272156 110.143452 
L 136.272156 108.451451 
L 124.878035 108.451451 
L 124.878035 110.926651 
L 113.483914 110.926651 
L 113.483914 109.361813 
L 102.089793 109.361813 
L 102.089793 105.638134 
L 90.695673 105.638134 
L 90.695673 89.052253 
L 79.301552 89.052253 
L 79.301552 76.074729 
L 67.907431 76.074729 
L 67.907431 57.954975 
L 60.786106 57.954975 
L 60.786106 51.869882 
L 57.937576 51.869882 
L 57.937576 45.166293 
L 55.089045 45.166293 
L 55.089045 36.010967 
L 52.810221 36.010967 
L 52.810221 28.367969 
L 51.955662 28.367969 
z
" style="fill:#dd5500;fill-opacity:0.15;"/>
   </g>
   <g id="matplotlib.axis_1">
    <g id="xtick_1">
     <g id="line2d_1">
      <path clip-path="url(#p7ed1e4af42)" d="M 50.81625 142.981683 
L 50.81625 10.8 
" style="fill:none;stroke:#dddddd;stroke-linecap:square;stroke-width:0.5;"/>
     </g>
     <g id="line2d_2">
      <defs>
       <path d="M 0 0 
L 0 3.5 
" id="m5c86cb7c76" style="stroke:#000000;stroke-width:0.8;"/>
      </defs>
      <g>
       <use style="stroke:#000000;stroke-width:0.8;" x="50.81625" xlink:href="#m5c86cb7c76" y="142.981683"/>
      </g>
     </g>
     <g id="text_1">
      <!-- $\mathdefault{0}$ -->
      <defs>
       <path d="M 42 31.84375 
C 42 37.96875 41.90625 48.421875 37.703125 56.453125 
C 34 63.484375 28.09375 66 22.90625 66 
C 18.09375 66 12 63.78125 8.203125 56.5625 
C 4.203125 49.015625 3.796875 39.671875 3.796875 31.84375 
C 3.796875 26.109375 3.90625 17.375 7 9.734375 
C 11.296875 -0.609375 19 -2 22.90625 -2 
C 27.5 -2 34.5 -0.109375 38.59375 9.4375 
C 41.59375 16.375 42 24.5 42 31.84375 
z
M 22.90625 -0.40625 
C 16.5 -0.40625 12.703125 5.125 11.296875 12.75 
C 10.203125 18.6875 10.203125 27.328125 10.203125 32.953125 
C 10.203125 40.6875 10.203125 47.109375 11.5 53.234375 
C 13.40625 61.78125 19 64.390625 22.90625 64.390625 
C 27 64.390625 32.296875 61.671875 34.203125 53.4375 
C 35.5 47.71875 35.59375 40.984375 35.59375 32.953125 
C 35.59375 26.421875 35.59375 18.375 34.40625 12.453125 
C 32.296875 1.5 26.40625 -0.40625 22.90625 -0.40625 
z
" id="CMR17-48"/>
      </defs>
      <g transform="translate(48.325582 156.900182)scale(0.1 -0.1)">
       <use transform="scale(0.996264)" xlink:href="#CMR17-48"/>
      </g>
     </g>
    </g>
    <g id="xtick_2">
     <g id="line2d_3">
      <path clip-path="url(#p7ed1e4af42)" d="M 107.786854 142.981683 
L 107.786854 10.8 
" style="fill:none;stroke:#dddddd;stroke-linecap:square;stroke-width:0.5;"/>
     </g>
     <g id="line2d_4">
      <g>
       <use style="stroke:#000000;stroke-width:0.8;" x="107.786854" xlink:href="#m5c86cb7c76" y="142.981683"/>
      </g>
     </g>
     <g id="text_2">
      <!-- $\mathdefault{5}$ -->
      <defs>
       <path d="M 11.40625 58.59375 
C 12.40625 58.1875 16.5 56.890625 20.703125 56.890625 
C 30 56.890625 35.09375 61.890625 38 64.6875 
C 38 65.484375 38 66 37.40625 66 
C 37.296875 66 37.09375 66 36.296875 65.59375 
C 32.796875 64.09375 28.703125 63 23.703125 63 
C 20.703125 63 16.203125 63.359375 11.296875 65.484375 
C 10.203125 66 10 66 9.90625 66 
C 9.40625 66 9.296875 65.890625 9.296875 63.90625 
L 9.296875 34.859375 
C 9.296875 33.015625 9.296875 32.5 10.296875 32.5 
C 10.796875 32.5 11 32.703125 11.5 33.421875 
C 14.703125 38.046875 19.09375 40 24.09375 40 
C 27.59375 40 35.09375 37.734375 35.09375 20.203125 
C 35.09375 16.984375 35.09375 11.1875 32.09375 6.59375 
C 29.59375 2.484375 25.703125 0.390625 21.40625 0.390625 
C 14.796875 0.390625 8.09375 4.984375 6.296875 12.6875 
C 6.703125 12.59375 7.5 12.390625 7.90625 12.390625 
C 9.203125 12.390625 11.703125 13.09375 11.703125 16.1875 
C 11.703125 18.890625 9.796875 20 7.90625 20 
C 5.59375 20 4.09375 18.59375 4.09375 15.796875 
C 4.09375 7.09375 11 -2 21.59375 -2 
C 31.90625 -2 41.703125 6.890625 41.703125 19.796875 
C 41.703125 32.09375 33.90625 41.59375 24.203125 41.59375 
C 19.09375 41.59375 14.796875 39.6875 11.40625 36 
z
" id="CMR17-53"/>
      </defs>
      <g transform="translate(105.296186 156.900182)scale(0.1 -0.1)">
       <use transform="scale(0.996264)" xlink:href="#CMR17-53"/>
      </g>
     </g>
    </g>
    <g id="xtick_3">
     <g id="line2d_5">
      <path clip-path="url(#p7ed1e4af42)" d="M 164.757457 142.981683 
L 164.757457 10.8 
" style="fill:none;stroke:#dddddd;stroke-linecap:square;stroke-width:0.5;"/>
     </g>
     <g id="line2d_6">
      <g>
       <use style="stroke:#000000;stroke-width:0.8;" x="164.757457" xlink:href="#m5c86cb7c76" y="142.981683"/>
      </g>
     </g>
     <g id="text_3">
      <!-- $\mathdefault{10}$ -->
      <defs>
       <path d="M 26.59375 63.796875 
C 26.59375 65.890625 26.5 66 25.09375 66 
C 21.203125 61.359375 15.296875 59.890625 9.703125 59.6875 
C 9.40625 59.6875 8.90625 59.6875 8.796875 59.5 
C 8.703125 59.296875 8.703125 59.09375 8.703125 57 
C 11.796875 57 17 57.59375 21 59.984375 
L 21 7.296875 
C 21 3.796875 20.796875 2.59375 12.203125 2.59375 
L 9.203125 2.59375 
L 9.203125 0 
C 14 0.09375 19 0.1875 23.796875 0.1875 
C 28.59375 0.1875 33.59375 0.09375 38.40625 0 
L 38.40625 2.59375 
L 35.40625 2.59375 
C 26.796875 2.59375 26.59375 3.6875 26.59375 7.296875 
z
" id="CMR17-49"/>
      </defs>
      <g transform="translate(159.776122 156.900182)scale(0.1 -0.1)">
       <use transform="scale(0.996264)" xlink:href="#CMR17-49"/>
       <use transform="translate(45.690477 0)scale(0.996264)" xlink:href="#CMR17-48"/>
      </g>
     </g>
    </g>
    <g id="xtick_4">
     <g id="line2d_7">
      <path clip-path="url(#p7ed1e4af42)" d="M 221.728061 142.981683 
L 221.728061 10.8 
" style="fill:none;stroke:#dddddd;stroke-linecap:square;stroke-width:0.5;"/>
     </g>
     <g id="line2d_8">
      <g>
       <use style="stroke:#000000;stroke-width:0.8;" x="221.728061" xlink:href="#m5c86cb7c76" y="142.981683"/>
      </g>
     </g>
     <g id="text_4">
      <!-- $\mathdefault{15}$ -->
      <g transform="translate(216.746726 156.900182)scale(0.1 -0.1)">
       <use transform="scale(0.996264)" xlink:href="#CMR17-49"/>
       <use transform="translate(45.690477 0)scale(0.996264)" xlink:href="#CMR17-53"/>
      </g>
     </g>
    </g>
    <g id="xtick_5">
     <g id="line2d_9">
      <path clip-path="url(#p7ed1e4af42)" d="M 278.698665 142.981683 
L 278.698665 10.8 
" style="fill:none;stroke:#dddddd;stroke-linecap:square;stroke-width:0.5;"/>
     </g>
     <g id="line2d_10">
      <g>
       <use style="stroke:#000000;stroke-width:0.8;" x="278.698665" xlink:href="#m5c86cb7c76" y="142.981683"/>
      </g>
     </g>
     <g id="text_5">
      <!-- $\mathdefault{20}$ -->
      <defs>
       <path d="M 41.703125 15.46875 
L 39.90625 15.46875 
C 38.90625 8.390625 38.09375 7.1875 37.703125 6.59375 
C 37.203125 5.796875 30 5.796875 28.59375 5.796875 
L 9.40625 5.796875 
C 13 9.6875 20 16.765625 28.5 24.9375 
C 34.59375 30.71875 41.703125 37.5 41.703125 47.390625 
C 41.703125 59.1875 32.296875 66 21.796875 66 
C 10.796875 66 4.09375 56.296875 4.09375 47.296875 
C 4.09375 43.390625 7 42.890625 8.203125 42.890625 
C 9.203125 42.890625 12.203125 43.484375 12.203125 46.984375 
C 12.203125 50.09375 9.59375 51 8.203125 51 
C 7.59375 51 7 50.890625 6.59375 50.6875 
C 8.5 59.1875 14.296875 63.390625 20.40625 63.390625 
C 29.09375 63.390625 34.796875 56.5 34.796875 47.390625 
C 34.796875 38.703125 29.703125 31.21875 24 24.734375 
L 4.09375 2.296875 
L 4.09375 0 
L 39.296875 0 
z
" id="CMR17-50"/>
      </defs>
      <g transform="translate(273.717329 156.900182)scale(0.1 -0.1)">
       <use transform="scale(0.996264)" xlink:href="#CMR17-50"/>
       <use transform="translate(45.690477 0)scale(0.996264)" xlink:href="#CMR17-48"/>
      </g>
     </g>
    </g>
    <g id="text_6">
     <!-- time constant $\tau$ [ns] -->
     <defs>
      <path d="M 15.09375 40.390625 
L 29.09375 40.390625 
L 29.09375 43 
L 15.09375 43 
L 15.09375 62 
L 13.296875 62 
C 13.09375 51.4375 9.59375 42.1875 1.09375 41.984375 
L 1.09375 40.390625 
L 9.796875 40.390625 
L 9.796875 12.15625 
C 9.796875 10.234375 9.796875 -1 21.40625 -1 
C 27.296875 -1 30.703125 4.8125 30.703125 12.25 
L 30.703125 17.984375 
L 28.90625 17.984375 
L 28.90625 12.34375 
C 28.90625 5.421875 26.203125 0.796875 22 0.796875 
C 19.09375 0.796875 15.09375 2.796875 15.09375 11.953125 
z
" id="CMR17-116"/>
      <path d="M 15.5 61.890625 
C 15.5 64.09375 13.703125 66 11.40625 66 
C 9.203125 66 7.296875 64.1875 7.296875 61.890625 
C 7.296875 59.6875 9.09375 57.796875 11.40625 57.796875 
C 13.59375 57.796875 15.5 59.59375 15.5 61.890625 
z
M 3.796875 42.890625 
L 3.796875 40.296875 
C 9.40625 40.296875 10.203125 39.6875 10.203125 34.859375 
L 10.203125 6.921875 
C 10.203125 3.09375 9.796875 2.59375 3.40625 2.59375 
L 3.40625 0 
C 5.796875 0.1875 10.09375 0.1875 12.59375 0.1875 
C 15 0.1875 19.09375 0.1875 21.40625 0 
L 21.40625 2.59375 
C 15.5 2.59375 15.296875 3.203125 15.296875 6.8125 
L 15.296875 44 
z
" id="CMR17-105"/>
      <path d="M 67.59375 30.53125 
C 67.59375 35.5625 66.703125 44 54.796875 44 
C 48 44 43.296875 39.375 41.5 33.953125 
L 41.40625 33.953125 
C 40.203125 42.1875 34.296875 44 28.703125 44 
C 20.796875 44 16.703125 37.875 15.203125 33.84375 
L 15.09375 33.84375 
L 15.09375 44 
L 3.296875 42.890625 
L 3.296875 40.28125 
C 9.203125 40.28125 10.09375 39.6875 10.09375 34.859375 
L 10.09375 6.921875 
C 10.09375 3.09375 9.703125 2.59375 3.296875 2.59375 
L 3.296875 0 
C 5.703125 0.1875 10.09375 0.1875 12.703125 0.1875 
C 15.296875 0.1875 19.796875 0.1875 22.203125 0 
L 22.203125 2.59375 
C 15.796875 2.59375 15.40625 3 15.40625 6.921875 
L 15.40625 26.21875 
C 15.40625 35.453125 21 42.390625 28 42.390625 
C 35.40625 42.390625 36.203125 35.765625 36.203125 30.9375 
L 36.203125 6.921875 
C 36.203125 3.09375 35.796875 2.59375 29.40625 2.59375 
L 29.40625 0 
C 31.796875 0.1875 36.203125 0.1875 38.796875 0.1875 
C 41.40625 0.1875 45.90625 0.1875 48.296875 0 
L 48.296875 2.59375 
C 41.90625 2.59375 41.5 3 41.5 6.921875 
L 41.5 26.21875 
C 41.5 35.453125 47.09375 42.390625 54.09375 42.390625 
C 61.5 42.390625 62.296875 35.765625 62.296875 30.9375 
L 62.296875 6.921875 
C 62.296875 3.09375 61.90625 2.59375 55.5 2.59375 
L 55.5 0 
C 57.90625 0.1875 62.296875 0.1875 64.90625 0.1875 
C 67.5 0.1875 72 0.1875 74.40625 0 
L 74.40625 2.59375 
C 68 2.59375 67.59375 3 67.59375 6.921875 
z
" id="CMR17-109"/>
      <path d="M 38.09375 23.484375 
C 38.5 23.890625 38.5 24.09375 38.5 25.09375 
C 38.5 35.171875 33.09375 44 21.703125 44 
C 11.09375 44 2.703125 33.984375 2.703125 21.78125 
C 2.703125 8.65625 12.203125 -1 22.796875 -1 
C 34 -1 38.40625 9.671875 38.40625 11.796875 
C 38.40625 12.5 37.796875 12.5 37.59375 12.5 
C 36.90625 12.5 36.796875 12.296875 36.40625 11.078125 
C 34.203125 4.21875 28.703125 0.796875 23.5 0.796875 
C 19.203125 0.796875 14.90625 3.21875 12.203125 7.65625 
C 9.09375 12.796875 9.09375 18.75 9.09375 23.484375 
z
M 9.203125 25 
C 9.90625 39.234375 17.59375 42.390625 21.59375 42.390625 
C 28.40625 42.390625 33 36.0625 33.09375 25 
z
" id="CMR17-101"/>
      <path d="M 34.90625 35 
C 33 35 30.203125 35 30.203125 31.484375 
C 30.203125 28.6875 32.5 27.890625 33.796875 27.890625 
C 34.5 27.890625 37.40625 28.1875 37.40625 31.6875 
C 37.40625 38.6875 30.59375 44 22.90625 44 
C 12.296875 44 3.296875 34.390625 3.296875 21.546875 
C 3.296875 8.140625 12.703125 -1 22.90625 -1 
C 35.296875 -1 38.40625 10.5625 38.40625 11.671875 
C 38.40625 12.078125 38.296875 12.375 37.59375 12.375 
C 36.90625 12.375 36.796875 12.28125 36.40625 10.96875 
C 33.796875 2.8125 28.09375 0.796875 23.796875 0.796875 
C 17.40625 0.796875 9.703125 6.734375 9.703125 21.640625 
C 9.703125 36.84375 17.09375 42.1875 23 42.1875 
C 26.90625 42.1875 32.703125 40.34375 34.90625 35 
z
" id="CMR17-99"/>
      <path d="M 43.09375 21.1875 
C 43.09375 34 33.796875 44 22.90625 44 
C 12 44 2.703125 34 2.703125 21.1875 
C 2.703125 8.59375 12 -1 22.90625 -1 
C 33.796875 -1 43.09375 8.59375 43.09375 21.1875 
z
M 22.90625 0.796875 
C 18.203125 0.796875 14.203125 3.59375 11.90625 7.5 
C 9.40625 12 9.09375 17.59375 9.09375 22 
C 9.09375 26.1875 9.296875 31.390625 11.90625 35.890625 
C 13.90625 39.1875 17.796875 42.390625 22.90625 42.390625 
C 27.40625 42.390625 31.203125 39.890625 33.59375 36.390625 
C 36.703125 31.6875 36.703125 25.09375 36.703125 22 
C 36.703125 18.09375 36.5 12.09375 33.796875 7.296875 
C 31 2.6875 26.703125 0.796875 22.90625 0.796875 
z
" id="CMR17-111"/>
      <path d="M 41.5 30.53125 
C 41.5 35.65625 40.5 44 28.703125 44 
C 20.796875 44 16.703125 37.875 15.203125 33.84375 
L 15.09375 33.84375 
L 15.09375 44 
L 3.296875 42.890625 
L 3.296875 40.28125 
C 9.203125 40.28125 10.09375 39.6875 10.09375 34.859375 
L 10.09375 6.921875 
C 10.09375 3.09375 9.703125 2.59375 3.296875 2.59375 
L 3.296875 0 
C 5.703125 0.1875 10.09375 0.1875 12.703125 0.1875 
C 15.296875 0.1875 19.796875 0.1875 22.203125 0 
L 22.203125 2.59375 
C 15.796875 2.59375 15.40625 3 15.40625 6.921875 
L 15.40625 26.21875 
C 15.40625 35.453125 21 42.390625 28 42.390625 
C 35.40625 42.390625 36.203125 35.765625 36.203125 30.9375 
L 36.203125 6.921875 
C 36.203125 3.09375 35.796875 2.59375 29.40625 2.59375 
L 29.40625 0 
C 31.796875 0.1875 36.203125 0.1875 38.796875 0.1875 
C 41.40625 0.1875 45.90625 0.1875 48.296875 0 
L 48.296875 2.59375 
C 41.90625 2.59375 41.5 3 41.5 6.921875 
z
" id="CMR17-110"/>
      <path d="M 30.90625 42 
C 30.90625 43.796875 30.796875 43.890625 30.203125 43.890625 
C 29.796875 43.890625 29.703125 43.796875 28.5 42.296875 
C 28.203125 41.890625 27.296875 40.890625 27 40.5 
C 23.796875 43.890625 19.296875 44 17.59375 44 
C 6.5 44 2.5 38.1875 2.5 32.390625 
C 2.5 23.390625 12.703125 21.296875 15.59375 20.6875 
C 21.90625 19.390625 24.09375 19 26.203125 17.1875 
C 27.5 16 29.703125 13.796875 29.703125 10.1875 
C 29.703125 6 27.296875 0.59375 18.09375 0.59375 
C 9.40625 0.59375 6.296875 7.1875 4.5 16 
C 4.203125 17.390625 4.203125 17.5 3.40625 17.5 
C 2.59375 17.5 2.5 17.390625 2.5 15.390625 
L 2.5 1 
C 2.5 -0.8125 2.59375 -0.90625 3.203125 -0.90625 
C 3.703125 -0.90625 3.796875 -0.8125 4.296875 0 
C 4.90625 0.890625 6.40625 3.296875 7 4.296875 
C 9 1.59375 12.5 -1 18.09375 -1 
C 28 -1 33.296875 4.390625 33.296875 12.1875 
C 33.296875 17.296875 30.59375 20 29.296875 21.1875 
C 26.296875 24.296875 22.796875 25 18.59375 25.796875 
C 13.09375 27 6.09375 28.390625 6.09375 34.5 
C 6.09375 37.09375 7.5 42.59375 17.59375 42.59375 
C 28.296875 42.59375 28.90625 32.59375 29.09375 29.390625 
C 29.203125 28.890625 29.703125 28.796875 30 28.796875 
C 30.90625 28.796875 30.90625 29.09375 30.90625 30.796875 
z
" id="CMR17-115"/>
      <path d="M 36 25.875 
C 36 32 36 35.546875 31.796875 39.59375 
C 28.09375 42.984375 23.796875 44 20.40625 44 
C 12.5 44 6.796875 37.625 6.796875 30.890625 
C 6.796875 27.1875 9.796875 27 10.40625 27 
C 11.703125 27 14 27.796875 14 30.59375 
C 14 33.09375 12.09375 34.1875 10.40625 34.1875 
C 10 34.1875 9.5 34.09375 9.203125 34 
C 11.296875 40.53125 16.703125 42.390625 20.203125 42.390625 
C 25.203125 42.390625 30.703125 37.828125 30.703125 29.296875 
L 30.703125 25.5 
C 24.796875 25.296875 17.703125 24.5 12.09375 21.453125 
C 5.796875 17.921875 4 12.84375 4 9 
C 4 1.203125 13 -1 18.296875 -1 
C 23.796875 -1 28.90625 2.109375 31.09375 7.890625 
C 31.296875 3.421875 34.09375 -0.609375 38.5 -0.609375 
C 40.59375 -0.609375 45.90625 0.796875 45.90625 8.796875 
L 45.90625 14.46875 
L 44.09375 14.46875 
L 44.09375 8.703125 
C 44.09375 2.515625 41.40625 1.703125 40.09375 1.703125 
C 36 1.703125 36 6.96875 36 11.4375 
z
M 30.703125 13.859375 
C 30.703125 5.046875 24.5 0.59375 19 0.59375 
C 14 0.59375 10.09375 4.34375 10.09375 9 
C 10.09375 12.046875 11.40625 17.40625 17.203125 20.65625 
C 22 23.390625 27.5 23.796875 30.703125 24 
z
" id="CMR17-97"/>
      <path d="M 28.703125 37.59375 
L 45.296875 37.59375 
C 46.59375 37.59375 49.90625 37.59375 49.90625 40.796875 
C 49.90625 43 48 43 46.203125 43 
L 18.703125 43 
C 16.40625 43 13 43 8.40625 38.09375 
C 5.796875 35.203125 2.59375 29.9375 2.59375 29.34375 
C 2.59375 28.734375 3.09375 28.546875 3.703125 28.546875 
C 4.40625 28.546875 4.5 28.84375 5 29.4375 
C 10.203125 37.59375 15.40625 37.59375 17.90625 37.59375 
L 26.203125 37.59375 
L 15.796875 3.484375 
C 15.296875 1.984375 15.296875 1.78125 15.296875 1.484375 
C 15.296875 0.390625 16 -1 18 -1 
C 21.09375 -1 21.59375 1.6875 21.90625 3.1875 
z
" id="CMMI12-28"/>
      <path d="M 23.5 -25 
L 23.5 -21.5 
L 14.09375 -21.5 
L 14.09375 71.484375 
L 23.5 71.484375 
L 23.5 75 
L 10.59375 75 
L 10.59375 -25 
z
" id="CMR17-91"/>
      <path d="M 14.296875 75 
L 1.40625 75 
L 1.40625 71.484375 
L 10.796875 71.484375 
L 10.796875 -21.5 
L 1.40625 -21.5 
L 1.40625 -25 
L 14.296875 -25 
z
" id="CMR17-93"/>
     </defs>
     <g transform="translate(121.418172 170.30934)scale(0.1 -0.1)">
      <use transform="scale(0.996264)" xlink:href="#CMR17-116"/>
      <use transform="translate(35.280768 0)scale(0.996264)" xlink:href="#CMR17-105"/>
      <use transform="translate(60.151826 0)scale(0.996264)" xlink:href="#CMR17-109"/>
      <use transform="translate(137.071416 0)scale(0.996264)" xlink:href="#CMR17-101"/>
      <use transform="translate(207.633043 0)scale(0.996264)" xlink:href="#CMR17-99"/>
      <use transform="translate(248.118703 0)scale(0.996264)" xlink:href="#CMR17-111"/>
      <use transform="translate(293.809181 0)scale(0.996264)" xlink:href="#CMR17-110"/>
      <use transform="translate(344.70455 0)scale(0.996264)" xlink:href="#CMR17-115"/>
      <use transform="translate(380.505888 0)scale(0.996264)" xlink:href="#CMR17-116"/>
      <use transform="translate(415.786656 0)scale(0.996264)" xlink:href="#CMR17-97"/>
      <use transform="translate(461.477133 0)scale(0.996264)" xlink:href="#CMR17-110"/>
      <use transform="translate(509.770049 0)scale(0.996264)" xlink:href="#CMR17-116"/>
      <use transform="translate(575.126783 0)scale(0.996264)" xlink:href="#CMMI12-28"/>
      <use transform="translate(658.693915 0)scale(0.996264)" xlink:href="#CMR17-91"/>
      <use transform="translate(683.564973 0)scale(0.996264)" xlink:href="#CMR17-110"/>
      <use transform="translate(734.460343 0)scale(0.996264)" xlink:href="#CMR17-115"/>
      <use transform="translate(770.26168 0)scale(0.996264)" xlink:href="#CMR17-93"/>
     </g>
    </g>
   </g>
   <g id="matplotlib.axis_2">
    <g id="ytick_1">
     <g id="line2d_11">
      <path clip-path="url(#p7ed1e4af42)" d="M 50.81625 142.981683 
L 278.698665 142.981683 
" style="fill:none;stroke:#dddddd;stroke-linecap:square;stroke-width:0.5;"/>
     </g>
     <g id="line2d_12">
      <defs>
       <path d="M 0 0 
L -3.5 0 
" id="m192d2f7528" style="stroke:#000000;stroke-width:0.8;"/>
      </defs>
      <g>
       <use style="stroke:#000000;stroke-width:0.8;" x="50.81625" xlink:href="#m192d2f7528" y="142.981683"/>
      </g>
     </g>
     <g id="text_7">
      <!-- $\mathdefault{10^{-5}}$ -->
      <defs>
       <path d="M 65.90625 23 
C 67.59375 23 69.40625 23 69.40625 25 
C 69.40625 27 67.59375 27 65.90625 27 
L 11.796875 27 
C 10.09375 27 8.296875 27 8.296875 25 
C 8.296875 23 10.09375 23 11.796875 23 
z
" id="CMSY10-0"/>
      </defs>
      <g transform="translate(23.655677 146.440932)scale(0.1 -0.1)">
       <use transform="scale(0.996264)" xlink:href="#CMR17-49"/>
       <use transform="translate(45.690477 0)scale(0.996264)" xlink:href="#CMR17-48"/>
       <use transform="translate(91.380954 36.153639)scale(0.697382)" xlink:href="#CMSY10-0"/>
       <use transform="translate(145.621947 36.153639)scale(0.697382)" xlink:href="#CMR17-53"/>
      </g>
     </g>
    </g>
    <g id="ytick_2">
     <g id="line2d_13">
      <path clip-path="url(#p7ed1e4af42)" d="M 50.81625 90.10901 
L 278.698665 90.10901 
" style="fill:none;stroke:#dddddd;stroke-linecap:square;stroke-width:0.5;"/>
     </g>
     <g id="line2d_14">
      <g>
       <use style="stroke:#000000;stroke-width:0.8;" x="50.81625" xlink:href="#m192d2f7528" y="90.10901"/>
      </g>
     </g>
     <g id="text_8">
      <!-- $\mathdefault{10^{-3}}$ -->
      <defs>
       <path d="M 22.09375 34 
C 31 34 34.90625 26.140625 34.90625 17.09375 
C 34.90625 5.03125 28.5 0.390625 22.703125 0.390625 
C 17.40625 0.390625 8.796875 3.015625 6.09375 10.796875 
C 6.59375 10.59375 7.09375 10.59375 7.59375 10.59375 
C 10 10.59375 11.796875 12.1875 11.796875 14.796875 
C 11.796875 17.6875 9.59375 19 7.59375 19 
C 5.90625 19 3.296875 18.1875 3.296875 14.484375 
C 3.296875 5.234375 12.296875 -2 22.90625 -2 
C 34 -2 42.5 6.75 42.5 16.984375 
C 42.5 26.84375 34.5 34 25 35.09375 
C 32.59375 36.671875 39.90625 43.375 39.90625 52.390625 
C 39.90625 60.25 32 66 23 66 
C 13.90625 66 5.90625 60.34375 5.90625 52.296875 
C 5.90625 48.796875 8.5 48.1875 9.796875 48.1875 
C 11.90625 48.1875 13.703125 49.484375 13.703125 52.09375 
C 13.703125 54.6875 11.90625 56 9.796875 56 
C 9.40625 56 8.90625 56 8.5 55.796875 
C 11.40625 62.484375 19.296875 63.6875 22.796875 63.6875 
C 26.296875 63.6875 32.90625 61.96875 32.90625 52.296875 
C 32.90625 49.484375 32.5 44.546875 29.09375 40.21875 
C 26.09375 36.390625 22.703125 36.1875 19.40625 35.890625 
C 18.90625 35.890625 16.59375 35.6875 16.203125 35.6875 
C 15.5 35.59375 15.09375 35.5 15.09375 34.796875 
C 15.09375 34.09375 15.203125 34 17.203125 34 
z
" id="CMR17-51"/>
      </defs>
      <g transform="translate(23.655677 93.568259)scale(0.1 -0.1)">
       <use transform="scale(0.996264)" xlink:href="#CMR17-49"/>
       <use transform="translate(45.690477 0)scale(0.996264)" xlink:href="#CMR17-48"/>
       <use transform="translate(91.380954 36.153639)scale(0.697382)" xlink:href="#CMSY10-0"/>
       <use transform="translate(145.621947 36.153639)scale(0.697382)" xlink:href="#CMR17-51"/>
      </g>
     </g>
    </g>
    <g id="ytick_3">
     <g id="line2d_15">
      <path clip-path="url(#p7ed1e4af42)" d="M 50.81625 37.236337 
L 278.698665 37.236337 
" style="fill:none;stroke:#dddddd;stroke-linecap:square;stroke-width:0.5;"/>
     </g>
     <g id="line2d_16">
      <g>
       <use style="stroke:#000000;stroke-width:0.8;" x="50.81625" xlink:href="#m192d2f7528" y="37.236337"/>
      </g>
     </g>
     <g id="text_9">
      <!-- $\mathdefault{10^{-1}}$ -->
      <g transform="translate(23.655677 40.695586)scale(0.1 -0.1)">
       <use transform="scale(0.996264)" xlink:href="#CMR17-49"/>
       <use transform="translate(45.690477 0)scale(0.996264)" xlink:href="#CMR17-48"/>
       <use transform="translate(91.380954 36.153639)scale(0.697382)" xlink:href="#CMSY10-0"/>
       <use transform="translate(145.621947 36.153639)scale(0.697382)" xlink:href="#CMR17-49"/>
      </g>
     </g>
    </g>
    <g id="text_10">
     <!-- transfer error $\epsilon$ -->
     <defs>
      <path d="M 15 23.703125 
C 15 33.34375 19.09375 42.390625 26.59375 42.390625 
C 27.296875 42.390625 28 42.296875 28.703125 41.984375 
C 28.703125 41.984375 26.5 41.28125 26.5 38.671875 
C 26.5 36.265625 28.40625 35.265625 29.90625 35.265625 
C 31.09375 35.265625 33.296875 35.96875 33.296875 38.78125 
C 33.296875 41.984375 30.09375 44 26.703125 44 
C 19.09375 44 15.796875 36.5625 14.796875 33.046875 
L 14.703125 33.046875 
L 14.703125 44 
L 3.09375 42.890625 
L 3.09375 40.28125 
C 9 40.28125 9.90625 39.6875 9.90625 34.859375 
L 9.90625 6.921875 
C 9.90625 3.09375 9.5 2.59375 3.09375 2.59375 
L 3.09375 0 
C 5.5 0.1875 10.09375 0.1875 12.703125 0.1875 
C 15.59375 0.1875 20.703125 0.1875 23.40625 0 
L 23.40625 2.59375 
C 16.203125 2.59375 15 2.59375 15 7.109375 
z
" id="CMR17-114"/>
      <path d="M 15.296875 40.390625 
L 26.703125 40.390625 
L 26.703125 43 
L 15.09375 43 
L 15.09375 55.296875 
C 15.09375 63.6875 19.296875 68.390625 23.59375 68.390625 
C 24.90625 68.390625 26.40625 68.171875 27.40625 67.796875 
C 26.59375 67.59375 24.5 66.890625 24.5 64.390625 
C 24.5 61.796875 26.5 61 27.90625 61 
C 29.296875 61 31.296875 61.796875 31.296875 64.390625 
C 31.296875 68.015625 27.703125 70 23.703125 70 
C 18 70 10.203125 65.796875 10.203125 55.09375 
L 10.203125 43 
L 2.203125 43 
L 2.203125 40.390625 
L 10.203125 40.390625 
L 10.203125 6.890625 
C 10.203125 3.09375 9.796875 2.59375 3.40625 2.59375 
L 3.40625 0 
C 5.796875 0.1875 10.40625 0.1875 13 0.1875 
C 15.90625 0.1875 21 0.1875 23.703125 0 
L 23.703125 2.59375 
C 16.5 2.59375 15.296875 2.59375 15.296875 7.09375 
z
" id="CMR17-102"/>
      <path d="M 29.09375 23 
C 30.59375 23 32.296875 23 32.296875 24.59375 
C 32.296875 25.890625 31.296875 25.890625 29.5 25.890625 
L 13.296875 25.890625 
C 15.796875 34.75 21.703125 40.09375 30.59375 40.09375 
L 33.5 40.09375 
C 35.203125 40.09375 36.703125 40.09375 36.703125 41.6875 
C 36.703125 43 35.59375 43 33.796875 43 
L 30.40625 43 
C 18.09375 43 4.59375 33.375 4.59375 17.828125 
C 4.59375 6.5625 12.09375 -1 22 -1 
C 28.40625 -1 34.703125 3.015625 34.703125 4.03125 
C 34.703125 4.640625 34.40625 5.25 33.796875 5.25 
C 33.5 5.25 33.296875 5.15625 32.796875 4.75 
C 29 2.203125 25.296875 1 22.296875 1 
C 17 1 11.40625 4.546875 11.40625 14.375 
C 11.40625 16.296875 11.59375 18.9375 12.5 23 
z
" id="CMMI12-15"/>
     </defs>
     <g transform="translate(17.718498 109.58945)rotate(-90)scale(0.1 -0.1)">
      <use transform="scale(0.996264)" xlink:href="#CMR17-116"/>
      <use transform="translate(35.280768 0)scale(0.996264)" xlink:href="#CMR17-114"/>
      <use transform="translate(70.561536 0)scale(0.996264)" xlink:href="#CMR17-97"/>
      <use transform="translate(116.252013 0)scale(0.996264)" xlink:href="#CMR17-110"/>
      <use transform="translate(167.147382 0)scale(0.996264)" xlink:href="#CMR17-115"/>
      <use transform="translate(202.94872 0)scale(0.996264)" xlink:href="#CMR17-102"/>
      <use transform="translate(230.422233 0)scale(0.996264)" xlink:href="#CMR17-101"/>
      <use transform="translate(270.907893 0)scale(0.996264)" xlink:href="#CMR17-114"/>
      <use transform="translate(336.264627 0)scale(0.996264)" xlink:href="#CMR17-101"/>
      <use transform="translate(376.750288 0)scale(0.996264)" xlink:href="#CMR17-114"/>
      <use transform="translate(412.031055 0)scale(0.996264)" xlink:href="#CMR17-114"/>
      <use transform="translate(447.311823 0)scale(0.996264)" xlink:href="#CMR17-111"/>
      <use transform="translate(493.0023 0)scale(0.996264)" xlink:href="#CMR17-114"/>
      <use transform="translate(558.359034 0)scale(0.996264)" xlink:href="#CMMI12-15"/>
     </g>
    </g>
   </g>
   <g id="line2d_17">
    <path clip-path="url(#p7ed1e4af42)" d="M 51.955662 42.70326 
L 53.66478 39.570389 
L 56.51331 39.712918 
L 59.361841 42.90384 
L 62.210371 43.139507 
L 73.604492 47.689643 
L 84.998612 52.457506 
L 96.392733 57.330283 
L 107.786854 62.113697 
L 119.180974 69.584411 
L 130.575095 75.763596 
L 141.969216 80.605247 
L 153.363337 85.375836 
L 164.757457 90.880951 
L 176.151578 96.801527 
L 187.545699 99.486453 
L 198.93982 102.841965 
L 210.33394 103.695218 
L 221.728061 107.510024 
L 233.122182 111.111687 
L 244.516303 115.891892 
L 255.910423 116.555058 
L 267.304544 122.456437 
L 278.698665 128.401408 
" style="fill:none;stroke:#0088ff;stroke-linecap:square;stroke-width:1.5;"/>
    <defs>
     <path d="M -2 2 
L 2 2 
L 2 -2 
L -2 -2 
z
" id="mbb4ae442fb" style="stroke:#0088ff;stroke-linejoin:miter;"/>
    </defs>
    <g clip-path="url(#p7ed1e4af42)">
     <use style="fill:#ffffff;stroke:#0088ff;stroke-linejoin:miter;" x="51.955662" xlink:href="#mbb4ae442fb" y="42.70326"/>
     <use style="fill:#ffffff;stroke:#0088ff;stroke-linejoin:miter;" x="53.66478" xlink:href="#mbb4ae442fb" y="39.570389"/>
     <use style="fill:#ffffff;stroke:#0088ff;stroke-linejoin:miter;" x="56.51331" xlink:href="#mbb4ae442fb" y="39.712918"/>
     <use style="fill:#ffffff;stroke:#0088ff;stroke-linejoin:miter;" x="59.361841" xlink:href="#mbb4ae442fb" y="42.90384"/>
     <use style="fill:#ffffff;stroke:#0088ff;stroke-linejoin:miter;" x="62.210371" xlink:href="#mbb4ae442fb" y="43.139507"/>
     <use style="fill:#ffffff;stroke:#0088ff;stroke-linejoin:miter;" x="73.604492" xlink:href="#mbb4ae442fb" y="47.689643"/>
     <use style="fill:#ffffff;stroke:#0088ff;stroke-linejoin:miter;" x="84.998612" xlink:href="#mbb4ae442fb" y="52.457506"/>
     <use style="fill:#ffffff;stroke:#0088ff;stroke-linejoin:miter;" x="96.392733" xlink:href="#mbb4ae442fb" y="57.330283"/>
     <use style="fill:#ffffff;stroke:#0088ff;stroke-linejoin:miter;" x="107.786854" xlink:href="#mbb4ae442fb" y="62.113697"/>
     <use style="fill:#ffffff;stroke:#0088ff;stroke-linejoin:miter;" x="119.180974" xlink:href="#mbb4ae442fb" y="69.584411"/>
     <use style="fill:#ffffff;stroke:#0088ff;stroke-linejoin:miter;" x="130.575095" xlink:href="#mbb4ae442fb" y="75.763596"/>
     <use style="fill:#ffffff;stroke:#0088ff;stroke-linejoin:miter;" x="141.969216" xlink:href="#mbb4ae442fb" y="80.605247"/>
     <use style="fill:#ffffff;stroke:#0088ff;stroke-linejoin:miter;" x="153.363337" xlink:href="#mbb4ae442fb" y="85.375836"/>
     <use style="fill:#ffffff;stroke:#0088ff;stroke-linejoin:miter;" x="164.757457" xlink:href="#mbb4ae442fb" y="90.880951"/>
     <use style="fill:#ffffff;stroke:#0088ff;stroke-linejoin:miter;" x="176.151578" xlink:href="#mbb4ae442fb" y="96.801527"/>
     <use style="fill:#ffffff;stroke:#0088ff;stroke-linejoin:miter;" x="187.545699" xlink:href="#mbb4ae442fb" y="99.486453"/>
     <use style="fill:#ffffff;stroke:#0088ff;stroke-linejoin:miter;" x="198.93982" xlink:href="#mbb4ae442fb" y="102.841965"/>
     <use style="fill:#ffffff;stroke:#0088ff;stroke-linejoin:miter;" x="210.33394" xlink:href="#mbb4ae442fb" y="103.695218"/>
     <use style="fill:#ffffff;stroke:#0088ff;stroke-linejoin:miter;" x="221.728061" xlink:href="#mbb4ae442fb" y="107.510024"/>
     <use style="fill:#ffffff;stroke:#0088ff;stroke-linejoin:miter;" x="233.122182" xlink:href="#mbb4ae442fb" y="111.111687"/>
     <use style="fill:#ffffff;stroke:#0088ff;stroke-linejoin:miter;" x="244.516303" xlink:href="#mbb4ae442fb" y="115.891892"/>
     <use style="fill:#ffffff;stroke:#0088ff;stroke-linejoin:miter;" x="255.910423" xlink:href="#mbb4ae442fb" y="116.555058"/>
     <use style="fill:#ffffff;stroke:#0088ff;stroke-linejoin:miter;" x="267.304544" xlink:href="#mbb4ae442fb" y="122.456437"/>
     <use style="fill:#ffffff;stroke:#0088ff;stroke-linejoin:miter;" x="278.698665" xlink:href="#mbb4ae442fb" y="128.401408"/>
    </g>
   </g>
   <g id="line2d_18">
    <path clip-path="url(#p7ed1e4af42)" d="M 51.955662 28.486383 
L 53.66478 36.148033 
L 56.51331 45.316054 
L 59.361841 52.786955 
L 62.210371 58.774173 
L 73.604492 76.997388 
L 84.998612 90.677265 
L 96.392733 107.020195 
L 107.786854 111.067171 
L 119.180974 114.761006 
L 130.575095 111.324176 
L 141.969216 112.663442 
L 153.363337 115.342607 
L 164.757457 117.854549 
L 176.151578 117.963966 
L 187.545699 118.522986 
L 198.93982 118.238091 
L 210.33394 113.620202 
L 221.728061 118.441786 
L 233.122182 124.904863 
L 244.516303 124.455487 
L 255.910423 126.774915 
L 267.304544 126.930004 
L 278.698665 129.714417 
" style="fill:none;stroke:#dd5500;stroke-linecap:square;stroke-width:1.5;"/>
    <defs>
     <path d="M 0 2 
C 0.530406 2 1.03916 1.789267 1.414214 1.414214 
C 1.789267 1.03916 2 0.530406 2 0 
C 2 -0.530406 1.789267 -1.03916 1.414214 -1.414214 
C 1.03916 -1.789267 0.530406 -2 0 -2 
C -0.530406 -2 -1.03916 -1.789267 -1.414214 -1.414214 
C -1.789267 -1.03916 -2 -0.530406 -2 0 
C -2 0.530406 -1.789267 1.03916 -1.414214 1.414214 
C -1.03916 1.789267 -0.530406 2 0 2 
z
" id="m7aef41698f" style="stroke:#dd5500;"/>
    </defs>
    <g clip-path="url(#p7ed1e4af42)">
     <use style="fill:#ffffff;stroke:#dd5500;" x="51.955662" xlink:href="#m7aef41698f" y="28.486383"/>
     <use style="fill:#ffffff;stroke:#dd5500;" x="53.66478" xlink:href="#m7aef41698f" y="36.148033"/>
     <use style="fill:#ffffff;stroke:#dd5500;" x="56.51331" xlink:href="#m7aef41698f" y="45.316054"/>
     <use style="fill:#ffffff;stroke:#dd5500;" x="59.361841" xlink:href="#m7aef41698f" y="52.786955"/>
     <use style="fill:#ffffff;stroke:#dd5500;" x="62.210371" xlink:href="#m7aef41698f" y="58.774173"/>
     <use style="fill:#ffffff;stroke:#dd5500;" x="73.604492" xlink:href="#m7aef41698f" y="76.997388"/>
     <use style="fill:#ffffff;stroke:#dd5500;" x="84.998612" xlink:href="#m7aef41698f" y="90.677265"/>
     <use style="fill:#ffffff;stroke:#dd5500;" x="96.392733" xlink:href="#m7aef41698f" y="107.020195"/>
     <use style="fill:#ffffff;stroke:#dd5500;" x="107.786854" xlink:href="#m7aef41698f" y="111.067171"/>
     <use style="fill:#ffffff;stroke:#dd5500;" x="119.180974" xlink:href="#m7aef41698f" y="114.761006"/>
     <use style="fill:#ffffff;stroke:#dd5500;" x="130.575095" xlink:href="#m7aef41698f" y="111.324176"/>
     <use style="fill:#ffffff;stroke:#dd5500;" x="141.969216" xlink:href="#m7aef41698f" y="112.663442"/>
     <use style="fill:#ffffff;stroke:#dd5500;" x="153.363337" xlink:href="#m7aef41698f" y="115.342607"/>
     <use style="fill:#ffffff;stroke:#dd5500;" x="164.757457" xlink:href="#m7aef41698f" y="117.854549"/>
     <use style="fill:#ffffff;stroke:#dd5500;" x="176.151578" xlink:href="#m7aef41698f" y="117.963966"/>
     <use style="fill:#ffffff;stroke:#dd5500;" x="187.545699" xlink:href="#m7aef41698f" y="118.522986"/>
     <use style="fill:#ffffff;stroke:#dd5500;" x="198.93982" xlink:href="#m7aef41698f" y="118.238091"/>
     <use style="fill:#ffffff;stroke:#dd5500;" x="210.33394" xlink:href="#m7aef41698f" y="113.620202"/>
     <use style="fill:#ffffff;stroke:#dd5500;" x="221.728061" xlink:href="#m7aef41698f" y="118.441786"/>
     <use style="fill:#ffffff;stroke:#dd5500;" x="233.122182" xlink:href="#m7aef41698f" y="124.904863"/>
     <use style="fill:#ffffff;stroke:#dd5500;" x="244.516303" xlink:href="#m7aef41698f" y="124.455487"/>
     <use style="fill:#ffffff;stroke:#dd5500;" x="255.910423" xlink:href="#m7aef41698f" y="126.774915"/>
     <use style="fill:#ffffff;stroke:#dd5500;" x="267.304544" xlink:href="#m7aef41698f" y="126.930004"/>
     <use style="fill:#ffffff;stroke:#dd5500;" x="278.698665" xlink:href="#m7aef41698f" y="129.714417"/>
    </g>
   </g>
   <g id="line2d_19">
    <path clip-path="url(#p7ed1e4af42)" d="M 51.955662 114.452084 
L 53.66478 115.451076 
L 56.51331 115.451076 
L 59.361841 114.452084 
L 62.210371 114.452084 
L 73.604492 113.533102 
L 84.998612 112.682257 
L 96.392733 111.890139 
L 107.786854 111.149162 
L 119.180974 109.796877 
L 130.575095 108.587216 
L 141.969216 108.027049 
L 153.363337 107.492945 
L 164.757457 106.982588 
L 176.151578 106.025271 
L 187.545699 106.025271 
L 198.93982 105.574971 
L 210.33394 107.492945 
L 221.728061 105.141669 
L 233.122182 104.321237 
L 244.516303 107.492945 
L 255.910423 106.025271 
L 267.304544 108.587216 
L 278.698665 108.027049 
" style="fill:none;stroke:#000000;stroke-dasharray:5.55,2.4;stroke-dashoffset:0;stroke-width:1.5;"/>
   </g>
   <g id="patch_3">
    <path d="M 50.81625 142.981683 
L 50.81625 10.8 
" style="fill:none;stroke:#000000;stroke-linecap:square;stroke-linejoin:miter;stroke-width:0.8;"/>
   </g>
   <g id="patch_4">
    <path d="M 278.698665 142.981683 
L 278.698665 10.8 
" style="fill:none;stroke:#000000;stroke-linecap:square;stroke-linejoin:miter;stroke-width:0.8;"/>
   </g>
   <g id="patch_5">
    <path d="M 50.81625 142.981683 
L 278.698665 142.981683 
" style="fill:none;stroke:#000000;stroke-linecap:square;stroke-linejoin:miter;stroke-width:0.8;"/>
   </g>
   <g id="patch_6">
    <path d="M 50.81625 10.8 
L 278.698665 10.8 
" style="fill:none;stroke:#000000;stroke-linecap:square;stroke-linejoin:miter;stroke-width:0.8;"/>
   </g>
   <g id="legend_1">
    <g id="patch_7">
     <path d="M 159.340264 62.633276 
L 271.698665 62.633276 
Q 273.698665 62.633276 273.698665 60.633276 
L 273.698665 17.8 
Q 273.698665 15.8 271.698665 15.8 
L 159.340264 15.8 
Q 157.340264 15.8 157.340264 17.8 
L 157.340264 60.633276 
Q 157.340264 62.633276 159.340264 62.633276 
z
" style="fill:#ffffff;opacity:0.8;stroke:#cccccc;stroke-linejoin:miter;"/>
    </g>
    <g id="line2d_20">
     <path d="M 161.340264 23.3 
L 181.340264 23.3 
" style="fill:none;stroke:#0088ff;stroke-linecap:square;stroke-width:1.5;"/>
    </g>
    <g id="line2d_21">
     <defs>
      <path d="M -3 3 
L 3 3 
L 3 -3 
L -3 -3 
z
" id="mca694f8a5e" style="stroke:#0088ff;stroke-linejoin:miter;"/>
     </defs>
     <g>
      <use style="fill:#ffffff;stroke:#0088ff;stroke-linejoin:miter;" x="171.340264" xlink:href="#mca694f8a5e" y="23.3"/>
     </g>
    </g>
    <g id="text_11">
     <!-- linear -->
     <defs>
      <path d="M 15.296875 69 
L 3.40625 67.890625 
L 3.40625 65.296875 
C 9.296875 65.296875 10.203125 64.703125 10.203125 59.921875 
L 10.203125 6.859375 
C 10.203125 3.09375 9.796875 2.59375 3.40625 2.59375 
L 3.40625 0 
C 5.796875 0.1875 10.203125 0.1875 12.703125 0.1875 
C 15.296875 0.1875 19.703125 0.1875 22.09375 0 
L 22.09375 2.59375 
C 15.703125 2.59375 15.296875 2.984375 15.296875 6.859375 
z
" id="CMR17-108"/>
     </defs>
     <g transform="translate(189.340264 26.8)scale(0.1 -0.1)">
      <use transform="scale(0.996264)" xlink:href="#CMR17-108"/>
      <use transform="translate(24.871058 0)scale(0.996264)" xlink:href="#CMR17-105"/>
      <use transform="translate(49.742117 0)scale(0.996264)" xlink:href="#CMR17-110"/>
      <use transform="translate(100.637487 0)scale(0.996264)" xlink:href="#CMR17-101"/>
      <use transform="translate(141.123147 0)scale(0.996264)" xlink:href="#CMR17-97"/>
      <use transform="translate(186.813624 0)scale(0.996264)" xlink:href="#CMR17-114"/>
     </g>
    </g>
    <g id="line2d_22">
     <path d="M 161.340264 37.237178 
L 181.340264 37.237178 
" style="fill:none;stroke:#dd5500;stroke-linecap:square;stroke-width:1.5;"/>
    </g>
    <g id="line2d_23">
     <defs>
      <path d="M 0 3 
C 0.795609 3 1.55874 2.683901 2.12132 2.12132 
C 2.683901 1.55874 3 0.795609 3 0 
C 3 -0.795609 2.683901 -1.55874 2.12132 -2.12132 
C 1.55874 -2.683901 0.795609 -3 0 -3 
C -0.795609 -3 -1.55874 -2.683901 -2.12132 -2.12132 
C -2.683901 -1.55874 -3 -0.795609 -3 0 
C -3 0.795609 -2.683901 1.55874 -2.12132 2.12132 
C -1.55874 2.683901 -0.795609 3 0 3 
z
" id="made710e78b" style="stroke:#dd5500;"/>
     </defs>
     <g>
      <use style="fill:#ffffff;stroke:#dd5500;" x="171.340264" xlink:href="#made710e78b" y="37.237178"/>
     </g>
    </g>
    <g id="text_12">
     <!-- shaped -->
     <defs>
      <path d="M 41.5 30.53125 
C 41.5 35.65625 40.5 44 28.703125 44 
C 20.5 44 16.5 37.375 15.296875 34.046875 
L 15.203125 34.046875 
L 15.203125 69 
L 3.296875 67.890625 
L 3.296875 65.296875 
C 9.203125 65.296875 10.09375 64.703125 10.09375 60.046875 
L 10.09375 6.921875 
C 10.09375 3.09375 9.703125 2.59375 3.296875 2.59375 
L 3.296875 0 
C 5.703125 0.1875 10.09375 0.1875 12.703125 0.1875 
C 15.296875 0.1875 19.796875 0.1875 22.203125 0 
L 22.203125 2.59375 
C 15.796875 2.59375 15.40625 3 15.40625 6.921875 
L 15.40625 26.21875 
C 15.40625 35.453125 21 42.390625 28 42.390625 
C 35.40625 42.390625 36.203125 35.765625 36.203125 30.9375 
L 36.203125 6.921875 
C 36.203125 3.09375 35.796875 2.59375 29.40625 2.59375 
L 29.40625 0 
C 31.796875 0.1875 36.203125 0.1875 38.796875 0.1875 
C 41.40625 0.1875 45.90625 0.1875 48.296875 0 
L 48.296875 2.59375 
C 41.90625 2.59375 41.5 3 41.5 6.921875 
z
" id="CMR17-104"/>
      <path d="M 22 -17.40625 
C 15.59375 -17.40625 15.203125 -17 15.203125 -13.03125 
L 15.203125 5.9375 
C 18.09375 1.703125 22.296875 -1 27.59375 -1 
C 37.59375 -1 47.703125 7.859375 47.703125 21.59375 
C 47.703125 34.3125 39 44 28.703125 44 
C 22.703125 44 17.796875 40.671875 15 36.640625 
L 15 44 
L 3.09375 42.890625 
L 3.09375 40.265625 
C 9 40.265625 9.90625 39.671875 9.90625 34.8125 
L 9.90625 -13.03125 
C 9.90625 -16.890625 9.5 -17.40625 3.09375 -17.40625 
L 3.09375 -20 
C 5.5 -19.8125 9.90625 -19.8125 12.5 -19.8125 
C 15.09375 -19.8125 19.59375 -19.8125 22 -20 
z
M 15.203125 31.484375 
C 15.203125 32.90625 15.203125 35.015625 19.09375 38.765625 
C 19.59375 39.15625 23 42.1875 28 42.1875 
C 35.296875 42.1875 41.296875 33 41.296875 21.5 
C 41.296875 9.984375 34.90625 0.59375 27 0.59375 
C 23.40625 0.59375 19.5 2.3125 16.5 7.046875 
C 15.203125 9.28125 15.203125 9.875 15.203125 11.5 
z
" id="CMR17-112"/>
      <path d="M 29.203125 67.890625 
L 29.203125 65.296875 
C 35.09375 65.296875 36 64.703125 36 60.046875 
L 36 37.046875 
C 35.59375 37.546875 31.5 44 23.40625 44 
C 13.203125 44 3.296875 34.8125 3.296875 21.5 
C 3.296875 8.265625 12.59375 -1 22.40625 -1 
C 30.90625 -1 35.296875 5.640625 35.796875 6.34375 
L 35.796875 -1 
L 47.90625 -0.203125 
L 47.90625 2.40625 
C 42 2.40625 41.09375 3.015625 41.09375 7.859375 
L 41.09375 69 
z
M 35.796875 11.90625 
C 35.796875 8.875 34 6.140625 31.703125 4.125 
C 28.296875 1.09375 24.90625 0.59375 23 0.59375 
C 20.09375 0.59375 9.703125 2.109375 9.703125 21.390625 
C 9.703125 41.1875 21.296875 42.390625 23.90625 42.390625 
C 28.5 42.390625 32.203125 39.765625 34.5 36.140625 
C 35.796875 34.015625 35.796875 33.703125 35.796875 31.890625 
z
" id="CMR17-100"/>
     </defs>
     <g transform="translate(189.340264 40.737178)scale(0.1 -0.1)">
      <use transform="scale(0.996264)" xlink:href="#CMR17-115"/>
      <use transform="translate(35.801338 0)scale(0.996264)" xlink:href="#CMR17-104"/>
      <use transform="translate(86.696707 0)scale(0.996264)" xlink:href="#CMR17-97"/>
      <use transform="translate(132.387185 0)scale(0.996264)" xlink:href="#CMR17-112"/>
      <use transform="translate(185.884993 0)scale(0.996264)" xlink:href="#CMR17-101"/>
      <use transform="translate(226.370654 0)scale(0.996264)" xlink:href="#CMR17-100"/>
     </g>
    </g>
    <g id="line2d_24">
     <path d="M 161.340264 51.646337 
L 181.340264 51.646337 
" style="fill:none;stroke:#000000;stroke-dasharray:5.55,2.4;stroke-dashoffset:0;stroke-width:1.5;"/>
    </g>
    <g id="line2d_25"/>
    <g id="text_13">
     <!-- $t_\textrm{f}/T_1$, $T_1 = 0.1\ \textrm{ms}$ -->
     <defs>
      <path d="M 20.09375 40.09375 
L 29.296875 40.09375 
C 31.203125 40.09375 32.203125 40.09375 32.203125 41.890625 
C 32.203125 43 31.59375 43 29.59375 43 
L 20.796875 43 
L 24.5 57.25 
C 24.90625 58.625 24.90625 58.8125 24.90625 59.5 
C 24.90625 61.09375 23.59375 62 22.296875 62 
C 21.5 62 19.203125 61.6875 18.40625 58.53125 
L 14.5 43 
L 5.09375 43 
C 3.09375 43 2.203125 43 2.203125 41.09375 
C 2.203125 40.09375 2.90625 40.09375 4.796875 40.09375 
L 13.703125 40.09375 
L 7.09375 13.765625 
C 6.296875 10.265625 6 9.265625 6 7.96875 
C 6 3.28125 9.296875 -1 14.90625 -1 
C 25 -1 30.40625 13.5625 30.40625 14.265625 
C 30.40625 14.859375 30 15.15625 29.40625 15.15625 
C 29.203125 15.15625 28.796875 15.15625 28.59375 14.75 
C 28.5 14.65625 28.40625 14.5625 27.703125 12.96875 
C 25.59375 7.96875 21 1 15.203125 1 
C 12.203125 1 12 3.484375 12 5.6875 
C 12 5.78125 12 7.671875 12.296875 8.875 
z
" id="CMMI12-116"/>
      <path d="M 42.90625 71.296875 
C 42.90625 71.390625 43.5 72.890625 43.5 73.09375 
C 43.5 74.296875 42.5 75 41.703125 75 
C 41.203125 75 40.296875 75 39.5 72.796875 
L 6 -21.3125 
C 6 -21.40625 5.40625 -22.90625 5.40625 -23.109375 
C 5.40625 -24.3125 6.40625 -25 7.203125 -25 
C 7.796875 -25 8.703125 -24.90625 9.40625 -22.8125 
z
" id="CMMI12-61"/>
      <path d="M 41.703125 60.71875 
C 42.296875 63.09375 42.5 64 44 64.390625 
C 44.796875 64.59375 48.09375 64.59375 50.203125 64.59375 
C 60.203125 64.59375 64.90625 64.203125 64.90625 56.4375 
C 64.90625 54.9375 64.5 51.15625 63.90625 47.46875 
L 63.796875 46.28125 
C 63.796875 45.890625 64.203125 45.28125 64.796875 45.28125 
C 65.796875 45.28125 65.796875 45.78125 66.09375 47.375 
L 69 64.984375 
C 69.203125 65.890625 69.203125 66.09375 69.203125 66.390625 
C 69.203125 67.484375 68.59375 67.484375 66.59375 67.484375 
L 11.90625 67.484375 
C 9.59375 67.484375 9.5 67.390625 8.90625 65.59375 
L 2.796875 47.671875 
C 2.703125 47.46875 2.40625 46.375 2.40625 46.28125 
C 2.40625 45.78125 2.796875 45.28125 3.40625 45.28125 
C 4.203125 45.28125 4.40625 45.6875 4.796875 46.984375 
C 9 59.015625 11.09375 64.59375 24.40625 64.59375 
L 31.09375 64.59375 
C 33.5 64.59375 34.5 64.59375 34.5 63.5 
C 34.5 63.203125 34.5 63 34 61.203125 
L 20.59375 7.765625 
C 19.59375 3.890625 19.40625 2.890625 8.796875 2.890625 
C 6.296875 2.890625 5.59375 2.890625 5.59375 1 
C 5.59375 0 6.703125 0 7.203125 0 
C 9.703125 0 12.296875 0.1875 14.796875 0.1875 
L 30.40625 0.1875 
C 32.90625 0.1875 35.59375 0 38.09375 0 
C 39.203125 0 40.203125 0 40.203125 1.890625 
C 40.203125 2.890625 39.5 2.890625 36.90625 2.890625 
C 27.90625 2.890625 27.90625 3.78125 27.90625 5.28125 
C 27.90625 5.375 27.90625 6.078125 28.296875 7.671875 
z
" id="CMMI12-84"/>
      <path d="M 15.796875 1.59375 
C 16 0.6875 16 0.390625 16 -1.1875 
C 16 -7.046875 14 -12.421875 9.796875 -17.3125 
C 9.296875 -17.8125 9.296875 -18 9.296875 -18.203125 
C 9.296875 -18.609375 9.703125 -19 10.09375 -19 
C 10.703125 -19 17.59375 -12.125 17.59375 -1.28125 
C 17.59375 2 17.203125 8.1875 12.5 8.1875 
C 10.296875 8.1875 8.40625 6.6875 8.40625 4.09375 
C 8.40625 1.5 10.296875 0 12.5 0 
C 13.703125 0 15 0.5 15.796875 1.59375 
z
" id="CMR17-44"/>
      <path d="M 64.296875 32 
C 65.796875 32 67.296875 32 67.296875 33.6875 
C 67.296875 35.5 65.59375 35.5 63.90625 35.5 
L 8 35.5 
C 6.296875 35.5 4.59375 35.5 4.59375 33.6875 
C 4.59375 32 6.09375 32 7.59375 32 
z
M 63.90625 14.484375 
C 65.59375 14.484375 67.296875 14.484375 67.296875 16.296875 
C 67.296875 18 65.796875 18 64.296875 18 
L 7.59375 18 
C 6.09375 18 4.59375 18 4.59375 16.296875 
C 4.59375 14.484375 6.296875 14.484375 8 14.484375 
z
" id="CMR17-61"/>
      <path d="M 18.40625 4.796875 
C 18.40625 7.6875 16 9.6875 13.59375 9.6875 
C 10.703125 9.6875 8.703125 7.296875 8.703125 4.890625 
C 8.703125 2 11.09375 0 13.5 0 
C 16.40625 0 18.40625 2.390625 18.40625 4.796875 
z
" id="CMMI12-58"/>
     </defs>
     <g transform="translate(189.340264 55.146337)scale(0.1 -0.1)">
      <use transform="scale(0.996264)" xlink:href="#CMMI12-116"/>
      <use transform="translate(35.22633 -34.869286)scale(0.996264)" xlink:href="#CMR17-102"/>
      <use transform="translate(63.197975 0)scale(0.996264)" xlink:href="#CMMI12-61"/>
      <use transform="translate(111.972893 0)scale(0.996264)" xlink:href="#CMMI12-84"/>
      <use transform="translate(169.147937 -14.943915)scale(0.697382)" xlink:href="#CMR17-49"/>
      <use transform="translate(201.629251 0)scale(0.996264)" xlink:href="#CMR17-44"/>
      <use transform="translate(256.576276 0)scale(0.996264)" xlink:href="#CMMI12-84"/>
      <use transform="translate(313.75132 -14.943915)scale(0.697382)" xlink:href="#CMR17-49"/>
      <use transform="translate(373.906642 0)scale(0.996264)" xlink:href="#CMR17-61"/>
      <use transform="translate(473.295439 0)scale(0.996264)" xlink:href="#CMR17-48"/>
      <use transform="translate(518.985916 0)scale(0.996264)" xlink:href="#CMMI12-58"/>
      <use transform="translate(546.083094 0)scale(0.996264)" xlink:href="#CMR17-49"/>
      <use transform="translate(621.849537 0)scale(0.996264)" xlink:href="#CMR17-109"/>
      <use transform="translate(698.769127 0)scale(0.996264)" xlink:href="#CMR17-115"/>
     </g>
    </g>
   </g>
  </g>
 </g>
 <defs>
  <clipPath id="p7ed1e4af42">
   <rect height="132.181683" width="227.882415" x="50.81625" y="10.8"/>
  </clipPath>
 </defs>
</svg>
