<?xml version="1.0" encoding="utf-8" standalone="no"?>
<!DOCTYPE svg PUBLIC "-//W3C//DTD SVG 1.1//EN"
  "http://www.w3.org/Graphics/SVG/1.1/DTD/svg11.dtd">
<!-- Created with matplotlib (https://matplotlib.org/) -->
<svg height="293.04pt" version="1.1" viewBox="0 0 396 293.04" width="396pt" xmlns="http://www.w3.org/2000/svg" xmlns:xlink="http://www.w3.org/1999/xlink">
 <defs>
  <style type="text/css">
*{stroke-linecap:butt;stroke-linejoin:round;}
  </style>
 </defs>
 <g id="figure_1">
  <g id="patch_1">
   <path d="M 0 293.04 
L 396 293.04 
L 396 0 
L 0 0 
z
" style="fill:#ffffff;"/>
  </g>
  <g id="axes_1">
   <g id="patch_2">
    <path d="M 37.960573 252.061948 
L 378.233046 252.061948 
L 378.233046 14.259249 
L 37.960573 14.259249 
z
" style="fill:#ffffff;"/>
   </g>
   <g id="PolyCollection_1">
    <path clip-path="url(#pd7db0484e6)" d="M 43.072607 21.296733 
L 43.072607 21.485895 
L 44.762878 21.485895 
L 44.762878 21.646792 
L 48.114483 21.646792 
L 48.114483 21.785438 
L 51.466087 21.785438 
L 51.466087 21.903706 
L 54.817692 21.903706 
L 54.817692 22.113922 
L 58.169296 22.113922 
L 58.169296 22.27088 
L 61.5209 22.27088 
L 61.5209 22.504576 
L 64.872505 22.504576 
L 64.872505 22.637705 
L 68.224109 22.637705 
L 68.224109 22.935448 
L 71.575714 22.935448 
L 71.575714 23.170909 
L 74.927318 23.170909 
L 74.927318 23.425041 
L 78.278922 23.425041 
L 78.278922 23.743335 
L 81.630527 23.743335 
L 81.630527 24.044014 
L 84.982131 24.044014 
L 84.982131 24.414419 
L 88.333736 24.414419 
L 88.333736 24.707472 
L 91.68534 24.707472 
L 91.68534 25.104668 
L 95.036944 25.104668 
L 95.036944 25.513484 
L 98.388549 25.513484 
L 98.388549 25.914153 
L 101.740153 25.914153 
L 101.740153 26.372063 
L 105.091757 26.372063 
L 105.091757 26.873003 
L 108.443362 26.873003 
L 108.443362 27.422998 
L 111.794966 27.422998 
L 111.794966 27.978868 
L 115.146571 27.978868 
L 115.146571 28.586664 
L 118.498175 28.586664 
L 118.498175 29.265664 
L 121.849779 29.265664 
L 121.849779 30.031518 
L 125.201384 30.031518 
L 125.201384 30.730007 
L 128.552988 30.730007 
L 128.552988 31.570213 
L 131.904593 31.570213 
L 131.904593 32.425376 
L 135.256197 32.425376 
L 135.256197 33.378675 
L 138.607801 33.378675 
L 138.607801 34.388681 
L 141.959406 34.388681 
L 141.959406 35.465643 
L 145.31101 35.465643 
L 145.31101 36.664344 
L 148.662615 36.664344 
L 148.662615 37.926504 
L 152.014219 37.926504 
L 152.014219 39.270038 
L 155.365823 39.270038 
L 155.365823 40.603475 
L 158.717428 40.603475 
L 158.717428 42.172741 
L 162.069032 42.172741 
L 162.069032 43.917517 
L 165.420636 43.917517 
L 165.420636 45.566351 
L 168.772241 45.566351 
L 168.772241 47.415909 
L 172.123845 47.415909 
L 172.123845 49.685933 
L 175.47545 49.685933 
L 175.47545 51.719848 
L 178.827054 51.719848 
L 178.827054 54.152841 
L 182.178658 54.152841 
L 182.178658 56.558017 
L 185.530263 56.558017 
L 185.530263 59.107717 
L 188.881867 59.107717 
L 188.881867 62.050444 
L 192.233472 62.050444 
L 192.233472 64.73958 
L 195.585076 64.73958 
L 195.585076 68.304491 
L 198.93668 68.304491 
L 198.93668 71.375857 
L 202.288285 71.375857 
L 202.288285 75.156457 
L 205.639889 75.156457 
L 205.639889 78.050127 
L 208.991494 78.050127 
L 208.991494 82.649456 
L 212.343098 82.649456 
L 212.343098 86.313939 
L 215.694702 86.313939 
L 215.694702 90.104879 
L 219.046307 90.104879 
L 219.046307 93.563386 
L 222.397911 93.563386 
L 222.397911 98.1373 
L 225.749516 98.1373 
L 225.749516 101.851912 
L 229.10112 101.851912 
L 229.10112 104.735702 
L 232.452724 104.735702 
L 232.452724 109.45173 
L 235.804329 109.45173 
L 235.804329 110.007656 
L 239.155933 110.007656 
L 239.155933 113.364933 
L 242.507537 113.364933 
L 242.507537 113.45036 
L 245.859142 113.45036 
L 245.859142 116.941488 
L 249.210746 116.941488 
L 249.210746 118.601933 
L 252.562351 118.601933 
L 252.562351 124.090043 
L 255.913955 124.090043 
L 255.913955 125.917319 
L 259.265559 125.917319 
L 259.265559 130.481162 
L 262.617164 130.481162 
L 262.617164 130.975935 
L 265.968768 130.975935 
L 265.968768 138.666325 
L 269.320373 138.666325 
L 269.320373 138.418108 
L 272.671977 138.418108 
L 272.671977 141.069193 
L 276.023581 141.069193 
L 276.023581 150.954259 
L 279.375186 150.954259 
L 279.375186 151.810279 
L 282.72679 151.810279 
L 282.72679 157.149672 
L 286.078395 157.149672 
L 286.078395 162.592821 
L 289.429999 162.592821 
L 289.429999 181.568973 
L 292.781603 181.568973 
L 292.781603 170.846046 
L 296.133208 170.846046 
L 296.133208 130.752806 
L 299.484812 130.752806 
L 299.484812 145.264 
L 302.836416 145.264 
L 302.836416 145.179753 
L 306.188021 145.179753 
L 306.188021 146.714721 
L 309.539625 146.714721 
L 309.539625 135.359441 
L 312.89123 135.359441 
L 312.89123 127.533671 
L 316.242834 127.533671 
L 316.242834 132.789317 
L 319.594438 132.789317 
L 319.594438 139.516433 
L 322.946043 139.516433 
L 322.946043 125.641734 
L 326.297647 125.641734 
L 326.297647 146.341497 
L 329.649252 146.341497 
L 329.649252 119.701559 
L 333.000856 119.701559 
L 333.000856 140.460173 
L 336.35246 140.460173 
L 336.35246 127.780791 
L 339.704065 127.780791 
L 339.704065 123.034713 
L 343.055669 123.034713 
L 343.055669 123.419277 
L 346.407274 123.419277 
L 346.407274 107.814987 
L 349.758878 107.814987 
L 349.758878 118.658778 
L 353.110482 118.658778 
L 353.110482 102.921657 
L 356.462087 102.921657 
L 356.462087 111.214074 
L 359.813691 111.214074 
L 359.813691 96.998219 
L 363.165296 96.998219 
L 363.165296 109.073173 
L 366.5169 109.073173 
L 366.5169 114.857709 
L 369.868504 114.857709 
L 369.868504 112.957498 
L 373.220109 112.957498 
L 373.220109 87.157761 
L 376.571713 87.157761 
L 376.571713 83.522015 
L 378.233046 83.522015 
L 378.233046 56.542894 
L 378.233046 56.542894 
L 376.571713 56.542894 
L 376.571713 52.162189 
L 373.220109 52.162189 
L 373.220109 58.873703 
L 369.868504 58.873703 
L 369.868504 73.449804 
L 366.5169 73.449804 
L 366.5169 57.821544 
L 363.165296 57.821544 
L 363.165296 58.934332 
L 359.813691 58.934332 
L 359.813691 62.203693 
L 356.462087 62.203693 
L 356.462087 70.83419 
L 353.110482 70.83419 
L 353.110482 72.164008 
L 349.758878 72.164008 
L 349.758878 69.441284 
L 346.407274 69.441284 
L 346.407274 85.499675 
L 343.055669 85.499675 
L 343.055669 84.961771 
L 339.704065 84.961771 
L 339.704065 91.100135 
L 336.35246 91.100135 
L 336.35246 88.24971 
L 333.000856 88.24971 
L 333.000856 94.003549 
L 329.649252 94.003549 
L 329.649252 89.005274 
L 326.297647 89.005274 
L 326.297647 86.37289 
L 322.946043 86.37289 
L 322.946043 97.573333 
L 319.594438 97.573333 
L 319.594438 87.730046 
L 316.242834 87.730046 
L 316.242834 94.843619 
L 312.89123 94.843619 
L 312.89123 96.716362 
L 309.539625 96.716362 
L 309.539625 113.266056 
L 306.188021 113.266056 
L 306.188021 94.557643 
L 302.836416 94.557643 
L 302.836416 104.968562 
L 299.484812 104.968562 
L 299.484812 112.617421 
L 296.133208 112.617421 
L 296.133208 117.566425 
L 292.781603 117.566425 
L 292.781603 122.136553 
L 289.429999 122.136553 
L 289.429999 111.830623 
L 286.078395 111.830623 
L 286.078395 120.254743 
L 282.72679 120.254743 
L 282.72679 116.600892 
L 279.375186 116.600892 
L 279.375186 123.902809 
L 276.023581 123.902809 
L 276.023581 111.984731 
L 272.671977 111.984731 
L 272.671977 108.772574 
L 269.320373 108.772574 
L 269.320373 124.241771 
L 265.968768 124.241771 
L 265.968768 107.268847 
L 262.617164 107.268847 
L 262.617164 113.580067 
L 259.265559 113.580067 
L 259.265559 117.481127 
L 255.913955 117.481127 
L 255.913955 113.553862 
L 252.562351 113.553862 
L 252.562351 110.004097 
L 249.210746 110.004097 
L 249.210746 107.381682 
L 245.859142 107.381682 
L 245.859142 103.623717 
L 242.507537 103.623717 
L 242.507537 105.37859 
L 239.155933 105.37859 
L 239.155933 102.677338 
L 235.804329 102.677338 
L 235.804329 103.904011 
L 232.452724 103.904011 
L 232.452724 97.470988 
L 229.10112 97.470988 
L 229.10112 97.47576 
L 225.749516 97.47576 
L 225.749516 95.091017 
L 222.397911 95.091017 
L 222.397911 91.067559 
L 219.046307 91.067559 
L 219.046307 86.846068 
L 215.694702 86.846068 
L 215.694702 82.690113 
L 212.343098 82.690113 
L 212.343098 80.076082 
L 208.991494 80.076082 
L 208.991494 76.057143 
L 205.639889 76.057143 
L 205.639889 72.506379 
L 202.288285 72.506379 
L 202.288285 68.824122 
L 198.93668 68.824122 
L 198.93668 66.012477 
L 195.585076 66.012477 
L 195.585076 63.229432 
L 192.233472 63.229432 
L 192.233472 60.791654 
L 188.881867 60.791654 
L 188.881867 57.422445 
L 185.530263 57.422445 
L 185.530263 55.174139 
L 182.178658 55.174139 
L 182.178658 53.421662 
L 178.827054 53.421662 
L 178.827054 51.06349 
L 175.47545 51.06349 
L 175.47545 49.047473 
L 172.123845 49.047473 
L 172.123845 46.767807 
L 168.772241 46.767807 
L 168.772241 45.166432 
L 165.420636 45.166432 
L 165.420636 43.439671 
L 162.069032 43.439671 
L 162.069032 41.732402 
L 158.717428 41.732402 
L 158.717428 40.129506 
L 155.365823 40.129506 
L 155.365823 38.882998 
L 152.014219 38.882998 
L 152.014219 37.508948 
L 148.662615 37.508948 
L 148.662615 36.296018 
L 145.31101 36.296018 
L 145.31101 35.18831 
L 141.959406 35.18831 
L 141.959406 34.056362 
L 138.607801 34.056362 
L 138.607801 33.065389 
L 135.256197 33.065389 
L 135.256197 32.095779 
L 131.904593 32.095779 
L 131.904593 31.259883 
L 128.552988 31.259883 
L 128.552988 30.404127 
L 125.201384 30.404127 
L 125.201384 29.814637 
L 121.849779 29.814637 
L 121.849779 28.992105 
L 118.498175 28.992105 
L 118.498175 28.347682 
L 115.146571 28.347682 
L 115.146571 27.741823 
L 111.794966 27.741823 
L 111.794966 27.200974 
L 108.443362 27.200974 
L 108.443362 26.667664 
L 105.091757 26.667664 
L 105.091757 26.119713 
L 101.740153 26.119713 
L 101.740153 25.727768 
L 98.388549 25.727768 
L 98.388549 25.306281 
L 95.036944 25.306281 
L 95.036944 24.878462 
L 91.68534 24.878462 
L 91.68534 24.520908 
L 88.333736 24.520908 
L 88.333736 24.193348 
L 84.982131 24.193348 
L 84.982131 23.846841 
L 81.630527 23.846841 
L 81.630527 23.543368 
L 78.278922 23.543368 
L 78.278922 23.248818 
L 74.927318 23.248818 
L 74.927318 23.006976 
L 71.575714 23.006976 
L 71.575714 22.833389 
L 68.224109 22.833389 
L 68.224109 22.477357 
L 64.872505 22.477357 
L 64.872505 22.364734 
L 61.5209 22.364734 
L 61.5209 22.118358 
L 58.169296 22.118358 
L 58.169296 21.927283 
L 54.817692 21.927283 
L 54.817692 21.738738 
L 51.466087 21.738738 
L 51.466087 21.625777 
L 48.114483 21.625777 
L 48.114483 21.430327 
L 44.762878 21.430327 
L 44.762878 21.296733 
L 43.072607 21.296733 
z
" style="fill:#dd5500;fill-opacity:0.15;"/>
   </g>
   <g id="PolyCollection_2">
    <path clip-path="url(#pd7db0484e6)" d="M 43.072607 22.415257 
L 43.072607 22.559223 
L 44.762878 22.559223 
L 44.762878 22.765516 
L 48.114483 22.765516 
L 48.114483 23.018145 
L 51.466087 23.018145 
L 51.466087 23.313637 
L 54.817692 23.313637 
L 54.817692 23.595323 
L 58.169296 23.595323 
L 58.169296 23.808994 
L 61.5209 23.808994 
L 61.5209 24.17178 
L 64.872505 24.17178 
L 64.872505 24.521885 
L 68.224109 24.521885 
L 68.224109 24.945743 
L 71.575714 24.945743 
L 71.575714 25.306107 
L 74.927318 25.306107 
L 74.927318 25.741651 
L 78.278922 25.741651 
L 78.278922 26.169998 
L 81.630527 26.169998 
L 81.630527 26.785936 
L 84.982131 26.785936 
L 84.982131 27.249931 
L 88.333736 27.249931 
L 88.333736 27.87357 
L 91.68534 27.87357 
L 91.68534 28.465265 
L 95.036944 28.465265 
L 95.036944 29.172916 
L 98.388549 29.172916 
L 98.388549 29.844488 
L 101.740153 29.844488 
L 101.740153 30.677103 
L 105.091757 30.677103 
L 105.091757 31.461473 
L 108.443362 31.461473 
L 108.443362 32.474965 
L 111.794966 32.474965 
L 111.794966 33.414772 
L 115.146571 33.414772 
L 115.146571 34.472356 
L 118.498175 34.472356 
L 118.498175 35.572444 
L 121.849779 35.572444 
L 121.849779 36.978305 
L 125.201384 36.978305 
L 125.201384 38.320934 
L 128.552988 38.320934 
L 128.552988 39.802698 
L 131.904593 39.802698 
L 131.904593 41.504919 
L 135.256197 41.504919 
L 135.256197 43.144715 
L 138.607801 43.144715 
L 138.607801 45.092683 
L 141.959406 45.092683 
L 141.959406 47.282101 
L 145.31101 47.282101 
L 145.31101 49.385312 
L 148.662615 49.385312 
L 148.662615 52.016131 
L 152.014219 52.016131 
L 152.014219 54.754261 
L 155.365823 54.754261 
L 155.365823 57.94395 
L 158.717428 57.94395 
L 158.717428 61.380253 
L 162.069032 61.380253 
L 162.069032 65.16913 
L 165.420636 65.16913 
L 165.420636 69.352119 
L 168.772241 69.352119 
L 168.772241 74.240485 
L 172.123845 74.240485 
L 172.123845 79.429553 
L 175.47545 79.429553 
L 175.47545 85.687678 
L 178.827054 85.687678 
L 178.827054 93.22908 
L 182.178658 93.22908 
L 182.178658 101.702739 
L 185.530263 101.702739 
L 185.530263 111.022504 
L 188.881867 111.022504 
L 188.881867 121.425368 
L 192.233472 121.425368 
L 192.233472 138.155656 
L 195.585076 138.155656 
L 195.585076 158.717343 
L 198.93668 158.717343 
L 198.93668 185.440015 
L 202.288285 185.440015 
L 202.288285 208.039253 
L 205.639889 208.039253 
L 205.639889 185.245126 
L 208.991494 185.245126 
L 208.991494 161.00814 
L 212.343098 161.00814 
L 212.343098 142.529118 
L 215.694702 142.529118 
L 215.694702 134.2095 
L 219.046307 134.2095 
L 219.046307 125.136011 
L 222.397911 125.136011 
L 222.397911 118.984803 
L 225.749516 118.984803 
L 225.749516 117.1268 
L 229.10112 117.1268 
L 229.10112 113.855566 
L 232.452724 113.855566 
L 232.452724 113.246034 
L 235.804329 113.246034 
L 235.804329 115.018633 
L 239.155933 115.018633 
L 239.155933 119.085372 
L 242.507537 119.085372 
L 242.507537 123.977284 
L 245.859142 123.977284 
L 245.859142 129.133661 
L 249.210746 129.133661 
L 249.210746 136.06729 
L 252.562351 136.06729 
L 252.562351 153.038373 
L 255.913955 153.038373 
L 255.913955 166.57808 
L 259.265559 166.57808 
L 259.265559 162.995893 
L 262.617164 162.995893 
L 262.617164 174.098426 
L 265.968768 174.098426 
L 265.968768 153.495429 
L 269.320373 153.495429 
L 269.320373 145.067904 
L 272.671977 145.067904 
L 272.671977 144.313399 
L 276.023581 144.313399 
L 276.023581 138.484788 
L 279.375186 138.484788 
L 279.375186 141.725392 
L 282.72679 141.725392 
L 282.72679 137.58572 
L 286.078395 137.58572 
L 286.078395 135.748028 
L 289.429999 135.748028 
L 289.429999 143.471433 
L 292.781603 143.471433 
L 292.781603 140.134964 
L 296.133208 140.134964 
L 296.133208 151.371764 
L 299.484812 151.371764 
L 299.484812 138.852083 
L 302.836416 138.852083 
L 302.836416 138.670401 
L 306.188021 138.670401 
L 306.188021 146.069373 
L 309.539625 146.069373 
L 309.539625 124.325044 
L 312.89123 124.325044 
L 312.89123 140.282682 
L 316.242834 140.282682 
L 316.242834 146.736414 
L 319.594438 146.736414 
L 319.594438 115.900436 
L 322.946043 115.900436 
L 322.946043 135.748303 
L 326.297647 135.748303 
L 326.297647 132.704439 
L 329.649252 132.704439 
L 329.649252 105.224362 
L 333.000856 105.224362 
L 333.000856 123.796855 
L 336.35246 123.796855 
L 336.35246 116.854494 
L 339.704065 116.854494 
L 339.704065 111.044817 
L 343.055669 111.044817 
L 343.055669 122.211435 
L 346.407274 122.211435 
L 346.407274 78.934814 
L 349.758878 78.934814 
L 349.758878 85.108335 
L 353.110482 85.108335 
L 353.110482 79.635663 
L 356.462087 79.635663 
L 356.462087 81.027989 
L 359.813691 81.027989 
L 359.813691 73.042347 
L 363.165296 73.042347 
L 363.165296 87.858055 
L 366.5169 87.858055 
L 366.5169 116.796971 
L 369.868504 116.796971 
L 369.868504 98.560948 
L 373.220109 98.560948 
L 373.220109 68.831468 
L 376.571713 68.831468 
L 376.571713 62.516659 
L 378.233046 62.516659 
L 378.233046 33.016491 
L 378.233046 33.016491 
L 376.571713 33.016491 
L 376.571713 36.393216 
L 373.220109 36.393216 
L 373.220109 47.656128 
L 369.868504 47.656128 
L 369.868504 60.375258 
L 366.5169 60.375258 
L 366.5169 51.321422 
L 363.165296 51.321422 
L 363.165296 50.253998 
L 359.813691 50.253998 
L 359.813691 46.604232 
L 356.462087 46.604232 
L 356.462087 53.017247 
L 353.110482 53.017247 
L 353.110482 57.445128 
L 349.758878 57.445128 
L 349.758878 58.383804 
L 346.407274 58.383804 
L 346.407274 62.012363 
L 343.055669 62.012363 
L 343.055669 71.14253 
L 339.704065 71.14253 
L 339.704065 71.422552 
L 336.35246 71.422552 
L 336.35246 80.407778 
L 333.000856 80.407778 
L 333.000856 66.846794 
L 329.649252 66.846794 
L 329.649252 86.510277 
L 326.297647 86.510277 
L 326.297647 81.761681 
L 322.946043 81.761681 
L 322.946043 82.317153 
L 319.594438 82.317153 
L 319.594438 96.953767 
L 316.242834 96.953767 
L 316.242834 84.760509 
L 312.89123 84.760509 
L 312.89123 86.918258 
L 309.539625 86.918258 
L 309.539625 108.712769 
L 306.188021 108.712769 
L 306.188021 99.493515 
L 302.836416 99.493515 
L 302.836416 101.372648 
L 299.484812 101.372648 
L 299.484812 105.883314 
L 296.133208 105.883314 
L 296.133208 101.492789 
L 292.781603 101.492789 
L 292.781603 114.672928 
L 289.429999 114.672928 
L 289.429999 93.173355 
L 286.078395 93.173355 
L 286.078395 108.420098 
L 282.72679 108.420098 
L 282.72679 107.254359 
L 279.375186 107.254359 
L 279.375186 116.193555 
L 276.023581 116.193555 
L 276.023581 114.592867 
L 272.671977 114.592867 
L 272.671977 122.274314 
L 269.320373 122.274314 
L 269.320373 118.722688 
L 265.968768 118.722688 
L 265.968768 140.060828 
L 262.617164 140.060828 
L 262.617164 135.695044 
L 259.265559 135.695044 
L 259.265559 128.262394 
L 255.913955 128.262394 
L 255.913955 121.956774 
L 252.562351 121.956774 
L 252.562351 120.328276 
L 249.210746 120.328276 
L 249.210746 118.130605 
L 245.859142 118.130605 
L 245.859142 116.859351 
L 242.507537 116.859351 
L 242.507537 109.352152 
L 239.155933 109.352152 
L 239.155933 108.233508 
L 235.804329 108.233508 
L 235.804329 108.769621 
L 232.452724 108.769621 
L 232.452724 104.687772 
L 229.10112 104.687772 
L 229.10112 112.48171 
L 225.749516 112.48171 
L 225.749516 112.412297 
L 222.397911 112.412297 
L 222.397911 118.348845 
L 219.046307 118.348845 
L 219.046307 129.357364 
L 215.694702 129.357364 
L 215.694702 133.732888 
L 212.343098 133.732888 
L 212.343098 151.704774 
L 208.991494 151.704774 
L 208.991494 167.796738 
L 205.639889 167.796738 
L 205.639889 190.1011 
L 202.288285 190.1011 
L 202.288285 176.120177 
L 198.93668 176.120177 
L 198.93668 151.100238 
L 195.585076 151.100238 
L 195.585076 134.239826 
L 192.233472 134.239826 
L 192.233472 118.679835 
L 188.881867 118.679835 
L 188.881867 108.509932 
L 185.530263 108.509932 
L 185.530263 99.461749 
L 182.178658 99.461749 
L 182.178658 91.065641 
L 178.827054 91.065641 
L 178.827054 84.160223 
L 175.47545 84.160223 
L 175.47545 78.296455 
L 172.123845 78.296455 
L 172.123845 73.525103 
L 168.772241 73.525103 
L 168.772241 68.530981 
L 165.420636 68.530981 
L 165.420636 64.49698 
L 162.069032 64.49698 
L 162.069032 60.707567 
L 158.717428 60.707567 
L 158.717428 57.312358 
L 155.365823 57.312358 
L 155.365823 54.317325 
L 152.014219 54.317325 
L 152.014219 51.537278 
L 148.662615 51.537278 
L 148.662615 49.039122 
L 145.31101 49.039122 
L 145.31101 46.81581 
L 141.959406 46.81581 
L 141.959406 44.753684 
L 138.607801 44.753684 
L 138.607801 42.787982 
L 135.256197 42.787982 
L 135.256197 41.161688 
L 131.904593 41.161688 
L 131.904593 39.527797 
L 128.552988 39.527797 
L 128.552988 37.973618 
L 125.201384 37.973618 
L 125.201384 36.654713 
L 121.849779 36.654713 
L 121.849779 35.261377 
L 118.498175 35.261377 
L 118.498175 34.231142 
L 115.146571 34.231142 
L 115.146571 33.052998 
L 111.794966 33.052998 
L 111.794966 32.189437 
L 108.443362 32.189437 
L 108.443362 31.232586 
L 105.091757 31.232586 
L 105.091757 30.418928 
L 101.740153 30.418928 
L 101.740153 29.595908 
L 98.388549 29.595908 
L 98.388549 28.882343 
L 95.036944 28.882343 
L 95.036944 28.273988 
L 91.68534 28.273988 
L 91.68534 27.618356 
L 88.333736 27.618356 
L 88.333736 26.985349 
L 84.982131 26.985349 
L 84.982131 26.536237 
L 81.630527 26.536237 
L 81.630527 25.944978 
L 78.278922 25.944978 
L 78.278922 25.541333 
L 74.927318 25.541333 
L 74.927318 25.118393 
L 71.575714 25.118393 
L 71.575714 24.719958 
L 68.224109 24.719958 
L 68.224109 24.345161 
L 64.872505 24.345161 
L 64.872505 24.045776 
L 61.5209 24.045776 
L 61.5209 23.694039 
L 58.169296 23.694039 
L 58.169296 23.413819 
L 54.817692 23.413819 
L 54.817692 23.123667 
L 51.466087 23.123667 
L 51.466087 22.860762 
L 48.114483 22.860762 
L 48.114483 22.592124 
L 44.762878 22.592124 
L 44.762878 22.415257 
L 43.072607 22.415257 
z
" style="fill:#dd5500;fill-opacity:0.15;"/>
   </g>
   <g id="matplotlib.axis_1">
    <g id="xtick_1">
     <g id="line2d_1">
      <path clip-path="url(#pd7db0484e6)" d="M 154.792753 252.061948 
L 154.792753 14.259249 
" style="fill:none;stroke:#dddddd;stroke-linecap:square;stroke-width:0.5;"/>
     </g>
     <g id="line2d_2">
      <defs>
       <path d="M 0 0 
L 0 3.5 
" id="me6397d98db" style="stroke:#000000;stroke-width:0.8;"/>
      </defs>
      <g>
       <use style="stroke:#000000;stroke-width:0.8;" x="154.792753" xlink:href="#me6397d98db" y="252.061948"/>
      </g>
     </g>
     <g id="text_1">
      <!-- $\mathdefault{10^{1}}$ -->
      <defs>
       <path d="M 26.59375 63.796875 
C 26.59375 65.890625 26.5 66 25.09375 66 
C 21.203125 61.359375 15.296875 59.890625 9.703125 59.6875 
C 9.40625 59.6875 8.90625 59.6875 8.796875 59.5 
C 8.703125 59.296875 8.703125 59.09375 8.703125 57 
C 11.796875 57 17 57.59375 21 59.984375 
L 21 7.296875 
C 21 3.796875 20.796875 2.59375 12.203125 2.59375 
L 9.203125 2.59375 
L 9.203125 0 
C 14 0.09375 19 0.1875 23.796875 0.1875 
C 28.59375 0.1875 33.59375 0.09375 38.40625 0 
L 38.40625 2.59375 
L 35.40625 2.59375 
C 26.796875 2.59375 26.59375 3.6875 26.59375 7.296875 
z
" id="CMR17-49"/>
       <path d="M 42 31.84375 
C 42 37.96875 41.90625 48.421875 37.703125 56.453125 
C 34 63.484375 28.09375 66 22.90625 66 
C 18.09375 66 12 63.78125 8.203125 56.5625 
C 4.203125 49.015625 3.796875 39.671875 3.796875 31.84375 
C 3.796875 26.109375 3.90625 17.375 7 9.734375 
C 11.296875 -0.609375 19 -2 22.90625 -2 
C 27.5 -2 34.5 -0.109375 38.59375 9.4375 
C 41.59375 16.375 42 24.5 42 31.84375 
z
M 22.90625 -0.40625 
C 16.5 -0.40625 12.703125 5.125 11.296875 12.75 
C 10.203125 18.6875 10.203125 27.328125 10.203125 32.953125 
C 10.203125 40.6875 10.203125 47.109375 11.5 53.234375 
C 13.40625 61.78125 19 64.390625 22.90625 64.390625 
C 27 64.390625 32.296875 61.671875 34.203125 53.4375 
C 35.5 47.71875 35.59375 40.984375 35.59375 32.953125 
C 35.59375 26.421875 35.59375 18.375 34.40625 12.453125 
C 32.296875 1.5 26.40625 -0.40625 22.90625 -0.40625 
z
" id="CMR17-48"/>
      </defs>
      <g transform="translate(147.825799 265.980447)scale(0.1 -0.1)">
       <use transform="scale(0.996264)" xlink:href="#CMR17-49"/>
       <use transform="translate(45.690477 0)scale(0.996264)" xlink:href="#CMR17-48"/>
       <use transform="translate(91.380954 36.153639)scale(0.697382)" xlink:href="#CMR17-49"/>
      </g>
     </g>
    </g>
    <g id="xtick_2">
     <g id="line2d_3">
      <path clip-path="url(#pd7db0484e6)" d="M 378.233046 252.061948 
L 378.233046 14.259249 
" style="fill:none;stroke:#dddddd;stroke-linecap:square;stroke-width:0.5;"/>
     </g>
     <g id="line2d_4">
      <g>
       <use style="stroke:#000000;stroke-width:0.8;" x="378.233046" xlink:href="#me6397d98db" y="252.061948"/>
      </g>
     </g>
     <g id="text_2">
      <!-- $\mathdefault{10^{2}}$ -->
      <defs>
       <path d="M 41.703125 15.46875 
L 39.90625 15.46875 
C 38.90625 8.390625 38.09375 7.1875 37.703125 6.59375 
C 37.203125 5.796875 30 5.796875 28.59375 5.796875 
L 9.40625 5.796875 
C 13 9.6875 20 16.765625 28.5 24.9375 
C 34.59375 30.71875 41.703125 37.5 41.703125 47.390625 
C 41.703125 59.1875 32.296875 66 21.796875 66 
C 10.796875 66 4.09375 56.296875 4.09375 47.296875 
C 4.09375 43.390625 7 42.890625 8.203125 42.890625 
C 9.203125 42.890625 12.203125 43.484375 12.203125 46.984375 
C 12.203125 50.09375 9.59375 51 8.203125 51 
C 7.59375 51 7 50.890625 6.59375 50.6875 
C 8.5 59.1875 14.296875 63.390625 20.40625 63.390625 
C 29.09375 63.390625 34.796875 56.5 34.796875 47.390625 
C 34.796875 38.703125 29.703125 31.21875 24 24.734375 
L 4.09375 2.296875 
L 4.09375 0 
L 39.296875 0 
z
" id="CMR17-50"/>
      </defs>
      <g transform="translate(371.266092 265.980447)scale(0.1 -0.1)">
       <use transform="scale(0.996264)" xlink:href="#CMR17-49"/>
       <use transform="translate(45.690477 0)scale(0.996264)" xlink:href="#CMR17-48"/>
       <use transform="translate(91.380954 36.153639)scale(0.697382)" xlink:href="#CMR17-50"/>
      </g>
     </g>
    </g>
    <g id="xtick_3">
     <g id="line2d_5">
      <path clip-path="url(#pd7db0484e6)" d="M 37.960573 252.061948 
L 37.960573 14.259249 
" style="fill:none;stroke:#dddddd;stroke-linecap:square;stroke-width:0.5;"/>
     </g>
     <g id="line2d_6">
      <defs>
       <path d="M 0 0 
L 0 2 
" id="m2d49e3985f" style="stroke:#000000;stroke-width:0.6;"/>
      </defs>
      <g>
       <use style="stroke:#000000;stroke-width:0.6;" x="37.960573" xlink:href="#m2d49e3985f" y="252.061948"/>
      </g>
     </g>
    </g>
    <g id="xtick_4">
     <g id="line2d_7">
      <path clip-path="url(#pd7db0484e6)" d="M 65.876921 252.061948 
L 65.876921 14.259249 
" style="fill:none;stroke:#dddddd;stroke-linecap:square;stroke-width:0.5;"/>
     </g>
     <g id="line2d_8">
      <g>
       <use style="stroke:#000000;stroke-width:0.6;" x="65.876921" xlink:href="#m2d49e3985f" y="252.061948"/>
      </g>
     </g>
    </g>
    <g id="xtick_5">
     <g id="line2d_9">
      <path clip-path="url(#pd7db0484e6)" d="M 87.530523 252.061948 
L 87.530523 14.259249 
" style="fill:none;stroke:#dddddd;stroke-linecap:square;stroke-width:0.5;"/>
     </g>
     <g id="line2d_10">
      <g>
       <use style="stroke:#000000;stroke-width:0.6;" x="87.530523" xlink:href="#m2d49e3985f" y="252.061948"/>
      </g>
     </g>
    </g>
    <g id="xtick_6">
     <g id="line2d_11">
      <path clip-path="url(#pd7db0484e6)" d="M 105.222804 252.061948 
L 105.222804 14.259249 
" style="fill:none;stroke:#dddddd;stroke-linecap:square;stroke-width:0.5;"/>
     </g>
     <g id="line2d_12">
      <g>
       <use style="stroke:#000000;stroke-width:0.6;" x="105.222804" xlink:href="#m2d49e3985f" y="252.061948"/>
      </g>
     </g>
    </g>
    <g id="xtick_7">
     <g id="line2d_13">
      <path clip-path="url(#pd7db0484e6)" d="M 120.181414 252.061948 
L 120.181414 14.259249 
" style="fill:none;stroke:#dddddd;stroke-linecap:square;stroke-width:0.5;"/>
     </g>
     <g id="line2d_14">
      <g>
       <use style="stroke:#000000;stroke-width:0.6;" x="120.181414" xlink:href="#m2d49e3985f" y="252.061948"/>
      </g>
     </g>
    </g>
    <g id="xtick_8">
     <g id="line2d_15">
      <path clip-path="url(#pd7db0484e6)" d="M 133.139152 252.061948 
L 133.139152 14.259249 
" style="fill:none;stroke:#dddddd;stroke-linecap:square;stroke-width:0.5;"/>
     </g>
     <g id="line2d_16">
      <g>
       <use style="stroke:#000000;stroke-width:0.6;" x="133.139152" xlink:href="#m2d49e3985f" y="252.061948"/>
      </g>
     </g>
    </g>
    <g id="xtick_9">
     <g id="line2d_17">
      <path clip-path="url(#pd7db0484e6)" d="M 144.568686 252.061948 
L 144.568686 14.259249 
" style="fill:none;stroke:#dddddd;stroke-linecap:square;stroke-width:0.5;"/>
     </g>
     <g id="line2d_18">
      <g>
       <use style="stroke:#000000;stroke-width:0.6;" x="144.568686" xlink:href="#m2d49e3985f" y="252.061948"/>
      </g>
     </g>
    </g>
    <g id="xtick_10">
     <g id="line2d_19">
      <path clip-path="url(#pd7db0484e6)" d="M 222.054984 252.061948 
L 222.054984 14.259249 
" style="fill:none;stroke:#dddddd;stroke-linecap:square;stroke-width:0.5;"/>
     </g>
     <g id="line2d_20">
      <g>
       <use style="stroke:#000000;stroke-width:0.6;" x="222.054984" xlink:href="#m2d49e3985f" y="252.061948"/>
      </g>
     </g>
    </g>
    <g id="xtick_11">
     <g id="line2d_21">
      <path clip-path="url(#pd7db0484e6)" d="M 261.400866 252.061948 
L 261.400866 14.259249 
" style="fill:none;stroke:#dddddd;stroke-linecap:square;stroke-width:0.5;"/>
     </g>
     <g id="line2d_22">
      <g>
       <use style="stroke:#000000;stroke-width:0.6;" x="261.400866" xlink:href="#m2d49e3985f" y="252.061948"/>
      </g>
     </g>
    </g>
    <g id="xtick_12">
     <g id="line2d_23">
      <path clip-path="url(#pd7db0484e6)" d="M 289.317214 252.061948 
L 289.317214 14.259249 
" style="fill:none;stroke:#dddddd;stroke-linecap:square;stroke-width:0.5;"/>
     </g>
     <g id="line2d_24">
      <g>
       <use style="stroke:#000000;stroke-width:0.6;" x="289.317214" xlink:href="#m2d49e3985f" y="252.061948"/>
      </g>
     </g>
    </g>
    <g id="xtick_13">
     <g id="line2d_25">
      <path clip-path="url(#pd7db0484e6)" d="M 310.970816 252.061948 
L 310.970816 14.259249 
" style="fill:none;stroke:#dddddd;stroke-linecap:square;stroke-width:0.5;"/>
     </g>
     <g id="line2d_26">
      <g>
       <use style="stroke:#000000;stroke-width:0.6;" x="310.970816" xlink:href="#m2d49e3985f" y="252.061948"/>
      </g>
     </g>
    </g>
    <g id="xtick_14">
     <g id="line2d_27">
      <path clip-path="url(#pd7db0484e6)" d="M 328.663096 252.061948 
L 328.663096 14.259249 
" style="fill:none;stroke:#dddddd;stroke-linecap:square;stroke-width:0.5;"/>
     </g>
     <g id="line2d_28">
      <g>
       <use style="stroke:#000000;stroke-width:0.6;" x="328.663096" xlink:href="#m2d49e3985f" y="252.061948"/>
      </g>
     </g>
    </g>
    <g id="xtick_15">
     <g id="line2d_29">
      <path clip-path="url(#pd7db0484e6)" d="M 343.621707 252.061948 
L 343.621707 14.259249 
" style="fill:none;stroke:#dddddd;stroke-linecap:square;stroke-width:0.5;"/>
     </g>
     <g id="line2d_30">
      <g>
       <use style="stroke:#000000;stroke-width:0.6;" x="343.621707" xlink:href="#m2d49e3985f" y="252.061948"/>
      </g>
     </g>
    </g>
    <g id="xtick_16">
     <g id="line2d_31">
      <path clip-path="url(#pd7db0484e6)" d="M 356.579444 252.061948 
L 356.579444 14.259249 
" style="fill:none;stroke:#dddddd;stroke-linecap:square;stroke-width:0.5;"/>
     </g>
     <g id="line2d_32">
      <g>
       <use style="stroke:#000000;stroke-width:0.6;" x="356.579444" xlink:href="#m2d49e3985f" y="252.061948"/>
      </g>
     </g>
    </g>
    <g id="xtick_17">
     <g id="line2d_33">
      <path clip-path="url(#pd7db0484e6)" d="M 368.008979 252.061948 
L 368.008979 14.259249 
" style="fill:none;stroke:#dddddd;stroke-linecap:square;stroke-width:0.5;"/>
     </g>
     <g id="line2d_34">
      <g>
       <use style="stroke:#000000;stroke-width:0.6;" x="368.008979" xlink:href="#m2d49e3985f" y="252.061948"/>
      </g>
     </g>
    </g>
    <g id="text_3">
     <!-- final time $t_f$ [ns] -->
     <defs>
      <path d="M 39.90625 44 
C 37.5 43.890625 30.09375 43.390625 28.203125 43.1875 
C 27.59375 43.09375 27.40625 43.09375 26.203125 43.09375 
L 14.796875 43.09375 
L 14.796875 54.953125 
C 14.796875 64.484375 22.40625 69 28.40625 69 
C 30.296875 69 34.59375 68.484375 36.796875 65 
C 35.796875 65 32.59375 65 32.59375 61.484375 
C 32.59375 59.09375 34.203125 57.890625 36.203125 57.890625 
C 38 57.890625 39.796875 58.890625 39.796875 61.59375 
C 39.796875 66.640625 35 70.59375 28.796875 70.59375 
C 20.90625 70.59375 9.90625 66.015625 9.90625 54.953125 
L 9.90625 43.09375 
L 1.90625 43.09375 
L 1.90625 40.484375 
L 9.90625 40.484375 
L 9.90625 6.90625 
C 9.90625 3.09375 9.5 2.59375 3.09375 2.59375 
L 3.09375 0 
C 5.5 0.1875 9.90625 0.1875 12.40625 0.1875 
C 15 0.1875 19.40625 0.1875 21.796875 0 
L 21.796875 2.59375 
C 15.40625 2.59375 15 3 15 6.90625 
L 15 40.484375 
L 29.703125 40.484375 
C 34 40.484375 34.796875 39.59375 34.796875 35.171875 
L 34.796875 6.90625 
C 34.796875 3.09375 34.40625 2.59375 28 2.59375 
L 28 0 
C 30.40625 0.1875 34.796875 0.1875 37.296875 0.1875 
C 39.90625 0.1875 44.296875 0.1875 46.703125 0 
L 46.703125 2.59375 
C 40.296875 2.59375 39.90625 3 39.90625 6.90625 
z
" id="CMR17-12"/>
      <path d="M 41.5 30.53125 
C 41.5 35.65625 40.5 44 28.703125 44 
C 20.796875 44 16.703125 37.875 15.203125 33.84375 
L 15.09375 33.84375 
L 15.09375 44 
L 3.296875 42.890625 
L 3.296875 40.28125 
C 9.203125 40.28125 10.09375 39.6875 10.09375 34.859375 
L 10.09375 6.921875 
C 10.09375 3.09375 9.703125 2.59375 3.296875 2.59375 
L 3.296875 0 
C 5.703125 0.1875 10.09375 0.1875 12.703125 0.1875 
C 15.296875 0.1875 19.796875 0.1875 22.203125 0 
L 22.203125 2.59375 
C 15.796875 2.59375 15.40625 3 15.40625 6.921875 
L 15.40625 26.21875 
C 15.40625 35.453125 21 42.390625 28 42.390625 
C 35.40625 42.390625 36.203125 35.765625 36.203125 30.9375 
L 36.203125 6.921875 
C 36.203125 3.09375 35.796875 2.59375 29.40625 2.59375 
L 29.40625 0 
C 31.796875 0.1875 36.203125 0.1875 38.796875 0.1875 
C 41.40625 0.1875 45.90625 0.1875 48.296875 0 
L 48.296875 2.59375 
C 41.90625 2.59375 41.5 3 41.5 6.921875 
z
" id="CMR17-110"/>
      <path d="M 36 25.875 
C 36 32 36 35.546875 31.796875 39.59375 
C 28.09375 42.984375 23.796875 44 20.40625 44 
C 12.5 44 6.796875 37.625 6.796875 30.890625 
C 6.796875 27.1875 9.796875 27 10.40625 27 
C 11.703125 27 14 27.796875 14 30.59375 
C 14 33.09375 12.09375 34.1875 10.40625 34.1875 
C 10 34.1875 9.5 34.09375 9.203125 34 
C 11.296875 40.53125 16.703125 42.390625 20.203125 42.390625 
C 25.203125 42.390625 30.703125 37.828125 30.703125 29.296875 
L 30.703125 25.5 
C 24.796875 25.296875 17.703125 24.5 12.09375 21.453125 
C 5.796875 17.921875 4 12.84375 4 9 
C 4 1.203125 13 -1 18.296875 -1 
C 23.796875 -1 28.90625 2.109375 31.09375 7.890625 
C 31.296875 3.421875 34.09375 -0.609375 38.5 -0.609375 
C 40.59375 -0.609375 45.90625 0.796875 45.90625 8.796875 
L 45.90625 14.46875 
L 44.09375 14.46875 
L 44.09375 8.703125 
C 44.09375 2.515625 41.40625 1.703125 40.09375 1.703125 
C 36 1.703125 36 6.96875 36 11.4375 
z
M 30.703125 13.859375 
C 30.703125 5.046875 24.5 0.59375 19 0.59375 
C 14 0.59375 10.09375 4.34375 10.09375 9 
C 10.09375 12.046875 11.40625 17.40625 17.203125 20.65625 
C 22 23.390625 27.5 23.796875 30.703125 24 
z
" id="CMR17-97"/>
      <path d="M 15.296875 69 
L 3.40625 67.890625 
L 3.40625 65.296875 
C 9.296875 65.296875 10.203125 64.703125 10.203125 59.921875 
L 10.203125 6.859375 
C 10.203125 3.09375 9.796875 2.59375 3.40625 2.59375 
L 3.40625 0 
C 5.796875 0.1875 10.203125 0.1875 12.703125 0.1875 
C 15.296875 0.1875 19.703125 0.1875 22.09375 0 
L 22.09375 2.59375 
C 15.703125 2.59375 15.296875 2.984375 15.296875 6.859375 
z
" id="CMR17-108"/>
      <path d="M 15.09375 40.390625 
L 29.09375 40.390625 
L 29.09375 43 
L 15.09375 43 
L 15.09375 62 
L 13.296875 62 
C 13.09375 51.4375 9.59375 42.1875 1.09375 41.984375 
L 1.09375 40.390625 
L 9.796875 40.390625 
L 9.796875 12.15625 
C 9.796875 10.234375 9.796875 -1 21.40625 -1 
C 27.296875 -1 30.703125 4.8125 30.703125 12.25 
L 30.703125 17.984375 
L 28.90625 17.984375 
L 28.90625 12.34375 
C 28.90625 5.421875 26.203125 0.796875 22 0.796875 
C 19.09375 0.796875 15.09375 2.796875 15.09375 11.953125 
z
" id="CMR17-116"/>
      <path d="M 15.5 61.890625 
C 15.5 64.09375 13.703125 66 11.40625 66 
C 9.203125 66 7.296875 64.1875 7.296875 61.890625 
C 7.296875 59.6875 9.09375 57.796875 11.40625 57.796875 
C 13.59375 57.796875 15.5 59.59375 15.5 61.890625 
z
M 3.796875 42.890625 
L 3.796875 40.296875 
C 9.40625 40.296875 10.203125 39.6875 10.203125 34.859375 
L 10.203125 6.921875 
C 10.203125 3.09375 9.796875 2.59375 3.40625 2.59375 
L 3.40625 0 
C 5.796875 0.1875 10.09375 0.1875 12.59375 0.1875 
C 15 0.1875 19.09375 0.1875 21.40625 0 
L 21.40625 2.59375 
C 15.5 2.59375 15.296875 3.203125 15.296875 6.8125 
L 15.296875 44 
z
" id="CMR17-105"/>
      <path d="M 67.59375 30.53125 
C 67.59375 35.5625 66.703125 44 54.796875 44 
C 48 44 43.296875 39.375 41.5 33.953125 
L 41.40625 33.953125 
C 40.203125 42.1875 34.296875 44 28.703125 44 
C 20.796875 44 16.703125 37.875 15.203125 33.84375 
L 15.09375 33.84375 
L 15.09375 44 
L 3.296875 42.890625 
L 3.296875 40.28125 
C 9.203125 40.28125 10.09375 39.6875 10.09375 34.859375 
L 10.09375 6.921875 
C 10.09375 3.09375 9.703125 2.59375 3.296875 2.59375 
L 3.296875 0 
C 5.703125 0.1875 10.09375 0.1875 12.703125 0.1875 
C 15.296875 0.1875 19.796875 0.1875 22.203125 0 
L 22.203125 2.59375 
C 15.796875 2.59375 15.40625 3 15.40625 6.921875 
L 15.40625 26.21875 
C 15.40625 35.453125 21 42.390625 28 42.390625 
C 35.40625 42.390625 36.203125 35.765625 36.203125 30.9375 
L 36.203125 6.921875 
C 36.203125 3.09375 35.796875 2.59375 29.40625 2.59375 
L 29.40625 0 
C 31.796875 0.1875 36.203125 0.1875 38.796875 0.1875 
C 41.40625 0.1875 45.90625 0.1875 48.296875 0 
L 48.296875 2.59375 
C 41.90625 2.59375 41.5 3 41.5 6.921875 
L 41.5 26.21875 
C 41.5 35.453125 47.09375 42.390625 54.09375 42.390625 
C 61.5 42.390625 62.296875 35.765625 62.296875 30.9375 
L 62.296875 6.921875 
C 62.296875 3.09375 61.90625 2.59375 55.5 2.59375 
L 55.5 0 
C 57.90625 0.1875 62.296875 0.1875 64.90625 0.1875 
C 67.5 0.1875 72 0.1875 74.40625 0 
L 74.40625 2.59375 
C 68 2.59375 67.59375 3 67.59375 6.921875 
z
" id="CMR17-109"/>
      <path d="M 38.09375 23.484375 
C 38.5 23.890625 38.5 24.09375 38.5 25.09375 
C 38.5 35.171875 33.09375 44 21.703125 44 
C 11.09375 44 2.703125 33.984375 2.703125 21.78125 
C 2.703125 8.65625 12.203125 -1 22.796875 -1 
C 34 -1 38.40625 9.671875 38.40625 11.796875 
C 38.40625 12.5 37.796875 12.5 37.59375 12.5 
C 36.90625 12.5 36.796875 12.296875 36.40625 11.078125 
C 34.203125 4.21875 28.703125 0.796875 23.5 0.796875 
C 19.203125 0.796875 14.90625 3.21875 12.203125 7.65625 
C 9.09375 12.796875 9.09375 18.75 9.09375 23.484375 
z
M 9.203125 25 
C 9.90625 39.234375 17.59375 42.390625 21.59375 42.390625 
C 28.40625 42.390625 33 36.0625 33.09375 25 
z
" id="CMR17-101"/>
      <path d="M 20.09375 40.09375 
L 29.296875 40.09375 
C 31.203125 40.09375 32.203125 40.09375 32.203125 41.890625 
C 32.203125 43 31.59375 43 29.59375 43 
L 20.796875 43 
L 24.5 57.25 
C 24.90625 58.625 24.90625 58.8125 24.90625 59.5 
C 24.90625 61.09375 23.59375 62 22.296875 62 
C 21.5 62 19.203125 61.6875 18.40625 58.53125 
L 14.5 43 
L 5.09375 43 
C 3.09375 43 2.203125 43 2.203125 41.09375 
C 2.203125 40.09375 2.90625 40.09375 4.796875 40.09375 
L 13.703125 40.09375 
L 7.09375 13.765625 
C 6.296875 10.265625 6 9.265625 6 7.96875 
C 6 3.28125 9.296875 -1 14.90625 -1 
C 25 -1 30.40625 13.5625 30.40625 14.265625 
C 30.40625 14.859375 30 15.15625 29.40625 15.15625 
C 29.203125 15.15625 28.796875 15.15625 28.59375 14.75 
C 28.5 14.65625 28.40625 14.5625 27.703125 12.96875 
C 25.59375 7.96875 21 1 15.203125 1 
C 12.203125 1 12 3.484375 12 5.6875 
C 12 5.78125 12 7.671875 12.296875 8.875 
z
" id="CMMI12-116"/>
      <path d="M 44.59375 40.09375 
C 46.59375 40.09375 47.40625 40.09375 47.40625 41.984375 
C 47.40625 43 46.59375 43 44.796875 43 
L 36.703125 43 
C 38.59375 53.09375 40 60.09375 40.796875 63.296875 
C 41.40625 65.6875 43.5 67.984375 46.09375 67.984375 
C 48.203125 67.984375 50.296875 67.09375 51.296875 66.1875 
C 47.40625 65.796875 46.203125 62.890625 46.203125 61.1875 
C 46.203125 59.1875 47.703125 58 49.59375 58 
C 51.59375 58 54.59375 59.6875 54.59375 63.5 
C 54.59375 67.6875 50.40625 70 46 70 
C 41.703125 70 37.5 66.796875 35.5 62.890625 
C 33.703125 59.390625 32.703125 55.828125 30.40625 43 
L 23.703125 43 
C 21.796875 43 20.796875 43 20.796875 41.1875 
C 20.796875 40.09375 21.40625 40.09375 23.40625 40.09375 
L 29.796875 40.09375 
C 28 30.890625 23.90625 8.515625 21.59375 -2.0625 
C 19.90625 -10.703125 18.40625 -18 13.40625 -18 
C 13.09375 -18 10.203125 -18 8.40625 -16.109375 
C 13.5 -15.703125 13.5 -11.3125 13.5 -11.203125 
C 13.5 -9.203125 12 -8 10.09375 -8 
C 8.09375 -8 5.09375 -9.703125 5.09375 -13.515625 
C 5.09375 -17.8125 9.5 -20 13.40625 -20 
C 23.59375 -20 27.796875 -1.765625 28.90625 3.171875 
C 30.703125 10.796875 35.59375 37.125 36.09375 40.09375 
z
" id="CMMI12-102"/>
      <path d="M 23.5 -25 
L 23.5 -21.5 
L 14.09375 -21.5 
L 14.09375 71.484375 
L 23.5 71.484375 
L 23.5 75 
L 10.59375 75 
L 10.59375 -25 
z
" id="CMR17-91"/>
      <path d="M 30.90625 42 
C 30.90625 43.796875 30.796875 43.890625 30.203125 43.890625 
C 29.796875 43.890625 29.703125 43.796875 28.5 42.296875 
C 28.203125 41.890625 27.296875 40.890625 27 40.5 
C 23.796875 43.890625 19.296875 44 17.59375 44 
C 6.5 44 2.5 38.1875 2.5 32.390625 
C 2.5 23.390625 12.703125 21.296875 15.59375 20.6875 
C 21.90625 19.390625 24.09375 19 26.203125 17.1875 
C 27.5 16 29.703125 13.796875 29.703125 10.1875 
C 29.703125 6 27.296875 0.59375 18.09375 0.59375 
C 9.40625 0.59375 6.296875 7.1875 4.5 16 
C 4.203125 17.390625 4.203125 17.5 3.40625 17.5 
C 2.59375 17.5 2.5 17.390625 2.5 15.390625 
L 2.5 1 
C 2.5 -0.8125 2.59375 -0.90625 3.203125 -0.90625 
C 3.703125 -0.90625 3.796875 -0.8125 4.296875 0 
C 4.90625 0.890625 6.40625 3.296875 7 4.296875 
C 9 1.59375 12.5 -1 18.09375 -1 
C 28 -1 33.296875 4.390625 33.296875 12.1875 
C 33.296875 17.296875 30.59375 20 29.296875 21.1875 
C 26.296875 24.296875 22.796875 25 18.59375 25.796875 
C 13.09375 27 6.09375 28.390625 6.09375 34.5 
C 6.09375 37.09375 7.5 42.59375 17.59375 42.59375 
C 28.296875 42.59375 28.90625 32.59375 29.09375 29.390625 
C 29.203125 28.890625 29.703125 28.796875 30 28.796875 
C 30.90625 28.796875 30.90625 29.09375 30.90625 30.796875 
z
" id="CMR17-115"/>
      <path d="M 14.296875 75 
L 1.40625 75 
L 1.40625 71.484375 
L 10.796875 71.484375 
L 10.796875 -21.5 
L 1.40625 -21.5 
L 1.40625 -25 
L 14.296875 -25 
z
" id="CMR17-93"/>
     </defs>
     <g transform="translate(172.139547 279.389605)scale(0.1 -0.1)">
      <use transform="scale(0.996264)" xlink:href="#CMR17-12"/>
      <use transform="translate(49.742223 0)scale(0.996264)" xlink:href="#CMR17-110"/>
      <use transform="translate(100.637593 0)scale(0.996264)" xlink:href="#CMR17-97"/>
      <use transform="translate(146.32807 0)scale(0.996264)" xlink:href="#CMR17-108"/>
      <use transform="translate(201.275095 0)scale(0.996264)" xlink:href="#CMR17-116"/>
      <use transform="translate(236.555863 0)scale(0.996264)" xlink:href="#CMR17-105"/>
      <use transform="translate(261.426921 0)scale(0.996264)" xlink:href="#CMR17-109"/>
      <use transform="translate(338.346511 0)scale(0.996264)" xlink:href="#CMR17-101"/>
      <use transform="translate(408.908138 0)scale(0.996264)" xlink:href="#CMMI12-116"/>
      <use transform="translate(444.134468 -14.943915)scale(0.697382)" xlink:href="#CMMI12-102"/>
      <use transform="translate(515.81259 0)scale(0.996264)" xlink:href="#CMR17-91"/>
      <use transform="translate(540.683648 0)scale(0.996264)" xlink:href="#CMR17-110"/>
      <use transform="translate(591.579018 0)scale(0.996264)" xlink:href="#CMR17-115"/>
      <use transform="translate(627.380356 0)scale(0.996264)" xlink:href="#CMR17-93"/>
     </g>
    </g>
   </g>
   <g id="matplotlib.axis_2">
    <g id="ytick_1">
     <g id="line2d_35">
      <path clip-path="url(#pd7db0484e6)" d="M 37.960573 252.061948 
L 378.233046 252.061948 
" style="fill:none;stroke:#dddddd;stroke-linecap:square;stroke-width:0.5;"/>
     </g>
     <g id="line2d_36">
      <defs>
       <path d="M 0 0 
L -3.5 0 
" id="mdbbb70655e" style="stroke:#000000;stroke-width:0.8;"/>
      </defs>
      <g>
       <use style="stroke:#000000;stroke-width:0.8;" x="37.960573" xlink:href="#mdbbb70655e" y="252.061948"/>
      </g>
     </g>
     <g id="text_4">
      <!-- $\mathdefault{10^{-5}}$ -->
      <defs>
       <path d="M 65.90625 23 
C 67.59375 23 69.40625 23 69.40625 25 
C 69.40625 27 67.59375 27 65.90625 27 
L 11.796875 27 
C 10.09375 27 8.296875 27 8.296875 25 
C 8.296875 23 10.09375 23 11.796875 23 
z
" id="CMSY10-0"/>
       <path d="M 11.40625 58.59375 
C 12.40625 58.1875 16.5 56.890625 20.703125 56.890625 
C 30 56.890625 35.09375 61.890625 38 64.6875 
C 38 65.484375 38 66 37.40625 66 
C 37.296875 66 37.09375 66 36.296875 65.59375 
C 32.796875 64.09375 28.703125 63 23.703125 63 
C 20.703125 63 16.203125 63.359375 11.296875 65.484375 
C 10.203125 66 10 66 9.90625 66 
C 9.40625 66 9.296875 65.890625 9.296875 63.90625 
L 9.296875 34.859375 
C 9.296875 33.015625 9.296875 32.5 10.296875 32.5 
C 10.796875 32.5 11 32.703125 11.5 33.421875 
C 14.703125 38.046875 19.09375 40 24.09375 40 
C 27.59375 40 35.09375 37.734375 35.09375 20.203125 
C 35.09375 16.984375 35.09375 11.1875 32.09375 6.59375 
C 29.59375 2.484375 25.703125 0.390625 21.40625 0.390625 
C 14.796875 0.390625 8.09375 4.984375 6.296875 12.6875 
C 6.703125 12.59375 7.5 12.390625 7.90625 12.390625 
C 9.203125 12.390625 11.703125 13.09375 11.703125 16.1875 
C 11.703125 18.890625 9.796875 20 7.90625 20 
C 5.59375 20 4.09375 18.59375 4.09375 15.796875 
C 4.09375 7.09375 11 -2 21.59375 -2 
C 31.90625 -2 41.703125 6.890625 41.703125 19.796875 
C 41.703125 32.09375 33.90625 41.59375 24.203125 41.59375 
C 19.09375 41.59375 14.796875 39.6875 11.40625 36 
z
" id="CMR17-53"/>
      </defs>
      <g transform="translate(10.8 255.521197)scale(0.1 -0.1)">
       <use transform="scale(0.996264)" xlink:href="#CMR17-49"/>
       <use transform="translate(45.690477 0)scale(0.996264)" xlink:href="#CMR17-48"/>
       <use transform="translate(91.380954 36.153639)scale(0.697382)" xlink:href="#CMSY10-0"/>
       <use transform="translate(145.621947 36.153639)scale(0.697382)" xlink:href="#CMR17-53"/>
      </g>
     </g>
    </g>
    <g id="ytick_2">
     <g id="line2d_37">
      <path clip-path="url(#pd7db0484e6)" d="M 37.960573 192.611273 
L 378.233046 192.611273 
" style="fill:none;stroke:#dddddd;stroke-linecap:square;stroke-width:0.5;"/>
     </g>
     <g id="line2d_38">
      <g>
       <use style="stroke:#000000;stroke-width:0.8;" x="37.960573" xlink:href="#mdbbb70655e" y="192.611273"/>
      </g>
     </g>
     <g id="text_5">
      <!-- $\mathdefault{10^{-4}}$ -->
      <defs>
       <path d="M 33.59375 64.796875 
C 33.59375 66.890625 33.5 67 31.703125 67 
L 2 19.59375 
L 2 17 
L 27.796875 17 
L 27.796875 7.1875 
C 27.796875 3.59375 27.59375 2.59375 20.59375 2.59375 
L 18.703125 2.59375 
L 18.703125 0 
C 21.90625 0.1875 27.296875 0.1875 30.703125 0.1875 
C 34.09375 0.1875 39.5 0.1875 42.703125 0 
L 42.703125 2.59375 
L 40.796875 2.59375 
C 33.796875 2.59375 33.59375 3.59375 33.59375 7.1875 
L 33.59375 17 
L 43.796875 17 
L 43.796875 19.59375 
L 33.59375 19.59375 
z
M 28.09375 58.171875 
L 28.09375 19.59375 
L 4 19.59375 
z
" id="CMR17-52"/>
      </defs>
      <g transform="translate(10.8 196.070523)scale(0.1 -0.1)">
       <use transform="scale(0.996264)" xlink:href="#CMR17-49"/>
       <use transform="translate(45.690477 0)scale(0.996264)" xlink:href="#CMR17-48"/>
       <use transform="translate(91.380954 36.153639)scale(0.697382)" xlink:href="#CMSY10-0"/>
       <use transform="translate(145.621947 36.153639)scale(0.697382)" xlink:href="#CMR17-52"/>
      </g>
     </g>
    </g>
    <g id="ytick_3">
     <g id="line2d_39">
      <path clip-path="url(#pd7db0484e6)" d="M 37.960573 133.160599 
L 378.233046 133.160599 
" style="fill:none;stroke:#dddddd;stroke-linecap:square;stroke-width:0.5;"/>
     </g>
     <g id="line2d_40">
      <g>
       <use style="stroke:#000000;stroke-width:0.8;" x="37.960573" xlink:href="#mdbbb70655e" y="133.160599"/>
      </g>
     </g>
     <g id="text_6">
      <!-- $\mathdefault{10^{-3}}$ -->
      <defs>
       <path d="M 22.09375 34 
C 31 34 34.90625 26.140625 34.90625 17.09375 
C 34.90625 5.03125 28.5 0.390625 22.703125 0.390625 
C 17.40625 0.390625 8.796875 3.015625 6.09375 10.796875 
C 6.59375 10.59375 7.09375 10.59375 7.59375 10.59375 
C 10 10.59375 11.796875 12.1875 11.796875 14.796875 
C 11.796875 17.6875 9.59375 19 7.59375 19 
C 5.90625 19 3.296875 18.1875 3.296875 14.484375 
C 3.296875 5.234375 12.296875 -2 22.90625 -2 
C 34 -2 42.5 6.75 42.5 16.984375 
C 42.5 26.84375 34.5 34 25 35.09375 
C 32.59375 36.671875 39.90625 43.375 39.90625 52.390625 
C 39.90625 60.25 32 66 23 66 
C 13.90625 66 5.90625 60.34375 5.90625 52.296875 
C 5.90625 48.796875 8.5 48.1875 9.796875 48.1875 
C 11.90625 48.1875 13.703125 49.484375 13.703125 52.09375 
C 13.703125 54.6875 11.90625 56 9.796875 56 
C 9.40625 56 8.90625 56 8.5 55.796875 
C 11.40625 62.484375 19.296875 63.6875 22.796875 63.6875 
C 26.296875 63.6875 32.90625 61.96875 32.90625 52.296875 
C 32.90625 49.484375 32.5 44.546875 29.09375 40.21875 
C 26.09375 36.390625 22.703125 36.1875 19.40625 35.890625 
C 18.90625 35.890625 16.59375 35.6875 16.203125 35.6875 
C 15.5 35.59375 15.09375 35.5 15.09375 34.796875 
C 15.09375 34.09375 15.203125 34 17.203125 34 
z
" id="CMR17-51"/>
      </defs>
      <g transform="translate(10.8 136.619848)scale(0.1 -0.1)">
       <use transform="scale(0.996264)" xlink:href="#CMR17-49"/>
       <use transform="translate(45.690477 0)scale(0.996264)" xlink:href="#CMR17-48"/>
       <use transform="translate(91.380954 36.153639)scale(0.697382)" xlink:href="#CMSY10-0"/>
       <use transform="translate(145.621947 36.153639)scale(0.697382)" xlink:href="#CMR17-51"/>
      </g>
     </g>
    </g>
    <g id="ytick_4">
     <g id="line2d_41">
      <path clip-path="url(#pd7db0484e6)" d="M 37.960573 73.709924 
L 378.233046 73.709924 
" style="fill:none;stroke:#dddddd;stroke-linecap:square;stroke-width:0.5;"/>
     </g>
     <g id="line2d_42">
      <g>
       <use style="stroke:#000000;stroke-width:0.8;" x="37.960573" xlink:href="#mdbbb70655e" y="73.709924"/>
      </g>
     </g>
     <g id="text_7">
      <!-- $\mathdefault{10^{-2}}$ -->
      <g transform="translate(10.8 77.169173)scale(0.1 -0.1)">
       <use transform="scale(0.996264)" xlink:href="#CMR17-49"/>
       <use transform="translate(45.690477 0)scale(0.996264)" xlink:href="#CMR17-48"/>
       <use transform="translate(91.380954 36.153639)scale(0.697382)" xlink:href="#CMSY10-0"/>
       <use transform="translate(145.621947 36.153639)scale(0.697382)" xlink:href="#CMR17-50"/>
      </g>
     </g>
    </g>
    <g id="ytick_5">
     <g id="line2d_43">
      <path clip-path="url(#pd7db0484e6)" d="M 37.960573 14.259249 
L 378.233046 14.259249 
" style="fill:none;stroke:#dddddd;stroke-linecap:square;stroke-width:0.5;"/>
     </g>
     <g id="line2d_44">
      <g>
       <use style="stroke:#000000;stroke-width:0.8;" x="37.960573" xlink:href="#mdbbb70655e" y="14.259249"/>
      </g>
     </g>
     <g id="text_8">
      <!-- $\mathdefault{10^{-1}}$ -->
      <g transform="translate(10.8 17.718498)scale(0.1 -0.1)">
       <use transform="scale(0.996264)" xlink:href="#CMR17-49"/>
       <use transform="translate(45.690477 0)scale(0.996264)" xlink:href="#CMR17-48"/>
       <use transform="translate(91.380954 36.153639)scale(0.697382)" xlink:href="#CMSY10-0"/>
       <use transform="translate(145.621947 36.153639)scale(0.697382)" xlink:href="#CMR17-49"/>
      </g>
     </g>
    </g>
    <g id="ytick_6">
     <g id="line2d_45">
      <path clip-path="url(#pd7db0484e6)" d="M 37.960573 234.165512 
L 378.233046 234.165512 
" style="fill:none;stroke:#dddddd;stroke-linecap:square;stroke-width:0.5;"/>
     </g>
     <g id="line2d_46">
      <defs>
       <path d="M 0 0 
L -2 0 
" id="m6fa814f7be" style="stroke:#000000;stroke-width:0.6;"/>
      </defs>
      <g>
       <use style="stroke:#000000;stroke-width:0.6;" x="37.960573" xlink:href="#m6fa814f7be" y="234.165512"/>
      </g>
     </g>
    </g>
    <g id="ytick_7">
     <g id="line2d_47">
      <path clip-path="url(#pd7db0484e6)" d="M 37.960573 223.696768 
L 378.233046 223.696768 
" style="fill:none;stroke:#dddddd;stroke-linecap:square;stroke-width:0.5;"/>
     </g>
     <g id="line2d_48">
      <g>
       <use style="stroke:#000000;stroke-width:0.6;" x="37.960573" xlink:href="#m6fa814f7be" y="223.696768"/>
      </g>
     </g>
    </g>
    <g id="ytick_8">
     <g id="line2d_49">
      <path clip-path="url(#pd7db0484e6)" d="M 37.960573 216.269075 
L 378.233046 216.269075 
" style="fill:none;stroke:#dddddd;stroke-linecap:square;stroke-width:0.5;"/>
     </g>
     <g id="line2d_50">
      <g>
       <use style="stroke:#000000;stroke-width:0.6;" x="37.960573" xlink:href="#m6fa814f7be" y="216.269075"/>
      </g>
     </g>
    </g>
    <g id="ytick_9">
     <g id="line2d_51">
      <path clip-path="url(#pd7db0484e6)" d="M 37.960573 210.50771 
L 378.233046 210.50771 
" style="fill:none;stroke:#dddddd;stroke-linecap:square;stroke-width:0.5;"/>
     </g>
     <g id="line2d_52">
      <g>
       <use style="stroke:#000000;stroke-width:0.6;" x="37.960573" xlink:href="#m6fa814f7be" y="210.50771"/>
      </g>
     </g>
    </g>
    <g id="ytick_10">
     <g id="line2d_53">
      <path clip-path="url(#pd7db0484e6)" d="M 37.960573 205.800331 
L 378.233046 205.800331 
" style="fill:none;stroke:#dddddd;stroke-linecap:square;stroke-width:0.5;"/>
     </g>
     <g id="line2d_54">
      <g>
       <use style="stroke:#000000;stroke-width:0.6;" x="37.960573" xlink:href="#m6fa814f7be" y="205.800331"/>
      </g>
     </g>
    </g>
    <g id="ytick_11">
     <g id="line2d_55">
      <path clip-path="url(#pd7db0484e6)" d="M 37.960573 201.820299 
L 378.233046 201.820299 
" style="fill:none;stroke:#dddddd;stroke-linecap:square;stroke-width:0.5;"/>
     </g>
     <g id="line2d_56">
      <g>
       <use style="stroke:#000000;stroke-width:0.6;" x="37.960573" xlink:href="#m6fa814f7be" y="201.820299"/>
      </g>
     </g>
    </g>
    <g id="ytick_12">
     <g id="line2d_57">
      <path clip-path="url(#pd7db0484e6)" d="M 37.960573 198.372639 
L 378.233046 198.372639 
" style="fill:none;stroke:#dddddd;stroke-linecap:square;stroke-width:0.5;"/>
     </g>
     <g id="line2d_58">
      <g>
       <use style="stroke:#000000;stroke-width:0.6;" x="37.960573" xlink:href="#m6fa814f7be" y="198.372639"/>
      </g>
     </g>
    </g>
    <g id="ytick_13">
     <g id="line2d_59">
      <path clip-path="url(#pd7db0484e6)" d="M 37.960573 195.331587 
L 378.233046 195.331587 
" style="fill:none;stroke:#dddddd;stroke-linecap:square;stroke-width:0.5;"/>
     </g>
     <g id="line2d_60">
      <g>
       <use style="stroke:#000000;stroke-width:0.6;" x="37.960573" xlink:href="#m6fa814f7be" y="195.331587"/>
      </g>
     </g>
    </g>
    <g id="ytick_14">
     <g id="line2d_61">
      <path clip-path="url(#pd7db0484e6)" d="M 37.960573 174.714837 
L 378.233046 174.714837 
" style="fill:none;stroke:#dddddd;stroke-linecap:square;stroke-width:0.5;"/>
     </g>
     <g id="line2d_62">
      <g>
       <use style="stroke:#000000;stroke-width:0.6;" x="37.960573" xlink:href="#m6fa814f7be" y="174.714837"/>
      </g>
     </g>
    </g>
    <g id="ytick_15">
     <g id="line2d_63">
      <path clip-path="url(#pd7db0484e6)" d="M 37.960573 164.246093 
L 378.233046 164.246093 
" style="fill:none;stroke:#dddddd;stroke-linecap:square;stroke-width:0.5;"/>
     </g>
     <g id="line2d_64">
      <g>
       <use style="stroke:#000000;stroke-width:0.6;" x="37.960573" xlink:href="#m6fa814f7be" y="164.246093"/>
      </g>
     </g>
    </g>
    <g id="ytick_16">
     <g id="line2d_65">
      <path clip-path="url(#pd7db0484e6)" d="M 37.960573 156.818401 
L 378.233046 156.818401 
" style="fill:none;stroke:#dddddd;stroke-linecap:square;stroke-width:0.5;"/>
     </g>
     <g id="line2d_66">
      <g>
       <use style="stroke:#000000;stroke-width:0.6;" x="37.960573" xlink:href="#m6fa814f7be" y="156.818401"/>
      </g>
     </g>
    </g>
    <g id="ytick_17">
     <g id="line2d_67">
      <path clip-path="url(#pd7db0484e6)" d="M 37.960573 151.057035 
L 378.233046 151.057035 
" style="fill:none;stroke:#dddddd;stroke-linecap:square;stroke-width:0.5;"/>
     </g>
     <g id="line2d_68">
      <g>
       <use style="stroke:#000000;stroke-width:0.6;" x="37.960573" xlink:href="#m6fa814f7be" y="151.057035"/>
      </g>
     </g>
    </g>
    <g id="ytick_18">
     <g id="line2d_69">
      <path clip-path="url(#pd7db0484e6)" d="M 37.960573 146.349657 
L 378.233046 146.349657 
" style="fill:none;stroke:#dddddd;stroke-linecap:square;stroke-width:0.5;"/>
     </g>
     <g id="line2d_70">
      <g>
       <use style="stroke:#000000;stroke-width:0.6;" x="37.960573" xlink:href="#m6fa814f7be" y="146.349657"/>
      </g>
     </g>
    </g>
    <g id="ytick_19">
     <g id="line2d_71">
      <path clip-path="url(#pd7db0484e6)" d="M 37.960573 142.369625 
L 378.233046 142.369625 
" style="fill:none;stroke:#dddddd;stroke-linecap:square;stroke-width:0.5;"/>
     </g>
     <g id="line2d_72">
      <g>
       <use style="stroke:#000000;stroke-width:0.6;" x="37.960573" xlink:href="#m6fa814f7be" y="142.369625"/>
      </g>
     </g>
    </g>
    <g id="ytick_20">
     <g id="line2d_73">
      <path clip-path="url(#pd7db0484e6)" d="M 37.960573 138.921964 
L 378.233046 138.921964 
" style="fill:none;stroke:#dddddd;stroke-linecap:square;stroke-width:0.5;"/>
     </g>
     <g id="line2d_74">
      <g>
       <use style="stroke:#000000;stroke-width:0.6;" x="37.960573" xlink:href="#m6fa814f7be" y="138.921964"/>
      </g>
     </g>
    </g>
    <g id="ytick_21">
     <g id="line2d_75">
      <path clip-path="url(#pd7db0484e6)" d="M 37.960573 135.880912 
L 378.233046 135.880912 
" style="fill:none;stroke:#dddddd;stroke-linecap:square;stroke-width:0.5;"/>
     </g>
     <g id="line2d_76">
      <g>
       <use style="stroke:#000000;stroke-width:0.6;" x="37.960573" xlink:href="#m6fa814f7be" y="135.880912"/>
      </g>
     </g>
    </g>
    <g id="ytick_22">
     <g id="line2d_77">
      <path clip-path="url(#pd7db0484e6)" d="M 37.960573 115.264162 
L 378.233046 115.264162 
" style="fill:none;stroke:#dddddd;stroke-linecap:square;stroke-width:0.5;"/>
     </g>
     <g id="line2d_78">
      <g>
       <use style="stroke:#000000;stroke-width:0.6;" x="37.960573" xlink:href="#m6fa814f7be" y="115.264162"/>
      </g>
     </g>
    </g>
    <g id="ytick_23">
     <g id="line2d_79">
      <path clip-path="url(#pd7db0484e6)" d="M 37.960573 104.795418 
L 378.233046 104.795418 
" style="fill:none;stroke:#dddddd;stroke-linecap:square;stroke-width:0.5;"/>
     </g>
     <g id="line2d_80">
      <g>
       <use style="stroke:#000000;stroke-width:0.6;" x="37.960573" xlink:href="#m6fa814f7be" y="104.795418"/>
      </g>
     </g>
    </g>
    <g id="ytick_24">
     <g id="line2d_81">
      <path clip-path="url(#pd7db0484e6)" d="M 37.960573 97.367726 
L 378.233046 97.367726 
" style="fill:none;stroke:#dddddd;stroke-linecap:square;stroke-width:0.5;"/>
     </g>
     <g id="line2d_82">
      <g>
       <use style="stroke:#000000;stroke-width:0.6;" x="37.960573" xlink:href="#m6fa814f7be" y="97.367726"/>
      </g>
     </g>
    </g>
    <g id="ytick_25">
     <g id="line2d_83">
      <path clip-path="url(#pd7db0484e6)" d="M 37.960573 91.60636 
L 378.233046 91.60636 
" style="fill:none;stroke:#dddddd;stroke-linecap:square;stroke-width:0.5;"/>
     </g>
     <g id="line2d_84">
      <g>
       <use style="stroke:#000000;stroke-width:0.6;" x="37.960573" xlink:href="#m6fa814f7be" y="91.60636"/>
      </g>
     </g>
    </g>
    <g id="ytick_26">
     <g id="line2d_85">
      <path clip-path="url(#pd7db0484e6)" d="M 37.960573 86.898982 
L 378.233046 86.898982 
" style="fill:none;stroke:#dddddd;stroke-linecap:square;stroke-width:0.5;"/>
     </g>
     <g id="line2d_86">
      <g>
       <use style="stroke:#000000;stroke-width:0.6;" x="37.960573" xlink:href="#m6fa814f7be" y="86.898982"/>
      </g>
     </g>
    </g>
    <g id="ytick_27">
     <g id="line2d_87">
      <path clip-path="url(#pd7db0484e6)" d="M 37.960573 82.91895 
L 378.233046 82.91895 
" style="fill:none;stroke:#dddddd;stroke-linecap:square;stroke-width:0.5;"/>
     </g>
     <g id="line2d_88">
      <g>
       <use style="stroke:#000000;stroke-width:0.6;" x="37.960573" xlink:href="#m6fa814f7be" y="82.91895"/>
      </g>
     </g>
    </g>
    <g id="ytick_28">
     <g id="line2d_89">
      <path clip-path="url(#pd7db0484e6)" d="M 37.960573 79.47129 
L 378.233046 79.47129 
" style="fill:none;stroke:#dddddd;stroke-linecap:square;stroke-width:0.5;"/>
     </g>
     <g id="line2d_90">
      <g>
       <use style="stroke:#000000;stroke-width:0.6;" x="37.960573" xlink:href="#m6fa814f7be" y="79.47129"/>
      </g>
     </g>
    </g>
    <g id="ytick_29">
     <g id="line2d_91">
      <path clip-path="url(#pd7db0484e6)" d="M 37.960573 76.430238 
L 378.233046 76.430238 
" style="fill:none;stroke:#dddddd;stroke-linecap:square;stroke-width:0.5;"/>
     </g>
     <g id="line2d_92">
      <g>
       <use style="stroke:#000000;stroke-width:0.6;" x="37.960573" xlink:href="#m6fa814f7be" y="76.430238"/>
      </g>
     </g>
    </g>
    <g id="ytick_30">
     <g id="line2d_93">
      <path clip-path="url(#pd7db0484e6)" d="M 37.960573 55.813488 
L 378.233046 55.813488 
" style="fill:none;stroke:#dddddd;stroke-linecap:square;stroke-width:0.5;"/>
     </g>
     <g id="line2d_94">
      <g>
       <use style="stroke:#000000;stroke-width:0.6;" x="37.960573" xlink:href="#m6fa814f7be" y="55.813488"/>
      </g>
     </g>
    </g>
    <g id="ytick_31">
     <g id="line2d_95">
      <path clip-path="url(#pd7db0484e6)" d="M 37.960573 45.344743 
L 378.233046 45.344743 
" style="fill:none;stroke:#dddddd;stroke-linecap:square;stroke-width:0.5;"/>
     </g>
     <g id="line2d_96">
      <g>
       <use style="stroke:#000000;stroke-width:0.6;" x="37.960573" xlink:href="#m6fa814f7be" y="45.344743"/>
      </g>
     </g>
    </g>
    <g id="ytick_32">
     <g id="line2d_97">
      <path clip-path="url(#pd7db0484e6)" d="M 37.960573 37.917051 
L 378.233046 37.917051 
" style="fill:none;stroke:#dddddd;stroke-linecap:square;stroke-width:0.5;"/>
     </g>
     <g id="line2d_98">
      <g>
       <use style="stroke:#000000;stroke-width:0.6;" x="37.960573" xlink:href="#m6fa814f7be" y="37.917051"/>
      </g>
     </g>
    </g>
    <g id="ytick_33">
     <g id="line2d_99">
      <path clip-path="url(#pd7db0484e6)" d="M 37.960573 32.155686 
L 378.233046 32.155686 
" style="fill:none;stroke:#dddddd;stroke-linecap:square;stroke-width:0.5;"/>
     </g>
     <g id="line2d_100">
      <g>
       <use style="stroke:#000000;stroke-width:0.6;" x="37.960573" xlink:href="#m6fa814f7be" y="32.155686"/>
      </g>
     </g>
    </g>
    <g id="ytick_34">
     <g id="line2d_101">
      <path clip-path="url(#pd7db0484e6)" d="M 37.960573 27.448307 
L 378.233046 27.448307 
" style="fill:none;stroke:#dddddd;stroke-linecap:square;stroke-width:0.5;"/>
     </g>
     <g id="line2d_102">
      <g>
       <use style="stroke:#000000;stroke-width:0.6;" x="37.960573" xlink:href="#m6fa814f7be" y="27.448307"/>
      </g>
     </g>
    </g>
    <g id="ytick_35">
     <g id="line2d_103">
      <path clip-path="url(#pd7db0484e6)" d="M 37.960573 23.468275 
L 378.233046 23.468275 
" style="fill:none;stroke:#dddddd;stroke-linecap:square;stroke-width:0.5;"/>
     </g>
     <g id="line2d_104">
      <g>
       <use style="stroke:#000000;stroke-width:0.6;" x="37.960573" xlink:href="#m6fa814f7be" y="23.468275"/>
      </g>
     </g>
    </g>
    <g id="ytick_36">
     <g id="line2d_105">
      <path clip-path="url(#pd7db0484e6)" d="M 37.960573 20.020615 
L 378.233046 20.020615 
" style="fill:none;stroke:#dddddd;stroke-linecap:square;stroke-width:0.5;"/>
     </g>
     <g id="line2d_106">
      <g>
       <use style="stroke:#000000;stroke-width:0.6;" x="37.960573" xlink:href="#m6fa814f7be" y="20.020615"/>
      </g>
     </g>
    </g>
    <g id="ytick_37">
     <g id="line2d_107">
      <path clip-path="url(#pd7db0484e6)" d="M 37.960573 16.979563 
L 378.233046 16.979563 
" style="fill:none;stroke:#dddddd;stroke-linecap:square;stroke-width:0.5;"/>
     </g>
     <g id="line2d_108">
      <g>
       <use style="stroke:#000000;stroke-width:0.6;" x="37.960573" xlink:href="#m6fa814f7be" y="16.979563"/>
      </g>
     </g>
    </g>
   </g>
   <g id="line2d_109">
    <path clip-path="url(#pd7db0484e6)" d="M 43.072607 21.409707 
L 46.424211 21.53599 
L 49.775816 21.705443 
L 53.12742 21.812367 
L 56.479024 22.014706 
L 59.830629 22.193932 
L 63.182233 22.436053 
L 66.533838 22.553786 
L 69.885442 22.879387 
L 73.237046 23.097787 
L 76.588651 23.359167 
L 79.940255 23.649029 
L 83.29186 23.959665 
L 86.643464 24.289824 
L 89.995068 24.626192 
L 93.346673 25.026119 
L 96.698277 25.412695 
L 100.049882 25.8207 
L 103.401486 26.26138 
L 106.75309 26.771408 
L 110.104695 27.323023 
L 113.456299 27.885979 
L 116.807904 28.482071 
L 120.159508 29.136793 
L 123.511112 29.916238 
L 126.862717 30.574156 
L 130.214321 31.423945 
L 133.565925 32.296999 
L 136.91753 33.207118 
L 140.269134 34.276636 
L 143.620739 35.278355 
L 146.972343 36.468172 
L 150.323947 37.659383 
L 153.675552 39.080345 
L 157.027156 40.384082 
L 160.378761 41.920056 
L 163.730365 43.734194 
L 167.081969 45.364334 
L 170.433574 47.09776 
L 173.785178 49.354995 
L 177.136783 51.396888 
L 180.488387 53.719617 
L 183.839991 55.961731 
L 187.191596 58.683792 
L 190.5432 61.304339 
L 193.894804 64.121887 
L 197.246409 67.282946 
L 200.598013 70.288002 
L 203.949618 74.166878 
L 207.301222 77.151317 
L 210.652826 81.523821 
L 214.004431 84.814514 
L 217.356035 88.694328 
L 220.70764 92.645182 
L 224.059244 96.7224 
L 227.410848 99.858792 
L 230.762453 102.401838 
L 234.114057 107.013265 
L 237.465662 106.964732 
L 240.817266 110.526246 
L 244.16887 108.815456 
L 247.520475 112.643927 
L 250.872079 114.574807 
L 254.223684 117.02034 
L 257.575288 121.875513 
L 260.926892 123.6605 
L 264.278497 120.023533 
L 267.630101 131.142213 
L 270.981705 121.987241 
L 274.33331 125.496154 
L 277.684914 136.963215 
L 281.036519 130.11821 
L 284.388123 138.619497 
L 287.739727 135.626053 
L 291.091332 141.119946 
L 294.442936 143.585289 
L 297.794541 122.064818 
L 301.146145 117.661685 
L 304.497749 116.654043 
L 307.849354 126.121656 
L 311.200958 110.667423 
L 314.552563 105.057549 
L 317.904167 110.884876 
L 321.255771 119.76783 
L 324.607376 101.843318 
L 327.95898 109.610282 
L 331.310584 102.91065 
L 334.662189 112.773892 
L 338.013793 107.46848 
L 341.365398 98.173535 
L 344.717002 102.831976 
L 348.068606 85.514722 
L 351.420211 83.056209 
L 354.771815 85.494136 
L 358.12342 76.497528 
L 361.475024 73.509439 
L 364.826628 83.415586 
L 368.178233 95.672094 
L 371.529837 79.689293 
L 374.881442 64.724627 
L 378.233046 64.567962 
" style="fill:none;stroke:#55aaff;stroke-linecap:square;stroke-width:1.5;"/>
   </g>
   <g id="line2d_110">
    <path clip-path="url(#pd7db0484e6)" d="M 43.072607 22.48014 
L 46.424211 22.691106 
L 49.775816 22.937357 
L 53.12742 23.207216 
L 56.479024 23.488238 
L 59.830629 23.762028 
L 63.182233 24.11549 
L 66.533838 24.437985 
L 69.885442 24.807641 
L 73.237046 25.213536 
L 76.588651 25.642147 
L 79.940255 26.076266 
L 83.29186 26.640108 
L 86.643464 27.125095 
L 89.995068 27.72979 
L 93.346673 28.344728 
L 96.698277 29.030518 
L 100.049882 29.731082 
L 103.401486 30.514988 
L 106.75309 31.353204 
L 110.104695 32.3306 
L 113.456299 33.268384 
L 116.807904 34.34078 
L 120.159508 35.441209 
L 123.511112 36.78828 
L 126.862717 38.140646 
L 130.214321 39.665543 
L 133.565925 41.305547 
L 136.91753 42.990739 
L 140.269134 44.926727 
L 143.620739 47.101324 
L 146.972343 49.214778 
L 150.323947 51.795679 
L 153.675552 54.537118 
L 157.027156 57.648571 
L 160.378761 61.028908 
L 163.730365 64.804513 
L 167.081969 68.947524 
L 170.433574 73.882599 
L 173.785178 78.806781 
L 177.136783 84.935512 
L 180.488387 92.111987 
L 183.839991 100.500662 
L 187.191596 109.840403 
L 190.5432 120.125219 
L 193.894804 136.3277 
L 197.246409 155.742075 
L 200.598013 180.603744 
L 203.949618 199.989587 
L 207.301222 177.031643 
L 210.652826 156.552635 
L 214.004431 138.194057 
L 217.356035 131.616616 
L 220.70764 121.385968 
L 224.059244 116.19314 
L 227.410848 114.135689 
L 230.762453 110.777142 
L 234.114057 111.054892 
L 237.465662 111.162681 
L 240.817266 115.083324 
L 244.16887 120.181125 
L 247.520475 123.447568 
L 250.872079 127.860451 
L 254.223684 133.574536 
L 257.575288 139.665073 
L 260.926892 148.070093 
L 264.278497 153.230354 
L 267.630101 133.139481 
L 270.981705 136.12505 
L 274.33331 125.615513 
L 277.684914 127.864124 
L 281.036519 123.606321 
L 284.388123 120.736905 
L 287.739727 120.469064 
L 291.091332 131.06476 
L 294.442936 117.538436 
L 297.794541 124.260964 
L 301.146145 120.682163 
L 304.497749 125.121188 
L 307.849354 121.353734 
L 311.200958 103.255552 
L 314.552563 106.475896 
L 317.904167 117.032583 
L 321.255771 95.038769 
L 324.607376 102.652143 
L 327.95898 107.171731 
L 331.310584 84.132352 
L 334.662189 96.209982 
L 338.013793 94.362638 
L 341.365398 90.652506 
L 344.717002 79.244979 
L 348.068606 71.591799 
L 351.420211 68.902323 
L 354.771815 64.825741 
L 358.12342 60.835184 
L 361.475024 60.997495 
L 364.826628 61.052965 
L 368.178233 81.502229 
L 371.529837 71.993215 
L 374.881442 48.217346 
L 378.233046 45.372689 
" style="fill:none;stroke:#dd5500;stroke-linecap:square;stroke-width:1.5;"/>
    <defs>
     <path d="M 0 1.5 
C 0.397805 1.5 0.77937 1.341951 1.06066 1.06066 
C 1.341951 0.77937 1.5 0.397805 1.5 0 
C 1.5 -0.397805 1.341951 -0.77937 1.06066 -1.06066 
C 0.77937 -1.341951 0.397805 -1.5 0 -1.5 
C -0.397805 -1.5 -0.77937 -1.341951 -1.06066 -1.06066 
C -1.341951 -0.77937 -1.5 -0.397805 -1.5 0 
C -1.5 0.397805 -1.341951 0.77937 -1.06066 1.06066 
C -0.77937 1.341951 -0.397805 1.5 0 1.5 
z
" id="m07e465e841" style="stroke:#dd5500;"/>
    </defs>
    <g clip-path="url(#pd7db0484e6)">
     <use style="fill:#dd5500;stroke:#dd5500;" x="43.072607" xlink:href="#m07e465e841" y="22.48014"/>
     <use style="fill:#dd5500;stroke:#dd5500;" x="46.424211" xlink:href="#m07e465e841" y="22.691106"/>
     <use style="fill:#dd5500;stroke:#dd5500;" x="49.775816" xlink:href="#m07e465e841" y="22.937357"/>
     <use style="fill:#dd5500;stroke:#dd5500;" x="53.12742" xlink:href="#m07e465e841" y="23.207216"/>
     <use style="fill:#dd5500;stroke:#dd5500;" x="56.479024" xlink:href="#m07e465e841" y="23.488238"/>
     <use style="fill:#dd5500;stroke:#dd5500;" x="59.830629" xlink:href="#m07e465e841" y="23.762028"/>
     <use style="fill:#dd5500;stroke:#dd5500;" x="63.182233" xlink:href="#m07e465e841" y="24.11549"/>
     <use style="fill:#dd5500;stroke:#dd5500;" x="66.533838" xlink:href="#m07e465e841" y="24.437985"/>
     <use style="fill:#dd5500;stroke:#dd5500;" x="69.885442" xlink:href="#m07e465e841" y="24.807641"/>
     <use style="fill:#dd5500;stroke:#dd5500;" x="73.237046" xlink:href="#m07e465e841" y="25.213536"/>
     <use style="fill:#dd5500;stroke:#dd5500;" x="76.588651" xlink:href="#m07e465e841" y="25.642147"/>
     <use style="fill:#dd5500;stroke:#dd5500;" x="79.940255" xlink:href="#m07e465e841" y="26.076266"/>
     <use style="fill:#dd5500;stroke:#dd5500;" x="83.29186" xlink:href="#m07e465e841" y="26.640108"/>
     <use style="fill:#dd5500;stroke:#dd5500;" x="86.643464" xlink:href="#m07e465e841" y="27.125095"/>
     <use style="fill:#dd5500;stroke:#dd5500;" x="89.995068" xlink:href="#m07e465e841" y="27.72979"/>
     <use style="fill:#dd5500;stroke:#dd5500;" x="93.346673" xlink:href="#m07e465e841" y="28.344728"/>
     <use style="fill:#dd5500;stroke:#dd5500;" x="96.698277" xlink:href="#m07e465e841" y="29.030518"/>
     <use style="fill:#dd5500;stroke:#dd5500;" x="100.049882" xlink:href="#m07e465e841" y="29.731082"/>
     <use style="fill:#dd5500;stroke:#dd5500;" x="103.401486" xlink:href="#m07e465e841" y="30.514988"/>
     <use style="fill:#dd5500;stroke:#dd5500;" x="106.75309" xlink:href="#m07e465e841" y="31.353204"/>
     <use style="fill:#dd5500;stroke:#dd5500;" x="110.104695" xlink:href="#m07e465e841" y="32.3306"/>
     <use style="fill:#dd5500;stroke:#dd5500;" x="113.456299" xlink:href="#m07e465e841" y="33.268384"/>
     <use style="fill:#dd5500;stroke:#dd5500;" x="116.807904" xlink:href="#m07e465e841" y="34.34078"/>
     <use style="fill:#dd5500;stroke:#dd5500;" x="120.159508" xlink:href="#m07e465e841" y="35.441209"/>
     <use style="fill:#dd5500;stroke:#dd5500;" x="123.511112" xlink:href="#m07e465e841" y="36.78828"/>
     <use style="fill:#dd5500;stroke:#dd5500;" x="126.862717" xlink:href="#m07e465e841" y="38.140646"/>
     <use style="fill:#dd5500;stroke:#dd5500;" x="130.214321" xlink:href="#m07e465e841" y="39.665543"/>
     <use style="fill:#dd5500;stroke:#dd5500;" x="133.565925" xlink:href="#m07e465e841" y="41.305547"/>
     <use style="fill:#dd5500;stroke:#dd5500;" x="136.91753" xlink:href="#m07e465e841" y="42.990739"/>
     <use style="fill:#dd5500;stroke:#dd5500;" x="140.269134" xlink:href="#m07e465e841" y="44.926727"/>
     <use style="fill:#dd5500;stroke:#dd5500;" x="143.620739" xlink:href="#m07e465e841" y="47.101324"/>
     <use style="fill:#dd5500;stroke:#dd5500;" x="146.972343" xlink:href="#m07e465e841" y="49.214778"/>
     <use style="fill:#dd5500;stroke:#dd5500;" x="150.323947" xlink:href="#m07e465e841" y="51.795679"/>
     <use style="fill:#dd5500;stroke:#dd5500;" x="153.675552" xlink:href="#m07e465e841" y="54.537118"/>
     <use style="fill:#dd5500;stroke:#dd5500;" x="157.027156" xlink:href="#m07e465e841" y="57.648571"/>
     <use style="fill:#dd5500;stroke:#dd5500;" x="160.378761" xlink:href="#m07e465e841" y="61.028908"/>
     <use style="fill:#dd5500;stroke:#dd5500;" x="163.730365" xlink:href="#m07e465e841" y="64.804513"/>
     <use style="fill:#dd5500;stroke:#dd5500;" x="167.081969" xlink:href="#m07e465e841" y="68.947524"/>
     <use style="fill:#dd5500;stroke:#dd5500;" x="170.433574" xlink:href="#m07e465e841" y="73.882599"/>
     <use style="fill:#dd5500;stroke:#dd5500;" x="173.785178" xlink:href="#m07e465e841" y="78.806781"/>
     <use style="fill:#dd5500;stroke:#dd5500;" x="177.136783" xlink:href="#m07e465e841" y="84.935512"/>
     <use style="fill:#dd5500;stroke:#dd5500;" x="180.488387" xlink:href="#m07e465e841" y="92.111987"/>
     <use style="fill:#dd5500;stroke:#dd5500;" x="183.839991" xlink:href="#m07e465e841" y="100.500662"/>
     <use style="fill:#dd5500;stroke:#dd5500;" x="187.191596" xlink:href="#m07e465e841" y="109.840403"/>
     <use style="fill:#dd5500;stroke:#dd5500;" x="190.5432" xlink:href="#m07e465e841" y="120.125219"/>
     <use style="fill:#dd5500;stroke:#dd5500;" x="193.894804" xlink:href="#m07e465e841" y="136.3277"/>
     <use style="fill:#dd5500;stroke:#dd5500;" x="197.246409" xlink:href="#m07e465e841" y="155.742075"/>
     <use style="fill:#dd5500;stroke:#dd5500;" x="200.598013" xlink:href="#m07e465e841" y="180.603744"/>
     <use style="fill:#dd5500;stroke:#dd5500;" x="203.949618" xlink:href="#m07e465e841" y="199.989587"/>
     <use style="fill:#dd5500;stroke:#dd5500;" x="207.301222" xlink:href="#m07e465e841" y="177.031643"/>
     <use style="fill:#dd5500;stroke:#dd5500;" x="210.652826" xlink:href="#m07e465e841" y="156.552635"/>
     <use style="fill:#dd5500;stroke:#dd5500;" x="214.004431" xlink:href="#m07e465e841" y="138.194057"/>
     <use style="fill:#dd5500;stroke:#dd5500;" x="217.356035" xlink:href="#m07e465e841" y="131.616616"/>
     <use style="fill:#dd5500;stroke:#dd5500;" x="220.70764" xlink:href="#m07e465e841" y="121.385968"/>
     <use style="fill:#dd5500;stroke:#dd5500;" x="224.059244" xlink:href="#m07e465e841" y="116.19314"/>
     <use style="fill:#dd5500;stroke:#dd5500;" x="227.410848" xlink:href="#m07e465e841" y="114.135689"/>
     <use style="fill:#dd5500;stroke:#dd5500;" x="230.762453" xlink:href="#m07e465e841" y="110.777142"/>
     <use style="fill:#dd5500;stroke:#dd5500;" x="234.114057" xlink:href="#m07e465e841" y="111.054892"/>
     <use style="fill:#dd5500;stroke:#dd5500;" x="237.465662" xlink:href="#m07e465e841" y="111.162681"/>
     <use style="fill:#dd5500;stroke:#dd5500;" x="240.817266" xlink:href="#m07e465e841" y="115.083324"/>
     <use style="fill:#dd5500;stroke:#dd5500;" x="244.16887" xlink:href="#m07e465e841" y="120.181125"/>
     <use style="fill:#dd5500;stroke:#dd5500;" x="247.520475" xlink:href="#m07e465e841" y="123.447568"/>
     <use style="fill:#dd5500;stroke:#dd5500;" x="250.872079" xlink:href="#m07e465e841" y="127.860451"/>
     <use style="fill:#dd5500;stroke:#dd5500;" x="254.223684" xlink:href="#m07e465e841" y="133.574536"/>
     <use style="fill:#dd5500;stroke:#dd5500;" x="257.575288" xlink:href="#m07e465e841" y="139.665073"/>
     <use style="fill:#dd5500;stroke:#dd5500;" x="260.926892" xlink:href="#m07e465e841" y="148.070093"/>
     <use style="fill:#dd5500;stroke:#dd5500;" x="264.278497" xlink:href="#m07e465e841" y="153.230354"/>
     <use style="fill:#dd5500;stroke:#dd5500;" x="267.630101" xlink:href="#m07e465e841" y="133.139481"/>
     <use style="fill:#dd5500;stroke:#dd5500;" x="270.981705" xlink:href="#m07e465e841" y="136.12505"/>
     <use style="fill:#dd5500;stroke:#dd5500;" x="274.33331" xlink:href="#m07e465e841" y="125.615513"/>
     <use style="fill:#dd5500;stroke:#dd5500;" x="277.684914" xlink:href="#m07e465e841" y="127.864124"/>
     <use style="fill:#dd5500;stroke:#dd5500;" x="281.036519" xlink:href="#m07e465e841" y="123.606321"/>
     <use style="fill:#dd5500;stroke:#dd5500;" x="284.388123" xlink:href="#m07e465e841" y="120.736905"/>
     <use style="fill:#dd5500;stroke:#dd5500;" x="287.739727" xlink:href="#m07e465e841" y="120.469064"/>
     <use style="fill:#dd5500;stroke:#dd5500;" x="291.091332" xlink:href="#m07e465e841" y="131.06476"/>
     <use style="fill:#dd5500;stroke:#dd5500;" x="294.442936" xlink:href="#m07e465e841" y="117.538436"/>
     <use style="fill:#dd5500;stroke:#dd5500;" x="297.794541" xlink:href="#m07e465e841" y="124.260964"/>
     <use style="fill:#dd5500;stroke:#dd5500;" x="301.146145" xlink:href="#m07e465e841" y="120.682163"/>
     <use style="fill:#dd5500;stroke:#dd5500;" x="304.497749" xlink:href="#m07e465e841" y="125.121188"/>
     <use style="fill:#dd5500;stroke:#dd5500;" x="307.849354" xlink:href="#m07e465e841" y="121.353734"/>
     <use style="fill:#dd5500;stroke:#dd5500;" x="311.200958" xlink:href="#m07e465e841" y="103.255552"/>
     <use style="fill:#dd5500;stroke:#dd5500;" x="314.552563" xlink:href="#m07e465e841" y="106.475896"/>
     <use style="fill:#dd5500;stroke:#dd5500;" x="317.904167" xlink:href="#m07e465e841" y="117.032583"/>
     <use style="fill:#dd5500;stroke:#dd5500;" x="321.255771" xlink:href="#m07e465e841" y="95.038769"/>
     <use style="fill:#dd5500;stroke:#dd5500;" x="324.607376" xlink:href="#m07e465e841" y="102.652143"/>
     <use style="fill:#dd5500;stroke:#dd5500;" x="327.95898" xlink:href="#m07e465e841" y="107.171731"/>
     <use style="fill:#dd5500;stroke:#dd5500;" x="331.310584" xlink:href="#m07e465e841" y="84.132352"/>
     <use style="fill:#dd5500;stroke:#dd5500;" x="334.662189" xlink:href="#m07e465e841" y="96.209982"/>
     <use style="fill:#dd5500;stroke:#dd5500;" x="338.013793" xlink:href="#m07e465e841" y="94.362638"/>
     <use style="fill:#dd5500;stroke:#dd5500;" x="341.365398" xlink:href="#m07e465e841" y="90.652506"/>
     <use style="fill:#dd5500;stroke:#dd5500;" x="344.717002" xlink:href="#m07e465e841" y="79.244979"/>
     <use style="fill:#dd5500;stroke:#dd5500;" x="348.068606" xlink:href="#m07e465e841" y="71.591799"/>
     <use style="fill:#dd5500;stroke:#dd5500;" x="351.420211" xlink:href="#m07e465e841" y="68.902323"/>
     <use style="fill:#dd5500;stroke:#dd5500;" x="354.771815" xlink:href="#m07e465e841" y="64.825741"/>
     <use style="fill:#dd5500;stroke:#dd5500;" x="358.12342" xlink:href="#m07e465e841" y="60.835184"/>
     <use style="fill:#dd5500;stroke:#dd5500;" x="361.475024" xlink:href="#m07e465e841" y="60.997495"/>
     <use style="fill:#dd5500;stroke:#dd5500;" x="364.826628" xlink:href="#m07e465e841" y="61.052965"/>
     <use style="fill:#dd5500;stroke:#dd5500;" x="368.178233" xlink:href="#m07e465e841" y="81.502229"/>
     <use style="fill:#dd5500;stroke:#dd5500;" x="371.529837" xlink:href="#m07e465e841" y="71.993215"/>
     <use style="fill:#dd5500;stroke:#dd5500;" x="374.881442" xlink:href="#m07e465e841" y="48.217346"/>
     <use style="fill:#dd5500;stroke:#dd5500;" x="378.233046" xlink:href="#m07e465e841" y="45.372689"/>
    </g>
   </g>
   <g id="line2d_111">
    <path clip-path="url(#pd7db0484e6)" d="M -1 234.062993 
L -0.93836 234.046592 
L 3.575585 232.845568 
L 8.089531 231.644545 
L 12.603476 230.443521 
L 17.117421 229.242497 
L 21.631367 228.041474 
L 26.145312 226.84045 
L 30.659257 225.639426 
L 35.173203 224.438402 
L 39.687148 223.237379 
L 44.201093 222.036355 
L 48.715039 220.835331 
L 53.228984 219.634307 
L 57.742929 218.433284 
L 62.256874 217.23226 
L 66.77082 216.031236 
L 71.284765 214.830213 
L 75.79871 213.629189 
L 80.312656 212.428165 
L 84.826601 211.227141 
L 89.340546 210.026118 
L 93.854492 208.825094 
L 98.368437 207.62407 
L 102.882382 206.423046 
L 107.396328 205.222023 
L 111.910273 204.020999 
L 116.424218 202.819975 
L 120.938163 201.618951 
L 125.452109 200.417928 
L 129.966054 199.216904 
L 134.479999 198.01588 
L 138.993945 196.814857 
L 143.50789 195.613833 
L 148.021835 194.412809 
L 152.535781 193.211785 
L 157.049726 192.010762 
L 161.563671 190.809738 
L 166.077617 189.608714 
L 170.591562 188.40769 
L 175.105507 187.206667 
L 179.619452 186.005643 
L 184.133398 184.804619 
L 188.647343 183.603595 
L 193.161288 182.402572 
L 197.675234 181.201548 
L 202.189179 180.000524 
L 206.703124 178.799501 
L 211.21707 177.598477 
L 215.731015 176.397453 
L 220.24496 175.196429 
L 224.758906 173.995406 
L 229.272851 172.794382 
L 233.786796 171.593358 
L 238.300741 170.392334 
L 242.814687 169.191311 
L 247.328632 167.990287 
L 251.842577 166.789263 
L 256.356523 165.588239 
L 260.870468 164.387216 
L 265.384413 163.186192 
L 269.898359 161.985168 
L 274.412304 160.784145 
L 278.926249 159.583121 
L 283.440195 158.382097 
L 287.95414 157.181073 
L 292.468085 155.98005 
L 296.98203 154.779026 
L 301.495976 153.578002 
L 306.009921 152.376978 
L 310.523866 151.175955 
L 315.037812 149.974931 
L 319.551757 148.773907 
L 324.065702 147.572883 
L 328.579648 146.37186 
L 333.093593 145.170836 
L 337.607538 143.969812 
L 342.121483 142.768789 
L 346.635429 141.567765 
L 351.149374 140.366741 
L 355.663319 139.165717 
L 360.177265 137.964694 
L 364.69121 136.76367 
L 369.205155 135.562646 
L 373.719101 134.361622 
L 378.233046 133.160599 
" style="fill:none;stroke:#000000;stroke-linecap:square;stroke-width:1.5;"/>
   </g>
   <g id="patch_3">
    <path d="M 37.960573 252.061948 
L 37.960573 14.259249 
" style="fill:none;stroke:#000000;stroke-linecap:square;stroke-linejoin:miter;stroke-width:0.8;"/>
   </g>
   <g id="patch_4">
    <path d="M 378.233046 252.061948 
L 378.233046 14.259249 
" style="fill:none;stroke:#000000;stroke-linecap:square;stroke-linejoin:miter;stroke-width:0.8;"/>
   </g>
   <g id="patch_5">
    <path d="M 37.960573 252.061948 
L 378.233046 252.061948 
" style="fill:none;stroke:#000000;stroke-linecap:square;stroke-linejoin:miter;stroke-width:0.8;"/>
   </g>
   <g id="patch_6">
    <path d="M 37.960573 14.259249 
L 378.233046 14.259249 
" style="fill:none;stroke:#000000;stroke-linecap:square;stroke-linejoin:miter;stroke-width:0.8;"/>
   </g>
   <g id="legend_1">
    <g id="patch_7">
     <path d="M 257.25222 247.061948 
L 371.233046 247.061948 
Q 373.233046 247.061948 373.233046 245.061948 
L 373.233046 202.865216 
Q 373.233046 200.865216 371.233046 200.865216 
L 257.25222 200.865216 
Q 255.25222 200.865216 255.25222 202.865216 
L 255.25222 245.061948 
Q 255.25222 247.061948 257.25222 247.061948 
z
" style="fill:#ffffff;opacity:0.8;stroke:#cccccc;stroke-linejoin:miter;"/>
    </g>
    <g id="line2d_112">
     <path d="M 259.25222 208.365216 
L 279.25222 208.365216 
" style="fill:none;stroke:#55aaff;stroke-linecap:square;stroke-width:1.5;"/>
    </g>
    <g id="line2d_113"/>
    <g id="text_9">
     <!-- linear -->
     <defs>
      <path d="M 15 23.703125 
C 15 33.34375 19.09375 42.390625 26.59375 42.390625 
C 27.296875 42.390625 28 42.296875 28.703125 41.984375 
C 28.703125 41.984375 26.5 41.28125 26.5 38.671875 
C 26.5 36.265625 28.40625 35.265625 29.90625 35.265625 
C 31.09375 35.265625 33.296875 35.96875 33.296875 38.78125 
C 33.296875 41.984375 30.09375 44 26.703125 44 
C 19.09375 44 15.796875 36.5625 14.796875 33.046875 
L 14.703125 33.046875 
L 14.703125 44 
L 3.09375 42.890625 
L 3.09375 40.28125 
C 9 40.28125 9.90625 39.6875 9.90625 34.859375 
L 9.90625 6.921875 
C 9.90625 3.09375 9.5 2.59375 3.09375 2.59375 
L 3.09375 0 
C 5.5 0.1875 10.09375 0.1875 12.703125 0.1875 
C 15.59375 0.1875 20.703125 0.1875 23.40625 0 
L 23.40625 2.59375 
C 16.203125 2.59375 15 2.59375 15 7.109375 
z
" id="CMR17-114"/>
     </defs>
     <g transform="translate(287.25222 211.865216)scale(0.1 -0.1)">
      <use transform="scale(0.996264)" xlink:href="#CMR17-108"/>
      <use transform="translate(24.871058 0)scale(0.996264)" xlink:href="#CMR17-105"/>
      <use transform="translate(49.742117 0)scale(0.996264)" xlink:href="#CMR17-110"/>
      <use transform="translate(100.637487 0)scale(0.996264)" xlink:href="#CMR17-101"/>
      <use transform="translate(141.123147 0)scale(0.996264)" xlink:href="#CMR17-97"/>
      <use transform="translate(186.813624 0)scale(0.996264)" xlink:href="#CMR17-114"/>
     </g>
    </g>
    <g id="line2d_114">
     <path d="M 259.25222 222.302395 
L 279.25222 222.302395 
" style="fill:none;stroke:#dd5500;stroke-linecap:square;stroke-width:1.5;"/>
    </g>
    <g id="line2d_115">
     <g>
      <use style="fill:#dd5500;stroke:#dd5500;" x="269.25222" xlink:href="#m07e465e841" y="222.302395"/>
     </g>
    </g>
    <g id="text_10">
     <!-- shaped -->
     <defs>
      <path d="M 41.5 30.53125 
C 41.5 35.65625 40.5 44 28.703125 44 
C 20.5 44 16.5 37.375 15.296875 34.046875 
L 15.203125 34.046875 
L 15.203125 69 
L 3.296875 67.890625 
L 3.296875 65.296875 
C 9.203125 65.296875 10.09375 64.703125 10.09375 60.046875 
L 10.09375 6.921875 
C 10.09375 3.09375 9.703125 2.59375 3.296875 2.59375 
L 3.296875 0 
C 5.703125 0.1875 10.09375 0.1875 12.703125 0.1875 
C 15.296875 0.1875 19.796875 0.1875 22.203125 0 
L 22.203125 2.59375 
C 15.796875 2.59375 15.40625 3 15.40625 6.921875 
L 15.40625 26.21875 
C 15.40625 35.453125 21 42.390625 28 42.390625 
C 35.40625 42.390625 36.203125 35.765625 36.203125 30.9375 
L 36.203125 6.921875 
C 36.203125 3.09375 35.796875 2.59375 29.40625 2.59375 
L 29.40625 0 
C 31.796875 0.1875 36.203125 0.1875 38.796875 0.1875 
C 41.40625 0.1875 45.90625 0.1875 48.296875 0 
L 48.296875 2.59375 
C 41.90625 2.59375 41.5 3 41.5 6.921875 
z
" id="CMR17-104"/>
      <path d="M 22 -17.40625 
C 15.59375 -17.40625 15.203125 -17 15.203125 -13.03125 
L 15.203125 5.9375 
C 18.09375 1.703125 22.296875 -1 27.59375 -1 
C 37.59375 -1 47.703125 7.859375 47.703125 21.59375 
C 47.703125 34.3125 39 44 28.703125 44 
C 22.703125 44 17.796875 40.671875 15 36.640625 
L 15 44 
L 3.09375 42.890625 
L 3.09375 40.265625 
C 9 40.265625 9.90625 39.671875 9.90625 34.8125 
L 9.90625 -13.03125 
C 9.90625 -16.890625 9.5 -17.40625 3.09375 -17.40625 
L 3.09375 -20 
C 5.5 -19.8125 9.90625 -19.8125 12.5 -19.8125 
C 15.09375 -19.8125 19.59375 -19.8125 22 -20 
z
M 15.203125 31.484375 
C 15.203125 32.90625 15.203125 35.015625 19.09375 38.765625 
C 19.59375 39.15625 23 42.1875 28 42.1875 
C 35.296875 42.1875 41.296875 33 41.296875 21.5 
C 41.296875 9.984375 34.90625 0.59375 27 0.59375 
C 23.40625 0.59375 19.5 2.3125 16.5 7.046875 
C 15.203125 9.28125 15.203125 9.875 15.203125 11.5 
z
" id="CMR17-112"/>
      <path d="M 29.203125 67.890625 
L 29.203125 65.296875 
C 35.09375 65.296875 36 64.703125 36 60.046875 
L 36 37.046875 
C 35.59375 37.546875 31.5 44 23.40625 44 
C 13.203125 44 3.296875 34.8125 3.296875 21.5 
C 3.296875 8.265625 12.59375 -1 22.40625 -1 
C 30.90625 -1 35.296875 5.640625 35.796875 6.34375 
L 35.796875 -1 
L 47.90625 -0.203125 
L 47.90625 2.40625 
C 42 2.40625 41.09375 3.015625 41.09375 7.859375 
L 41.09375 69 
z
M 35.796875 11.90625 
C 35.796875 8.875 34 6.140625 31.703125 4.125 
C 28.296875 1.09375 24.90625 0.59375 23 0.59375 
C 20.09375 0.59375 9.703125 2.109375 9.703125 21.390625 
C 9.703125 41.1875 21.296875 42.390625 23.90625 42.390625 
C 28.5 42.390625 32.203125 39.765625 34.5 36.140625 
C 35.796875 34.015625 35.796875 33.703125 35.796875 31.890625 
z
" id="CMR17-100"/>
     </defs>
     <g transform="translate(287.25222 225.802395)scale(0.1 -0.1)">
      <use transform="scale(0.996264)" xlink:href="#CMR17-115"/>
      <use transform="translate(35.801338 0)scale(0.996264)" xlink:href="#CMR17-104"/>
      <use transform="translate(86.696707 0)scale(0.996264)" xlink:href="#CMR17-97"/>
      <use transform="translate(132.387185 0)scale(0.996264)" xlink:href="#CMR17-112"/>
      <use transform="translate(185.884993 0)scale(0.996264)" xlink:href="#CMR17-101"/>
      <use transform="translate(226.370654 0)scale(0.996264)" xlink:href="#CMR17-100"/>
     </g>
    </g>
    <g id="line2d_116">
     <path d="M 259.25222 236.711553 
L 279.25222 236.711553 
" style="fill:none;stroke:#000000;stroke-linecap:square;stroke-width:1.5;"/>
    </g>
    <g id="line2d_117"/>
    <g id="text_11">
     <!-- $t_f / T_1$, $T_1 = 0.1\textrm{ ms}$ -->
     <defs>
      <path d="M 42.90625 71.296875 
C 42.90625 71.390625 43.5 72.890625 43.5 73.09375 
C 43.5 74.296875 42.5 75 41.703125 75 
C 41.203125 75 40.296875 75 39.5 72.796875 
L 6 -21.3125 
C 6 -21.40625 5.40625 -22.90625 5.40625 -23.109375 
C 5.40625 -24.3125 6.40625 -25 7.203125 -25 
C 7.796875 -25 8.703125 -24.90625 9.40625 -22.8125 
z
" id="CMMI12-61"/>
      <path d="M 41.703125 60.71875 
C 42.296875 63.09375 42.5 64 44 64.390625 
C 44.796875 64.59375 48.09375 64.59375 50.203125 64.59375 
C 60.203125 64.59375 64.90625 64.203125 64.90625 56.4375 
C 64.90625 54.9375 64.5 51.15625 63.90625 47.46875 
L 63.796875 46.28125 
C 63.796875 45.890625 64.203125 45.28125 64.796875 45.28125 
C 65.796875 45.28125 65.796875 45.78125 66.09375 47.375 
L 69 64.984375 
C 69.203125 65.890625 69.203125 66.09375 69.203125 66.390625 
C 69.203125 67.484375 68.59375 67.484375 66.59375 67.484375 
L 11.90625 67.484375 
C 9.59375 67.484375 9.5 67.390625 8.90625 65.59375 
L 2.796875 47.671875 
C 2.703125 47.46875 2.40625 46.375 2.40625 46.28125 
C 2.40625 45.78125 2.796875 45.28125 3.40625 45.28125 
C 4.203125 45.28125 4.40625 45.6875 4.796875 46.984375 
C 9 59.015625 11.09375 64.59375 24.40625 64.59375 
L 31.09375 64.59375 
C 33.5 64.59375 34.5 64.59375 34.5 63.5 
C 34.5 63.203125 34.5 63 34 61.203125 
L 20.59375 7.765625 
C 19.59375 3.890625 19.40625 2.890625 8.796875 2.890625 
C 6.296875 2.890625 5.59375 2.890625 5.59375 1 
C 5.59375 0 6.703125 0 7.203125 0 
C 9.703125 0 12.296875 0.1875 14.796875 0.1875 
L 30.40625 0.1875 
C 32.90625 0.1875 35.59375 0 38.09375 0 
C 39.203125 0 40.203125 0 40.203125 1.890625 
C 40.203125 2.890625 39.5 2.890625 36.90625 2.890625 
C 27.90625 2.890625 27.90625 3.78125 27.90625 5.28125 
C 27.90625 5.375 27.90625 6.078125 28.296875 7.671875 
z
" id="CMMI12-84"/>
      <path d="M 15.796875 1.59375 
C 16 0.6875 16 0.390625 16 -1.1875 
C 16 -7.046875 14 -12.421875 9.796875 -17.3125 
C 9.296875 -17.8125 9.296875 -18 9.296875 -18.203125 
C 9.296875 -18.609375 9.703125 -19 10.09375 -19 
C 10.703125 -19 17.59375 -12.125 17.59375 -1.28125 
C 17.59375 2 17.203125 8.1875 12.5 8.1875 
C 10.296875 8.1875 8.40625 6.6875 8.40625 4.09375 
C 8.40625 1.5 10.296875 0 12.5 0 
C 13.703125 0 15 0.5 15.796875 1.59375 
z
" id="CMR17-44"/>
      <path d="M 64.296875 32 
C 65.796875 32 67.296875 32 67.296875 33.6875 
C 67.296875 35.5 65.59375 35.5 63.90625 35.5 
L 8 35.5 
C 6.296875 35.5 4.59375 35.5 4.59375 33.6875 
C 4.59375 32 6.09375 32 7.59375 32 
z
M 63.90625 14.484375 
C 65.59375 14.484375 67.296875 14.484375 67.296875 16.296875 
C 67.296875 18 65.796875 18 64.296875 18 
L 7.59375 18 
C 6.09375 18 4.59375 18 4.59375 16.296875 
C 4.59375 14.484375 6.296875 14.484375 8 14.484375 
z
" id="CMR17-61"/>
      <path d="M 18.40625 4.796875 
C 18.40625 7.6875 16 9.6875 13.59375 9.6875 
C 10.703125 9.6875 8.703125 7.296875 8.703125 4.890625 
C 8.703125 2 11.09375 0 13.5 0 
C 16.40625 0 18.40625 2.390625 18.40625 4.796875 
z
" id="CMMI12-58"/>
     </defs>
     <g transform="translate(287.25222 240.211553)scale(0.1 -0.1)">
      <use transform="scale(0.996264)" xlink:href="#CMMI12-116"/>
      <use transform="translate(35.22633 -14.943915)scale(0.697382)" xlink:href="#CMMI12-102"/>
      <use transform="translate(76.828486 0)scale(0.996264)" xlink:href="#CMMI12-61"/>
      <use transform="translate(125.603404 0)scale(0.996264)" xlink:href="#CMMI12-84"/>
      <use transform="translate(182.778448 -14.943915)scale(0.697382)" xlink:href="#CMR17-49"/>
      <use transform="translate(215.259762 0)scale(0.996264)" xlink:href="#CMR17-44"/>
      <use transform="translate(270.206787 0)scale(0.996264)" xlink:href="#CMMI12-84"/>
      <use transform="translate(327.38183 -14.943915)scale(0.697382)" xlink:href="#CMR17-49"/>
      <use transform="translate(387.537153 0)scale(0.996264)" xlink:href="#CMR17-61"/>
      <use transform="translate(486.92595 0)scale(0.996264)" xlink:href="#CMR17-48"/>
      <use transform="translate(532.616427 0)scale(0.996264)" xlink:href="#CMMI12-58"/>
      <use transform="translate(559.713605 0)scale(0.996264)" xlink:href="#CMR17-49"/>
      <use transform="translate(635.480048 0)scale(0.996264)" xlink:href="#CMR17-109"/>
      <use transform="translate(712.399638 0)scale(0.996264)" xlink:href="#CMR17-115"/>
     </g>
    </g>
   </g>
  </g>
 </g>
 <defs>
  <clipPath id="pd7db0484e6">
   <rect height="237.802699" width="340.272473" x="37.960573" y="14.259249"/>
  </clipPath>
 </defs>
</svg>
