<?xml version="1.0" encoding="utf-8" standalone="no"?>
<!DOCTYPE svg PUBLIC "-//W3C//DTD SVG 1.1//EN"
  "http://www.w3.org/Graphics/SVG/1.1/DTD/svg11.dtd">
<!-- Created with matplotlib (https://matplotlib.org/) -->
<svg height="344.16pt" version="1.1" viewBox="0 0 460.8 344.16" width="460.8pt" xmlns="http://www.w3.org/2000/svg" xmlns:xlink="http://www.w3.org/1999/xlink">
 <defs>
  <style type="text/css">
*{stroke-linecap:butt;stroke-linejoin:round;}
  </style>
 </defs>
 <g id="figure_1">
  <g id="patch_1">
   <path d="M 0 344.16 
L 460.8 344.16 
L 460.8 0 
L 0 0 
z
" style="fill:#ffffff;"/>
  </g>
  <g id="axes_1">
   <g id="patch_2">
    <path d="M 57.6 306.3024 
L 414.72 306.3024 
L 414.72 41.2992 
L 57.6 41.2992 
z
" style="fill:#ffffff;"/>
   </g>
   <g id="PolyCollection_1">
    <path clip-path="url(#p860e1c43df)" d="M 57.6 266.371936 
L 57.6 266.990334 
L 60.200463 266.990334 
L 60.200463 266.979281 
L 65.200143 266.979281 
L 65.200143 267.199976 
L 70.199823 267.199976 
L 70.199823 267.291867 
L 75.199503 267.291867 
L 75.199503 267.028913 
L 80.199183 267.028913 
L 80.199183 267.592672 
L 85.198863 267.592672 
L 85.198863 267.657418 
L 90.198543 267.657418 
L 90.198543 267.509407 
L 95.198223 267.509407 
L 95.198223 267.731196 
L 100.197903 267.731196 
L 100.197903 267.825464 
L 105.197583 267.825464 
L 105.197583 268.036887 
L 110.197263 268.036887 
L 110.197263 267.954011 
L 115.196943 267.954011 
L 115.196943 268.505662 
L 120.196623 268.505662 
L 120.196623 269.412133 
L 125.196303 269.412133 
L 125.196303 270.337131 
L 130.195983 270.337131 
L 130.195983 269.54871 
L 135.195663 269.54871 
L 135.195663 271.393913 
L 140.195343 271.393913 
L 140.195343 270.75977 
L 145.195023 270.75977 
L 145.195023 271.390112 
L 150.194703 271.390112 
L 150.194703 274.486669 
L 155.194383 274.486669 
L 155.194383 273.771328 
L 160.194063 273.771328 
L 160.194063 274.018358 
L 165.193743 274.018358 
L 165.193743 276.228749 
L 170.193423 276.228749 
L 170.193423 275.290124 
L 175.193103 275.290124 
L 175.193103 275.52895 
L 180.192783 275.52895 
L 180.192783 283.793693 
L 185.192463 283.793693 
L 185.192463 284.674735 
L 190.192143 284.674735 
L 190.192143 280.275961 
L 195.191823 280.275961 
L 195.191823 270.909824 
L 200.191503 270.909824 
L 200.191503 275.495346 
L 205.191183 275.495346 
L 205.191183 278.99545 
L 210.190863 278.99545 
L 210.190863 272.621994 
L 215.190543 272.621994 
L 215.190543 279.484531 
L 220.190223 279.484531 
L 220.190223 259.456448 
L 225.189903 259.456448 
L 225.189903 254.725935 
L 230.189583 254.725935 
L 230.189583 240.256013 
L 235.189263 240.256013 
L 235.189263 235.385959 
L 240.188943 235.385959 
L 240.188943 238.83378 
L 245.188623 238.83378 
L 245.188623 228.992862 
L 250.188303 228.992862 
L 250.188303 211.884417 
L 255.187983 211.884417 
L 255.187983 213.379494 
L 260.187663 213.379494 
L 260.187663 201.579449 
L 265.187343 201.579449 
L 265.187343 195.171823 
L 270.187023 195.171823 
L 270.187023 165.38539 
L 275.186703 165.38539 
L 275.186703 167.458946 
L 280.186383 167.458946 
L 280.186383 161.843465 
L 285.186063 161.843465 
L 285.186063 158.215899 
L 290.185743 158.215899 
L 290.185743 138.799999 
L 295.185423 138.799999 
L 295.185423 138.197818 
L 300.185103 138.197818 
L 300.185103 123.556991 
L 305.184783 123.556991 
L 305.184783 121.169771 
L 310.184463 121.169771 
L 310.184463 102.182566 
L 315.184143 102.182566 
L 315.184143 104.169658 
L 320.183823 104.169658 
L 320.183823 96.789734 
L 325.183503 96.789734 
L 325.183503 94.423478 
L 330.183183 94.423478 
L 330.183183 92.981759 
L 335.182863 92.981759 
L 335.182863 85.006007 
L 340.182543 85.006007 
L 340.182543 87.213721 
L 345.182223 87.213721 
L 345.182223 95.165382 
L 350.181903 95.165382 
L 350.181903 84.610077 
L 355.181583 84.610077 
L 355.181583 86.304086 
L 360.181263 86.304086 
L 360.181263 81.437675 
L 365.180943 81.437675 
L 365.180943 80.716079 
L 370.180623 80.716079 
L 370.180623 87.854254 
L 375.180303 87.854254 
L 375.180303 92.642615 
L 380.179983 92.642615 
L 380.179983 83.480838 
L 385.179663 83.480838 
L 385.179663 88.26301 
L 390.179343 88.26301 
L 390.179343 94.644936 
L 395.179023 94.644936 
L 395.179023 88.27537 
L 400.178703 88.27537 
L 400.178703 79.470335 
L 405.178383 79.470335 
L 405.178383 87.668474 
L 410.178063 87.668474 
L 410.178063 86.310258 
L 415.177743 86.310258 
L 415.177743 86.110305 
L 420.177423 86.110305 
L 420.177423 88.063362 
L 425.177103 88.063362 
L 425.177103 77.337861 
L 430.176783 77.337861 
L 430.176783 82.348729 
L 435.176463 82.348729 
L 435.176463 82.563282 
L 440.176143 82.563282 
L 440.176143 76.252334 
L 445.175823 76.252334 
L 445.175823 70.694746 
L 450.175503 70.694746 
L 450.175503 79.321747 
L 455.175183 79.321747 
L 455.175183 82.961989 
L 460.174863 82.961989 
L 460.174863 93.728886 
L 465.174543 93.728886 
L 465.174543 97.764585 
L 470.174223 97.764585 
L 470.174223 90.018509 
L 475.173903 90.018509 
L 475.173903 88.295071 
L 480.173583 88.295071 
L 480.173583 94.536762 
L 485.173263 94.536762 
L 485.173263 95.015704 
L 490.172943 95.015704 
L 490.172943 88.869215 
L 495.172623 88.869215 
L 495.172623 108.060737 
L 500.172303 108.060737 
L 500.172303 108.447209 
L 505.171983 108.447209 
L 505.171983 105.601338 
L 510.171663 105.601338 
L 510.171663 110.644915 
L 515.171343 110.644915 
L 515.171343 118.206647 
L 520.171023 118.206647 
L 520.171023 114.263223 
L 525.170703 114.263223 
L 525.170703 129.73763 
L 530.170383 129.73763 
L 530.170383 130.775999 
L 535.170063 130.775999 
L 535.170063 129.456453 
L 540.169743 129.456453 
L 540.169743 143.0537 
L 545.169423 143.0537 
L 545.169423 132.960164 
L 550.169103 132.960164 
L 550.169103 138.337745 
L 555.168783 138.337745 
L 555.168783 146.146924 
L 557.568 146.146924 
L 557.568 81.896951 
L 557.568 81.896951 
L 555.168783 81.896951 
L 555.168783 61.810795 
L 550.169103 61.810795 
L 550.169103 75.044513 
L 545.169423 75.044513 
L 545.169423 93.364685 
L 540.169743 93.364685 
L 540.169743 83.197851 
L 535.170063 83.197851 
L 535.170063 72.083534 
L 530.170383 72.083534 
L 530.170383 74.740165 
L 525.170703 74.740165 
L 525.170703 66.232672 
L 520.171023 66.232672 
L 520.171023 63.789265 
L 515.171343 63.789265 
L 515.171343 57.49506 
L 510.171663 57.49506 
L 510.171663 55.590127 
L 505.171983 55.590127 
L 505.171983 55.644888 
L 500.172303 55.644888 
L 500.172303 55.848165 
L 495.172623 55.848165 
L 495.172623 54.64162 
L 490.172943 54.64162 
L 490.172943 53.208514 
L 485.173263 53.208514 
L 485.173263 50.270607 
L 480.173583 50.270607 
L 480.173583 47.304314 
L 475.173903 47.304314 
L 475.173903 50.048725 
L 470.174223 50.048725 
L 470.174223 51.573323 
L 465.174543 51.573323 
L 465.174543 49.25127 
L 460.174863 49.25127 
L 460.174863 48.696526 
L 455.175183 48.696526 
L 455.175183 49.122149 
L 450.175503 49.122149 
L 450.175503 46.93744 
L 445.175823 46.93744 
L 445.175823 45.629407 
L 440.176143 45.629407 
L 440.176143 46.440757 
L 435.176463 46.440757 
L 435.176463 47.559314 
L 430.176783 47.559314 
L 430.176783 47.863988 
L 425.177103 47.863988 
L 425.177103 47.476047 
L 420.177423 47.476047 
L 420.177423 47.05547 
L 415.177743 47.05547 
L 415.177743 49.230221 
L 410.178063 49.230221 
L 410.178063 46.922028 
L 405.178383 46.922028 
L 405.178383 47.334607 
L 400.178703 47.334607 
L 400.178703 47.139015 
L 395.179023 47.139015 
L 395.179023 49.948175 
L 390.179343 49.948175 
L 390.179343 49.189021 
L 385.179663 49.189021 
L 385.179663 48.599432 
L 380.179983 48.599432 
L 380.179983 51.620696 
L 375.180303 51.620696 
L 375.180303 47.349069 
L 370.180623 47.349069 
L 370.180623 48.32842 
L 365.180943 48.32842 
L 365.180943 48.432342 
L 360.181263 48.432342 
L 360.181263 47.802601 
L 355.181583 47.802601 
L 355.181583 45.843058 
L 350.181903 45.843058 
L 350.181903 52.220238 
L 345.182223 52.220238 
L 345.182223 48.235442 
L 340.182543 48.235442 
L 340.182543 49.065699 
L 335.182863 49.065699 
L 335.182863 53.480111 
L 330.183183 53.480111 
L 330.183183 51.879394 
L 325.183503 51.879394 
L 325.183503 55.514992 
L 320.183823 55.514992 
L 320.183823 58.58914 
L 315.184143 58.58914 
L 315.184143 54.582076 
L 310.184463 54.582076 
L 310.184463 69.375254 
L 305.184783 69.375254 
L 305.184783 72.473977 
L 300.185103 72.473977 
L 300.185103 87.829726 
L 295.185423 87.829726 
L 295.185423 91.881846 
L 290.185743 91.881846 
L 290.185743 98.544211 
L 285.186063 98.544211 
L 285.186063 103.416384 
L 280.186383 103.416384 
L 280.186383 114.306345 
L 275.186703 114.306345 
L 275.186703 118.118001 
L 270.187023 118.118001 
L 270.187023 136.345998 
L 265.187343 136.345998 
L 265.187343 143.665257 
L 260.187663 143.665257 
L 260.187663 159.41564 
L 255.187983 159.41564 
L 255.187983 163.769569 
L 250.188303 163.769569 
L 250.188303 181.302968 
L 245.188623 181.302968 
L 245.188623 180.041783 
L 240.188943 180.041783 
L 240.188943 184.410874 
L 235.189263 184.410874 
L 235.189263 190.201928 
L 230.189583 190.201928 
L 230.189583 203.325627 
L 225.189903 203.325627 
L 225.189903 207.822845 
L 220.190223 207.822845 
L 220.190223 224.294543 
L 215.190543 224.294543 
L 215.190543 219.197574 
L 210.190863 219.197574 
L 210.190863 231.483241 
L 205.191183 231.483241 
L 205.191183 229.693727 
L 200.191503 229.693727 
L 200.191503 234.381179 
L 195.191823 234.381179 
L 195.191823 241.231487 
L 190.192143 241.231487 
L 190.192143 245.686906 
L 185.192463 245.686906 
L 185.192463 254.212561 
L 180.192783 254.212561 
L 180.192783 249.913705 
L 175.193103 249.913705 
L 175.193103 248.870675 
L 170.193423 248.870675 
L 170.193423 255.13276 
L 165.193743 255.13276 
L 165.193743 256.562182 
L 160.194063 256.562182 
L 160.194063 257.761314 
L 155.194383 257.761314 
L 155.194383 260.126906 
L 150.194703 260.126906 
L 150.194703 258.913339 
L 145.195023 258.913339 
L 145.195023 259.782408 
L 140.195343 259.782408 
L 140.195343 263.174777 
L 135.195663 263.174777 
L 135.195663 262.844303 
L 130.195983 262.844303 
L 130.195983 264.795442 
L 125.196303 264.795442 
L 125.196303 263.168589 
L 120.196623 263.168589 
L 120.196623 264.731749 
L 115.196943 264.731749 
L 115.196943 264.565887 
L 110.197263 264.565887 
L 110.197263 265.082155 
L 105.197583 265.082155 
L 105.197583 264.891715 
L 100.197903 264.891715 
L 100.197903 265.716994 
L 95.198223 265.716994 
L 95.198223 265.787824 
L 90.198543 265.787824 
L 90.198543 265.892733 
L 85.198863 265.892733 
L 85.198863 266.256265 
L 80.199183 266.256265 
L 80.199183 266.237043 
L 75.199503 266.237043 
L 75.199503 266.462892 
L 70.199823 266.462892 
L 70.199823 266.446103 
L 65.200143 266.446103 
L 65.200143 266.274795 
L 60.200463 266.274795 
L 60.200463 266.371936 
L 57.6 266.371936 
z
" style="fill:#dd5500;fill-opacity:0.15;"/>
   </g>
   <g id="matplotlib.axis_1">
    <g id="xtick_1">
     <g id="line2d_1">
      <path clip-path="url(#p860e1c43df)" d="M 57.6 306.3024 
L 57.6 41.2992 
" style="fill:none;stroke:#dddddd;stroke-linecap:square;stroke-width:0.5;"/>
     </g>
     <g id="line2d_2">
      <defs>
       <path d="M 0 0 
L 0 3.5 
" id="md6b2ccec20" style="stroke:#000000;stroke-width:0.8;"/>
      </defs>
      <g>
       <use style="stroke:#000000;stroke-width:0.8;" x="57.6" xlink:href="#md6b2ccec20" y="306.3024"/>
      </g>
     </g>
     <g id="text_1">
      <!-- $\mathdefault{10^{-4}}$ -->
      <defs>
       <path d="M 26.59375 63.796875 
C 26.59375 65.890625 26.5 66 25.09375 66 
C 21.203125 61.359375 15.296875 59.890625 9.703125 59.6875 
C 9.40625 59.6875 8.90625 59.6875 8.796875 59.5 
C 8.703125 59.296875 8.703125 59.09375 8.703125 57 
C 11.796875 57 17 57.59375 21 59.984375 
L 21 7.296875 
C 21 3.796875 20.796875 2.59375 12.203125 2.59375 
L 9.203125 2.59375 
L 9.203125 0 
C 14 0.09375 19 0.1875 23.796875 0.1875 
C 28.59375 0.1875 33.59375 0.09375 38.40625 0 
L 38.40625 2.59375 
L 35.40625 2.59375 
C 26.796875 2.59375 26.59375 3.6875 26.59375 7.296875 
z
" id="CMR17-49"/>
       <path d="M 42 31.84375 
C 42 37.96875 41.90625 48.421875 37.703125 56.453125 
C 34 63.484375 28.09375 66 22.90625 66 
C 18.09375 66 12 63.78125 8.203125 56.5625 
C 4.203125 49.015625 3.796875 39.671875 3.796875 31.84375 
C 3.796875 26.109375 3.90625 17.375 7 9.734375 
C 11.296875 -0.609375 19 -2 22.90625 -2 
C 27.5 -2 34.5 -0.109375 38.59375 9.4375 
C 41.59375 16.375 42 24.5 42 31.84375 
z
M 22.90625 -0.40625 
C 16.5 -0.40625 12.703125 5.125 11.296875 12.75 
C 10.203125 18.6875 10.203125 27.328125 10.203125 32.953125 
C 10.203125 40.6875 10.203125 47.109375 11.5 53.234375 
C 13.40625 61.78125 19 64.390625 22.90625 64.390625 
C 27 64.390625 32.296875 61.671875 34.203125 53.4375 
C 35.5 47.71875 35.59375 40.984375 35.59375 32.953125 
C 35.59375 26.421875 35.59375 18.375 34.40625 12.453125 
C 32.296875 1.5 26.40625 -0.40625 22.90625 -0.40625 
z
" id="CMR17-48"/>
       <path d="M 65.90625 23 
C 67.59375 23 69.40625 23 69.40625 25 
C 69.40625 27 67.59375 27 65.90625 27 
L 11.796875 27 
C 10.09375 27 8.296875 27 8.296875 25 
C 8.296875 23 10.09375 23 11.796875 23 
z
" id="CMSY10-0"/>
       <path d="M 33.59375 64.796875 
C 33.59375 66.890625 33.5 67 31.703125 67 
L 2 19.59375 
L 2 17 
L 27.796875 17 
L 27.796875 7.1875 
C 27.796875 3.59375 27.59375 2.59375 20.59375 2.59375 
L 18.703125 2.59375 
L 18.703125 0 
C 21.90625 0.1875 27.296875 0.1875 30.703125 0.1875 
C 34.09375 0.1875 39.5 0.1875 42.703125 0 
L 42.703125 2.59375 
L 40.796875 2.59375 
C 33.796875 2.59375 33.59375 3.59375 33.59375 7.1875 
L 33.59375 17 
L 43.796875 17 
L 43.796875 19.59375 
L 33.59375 19.59375 
z
M 28.09375 58.171875 
L 28.09375 19.59375 
L 4 19.59375 
z
" id="CMR17-52"/>
      </defs>
      <g transform="translate(47.519713 320.220898)scale(0.1 -0.1)">
       <use transform="scale(0.996264)" xlink:href="#CMR17-49"/>
       <use transform="translate(45.690477 0)scale(0.996264)" xlink:href="#CMR17-48"/>
       <use transform="translate(91.380954 36.153639)scale(0.697382)" xlink:href="#CMSY10-0"/>
       <use transform="translate(145.621947 36.153639)scale(0.697382)" xlink:href="#CMR17-52"/>
      </g>
     </g>
    </g>
    <g id="xtick_2">
     <g id="line2d_3">
      <path clip-path="url(#p860e1c43df)" d="M 129.024 306.3024 
L 129.024 41.2992 
" style="fill:none;stroke:#dddddd;stroke-linecap:square;stroke-width:0.5;"/>
     </g>
     <g id="line2d_4">
      <g>
       <use style="stroke:#000000;stroke-width:0.8;" x="129.024" xlink:href="#md6b2ccec20" y="306.3024"/>
      </g>
     </g>
     <g id="text_2">
      <!-- $\mathdefault{10^{-3}}$ -->
      <defs>
       <path d="M 22.09375 34 
C 31 34 34.90625 26.140625 34.90625 17.09375 
C 34.90625 5.03125 28.5 0.390625 22.703125 0.390625 
C 17.40625 0.390625 8.796875 3.015625 6.09375 10.796875 
C 6.59375 10.59375 7.09375 10.59375 7.59375 10.59375 
C 10 10.59375 11.796875 12.1875 11.796875 14.796875 
C 11.796875 17.6875 9.59375 19 7.59375 19 
C 5.90625 19 3.296875 18.1875 3.296875 14.484375 
C 3.296875 5.234375 12.296875 -2 22.90625 -2 
C 34 -2 42.5 6.75 42.5 16.984375 
C 42.5 26.84375 34.5 34 25 35.09375 
C 32.59375 36.671875 39.90625 43.375 39.90625 52.390625 
C 39.90625 60.25 32 66 23 66 
C 13.90625 66 5.90625 60.34375 5.90625 52.296875 
C 5.90625 48.796875 8.5 48.1875 9.796875 48.1875 
C 11.90625 48.1875 13.703125 49.484375 13.703125 52.09375 
C 13.703125 54.6875 11.90625 56 9.796875 56 
C 9.40625 56 8.90625 56 8.5 55.796875 
C 11.40625 62.484375 19.296875 63.6875 22.796875 63.6875 
C 26.296875 63.6875 32.90625 61.96875 32.90625 52.296875 
C 32.90625 49.484375 32.5 44.546875 29.09375 40.21875 
C 26.09375 36.390625 22.703125 36.1875 19.40625 35.890625 
C 18.90625 35.890625 16.59375 35.6875 16.203125 35.6875 
C 15.5 35.59375 15.09375 35.5 15.09375 34.796875 
C 15.09375 34.09375 15.203125 34 17.203125 34 
z
" id="CMR17-51"/>
      </defs>
      <g transform="translate(118.943713 320.220898)scale(0.1 -0.1)">
       <use transform="scale(0.996264)" xlink:href="#CMR17-49"/>
       <use transform="translate(45.690477 0)scale(0.996264)" xlink:href="#CMR17-48"/>
       <use transform="translate(91.380954 36.153639)scale(0.697382)" xlink:href="#CMSY10-0"/>
       <use transform="translate(145.621947 36.153639)scale(0.697382)" xlink:href="#CMR17-51"/>
      </g>
     </g>
    </g>
    <g id="xtick_3">
     <g id="line2d_5">
      <path clip-path="url(#p860e1c43df)" d="M 200.448 306.3024 
L 200.448 41.2992 
" style="fill:none;stroke:#dddddd;stroke-linecap:square;stroke-width:0.5;"/>
     </g>
     <g id="line2d_6">
      <g>
       <use style="stroke:#000000;stroke-width:0.8;" x="200.448" xlink:href="#md6b2ccec20" y="306.3024"/>
      </g>
     </g>
     <g id="text_3">
      <!-- $\mathdefault{10^{-2}}$ -->
      <defs>
       <path d="M 41.703125 15.46875 
L 39.90625 15.46875 
C 38.90625 8.390625 38.09375 7.1875 37.703125 6.59375 
C 37.203125 5.796875 30 5.796875 28.59375 5.796875 
L 9.40625 5.796875 
C 13 9.6875 20 16.765625 28.5 24.9375 
C 34.59375 30.71875 41.703125 37.5 41.703125 47.390625 
C 41.703125 59.1875 32.296875 66 21.796875 66 
C 10.796875 66 4.09375 56.296875 4.09375 47.296875 
C 4.09375 43.390625 7 42.890625 8.203125 42.890625 
C 9.203125 42.890625 12.203125 43.484375 12.203125 46.984375 
C 12.203125 50.09375 9.59375 51 8.203125 51 
C 7.59375 51 7 50.890625 6.59375 50.6875 
C 8.5 59.1875 14.296875 63.390625 20.40625 63.390625 
C 29.09375 63.390625 34.796875 56.5 34.796875 47.390625 
C 34.796875 38.703125 29.703125 31.21875 24 24.734375 
L 4.09375 2.296875 
L 4.09375 0 
L 39.296875 0 
z
" id="CMR17-50"/>
      </defs>
      <g transform="translate(190.367713 320.220898)scale(0.1 -0.1)">
       <use transform="scale(0.996264)" xlink:href="#CMR17-49"/>
       <use transform="translate(45.690477 0)scale(0.996264)" xlink:href="#CMR17-48"/>
       <use transform="translate(91.380954 36.153639)scale(0.697382)" xlink:href="#CMSY10-0"/>
       <use transform="translate(145.621947 36.153639)scale(0.697382)" xlink:href="#CMR17-50"/>
      </g>
     </g>
    </g>
    <g id="xtick_4">
     <g id="line2d_7">
      <path clip-path="url(#p860e1c43df)" d="M 271.872 306.3024 
L 271.872 41.2992 
" style="fill:none;stroke:#dddddd;stroke-linecap:square;stroke-width:0.5;"/>
     </g>
     <g id="line2d_8">
      <g>
       <use style="stroke:#000000;stroke-width:0.8;" x="271.872" xlink:href="#md6b2ccec20" y="306.3024"/>
      </g>
     </g>
     <g id="text_4">
      <!-- $\mathdefault{10^{-1}}$ -->
      <g transform="translate(261.791713 320.220898)scale(0.1 -0.1)">
       <use transform="scale(0.996264)" xlink:href="#CMR17-49"/>
       <use transform="translate(45.690477 0)scale(0.996264)" xlink:href="#CMR17-48"/>
       <use transform="translate(91.380954 36.153639)scale(0.697382)" xlink:href="#CMSY10-0"/>
       <use transform="translate(145.621947 36.153639)scale(0.697382)" xlink:href="#CMR17-49"/>
      </g>
     </g>
    </g>
    <g id="xtick_5">
     <g id="line2d_9">
      <path clip-path="url(#p860e1c43df)" d="M 343.296 306.3024 
L 343.296 41.2992 
" style="fill:none;stroke:#dddddd;stroke-linecap:square;stroke-width:0.5;"/>
     </g>
     <g id="line2d_10">
      <g>
       <use style="stroke:#000000;stroke-width:0.8;" x="343.296" xlink:href="#md6b2ccec20" y="306.3024"/>
      </g>
     </g>
     <g id="text_5">
      <!-- $\mathdefault{10^{0}}$ -->
      <g transform="translate(336.329046 320.220898)scale(0.1 -0.1)">
       <use transform="scale(0.996264)" xlink:href="#CMR17-49"/>
       <use transform="translate(45.690477 0)scale(0.996264)" xlink:href="#CMR17-48"/>
       <use transform="translate(91.380954 36.153639)scale(0.697382)" xlink:href="#CMR17-48"/>
      </g>
     </g>
    </g>
    <g id="xtick_6">
     <g id="line2d_11">
      <path clip-path="url(#p860e1c43df)" d="M 414.72 306.3024 
L 414.72 41.2992 
" style="fill:none;stroke:#dddddd;stroke-linecap:square;stroke-width:0.5;"/>
     </g>
     <g id="line2d_12">
      <g>
       <use style="stroke:#000000;stroke-width:0.8;" x="414.72" xlink:href="#md6b2ccec20" y="306.3024"/>
      </g>
     </g>
     <g id="text_6">
      <!-- $\mathdefault{10^{1}}$ -->
      <g transform="translate(407.753046 320.220898)scale(0.1 -0.1)">
       <use transform="scale(0.996264)" xlink:href="#CMR17-49"/>
       <use transform="translate(45.690477 0)scale(0.996264)" xlink:href="#CMR17-48"/>
       <use transform="translate(91.380954 36.153639)scale(0.697382)" xlink:href="#CMR17-49"/>
      </g>
     </g>
    </g>
    <g id="xtick_7">
     <g id="line2d_13">
      <path clip-path="url(#p860e1c43df)" d="M 79.100766 306.3024 
L 79.100766 41.2992 
" style="fill:none;stroke:#dddddd;stroke-linecap:square;stroke-width:0.5;"/>
     </g>
     <g id="line2d_14">
      <defs>
       <path d="M 0 0 
L 0 2 
" id="m0f17c1f235" style="stroke:#000000;stroke-width:0.6;"/>
      </defs>
      <g>
       <use style="stroke:#000000;stroke-width:0.6;" x="79.100766" xlink:href="#m0f17c1f235" y="306.3024"/>
      </g>
     </g>
    </g>
    <g id="xtick_8">
     <g id="line2d_15">
      <path clip-path="url(#p860e1c43df)" d="M 91.677908 306.3024 
L 91.677908 41.2992 
" style="fill:none;stroke:#dddddd;stroke-linecap:square;stroke-width:0.5;"/>
     </g>
     <g id="line2d_16">
      <g>
       <use style="stroke:#000000;stroke-width:0.6;" x="91.677908" xlink:href="#m0f17c1f235" y="306.3024"/>
      </g>
     </g>
    </g>
    <g id="xtick_9">
     <g id="line2d_17">
      <path clip-path="url(#p860e1c43df)" d="M 100.601533 306.3024 
L 100.601533 41.2992 
" style="fill:none;stroke:#dddddd;stroke-linecap:square;stroke-width:0.5;"/>
     </g>
     <g id="line2d_18">
      <g>
       <use style="stroke:#000000;stroke-width:0.6;" x="100.601533" xlink:href="#m0f17c1f235" y="306.3024"/>
      </g>
     </g>
    </g>
    <g id="xtick_10">
     <g id="line2d_19">
      <path clip-path="url(#p860e1c43df)" d="M 107.523234 306.3024 
L 107.523234 41.2992 
" style="fill:none;stroke:#dddddd;stroke-linecap:square;stroke-width:0.5;"/>
     </g>
     <g id="line2d_20">
      <g>
       <use style="stroke:#000000;stroke-width:0.6;" x="107.523234" xlink:href="#m0f17c1f235" y="306.3024"/>
      </g>
     </g>
    </g>
    <g id="xtick_11">
     <g id="line2d_21">
      <path clip-path="url(#p860e1c43df)" d="M 113.178675 306.3024 
L 113.178675 41.2992 
" style="fill:none;stroke:#dddddd;stroke-linecap:square;stroke-width:0.5;"/>
     </g>
     <g id="line2d_22">
      <g>
       <use style="stroke:#000000;stroke-width:0.6;" x="113.178675" xlink:href="#m0f17c1f235" y="306.3024"/>
      </g>
     </g>
    </g>
    <g id="xtick_12">
     <g id="line2d_23">
      <path clip-path="url(#p860e1c43df)" d="M 117.960282 306.3024 
L 117.960282 41.2992 
" style="fill:none;stroke:#dddddd;stroke-linecap:square;stroke-width:0.5;"/>
     </g>
     <g id="line2d_24">
      <g>
       <use style="stroke:#000000;stroke-width:0.6;" x="117.960282" xlink:href="#m0f17c1f235" y="306.3024"/>
      </g>
     </g>
    </g>
    <g id="xtick_13">
     <g id="line2d_25">
      <path clip-path="url(#p860e1c43df)" d="M 122.102299 306.3024 
L 122.102299 41.2992 
" style="fill:none;stroke:#dddddd;stroke-linecap:square;stroke-width:0.5;"/>
     </g>
     <g id="line2d_26">
      <g>
       <use style="stroke:#000000;stroke-width:0.6;" x="122.102299" xlink:href="#m0f17c1f235" y="306.3024"/>
      </g>
     </g>
    </g>
    <g id="xtick_14">
     <g id="line2d_27">
      <path clip-path="url(#p860e1c43df)" d="M 125.755817 306.3024 
L 125.755817 41.2992 
" style="fill:none;stroke:#dddddd;stroke-linecap:square;stroke-width:0.5;"/>
     </g>
     <g id="line2d_28">
      <g>
       <use style="stroke:#000000;stroke-width:0.6;" x="125.755817" xlink:href="#m0f17c1f235" y="306.3024"/>
      </g>
     </g>
    </g>
    <g id="xtick_15">
     <g id="line2d_29">
      <path clip-path="url(#p860e1c43df)" d="M 150.524766 306.3024 
L 150.524766 41.2992 
" style="fill:none;stroke:#dddddd;stroke-linecap:square;stroke-width:0.5;"/>
     </g>
     <g id="line2d_30">
      <g>
       <use style="stroke:#000000;stroke-width:0.6;" x="150.524766" xlink:href="#m0f17c1f235" y="306.3024"/>
      </g>
     </g>
    </g>
    <g id="xtick_16">
     <g id="line2d_31">
      <path clip-path="url(#p860e1c43df)" d="M 163.101908 306.3024 
L 163.101908 41.2992 
" style="fill:none;stroke:#dddddd;stroke-linecap:square;stroke-width:0.5;"/>
     </g>
     <g id="line2d_32">
      <g>
       <use style="stroke:#000000;stroke-width:0.6;" x="163.101908" xlink:href="#m0f17c1f235" y="306.3024"/>
      </g>
     </g>
    </g>
    <g id="xtick_17">
     <g id="line2d_33">
      <path clip-path="url(#p860e1c43df)" d="M 172.025533 306.3024 
L 172.025533 41.2992 
" style="fill:none;stroke:#dddddd;stroke-linecap:square;stroke-width:0.5;"/>
     </g>
     <g id="line2d_34">
      <g>
       <use style="stroke:#000000;stroke-width:0.6;" x="172.025533" xlink:href="#m0f17c1f235" y="306.3024"/>
      </g>
     </g>
    </g>
    <g id="xtick_18">
     <g id="line2d_35">
      <path clip-path="url(#p860e1c43df)" d="M 178.947234 306.3024 
L 178.947234 41.2992 
" style="fill:none;stroke:#dddddd;stroke-linecap:square;stroke-width:0.5;"/>
     </g>
     <g id="line2d_36">
      <g>
       <use style="stroke:#000000;stroke-width:0.6;" x="178.947234" xlink:href="#m0f17c1f235" y="306.3024"/>
      </g>
     </g>
    </g>
    <g id="xtick_19">
     <g id="line2d_37">
      <path clip-path="url(#p860e1c43df)" d="M 184.602675 306.3024 
L 184.602675 41.2992 
" style="fill:none;stroke:#dddddd;stroke-linecap:square;stroke-width:0.5;"/>
     </g>
     <g id="line2d_38">
      <g>
       <use style="stroke:#000000;stroke-width:0.6;" x="184.602675" xlink:href="#m0f17c1f235" y="306.3024"/>
      </g>
     </g>
    </g>
    <g id="xtick_20">
     <g id="line2d_39">
      <path clip-path="url(#p860e1c43df)" d="M 189.384282 306.3024 
L 189.384282 41.2992 
" style="fill:none;stroke:#dddddd;stroke-linecap:square;stroke-width:0.5;"/>
     </g>
     <g id="line2d_40">
      <g>
       <use style="stroke:#000000;stroke-width:0.6;" x="189.384282" xlink:href="#m0f17c1f235" y="306.3024"/>
      </g>
     </g>
    </g>
    <g id="xtick_21">
     <g id="line2d_41">
      <path clip-path="url(#p860e1c43df)" d="M 193.526299 306.3024 
L 193.526299 41.2992 
" style="fill:none;stroke:#dddddd;stroke-linecap:square;stroke-width:0.5;"/>
     </g>
     <g id="line2d_42">
      <g>
       <use style="stroke:#000000;stroke-width:0.6;" x="193.526299" xlink:href="#m0f17c1f235" y="306.3024"/>
      </g>
     </g>
    </g>
    <g id="xtick_22">
     <g id="line2d_43">
      <path clip-path="url(#p860e1c43df)" d="M 197.179817 306.3024 
L 197.179817 41.2992 
" style="fill:none;stroke:#dddddd;stroke-linecap:square;stroke-width:0.5;"/>
     </g>
     <g id="line2d_44">
      <g>
       <use style="stroke:#000000;stroke-width:0.6;" x="197.179817" xlink:href="#m0f17c1f235" y="306.3024"/>
      </g>
     </g>
    </g>
    <g id="xtick_23">
     <g id="line2d_45">
      <path clip-path="url(#p860e1c43df)" d="M 221.948766 306.3024 
L 221.948766 41.2992 
" style="fill:none;stroke:#dddddd;stroke-linecap:square;stroke-width:0.5;"/>
     </g>
     <g id="line2d_46">
      <g>
       <use style="stroke:#000000;stroke-width:0.6;" x="221.948766" xlink:href="#m0f17c1f235" y="306.3024"/>
      </g>
     </g>
    </g>
    <g id="xtick_24">
     <g id="line2d_47">
      <path clip-path="url(#p860e1c43df)" d="M 234.525908 306.3024 
L 234.525908 41.2992 
" style="fill:none;stroke:#dddddd;stroke-linecap:square;stroke-width:0.5;"/>
     </g>
     <g id="line2d_48">
      <g>
       <use style="stroke:#000000;stroke-width:0.6;" x="234.525908" xlink:href="#m0f17c1f235" y="306.3024"/>
      </g>
     </g>
    </g>
    <g id="xtick_25">
     <g id="line2d_49">
      <path clip-path="url(#p860e1c43df)" d="M 243.449533 306.3024 
L 243.449533 41.2992 
" style="fill:none;stroke:#dddddd;stroke-linecap:square;stroke-width:0.5;"/>
     </g>
     <g id="line2d_50">
      <g>
       <use style="stroke:#000000;stroke-width:0.6;" x="243.449533" xlink:href="#m0f17c1f235" y="306.3024"/>
      </g>
     </g>
    </g>
    <g id="xtick_26">
     <g id="line2d_51">
      <path clip-path="url(#p860e1c43df)" d="M 250.371234 306.3024 
L 250.371234 41.2992 
" style="fill:none;stroke:#dddddd;stroke-linecap:square;stroke-width:0.5;"/>
     </g>
     <g id="line2d_52">
      <g>
       <use style="stroke:#000000;stroke-width:0.6;" x="250.371234" xlink:href="#m0f17c1f235" y="306.3024"/>
      </g>
     </g>
    </g>
    <g id="xtick_27">
     <g id="line2d_53">
      <path clip-path="url(#p860e1c43df)" d="M 256.026675 306.3024 
L 256.026675 41.2992 
" style="fill:none;stroke:#dddddd;stroke-linecap:square;stroke-width:0.5;"/>
     </g>
     <g id="line2d_54">
      <g>
       <use style="stroke:#000000;stroke-width:0.6;" x="256.026675" xlink:href="#m0f17c1f235" y="306.3024"/>
      </g>
     </g>
    </g>
    <g id="xtick_28">
     <g id="line2d_55">
      <path clip-path="url(#p860e1c43df)" d="M 260.808282 306.3024 
L 260.808282 41.2992 
" style="fill:none;stroke:#dddddd;stroke-linecap:square;stroke-width:0.5;"/>
     </g>
     <g id="line2d_56">
      <g>
       <use style="stroke:#000000;stroke-width:0.6;" x="260.808282" xlink:href="#m0f17c1f235" y="306.3024"/>
      </g>
     </g>
    </g>
    <g id="xtick_29">
     <g id="line2d_57">
      <path clip-path="url(#p860e1c43df)" d="M 264.950299 306.3024 
L 264.950299 41.2992 
" style="fill:none;stroke:#dddddd;stroke-linecap:square;stroke-width:0.5;"/>
     </g>
     <g id="line2d_58">
      <g>
       <use style="stroke:#000000;stroke-width:0.6;" x="264.950299" xlink:href="#m0f17c1f235" y="306.3024"/>
      </g>
     </g>
    </g>
    <g id="xtick_30">
     <g id="line2d_59">
      <path clip-path="url(#p860e1c43df)" d="M 268.603817 306.3024 
L 268.603817 41.2992 
" style="fill:none;stroke:#dddddd;stroke-linecap:square;stroke-width:0.5;"/>
     </g>
     <g id="line2d_60">
      <g>
       <use style="stroke:#000000;stroke-width:0.6;" x="268.603817" xlink:href="#m0f17c1f235" y="306.3024"/>
      </g>
     </g>
    </g>
    <g id="xtick_31">
     <g id="line2d_61">
      <path clip-path="url(#p860e1c43df)" d="M 293.372766 306.3024 
L 293.372766 41.2992 
" style="fill:none;stroke:#dddddd;stroke-linecap:square;stroke-width:0.5;"/>
     </g>
     <g id="line2d_62">
      <g>
       <use style="stroke:#000000;stroke-width:0.6;" x="293.372766" xlink:href="#m0f17c1f235" y="306.3024"/>
      </g>
     </g>
    </g>
    <g id="xtick_32">
     <g id="line2d_63">
      <path clip-path="url(#p860e1c43df)" d="M 305.949908 306.3024 
L 305.949908 41.2992 
" style="fill:none;stroke:#dddddd;stroke-linecap:square;stroke-width:0.5;"/>
     </g>
     <g id="line2d_64">
      <g>
       <use style="stroke:#000000;stroke-width:0.6;" x="305.949908" xlink:href="#m0f17c1f235" y="306.3024"/>
      </g>
     </g>
    </g>
    <g id="xtick_33">
     <g id="line2d_65">
      <path clip-path="url(#p860e1c43df)" d="M 314.873533 306.3024 
L 314.873533 41.2992 
" style="fill:none;stroke:#dddddd;stroke-linecap:square;stroke-width:0.5;"/>
     </g>
     <g id="line2d_66">
      <g>
       <use style="stroke:#000000;stroke-width:0.6;" x="314.873533" xlink:href="#m0f17c1f235" y="306.3024"/>
      </g>
     </g>
    </g>
    <g id="xtick_34">
     <g id="line2d_67">
      <path clip-path="url(#p860e1c43df)" d="M 321.795234 306.3024 
L 321.795234 41.2992 
" style="fill:none;stroke:#dddddd;stroke-linecap:square;stroke-width:0.5;"/>
     </g>
     <g id="line2d_68">
      <g>
       <use style="stroke:#000000;stroke-width:0.6;" x="321.795234" xlink:href="#m0f17c1f235" y="306.3024"/>
      </g>
     </g>
    </g>
    <g id="xtick_35">
     <g id="line2d_69">
      <path clip-path="url(#p860e1c43df)" d="M 327.450675 306.3024 
L 327.450675 41.2992 
" style="fill:none;stroke:#dddddd;stroke-linecap:square;stroke-width:0.5;"/>
     </g>
     <g id="line2d_70">
      <g>
       <use style="stroke:#000000;stroke-width:0.6;" x="327.450675" xlink:href="#m0f17c1f235" y="306.3024"/>
      </g>
     </g>
    </g>
    <g id="xtick_36">
     <g id="line2d_71">
      <path clip-path="url(#p860e1c43df)" d="M 332.232282 306.3024 
L 332.232282 41.2992 
" style="fill:none;stroke:#dddddd;stroke-linecap:square;stroke-width:0.5;"/>
     </g>
     <g id="line2d_72">
      <g>
       <use style="stroke:#000000;stroke-width:0.6;" x="332.232282" xlink:href="#m0f17c1f235" y="306.3024"/>
      </g>
     </g>
    </g>
    <g id="xtick_37">
     <g id="line2d_73">
      <path clip-path="url(#p860e1c43df)" d="M 336.374299 306.3024 
L 336.374299 41.2992 
" style="fill:none;stroke:#dddddd;stroke-linecap:square;stroke-width:0.5;"/>
     </g>
     <g id="line2d_74">
      <g>
       <use style="stroke:#000000;stroke-width:0.6;" x="336.374299" xlink:href="#m0f17c1f235" y="306.3024"/>
      </g>
     </g>
    </g>
    <g id="xtick_38">
     <g id="line2d_75">
      <path clip-path="url(#p860e1c43df)" d="M 340.027817 306.3024 
L 340.027817 41.2992 
" style="fill:none;stroke:#dddddd;stroke-linecap:square;stroke-width:0.5;"/>
     </g>
     <g id="line2d_76">
      <g>
       <use style="stroke:#000000;stroke-width:0.6;" x="340.027817" xlink:href="#m0f17c1f235" y="306.3024"/>
      </g>
     </g>
    </g>
    <g id="xtick_39">
     <g id="line2d_77">
      <path clip-path="url(#p860e1c43df)" d="M 364.796766 306.3024 
L 364.796766 41.2992 
" style="fill:none;stroke:#dddddd;stroke-linecap:square;stroke-width:0.5;"/>
     </g>
     <g id="line2d_78">
      <g>
       <use style="stroke:#000000;stroke-width:0.6;" x="364.796766" xlink:href="#m0f17c1f235" y="306.3024"/>
      </g>
     </g>
    </g>
    <g id="xtick_40">
     <g id="line2d_79">
      <path clip-path="url(#p860e1c43df)" d="M 377.373908 306.3024 
L 377.373908 41.2992 
" style="fill:none;stroke:#dddddd;stroke-linecap:square;stroke-width:0.5;"/>
     </g>
     <g id="line2d_80">
      <g>
       <use style="stroke:#000000;stroke-width:0.6;" x="377.373908" xlink:href="#m0f17c1f235" y="306.3024"/>
      </g>
     </g>
    </g>
    <g id="xtick_41">
     <g id="line2d_81">
      <path clip-path="url(#p860e1c43df)" d="M 386.297533 306.3024 
L 386.297533 41.2992 
" style="fill:none;stroke:#dddddd;stroke-linecap:square;stroke-width:0.5;"/>
     </g>
     <g id="line2d_82">
      <g>
       <use style="stroke:#000000;stroke-width:0.6;" x="386.297533" xlink:href="#m0f17c1f235" y="306.3024"/>
      </g>
     </g>
    </g>
    <g id="xtick_42">
     <g id="line2d_83">
      <path clip-path="url(#p860e1c43df)" d="M 393.219234 306.3024 
L 393.219234 41.2992 
" style="fill:none;stroke:#dddddd;stroke-linecap:square;stroke-width:0.5;"/>
     </g>
     <g id="line2d_84">
      <g>
       <use style="stroke:#000000;stroke-width:0.6;" x="393.219234" xlink:href="#m0f17c1f235" y="306.3024"/>
      </g>
     </g>
    </g>
    <g id="xtick_43">
     <g id="line2d_85">
      <path clip-path="url(#p860e1c43df)" d="M 398.874675 306.3024 
L 398.874675 41.2992 
" style="fill:none;stroke:#dddddd;stroke-linecap:square;stroke-width:0.5;"/>
     </g>
     <g id="line2d_86">
      <g>
       <use style="stroke:#000000;stroke-width:0.6;" x="398.874675" xlink:href="#m0f17c1f235" y="306.3024"/>
      </g>
     </g>
    </g>
    <g id="xtick_44">
     <g id="line2d_87">
      <path clip-path="url(#p860e1c43df)" d="M 403.656282 306.3024 
L 403.656282 41.2992 
" style="fill:none;stroke:#dddddd;stroke-linecap:square;stroke-width:0.5;"/>
     </g>
     <g id="line2d_88">
      <g>
       <use style="stroke:#000000;stroke-width:0.6;" x="403.656282" xlink:href="#m0f17c1f235" y="306.3024"/>
      </g>
     </g>
    </g>
    <g id="xtick_45">
     <g id="line2d_89">
      <path clip-path="url(#p860e1c43df)" d="M 407.798299 306.3024 
L 407.798299 41.2992 
" style="fill:none;stroke:#dddddd;stroke-linecap:square;stroke-width:0.5;"/>
     </g>
     <g id="line2d_90">
      <g>
       <use style="stroke:#000000;stroke-width:0.6;" x="407.798299" xlink:href="#m0f17c1f235" y="306.3024"/>
      </g>
     </g>
    </g>
    <g id="xtick_46">
     <g id="line2d_91">
      <path clip-path="url(#p860e1c43df)" d="M 411.451817 306.3024 
L 411.451817 41.2992 
" style="fill:none;stroke:#dddddd;stroke-linecap:square;stroke-width:0.5;"/>
     </g>
     <g id="line2d_92">
      <g>
       <use style="stroke:#000000;stroke-width:0.6;" x="411.451817" xlink:href="#m0f17c1f235" y="306.3024"/>
      </g>
     </g>
    </g>
    <g id="text_7">
     <!-- std $\sigma = \sqrt{\langle \eta^2 \rangle}$ -->
     <defs>
      <path d="M 30.90625 42 
C 30.90625 43.796875 30.796875 43.890625 30.203125 43.890625 
C 29.796875 43.890625 29.703125 43.796875 28.5 42.296875 
C 28.203125 41.890625 27.296875 40.890625 27 40.5 
C 23.796875 43.890625 19.296875 44 17.59375 44 
C 6.5 44 2.5 38.1875 2.5 32.390625 
C 2.5 23.390625 12.703125 21.296875 15.59375 20.6875 
C 21.90625 19.390625 24.09375 19 26.203125 17.1875 
C 27.5 16 29.703125 13.796875 29.703125 10.1875 
C 29.703125 6 27.296875 0.59375 18.09375 0.59375 
C 9.40625 0.59375 6.296875 7.1875 4.5 16 
C 4.203125 17.390625 4.203125 17.5 3.40625 17.5 
C 2.59375 17.5 2.5 17.390625 2.5 15.390625 
L 2.5 1 
C 2.5 -0.8125 2.59375 -0.90625 3.203125 -0.90625 
C 3.703125 -0.90625 3.796875 -0.8125 4.296875 0 
C 4.90625 0.890625 6.40625 3.296875 7 4.296875 
C 9 1.59375 12.5 -1 18.09375 -1 
C 28 -1 33.296875 4.390625 33.296875 12.1875 
C 33.296875 17.296875 30.59375 20 29.296875 21.1875 
C 26.296875 24.296875 22.796875 25 18.59375 25.796875 
C 13.09375 27 6.09375 28.390625 6.09375 34.5 
C 6.09375 37.09375 7.5 42.59375 17.59375 42.59375 
C 28.296875 42.59375 28.90625 32.59375 29.09375 29.390625 
C 29.203125 28.890625 29.703125 28.796875 30 28.796875 
C 30.90625 28.796875 30.90625 29.09375 30.90625 30.796875 
z
" id="CMR17-115"/>
      <path d="M 15.09375 40.390625 
L 29.09375 40.390625 
L 29.09375 43 
L 15.09375 43 
L 15.09375 62 
L 13.296875 62 
C 13.09375 51.4375 9.59375 42.1875 1.09375 41.984375 
L 1.09375 40.390625 
L 9.796875 40.390625 
L 9.796875 12.15625 
C 9.796875 10.234375 9.796875 -1 21.40625 -1 
C 27.296875 -1 30.703125 4.8125 30.703125 12.25 
L 30.703125 17.984375 
L 28.90625 17.984375 
L 28.90625 12.34375 
C 28.90625 5.421875 26.203125 0.796875 22 0.796875 
C 19.09375 0.796875 15.09375 2.796875 15.09375 11.953125 
z
" id="CMR17-116"/>
      <path d="M 29.203125 67.890625 
L 29.203125 65.296875 
C 35.09375 65.296875 36 64.703125 36 60.046875 
L 36 37.046875 
C 35.59375 37.546875 31.5 44 23.40625 44 
C 13.203125 44 3.296875 34.8125 3.296875 21.5 
C 3.296875 8.265625 12.59375 -1 22.40625 -1 
C 30.90625 -1 35.296875 5.640625 35.796875 6.34375 
L 35.796875 -1 
L 47.90625 -0.203125 
L 47.90625 2.40625 
C 42 2.40625 41.09375 3.015625 41.09375 7.859375 
L 41.09375 69 
z
M 35.796875 11.90625 
C 35.796875 8.875 34 6.140625 31.703125 4.125 
C 28.296875 1.09375 24.90625 0.59375 23 0.59375 
C 20.09375 0.59375 9.703125 2.109375 9.703125 21.390625 
C 9.703125 41.1875 21.296875 42.390625 23.90625 42.390625 
C 28.5 42.390625 32.203125 39.765625 34.5 36.140625 
C 35.796875 34.015625 35.796875 33.703125 35.796875 31.890625 
z
" id="CMR17-100"/>
      <path d="M 50.796875 37.59375 
C 52.09375 37.59375 55.40625 37.59375 55.40625 40.796875 
C 55.40625 43 53.5 43 51.703125 43 
L 29.59375 43 
C 14.59375 43 3.796875 26.328125 3.796875 14.5625 
C 3.796875 6.078125 9.296875 -1 18.296875 -1 
C 30.09375 -1 43 11.65625 43 26.625 
C 43 30.515625 42.09375 34.296875 39.703125 37.59375 
z
M 18.40625 1 
C 13.296875 1 9.59375 4.875 9.59375 11.765625 
C 9.59375 17.75 13.203125 37.59375 27.90625 37.59375 
C 32.203125 37.59375 37 35.5 37 27.8125 
C 37 24.328125 35.40625 15.953125 31.90625 10.171875 
C 28.296875 4.28125 22.90625 1 18.40625 1 
z
" id="CMMI12-27"/>
      <path d="M 64.296875 32 
C 65.796875 32 67.296875 32 67.296875 33.6875 
C 67.296875 35.5 65.59375 35.5 63.90625 35.5 
L 8 35.5 
C 6.296875 35.5 4.59375 35.5 4.59375 33.6875 
C 4.59375 32 6.09375 32 7.59375 32 
z
M 63.90625 14.484375 
C 65.59375 14.484375 67.296875 14.484375 67.296875 16.296875 
C 67.296875 18 65.796875 18 64.296875 18 
L 7.59375 18 
C 6.09375 18 4.59375 18 4.59375 16.296875 
C 4.59375 14.484375 6.296875 14.484375 8 14.484375 
z
" id="CMR17-61"/>
      <path d="M 42.40625 -116 
C 45.5 -116 45.59375 -115.90625 46.59375 -114 
L 101.296875 0.203125 
C 102 1.5 102 1.703125 102 2 
C 102 3.09375 101.203125 4 100 4 
C 98.703125 4 98.296875 3.09375 97.796875 2 
L 46.203125 -105.609375 
L 24.90625 -56 
L 11 -66.703125 
L 12.5 -68.3125 
L 19.59375 -62.90625 
z
" id="CMEX10-112"/>
      <path d="M 32.796875 71.203125 
C 33.296875 72.296875 33.296875 72.5 33.296875 73 
C 33.296875 74.09375 32.40625 75 31.296875 75 
C 30.40625 75 29.703125 74.5 29 72.703125 
L 11.5 26.796875 
C 11.296875 26.203125 11 25.59375 11 25 
C 11 24.6875 11 24.5 11.5 23.296875 
L 29 -22.609375 
C 29.40625 -23.703125 29.90625 -25 31.296875 -25 
C 32.40625 -25 33.296875 -24.109375 33.296875 -23 
C 33.296875 -22.703125 33.296875 -22.5 32.796875 -21.40625 
L 15.09375 25 
z
" id="CMSY10-104"/>
      <path d="M 47.5 27.625 
C 48 29.625 48.296875 30.828125 48.296875 33.515625 
C 48.296875 39.5 44.796875 44 37.203125 44 
C 28.296875 44 23.59375 37.703125 21.796875 35.203125 
C 21.5 40.890625 17.40625 44 13 44 
C 10.09375 44 7.796875 42.59375 5.90625 38.796875 
C 4.09375 35.203125 2.703125 29.125 2.703125 28.71875 
C 2.703125 28.328125 3.09375 27.828125 3.796875 27.828125 
C 4.59375 27.828125 4.703125 27.921875 5.296875 30.21875 
C 6.796875 36.109375 8.703125 41.984375 12.703125 41.984375 
C 15 41.984375 15.796875 40.40625 15.796875 37.40625 
C 15.796875 35.203125 14.796875 31.3125 14.09375 28.234375 
L 11.296875 17.453125 
C 10.90625 15.5625 9.796875 11.0625 9.296875 9.265625 
C 8.59375 6.671875 7.5 1.984375 7.5 1.484375 
C 7.5 0.09375 8.59375 -1 10.09375 -1 
C 11.296875 -1 12.703125 -0.40625 13.5 1.09375 
C 13.703125 1.59375 14.59375 5.078125 15.09375 7.078125 
L 17.296875 16.0625 
L 20.59375 29.21875 
C 20.796875 29.828125 23.296875 34.8125 27 38 
C 29.59375 40.40625 33 41.984375 36.90625 41.984375 
C 40.90625 41.984375 42.296875 39 42.296875 35.015625 
C 42.296875 32.125 41.90625 30.515625 41.40625 28.625 
L 29.796875 -16.953125 
C 29.703125 -17.4375 29.5 -18.03125 29.5 -18.609375 
C 29.5 -20.109375 30.703125 -21.109375 32.203125 -21.109375 
C 33.09375 -21.109375 35.203125 -20.703125 36 -17.734375 
z
" id="CMMI12-17"/>
      <path d="M 27.296875 23.296875 
C 27.796875 24.5 27.796875 24.6875 27.796875 25 
C 27.796875 25.296875 27.796875 25.5 27.296875 26.703125 
L 9.796875 72.703125 
C 9.203125 74.390625 8.59375 75 7.5 75 
C 6.40625 75 5.5 74.09375 5.5 73 
C 5.5 72.703125 5.5 72.5 6 71.390625 
L 23.703125 25 
L 6 -21.203125 
C 5.5 -22.3125 5.5 -22.5 5.5 -23 
C 5.5 -24.109375 6.40625 -25 7.5 -25 
C 8.796875 -25 9.203125 -24 9.59375 -23 
z
" id="CMSY10-105"/>
     </defs>
     <g transform="translate(204.420822 335.074667)scale(0.1 -0.1)">
      <use transform="scale(0.996264)" xlink:href="#CMR17-115"/>
      <use transform="translate(35.801338 0)scale(0.996264)" xlink:href="#CMR17-116"/>
      <use transform="translate(71.082105 0)scale(0.996264)" xlink:href="#CMR17-100"/>
      <use transform="translate(152.053442 0)scale(0.996264)" xlink:href="#CMMI12-27"/>
      <use transform="translate(238.747504 0)scale(0.996264)" xlink:href="#CMR17-61"/>
      <use transform="translate(338.136301 85.181166)scale(0.996264)" xlink:href="#CMEX10-112"/>
      <use transform="translate(437.762976 0)scale(0.996264)" xlink:href="#CMSY10-104"/>
      <use transform="translate(476.506709 0)scale(0.996264)" xlink:href="#CMMI12-17"/>
      <use transform="translate(528.210525 28.780957)scale(0.697382)" xlink:href="#CMR17-50"/>
      <use transform="translate(560.691839 0)scale(0.996264)" xlink:href="#CMSY10-105"/>
      <path d="M 437.762976 85.181166 
L 599.435573 85.181166 
L 599.435573 89.166115 
L 437.762976 89.166115 
L 437.762976 85.181166 
z
"/>
     </g>
    </g>
   </g>
   <g id="matplotlib.axis_2">
    <g id="ytick_1">
     <g id="line2d_93">
      <path clip-path="url(#p860e1c43df)" d="M 57.6 306.3024 
L 414.72 306.3024 
" style="fill:none;stroke:#dddddd;stroke-linecap:square;stroke-width:0.5;"/>
     </g>
     <g id="line2d_94">
      <defs>
       <path d="M 0 0 
L -3.5 0 
" id="mbede1e4b61" style="stroke:#000000;stroke-width:0.8;"/>
      </defs>
      <g>
       <use style="stroke:#000000;stroke-width:0.8;" x="57.6" xlink:href="#mbede1e4b61" y="306.3024"/>
      </g>
     </g>
     <g id="text_8">
      <!-- $\mathdefault{10^{-4}}$ -->
      <g transform="translate(30.439427 309.761649)scale(0.1 -0.1)">
       <use transform="scale(0.996264)" xlink:href="#CMR17-49"/>
       <use transform="translate(45.690477 0)scale(0.996264)" xlink:href="#CMR17-48"/>
       <use transform="translate(91.380954 36.153639)scale(0.697382)" xlink:href="#CMSY10-0"/>
       <use transform="translate(145.621947 36.153639)scale(0.697382)" xlink:href="#CMR17-52"/>
      </g>
     </g>
    </g>
    <g id="ytick_2">
     <g id="line2d_95">
      <path clip-path="url(#p860e1c43df)" d="M 57.6 240.0516 
L 414.72 240.0516 
" style="fill:none;stroke:#dddddd;stroke-linecap:square;stroke-width:0.5;"/>
     </g>
     <g id="line2d_96">
      <g>
       <use style="stroke:#000000;stroke-width:0.8;" x="57.6" xlink:href="#mbede1e4b61" y="240.0516"/>
      </g>
     </g>
     <g id="text_9">
      <!-- $\mathdefault{10^{-3}}$ -->
      <g transform="translate(30.439427 243.510849)scale(0.1 -0.1)">
       <use transform="scale(0.996264)" xlink:href="#CMR17-49"/>
       <use transform="translate(45.690477 0)scale(0.996264)" xlink:href="#CMR17-48"/>
       <use transform="translate(91.380954 36.153639)scale(0.697382)" xlink:href="#CMSY10-0"/>
       <use transform="translate(145.621947 36.153639)scale(0.697382)" xlink:href="#CMR17-51"/>
      </g>
     </g>
    </g>
    <g id="ytick_3">
     <g id="line2d_97">
      <path clip-path="url(#p860e1c43df)" d="M 57.6 173.8008 
L 414.72 173.8008 
" style="fill:none;stroke:#dddddd;stroke-linecap:square;stroke-width:0.5;"/>
     </g>
     <g id="line2d_98">
      <g>
       <use style="stroke:#000000;stroke-width:0.8;" x="57.6" xlink:href="#mbede1e4b61" y="173.8008"/>
      </g>
     </g>
     <g id="text_10">
      <!-- $\mathdefault{10^{-2}}$ -->
      <g transform="translate(30.439427 177.260049)scale(0.1 -0.1)">
       <use transform="scale(0.996264)" xlink:href="#CMR17-49"/>
       <use transform="translate(45.690477 0)scale(0.996264)" xlink:href="#CMR17-48"/>
       <use transform="translate(91.380954 36.153639)scale(0.697382)" xlink:href="#CMSY10-0"/>
       <use transform="translate(145.621947 36.153639)scale(0.697382)" xlink:href="#CMR17-50"/>
      </g>
     </g>
    </g>
    <g id="ytick_4">
     <g id="line2d_99">
      <path clip-path="url(#p860e1c43df)" d="M 57.6 107.55 
L 414.72 107.55 
" style="fill:none;stroke:#dddddd;stroke-linecap:square;stroke-width:0.5;"/>
     </g>
     <g id="line2d_100">
      <g>
       <use style="stroke:#000000;stroke-width:0.8;" x="57.6" xlink:href="#mbede1e4b61" y="107.55"/>
      </g>
     </g>
     <g id="text_11">
      <!-- $\mathdefault{10^{-1}}$ -->
      <g transform="translate(30.439427 111.009249)scale(0.1 -0.1)">
       <use transform="scale(0.996264)" xlink:href="#CMR17-49"/>
       <use transform="translate(45.690477 0)scale(0.996264)" xlink:href="#CMR17-48"/>
       <use transform="translate(91.380954 36.153639)scale(0.697382)" xlink:href="#CMSY10-0"/>
       <use transform="translate(145.621947 36.153639)scale(0.697382)" xlink:href="#CMR17-49"/>
      </g>
     </g>
    </g>
    <g id="ytick_5">
     <g id="line2d_101">
      <path clip-path="url(#p860e1c43df)" d="M 57.6 41.2992 
L 414.72 41.2992 
" style="fill:none;stroke:#dddddd;stroke-linecap:square;stroke-width:0.5;"/>
     </g>
     <g id="line2d_102">
      <g>
       <use style="stroke:#000000;stroke-width:0.8;" x="57.6" xlink:href="#mbede1e4b61" y="41.2992"/>
      </g>
     </g>
     <g id="text_12">
      <!-- $\mathdefault{10^{0}}$ -->
      <g transform="translate(36.666092 44.758449)scale(0.1 -0.1)">
       <use transform="scale(0.996264)" xlink:href="#CMR17-49"/>
       <use transform="translate(45.690477 0)scale(0.996264)" xlink:href="#CMR17-48"/>
       <use transform="translate(91.380954 36.153639)scale(0.697382)" xlink:href="#CMR17-48"/>
      </g>
     </g>
    </g>
    <g id="ytick_6">
     <g id="line2d_103">
      <path clip-path="url(#p860e1c43df)" d="M 57.6 286.358922 
L 414.72 286.358922 
" style="fill:none;stroke:#dddddd;stroke-linecap:square;stroke-width:0.5;"/>
     </g>
     <g id="line2d_104">
      <defs>
       <path d="M 0 0 
L -2 0 
" id="m432baba1da" style="stroke:#000000;stroke-width:0.6;"/>
      </defs>
      <g>
       <use style="stroke:#000000;stroke-width:0.6;" x="57.6" xlink:href="#m432baba1da" y="286.358922"/>
      </g>
     </g>
    </g>
    <g id="ytick_7">
     <g id="line2d_105">
      <path clip-path="url(#p860e1c43df)" d="M 57.6 274.692735 
L 414.72 274.692735 
" style="fill:none;stroke:#dddddd;stroke-linecap:square;stroke-width:0.5;"/>
     </g>
     <g id="line2d_106">
      <g>
       <use style="stroke:#000000;stroke-width:0.6;" x="57.6" xlink:href="#m432baba1da" y="274.692735"/>
      </g>
     </g>
    </g>
    <g id="ytick_8">
     <g id="line2d_107">
      <path clip-path="url(#p860e1c43df)" d="M 57.6 266.415444 
L 414.72 266.415444 
" style="fill:none;stroke:#dddddd;stroke-linecap:square;stroke-width:0.5;"/>
     </g>
     <g id="line2d_108">
      <g>
       <use style="stroke:#000000;stroke-width:0.6;" x="57.6" xlink:href="#m432baba1da" y="266.415444"/>
      </g>
     </g>
    </g>
    <g id="ytick_9">
     <g id="line2d_109">
      <path clip-path="url(#p860e1c43df)" d="M 57.6 259.995078 
L 414.72 259.995078 
" style="fill:none;stroke:#dddddd;stroke-linecap:square;stroke-width:0.5;"/>
     </g>
     <g id="line2d_110">
      <g>
       <use style="stroke:#000000;stroke-width:0.6;" x="57.6" xlink:href="#m432baba1da" y="259.995078"/>
      </g>
     </g>
    </g>
    <g id="ytick_10">
     <g id="line2d_111">
      <path clip-path="url(#p860e1c43df)" d="M 57.6 254.749257 
L 414.72 254.749257 
" style="fill:none;stroke:#dddddd;stroke-linecap:square;stroke-width:0.5;"/>
     </g>
     <g id="line2d_112">
      <g>
       <use style="stroke:#000000;stroke-width:0.6;" x="57.6" xlink:href="#m432baba1da" y="254.749257"/>
      </g>
     </g>
    </g>
    <g id="ytick_11">
     <g id="line2d_113">
      <path clip-path="url(#p860e1c43df)" d="M 57.6 250.313979 
L 414.72 250.313979 
" style="fill:none;stroke:#dddddd;stroke-linecap:square;stroke-width:0.5;"/>
     </g>
     <g id="line2d_114">
      <g>
       <use style="stroke:#000000;stroke-width:0.6;" x="57.6" xlink:href="#m432baba1da" y="250.313979"/>
      </g>
     </g>
    </g>
    <g id="ytick_12">
     <g id="line2d_115">
      <path clip-path="url(#p860e1c43df)" d="M 57.6 246.471966 
L 414.72 246.471966 
" style="fill:none;stroke:#dddddd;stroke-linecap:square;stroke-width:0.5;"/>
     </g>
     <g id="line2d_116">
      <g>
       <use style="stroke:#000000;stroke-width:0.6;" x="57.6" xlink:href="#m432baba1da" y="246.471966"/>
      </g>
     </g>
    </g>
    <g id="ytick_13">
     <g id="line2d_117">
      <path clip-path="url(#p860e1c43df)" d="M 57.6 243.08307 
L 414.72 243.08307 
" style="fill:none;stroke:#dddddd;stroke-linecap:square;stroke-width:0.5;"/>
     </g>
     <g id="line2d_118">
      <g>
       <use style="stroke:#000000;stroke-width:0.6;" x="57.6" xlink:href="#m432baba1da" y="243.08307"/>
      </g>
     </g>
    </g>
    <g id="ytick_14">
     <g id="line2d_119">
      <path clip-path="url(#p860e1c43df)" d="M 57.6 220.108122 
L 414.72 220.108122 
" style="fill:none;stroke:#dddddd;stroke-linecap:square;stroke-width:0.5;"/>
     </g>
     <g id="line2d_120">
      <g>
       <use style="stroke:#000000;stroke-width:0.6;" x="57.6" xlink:href="#m432baba1da" y="220.108122"/>
      </g>
     </g>
    </g>
    <g id="ytick_15">
     <g id="line2d_121">
      <path clip-path="url(#p860e1c43df)" d="M 57.6 208.441935 
L 414.72 208.441935 
" style="fill:none;stroke:#dddddd;stroke-linecap:square;stroke-width:0.5;"/>
     </g>
     <g id="line2d_122">
      <g>
       <use style="stroke:#000000;stroke-width:0.6;" x="57.6" xlink:href="#m432baba1da" y="208.441935"/>
      </g>
     </g>
    </g>
    <g id="ytick_16">
     <g id="line2d_123">
      <path clip-path="url(#p860e1c43df)" d="M 57.6 200.164644 
L 414.72 200.164644 
" style="fill:none;stroke:#dddddd;stroke-linecap:square;stroke-width:0.5;"/>
     </g>
     <g id="line2d_124">
      <g>
       <use style="stroke:#000000;stroke-width:0.6;" x="57.6" xlink:href="#m432baba1da" y="200.164644"/>
      </g>
     </g>
    </g>
    <g id="ytick_17">
     <g id="line2d_125">
      <path clip-path="url(#p860e1c43df)" d="M 57.6 193.744278 
L 414.72 193.744278 
" style="fill:none;stroke:#dddddd;stroke-linecap:square;stroke-width:0.5;"/>
     </g>
     <g id="line2d_126">
      <g>
       <use style="stroke:#000000;stroke-width:0.6;" x="57.6" xlink:href="#m432baba1da" y="193.744278"/>
      </g>
     </g>
    </g>
    <g id="ytick_18">
     <g id="line2d_127">
      <path clip-path="url(#p860e1c43df)" d="M 57.6 188.498457 
L 414.72 188.498457 
" style="fill:none;stroke:#dddddd;stroke-linecap:square;stroke-width:0.5;"/>
     </g>
     <g id="line2d_128">
      <g>
       <use style="stroke:#000000;stroke-width:0.6;" x="57.6" xlink:href="#m432baba1da" y="188.498457"/>
      </g>
     </g>
    </g>
    <g id="ytick_19">
     <g id="line2d_129">
      <path clip-path="url(#p860e1c43df)" d="M 57.6 184.063179 
L 414.72 184.063179 
" style="fill:none;stroke:#dddddd;stroke-linecap:square;stroke-width:0.5;"/>
     </g>
     <g id="line2d_130">
      <g>
       <use style="stroke:#000000;stroke-width:0.6;" x="57.6" xlink:href="#m432baba1da" y="184.063179"/>
      </g>
     </g>
    </g>
    <g id="ytick_20">
     <g id="line2d_131">
      <path clip-path="url(#p860e1c43df)" d="M 57.6 180.221166 
L 414.72 180.221166 
" style="fill:none;stroke:#dddddd;stroke-linecap:square;stroke-width:0.5;"/>
     </g>
     <g id="line2d_132">
      <g>
       <use style="stroke:#000000;stroke-width:0.6;" x="57.6" xlink:href="#m432baba1da" y="180.221166"/>
      </g>
     </g>
    </g>
    <g id="ytick_21">
     <g id="line2d_133">
      <path clip-path="url(#p860e1c43df)" d="M 57.6 176.83227 
L 414.72 176.83227 
" style="fill:none;stroke:#dddddd;stroke-linecap:square;stroke-width:0.5;"/>
     </g>
     <g id="line2d_134">
      <g>
       <use style="stroke:#000000;stroke-width:0.6;" x="57.6" xlink:href="#m432baba1da" y="176.83227"/>
      </g>
     </g>
    </g>
    <g id="ytick_22">
     <g id="line2d_135">
      <path clip-path="url(#p860e1c43df)" d="M 57.6 153.857322 
L 414.72 153.857322 
" style="fill:none;stroke:#dddddd;stroke-linecap:square;stroke-width:0.5;"/>
     </g>
     <g id="line2d_136">
      <g>
       <use style="stroke:#000000;stroke-width:0.6;" x="57.6" xlink:href="#m432baba1da" y="153.857322"/>
      </g>
     </g>
    </g>
    <g id="ytick_23">
     <g id="line2d_137">
      <path clip-path="url(#p860e1c43df)" d="M 57.6 142.191135 
L 414.72 142.191135 
" style="fill:none;stroke:#dddddd;stroke-linecap:square;stroke-width:0.5;"/>
     </g>
     <g id="line2d_138">
      <g>
       <use style="stroke:#000000;stroke-width:0.6;" x="57.6" xlink:href="#m432baba1da" y="142.191135"/>
      </g>
     </g>
    </g>
    <g id="ytick_24">
     <g id="line2d_139">
      <path clip-path="url(#p860e1c43df)" d="M 57.6 133.913844 
L 414.72 133.913844 
" style="fill:none;stroke:#dddddd;stroke-linecap:square;stroke-width:0.5;"/>
     </g>
     <g id="line2d_140">
      <g>
       <use style="stroke:#000000;stroke-width:0.6;" x="57.6" xlink:href="#m432baba1da" y="133.913844"/>
      </g>
     </g>
    </g>
    <g id="ytick_25">
     <g id="line2d_141">
      <path clip-path="url(#p860e1c43df)" d="M 57.6 127.493478 
L 414.72 127.493478 
" style="fill:none;stroke:#dddddd;stroke-linecap:square;stroke-width:0.5;"/>
     </g>
     <g id="line2d_142">
      <g>
       <use style="stroke:#000000;stroke-width:0.6;" x="57.6" xlink:href="#m432baba1da" y="127.493478"/>
      </g>
     </g>
    </g>
    <g id="ytick_26">
     <g id="line2d_143">
      <path clip-path="url(#p860e1c43df)" d="M 57.6 122.247657 
L 414.72 122.247657 
" style="fill:none;stroke:#dddddd;stroke-linecap:square;stroke-width:0.5;"/>
     </g>
     <g id="line2d_144">
      <g>
       <use style="stroke:#000000;stroke-width:0.6;" x="57.6" xlink:href="#m432baba1da" y="122.247657"/>
      </g>
     </g>
    </g>
    <g id="ytick_27">
     <g id="line2d_145">
      <path clip-path="url(#p860e1c43df)" d="M 57.6 117.812379 
L 414.72 117.812379 
" style="fill:none;stroke:#dddddd;stroke-linecap:square;stroke-width:0.5;"/>
     </g>
     <g id="line2d_146">
      <g>
       <use style="stroke:#000000;stroke-width:0.6;" x="57.6" xlink:href="#m432baba1da" y="117.812379"/>
      </g>
     </g>
    </g>
    <g id="ytick_28">
     <g id="line2d_147">
      <path clip-path="url(#p860e1c43df)" d="M 57.6 113.970366 
L 414.72 113.970366 
" style="fill:none;stroke:#dddddd;stroke-linecap:square;stroke-width:0.5;"/>
     </g>
     <g id="line2d_148">
      <g>
       <use style="stroke:#000000;stroke-width:0.6;" x="57.6" xlink:href="#m432baba1da" y="113.970366"/>
      </g>
     </g>
    </g>
    <g id="ytick_29">
     <g id="line2d_149">
      <path clip-path="url(#p860e1c43df)" d="M 57.6 110.58147 
L 414.72 110.58147 
" style="fill:none;stroke:#dddddd;stroke-linecap:square;stroke-width:0.5;"/>
     </g>
     <g id="line2d_150">
      <g>
       <use style="stroke:#000000;stroke-width:0.6;" x="57.6" xlink:href="#m432baba1da" y="110.58147"/>
      </g>
     </g>
    </g>
    <g id="ytick_30">
     <g id="line2d_151">
      <path clip-path="url(#p860e1c43df)" d="M 57.6 87.606522 
L 414.72 87.606522 
" style="fill:none;stroke:#dddddd;stroke-linecap:square;stroke-width:0.5;"/>
     </g>
     <g id="line2d_152">
      <g>
       <use style="stroke:#000000;stroke-width:0.6;" x="57.6" xlink:href="#m432baba1da" y="87.606522"/>
      </g>
     </g>
    </g>
    <g id="ytick_31">
     <g id="line2d_153">
      <path clip-path="url(#p860e1c43df)" d="M 57.6 75.940335 
L 414.72 75.940335 
" style="fill:none;stroke:#dddddd;stroke-linecap:square;stroke-width:0.5;"/>
     </g>
     <g id="line2d_154">
      <g>
       <use style="stroke:#000000;stroke-width:0.6;" x="57.6" xlink:href="#m432baba1da" y="75.940335"/>
      </g>
     </g>
    </g>
    <g id="ytick_32">
     <g id="line2d_155">
      <path clip-path="url(#p860e1c43df)" d="M 57.6 67.663044 
L 414.72 67.663044 
" style="fill:none;stroke:#dddddd;stroke-linecap:square;stroke-width:0.5;"/>
     </g>
     <g id="line2d_156">
      <g>
       <use style="stroke:#000000;stroke-width:0.6;" x="57.6" xlink:href="#m432baba1da" y="67.663044"/>
      </g>
     </g>
    </g>
    <g id="ytick_33">
     <g id="line2d_157">
      <path clip-path="url(#p860e1c43df)" d="M 57.6 61.242678 
L 414.72 61.242678 
" style="fill:none;stroke:#dddddd;stroke-linecap:square;stroke-width:0.5;"/>
     </g>
     <g id="line2d_158">
      <g>
       <use style="stroke:#000000;stroke-width:0.6;" x="57.6" xlink:href="#m432baba1da" y="61.242678"/>
      </g>
     </g>
    </g>
    <g id="ytick_34">
     <g id="line2d_159">
      <path clip-path="url(#p860e1c43df)" d="M 57.6 55.996857 
L 414.72 55.996857 
" style="fill:none;stroke:#dddddd;stroke-linecap:square;stroke-width:0.5;"/>
     </g>
     <g id="line2d_160">
      <g>
       <use style="stroke:#000000;stroke-width:0.6;" x="57.6" xlink:href="#m432baba1da" y="55.996857"/>
      </g>
     </g>
    </g>
    <g id="ytick_35">
     <g id="line2d_161">
      <path clip-path="url(#p860e1c43df)" d="M 57.6 51.561579 
L 414.72 51.561579 
" style="fill:none;stroke:#dddddd;stroke-linecap:square;stroke-width:0.5;"/>
     </g>
     <g id="line2d_162">
      <g>
       <use style="stroke:#000000;stroke-width:0.6;" x="57.6" xlink:href="#m432baba1da" y="51.561579"/>
      </g>
     </g>
    </g>
    <g id="ytick_36">
     <g id="line2d_163">
      <path clip-path="url(#p860e1c43df)" d="M 57.6 47.719566 
L 414.72 47.719566 
" style="fill:none;stroke:#dddddd;stroke-linecap:square;stroke-width:0.5;"/>
     </g>
     <g id="line2d_164">
      <g>
       <use style="stroke:#000000;stroke-width:0.6;" x="57.6" xlink:href="#m432baba1da" y="47.719566"/>
      </g>
     </g>
    </g>
    <g id="ytick_37">
     <g id="line2d_165">
      <path clip-path="url(#p860e1c43df)" d="M 57.6 44.33067 
L 414.72 44.33067 
" style="fill:none;stroke:#dddddd;stroke-linecap:square;stroke-width:0.5;"/>
     </g>
     <g id="line2d_166">
      <g>
       <use style="stroke:#000000;stroke-width:0.6;" x="57.6" xlink:href="#m432baba1da" y="44.33067"/>
      </g>
     </g>
    </g>
    <g id="text_13">
     <!-- error $\epsilon$ -->
     <defs>
      <path d="M 38.09375 23.484375 
C 38.5 23.890625 38.5 24.09375 38.5 25.09375 
C 38.5 35.171875 33.09375 44 21.703125 44 
C 11.09375 44 2.703125 33.984375 2.703125 21.78125 
C 2.703125 8.65625 12.203125 -1 22.796875 -1 
C 34 -1 38.40625 9.671875 38.40625 11.796875 
C 38.40625 12.5 37.796875 12.5 37.59375 12.5 
C 36.90625 12.5 36.796875 12.296875 36.40625 11.078125 
C 34.203125 4.21875 28.703125 0.796875 23.5 0.796875 
C 19.203125 0.796875 14.90625 3.21875 12.203125 7.65625 
C 9.09375 12.796875 9.09375 18.75 9.09375 23.484375 
z
M 9.203125 25 
C 9.90625 39.234375 17.59375 42.390625 21.59375 42.390625 
C 28.40625 42.390625 33 36.0625 33.09375 25 
z
" id="CMR17-101"/>
      <path d="M 15 23.703125 
C 15 33.34375 19.09375 42.390625 26.59375 42.390625 
C 27.296875 42.390625 28 42.296875 28.703125 41.984375 
C 28.703125 41.984375 26.5 41.28125 26.5 38.671875 
C 26.5 36.265625 28.40625 35.265625 29.90625 35.265625 
C 31.09375 35.265625 33.296875 35.96875 33.296875 38.78125 
C 33.296875 41.984375 30.09375 44 26.703125 44 
C 19.09375 44 15.796875 36.5625 14.796875 33.046875 
L 14.703125 33.046875 
L 14.703125 44 
L 3.09375 42.890625 
L 3.09375 40.28125 
C 9 40.28125 9.90625 39.6875 9.90625 34.859375 
L 9.90625 6.921875 
C 9.90625 3.09375 9.5 2.59375 3.09375 2.59375 
L 3.09375 0 
C 5.5 0.1875 10.09375 0.1875 12.703125 0.1875 
C 15.59375 0.1875 20.703125 0.1875 23.40625 0 
L 23.40625 2.59375 
C 16.203125 2.59375 15 2.59375 15 7.109375 
z
" id="CMR17-114"/>
      <path d="M 43.09375 21.1875 
C 43.09375 34 33.796875 44 22.90625 44 
C 12 44 2.703125 34 2.703125 21.1875 
C 2.703125 8.59375 12 -1 22.90625 -1 
C 33.796875 -1 43.09375 8.59375 43.09375 21.1875 
z
M 22.90625 0.796875 
C 18.203125 0.796875 14.203125 3.59375 11.90625 7.5 
C 9.40625 12 9.09375 17.59375 9.09375 22 
C 9.09375 26.1875 9.296875 31.390625 11.90625 35.890625 
C 13.90625 39.1875 17.796875 42.390625 22.90625 42.390625 
C 27.40625 42.390625 31.203125 39.890625 33.59375 36.390625 
C 36.703125 31.6875 36.703125 25.09375 36.703125 22 
C 36.703125 18.09375 36.5 12.09375 33.796875 7.296875 
C 31 2.6875 26.703125 0.796875 22.90625 0.796875 
z
" id="CMR17-111"/>
      <path d="M 29.09375 23 
C 30.59375 23 32.296875 23 32.296875 24.59375 
C 32.296875 25.890625 31.296875 25.890625 29.5 25.890625 
L 13.296875 25.890625 
C 15.796875 34.75 21.703125 40.09375 30.59375 40.09375 
L 33.5 40.09375 
C 35.203125 40.09375 36.703125 40.09375 36.703125 41.6875 
C 36.703125 43 35.59375 43 33.796875 43 
L 30.40625 43 
C 18.09375 43 4.59375 33.375 4.59375 17.828125 
C 4.59375 6.5625 12.09375 -1 22 -1 
C 28.40625 -1 34.703125 3.015625 34.703125 4.03125 
C 34.703125 4.640625 34.40625 5.25 33.796875 5.25 
C 33.5 5.25 33.296875 5.15625 32.796875 4.75 
C 29 2.203125 25.296875 1 22.296875 1 
C 17 1 11.40625 4.546875 11.40625 14.375 
C 11.40625 16.296875 11.59375 18.9375 12.5 23 
z
" id="CMMI12-15"/>
     </defs>
     <g transform="translate(24.502248 188.040819)rotate(-90)scale(0.1 -0.1)">
      <use transform="scale(0.996264)" xlink:href="#CMR17-101"/>
      <use transform="translate(40.48566 0)scale(0.996264)" xlink:href="#CMR17-114"/>
      <use transform="translate(75.766428 0)scale(0.996264)" xlink:href="#CMR17-114"/>
      <use transform="translate(111.047196 0)scale(0.996264)" xlink:href="#CMR17-111"/>
      <use transform="translate(156.737673 0)scale(0.996264)" xlink:href="#CMR17-114"/>
      <use transform="translate(222.094407 0)scale(0.996264)" xlink:href="#CMMI12-15"/>
     </g>
    </g>
   </g>
   <g id="line2d_167">
    <path clip-path="url(#p860e1c43df)" d="M 57.6 266.697345 
L 62.59968 266.700409 
L 67.59936 266.849792 
L 72.59904 266.8935 
L 77.59872 266.640059 
L 82.5984 266.785777 
L 87.59808 266.694594 
L 92.59776 266.545323 
L 97.59744 266.637555 
L 102.59712 266.177234 
L 107.5968 266.779553 
L 112.59648 266.246521 
L 117.59616 266.566011 
L 122.59584 266.062288 
L 127.59552 267.380589 
L 132.5952 266.006725 
L 137.59488 266.966019 
L 142.59456 266.017371 
L 147.59424 264.86584 
L 152.59392 266.620515 
L 157.5936 265.664738 
L 162.59328 263.66073 
L 167.59296 265.257972 
L 172.59264 261.463522 
L 177.59232 261.636093 
L 182.592 263.72467 
L 187.59168 261.453815 
L 192.59136 258.39794 
L 197.59104 252.227871 
L 202.59072 251.948876 
L 207.5904 251.26781 
L 212.59008 244.439355 
L 217.58976 244.192914 
L 222.58944 227.049642 
L 227.58912 226.036351 
L 232.5888 212.461753 
L 237.58848 208.556779 
L 242.58816 204.178441 
L 247.58784 199.205179 
L 252.58752 184.691352 
L 257.5872 181.940119 
L 262.58688 168.628229 
L 267.58656 161.082239 
L 272.58624 140.286002 
L 277.58592 138.634503 
L 282.5856 132.411186 
L 287.58528 125.946928 
L 292.58496 111.936939 
L 297.58464 107.753614 
L 302.58432 91.718402 
L 307.584 92.08457 
L 312.58368 77.379254 
L 317.58336 77.831374 
L 322.58304 72.30206 
L 327.58272 70.763936 
L 332.5824 68.024928 
L 337.58208 62.856599 
L 342.58176 61.241859 
L 347.58144 66.609717 
L 352.58112 58.821862 
L 357.5808 59.283527 
L 362.58048 60.144784 
L 367.58016 60.484287 
L 372.57984 60.789107 
L 377.57952 63.688669 
L 382.5792 59.738403 
L 387.57888 62.856776 
L 392.57856 65.337852 
L 397.57824 58.629297 
L 402.57792 60.258599 
L 407.5776 60.537971 
L 412.57728 61.272353 
L 417.57696 61.524926 
L 422.57664 61.398482 
L 427.57632 57.221373 
L 432.576 60.028287 
L 437.57568 58.091278 
L 442.57536 58.133774 
L 447.57504 54.844305 
L 452.57472 60.914954 
L 457.5744 60.279161 
L 461.8 63.215005 
" style="fill:none;stroke:#dd5500;stroke-linecap:square;stroke-width:1.5;"/>
   </g>
   <g id="line2d_168">
    <path clip-path="url(#p860e1c43df)" d="M 57.6 41.2992 
L 62.59968 41.2992 
L 67.59936 41.2992 
L 72.59904 41.2992 
L 77.59872 41.2992 
L 82.5984 41.2992 
L 87.59808 41.2992 
L 92.59776 41.2992 
L 97.59744 41.2992 
L 102.59712 41.2992 
L 107.5968 41.2992 
L 112.59648 41.2992 
L 117.59616 41.2992 
L 122.59584 41.2992 
L 127.59552 41.2992 
L 132.5952 41.2992 
L 137.59488 41.2992 
L 142.59456 41.2992 
L 147.59424 41.2992 
L 152.59392 41.2992 
L 157.5936 41.2992 
L 162.59328 41.2992 
L 167.59296 41.2992 
L 172.59264 41.2992 
L 177.59232 41.2992 
L 182.592 41.2992 
L 187.59168 41.2992 
L 192.59136 41.2992 
L 197.59104 41.2992 
L 202.59072 41.2992 
L 207.5904 41.2992 
L 212.59008 41.2992 
L 217.58976 41.2992 
L 222.58944 41.2992 
L 227.58912 41.2992 
L 232.5888 41.2992 
L 237.58848 41.2992 
L 242.58816 41.2992 
L 247.58784 41.2992 
L 252.58752 41.2992 
L 257.5872 41.2992 
L 262.58688 41.2992 
L 267.58656 41.2992 
L 272.58624 41.2992 
L 277.58592 41.2992 
L 282.5856 41.2992 
L 287.58528 41.2992 
L 292.58496 41.2992 
L 297.58464 41.2992 
L 302.58432 41.2992 
L 307.584 41.2992 
L 312.58368 41.2992 
L 317.58336 41.2992 
L 322.58304 41.2992 
L 327.58272 41.2992 
L 332.5824 41.2992 
L 337.58208 41.2992 
L 342.58176 41.2992 
L 347.58144 41.2992 
L 352.58112 41.2992 
L 357.5808 41.2992 
L 362.58048 41.2992 
L 367.58016 41.2992 
L 372.57984 41.2992 
L 377.57952 41.2992 
L 382.5792 41.2992 
L 387.57888 41.2992 
L 392.57856 41.2992 
L 397.57824 41.2992 
L 402.57792 41.2992 
L 407.5776 41.2992 
L 412.57728 41.2992 
L 417.57696 41.2992 
L 422.57664 41.2992 
L 427.57632 41.2992 
L 432.576 41.2992 
L 437.57568 41.2992 
L 442.57536 41.2992 
L 447.57504 41.2992 
L 452.57472 41.2992 
L 457.5744 41.2992 
L 461.8 41.2992 
" style="fill:none;stroke:#000000;stroke-linecap:square;stroke-width:1.5;"/>
   </g>
   <g id="line2d_169">
    <path clip-path="url(#p860e1c43df)" d="M 57.6 41.2992 
L 62.59968 41.2992 
L 67.59936 41.2992 
L 72.59904 41.2992 
L 77.59872 41.2992 
L 82.5984 41.2992 
L 87.59808 41.2992 
L 92.59776 41.2992 
L 97.59744 41.2992 
L 102.59712 41.2992 
L 107.5968 41.2992 
L 112.59648 41.2992 
L 117.59616 41.2992 
L 122.59584 41.2992 
L 127.59552 41.2992 
L 132.5952 41.2992 
L 137.59488 41.2992 
L 142.59456 41.2992 
L 147.59424 41.2992 
L 152.59392 41.2992 
L 157.5936 41.2992 
L 162.59328 41.2992 
L 167.59296 41.2992 
L 172.59264 41.2992 
L 177.59232 41.2992 
L 182.592 41.2992 
L 187.59168 41.2992 
L 192.59136 41.2992 
L 197.59104 41.2992 
L 202.59072 41.2992 
L 207.5904 41.2992 
L 212.59008 41.2992 
L 217.58976 41.2992 
L 222.58944 41.2992 
L 227.58912 41.2992 
L 232.5888 41.2992 
L 237.58848 41.2992 
L 242.58816 41.2992 
L 247.58784 41.2992 
L 252.58752 41.2992 
L 257.5872 41.2992 
L 262.58688 41.2992 
L 267.58656 41.2992 
L 272.58624 41.2992 
L 277.58592 41.2992 
L 282.5856 41.2992 
L 287.58528 41.2992 
L 292.58496 41.2992 
L 297.58464 41.2992 
L 302.58432 41.2992 
L 307.584 41.2992 
L 312.58368 41.2992 
L 317.58336 41.2992 
L 322.58304 41.2992 
L 327.58272 41.2992 
L 332.5824 41.2992 
L 337.58208 41.2992 
L 342.58176 41.2992 
L 347.58144 41.2992 
L 352.58112 41.2992 
L 357.5808 41.2992 
L 362.58048 41.2992 
L 367.58016 41.2992 
L 372.57984 41.2992 
L 377.57952 41.2992 
L 382.5792 41.2992 
L 387.57888 41.2992 
L 392.57856 41.2992 
L 397.57824 41.2992 
L 402.57792 41.2992 
L 407.5776 41.2992 
L 412.57728 41.2992 
L 417.57696 41.2992 
L 422.57664 41.2992 
L 427.57632 41.2992 
L 432.576 41.2992 
L 437.57568 41.2992 
L 442.57536 41.2992 
L 447.57504 41.2992 
L 452.57472 41.2992 
L 457.5744 41.2992 
L 461.8 41.2992 
" style="fill:none;stroke:#000000;stroke-linecap:square;stroke-width:1.5;"/>
   </g>
   <g id="line2d_170">
    <path clip-path="url(#p860e1c43df)" d="M 166.581527 345.16 
L 353.176496 -1 
L 353.176496 -1 
" style="fill:none;stroke:#1f77b4;stroke-linecap:square;stroke-width:1.5;"/>
   </g>
   <g id="line2d_171">
    <path clip-path="url(#p860e1c43df)" d="M 57.6 267.276762 
L 461.8 267.276762 
L 461.8 267.276762 
" style="fill:none;stroke:#ff7f0e;stroke-linecap:square;stroke-width:1.5;"/>
   </g>
   <g id="patch_3">
    <path d="M 57.6 306.3024 
L 57.6 41.2992 
" style="fill:none;stroke:#000000;stroke-linecap:square;stroke-linejoin:miter;stroke-width:0.8;"/>
   </g>
   <g id="patch_4">
    <path d="M 414.72 306.3024 
L 414.72 41.2992 
" style="fill:none;stroke:#000000;stroke-linecap:square;stroke-linejoin:miter;stroke-width:0.8;"/>
   </g>
   <g id="patch_5">
    <path d="M 57.6 306.3024 
L 414.72 306.3024 
" style="fill:none;stroke:#000000;stroke-linecap:square;stroke-linejoin:miter;stroke-width:0.8;"/>
   </g>
   <g id="patch_6">
    <path d="M 57.6 41.2992 
L 414.72 41.2992 
" style="fill:none;stroke:#000000;stroke-linecap:square;stroke-linejoin:miter;stroke-width:0.8;"/>
   </g>
   <g id="text_14">
    <!-- Landau-Zener Model -->
    <defs>
     <path d="M 54.203125 25.1875 
L 52.40625 25.1875 
C 51.59375 15.328125 50.296875 2.59375 33.203125 2.59375 
L 23.90625 2.59375 
C 19.90625 2.59375 19.703125 3.09375 19.703125 6.46875 
L 19.703125 60.8125 
C 19.703125 64.390625 19.90625 65.390625 27.5 65.390625 
L 29.703125 65.390625 
L 29.703125 68 
C 25.59375 67.796875 20.796875 67.796875 16.703125 67.796875 
C 13.59375 67.796875 8 67.796875 5.09375 68 
L 5.09375 65.390625 
C 12 65.390625 13.09375 65.390625 13.09375 60.90625 
L 13.09375 7.078125 
C 13.09375 2.59375 12 2.59375 5.09375 2.59375 
L 5.09375 0 
L 51.796875 0 
z
" id="CMR17-76"/>
     <path d="M 36 25.875 
C 36 32 36 35.546875 31.796875 39.59375 
C 28.09375 42.984375 23.796875 44 20.40625 44 
C 12.5 44 6.796875 37.625 6.796875 30.890625 
C 6.796875 27.1875 9.796875 27 10.40625 27 
C 11.703125 27 14 27.796875 14 30.59375 
C 14 33.09375 12.09375 34.1875 10.40625 34.1875 
C 10 34.1875 9.5 34.09375 9.203125 34 
C 11.296875 40.53125 16.703125 42.390625 20.203125 42.390625 
C 25.203125 42.390625 30.703125 37.828125 30.703125 29.296875 
L 30.703125 25.5 
C 24.796875 25.296875 17.703125 24.5 12.09375 21.453125 
C 5.796875 17.921875 4 12.84375 4 9 
C 4 1.203125 13 -1 18.296875 -1 
C 23.796875 -1 28.90625 2.109375 31.09375 7.890625 
C 31.296875 3.421875 34.09375 -0.609375 38.5 -0.609375 
C 40.59375 -0.609375 45.90625 0.796875 45.90625 8.796875 
L 45.90625 14.46875 
L 44.09375 14.46875 
L 44.09375 8.703125 
C 44.09375 2.515625 41.40625 1.703125 40.09375 1.703125 
C 36 1.703125 36 6.96875 36 11.4375 
z
M 30.703125 13.859375 
C 30.703125 5.046875 24.5 0.59375 19 0.59375 
C 14 0.59375 10.09375 4.34375 10.09375 9 
C 10.09375 12.046875 11.40625 17.40625 17.203125 20.65625 
C 22 23.390625 27.5 23.796875 30.703125 24 
z
" id="CMR17-97"/>
     <path d="M 41.5 30.53125 
C 41.5 35.65625 40.5 44 28.703125 44 
C 20.796875 44 16.703125 37.875 15.203125 33.84375 
L 15.09375 33.84375 
L 15.09375 44 
L 3.296875 42.890625 
L 3.296875 40.28125 
C 9.203125 40.28125 10.09375 39.6875 10.09375 34.859375 
L 10.09375 6.921875 
C 10.09375 3.09375 9.703125 2.59375 3.296875 2.59375 
L 3.296875 0 
C 5.703125 0.1875 10.09375 0.1875 12.703125 0.1875 
C 15.296875 0.1875 19.796875 0.1875 22.203125 0 
L 22.203125 2.59375 
C 15.796875 2.59375 15.40625 3 15.40625 6.921875 
L 15.40625 26.21875 
C 15.40625 35.453125 21 42.390625 28 42.390625 
C 35.40625 42.390625 36.203125 35.765625 36.203125 30.9375 
L 36.203125 6.921875 
C 36.203125 3.09375 35.796875 2.59375 29.40625 2.59375 
L 29.40625 0 
C 31.796875 0.1875 36.203125 0.1875 38.796875 0.1875 
C 41.40625 0.1875 45.90625 0.1875 48.296875 0 
L 48.296875 2.59375 
C 41.90625 2.59375 41.5 3 41.5 6.921875 
z
" id="CMR17-110"/>
     <path d="M 29.40625 42.890625 
L 29.40625 40.296875 
C 35.296875 40.296875 36.203125 39.6875 36.203125 34.828125 
L 36.203125 16.453125 
C 36.203125 7.96875 31.703125 0.59375 24.296875 0.59375 
C 16.09375 0.59375 15.40625 5.546875 15.40625 10.796875 
L 15.40625 44 
L 3.296875 42.890625 
L 3.296875 40.296875 
C 7.296875 40.296875 10 40.296875 10.09375 36.25 
L 10.09375 16.859375 
C 10.09375 10.09375 10.09375 5.75 12.703125 2.921875 
C 14 1.609375 16.5 -1 23.703125 -1 
C 32.203125 -1 35.5 6.25 36.296875 8.375 
L 36.40625 8.375 
L 36.40625 -1 
L 48.296875 -0.203125 
L 48.296875 2.40625 
C 42.40625 2.40625 41.5 3.015625 41.5 7.859375 
L 41.5 44 
z
" id="CMR17-117"/>
     <path d="M 25.5 19.59375 
L 25.5 24 
L 0.40625 24 
L 0.40625 19.59375 
z
" id="CMR17-45"/>
     <path d="M 51.59375 65.984375 
C 51.59375 67.890625 51.5 68 49.40625 68 
L 6.90625 68 
L 5.90625 45.984375 
L 7.703125 45.984375 
C 8.296875 57.328125 11.296875 65.390625 27.5 65.390625 
L 44 65.390625 
L 5.296875 3.1875 
C 4.59375 2.09375 4.59375 2 4.59375 1.296875 
C 4.59375 0 4.796875 0 6.796875 0 
L 50.703125 0 
L 52.09375 25.984375 
L 50.296875 25.984375 
C 49.40625 12.9375 48.703125 2.796875 29.59375 2.796875 
L 12.203125 2.796875 
z
" id="CMR17-90"/>
     <path d="M 20.90625 66.390625 
C 20.296875 67.890625 20.203125 68 18.09375 68 
L 5.296875 68 
L 5.296875 65.390625 
C 12.203125 65.390625 13.296875 65.390625 13.296875 60.90625 
L 13.296875 9.75 
C 13.296875 7.265625 13.296875 2.59375 5.296875 2.59375 
L 5.296875 0 
C 7.59375 0.1875 11.796875 0.1875 14.296875 0.1875 
C 16.796875 0.1875 21 0.1875 23.296875 0 
L 23.296875 2.59375 
C 15.296875 2.59375 15.296875 7.265625 15.296875 9.75 
L 15.296875 64.984375 
L 15.40625 64.984375 
L 38.90625 1.59375 
C 39.296875 0.59375 39.5 0 40.296875 0 
C 41.09375 0 41.296875 0.59375 41.703125 1.59375 
L 65.40625 65.484375 
L 65.5 65.484375 
L 65.5 7.078125 
C 65.5 2.59375 64.40625 2.59375 57.5 2.59375 
L 57.5 0 
C 60.203125 0.1875 65.59375 0.1875 68.5 0.1875 
C 71.40625 0.1875 76.90625 0.1875 79.59375 0 
L 79.59375 2.59375 
C 72.703125 2.59375 71.59375 2.59375 71.59375 7.078125 
L 71.59375 60.90625 
C 71.59375 65.390625 72.703125 65.390625 79.59375 65.390625 
L 79.59375 68 
L 66.90625 68 
C 64.796875 68 64.703125 67.890625 64.09375 66.390625 
L 42.5 8.0625 
z
" id="CMR17-77"/>
     <path d="M 15.296875 69 
L 3.40625 67.890625 
L 3.40625 65.296875 
C 9.296875 65.296875 10.203125 64.703125 10.203125 59.921875 
L 10.203125 6.859375 
C 10.203125 3.09375 9.796875 2.59375 3.40625 2.59375 
L 3.40625 0 
C 5.796875 0.1875 10.203125 0.1875 12.703125 0.1875 
C 15.296875 0.1875 19.703125 0.1875 22.09375 0 
L 22.09375 2.59375 
C 15.703125 2.59375 15.296875 2.984375 15.296875 6.859375 
z
" id="CMR17-108"/>
    </defs>
    <g transform="translate(182.754573 35.2992)scale(0.12 -0.12)">
     <use transform="scale(0.996264)" xlink:href="#CMR17-76"/>
     <use transform="translate(57.381408 0)scale(0.996264)" xlink:href="#CMR17-97"/>
     <use transform="translate(103.071885 0)scale(0.996264)" xlink:href="#CMR17-110"/>
     <use transform="translate(153.967255 0)scale(0.996264)" xlink:href="#CMR17-100"/>
     <use transform="translate(204.862625 0)scale(0.996264)" xlink:href="#CMR17-97"/>
     <use transform="translate(250.553102 0)scale(0.996264)" xlink:href="#CMR17-117"/>
     <use transform="translate(301.448471 0)scale(0.996264)" xlink:href="#CMR17-45"/>
     <use transform="translate(331.524438 0)scale(0.996264)" xlink:href="#CMR17-90"/>
     <use transform="translate(387.624609 0)scale(0.996264)" xlink:href="#CMR17-101"/>
     <use transform="translate(428.110269 0)scale(0.996264)" xlink:href="#CMR17-110"/>
     <use transform="translate(479.005639 0)scale(0.996264)" xlink:href="#CMR17-101"/>
     <use transform="translate(519.4913 0)scale(0.996264)" xlink:href="#CMR17-114"/>
     <use transform="translate(584.848034 0)scale(0.996264)" xlink:href="#CMR17-77"/>
     <use transform="translate(669.534974 0)scale(0.996264)" xlink:href="#CMR17-111"/>
     <use transform="translate(717.82789 0)scale(0.996264)" xlink:href="#CMR17-100"/>
     <use transform="translate(768.72326 0)scale(0.996264)" xlink:href="#CMR17-101"/>
     <use transform="translate(809.208921 0)scale(0.996264)" xlink:href="#CMR17-108"/>
    </g>
   </g>
   <g id="legend_1">
    <g id="patch_7">
     <path d="M 75.367227 197.576393 
L 407.72 197.576393 
Q 409.72 197.576393 409.72 195.576393 
L 409.72 152.025207 
Q 409.72 150.025207 407.72 150.025207 
L 75.367227 150.025207 
Q 73.367227 150.025207 73.367227 152.025207 
L 73.367227 195.576393 
Q 73.367227 197.576393 75.367227 197.576393 
z
" style="fill:#ffffff;opacity:0.8;stroke:#cccccc;stroke-linejoin:miter;"/>
    </g>
    <g id="line2d_172">
     <path d="M 77.367227 157.525207 
L 97.367227 157.525207 
" style="fill:none;stroke:#dd5500;stroke-linecap:square;stroke-width:1.5;"/>
    </g>
    <g id="line2d_173"/>
    <g id="text_15">
     <!-- num $B = 1.00e+01$, $\sigma = 1.00e+00$, $\gamma = 1.00e-01$, $t_f = 1.00e+00$ -->
     <defs>
      <path d="M 67.59375 30.53125 
C 67.59375 35.5625 66.703125 44 54.796875 44 
C 48 44 43.296875 39.375 41.5 33.953125 
L 41.40625 33.953125 
C 40.203125 42.1875 34.296875 44 28.703125 44 
C 20.796875 44 16.703125 37.875 15.203125 33.84375 
L 15.09375 33.84375 
L 15.09375 44 
L 3.296875 42.890625 
L 3.296875 40.28125 
C 9.203125 40.28125 10.09375 39.6875 10.09375 34.859375 
L 10.09375 6.921875 
C 10.09375 3.09375 9.703125 2.59375 3.296875 2.59375 
L 3.296875 0 
C 5.703125 0.1875 10.09375 0.1875 12.703125 0.1875 
C 15.296875 0.1875 19.796875 0.1875 22.203125 0 
L 22.203125 2.59375 
C 15.796875 2.59375 15.40625 3 15.40625 6.921875 
L 15.40625 26.21875 
C 15.40625 35.453125 21 42.390625 28 42.390625 
C 35.40625 42.390625 36.203125 35.765625 36.203125 30.9375 
L 36.203125 6.921875 
C 36.203125 3.09375 35.796875 2.59375 29.40625 2.59375 
L 29.40625 0 
C 31.796875 0.1875 36.203125 0.1875 38.796875 0.1875 
C 41.40625 0.1875 45.90625 0.1875 48.296875 0 
L 48.296875 2.59375 
C 41.90625 2.59375 41.5 3 41.5 6.921875 
L 41.5 26.21875 
C 41.5 35.453125 47.09375 42.390625 54.09375 42.390625 
C 61.5 42.390625 62.296875 35.765625 62.296875 30.9375 
L 62.296875 6.921875 
C 62.296875 3.09375 61.90625 2.59375 55.5 2.59375 
L 55.5 0 
C 57.90625 0.1875 62.296875 0.1875 64.90625 0.1875 
C 67.5 0.1875 72 0.1875 74.40625 0 
L 74.40625 2.59375 
C 68 2.59375 67.59375 3 67.59375 6.921875 
z
" id="CMR17-109"/>
      <path d="M 36.59375 61.171875 
C 37.5 64.890625 37.90625 65.09375 41.796875 65.09375 
L 54.796875 65.09375 
C 66.09375 65.09375 66.09375 55.421875 66.09375 54.515625 
C 66.09375 46.359375 58 36 44.796875 36 
L 30.40625 36 
z
M 53.5 35.1875 
C 64.40625 37.203125 74.296875 44.859375 74.296875 54.109375 
C 74.296875 61.96875 67.40625 68 56.09375 68 
L 24 68 
C 22.09375 68 21.203125 68 21.203125 66.09375 
C 21.203125 65.09375 22.09375 65.09375 23.59375 65.09375 
C 29.703125 65.09375 29.703125 64.28125 29.703125 63.171875 
C 29.703125 62.984375 29.703125 62.375 29.296875 60.859375 
L 15.796875 7.328125 
C 14.90625 3.875 14.703125 2.890625 7.703125 2.890625 
C 5.796875 2.890625 4.796875 2.890625 4.796875 1.09375 
C 4.796875 0 5.40625 0 7.40625 0 
L 41.703125 0 
C 57 0 68.796875 11.453125 68.796875 21.390625 
C 68.796875 29.46875 61.59375 34.390625 53.5 35.1875 
z
M 39.296875 2.890625 
L 25.796875 2.890625 
C 24.40625 2.890625 24.203125 2.890625 23.59375 2.984375 
C 22.5 3.09375 22.40625 3.28125 22.40625 4.078125 
C 22.40625 4.765625 22.59375 5.359375 22.796875 6.234375 
L 29.796875 34 
L 48.59375 34 
C 60.40625 34 60.40625 23.171875 60.40625 22.375 
C 60.40625 12.9375 51.703125 2.890625 39.296875 2.890625 
z
" id="CMMI12-66"/>
      <path d="M 18.40625 4.796875 
C 18.40625 7.6875 16 9.6875 13.59375 9.6875 
C 10.703125 9.6875 8.703125 7.296875 8.703125 4.890625 
C 8.703125 2 11.09375 0 13.5 0 
C 16.40625 0 18.40625 2.390625 18.40625 4.796875 
z
" id="CMMI12-58"/>
      <path d="M 17.90625 23 
C 20.59375 23 27.40625 23.1875 32.203125 25 
C 39.796875 27.90625 40.5 33.75 40.5 35.546875 
C 40.5 39.984375 36.703125 44 30.09375 44 
C 19.59375 44 4.5 34.453125 4.5 16.65625 
C 4.5 6.25 10.5 -1 19.59375 -1 
C 33.203125 -1 41.796875 9.515625 41.796875 10.796875 
C 41.796875 11.390625 41.203125 11.890625 40.796875 11.890625 
C 40.5 11.890625 40.40625 11.796875 39.5 10.90625 
C 33.09375 2.484375 23.59375 1 19.796875 1 
C 14.09375 1 11.09375 5.453125 11.09375 12.78125 
C 11.09375 14.171875 11.09375 16.65625 12.59375 23 
z
M 13.09375 25 
C 17.40625 40.484375 26.90625 41.984375 30.09375 41.984375 
C 34.5 41.984375 37.5 39.375 37.5 35.546875 
C 37.5 25 21.5 25 17.296875 25 
z
" id="CMMI12-101"/>
      <path d="M 37.703125 23 
L 64.203125 23 
C 65.59375 23 67.296875 23 67.296875 24.6875 
C 67.296875 26.5 65.703125 26.5 64.203125 26.5 
L 37.703125 26.5 
L 37.703125 52.890625 
C 37.703125 54.296875 37.703125 56 36 56 
C 34.203125 56 34.203125 54.390625 34.203125 52.890625 
L 34.203125 26.5 
L 7.703125 26.5 
C 6.296875 26.5 4.59375 26.5 4.59375 24.796875 
C 4.59375 23 6.203125 23 7.703125 23 
L 34.203125 23 
L 34.203125 -3.03125 
C 34.203125 -4.40625 34.203125 -6.109375 35.90625 -6.109375 
C 37.703125 -6.109375 37.703125 -4.515625 37.703125 -3.03125 
z
" id="CMR17-43"/>
      <path d="M 15.796875 1.59375 
C 16 0.6875 16 0.390625 16 -1.1875 
C 16 -7.046875 14 -12.421875 9.796875 -17.3125 
C 9.296875 -17.8125 9.296875 -18 9.296875 -18.203125 
C 9.296875 -18.609375 9.703125 -19 10.09375 -19 
C 10.703125 -19 17.59375 -12.125 17.59375 -1.28125 
C 17.59375 2 17.203125 8.1875 12.5 8.1875 
C 10.296875 8.1875 8.40625 6.6875 8.40625 4.09375 
C 8.40625 1.5 10.296875 0 12.5 0 
C 13.703125 0 15 0.5 15.796875 1.59375 
z
" id="CMR17-44"/>
      <path d="M 37.796875 12.265625 
C 37.59375 17.140625 37.40625 24.78125 33.59375 33.71875 
C 31.59375 38.6875 28.203125 44 20.90625 44 
C 8.59375 44 1.90625 28.359375 1.90625 25.765625 
C 1.90625 24.875 2.59375 24.875 2.90625 24.875 
C 3.796875 24.875 3.796875 25.078125 4.296875 26.375 
C 6.40625 32.515625 12.796875 37.390625 19.703125 37.390625 
C 33.59375 37.390625 35.59375 22 35.59375 12.171875 
C 35.59375 5.90625 34.90625 3.828125 34.296875 1.84375 
C 32.40625 -4.3125 29.09375 -16.625 29.09375 -19.40625 
C 29.09375 -20.203125 29.40625 -21.109375 30.203125 -21.109375 
C 31.703125 -21.109375 32.59375 -17.8125 33.703125 -13.84375 
C 36.09375 -5.109375 36.703125 -0.734375 37.203125 3.234375 
C 37.5 5.625 43.203125 22.015625 51.09375 37.609375 
C 51.796875 39.203125 53.203125 41.890625 53.203125 42.1875 
C 53.203125 42.296875 53.09375 43 52.203125 43 
C 52 43 51.5 43 51.296875 42.59375 
C 51.09375 42.390625 47.59375 35.625 44.59375 28.875 
C 43.09375 25.46875 41.09375 21 37.796875 12.265625 
z
" id="CMMI12-13"/>
      <path d="M 20.09375 40.09375 
L 29.296875 40.09375 
C 31.203125 40.09375 32.203125 40.09375 32.203125 41.890625 
C 32.203125 43 31.59375 43 29.59375 43 
L 20.796875 43 
L 24.5 57.25 
C 24.90625 58.625 24.90625 58.8125 24.90625 59.5 
C 24.90625 61.09375 23.59375 62 22.296875 62 
C 21.5 62 19.203125 61.6875 18.40625 58.53125 
L 14.5 43 
L 5.09375 43 
C 3.09375 43 2.203125 43 2.203125 41.09375 
C 2.203125 40.09375 2.90625 40.09375 4.796875 40.09375 
L 13.703125 40.09375 
L 7.09375 13.765625 
C 6.296875 10.265625 6 9.265625 6 7.96875 
C 6 3.28125 9.296875 -1 14.90625 -1 
C 25 -1 30.40625 13.5625 30.40625 14.265625 
C 30.40625 14.859375 30 15.15625 29.40625 15.15625 
C 29.203125 15.15625 28.796875 15.15625 28.59375 14.75 
C 28.5 14.65625 28.40625 14.5625 27.703125 12.96875 
C 25.59375 7.96875 21 1 15.203125 1 
C 12.203125 1 12 3.484375 12 5.6875 
C 12 5.78125 12 7.671875 12.296875 8.875 
z
" id="CMMI12-116"/>
      <path d="M 44.59375 40.09375 
C 46.59375 40.09375 47.40625 40.09375 47.40625 41.984375 
C 47.40625 43 46.59375 43 44.796875 43 
L 36.703125 43 
C 38.59375 53.09375 40 60.09375 40.796875 63.296875 
C 41.40625 65.6875 43.5 67.984375 46.09375 67.984375 
C 48.203125 67.984375 50.296875 67.09375 51.296875 66.1875 
C 47.40625 65.796875 46.203125 62.890625 46.203125 61.1875 
C 46.203125 59.1875 47.703125 58 49.59375 58 
C 51.59375 58 54.59375 59.6875 54.59375 63.5 
C 54.59375 67.6875 50.40625 70 46 70 
C 41.703125 70 37.5 66.796875 35.5 62.890625 
C 33.703125 59.390625 32.703125 55.828125 30.40625 43 
L 23.703125 43 
C 21.796875 43 20.796875 43 20.796875 41.1875 
C 20.796875 40.09375 21.40625 40.09375 23.40625 40.09375 
L 29.796875 40.09375 
C 28 30.890625 23.90625 8.515625 21.59375 -2.0625 
C 19.90625 -10.703125 18.40625 -18 13.40625 -18 
C 13.09375 -18 10.203125 -18 8.40625 -16.109375 
C 13.5 -15.703125 13.5 -11.3125 13.5 -11.203125 
C 13.5 -9.203125 12 -8 10.09375 -8 
C 8.09375 -8 5.09375 -9.703125 5.09375 -13.515625 
C 5.09375 -17.8125 9.5 -20 13.40625 -20 
C 23.59375 -20 27.796875 -1.765625 28.90625 3.171875 
C 30.703125 10.796875 35.59375 37.125 36.09375 40.09375 
z
" id="CMMI12-102"/>
     </defs>
     <g transform="translate(105.367227 161.025207)scale(0.1 -0.1)">
      <use transform="scale(0.996264)" xlink:href="#CMR17-110"/>
      <use transform="translate(48.292916 0)scale(0.996264)" xlink:href="#CMR17-117"/>
      <use transform="translate(99.188286 0)scale(0.996264)" xlink:href="#CMR17-109"/>
      <use transform="translate(206.183842 0)scale(0.996264)" xlink:href="#CMMI12-66"/>
      <use transform="translate(312.993374 0)scale(0.996264)" xlink:href="#CMR17-61"/>
      <use transform="translate(412.382171 0)scale(0.996264)" xlink:href="#CMR17-49"/>
      <use transform="translate(458.072648 0)scale(0.996264)" xlink:href="#CMMI12-58"/>
      <use transform="translate(485.169825 0)scale(0.996264)" xlink:href="#CMR17-48"/>
      <use transform="translate(530.860302 0)scale(0.996264)" xlink:href="#CMR17-48"/>
      <use transform="translate(576.550779 0)scale(0.996264)" xlink:href="#CMMI12-101"/>
      <use transform="translate(643.901987 0)scale(0.996264)" xlink:href="#CMR17-43"/>
      <use transform="translate(737.755983 0)scale(0.996264)" xlink:href="#CMR17-48"/>
      <use transform="translate(783.44646 0)scale(0.996264)" xlink:href="#CMR17-49"/>
      <use transform="translate(829.136937 0)scale(0.996264)" xlink:href="#CMR17-44"/>
      <use transform="translate(884.083962 0)scale(0.996264)" xlink:href="#CMMI12-27"/>
      <use transform="translate(970.778024 0)scale(0.996264)" xlink:href="#CMR17-61"/>
      <use transform="translate(1070.166821 0)scale(0.996264)" xlink:href="#CMR17-49"/>
      <use transform="translate(1115.857298 0)scale(0.996264)" xlink:href="#CMMI12-58"/>
      <use transform="translate(1142.954476 0)scale(0.996264)" xlink:href="#CMR17-48"/>
      <use transform="translate(1188.644953 0)scale(0.996264)" xlink:href="#CMR17-48"/>
      <use transform="translate(1234.33543 0)scale(0.996264)" xlink:href="#CMMI12-101"/>
      <use transform="translate(1301.686638 0)scale(0.996264)" xlink:href="#CMR17-43"/>
      <use transform="translate(1395.540633 0)scale(0.996264)" xlink:href="#CMR17-48"/>
      <use transform="translate(1441.23111 0)scale(0.996264)" xlink:href="#CMR17-48"/>
      <use transform="translate(1486.921587 0)scale(0.996264)" xlink:href="#CMR17-44"/>
      <use transform="translate(1541.868612 0)scale(0.996264)" xlink:href="#CMMI12-13"/>
      <use transform="translate(1625.561189 0)scale(0.996264)" xlink:href="#CMR17-61"/>
      <use transform="translate(1724.949986 0)scale(0.996264)" xlink:href="#CMR17-49"/>
      <use transform="translate(1770.640463 0)scale(0.996264)" xlink:href="#CMMI12-58"/>
      <use transform="translate(1797.73764 0)scale(0.996264)" xlink:href="#CMR17-48"/>
      <use transform="translate(1843.428117 0)scale(0.996264)" xlink:href="#CMR17-48"/>
      <use transform="translate(1889.118595 0)scale(0.996264)" xlink:href="#CMMI12-101"/>
      <use transform="translate(1956.469803 0)scale(0.996264)" xlink:href="#CMSY10-0"/>
      <use transform="translate(2056.096477 0)scale(0.996264)" xlink:href="#CMR17-48"/>
      <use transform="translate(2101.786954 0)scale(0.996264)" xlink:href="#CMR17-49"/>
      <use transform="translate(2147.477431 0)scale(0.996264)" xlink:href="#CMR17-44"/>
      <use transform="translate(2202.424456 0)scale(0.996264)" xlink:href="#CMMI12-116"/>
      <use transform="translate(2237.650786 -14.943915)scale(0.697382)" xlink:href="#CMMI12-102"/>
      <use transform="translate(2306.926951 0)scale(0.996264)" xlink:href="#CMR17-61"/>
      <use transform="translate(2406.315748 0)scale(0.996264)" xlink:href="#CMR17-49"/>
      <use transform="translate(2452.006225 0)scale(0.996264)" xlink:href="#CMMI12-58"/>
      <use transform="translate(2479.103402 0)scale(0.996264)" xlink:href="#CMR17-48"/>
      <use transform="translate(2524.793879 0)scale(0.996264)" xlink:href="#CMR17-48"/>
      <use transform="translate(2570.484356 0)scale(0.996264)" xlink:href="#CMMI12-101"/>
      <use transform="translate(2637.835564 0)scale(0.996264)" xlink:href="#CMR17-43"/>
      <use transform="translate(2731.68956 0)scale(0.996264)" xlink:href="#CMR17-48"/>
      <use transform="translate(2777.380037 0)scale(0.996264)" xlink:href="#CMR17-48"/>
     </g>
    </g>
    <g id="line2d_174">
     <path d="M 77.367227 172.375602 
L 97.367227 172.375602 
" style="fill:none;stroke:#1f77b4;stroke-linecap:square;stroke-width:1.5;"/>
    </g>
    <g id="line2d_175"/>
    <g id="text_16">
     <!-- noise term $\gamma=1$, $\Omega = 1$, $t_f = 100$ -->
     <defs>
      <path d="M 15.5 61.890625 
C 15.5 64.09375 13.703125 66 11.40625 66 
C 9.203125 66 7.296875 64.1875 7.296875 61.890625 
C 7.296875 59.6875 9.09375 57.796875 11.40625 57.796875 
C 13.59375 57.796875 15.5 59.59375 15.5 61.890625 
z
M 3.796875 42.890625 
L 3.796875 40.296875 
C 9.40625 40.296875 10.203125 39.6875 10.203125 34.859375 
L 10.203125 6.921875 
C 10.203125 3.09375 9.796875 2.59375 3.40625 2.59375 
L 3.40625 0 
C 5.796875 0.1875 10.09375 0.1875 12.59375 0.1875 
C 15 0.1875 19.09375 0.1875 21.40625 0 
L 21.40625 2.59375 
C 15.5 2.59375 15.296875 3.203125 15.296875 6.8125 
L 15.296875 44 
z
" id="CMR17-105"/>
      <path d="M 63.09375 14.609375 
L 61.296875 14.609375 
C 60.40625 10 60.09375 8.796875 59.59375 7.203125 
C 59.09375 5.6875 58.796875 4.890625 53 4.890625 
L 44.90625 4.890625 
C 46 10.703125 48.40625 15.015625 52.59375 21.71875 
C 57.796875 30.234375 62.09375 37.140625 62.09375 45.453125 
C 62.09375 58.984375 49.296875 70 33.40625 70 
C 17.09375 70 4.59375 58.875 4.59375 45.453125 
C 4.59375 37.140625 9 30.03125 13.90625 22.125 
C 18.296875 15.015625 20.703125 10.703125 21.796875 4.890625 
L 13.703125 4.890625 
C 8 4.890625 7.703125 5.6875 7.203125 7.09375 
C 6.59375 8.703125 6.40625 10 5.40625 14.609375 
L 3.59375 14.609375 
L 6.5 0 
L 21.59375 0 
C 23.703125 0 23.796875 0.09375 23.796875 1.59375 
C 23.796875 8.703125 20.09375 18.015625 18.40625 22.3125 
C 15.203125 30.125 12.203125 37.75 12.203125 45.5625 
C 12.203125 60.484375 22.90625 68.390625 33.296875 68.390625 
C 44.203125 68.390625 54.5 60.1875 54.5 45.5625 
C 54.5 37.84375 51.796875 30.9375 48.09375 21.8125 
C 46.5 17.71875 42.90625 8.59375 42.90625 1.59375 
C 42.90625 0 43 0 45.09375 0 
L 60.203125 0 
z
" id="CMR17-10"/>
     </defs>
     <g transform="translate(105.367227 175.875602)scale(0.1 -0.1)">
      <use transform="scale(0.996264)" xlink:href="#CMR17-110"/>
      <use transform="translate(50.89537 0)scale(0.996264)" xlink:href="#CMR17-111"/>
      <use transform="translate(96.585847 0)scale(0.996264)" xlink:href="#CMR17-105"/>
      <use transform="translate(121.456905 0)scale(0.996264)" xlink:href="#CMR17-115"/>
      <use transform="translate(157.258243 0)scale(0.996264)" xlink:href="#CMR17-101"/>
      <use transform="translate(227.81987 0)scale(0.996264)" xlink:href="#CMR17-116"/>
      <use transform="translate(263.100638 0)scale(0.996264)" xlink:href="#CMR17-101"/>
      <use transform="translate(303.586298 0)scale(0.996264)" xlink:href="#CMR17-114"/>
      <use transform="translate(338.867066 0)scale(0.996264)" xlink:href="#CMR17-109"/>
      <use transform="translate(445.862622 0)scale(0.996264)" xlink:href="#CMMI12-13"/>
      <use transform="translate(529.555199 0)scale(0.996264)" xlink:href="#CMR17-61"/>
      <use transform="translate(628.943996 0)scale(0.996264)" xlink:href="#CMR17-49"/>
      <use transform="translate(674.634473 0)scale(0.996264)" xlink:href="#CMR17-44"/>
      <use transform="translate(729.581498 0)scale(0.996264)" xlink:href="#CMR17-10"/>
      <use transform="translate(823.765387 0)scale(0.996264)" xlink:href="#CMR17-61"/>
      <use transform="translate(923.154184 0)scale(0.996264)" xlink:href="#CMR17-49"/>
      <use transform="translate(968.844661 0)scale(0.996264)" xlink:href="#CMR17-44"/>
      <use transform="translate(1023.791686 0)scale(0.996264)" xlink:href="#CMMI12-116"/>
      <use transform="translate(1059.018017 -14.943915)scale(0.697382)" xlink:href="#CMMI12-102"/>
      <use transform="translate(1128.294181 0)scale(0.996264)" xlink:href="#CMR17-61"/>
      <use transform="translate(1227.682978 0)scale(0.996264)" xlink:href="#CMR17-49"/>
      <use transform="translate(1273.373455 0)scale(0.996264)" xlink:href="#CMR17-48"/>
      <use transform="translate(1319.063932 0)scale(0.996264)" xlink:href="#CMR17-48"/>
     </g>
    </g>
    <g id="line2d_176">
     <path d="M 77.367227 187.225998 
L 97.367227 187.225998 
" style="fill:none;stroke:#ff7f0e;stroke-linecap:square;stroke-width:1.5;"/>
    </g>
    <g id="line2d_177"/>
    <g id="text_17">
     <!-- LZ term $\gamma=1$, $\Omega = 1$, $t_f = 100$ -->
     <g transform="translate(105.367227 190.725998)scale(0.1 -0.1)">
      <use transform="scale(0.996264)" xlink:href="#CMR17-76"/>
      <use transform="translate(57.381408 0)scale(0.996264)" xlink:href="#CMR17-90"/>
      <use transform="translate(143.557545 0)scale(0.996264)" xlink:href="#CMR17-116"/>
      <use transform="translate(178.838313 0)scale(0.996264)" xlink:href="#CMR17-101"/>
      <use transform="translate(219.323974 0)scale(0.996264)" xlink:href="#CMR17-114"/>
      <use transform="translate(254.604741 0)scale(0.996264)" xlink:href="#CMR17-109"/>
      <use transform="translate(361.600298 0)scale(0.996264)" xlink:href="#CMMI12-13"/>
      <use transform="translate(445.292874 0)scale(0.996264)" xlink:href="#CMR17-61"/>
      <use transform="translate(544.681672 0)scale(0.996264)" xlink:href="#CMR17-49"/>
      <use transform="translate(590.372149 0)scale(0.996264)" xlink:href="#CMR17-44"/>
      <use transform="translate(645.319174 0)scale(0.996264)" xlink:href="#CMR17-10"/>
      <use transform="translate(739.503063 0)scale(0.996264)" xlink:href="#CMR17-61"/>
      <use transform="translate(838.89186 0)scale(0.996264)" xlink:href="#CMR17-49"/>
      <use transform="translate(884.582337 0)scale(0.996264)" xlink:href="#CMR17-44"/>
      <use transform="translate(939.529362 0)scale(0.996264)" xlink:href="#CMMI12-116"/>
      <use transform="translate(974.755692 -14.943915)scale(0.697382)" xlink:href="#CMMI12-102"/>
      <use transform="translate(1044.031856 0)scale(0.996264)" xlink:href="#CMR17-61"/>
      <use transform="translate(1143.420653 0)scale(0.996264)" xlink:href="#CMR17-49"/>
      <use transform="translate(1189.111131 0)scale(0.996264)" xlink:href="#CMR17-48"/>
      <use transform="translate(1234.801608 0)scale(0.996264)" xlink:href="#CMR17-48"/>
     </g>
    </g>
   </g>
  </g>
 </g>
 <defs>
  <clipPath id="p860e1c43df">
   <rect height="265.0032" width="357.12" x="57.6" y="41.2992"/>
  </clipPath>
 </defs>
</svg>
