<?xml version="1.0" encoding="utf-8" standalone="no"?>
<!DOCTYPE svg PUBLIC "-//W3C//DTD SVG 1.1//EN"
  "http://www.w3.org/Graphics/SVG/1.1/DTD/svg11.dtd">
<!-- Created with matplotlib (https://matplotlib.org/) -->
<svg height="241.92pt" version="1.1" viewBox="0 0 369.36 241.92" width="369.36pt" xmlns="http://www.w3.org/2000/svg" xmlns:xlink="http://www.w3.org/1999/xlink">
 <defs>
  <style type="text/css">
*{stroke-linecap:butt;stroke-linejoin:round;}
  </style>
 </defs>
 <g id="figure_1">
  <g id="patch_1">
   <path d="M 0 241.92 
L 369.36 241.92 
L 369.36 0 
L 0 0 
z
" style="fill:#ffffff;"/>
  </g>
  <g id="axes_1">
   <g id="patch_2">
    <path d="M 50.81625 201.301683 
L 349.704293 201.301683 
L 349.704293 14.259249 
L 50.81625 14.259249 
z
" style="fill:#ffffff;"/>
   </g>
   <g id="PolyCollection_1">
    <path clip-path="url(#p2d7e4104de)" d="M 52.31069 59.149081 
L 52.31069 59.624004 
L 53.43152 59.624004 
L 53.43152 55.093415 
L 56.420401 55.093415 
L 56.420401 55.260646 
L 60.156501 55.260646 
L 60.156501 59.944468 
L 63.892602 59.944468 
L 63.892602 60.275765 
L 73.232853 60.275765 
L 73.232853 66.546396 
L 88.177255 66.546396 
L 88.177255 73.436473 
L 103.121658 73.436473 
L 103.121658 80.472405 
L 118.06606 80.472405 
L 118.06606 87.582014 
L 133.010462 87.582014 
L 133.010462 98.138528 
L 147.954864 98.138528 
L 147.954864 107.237871 
L 162.899266 107.237871 
L 162.899266 114.638549 
L 177.843668 114.638549 
L 177.843668 121.94417 
L 192.78807 121.94417 
L 192.78807 129.891336 
L 207.732473 129.891336 
L 207.732473 138.037954 
L 222.676875 138.037954 
L 222.676875 143.984689 
L 237.621277 143.984689 
L 237.621277 148.785845 
L 252.565679 148.785845 
L 252.565679 148.142271 
L 267.510081 148.142271 
L 267.510081 155.303005 
L 282.454483 155.303005 
L 282.454483 167.906818 
L 297.398885 167.906818 
L 297.398885 167.983497 
L 312.343288 167.983497 
L 312.343288 169.378297 
L 327.28769 169.378297 
L 327.28769 173.668556 
L 342.232092 173.668556 
L 342.232092 185.436601 
L 349.704293 185.436601 
L 349.704293 178.038805 
L 349.704293 178.038805 
L 342.232092 178.038805 
L 342.232092 171.072714 
L 327.28769 171.072714 
L 327.28769 160.754447 
L 312.343288 160.754447 
L 312.343288 158.88614 
L 297.398885 158.88614 
L 297.398885 150.280047 
L 282.454483 150.280047 
L 282.454483 148.63819 
L 267.510081 148.63819 
L 267.510081 143.732153 
L 252.565679 143.732153 
L 252.565679 141.956314 
L 237.621277 141.956314 
L 237.621277 137.452272 
L 222.676875 137.452272 
L 222.676875 134.128131 
L 207.732473 134.128131 
L 207.732473 126.045546 
L 192.78807 126.045546 
L 192.78807 118.636265 
L 177.843668 118.636265 
L 177.843668 111.767052 
L 162.899266 111.767052 
L 162.899266 105.039225 
L 147.954864 105.039225 
L 147.954864 97.033038 
L 133.010462 97.033038 
L 133.010462 85.973599 
L 118.06606 85.973599 
L 118.06606 79.794734 
L 103.121658 79.794734 
L 103.121658 72.958458 
L 88.177255 72.958458 
L 88.177255 66.366649 
L 73.232853 66.366649 
L 73.232853 59.685466 
L 63.892602 59.685466 
L 63.892602 59.537002 
L 60.156501 59.537002 
L 60.156501 55.088457 
L 56.420401 55.088457 
L 56.420401 54.856671 
L 53.43152 54.856671 
L 53.43152 59.149081 
L 52.31069 59.149081 
z
" style="fill:#0088ff;fill-opacity:0.15;"/>
   </g>
   <g id="PolyCollection_2">
    <path clip-path="url(#p2d7e4104de)" d="M 52.31069 39.118636 
L 52.31069 39.519139 
L 53.43152 39.519139 
L 53.43152 50.32915 
L 56.420401 50.32915 
L 56.420401 63.292261 
L 60.156501 63.292261 
L 60.156501 74.392448 
L 63.892602 74.392448 
L 63.892602 83.165263 
L 73.232853 83.165263 
L 73.232853 108.49809 
L 88.177255 108.49809 
L 88.177255 130.387564 
L 103.121658 130.387564 
L 103.121658 152.528163 
L 118.06606 152.528163 
L 118.06606 158.760799 
L 133.010462 158.760799 
L 133.010462 166.351129 
L 147.954864 166.351129 
L 147.954864 160.963708 
L 162.899266 160.963708 
L 162.899266 163.053728 
L 177.843668 163.053728 
L 177.843668 167.115588 
L 192.78807 167.115588 
L 192.78807 171.102665 
L 207.732473 171.102665 
L 207.732473 171.090137 
L 222.676875 171.090137 
L 222.676875 178.765587 
L 237.621277 178.765587 
L 237.621277 172.073821 
L 252.565679 172.073821 
L 252.565679 163.204271 
L 267.510081 163.204271 
L 267.510081 170.895831 
L 282.454483 170.895831 
L 282.454483 183.374306 
L 297.398885 183.374306 
L 297.398885 181.028411 
L 312.343288 181.028411 
L 312.343288 187.504249 
L 327.28769 187.504249 
L 327.28769 185.062345 
L 342.232092 185.062345 
L 342.232092 191.691895 
L 349.704293 191.691895 
L 349.704293 174.684918 
L 349.704293 174.684918 
L 342.232092 174.684918 
L 342.232092 172.740839 
L 327.28769 172.740839 
L 327.28769 171.975737 
L 312.343288 171.975737 
L 312.343288 169.633238 
L 297.398885 169.633238 
L 297.398885 168.188702 
L 282.454483 168.188702 
L 282.454483 156.852145 
L 267.510081 156.852145 
L 267.510081 157.331478 
L 252.565679 157.331478 
L 252.565679 161.135736 
L 237.621277 161.135736 
L 237.621277 156.088637 
L 222.676875 156.088637 
L 222.676875 160.329013 
L 207.732473 160.329013 
L 207.732473 159.926046 
L 192.78807 159.926046 
L 192.78807 157.329038 
L 177.843668 157.329038 
L 177.843668 154.834256 
L 162.899266 154.834256 
L 162.899266 152.440007 
L 147.954864 152.440007 
L 147.954864 155.942514 
L 133.010462 155.942514 
L 133.010462 153.728205 
L 118.06606 153.728205 
L 118.06606 148.459048 
L 103.121658 148.459048 
L 103.121658 124.989356 
L 88.177255 124.989356 
L 88.177255 106.625633 
L 73.232853 106.625633 
L 73.232853 80.985448 
L 63.892602 80.985448 
L 63.892602 72.374795 
L 60.156501 72.374795 
L 60.156501 62.888946 
L 56.420401 62.888946 
L 56.420401 49.933789 
L 53.43152 49.933789 
L 53.43152 39.118636 
L 52.31069 39.118636 
z
" style="fill:#dd5500;fill-opacity:0.15;"/>
   </g>
   <g id="matplotlib.axis_1">
    <g id="xtick_1">
     <g id="line2d_1">
      <path clip-path="url(#p2d7e4104de)" d="M 50.81625 201.301683 
L 50.81625 14.259249 
" style="fill:none;stroke:#dddddd;stroke-linecap:square;stroke-width:0.5;"/>
     </g>
     <g id="line2d_2">
      <defs>
       <path d="M 0 0 
L 0 3.5 
" id="mc098af58b3" style="stroke:#000000;stroke-width:0.8;"/>
      </defs>
      <g>
       <use style="stroke:#000000;stroke-width:0.8;" x="50.81625" xlink:href="#mc098af58b3" y="201.301683"/>
      </g>
     </g>
     <g id="text_1">
      <!-- $\mathdefault{0.0}$ -->
      <defs>
       <path d="M 42 31.84375 
C 42 37.96875 41.90625 48.421875 37.703125 56.453125 
C 34 63.484375 28.09375 66 22.90625 66 
C 18.09375 66 12 63.78125 8.203125 56.5625 
C 4.203125 49.015625 3.796875 39.671875 3.796875 31.84375 
C 3.796875 26.109375 3.90625 17.375 7 9.734375 
C 11.296875 -0.609375 19 -2 22.90625 -2 
C 27.5 -2 34.5 -0.109375 38.59375 9.4375 
C 41.59375 16.375 42 24.5 42 31.84375 
z
M 22.90625 -0.40625 
C 16.5 -0.40625 12.703125 5.125 11.296875 12.75 
C 10.203125 18.6875 10.203125 27.328125 10.203125 32.953125 
C 10.203125 40.6875 10.203125 47.109375 11.5 53.234375 
C 13.40625 61.78125 19 64.390625 22.90625 64.390625 
C 27 64.390625 32.296875 61.671875 34.203125 53.4375 
C 35.5 47.71875 35.59375 40.984375 35.59375 32.953125 
C 35.59375 26.421875 35.59375 18.375 34.40625 12.453125 
C 32.296875 1.5 26.40625 -0.40625 22.90625 -0.40625 
z
" id="CMR17-48"/>
       <path d="M 18.40625 4.796875 
C 18.40625 7.6875 16 9.6875 13.59375 9.6875 
C 10.703125 9.6875 8.703125 7.296875 8.703125 4.890625 
C 8.703125 2 11.09375 0 13.5 0 
C 16.40625 0 18.40625 2.390625 18.40625 4.796875 
z
" id="CMMI12-58"/>
      </defs>
      <g transform="translate(44.451211 215.220182)scale(0.1 -0.1)">
       <use transform="scale(0.996264)" xlink:href="#CMR17-48"/>
       <use transform="translate(45.690477 0)scale(0.996264)" xlink:href="#CMMI12-58"/>
       <use transform="translate(72.787654 0)scale(0.996264)" xlink:href="#CMR17-48"/>
      </g>
     </g>
    </g>
    <g id="xtick_2">
     <g id="line2d_3">
      <path clip-path="url(#p2d7e4104de)" d="M 88.177255 201.301683 
L 88.177255 14.259249 
" style="fill:none;stroke:#dddddd;stroke-linecap:square;stroke-width:0.5;"/>
     </g>
     <g id="line2d_4">
      <g>
       <use style="stroke:#000000;stroke-width:0.8;" x="88.177255" xlink:href="#mc098af58b3" y="201.301683"/>
      </g>
     </g>
     <g id="text_2">
      <!-- $\mathdefault{2.5}$ -->
      <defs>
       <path d="M 41.703125 15.46875 
L 39.90625 15.46875 
C 38.90625 8.390625 38.09375 7.1875 37.703125 6.59375 
C 37.203125 5.796875 30 5.796875 28.59375 5.796875 
L 9.40625 5.796875 
C 13 9.6875 20 16.765625 28.5 24.9375 
C 34.59375 30.71875 41.703125 37.5 41.703125 47.390625 
C 41.703125 59.1875 32.296875 66 21.796875 66 
C 10.796875 66 4.09375 56.296875 4.09375 47.296875 
C 4.09375 43.390625 7 42.890625 8.203125 42.890625 
C 9.203125 42.890625 12.203125 43.484375 12.203125 46.984375 
C 12.203125 50.09375 9.59375 51 8.203125 51 
C 7.59375 51 7 50.890625 6.59375 50.6875 
C 8.5 59.1875 14.296875 63.390625 20.40625 63.390625 
C 29.09375 63.390625 34.796875 56.5 34.796875 47.390625 
C 34.796875 38.703125 29.703125 31.21875 24 24.734375 
L 4.09375 2.296875 
L 4.09375 0 
L 39.296875 0 
z
" id="CMR17-50"/>
       <path d="M 11.40625 58.59375 
C 12.40625 58.1875 16.5 56.890625 20.703125 56.890625 
C 30 56.890625 35.09375 61.890625 38 64.6875 
C 38 65.484375 38 66 37.40625 66 
C 37.296875 66 37.09375 66 36.296875 65.59375 
C 32.796875 64.09375 28.703125 63 23.703125 63 
C 20.703125 63 16.203125 63.359375 11.296875 65.484375 
C 10.203125 66 10 66 9.90625 66 
C 9.40625 66 9.296875 65.890625 9.296875 63.90625 
L 9.296875 34.859375 
C 9.296875 33.015625 9.296875 32.5 10.296875 32.5 
C 10.796875 32.5 11 32.703125 11.5 33.421875 
C 14.703125 38.046875 19.09375 40 24.09375 40 
C 27.59375 40 35.09375 37.734375 35.09375 20.203125 
C 35.09375 16.984375 35.09375 11.1875 32.09375 6.59375 
C 29.59375 2.484375 25.703125 0.390625 21.40625 0.390625 
C 14.796875 0.390625 8.09375 4.984375 6.296875 12.6875 
C 6.703125 12.59375 7.5 12.390625 7.90625 12.390625 
C 9.203125 12.390625 11.703125 13.09375 11.703125 16.1875 
C 11.703125 18.890625 9.796875 20 7.90625 20 
C 5.59375 20 4.09375 18.59375 4.09375 15.796875 
C 4.09375 7.09375 11 -2 21.59375 -2 
C 31.90625 -2 41.703125 6.890625 41.703125 19.796875 
C 41.703125 32.09375 33.90625 41.59375 24.203125 41.59375 
C 19.09375 41.59375 14.796875 39.6875 11.40625 36 
z
" id="CMR17-53"/>
      </defs>
      <g transform="translate(81.812216 215.220182)scale(0.1 -0.1)">
       <use transform="scale(0.996264)" xlink:href="#CMR17-50"/>
       <use transform="translate(45.690477 0)scale(0.996264)" xlink:href="#CMMI12-58"/>
       <use transform="translate(72.787654 0)scale(0.996264)" xlink:href="#CMR17-53"/>
      </g>
     </g>
    </g>
    <g id="xtick_3">
     <g id="line2d_5">
      <path clip-path="url(#p2d7e4104de)" d="M 125.538261 201.301683 
L 125.538261 14.259249 
" style="fill:none;stroke:#dddddd;stroke-linecap:square;stroke-width:0.5;"/>
     </g>
     <g id="line2d_6">
      <g>
       <use style="stroke:#000000;stroke-width:0.8;" x="125.538261" xlink:href="#mc098af58b3" y="201.301683"/>
      </g>
     </g>
     <g id="text_3">
      <!-- $\mathdefault{5.0}$ -->
      <g transform="translate(119.173221 215.220182)scale(0.1 -0.1)">
       <use transform="scale(0.996264)" xlink:href="#CMR17-53"/>
       <use transform="translate(45.690477 0)scale(0.996264)" xlink:href="#CMMI12-58"/>
       <use transform="translate(72.787654 0)scale(0.996264)" xlink:href="#CMR17-48"/>
      </g>
     </g>
    </g>
    <g id="xtick_4">
     <g id="line2d_7">
      <path clip-path="url(#p2d7e4104de)" d="M 162.899266 201.301683 
L 162.899266 14.259249 
" style="fill:none;stroke:#dddddd;stroke-linecap:square;stroke-width:0.5;"/>
     </g>
     <g id="line2d_8">
      <g>
       <use style="stroke:#000000;stroke-width:0.8;" x="162.899266" xlink:href="#mc098af58b3" y="201.301683"/>
      </g>
     </g>
     <g id="text_4">
      <!-- $\mathdefault{7.5}$ -->
      <defs>
       <path d="M 45.09375 61.796875 
L 45.09375 64 
L 21.59375 64 
C 9.90625 64 9.703125 65.09375 9.296875 67 
L 7.5 67 
L 4.59375 48.5 
L 6.40625 48.5 
C 6.703125 50.40625 7.40625 55.5 8.59375 57.390625 
C 9.203125 58.1875 16.59375 58.1875 18.296875 58.1875 
L 40.296875 58.1875 
L 29.203125 41.71875 
C 21.796875 30.640625 16.703125 15.671875 16.703125 2.59375 
C 16.703125 1.390625 16.703125 -2 20.296875 -2 
C 23.90625 -2 23.90625 1.390625 23.90625 2.6875 
L 23.90625 7.28125 
C 23.90625 23.65625 26.703125 34.4375 31.296875 41.3125 
z
" id="CMR17-55"/>
      </defs>
      <g transform="translate(156.534227 215.220182)scale(0.1 -0.1)">
       <use transform="scale(0.996264)" xlink:href="#CMR17-55"/>
       <use transform="translate(45.690477 0)scale(0.996264)" xlink:href="#CMMI12-58"/>
       <use transform="translate(72.787654 0)scale(0.996264)" xlink:href="#CMR17-53"/>
      </g>
     </g>
    </g>
    <g id="xtick_5">
     <g id="line2d_9">
      <path clip-path="url(#p2d7e4104de)" d="M 200.260271 201.301683 
L 200.260271 14.259249 
" style="fill:none;stroke:#dddddd;stroke-linecap:square;stroke-width:0.5;"/>
     </g>
     <g id="line2d_10">
      <g>
       <use style="stroke:#000000;stroke-width:0.8;" x="200.260271" xlink:href="#mc098af58b3" y="201.301683"/>
      </g>
     </g>
     <g id="text_5">
      <!-- $\mathdefault{10.0}$ -->
      <defs>
       <path d="M 26.59375 63.796875 
C 26.59375 65.890625 26.5 66 25.09375 66 
C 21.203125 61.359375 15.296875 59.890625 9.703125 59.6875 
C 9.40625 59.6875 8.90625 59.6875 8.796875 59.5 
C 8.703125 59.296875 8.703125 59.09375 8.703125 57 
C 11.796875 57 17 57.59375 21 59.984375 
L 21 7.296875 
C 21 3.796875 20.796875 2.59375 12.203125 2.59375 
L 9.203125 2.59375 
L 9.203125 0 
C 14 0.09375 19 0.1875 23.796875 0.1875 
C 28.59375 0.1875 33.59375 0.09375 38.40625 0 
L 38.40625 2.59375 
L 35.40625 2.59375 
C 26.796875 2.59375 26.59375 3.6875 26.59375 7.296875 
z
" id="CMR17-49"/>
      </defs>
      <g transform="translate(191.404564 215.220182)scale(0.1 -0.1)">
       <use transform="scale(0.996264)" xlink:href="#CMR17-49"/>
       <use transform="translate(45.690477 0)scale(0.996264)" xlink:href="#CMR17-48"/>
       <use transform="translate(91.380954 0)scale(0.996264)" xlink:href="#CMMI12-58"/>
       <use transform="translate(118.478131 0)scale(0.996264)" xlink:href="#CMR17-48"/>
      </g>
     </g>
    </g>
    <g id="xtick_6">
     <g id="line2d_11">
      <path clip-path="url(#p2d7e4104de)" d="M 237.621277 201.301683 
L 237.621277 14.259249 
" style="fill:none;stroke:#dddddd;stroke-linecap:square;stroke-width:0.5;"/>
     </g>
     <g id="line2d_12">
      <g>
       <use style="stroke:#000000;stroke-width:0.8;" x="237.621277" xlink:href="#mc098af58b3" y="201.301683"/>
      </g>
     </g>
     <g id="text_6">
      <!-- $\mathdefault{12.5}$ -->
      <g transform="translate(228.76557 215.220182)scale(0.1 -0.1)">
       <use transform="scale(0.996264)" xlink:href="#CMR17-49"/>
       <use transform="translate(45.690477 0)scale(0.996264)" xlink:href="#CMR17-50"/>
       <use transform="translate(91.380954 0)scale(0.996264)" xlink:href="#CMMI12-58"/>
       <use transform="translate(118.478131 0)scale(0.996264)" xlink:href="#CMR17-53"/>
      </g>
     </g>
    </g>
    <g id="xtick_7">
     <g id="line2d_13">
      <path clip-path="url(#p2d7e4104de)" d="M 274.982282 201.301683 
L 274.982282 14.259249 
" style="fill:none;stroke:#dddddd;stroke-linecap:square;stroke-width:0.5;"/>
     </g>
     <g id="line2d_14">
      <g>
       <use style="stroke:#000000;stroke-width:0.8;" x="274.982282" xlink:href="#mc098af58b3" y="201.301683"/>
      </g>
     </g>
     <g id="text_7">
      <!-- $\mathdefault{15.0}$ -->
      <g transform="translate(266.126575 215.220182)scale(0.1 -0.1)">
       <use transform="scale(0.996264)" xlink:href="#CMR17-49"/>
       <use transform="translate(45.690477 0)scale(0.996264)" xlink:href="#CMR17-53"/>
       <use transform="translate(91.380954 0)scale(0.996264)" xlink:href="#CMMI12-58"/>
       <use transform="translate(118.478131 0)scale(0.996264)" xlink:href="#CMR17-48"/>
      </g>
     </g>
    </g>
    <g id="xtick_8">
     <g id="line2d_15">
      <path clip-path="url(#p2d7e4104de)" d="M 312.343288 201.301683 
L 312.343288 14.259249 
" style="fill:none;stroke:#dddddd;stroke-linecap:square;stroke-width:0.5;"/>
     </g>
     <g id="line2d_16">
      <g>
       <use style="stroke:#000000;stroke-width:0.8;" x="312.343288" xlink:href="#mc098af58b3" y="201.301683"/>
      </g>
     </g>
     <g id="text_8">
      <!-- $\mathdefault{17.5}$ -->
      <g transform="translate(303.48758 215.220182)scale(0.1 -0.1)">
       <use transform="scale(0.996264)" xlink:href="#CMR17-49"/>
       <use transform="translate(45.690477 0)scale(0.996264)" xlink:href="#CMR17-55"/>
       <use transform="translate(91.380954 0)scale(0.996264)" xlink:href="#CMMI12-58"/>
       <use transform="translate(118.478131 0)scale(0.996264)" xlink:href="#CMR17-53"/>
      </g>
     </g>
    </g>
    <g id="xtick_9">
     <g id="line2d_17">
      <path clip-path="url(#p2d7e4104de)" d="M 349.704293 201.301683 
L 349.704293 14.259249 
" style="fill:none;stroke:#dddddd;stroke-linecap:square;stroke-width:0.5;"/>
     </g>
     <g id="line2d_18">
      <g>
       <use style="stroke:#000000;stroke-width:0.8;" x="349.704293" xlink:href="#mc098af58b3" y="201.301683"/>
      </g>
     </g>
     <g id="text_9">
      <!-- $\mathdefault{20.0}$ -->
      <g transform="translate(340.848586 215.220182)scale(0.1 -0.1)">
       <use transform="scale(0.996264)" xlink:href="#CMR17-50"/>
       <use transform="translate(45.690477 0)scale(0.996264)" xlink:href="#CMR17-48"/>
       <use transform="translate(91.380954 0)scale(0.996264)" xlink:href="#CMMI12-58"/>
       <use transform="translate(118.478131 0)scale(0.996264)" xlink:href="#CMR17-48"/>
      </g>
     </g>
    </g>
    <g id="text_10">
     <!-- time constant $\tau$ [ns] -->
     <defs>
      <path d="M 15.09375 40.390625 
L 29.09375 40.390625 
L 29.09375 43 
L 15.09375 43 
L 15.09375 62 
L 13.296875 62 
C 13.09375 51.4375 9.59375 42.1875 1.09375 41.984375 
L 1.09375 40.390625 
L 9.796875 40.390625 
L 9.796875 12.15625 
C 9.796875 10.234375 9.796875 -1 21.40625 -1 
C 27.296875 -1 30.703125 4.8125 30.703125 12.25 
L 30.703125 17.984375 
L 28.90625 17.984375 
L 28.90625 12.34375 
C 28.90625 5.421875 26.203125 0.796875 22 0.796875 
C 19.09375 0.796875 15.09375 2.796875 15.09375 11.953125 
z
" id="CMR17-116"/>
      <path d="M 15.5 61.890625 
C 15.5 64.09375 13.703125 66 11.40625 66 
C 9.203125 66 7.296875 64.1875 7.296875 61.890625 
C 7.296875 59.6875 9.09375 57.796875 11.40625 57.796875 
C 13.59375 57.796875 15.5 59.59375 15.5 61.890625 
z
M 3.796875 42.890625 
L 3.796875 40.296875 
C 9.40625 40.296875 10.203125 39.6875 10.203125 34.859375 
L 10.203125 6.921875 
C 10.203125 3.09375 9.796875 2.59375 3.40625 2.59375 
L 3.40625 0 
C 5.796875 0.1875 10.09375 0.1875 12.59375 0.1875 
C 15 0.1875 19.09375 0.1875 21.40625 0 
L 21.40625 2.59375 
C 15.5 2.59375 15.296875 3.203125 15.296875 6.8125 
L 15.296875 44 
z
" id="CMR17-105"/>
      <path d="M 67.59375 30.53125 
C 67.59375 35.5625 66.703125 44 54.796875 44 
C 48 44 43.296875 39.375 41.5 33.953125 
L 41.40625 33.953125 
C 40.203125 42.1875 34.296875 44 28.703125 44 
C 20.796875 44 16.703125 37.875 15.203125 33.84375 
L 15.09375 33.84375 
L 15.09375 44 
L 3.296875 42.890625 
L 3.296875 40.28125 
C 9.203125 40.28125 10.09375 39.6875 10.09375 34.859375 
L 10.09375 6.921875 
C 10.09375 3.09375 9.703125 2.59375 3.296875 2.59375 
L 3.296875 0 
C 5.703125 0.1875 10.09375 0.1875 12.703125 0.1875 
C 15.296875 0.1875 19.796875 0.1875 22.203125 0 
L 22.203125 2.59375 
C 15.796875 2.59375 15.40625 3 15.40625 6.921875 
L 15.40625 26.21875 
C 15.40625 35.453125 21 42.390625 28 42.390625 
C 35.40625 42.390625 36.203125 35.765625 36.203125 30.9375 
L 36.203125 6.921875 
C 36.203125 3.09375 35.796875 2.59375 29.40625 2.59375 
L 29.40625 0 
C 31.796875 0.1875 36.203125 0.1875 38.796875 0.1875 
C 41.40625 0.1875 45.90625 0.1875 48.296875 0 
L 48.296875 2.59375 
C 41.90625 2.59375 41.5 3 41.5 6.921875 
L 41.5 26.21875 
C 41.5 35.453125 47.09375 42.390625 54.09375 42.390625 
C 61.5 42.390625 62.296875 35.765625 62.296875 30.9375 
L 62.296875 6.921875 
C 62.296875 3.09375 61.90625 2.59375 55.5 2.59375 
L 55.5 0 
C 57.90625 0.1875 62.296875 0.1875 64.90625 0.1875 
C 67.5 0.1875 72 0.1875 74.40625 0 
L 74.40625 2.59375 
C 68 2.59375 67.59375 3 67.59375 6.921875 
z
" id="CMR17-109"/>
      <path d="M 38.09375 23.484375 
C 38.5 23.890625 38.5 24.09375 38.5 25.09375 
C 38.5 35.171875 33.09375 44 21.703125 44 
C 11.09375 44 2.703125 33.984375 2.703125 21.78125 
C 2.703125 8.65625 12.203125 -1 22.796875 -1 
C 34 -1 38.40625 9.671875 38.40625 11.796875 
C 38.40625 12.5 37.796875 12.5 37.59375 12.5 
C 36.90625 12.5 36.796875 12.296875 36.40625 11.078125 
C 34.203125 4.21875 28.703125 0.796875 23.5 0.796875 
C 19.203125 0.796875 14.90625 3.21875 12.203125 7.65625 
C 9.09375 12.796875 9.09375 18.75 9.09375 23.484375 
z
M 9.203125 25 
C 9.90625 39.234375 17.59375 42.390625 21.59375 42.390625 
C 28.40625 42.390625 33 36.0625 33.09375 25 
z
" id="CMR17-101"/>
      <path d="M 34.90625 35 
C 33 35 30.203125 35 30.203125 31.484375 
C 30.203125 28.6875 32.5 27.890625 33.796875 27.890625 
C 34.5 27.890625 37.40625 28.1875 37.40625 31.6875 
C 37.40625 38.6875 30.59375 44 22.90625 44 
C 12.296875 44 3.296875 34.390625 3.296875 21.546875 
C 3.296875 8.140625 12.703125 -1 22.90625 -1 
C 35.296875 -1 38.40625 10.5625 38.40625 11.671875 
C 38.40625 12.078125 38.296875 12.375 37.59375 12.375 
C 36.90625 12.375 36.796875 12.28125 36.40625 10.96875 
C 33.796875 2.8125 28.09375 0.796875 23.796875 0.796875 
C 17.40625 0.796875 9.703125 6.734375 9.703125 21.640625 
C 9.703125 36.84375 17.09375 42.1875 23 42.1875 
C 26.90625 42.1875 32.703125 40.34375 34.90625 35 
z
" id="CMR17-99"/>
      <path d="M 43.09375 21.1875 
C 43.09375 34 33.796875 44 22.90625 44 
C 12 44 2.703125 34 2.703125 21.1875 
C 2.703125 8.59375 12 -1 22.90625 -1 
C 33.796875 -1 43.09375 8.59375 43.09375 21.1875 
z
M 22.90625 0.796875 
C 18.203125 0.796875 14.203125 3.59375 11.90625 7.5 
C 9.40625 12 9.09375 17.59375 9.09375 22 
C 9.09375 26.1875 9.296875 31.390625 11.90625 35.890625 
C 13.90625 39.1875 17.796875 42.390625 22.90625 42.390625 
C 27.40625 42.390625 31.203125 39.890625 33.59375 36.390625 
C 36.703125 31.6875 36.703125 25.09375 36.703125 22 
C 36.703125 18.09375 36.5 12.09375 33.796875 7.296875 
C 31 2.6875 26.703125 0.796875 22.90625 0.796875 
z
" id="CMR17-111"/>
      <path d="M 41.5 30.53125 
C 41.5 35.65625 40.5 44 28.703125 44 
C 20.796875 44 16.703125 37.875 15.203125 33.84375 
L 15.09375 33.84375 
L 15.09375 44 
L 3.296875 42.890625 
L 3.296875 40.28125 
C 9.203125 40.28125 10.09375 39.6875 10.09375 34.859375 
L 10.09375 6.921875 
C 10.09375 3.09375 9.703125 2.59375 3.296875 2.59375 
L 3.296875 0 
C 5.703125 0.1875 10.09375 0.1875 12.703125 0.1875 
C 15.296875 0.1875 19.796875 0.1875 22.203125 0 
L 22.203125 2.59375 
C 15.796875 2.59375 15.40625 3 15.40625 6.921875 
L 15.40625 26.21875 
C 15.40625 35.453125 21 42.390625 28 42.390625 
C 35.40625 42.390625 36.203125 35.765625 36.203125 30.9375 
L 36.203125 6.921875 
C 36.203125 3.09375 35.796875 2.59375 29.40625 2.59375 
L 29.40625 0 
C 31.796875 0.1875 36.203125 0.1875 38.796875 0.1875 
C 41.40625 0.1875 45.90625 0.1875 48.296875 0 
L 48.296875 2.59375 
C 41.90625 2.59375 41.5 3 41.5 6.921875 
z
" id="CMR17-110"/>
      <path d="M 30.90625 42 
C 30.90625 43.796875 30.796875 43.890625 30.203125 43.890625 
C 29.796875 43.890625 29.703125 43.796875 28.5 42.296875 
C 28.203125 41.890625 27.296875 40.890625 27 40.5 
C 23.796875 43.890625 19.296875 44 17.59375 44 
C 6.5 44 2.5 38.1875 2.5 32.390625 
C 2.5 23.390625 12.703125 21.296875 15.59375 20.6875 
C 21.90625 19.390625 24.09375 19 26.203125 17.1875 
C 27.5 16 29.703125 13.796875 29.703125 10.1875 
C 29.703125 6 27.296875 0.59375 18.09375 0.59375 
C 9.40625 0.59375 6.296875 7.1875 4.5 16 
C 4.203125 17.390625 4.203125 17.5 3.40625 17.5 
C 2.59375 17.5 2.5 17.390625 2.5 15.390625 
L 2.5 1 
C 2.5 -0.8125 2.59375 -0.90625 3.203125 -0.90625 
C 3.703125 -0.90625 3.796875 -0.8125 4.296875 0 
C 4.90625 0.890625 6.40625 3.296875 7 4.296875 
C 9 1.59375 12.5 -1 18.09375 -1 
C 28 -1 33.296875 4.390625 33.296875 12.1875 
C 33.296875 17.296875 30.59375 20 29.296875 21.1875 
C 26.296875 24.296875 22.796875 25 18.59375 25.796875 
C 13.09375 27 6.09375 28.390625 6.09375 34.5 
C 6.09375 37.09375 7.5 42.59375 17.59375 42.59375 
C 28.296875 42.59375 28.90625 32.59375 29.09375 29.390625 
C 29.203125 28.890625 29.703125 28.796875 30 28.796875 
C 30.90625 28.796875 30.90625 29.09375 30.90625 30.796875 
z
" id="CMR17-115"/>
      <path d="M 36 25.875 
C 36 32 36 35.546875 31.796875 39.59375 
C 28.09375 42.984375 23.796875 44 20.40625 44 
C 12.5 44 6.796875 37.625 6.796875 30.890625 
C 6.796875 27.1875 9.796875 27 10.40625 27 
C 11.703125 27 14 27.796875 14 30.59375 
C 14 33.09375 12.09375 34.1875 10.40625 34.1875 
C 10 34.1875 9.5 34.09375 9.203125 34 
C 11.296875 40.53125 16.703125 42.390625 20.203125 42.390625 
C 25.203125 42.390625 30.703125 37.828125 30.703125 29.296875 
L 30.703125 25.5 
C 24.796875 25.296875 17.703125 24.5 12.09375 21.453125 
C 5.796875 17.921875 4 12.84375 4 9 
C 4 1.203125 13 -1 18.296875 -1 
C 23.796875 -1 28.90625 2.109375 31.09375 7.890625 
C 31.296875 3.421875 34.09375 -0.609375 38.5 -0.609375 
C 40.59375 -0.609375 45.90625 0.796875 45.90625 8.796875 
L 45.90625 14.46875 
L 44.09375 14.46875 
L 44.09375 8.703125 
C 44.09375 2.515625 41.40625 1.703125 40.09375 1.703125 
C 36 1.703125 36 6.96875 36 11.4375 
z
M 30.703125 13.859375 
C 30.703125 5.046875 24.5 0.59375 19 0.59375 
C 14 0.59375 10.09375 4.34375 10.09375 9 
C 10.09375 12.046875 11.40625 17.40625 17.203125 20.65625 
C 22 23.390625 27.5 23.796875 30.703125 24 
z
" id="CMR17-97"/>
      <path d="M 28.703125 37.59375 
L 45.296875 37.59375 
C 46.59375 37.59375 49.90625 37.59375 49.90625 40.796875 
C 49.90625 43 48 43 46.203125 43 
L 18.703125 43 
C 16.40625 43 13 43 8.40625 38.09375 
C 5.796875 35.203125 2.59375 29.9375 2.59375 29.34375 
C 2.59375 28.734375 3.09375 28.546875 3.703125 28.546875 
C 4.40625 28.546875 4.5 28.84375 5 29.4375 
C 10.203125 37.59375 15.40625 37.59375 17.90625 37.59375 
L 26.203125 37.59375 
L 15.796875 3.484375 
C 15.296875 1.984375 15.296875 1.78125 15.296875 1.484375 
C 15.296875 0.390625 16 -1 18 -1 
C 21.09375 -1 21.59375 1.6875 21.90625 3.1875 
z
" id="CMMI12-28"/>
      <path d="M 23.5 -25 
L 23.5 -21.5 
L 14.09375 -21.5 
L 14.09375 71.484375 
L 23.5 71.484375 
L 23.5 75 
L 10.59375 75 
L 10.59375 -25 
z
" id="CMR17-91"/>
      <path d="M 14.296875 75 
L 1.40625 75 
L 1.40625 71.484375 
L 10.796875 71.484375 
L 10.796875 -21.5 
L 1.40625 -21.5 
L 1.40625 -25 
L 14.296875 -25 
z
" id="CMR17-93"/>
     </defs>
     <g transform="translate(156.920986 228.62934)scale(0.1 -0.1)">
      <use transform="scale(0.996264)" xlink:href="#CMR17-116"/>
      <use transform="translate(35.280768 0)scale(0.996264)" xlink:href="#CMR17-105"/>
      <use transform="translate(60.151826 0)scale(0.996264)" xlink:href="#CMR17-109"/>
      <use transform="translate(137.071416 0)scale(0.996264)" xlink:href="#CMR17-101"/>
      <use transform="translate(207.633043 0)scale(0.996264)" xlink:href="#CMR17-99"/>
      <use transform="translate(248.118703 0)scale(0.996264)" xlink:href="#CMR17-111"/>
      <use transform="translate(293.809181 0)scale(0.996264)" xlink:href="#CMR17-110"/>
      <use transform="translate(344.70455 0)scale(0.996264)" xlink:href="#CMR17-115"/>
      <use transform="translate(380.505888 0)scale(0.996264)" xlink:href="#CMR17-116"/>
      <use transform="translate(415.786656 0)scale(0.996264)" xlink:href="#CMR17-97"/>
      <use transform="translate(461.477133 0)scale(0.996264)" xlink:href="#CMR17-110"/>
      <use transform="translate(509.770049 0)scale(0.996264)" xlink:href="#CMR17-116"/>
      <use transform="translate(575.126783 0)scale(0.996264)" xlink:href="#CMMI12-28"/>
      <use transform="translate(658.693915 0)scale(0.996264)" xlink:href="#CMR17-91"/>
      <use transform="translate(683.564973 0)scale(0.996264)" xlink:href="#CMR17-110"/>
      <use transform="translate(734.460343 0)scale(0.996264)" xlink:href="#CMR17-115"/>
      <use transform="translate(770.26168 0)scale(0.996264)" xlink:href="#CMR17-93"/>
     </g>
    </g>
   </g>
   <g id="matplotlib.axis_2">
    <g id="ytick_1">
     <g id="line2d_19">
      <path clip-path="url(#p2d7e4104de)" d="M 50.81625 201.301683 
L 349.704293 201.301683 
" style="fill:none;stroke:#dddddd;stroke-linecap:square;stroke-width:0.5;"/>
     </g>
     <g id="line2d_20">
      <defs>
       <path d="M 0 0 
L -3.5 0 
" id="m21ae3dbf16" style="stroke:#000000;stroke-width:0.8;"/>
      </defs>
      <g>
       <use style="stroke:#000000;stroke-width:0.8;" x="50.81625" xlink:href="#m21ae3dbf16" y="201.301683"/>
      </g>
     </g>
     <g id="text_11">
      <!-- $\mathdefault{10^{-5}}$ -->
      <defs>
       <path d="M 65.90625 23 
C 67.59375 23 69.40625 23 69.40625 25 
C 69.40625 27 67.59375 27 65.90625 27 
L 11.796875 27 
C 10.09375 27 8.296875 27 8.296875 25 
C 8.296875 23 10.09375 23 11.796875 23 
z
" id="CMSY10-0"/>
      </defs>
      <g transform="translate(23.655677 204.760932)scale(0.1 -0.1)">
       <use transform="scale(0.996264)" xlink:href="#CMR17-49"/>
       <use transform="translate(45.690477 0)scale(0.996264)" xlink:href="#CMR17-48"/>
       <use transform="translate(91.380954 36.153639)scale(0.697382)" xlink:href="#CMSY10-0"/>
       <use transform="translate(145.621947 36.153639)scale(0.697382)" xlink:href="#CMR17-53"/>
      </g>
     </g>
    </g>
    <g id="ytick_2">
     <g id="line2d_21">
      <path clip-path="url(#p2d7e4104de)" d="M 50.81625 163.893196 
L 349.704293 163.893196 
" style="fill:none;stroke:#dddddd;stroke-linecap:square;stroke-width:0.5;"/>
     </g>
     <g id="line2d_22">
      <g>
       <use style="stroke:#000000;stroke-width:0.8;" x="50.81625" xlink:href="#m21ae3dbf16" y="163.893196"/>
      </g>
     </g>
     <g id="text_12">
      <!-- $\mathdefault{10^{-4}}$ -->
      <defs>
       <path d="M 33.59375 64.796875 
C 33.59375 66.890625 33.5 67 31.703125 67 
L 2 19.59375 
L 2 17 
L 27.796875 17 
L 27.796875 7.1875 
C 27.796875 3.59375 27.59375 2.59375 20.59375 2.59375 
L 18.703125 2.59375 
L 18.703125 0 
C 21.90625 0.1875 27.296875 0.1875 30.703125 0.1875 
C 34.09375 0.1875 39.5 0.1875 42.703125 0 
L 42.703125 2.59375 
L 40.796875 2.59375 
C 33.796875 2.59375 33.59375 3.59375 33.59375 7.1875 
L 33.59375 17 
L 43.796875 17 
L 43.796875 19.59375 
L 33.59375 19.59375 
z
M 28.09375 58.171875 
L 28.09375 19.59375 
L 4 19.59375 
z
" id="CMR17-52"/>
      </defs>
      <g transform="translate(23.655677 167.352446)scale(0.1 -0.1)">
       <use transform="scale(0.996264)" xlink:href="#CMR17-49"/>
       <use transform="translate(45.690477 0)scale(0.996264)" xlink:href="#CMR17-48"/>
       <use transform="translate(91.380954 36.153639)scale(0.697382)" xlink:href="#CMSY10-0"/>
       <use transform="translate(145.621947 36.153639)scale(0.697382)" xlink:href="#CMR17-52"/>
      </g>
     </g>
    </g>
    <g id="ytick_3">
     <g id="line2d_23">
      <path clip-path="url(#p2d7e4104de)" d="M 50.81625 126.48471 
L 349.704293 126.48471 
" style="fill:none;stroke:#dddddd;stroke-linecap:square;stroke-width:0.5;"/>
     </g>
     <g id="line2d_24">
      <g>
       <use style="stroke:#000000;stroke-width:0.8;" x="50.81625" xlink:href="#m21ae3dbf16" y="126.48471"/>
      </g>
     </g>
     <g id="text_13">
      <!-- $\mathdefault{10^{-3}}$ -->
      <defs>
       <path d="M 22.09375 34 
C 31 34 34.90625 26.140625 34.90625 17.09375 
C 34.90625 5.03125 28.5 0.390625 22.703125 0.390625 
C 17.40625 0.390625 8.796875 3.015625 6.09375 10.796875 
C 6.59375 10.59375 7.09375 10.59375 7.59375 10.59375 
C 10 10.59375 11.796875 12.1875 11.796875 14.796875 
C 11.796875 17.6875 9.59375 19 7.59375 19 
C 5.90625 19 3.296875 18.1875 3.296875 14.484375 
C 3.296875 5.234375 12.296875 -2 22.90625 -2 
C 34 -2 42.5 6.75 42.5 16.984375 
C 42.5 26.84375 34.5 34 25 35.09375 
C 32.59375 36.671875 39.90625 43.375 39.90625 52.390625 
C 39.90625 60.25 32 66 23 66 
C 13.90625 66 5.90625 60.34375 5.90625 52.296875 
C 5.90625 48.796875 8.5 48.1875 9.796875 48.1875 
C 11.90625 48.1875 13.703125 49.484375 13.703125 52.09375 
C 13.703125 54.6875 11.90625 56 9.796875 56 
C 9.40625 56 8.90625 56 8.5 55.796875 
C 11.40625 62.484375 19.296875 63.6875 22.796875 63.6875 
C 26.296875 63.6875 32.90625 61.96875 32.90625 52.296875 
C 32.90625 49.484375 32.5 44.546875 29.09375 40.21875 
C 26.09375 36.390625 22.703125 36.1875 19.40625 35.890625 
C 18.90625 35.890625 16.59375 35.6875 16.203125 35.6875 
C 15.5 35.59375 15.09375 35.5 15.09375 34.796875 
C 15.09375 34.09375 15.203125 34 17.203125 34 
z
" id="CMR17-51"/>
      </defs>
      <g transform="translate(23.655677 129.943959)scale(0.1 -0.1)">
       <use transform="scale(0.996264)" xlink:href="#CMR17-49"/>
       <use transform="translate(45.690477 0)scale(0.996264)" xlink:href="#CMR17-48"/>
       <use transform="translate(91.380954 36.153639)scale(0.697382)" xlink:href="#CMSY10-0"/>
       <use transform="translate(145.621947 36.153639)scale(0.697382)" xlink:href="#CMR17-51"/>
      </g>
     </g>
    </g>
    <g id="ytick_4">
     <g id="line2d_25">
      <path clip-path="url(#p2d7e4104de)" d="M 50.81625 89.076223 
L 349.704293 89.076223 
" style="fill:none;stroke:#dddddd;stroke-linecap:square;stroke-width:0.5;"/>
     </g>
     <g id="line2d_26">
      <g>
       <use style="stroke:#000000;stroke-width:0.8;" x="50.81625" xlink:href="#m21ae3dbf16" y="89.076223"/>
      </g>
     </g>
     <g id="text_14">
      <!-- $\mathdefault{10^{-2}}$ -->
      <g transform="translate(23.655677 92.535472)scale(0.1 -0.1)">
       <use transform="scale(0.996264)" xlink:href="#CMR17-49"/>
       <use transform="translate(45.690477 0)scale(0.996264)" xlink:href="#CMR17-48"/>
       <use transform="translate(91.380954 36.153639)scale(0.697382)" xlink:href="#CMSY10-0"/>
       <use transform="translate(145.621947 36.153639)scale(0.697382)" xlink:href="#CMR17-50"/>
      </g>
     </g>
    </g>
    <g id="ytick_5">
     <g id="line2d_27">
      <path clip-path="url(#p2d7e4104de)" d="M 50.81625 51.667736 
L 349.704293 51.667736 
" style="fill:none;stroke:#dddddd;stroke-linecap:square;stroke-width:0.5;"/>
     </g>
     <g id="line2d_28">
      <g>
       <use style="stroke:#000000;stroke-width:0.8;" x="50.81625" xlink:href="#m21ae3dbf16" y="51.667736"/>
      </g>
     </g>
     <g id="text_15">
      <!-- $\mathdefault{10^{-1}}$ -->
      <g transform="translate(23.655677 55.126985)scale(0.1 -0.1)">
       <use transform="scale(0.996264)" xlink:href="#CMR17-49"/>
       <use transform="translate(45.690477 0)scale(0.996264)" xlink:href="#CMR17-48"/>
       <use transform="translate(91.380954 36.153639)scale(0.697382)" xlink:href="#CMSY10-0"/>
       <use transform="translate(145.621947 36.153639)scale(0.697382)" xlink:href="#CMR17-49"/>
      </g>
     </g>
    </g>
    <g id="ytick_6">
     <g id="line2d_29">
      <path clip-path="url(#p2d7e4104de)" d="M 50.81625 14.259249 
L 349.704293 14.259249 
" style="fill:none;stroke:#dddddd;stroke-linecap:square;stroke-width:0.5;"/>
     </g>
     <g id="line2d_30">
      <g>
       <use style="stroke:#000000;stroke-width:0.8;" x="50.81625" xlink:href="#m21ae3dbf16" y="14.259249"/>
      </g>
     </g>
     <g id="text_16">
      <!-- $\mathdefault{10^{0}}$ -->
      <g transform="translate(29.882342 17.718498)scale(0.1 -0.1)">
       <use transform="scale(0.996264)" xlink:href="#CMR17-49"/>
       <use transform="translate(45.690477 0)scale(0.996264)" xlink:href="#CMR17-48"/>
       <use transform="translate(91.380954 36.153639)scale(0.697382)" xlink:href="#CMR17-48"/>
      </g>
     </g>
    </g>
    <g id="ytick_7">
     <g id="line2d_31">
      <path clip-path="url(#p2d7e4104de)" d="M 50.81625 190.040607 
L 349.704293 190.040607 
" style="fill:none;stroke:#dddddd;stroke-linecap:square;stroke-width:0.5;"/>
     </g>
     <g id="line2d_32">
      <defs>
       <path d="M 0 0 
L -2 0 
" id="m7fb3774bda" style="stroke:#000000;stroke-width:0.6;"/>
      </defs>
      <g>
       <use style="stroke:#000000;stroke-width:0.6;" x="50.81625" xlink:href="#m7fb3774bda" y="190.040607"/>
      </g>
     </g>
    </g>
    <g id="ytick_8">
     <g id="line2d_33">
      <path clip-path="url(#p2d7e4104de)" d="M 50.81625 183.453299 
L 349.704293 183.453299 
" style="fill:none;stroke:#dddddd;stroke-linecap:square;stroke-width:0.5;"/>
     </g>
     <g id="line2d_34">
      <g>
       <use style="stroke:#000000;stroke-width:0.6;" x="50.81625" xlink:href="#m7fb3774bda" y="183.453299"/>
      </g>
     </g>
    </g>
    <g id="ytick_9">
     <g id="line2d_35">
      <path clip-path="url(#p2d7e4104de)" d="M 50.81625 178.77953 
L 349.704293 178.77953 
" style="fill:none;stroke:#dddddd;stroke-linecap:square;stroke-width:0.5;"/>
     </g>
     <g id="line2d_36">
      <g>
       <use style="stroke:#000000;stroke-width:0.6;" x="50.81625" xlink:href="#m7fb3774bda" y="178.77953"/>
      </g>
     </g>
    </g>
    <g id="ytick_10">
     <g id="line2d_37">
      <path clip-path="url(#p2d7e4104de)" d="M 50.81625 175.154273 
L 349.704293 175.154273 
" style="fill:none;stroke:#dddddd;stroke-linecap:square;stroke-width:0.5;"/>
     </g>
     <g id="line2d_38">
      <g>
       <use style="stroke:#000000;stroke-width:0.6;" x="50.81625" xlink:href="#m7fb3774bda" y="175.154273"/>
      </g>
     </g>
    </g>
    <g id="ytick_11">
     <g id="line2d_39">
      <path clip-path="url(#p2d7e4104de)" d="M 50.81625 172.192222 
L 349.704293 172.192222 
" style="fill:none;stroke:#dddddd;stroke-linecap:square;stroke-width:0.5;"/>
     </g>
     <g id="line2d_40">
      <g>
       <use style="stroke:#000000;stroke-width:0.6;" x="50.81625" xlink:href="#m7fb3774bda" y="172.192222"/>
      </g>
     </g>
    </g>
    <g id="ytick_12">
     <g id="line2d_41">
      <path clip-path="url(#p2d7e4104de)" d="M 50.81625 169.687844 
L 349.704293 169.687844 
" style="fill:none;stroke:#dddddd;stroke-linecap:square;stroke-width:0.5;"/>
     </g>
     <g id="line2d_42">
      <g>
       <use style="stroke:#000000;stroke-width:0.6;" x="50.81625" xlink:href="#m7fb3774bda" y="169.687844"/>
      </g>
     </g>
    </g>
    <g id="ytick_13">
     <g id="line2d_43">
      <path clip-path="url(#p2d7e4104de)" d="M 50.81625 167.518453 
L 349.704293 167.518453 
" style="fill:none;stroke:#dddddd;stroke-linecap:square;stroke-width:0.5;"/>
     </g>
     <g id="line2d_44">
      <g>
       <use style="stroke:#000000;stroke-width:0.6;" x="50.81625" xlink:href="#m7fb3774bda" y="167.518453"/>
      </g>
     </g>
    </g>
    <g id="ytick_14">
     <g id="line2d_45">
      <path clip-path="url(#p2d7e4104de)" d="M 50.81625 165.604915 
L 349.704293 165.604915 
" style="fill:none;stroke:#dddddd;stroke-linecap:square;stroke-width:0.5;"/>
     </g>
     <g id="line2d_46">
      <g>
       <use style="stroke:#000000;stroke-width:0.6;" x="50.81625" xlink:href="#m7fb3774bda" y="165.604915"/>
      </g>
     </g>
    </g>
    <g id="ytick_15">
     <g id="line2d_47">
      <path clip-path="url(#p2d7e4104de)" d="M 50.81625 152.63212 
L 349.704293 152.63212 
" style="fill:none;stroke:#dddddd;stroke-linecap:square;stroke-width:0.5;"/>
     </g>
     <g id="line2d_48">
      <g>
       <use style="stroke:#000000;stroke-width:0.6;" x="50.81625" xlink:href="#m7fb3774bda" y="152.63212"/>
      </g>
     </g>
    </g>
    <g id="ytick_16">
     <g id="line2d_49">
      <path clip-path="url(#p2d7e4104de)" d="M 50.81625 146.044812 
L 349.704293 146.044812 
" style="fill:none;stroke:#dddddd;stroke-linecap:square;stroke-width:0.5;"/>
     </g>
     <g id="line2d_50">
      <g>
       <use style="stroke:#000000;stroke-width:0.6;" x="50.81625" xlink:href="#m7fb3774bda" y="146.044812"/>
      </g>
     </g>
    </g>
    <g id="ytick_17">
     <g id="line2d_51">
      <path clip-path="url(#p2d7e4104de)" d="M 50.81625 141.371043 
L 349.704293 141.371043 
" style="fill:none;stroke:#dddddd;stroke-linecap:square;stroke-width:0.5;"/>
     </g>
     <g id="line2d_52">
      <g>
       <use style="stroke:#000000;stroke-width:0.6;" x="50.81625" xlink:href="#m7fb3774bda" y="141.371043"/>
      </g>
     </g>
    </g>
    <g id="ytick_18">
     <g id="line2d_53">
      <path clip-path="url(#p2d7e4104de)" d="M 50.81625 137.745786 
L 349.704293 137.745786 
" style="fill:none;stroke:#dddddd;stroke-linecap:square;stroke-width:0.5;"/>
     </g>
     <g id="line2d_54">
      <g>
       <use style="stroke:#000000;stroke-width:0.6;" x="50.81625" xlink:href="#m7fb3774bda" y="137.745786"/>
      </g>
     </g>
    </g>
    <g id="ytick_19">
     <g id="line2d_55">
      <path clip-path="url(#p2d7e4104de)" d="M 50.81625 134.783736 
L 349.704293 134.783736 
" style="fill:none;stroke:#dddddd;stroke-linecap:square;stroke-width:0.5;"/>
     </g>
     <g id="line2d_56">
      <g>
       <use style="stroke:#000000;stroke-width:0.6;" x="50.81625" xlink:href="#m7fb3774bda" y="134.783736"/>
      </g>
     </g>
    </g>
    <g id="ytick_20">
     <g id="line2d_57">
      <path clip-path="url(#p2d7e4104de)" d="M 50.81625 132.279358 
L 349.704293 132.279358 
" style="fill:none;stroke:#dddddd;stroke-linecap:square;stroke-width:0.5;"/>
     </g>
     <g id="line2d_58">
      <g>
       <use style="stroke:#000000;stroke-width:0.6;" x="50.81625" xlink:href="#m7fb3774bda" y="132.279358"/>
      </g>
     </g>
    </g>
    <g id="ytick_21">
     <g id="line2d_59">
      <path clip-path="url(#p2d7e4104de)" d="M 50.81625 130.109967 
L 349.704293 130.109967 
" style="fill:none;stroke:#dddddd;stroke-linecap:square;stroke-width:0.5;"/>
     </g>
     <g id="line2d_60">
      <g>
       <use style="stroke:#000000;stroke-width:0.6;" x="50.81625" xlink:href="#m7fb3774bda" y="130.109967"/>
      </g>
     </g>
    </g>
    <g id="ytick_22">
     <g id="line2d_61">
      <path clip-path="url(#p2d7e4104de)" d="M 50.81625 128.196428 
L 349.704293 128.196428 
" style="fill:none;stroke:#dddddd;stroke-linecap:square;stroke-width:0.5;"/>
     </g>
     <g id="line2d_62">
      <g>
       <use style="stroke:#000000;stroke-width:0.6;" x="50.81625" xlink:href="#m7fb3774bda" y="128.196428"/>
      </g>
     </g>
    </g>
    <g id="ytick_23">
     <g id="line2d_63">
      <path clip-path="url(#p2d7e4104de)" d="M 50.81625 115.223633 
L 349.704293 115.223633 
" style="fill:none;stroke:#dddddd;stroke-linecap:square;stroke-width:0.5;"/>
     </g>
     <g id="line2d_64">
      <g>
       <use style="stroke:#000000;stroke-width:0.6;" x="50.81625" xlink:href="#m7fb3774bda" y="115.223633"/>
      </g>
     </g>
    </g>
    <g id="ytick_24">
     <g id="line2d_65">
      <path clip-path="url(#p2d7e4104de)" d="M 50.81625 108.636325 
L 349.704293 108.636325 
" style="fill:none;stroke:#dddddd;stroke-linecap:square;stroke-width:0.5;"/>
     </g>
     <g id="line2d_66">
      <g>
       <use style="stroke:#000000;stroke-width:0.6;" x="50.81625" xlink:href="#m7fb3774bda" y="108.636325"/>
      </g>
     </g>
    </g>
    <g id="ytick_25">
     <g id="line2d_67">
      <path clip-path="url(#p2d7e4104de)" d="M 50.81625 103.962556 
L 349.704293 103.962556 
" style="fill:none;stroke:#dddddd;stroke-linecap:square;stroke-width:0.5;"/>
     </g>
     <g id="line2d_68">
      <g>
       <use style="stroke:#000000;stroke-width:0.6;" x="50.81625" xlink:href="#m7fb3774bda" y="103.962556"/>
      </g>
     </g>
    </g>
    <g id="ytick_26">
     <g id="line2d_69">
      <path clip-path="url(#p2d7e4104de)" d="M 50.81625 100.337299 
L 349.704293 100.337299 
" style="fill:none;stroke:#dddddd;stroke-linecap:square;stroke-width:0.5;"/>
     </g>
     <g id="line2d_70">
      <g>
       <use style="stroke:#000000;stroke-width:0.6;" x="50.81625" xlink:href="#m7fb3774bda" y="100.337299"/>
      </g>
     </g>
    </g>
    <g id="ytick_27">
     <g id="line2d_71">
      <path clip-path="url(#p2d7e4104de)" d="M 50.81625 97.375249 
L 349.704293 97.375249 
" style="fill:none;stroke:#dddddd;stroke-linecap:square;stroke-width:0.5;"/>
     </g>
     <g id="line2d_72">
      <g>
       <use style="stroke:#000000;stroke-width:0.6;" x="50.81625" xlink:href="#m7fb3774bda" y="97.375249"/>
      </g>
     </g>
    </g>
    <g id="ytick_28">
     <g id="line2d_73">
      <path clip-path="url(#p2d7e4104de)" d="M 50.81625 94.870871 
L 349.704293 94.870871 
" style="fill:none;stroke:#dddddd;stroke-linecap:square;stroke-width:0.5;"/>
     </g>
     <g id="line2d_74">
      <g>
       <use style="stroke:#000000;stroke-width:0.6;" x="50.81625" xlink:href="#m7fb3774bda" y="94.870871"/>
      </g>
     </g>
    </g>
    <g id="ytick_29">
     <g id="line2d_75">
      <path clip-path="url(#p2d7e4104de)" d="M 50.81625 92.70148 
L 349.704293 92.70148 
" style="fill:none;stroke:#dddddd;stroke-linecap:square;stroke-width:0.5;"/>
     </g>
     <g id="line2d_76">
      <g>
       <use style="stroke:#000000;stroke-width:0.6;" x="50.81625" xlink:href="#m7fb3774bda" y="92.70148"/>
      </g>
     </g>
    </g>
    <g id="ytick_30">
     <g id="line2d_77">
      <path clip-path="url(#p2d7e4104de)" d="M 50.81625 90.787941 
L 349.704293 90.787941 
" style="fill:none;stroke:#dddddd;stroke-linecap:square;stroke-width:0.5;"/>
     </g>
     <g id="line2d_78">
      <g>
       <use style="stroke:#000000;stroke-width:0.6;" x="50.81625" xlink:href="#m7fb3774bda" y="90.787941"/>
      </g>
     </g>
    </g>
    <g id="ytick_31">
     <g id="line2d_79">
      <path clip-path="url(#p2d7e4104de)" d="M 50.81625 77.815146 
L 349.704293 77.815146 
" style="fill:none;stroke:#dddddd;stroke-linecap:square;stroke-width:0.5;"/>
     </g>
     <g id="line2d_80">
      <g>
       <use style="stroke:#000000;stroke-width:0.6;" x="50.81625" xlink:href="#m7fb3774bda" y="77.815146"/>
      </g>
     </g>
    </g>
    <g id="ytick_32">
     <g id="line2d_81">
      <path clip-path="url(#p2d7e4104de)" d="M 50.81625 71.227839 
L 349.704293 71.227839 
" style="fill:none;stroke:#dddddd;stroke-linecap:square;stroke-width:0.5;"/>
     </g>
     <g id="line2d_82">
      <g>
       <use style="stroke:#000000;stroke-width:0.6;" x="50.81625" xlink:href="#m7fb3774bda" y="71.227839"/>
      </g>
     </g>
    </g>
    <g id="ytick_33">
     <g id="line2d_83">
      <path clip-path="url(#p2d7e4104de)" d="M 50.81625 66.55407 
L 349.704293 66.55407 
" style="fill:none;stroke:#dddddd;stroke-linecap:square;stroke-width:0.5;"/>
     </g>
     <g id="line2d_84">
      <g>
       <use style="stroke:#000000;stroke-width:0.6;" x="50.81625" xlink:href="#m7fb3774bda" y="66.55407"/>
      </g>
     </g>
    </g>
    <g id="ytick_34">
     <g id="line2d_85">
      <path clip-path="url(#p2d7e4104de)" d="M 50.81625 62.928813 
L 349.704293 62.928813 
" style="fill:none;stroke:#dddddd;stroke-linecap:square;stroke-width:0.5;"/>
     </g>
     <g id="line2d_86">
      <g>
       <use style="stroke:#000000;stroke-width:0.6;" x="50.81625" xlink:href="#m7fb3774bda" y="62.928813"/>
      </g>
     </g>
    </g>
    <g id="ytick_35">
     <g id="line2d_87">
      <path clip-path="url(#p2d7e4104de)" d="M 50.81625 59.966762 
L 349.704293 59.966762 
" style="fill:none;stroke:#dddddd;stroke-linecap:square;stroke-width:0.5;"/>
     </g>
     <g id="line2d_88">
      <g>
       <use style="stroke:#000000;stroke-width:0.6;" x="50.81625" xlink:href="#m7fb3774bda" y="59.966762"/>
      </g>
     </g>
    </g>
    <g id="ytick_36">
     <g id="line2d_89">
      <path clip-path="url(#p2d7e4104de)" d="M 50.81625 57.462384 
L 349.704293 57.462384 
" style="fill:none;stroke:#dddddd;stroke-linecap:square;stroke-width:0.5;"/>
     </g>
     <g id="line2d_90">
      <g>
       <use style="stroke:#000000;stroke-width:0.6;" x="50.81625" xlink:href="#m7fb3774bda" y="57.462384"/>
      </g>
     </g>
    </g>
    <g id="ytick_37">
     <g id="line2d_91">
      <path clip-path="url(#p2d7e4104de)" d="M 50.81625 55.292993 
L 349.704293 55.292993 
" style="fill:none;stroke:#dddddd;stroke-linecap:square;stroke-width:0.5;"/>
     </g>
     <g id="line2d_92">
      <g>
       <use style="stroke:#000000;stroke-width:0.6;" x="50.81625" xlink:href="#m7fb3774bda" y="55.292993"/>
      </g>
     </g>
    </g>
    <g id="ytick_38">
     <g id="line2d_93">
      <path clip-path="url(#p2d7e4104de)" d="M 50.81625 53.379454 
L 349.704293 53.379454 
" style="fill:none;stroke:#dddddd;stroke-linecap:square;stroke-width:0.5;"/>
     </g>
     <g id="line2d_94">
      <g>
       <use style="stroke:#000000;stroke-width:0.6;" x="50.81625" xlink:href="#m7fb3774bda" y="53.379454"/>
      </g>
     </g>
    </g>
    <g id="ytick_39">
     <g id="line2d_95">
      <path clip-path="url(#p2d7e4104de)" d="M 50.81625 40.406659 
L 349.704293 40.406659 
" style="fill:none;stroke:#dddddd;stroke-linecap:square;stroke-width:0.5;"/>
     </g>
     <g id="line2d_96">
      <g>
       <use style="stroke:#000000;stroke-width:0.6;" x="50.81625" xlink:href="#m7fb3774bda" y="40.406659"/>
      </g>
     </g>
    </g>
    <g id="ytick_40">
     <g id="line2d_97">
      <path clip-path="url(#p2d7e4104de)" d="M 50.81625 33.819352 
L 349.704293 33.819352 
" style="fill:none;stroke:#dddddd;stroke-linecap:square;stroke-width:0.5;"/>
     </g>
     <g id="line2d_98">
      <g>
       <use style="stroke:#000000;stroke-width:0.6;" x="50.81625" xlink:href="#m7fb3774bda" y="33.819352"/>
      </g>
     </g>
    </g>
    <g id="ytick_41">
     <g id="line2d_99">
      <path clip-path="url(#p2d7e4104de)" d="M 50.81625 29.145583 
L 349.704293 29.145583 
" style="fill:none;stroke:#dddddd;stroke-linecap:square;stroke-width:0.5;"/>
     </g>
     <g id="line2d_100">
      <g>
       <use style="stroke:#000000;stroke-width:0.6;" x="50.81625" xlink:href="#m7fb3774bda" y="29.145583"/>
      </g>
     </g>
    </g>
    <g id="ytick_42">
     <g id="line2d_101">
      <path clip-path="url(#p2d7e4104de)" d="M 50.81625 25.520326 
L 349.704293 25.520326 
" style="fill:none;stroke:#dddddd;stroke-linecap:square;stroke-width:0.5;"/>
     </g>
     <g id="line2d_102">
      <g>
       <use style="stroke:#000000;stroke-width:0.6;" x="50.81625" xlink:href="#m7fb3774bda" y="25.520326"/>
      </g>
     </g>
    </g>
    <g id="ytick_43">
     <g id="line2d_103">
      <path clip-path="url(#p2d7e4104de)" d="M 50.81625 22.558275 
L 349.704293 22.558275 
" style="fill:none;stroke:#dddddd;stroke-linecap:square;stroke-width:0.5;"/>
     </g>
     <g id="line2d_104">
      <g>
       <use style="stroke:#000000;stroke-width:0.6;" x="50.81625" xlink:href="#m7fb3774bda" y="22.558275"/>
      </g>
     </g>
    </g>
    <g id="ytick_44">
     <g id="line2d_105">
      <path clip-path="url(#p2d7e4104de)" d="M 50.81625 20.053897 
L 349.704293 20.053897 
" style="fill:none;stroke:#dddddd;stroke-linecap:square;stroke-width:0.5;"/>
     </g>
     <g id="line2d_106">
      <g>
       <use style="stroke:#000000;stroke-width:0.6;" x="50.81625" xlink:href="#m7fb3774bda" y="20.053897"/>
      </g>
     </g>
    </g>
    <g id="ytick_45">
     <g id="line2d_107">
      <path clip-path="url(#p2d7e4104de)" d="M 50.81625 17.884506 
L 349.704293 17.884506 
" style="fill:none;stroke:#dddddd;stroke-linecap:square;stroke-width:0.5;"/>
     </g>
     <g id="line2d_108">
      <g>
       <use style="stroke:#000000;stroke-width:0.6;" x="50.81625" xlink:href="#m7fb3774bda" y="17.884506"/>
      </g>
     </g>
    </g>
    <g id="ytick_46">
     <g id="line2d_109">
      <path clip-path="url(#p2d7e4104de)" d="M 50.81625 15.970968 
L 349.704293 15.970968 
" style="fill:none;stroke:#dddddd;stroke-linecap:square;stroke-width:0.5;"/>
     </g>
     <g id="line2d_110">
      <g>
       <use style="stroke:#000000;stroke-width:0.6;" x="50.81625" xlink:href="#m7fb3774bda" y="15.970968"/>
      </g>
     </g>
    </g>
    <g id="text_17">
     <!-- transfer error $\epsilon$ -->
     <defs>
      <path d="M 15 23.703125 
C 15 33.34375 19.09375 42.390625 26.59375 42.390625 
C 27.296875 42.390625 28 42.296875 28.703125 41.984375 
C 28.703125 41.984375 26.5 41.28125 26.5 38.671875 
C 26.5 36.265625 28.40625 35.265625 29.90625 35.265625 
C 31.09375 35.265625 33.296875 35.96875 33.296875 38.78125 
C 33.296875 41.984375 30.09375 44 26.703125 44 
C 19.09375 44 15.796875 36.5625 14.796875 33.046875 
L 14.703125 33.046875 
L 14.703125 44 
L 3.09375 42.890625 
L 3.09375 40.28125 
C 9 40.28125 9.90625 39.6875 9.90625 34.859375 
L 9.90625 6.921875 
C 9.90625 3.09375 9.5 2.59375 3.09375 2.59375 
L 3.09375 0 
C 5.5 0.1875 10.09375 0.1875 12.703125 0.1875 
C 15.59375 0.1875 20.703125 0.1875 23.40625 0 
L 23.40625 2.59375 
C 16.203125 2.59375 15 2.59375 15 7.109375 
z
" id="CMR17-114"/>
      <path d="M 15.296875 40.390625 
L 26.703125 40.390625 
L 26.703125 43 
L 15.09375 43 
L 15.09375 55.296875 
C 15.09375 63.6875 19.296875 68.390625 23.59375 68.390625 
C 24.90625 68.390625 26.40625 68.171875 27.40625 67.796875 
C 26.59375 67.59375 24.5 66.890625 24.5 64.390625 
C 24.5 61.796875 26.5 61 27.90625 61 
C 29.296875 61 31.296875 61.796875 31.296875 64.390625 
C 31.296875 68.015625 27.703125 70 23.703125 70 
C 18 70 10.203125 65.796875 10.203125 55.09375 
L 10.203125 43 
L 2.203125 43 
L 2.203125 40.390625 
L 10.203125 40.390625 
L 10.203125 6.890625 
C 10.203125 3.09375 9.796875 2.59375 3.40625 2.59375 
L 3.40625 0 
C 5.796875 0.1875 10.40625 0.1875 13 0.1875 
C 15.90625 0.1875 21 0.1875 23.703125 0 
L 23.703125 2.59375 
C 16.5 2.59375 15.296875 2.59375 15.296875 7.09375 
z
" id="CMR17-102"/>
      <path d="M 29.09375 23 
C 30.59375 23 32.296875 23 32.296875 24.59375 
C 32.296875 25.890625 31.296875 25.890625 29.5 25.890625 
L 13.296875 25.890625 
C 15.796875 34.75 21.703125 40.09375 30.59375 40.09375 
L 33.5 40.09375 
C 35.203125 40.09375 36.703125 40.09375 36.703125 41.6875 
C 36.703125 43 35.59375 43 33.796875 43 
L 30.40625 43 
C 18.09375 43 4.59375 33.375 4.59375 17.828125 
C 4.59375 6.5625 12.09375 -1 22 -1 
C 28.40625 -1 34.703125 3.015625 34.703125 4.03125 
C 34.703125 4.640625 34.40625 5.25 33.796875 5.25 
C 33.5 5.25 33.296875 5.15625 32.796875 4.75 
C 29 2.203125 25.296875 1 22.296875 1 
C 17 1 11.40625 4.546875 11.40625 14.375 
C 11.40625 16.296875 11.59375 18.9375 12.5 23 
z
" id="CMMI12-15"/>
     </defs>
     <g transform="translate(17.718498 140.479074)rotate(-90)scale(0.1 -0.1)">
      <use transform="scale(0.996264)" xlink:href="#CMR17-116"/>
      <use transform="translate(35.280768 0)scale(0.996264)" xlink:href="#CMR17-114"/>
      <use transform="translate(70.561536 0)scale(0.996264)" xlink:href="#CMR17-97"/>
      <use transform="translate(116.252013 0)scale(0.996264)" xlink:href="#CMR17-110"/>
      <use transform="translate(167.147382 0)scale(0.996264)" xlink:href="#CMR17-115"/>
      <use transform="translate(202.94872 0)scale(0.996264)" xlink:href="#CMR17-102"/>
      <use transform="translate(230.422233 0)scale(0.996264)" xlink:href="#CMR17-101"/>
      <use transform="translate(270.907893 0)scale(0.996264)" xlink:href="#CMR17-114"/>
      <use transform="translate(336.264627 0)scale(0.996264)" xlink:href="#CMR17-101"/>
      <use transform="translate(376.750288 0)scale(0.996264)" xlink:href="#CMR17-114"/>
      <use transform="translate(412.031055 0)scale(0.996264)" xlink:href="#CMR17-114"/>
      <use transform="translate(447.311823 0)scale(0.996264)" xlink:href="#CMR17-111"/>
      <use transform="translate(493.0023 0)scale(0.996264)" xlink:href="#CMR17-114"/>
      <use transform="translate(558.359034 0)scale(0.996264)" xlink:href="#CMMI12-15"/>
     </g>
    </g>
   </g>
   <g id="line2d_111">
    <path clip-path="url(#p2d7e4104de)" d="M 52.31069 59.403654 
L 54.552351 54.970515 
L 58.288451 55.1722 
L 62.024552 59.687483 
L 65.760652 60.020962 
L 80.705054 66.459588 
L 95.649457 73.206307 
L 110.593859 80.101484 
L 125.538261 86.870209 
L 140.482663 97.441571 
L 155.427065 106.185368 
L 170.371467 113.036501 
L 185.315869 119.787077 
L 200.260271 127.577038 
L 215.204674 135.954892 
L 230.149076 139.754172 
L 245.093478 144.502357 
L 260.03788 145.709744 
L 274.982282 151.107849 
L 289.926684 156.204349 
L 304.871086 162.968532 
L 319.815489 163.906938 
L 334.759891 172.257629 
L 349.704293 180.670003 
" style="fill:none;stroke:#0088ff;stroke-linecap:square;stroke-width:1.5;"/>
    <defs>
     <path d="M -3 3 
L 3 3 
L 3 -3 
L -3 -3 
z
" id="m2b2f0293eb" style="stroke:#0088ff;stroke-linejoin:miter;"/>
    </defs>
    <g clip-path="url(#p2d7e4104de)">
     <use style="fill:#ffffff;stroke:#0088ff;stroke-linejoin:miter;" x="52.31069" xlink:href="#m2b2f0293eb" y="59.403654"/>
     <use style="fill:#ffffff;stroke:#0088ff;stroke-linejoin:miter;" x="54.552351" xlink:href="#m2b2f0293eb" y="54.970515"/>
     <use style="fill:#ffffff;stroke:#0088ff;stroke-linejoin:miter;" x="58.288451" xlink:href="#m2b2f0293eb" y="55.1722"/>
     <use style="fill:#ffffff;stroke:#0088ff;stroke-linejoin:miter;" x="62.024552" xlink:href="#m2b2f0293eb" y="59.687483"/>
     <use style="fill:#ffffff;stroke:#0088ff;stroke-linejoin:miter;" x="65.760652" xlink:href="#m2b2f0293eb" y="60.020962"/>
     <use style="fill:#ffffff;stroke:#0088ff;stroke-linejoin:miter;" x="80.705054" xlink:href="#m2b2f0293eb" y="66.459588"/>
     <use style="fill:#ffffff;stroke:#0088ff;stroke-linejoin:miter;" x="95.649457" xlink:href="#m2b2f0293eb" y="73.206307"/>
     <use style="fill:#ffffff;stroke:#0088ff;stroke-linejoin:miter;" x="110.593859" xlink:href="#m2b2f0293eb" y="80.101484"/>
     <use style="fill:#ffffff;stroke:#0088ff;stroke-linejoin:miter;" x="125.538261" xlink:href="#m2b2f0293eb" y="86.870209"/>
     <use style="fill:#ffffff;stroke:#0088ff;stroke-linejoin:miter;" x="140.482663" xlink:href="#m2b2f0293eb" y="97.441571"/>
     <use style="fill:#ffffff;stroke:#0088ff;stroke-linejoin:miter;" x="155.427065" xlink:href="#m2b2f0293eb" y="106.185368"/>
     <use style="fill:#ffffff;stroke:#0088ff;stroke-linejoin:miter;" x="170.371467" xlink:href="#m2b2f0293eb" y="113.036501"/>
     <use style="fill:#ffffff;stroke:#0088ff;stroke-linejoin:miter;" x="185.315869" xlink:href="#m2b2f0293eb" y="119.787077"/>
     <use style="fill:#ffffff;stroke:#0088ff;stroke-linejoin:miter;" x="200.260271" xlink:href="#m2b2f0293eb" y="127.577038"/>
     <use style="fill:#ffffff;stroke:#0088ff;stroke-linejoin:miter;" x="215.204674" xlink:href="#m2b2f0293eb" y="135.954892"/>
     <use style="fill:#ffffff;stroke:#0088ff;stroke-linejoin:miter;" x="230.149076" xlink:href="#m2b2f0293eb" y="139.754172"/>
     <use style="fill:#ffffff;stroke:#0088ff;stroke-linejoin:miter;" x="245.093478" xlink:href="#m2b2f0293eb" y="144.502357"/>
     <use style="fill:#ffffff;stroke:#0088ff;stroke-linejoin:miter;" x="260.03788" xlink:href="#m2b2f0293eb" y="145.709744"/>
     <use style="fill:#ffffff;stroke:#0088ff;stroke-linejoin:miter;" x="274.982282" xlink:href="#m2b2f0293eb" y="151.107849"/>
     <use style="fill:#ffffff;stroke:#0088ff;stroke-linejoin:miter;" x="289.926684" xlink:href="#m2b2f0293eb" y="156.204349"/>
     <use style="fill:#ffffff;stroke:#0088ff;stroke-linejoin:miter;" x="304.871086" xlink:href="#m2b2f0293eb" y="162.968532"/>
     <use style="fill:#ffffff;stroke:#0088ff;stroke-linejoin:miter;" x="319.815489" xlink:href="#m2b2f0293eb" y="163.906938"/>
     <use style="fill:#ffffff;stroke:#0088ff;stroke-linejoin:miter;" x="334.759891" xlink:href="#m2b2f0293eb" y="172.257629"/>
     <use style="fill:#ffffff;stroke:#0088ff;stroke-linejoin:miter;" x="349.704293" xlink:href="#m2b2f0293eb" y="180.670003"/>
    </g>
   </g>
   <g id="line2d_112">
    <path clip-path="url(#p2d7e4104de)" d="M 52.31069 39.286197 
L 54.552351 50.127742 
L 58.288451 63.100864 
L 62.024552 73.672491 
L 65.760652 82.144646 
L 80.705054 107.931233 
L 95.649457 127.288813 
L 110.593859 150.414721 
L 125.538261 156.141356 
L 140.482663 161.368282 
L 155.427065 156.505028 
L 170.371467 158.400144 
L 185.315869 162.191271 
L 200.260271 165.745771 
L 215.204674 165.9006 
L 230.149076 166.691637 
L 245.093478 166.288499 
L 260.03788 159.753998 
L 274.982282 166.576736 
L 289.926684 175.722251 
L 304.871086 175.086365 
L 319.815489 178.36845 
L 334.759891 178.587907 
L 349.704293 182.527964 
" style="fill:none;stroke:#dd5500;stroke-linecap:square;stroke-width:1.5;"/>
    <defs>
     <path d="M 0 3 
C 0.795609 3 1.55874 2.683901 2.12132 2.12132 
C 2.683901 1.55874 3 0.795609 3 0 
C 3 -0.795609 2.683901 -1.55874 2.12132 -2.12132 
C 1.55874 -2.683901 0.795609 -3 0 -3 
C -0.795609 -3 -1.55874 -2.683901 -2.12132 -2.12132 
C -2.683901 -1.55874 -3 -0.795609 -3 0 
C -3 0.795609 -2.683901 1.55874 -2.12132 2.12132 
C -1.55874 2.683901 -0.795609 3 0 3 
z
" id="m7a85dbe76a" style="stroke:#dd5500;"/>
    </defs>
    <g clip-path="url(#p2d7e4104de)">
     <use style="fill:#ffffff;stroke:#dd5500;" x="52.31069" xlink:href="#m7a85dbe76a" y="39.286197"/>
     <use style="fill:#ffffff;stroke:#dd5500;" x="54.552351" xlink:href="#m7a85dbe76a" y="50.127742"/>
     <use style="fill:#ffffff;stroke:#dd5500;" x="58.288451" xlink:href="#m7a85dbe76a" y="63.100864"/>
     <use style="fill:#ffffff;stroke:#dd5500;" x="62.024552" xlink:href="#m7a85dbe76a" y="73.672491"/>
     <use style="fill:#ffffff;stroke:#dd5500;" x="65.760652" xlink:href="#m7a85dbe76a" y="82.144646"/>
     <use style="fill:#ffffff;stroke:#dd5500;" x="80.705054" xlink:href="#m7a85dbe76a" y="107.931233"/>
     <use style="fill:#ffffff;stroke:#dd5500;" x="95.649457" xlink:href="#m7a85dbe76a" y="127.288813"/>
     <use style="fill:#ffffff;stroke:#dd5500;" x="110.593859" xlink:href="#m7a85dbe76a" y="150.414721"/>
     <use style="fill:#ffffff;stroke:#dd5500;" x="125.538261" xlink:href="#m7a85dbe76a" y="156.141356"/>
     <use style="fill:#ffffff;stroke:#dd5500;" x="140.482663" xlink:href="#m7a85dbe76a" y="161.368282"/>
     <use style="fill:#ffffff;stroke:#dd5500;" x="155.427065" xlink:href="#m7a85dbe76a" y="156.505028"/>
     <use style="fill:#ffffff;stroke:#dd5500;" x="170.371467" xlink:href="#m7a85dbe76a" y="158.400144"/>
     <use style="fill:#ffffff;stroke:#dd5500;" x="185.315869" xlink:href="#m7a85dbe76a" y="162.191271"/>
     <use style="fill:#ffffff;stroke:#dd5500;" x="200.260271" xlink:href="#m7a85dbe76a" y="165.745771"/>
     <use style="fill:#ffffff;stroke:#dd5500;" x="215.204674" xlink:href="#m7a85dbe76a" y="165.9006"/>
     <use style="fill:#ffffff;stroke:#dd5500;" x="230.149076" xlink:href="#m7a85dbe76a" y="166.691637"/>
     <use style="fill:#ffffff;stroke:#dd5500;" x="245.093478" xlink:href="#m7a85dbe76a" y="166.288499"/>
     <use style="fill:#ffffff;stroke:#dd5500;" x="260.03788" xlink:href="#m7a85dbe76a" y="159.753998"/>
     <use style="fill:#ffffff;stroke:#dd5500;" x="274.982282" xlink:href="#m7a85dbe76a" y="166.576736"/>
     <use style="fill:#ffffff;stroke:#dd5500;" x="289.926684" xlink:href="#m7a85dbe76a" y="175.722251"/>
     <use style="fill:#ffffff;stroke:#dd5500;" x="304.871086" xlink:href="#m7a85dbe76a" y="175.086365"/>
     <use style="fill:#ffffff;stroke:#dd5500;" x="319.815489" xlink:href="#m7a85dbe76a" y="178.36845"/>
     <use style="fill:#ffffff;stroke:#dd5500;" x="334.759891" xlink:href="#m7a85dbe76a" y="178.587907"/>
     <use style="fill:#ffffff;stroke:#dd5500;" x="349.704293" xlink:href="#m7a85dbe76a" y="182.527964"/>
    </g>
   </g>
   <g id="line2d_113">
    <path clip-path="url(#p2d7e4104de)" d="M 52.31069 160.931146 
L 54.552351 162.344759 
L 58.288451 162.344759 
L 62.024552 160.931146 
L 65.760652 160.931146 
L 80.705054 159.630748 
L 95.649457 158.426768 
L 110.593859 157.305889 
L 125.538261 156.257377 
L 140.482663 154.343838 
L 155.427065 152.63212 
L 170.371467 151.83946 
L 185.315869 151.083682 
L 200.260271 150.361505 
L 215.204674 149.006863 
L 230.149076 149.006863 
L 245.093478 148.369671 
L 260.03788 151.083682 
L 274.982282 147.756531 
L 289.926684 146.595587 
L 304.871086 151.083682 
L 319.815489 149.006863 
L 334.759891 152.63212 
L 349.704293 151.83946 
" style="fill:none;stroke:#000000;stroke-dasharray:5.55,2.4;stroke-dashoffset:0;stroke-width:1.5;"/>
   </g>
   <g id="patch_3">
    <path d="M 50.81625 201.301683 
L 50.81625 14.259249 
" style="fill:none;stroke:#000000;stroke-linecap:square;stroke-linejoin:miter;stroke-width:0.8;"/>
   </g>
   <g id="patch_4">
    <path d="M 349.704293 201.301683 
L 349.704293 14.259249 
" style="fill:none;stroke:#000000;stroke-linecap:square;stroke-linejoin:miter;stroke-width:0.8;"/>
   </g>
   <g id="patch_5">
    <path d="M 50.81625 201.301683 
L 349.704293 201.301683 
" style="fill:none;stroke:#000000;stroke-linecap:square;stroke-linejoin:miter;stroke-width:0.8;"/>
   </g>
   <g id="patch_6">
    <path d="M 50.81625 14.259249 
L 349.704293 14.259249 
" style="fill:none;stroke:#000000;stroke-linecap:square;stroke-linejoin:miter;stroke-width:0.8;"/>
   </g>
   <g id="legend_1">
    <g id="patch_7">
     <path d="M 230.345893 66.092525 
L 342.704293 66.092525 
Q 344.704293 66.092525 344.704293 64.092525 
L 344.704293 21.259249 
Q 344.704293 19.259249 342.704293 19.259249 
L 230.345893 19.259249 
Q 228.345893 19.259249 228.345893 21.259249 
L 228.345893 64.092525 
Q 228.345893 66.092525 230.345893 66.092525 
z
" style="fill:#ffffff;opacity:0.8;stroke:#cccccc;stroke-linejoin:miter;"/>
    </g>
    <g id="line2d_114">
     <path d="M 232.345893 26.759249 
L 252.345893 26.759249 
" style="fill:none;stroke:#0088ff;stroke-linecap:square;stroke-width:1.5;"/>
    </g>
    <g id="line2d_115">
     <g>
      <use style="fill:#ffffff;stroke:#0088ff;stroke-linejoin:miter;" x="242.345893" xlink:href="#m2b2f0293eb" y="26.759249"/>
     </g>
    </g>
    <g id="text_18">
     <!-- linear -->
     <defs>
      <path d="M 15.296875 69 
L 3.40625 67.890625 
L 3.40625 65.296875 
C 9.296875 65.296875 10.203125 64.703125 10.203125 59.921875 
L 10.203125 6.859375 
C 10.203125 3.09375 9.796875 2.59375 3.40625 2.59375 
L 3.40625 0 
C 5.796875 0.1875 10.203125 0.1875 12.703125 0.1875 
C 15.296875 0.1875 19.703125 0.1875 22.09375 0 
L 22.09375 2.59375 
C 15.703125 2.59375 15.296875 2.984375 15.296875 6.859375 
z
" id="CMR17-108"/>
     </defs>
     <g transform="translate(260.345893 30.259249)scale(0.1 -0.1)">
      <use transform="scale(0.996264)" xlink:href="#CMR17-108"/>
      <use transform="translate(24.871058 0)scale(0.996264)" xlink:href="#CMR17-105"/>
      <use transform="translate(49.742117 0)scale(0.996264)" xlink:href="#CMR17-110"/>
      <use transform="translate(100.637487 0)scale(0.996264)" xlink:href="#CMR17-101"/>
      <use transform="translate(141.123147 0)scale(0.996264)" xlink:href="#CMR17-97"/>
      <use transform="translate(186.813624 0)scale(0.996264)" xlink:href="#CMR17-114"/>
     </g>
    </g>
    <g id="line2d_116">
     <path d="M 232.345893 40.696428 
L 252.345893 40.696428 
" style="fill:none;stroke:#dd5500;stroke-linecap:square;stroke-width:1.5;"/>
    </g>
    <g id="line2d_117">
     <g>
      <use style="fill:#ffffff;stroke:#dd5500;" x="242.345893" xlink:href="#m7a85dbe76a" y="40.696428"/>
     </g>
    </g>
    <g id="text_19">
     <!-- shaped -->
     <defs>
      <path d="M 41.5 30.53125 
C 41.5 35.65625 40.5 44 28.703125 44 
C 20.5 44 16.5 37.375 15.296875 34.046875 
L 15.203125 34.046875 
L 15.203125 69 
L 3.296875 67.890625 
L 3.296875 65.296875 
C 9.203125 65.296875 10.09375 64.703125 10.09375 60.046875 
L 10.09375 6.921875 
C 10.09375 3.09375 9.703125 2.59375 3.296875 2.59375 
L 3.296875 0 
C 5.703125 0.1875 10.09375 0.1875 12.703125 0.1875 
C 15.296875 0.1875 19.796875 0.1875 22.203125 0 
L 22.203125 2.59375 
C 15.796875 2.59375 15.40625 3 15.40625 6.921875 
L 15.40625 26.21875 
C 15.40625 35.453125 21 42.390625 28 42.390625 
C 35.40625 42.390625 36.203125 35.765625 36.203125 30.9375 
L 36.203125 6.921875 
C 36.203125 3.09375 35.796875 2.59375 29.40625 2.59375 
L 29.40625 0 
C 31.796875 0.1875 36.203125 0.1875 38.796875 0.1875 
C 41.40625 0.1875 45.90625 0.1875 48.296875 0 
L 48.296875 2.59375 
C 41.90625 2.59375 41.5 3 41.5 6.921875 
z
" id="CMR17-104"/>
      <path d="M 22 -17.40625 
C 15.59375 -17.40625 15.203125 -17 15.203125 -13.03125 
L 15.203125 5.9375 
C 18.09375 1.703125 22.296875 -1 27.59375 -1 
C 37.59375 -1 47.703125 7.859375 47.703125 21.59375 
C 47.703125 34.3125 39 44 28.703125 44 
C 22.703125 44 17.796875 40.671875 15 36.640625 
L 15 44 
L 3.09375 42.890625 
L 3.09375 40.265625 
C 9 40.265625 9.90625 39.671875 9.90625 34.8125 
L 9.90625 -13.03125 
C 9.90625 -16.890625 9.5 -17.40625 3.09375 -17.40625 
L 3.09375 -20 
C 5.5 -19.8125 9.90625 -19.8125 12.5 -19.8125 
C 15.09375 -19.8125 19.59375 -19.8125 22 -20 
z
M 15.203125 31.484375 
C 15.203125 32.90625 15.203125 35.015625 19.09375 38.765625 
C 19.59375 39.15625 23 42.1875 28 42.1875 
C 35.296875 42.1875 41.296875 33 41.296875 21.5 
C 41.296875 9.984375 34.90625 0.59375 27 0.59375 
C 23.40625 0.59375 19.5 2.3125 16.5 7.046875 
C 15.203125 9.28125 15.203125 9.875 15.203125 11.5 
z
" id="CMR17-112"/>
      <path d="M 29.203125 67.890625 
L 29.203125 65.296875 
C 35.09375 65.296875 36 64.703125 36 60.046875 
L 36 37.046875 
C 35.59375 37.546875 31.5 44 23.40625 44 
C 13.203125 44 3.296875 34.8125 3.296875 21.5 
C 3.296875 8.265625 12.59375 -1 22.40625 -1 
C 30.90625 -1 35.296875 5.640625 35.796875 6.34375 
L 35.796875 -1 
L 47.90625 -0.203125 
L 47.90625 2.40625 
C 42 2.40625 41.09375 3.015625 41.09375 7.859375 
L 41.09375 69 
z
M 35.796875 11.90625 
C 35.796875 8.875 34 6.140625 31.703125 4.125 
C 28.296875 1.09375 24.90625 0.59375 23 0.59375 
C 20.09375 0.59375 9.703125 2.109375 9.703125 21.390625 
C 9.703125 41.1875 21.296875 42.390625 23.90625 42.390625 
C 28.5 42.390625 32.203125 39.765625 34.5 36.140625 
C 35.796875 34.015625 35.796875 33.703125 35.796875 31.890625 
z
" id="CMR17-100"/>
     </defs>
     <g transform="translate(260.345893 44.196428)scale(0.1 -0.1)">
      <use transform="scale(0.996264)" xlink:href="#CMR17-115"/>
      <use transform="translate(35.801338 0)scale(0.996264)" xlink:href="#CMR17-104"/>
      <use transform="translate(86.696707 0)scale(0.996264)" xlink:href="#CMR17-97"/>
      <use transform="translate(132.387185 0)scale(0.996264)" xlink:href="#CMR17-112"/>
      <use transform="translate(185.884993 0)scale(0.996264)" xlink:href="#CMR17-101"/>
      <use transform="translate(226.370654 0)scale(0.996264)" xlink:href="#CMR17-100"/>
     </g>
    </g>
    <g id="line2d_118">
     <path d="M 232.345893 55.105586 
L 252.345893 55.105586 
" style="fill:none;stroke:#000000;stroke-dasharray:5.55,2.4;stroke-dashoffset:0;stroke-width:1.5;"/>
    </g>
    <g id="line2d_119"/>
    <g id="text_20">
     <!-- $t_\textrm{f}/T_1$, $T_1 = 0.1\ \textrm{ms}$ -->
     <defs>
      <path d="M 20.09375 40.09375 
L 29.296875 40.09375 
C 31.203125 40.09375 32.203125 40.09375 32.203125 41.890625 
C 32.203125 43 31.59375 43 29.59375 43 
L 20.796875 43 
L 24.5 57.25 
C 24.90625 58.625 24.90625 58.8125 24.90625 59.5 
C 24.90625 61.09375 23.59375 62 22.296875 62 
C 21.5 62 19.203125 61.6875 18.40625 58.53125 
L 14.5 43 
L 5.09375 43 
C 3.09375 43 2.203125 43 2.203125 41.09375 
C 2.203125 40.09375 2.90625 40.09375 4.796875 40.09375 
L 13.703125 40.09375 
L 7.09375 13.765625 
C 6.296875 10.265625 6 9.265625 6 7.96875 
C 6 3.28125 9.296875 -1 14.90625 -1 
C 25 -1 30.40625 13.5625 30.40625 14.265625 
C 30.40625 14.859375 30 15.15625 29.40625 15.15625 
C 29.203125 15.15625 28.796875 15.15625 28.59375 14.75 
C 28.5 14.65625 28.40625 14.5625 27.703125 12.96875 
C 25.59375 7.96875 21 1 15.203125 1 
C 12.203125 1 12 3.484375 12 5.6875 
C 12 5.78125 12 7.671875 12.296875 8.875 
z
" id="CMMI12-116"/>
      <path d="M 42.90625 71.296875 
C 42.90625 71.390625 43.5 72.890625 43.5 73.09375 
C 43.5 74.296875 42.5 75 41.703125 75 
C 41.203125 75 40.296875 75 39.5 72.796875 
L 6 -21.3125 
C 6 -21.40625 5.40625 -22.90625 5.40625 -23.109375 
C 5.40625 -24.3125 6.40625 -25 7.203125 -25 
C 7.796875 -25 8.703125 -24.90625 9.40625 -22.8125 
z
" id="CMMI12-61"/>
      <path d="M 41.703125 60.71875 
C 42.296875 63.09375 42.5 64 44 64.390625 
C 44.796875 64.59375 48.09375 64.59375 50.203125 64.59375 
C 60.203125 64.59375 64.90625 64.203125 64.90625 56.4375 
C 64.90625 54.9375 64.5 51.15625 63.90625 47.46875 
L 63.796875 46.28125 
C 63.796875 45.890625 64.203125 45.28125 64.796875 45.28125 
C 65.796875 45.28125 65.796875 45.78125 66.09375 47.375 
L 69 64.984375 
C 69.203125 65.890625 69.203125 66.09375 69.203125 66.390625 
C 69.203125 67.484375 68.59375 67.484375 66.59375 67.484375 
L 11.90625 67.484375 
C 9.59375 67.484375 9.5 67.390625 8.90625 65.59375 
L 2.796875 47.671875 
C 2.703125 47.46875 2.40625 46.375 2.40625 46.28125 
C 2.40625 45.78125 2.796875 45.28125 3.40625 45.28125 
C 4.203125 45.28125 4.40625 45.6875 4.796875 46.984375 
C 9 59.015625 11.09375 64.59375 24.40625 64.59375 
L 31.09375 64.59375 
C 33.5 64.59375 34.5 64.59375 34.5 63.5 
C 34.5 63.203125 34.5 63 34 61.203125 
L 20.59375 7.765625 
C 19.59375 3.890625 19.40625 2.890625 8.796875 2.890625 
C 6.296875 2.890625 5.59375 2.890625 5.59375 1 
C 5.59375 0 6.703125 0 7.203125 0 
C 9.703125 0 12.296875 0.1875 14.796875 0.1875 
L 30.40625 0.1875 
C 32.90625 0.1875 35.59375 0 38.09375 0 
C 39.203125 0 40.203125 0 40.203125 1.890625 
C 40.203125 2.890625 39.5 2.890625 36.90625 2.890625 
C 27.90625 2.890625 27.90625 3.78125 27.90625 5.28125 
C 27.90625 5.375 27.90625 6.078125 28.296875 7.671875 
z
" id="CMMI12-84"/>
      <path d="M 15.796875 1.59375 
C 16 0.6875 16 0.390625 16 -1.1875 
C 16 -7.046875 14 -12.421875 9.796875 -17.3125 
C 9.296875 -17.8125 9.296875 -18 9.296875 -18.203125 
C 9.296875 -18.609375 9.703125 -19 10.09375 -19 
C 10.703125 -19 17.59375 -12.125 17.59375 -1.28125 
C 17.59375 2 17.203125 8.1875 12.5 8.1875 
C 10.296875 8.1875 8.40625 6.6875 8.40625 4.09375 
C 8.40625 1.5 10.296875 0 12.5 0 
C 13.703125 0 15 0.5 15.796875 1.59375 
z
" id="CMR17-44"/>
      <path d="M 64.296875 32 
C 65.796875 32 67.296875 32 67.296875 33.6875 
C 67.296875 35.5 65.59375 35.5 63.90625 35.5 
L 8 35.5 
C 6.296875 35.5 4.59375 35.5 4.59375 33.6875 
C 4.59375 32 6.09375 32 7.59375 32 
z
M 63.90625 14.484375 
C 65.59375 14.484375 67.296875 14.484375 67.296875 16.296875 
C 67.296875 18 65.796875 18 64.296875 18 
L 7.59375 18 
C 6.09375 18 4.59375 18 4.59375 16.296875 
C 4.59375 14.484375 6.296875 14.484375 8 14.484375 
z
" id="CMR17-61"/>
     </defs>
     <g transform="translate(260.345893 58.605586)scale(0.1 -0.1)">
      <use transform="scale(0.996264)" xlink:href="#CMMI12-116"/>
      <use transform="translate(35.22633 -34.869286)scale(0.996264)" xlink:href="#CMR17-102"/>
      <use transform="translate(63.197975 0)scale(0.996264)" xlink:href="#CMMI12-61"/>
      <use transform="translate(111.972893 0)scale(0.996264)" xlink:href="#CMMI12-84"/>
      <use transform="translate(169.147937 -14.943915)scale(0.697382)" xlink:href="#CMR17-49"/>
      <use transform="translate(201.629251 0)scale(0.996264)" xlink:href="#CMR17-44"/>
      <use transform="translate(256.576276 0)scale(0.996264)" xlink:href="#CMMI12-84"/>
      <use transform="translate(313.75132 -14.943915)scale(0.697382)" xlink:href="#CMR17-49"/>
      <use transform="translate(373.906642 0)scale(0.996264)" xlink:href="#CMR17-61"/>
      <use transform="translate(473.295439 0)scale(0.996264)" xlink:href="#CMR17-48"/>
      <use transform="translate(518.985916 0)scale(0.996264)" xlink:href="#CMMI12-58"/>
      <use transform="translate(546.083094 0)scale(0.996264)" xlink:href="#CMR17-49"/>
      <use transform="translate(621.849537 0)scale(0.996264)" xlink:href="#CMR17-109"/>
      <use transform="translate(698.769127 0)scale(0.996264)" xlink:href="#CMR17-115"/>
     </g>
    </g>
   </g>
  </g>
 </g>
 <defs>
  <clipPath id="p2d7e4104de">
   <rect height="187.042434" width="298.888043" x="50.81625" y="14.259249"/>
  </clipPath>
 </defs>
</svg>
