<?xml version="1.0" encoding="utf-8" standalone="no"?>
<!DOCTYPE svg PUBLIC "-//W3C//DTD SVG 1.1//EN"
  "http://www.w3.org/Graphics/SVG/1.1/DTD/svg11.dtd">
<!-- Created with matplotlib (https://matplotlib.org/) -->
<svg height="231.84pt" version="1.1" viewBox="0 0 291.6 231.84" width="291.6pt" xmlns="http://www.w3.org/2000/svg" xmlns:xlink="http://www.w3.org/1999/xlink">
 <defs>
  <style type="text/css">
*{stroke-linecap:butt;stroke-linejoin:round;}
  </style>
 </defs>
 <g id="figure_1">
  <g id="patch_1">
   <path d="M 0 231.84 
L 291.6 231.84 
L 291.6 0 
L 0 0 
z
" style="fill:#ffffff;"/>
  </g>
  <g id="axes_1">
   <g id="patch_2">
    <path d="M 50.81625 190.225404 
L 273.833046 190.225404 
L 273.833046 10.8 
L 50.81625 10.8 
z
" style="fill:#ffffff;"/>
   </g>
   <g id="PolyCollection_1">
    <path clip-path="url(#p9bae10063e)" d="M 273.833046 31.478236 
L 273.833046 41.227369 
L 271.679844 41.227369 
L 271.679844 41.030607 
L 267.219508 41.030607 
L 267.219508 40.854881 
L 262.759172 40.854881 
L 262.759172 43.205473 
L 258.298836 43.205473 
L 258.298836 40.056087 
L 253.8385 40.056087 
L 253.8385 38.922846 
L 249.378164 38.922846 
L 249.378164 38.854902 
L 244.917829 38.854902 
L 244.917829 41.074996 
L 240.457493 41.074996 
L 240.457493 41.190834 
L 235.997157 41.190834 
L 235.997157 37.025575 
L 231.536821 37.025575 
L 231.536821 38.649557 
L 227.076485 38.649557 
L 227.076485 41.258841 
L 222.616149 41.258841 
L 222.616149 39.93087 
L 218.155813 39.93087 
L 218.155813 41.452669 
L 213.695477 41.452669 
L 213.695477 40.960116 
L 209.235141 40.960116 
L 209.235141 41.873359 
L 204.774805 41.873359 
L 204.774805 42.942347 
L 200.314469 42.942347 
L 200.314469 42.289447 
L 195.854133 42.289447 
L 195.854133 42.146228 
L 191.393798 42.146228 
L 191.393798 43.592961 
L 186.933462 43.592961 
L 186.933462 43.741263 
L 182.473126 43.741263 
L 182.473126 43.272106 
L 178.01279 43.272106 
L 178.01279 42.998346 
L 173.552454 42.998346 
L 173.552454 43.521029 
L 169.092118 43.521029 
L 169.092118 42.640498 
L 164.631782 42.640498 
L 164.631782 43.349032 
L 160.171446 43.349032 
L 160.171446 43.70237 
L 155.71111 43.70237 
L 155.71111 42.146277 
L 151.250774 42.146277 
L 151.250774 43.491731 
L 146.790438 43.491731 
L 146.790438 43.458786 
L 142.330102 43.458786 
L 142.330102 43.367087 
L 137.869767 43.367087 
L 137.869767 43.403301 
L 133.409431 43.403301 
L 133.409431 43.561988 
L 128.949095 43.561988 
L 128.949095 44.330467 
L 124.488759 44.330467 
L 124.488759 43.746224 
L 120.028423 43.746224 
L 120.028423 43.959845 
L 115.568087 43.959845 
L 115.568087 44.259874 
L 111.107751 44.259874 
L 111.107751 44.219084 
L 106.647415 44.219084 
L 106.647415 44.45858 
L 102.187079 44.45858 
L 102.187079 43.753996 
L 97.726743 43.753996 
L 97.726743 43.894423 
L 93.266407 43.894423 
L 93.266407 43.842829 
L 88.806071 43.842829 
L 88.806071 44.388114 
L 84.345736 44.388114 
L 84.345736 44.107039 
L 79.8854 44.107039 
L 79.8854 43.980355 
L 75.425064 43.980355 
L 75.425064 43.81144 
L 70.964728 43.81144 
L 70.964728 43.941828 
L 66.504392 43.941828 
L 66.504392 43.978465 
L 62.044056 43.978465 
L 62.044056 44.233406 
L 57.58372 44.233406 
L 57.58372 43.943401 
L 53.123384 43.943401 
L 53.123384 43.735016 
L 50.81625 43.735016 
L 50.81625 42.825544 
L 50.81625 42.825544 
L 53.123384 42.825544 
L 53.123384 43.315005 
L 57.58372 43.315005 
L 57.58372 43.404991 
L 62.044056 43.404991 
L 62.044056 43.056968 
L 66.504392 43.056968 
L 66.504392 42.940177 
L 70.964728 42.940177 
L 70.964728 42.560228 
L 75.425064 42.560228 
L 75.425064 43.048082 
L 79.8854 43.048082 
L 79.8854 43.045598 
L 84.345736 43.045598 
L 84.345736 43.211641 
L 88.806071 43.211641 
L 88.806071 42.617056 
L 93.266407 42.617056 
L 93.266407 42.627954 
L 97.726743 42.627954 
L 97.726743 42.307845 
L 102.187079 42.307845 
L 102.187079 43.052587 
L 106.647415 43.052587 
L 106.647415 42.178147 
L 111.107751 42.178147 
L 111.107751 42.464363 
L 115.568087 42.464363 
L 115.568087 42.196732 
L 120.028423 42.196732 
L 120.028423 42.099649 
L 124.488759 42.099649 
L 124.488759 42.325126 
L 128.949095 42.325126 
L 128.949095 41.11609 
L 133.409431 41.11609 
L 133.409431 41.266428 
L 137.869767 41.266428 
L 137.869767 40.319336 
L 142.330102 40.319336 
L 142.330102 41.638915 
L 146.790438 41.638915 
L 146.790438 40.949899 
L 151.250774 40.949899 
L 151.250774 37.442096 
L 155.71111 37.442096 
L 155.71111 41.308373 
L 160.171446 41.308373 
L 160.171446 40.079202 
L 164.631782 40.079202 
L 164.631782 36.78704 
L 169.092118 36.78704 
L 169.092118 38.897923 
L 173.552454 38.897923 
L 173.552454 37.156304 
L 178.01279 37.156304 
L 178.01279 36.277274 
L 182.473126 36.277274 
L 182.473126 39.383501 
L 186.933462 39.383501 
L 186.933462 40.144705 
L 191.393798 40.144705 
L 191.393798 29.625997 
L 195.854133 29.625997 
L 195.854133 32.704978 
L 200.314469 32.704978 
L 200.314469 36.11644 
L 204.774805 36.11644 
L 204.774805 34.127075 
L 209.235141 34.127075 
L 209.235141 22.300473 
L 213.695477 22.300473 
L 213.695477 22.433394 
L 218.155813 22.433394 
L 218.155813 20.238459 
L 222.616149 20.238459 
L 222.616149 29.477869 
L 227.076485 29.477869 
L 227.076485 29.789289 
L 231.536821 29.789289 
L 231.536821 28.027692 
L 235.997157 28.027692 
L 235.997157 26.881171 
L 240.457493 26.881171 
L 240.457493 28.292264 
L 244.917829 28.292264 
L 244.917829 29.582026 
L 249.378164 29.582026 
L 249.378164 29.063049 
L 253.8385 29.063049 
L 253.8385 30.637063 
L 258.298836 30.637063 
L 258.298836 30.442439 
L 262.759172 30.442439 
L 262.759172 25.620468 
L 267.219508 25.620468 
L 267.219508 18.9557 
L 271.679844 18.9557 
L 271.679844 31.478236 
L 273.833046 31.478236 
z
" style="fill:#0088ff;fill-opacity:0.15;"/>
   </g>
   <g id="PolyCollection_2">
    <path clip-path="url(#p9bae10063e)" d="M 273.833046 84.806902 
L 273.833046 141.006385 
L 271.679844 141.006385 
L 271.679844 137.000468 
L 267.219508 137.000468 
L 267.219508 132.857266 
L 262.759172 132.857266 
L 262.759172 121.58718 
L 258.298836 121.58718 
L 258.298836 134.731716 
L 253.8385 134.731716 
L 253.8385 127.305101 
L 249.378164 127.305101 
L 249.378164 119.06476 
L 244.917829 119.06476 
L 244.917829 129.171829 
L 240.457493 129.171829 
L 240.457493 141.625069 
L 235.997157 141.625069 
L 235.997157 142.626742 
L 231.536821 142.626742 
L 231.536821 132.264498 
L 227.076485 132.264498 
L 227.076485 146.485155 
L 222.616149 146.485155 
L 222.616149 154.411746 
L 218.155813 154.411746 
L 218.155813 137.748358 
L 213.695477 137.748358 
L 213.695477 152.481401 
L 209.235141 152.481401 
L 209.235141 142.184059 
L 204.774805 142.184059 
L 204.774805 154.445711 
L 200.314469 154.445711 
L 200.314469 147.412606 
L 195.854133 147.412606 
L 195.854133 155.158546 
L 191.393798 155.158546 
L 191.393798 165.822945 
L 186.933462 165.822945 
L 186.933462 146.304677 
L 182.473126 146.304677 
L 182.473126 167.924896 
L 178.01279 167.924896 
L 178.01279 161.63954 
L 173.552454 161.63954 
L 173.552454 156.337429 
L 169.092118 156.337429 
L 169.092118 160.034544 
L 164.631782 160.034544 
L 164.631782 166.242421 
L 160.171446 166.242421 
L 160.171446 169.187057 
L 155.71111 169.187057 
L 155.71111 165.773508 
L 151.250774 165.773508 
L 151.250774 177.448779 
L 146.790438 177.448779 
L 146.790438 164.582771 
L 142.330102 164.582771 
L 142.330102 173.097523 
L 137.869767 173.097523 
L 137.869767 164.260518 
L 133.409431 164.260518 
L 133.409431 171.072554 
L 128.949095 171.072554 
L 128.949095 165.37862 
L 124.488759 165.37862 
L 124.488759 168.048201 
L 120.028423 168.048201 
L 120.028423 167.995916 
L 115.568087 167.995916 
L 115.568087 176.214245 
L 111.107751 176.214245 
L 111.107751 176.575081 
L 106.647415 176.575081 
L 106.647415 169.848571 
L 102.187079 169.848571 
L 102.187079 178.521449 
L 97.726743 178.521449 
L 97.726743 175.108425 
L 93.266407 175.108425 
L 93.266407 174.841243 
L 88.806071 174.841243 
L 88.806071 168.244415 
L 84.345736 168.244415 
L 84.345736 172.706747 
L 79.8854 172.706747 
L 79.8854 174.268108 
L 75.425064 174.268108 
L 75.425064 176.908753 
L 70.964728 176.908753 
L 70.964728 172.487047 
L 66.504392 172.487047 
L 66.504392 175.031417 
L 62.044056 175.031417 
L 62.044056 172.959556 
L 57.58372 172.959556 
L 57.58372 182.069704 
L 53.123384 182.069704 
L 53.123384 175.879267 
L 50.81625 175.879267 
L 50.81625 160.249255 
L 50.81625 160.249255 
L 53.123384 160.249255 
L 53.123384 162.008674 
L 57.58372 162.008674 
L 57.58372 158.643379 
L 62.044056 158.643379 
L 62.044056 156.394169 
L 66.504392 156.394169 
L 66.504392 156.432904 
L 70.964728 156.432904 
L 70.964728 154.826807 
L 75.425064 154.826807 
L 75.425064 152.749827 
L 79.8854 152.749827 
L 79.8854 155.120064 
L 84.345736 155.120064 
L 84.345736 154.581447 
L 88.806071 154.581447 
L 88.806071 146.546807 
L 93.266407 146.546807 
L 93.266407 155.491112 
L 97.726743 155.491112 
L 97.726743 159.184576 
L 102.187079 159.184576 
L 102.187079 143.873684 
L 106.647415 143.873684 
L 106.647415 152.09005 
L 111.107751 152.09005 
L 111.107751 157.64158 
L 115.568087 157.64158 
L 115.568087 152.935082 
L 120.028423 152.935082 
L 120.028423 154.973729 
L 124.488759 154.973729 
L 124.488759 145.169719 
L 128.949095 145.169719 
L 128.949095 154.792561 
L 133.409431 154.792561 
L 133.409431 131.031613 
L 137.869767 131.031613 
L 137.869767 144.375761 
L 142.330102 144.375761 
L 142.330102 133.122117 
L 146.790438 133.122117 
L 146.790438 139.543328 
L 151.250774 139.543328 
L 151.250774 134.50752 
L 155.71111 134.50752 
L 155.71111 144.714054 
L 160.171446 144.714054 
L 160.171446 137.013188 
L 164.631782 137.013188 
L 164.631782 125.826931 
L 169.092118 125.826931 
L 169.092118 115.954318 
L 173.552454 115.954318 
L 173.552454 114.600828 
L 178.01279 114.600828 
L 178.01279 132.629177 
L 182.473126 132.629177 
L 182.473126 102.965564 
L 186.933462 102.965564 
L 186.933462 122.229664 
L 191.393798 122.229664 
L 191.393798 123.943011 
L 195.854133 123.943011 
L 195.854133 110.063376 
L 200.314469 110.063376 
L 200.314469 122.036497 
L 204.774805 122.036497 
L 204.774805 106.574408 
L 209.235141 106.574408 
L 209.235141 118.323475 
L 213.695477 118.323475 
L 213.695477 111.197506 
L 218.155813 111.197506 
L 218.155813 111.003824 
L 222.616149 111.003824 
L 222.616149 104.652939 
L 227.076485 104.652939 
L 227.076485 86.548446 
L 231.536821 86.548446 
L 231.536821 108.291532 
L 235.997157 108.291532 
L 235.997157 95.188512 
L 240.457493 95.188512 
L 240.457493 95.134977 
L 244.917829 95.134977 
L 244.917829 74.976904 
L 249.378164 74.976904 
L 249.378164 79.399614 
L 253.8385 79.399614 
L 253.8385 81.852018 
L 258.298836 81.852018 
L 258.298836 82.109022 
L 262.759172 82.109022 
L 262.759172 83.998041 
L 267.219508 83.998041 
L 267.219508 83.577258 
L 271.679844 83.577258 
L 271.679844 84.806902 
L 273.833046 84.806902 
z
" style="fill:#dd5500;fill-opacity:0.15;"/>
   </g>
   <g id="matplotlib.axis_1">
    <g id="xtick_1">
     <g id="line2d_1">
      <path clip-path="url(#p9bae10063e)" d="M 50.81625 190.225404 
L 50.81625 10.8 
" style="fill:none;stroke:#dddddd;stroke-linecap:square;stroke-width:0.5;"/>
     </g>
     <g id="line2d_2">
      <defs>
       <path d="M 0 0 
L 0 3.5 
" id="m3217bf16ec" style="stroke:#000000;stroke-width:0.8;"/>
      </defs>
      <g>
       <use style="stroke:#000000;stroke-width:0.8;" x="50.81625" xlink:href="#m3217bf16ec" y="190.225404"/>
      </g>
     </g>
     <g id="text_1">
      <!-- $\mathdefault{10^{-2}}$ -->
      <defs>
       <path d="M 26.59375 63.796875 
C 26.59375 65.890625 26.5 66 25.09375 66 
C 21.203125 61.359375 15.296875 59.890625 9.703125 59.6875 
C 9.40625 59.6875 8.90625 59.6875 8.796875 59.5 
C 8.703125 59.296875 8.703125 59.09375 8.703125 57 
C 11.796875 57 17 57.59375 21 59.984375 
L 21 7.296875 
C 21 3.796875 20.796875 2.59375 12.203125 2.59375 
L 9.203125 2.59375 
L 9.203125 0 
C 14 0.09375 19 0.1875 23.796875 0.1875 
C 28.59375 0.1875 33.59375 0.09375 38.40625 0 
L 38.40625 2.59375 
L 35.40625 2.59375 
C 26.796875 2.59375 26.59375 3.6875 26.59375 7.296875 
z
" id="CMR17-49"/>
       <path d="M 42 31.84375 
C 42 37.96875 41.90625 48.421875 37.703125 56.453125 
C 34 63.484375 28.09375 66 22.90625 66 
C 18.09375 66 12 63.78125 8.203125 56.5625 
C 4.203125 49.015625 3.796875 39.671875 3.796875 31.84375 
C 3.796875 26.109375 3.90625 17.375 7 9.734375 
C 11.296875 -0.609375 19 -2 22.90625 -2 
C 27.5 -2 34.5 -0.109375 38.59375 9.4375 
C 41.59375 16.375 42 24.5 42 31.84375 
z
M 22.90625 -0.40625 
C 16.5 -0.40625 12.703125 5.125 11.296875 12.75 
C 10.203125 18.6875 10.203125 27.328125 10.203125 32.953125 
C 10.203125 40.6875 10.203125 47.109375 11.5 53.234375 
C 13.40625 61.78125 19 64.390625 22.90625 64.390625 
C 27 64.390625 32.296875 61.671875 34.203125 53.4375 
C 35.5 47.71875 35.59375 40.984375 35.59375 32.953125 
C 35.59375 26.421875 35.59375 18.375 34.40625 12.453125 
C 32.296875 1.5 26.40625 -0.40625 22.90625 -0.40625 
z
" id="CMR17-48"/>
       <path d="M 65.90625 23 
C 67.59375 23 69.40625 23 69.40625 25 
C 69.40625 27 67.59375 27 65.90625 27 
L 11.796875 27 
C 10.09375 27 8.296875 27 8.296875 25 
C 8.296875 23 10.09375 23 11.796875 23 
z
" id="CMSY10-0"/>
       <path d="M 41.703125 15.46875 
L 39.90625 15.46875 
C 38.90625 8.390625 38.09375 7.1875 37.703125 6.59375 
C 37.203125 5.796875 30 5.796875 28.59375 5.796875 
L 9.40625 5.796875 
C 13 9.6875 20 16.765625 28.5 24.9375 
C 34.59375 30.71875 41.703125 37.5 41.703125 47.390625 
C 41.703125 59.1875 32.296875 66 21.796875 66 
C 10.796875 66 4.09375 56.296875 4.09375 47.296875 
C 4.09375 43.390625 7 42.890625 8.203125 42.890625 
C 9.203125 42.890625 12.203125 43.484375 12.203125 46.984375 
C 12.203125 50.09375 9.59375 51 8.203125 51 
C 7.59375 51 7 50.890625 6.59375 50.6875 
C 8.5 59.1875 14.296875 63.390625 20.40625 63.390625 
C 29.09375 63.390625 34.796875 56.5 34.796875 47.390625 
C 34.796875 38.703125 29.703125 31.21875 24 24.734375 
L 4.09375 2.296875 
L 4.09375 0 
L 39.296875 0 
z
" id="CMR17-50"/>
      </defs>
      <g transform="translate(40.735963 204.143902)scale(0.1 -0.1)">
       <use transform="scale(0.996264)" xlink:href="#CMR17-49"/>
       <use transform="translate(45.690477 0)scale(0.996264)" xlink:href="#CMR17-48"/>
       <use transform="translate(91.380954 36.153639)scale(0.697382)" xlink:href="#CMSY10-0"/>
       <use transform="translate(145.621947 36.153639)scale(0.697382)" xlink:href="#CMR17-50"/>
      </g>
     </g>
    </g>
    <g id="xtick_2">
     <g id="line2d_3">
      <path clip-path="url(#p9bae10063e)" d="M 125.155182 190.225404 
L 125.155182 10.8 
" style="fill:none;stroke:#dddddd;stroke-linecap:square;stroke-width:0.5;"/>
     </g>
     <g id="line2d_4">
      <g>
       <use style="stroke:#000000;stroke-width:0.8;" x="125.155182" xlink:href="#m3217bf16ec" y="190.225404"/>
      </g>
     </g>
     <g id="text_2">
      <!-- $\mathdefault{10^{-1}}$ -->
      <g transform="translate(115.074895 204.143902)scale(0.1 -0.1)">
       <use transform="scale(0.996264)" xlink:href="#CMR17-49"/>
       <use transform="translate(45.690477 0)scale(0.996264)" xlink:href="#CMR17-48"/>
       <use transform="translate(91.380954 36.153639)scale(0.697382)" xlink:href="#CMSY10-0"/>
       <use transform="translate(145.621947 36.153639)scale(0.697382)" xlink:href="#CMR17-49"/>
      </g>
     </g>
    </g>
    <g id="xtick_3">
     <g id="line2d_5">
      <path clip-path="url(#p9bae10063e)" d="M 199.494114 190.225404 
L 199.494114 10.8 
" style="fill:none;stroke:#dddddd;stroke-linecap:square;stroke-width:0.5;"/>
     </g>
     <g id="line2d_6">
      <g>
       <use style="stroke:#000000;stroke-width:0.8;" x="199.494114" xlink:href="#m3217bf16ec" y="190.225404"/>
      </g>
     </g>
     <g id="text_3">
      <!-- $\mathdefault{10^{0}}$ -->
      <g transform="translate(192.52716 204.143902)scale(0.1 -0.1)">
       <use transform="scale(0.996264)" xlink:href="#CMR17-49"/>
       <use transform="translate(45.690477 0)scale(0.996264)" xlink:href="#CMR17-48"/>
       <use transform="translate(91.380954 36.153639)scale(0.697382)" xlink:href="#CMR17-48"/>
      </g>
     </g>
    </g>
    <g id="xtick_4">
     <g id="line2d_7">
      <path clip-path="url(#p9bae10063e)" d="M 273.833046 190.225404 
L 273.833046 10.8 
" style="fill:none;stroke:#dddddd;stroke-linecap:square;stroke-width:0.5;"/>
     </g>
     <g id="line2d_8">
      <g>
       <use style="stroke:#000000;stroke-width:0.8;" x="273.833046" xlink:href="#m3217bf16ec" y="190.225404"/>
      </g>
     </g>
     <g id="text_4">
      <!-- $\mathdefault{10^{1}}$ -->
      <g transform="translate(266.866092 204.143902)scale(0.1 -0.1)">
       <use transform="scale(0.996264)" xlink:href="#CMR17-49"/>
       <use transform="translate(45.690477 0)scale(0.996264)" xlink:href="#CMR17-48"/>
       <use transform="translate(91.380954 36.153639)scale(0.697382)" xlink:href="#CMR17-49"/>
      </g>
     </g>
    </g>
    <g id="xtick_5">
     <g id="line2d_9">
      <path clip-path="url(#p9bae10063e)" d="M 73.194498 190.225404 
L 73.194498 10.8 
" style="fill:none;stroke:#dddddd;stroke-linecap:square;stroke-width:0.5;"/>
     </g>
     <g id="line2d_10">
      <defs>
       <path d="M 0 0 
L 0 2 
" id="m352d845dca" style="stroke:#000000;stroke-width:0.6;"/>
      </defs>
      <g>
       <use style="stroke:#000000;stroke-width:0.6;" x="73.194498" xlink:href="#m352d845dca" y="190.225404"/>
      </g>
     </g>
    </g>
    <g id="xtick_6">
     <g id="line2d_11">
      <path clip-path="url(#p9bae10063e)" d="M 86.284935 190.225404 
L 86.284935 10.8 
" style="fill:none;stroke:#dddddd;stroke-linecap:square;stroke-width:0.5;"/>
     </g>
     <g id="line2d_12">
      <g>
       <use style="stroke:#000000;stroke-width:0.6;" x="86.284935" xlink:href="#m352d845dca" y="190.225404"/>
      </g>
     </g>
    </g>
    <g id="xtick_7">
     <g id="line2d_13">
      <path clip-path="url(#p9bae10063e)" d="M 95.572747 190.225404 
L 95.572747 10.8 
" style="fill:none;stroke:#dddddd;stroke-linecap:square;stroke-width:0.5;"/>
     </g>
     <g id="line2d_14">
      <g>
       <use style="stroke:#000000;stroke-width:0.6;" x="95.572747" xlink:href="#m352d845dca" y="190.225404"/>
      </g>
     </g>
    </g>
    <g id="xtick_8">
     <g id="line2d_15">
      <path clip-path="url(#p9bae10063e)" d="M 102.776934 190.225404 
L 102.776934 10.8 
" style="fill:none;stroke:#dddddd;stroke-linecap:square;stroke-width:0.5;"/>
     </g>
     <g id="line2d_16">
      <g>
       <use style="stroke:#000000;stroke-width:0.6;" x="102.776934" xlink:href="#m352d845dca" y="190.225404"/>
      </g>
     </g>
    </g>
    <g id="xtick_9">
     <g id="line2d_17">
      <path clip-path="url(#p9bae10063e)" d="M 108.663183 190.225404 
L 108.663183 10.8 
" style="fill:none;stroke:#dddddd;stroke-linecap:square;stroke-width:0.5;"/>
     </g>
     <g id="line2d_18">
      <g>
       <use style="stroke:#000000;stroke-width:0.6;" x="108.663183" xlink:href="#m352d845dca" y="190.225404"/>
      </g>
     </g>
    </g>
    <g id="xtick_10">
     <g id="line2d_19">
      <path clip-path="url(#p9bae10063e)" d="M 113.639936 190.225404 
L 113.639936 10.8 
" style="fill:none;stroke:#dddddd;stroke-linecap:square;stroke-width:0.5;"/>
     </g>
     <g id="line2d_20">
      <g>
       <use style="stroke:#000000;stroke-width:0.6;" x="113.639936" xlink:href="#m352d845dca" y="190.225404"/>
      </g>
     </g>
    </g>
    <g id="xtick_11">
     <g id="line2d_21">
      <path clip-path="url(#p9bae10063e)" d="M 117.950995 190.225404 
L 117.950995 10.8 
" style="fill:none;stroke:#dddddd;stroke-linecap:square;stroke-width:0.5;"/>
     </g>
     <g id="line2d_22">
      <g>
       <use style="stroke:#000000;stroke-width:0.6;" x="117.950995" xlink:href="#m352d845dca" y="190.225404"/>
      </g>
     </g>
    </g>
    <g id="xtick_12">
     <g id="line2d_23">
      <path clip-path="url(#p9bae10063e)" d="M 121.753619 190.225404 
L 121.753619 10.8 
" style="fill:none;stroke:#dddddd;stroke-linecap:square;stroke-width:0.5;"/>
     </g>
     <g id="line2d_24">
      <g>
       <use style="stroke:#000000;stroke-width:0.6;" x="121.753619" xlink:href="#m352d845dca" y="190.225404"/>
      </g>
     </g>
    </g>
    <g id="xtick_13">
     <g id="line2d_25">
      <path clip-path="url(#p9bae10063e)" d="M 147.53343 190.225404 
L 147.53343 10.8 
" style="fill:none;stroke:#dddddd;stroke-linecap:square;stroke-width:0.5;"/>
     </g>
     <g id="line2d_26">
      <g>
       <use style="stroke:#000000;stroke-width:0.6;" x="147.53343" xlink:href="#m352d845dca" y="190.225404"/>
      </g>
     </g>
    </g>
    <g id="xtick_14">
     <g id="line2d_27">
      <path clip-path="url(#p9bae10063e)" d="M 160.623867 190.225404 
L 160.623867 10.8 
" style="fill:none;stroke:#dddddd;stroke-linecap:square;stroke-width:0.5;"/>
     </g>
     <g id="line2d_28">
      <g>
       <use style="stroke:#000000;stroke-width:0.6;" x="160.623867" xlink:href="#m352d845dca" y="190.225404"/>
      </g>
     </g>
    </g>
    <g id="xtick_15">
     <g id="line2d_29">
      <path clip-path="url(#p9bae10063e)" d="M 169.911679 190.225404 
L 169.911679 10.8 
" style="fill:none;stroke:#dddddd;stroke-linecap:square;stroke-width:0.5;"/>
     </g>
     <g id="line2d_30">
      <g>
       <use style="stroke:#000000;stroke-width:0.6;" x="169.911679" xlink:href="#m352d845dca" y="190.225404"/>
      </g>
     </g>
    </g>
    <g id="xtick_16">
     <g id="line2d_31">
      <path clip-path="url(#p9bae10063e)" d="M 177.115866 190.225404 
L 177.115866 10.8 
" style="fill:none;stroke:#dddddd;stroke-linecap:square;stroke-width:0.5;"/>
     </g>
     <g id="line2d_32">
      <g>
       <use style="stroke:#000000;stroke-width:0.6;" x="177.115866" xlink:href="#m352d845dca" y="190.225404"/>
      </g>
     </g>
    </g>
    <g id="xtick_17">
     <g id="line2d_33">
      <path clip-path="url(#p9bae10063e)" d="M 183.002115 190.225404 
L 183.002115 10.8 
" style="fill:none;stroke:#dddddd;stroke-linecap:square;stroke-width:0.5;"/>
     </g>
     <g id="line2d_34">
      <g>
       <use style="stroke:#000000;stroke-width:0.6;" x="183.002115" xlink:href="#m352d845dca" y="190.225404"/>
      </g>
     </g>
    </g>
    <g id="xtick_18">
     <g id="line2d_35">
      <path clip-path="url(#p9bae10063e)" d="M 187.978868 190.225404 
L 187.978868 10.8 
" style="fill:none;stroke:#dddddd;stroke-linecap:square;stroke-width:0.5;"/>
     </g>
     <g id="line2d_36">
      <g>
       <use style="stroke:#000000;stroke-width:0.6;" x="187.978868" xlink:href="#m352d845dca" y="190.225404"/>
      </g>
     </g>
    </g>
    <g id="xtick_19">
     <g id="line2d_37">
      <path clip-path="url(#p9bae10063e)" d="M 192.289927 190.225404 
L 192.289927 10.8 
" style="fill:none;stroke:#dddddd;stroke-linecap:square;stroke-width:0.5;"/>
     </g>
     <g id="line2d_38">
      <g>
       <use style="stroke:#000000;stroke-width:0.6;" x="192.289927" xlink:href="#m352d845dca" y="190.225404"/>
      </g>
     </g>
    </g>
    <g id="xtick_20">
     <g id="line2d_39">
      <path clip-path="url(#p9bae10063e)" d="M 196.092551 190.225404 
L 196.092551 10.8 
" style="fill:none;stroke:#dddddd;stroke-linecap:square;stroke-width:0.5;"/>
     </g>
     <g id="line2d_40">
      <g>
       <use style="stroke:#000000;stroke-width:0.6;" x="196.092551" xlink:href="#m352d845dca" y="190.225404"/>
      </g>
     </g>
    </g>
    <g id="xtick_21">
     <g id="line2d_41">
      <path clip-path="url(#p9bae10063e)" d="M 221.872362 190.225404 
L 221.872362 10.8 
" style="fill:none;stroke:#dddddd;stroke-linecap:square;stroke-width:0.5;"/>
     </g>
     <g id="line2d_42">
      <g>
       <use style="stroke:#000000;stroke-width:0.6;" x="221.872362" xlink:href="#m352d845dca" y="190.225404"/>
      </g>
     </g>
    </g>
    <g id="xtick_22">
     <g id="line2d_43">
      <path clip-path="url(#p9bae10063e)" d="M 234.962798 190.225404 
L 234.962798 10.8 
" style="fill:none;stroke:#dddddd;stroke-linecap:square;stroke-width:0.5;"/>
     </g>
     <g id="line2d_44">
      <g>
       <use style="stroke:#000000;stroke-width:0.6;" x="234.962798" xlink:href="#m352d845dca" y="190.225404"/>
      </g>
     </g>
    </g>
    <g id="xtick_23">
     <g id="line2d_45">
      <path clip-path="url(#p9bae10063e)" d="M 244.250611 190.225404 
L 244.250611 10.8 
" style="fill:none;stroke:#dddddd;stroke-linecap:square;stroke-width:0.5;"/>
     </g>
     <g id="line2d_46">
      <g>
       <use style="stroke:#000000;stroke-width:0.6;" x="244.250611" xlink:href="#m352d845dca" y="190.225404"/>
      </g>
     </g>
    </g>
    <g id="xtick_24">
     <g id="line2d_47">
      <path clip-path="url(#p9bae10063e)" d="M 251.454798 190.225404 
L 251.454798 10.8 
" style="fill:none;stroke:#dddddd;stroke-linecap:square;stroke-width:0.5;"/>
     </g>
     <g id="line2d_48">
      <g>
       <use style="stroke:#000000;stroke-width:0.6;" x="251.454798" xlink:href="#m352d845dca" y="190.225404"/>
      </g>
     </g>
    </g>
    <g id="xtick_25">
     <g id="line2d_49">
      <path clip-path="url(#p9bae10063e)" d="M 257.341047 190.225404 
L 257.341047 10.8 
" style="fill:none;stroke:#dddddd;stroke-linecap:square;stroke-width:0.5;"/>
     </g>
     <g id="line2d_50">
      <g>
       <use style="stroke:#000000;stroke-width:0.6;" x="257.341047" xlink:href="#m352d845dca" y="190.225404"/>
      </g>
     </g>
    </g>
    <g id="xtick_26">
     <g id="line2d_51">
      <path clip-path="url(#p9bae10063e)" d="M 262.3178 190.225404 
L 262.3178 10.8 
" style="fill:none;stroke:#dddddd;stroke-linecap:square;stroke-width:0.5;"/>
     </g>
     <g id="line2d_52">
      <g>
       <use style="stroke:#000000;stroke-width:0.6;" x="262.3178" xlink:href="#m352d845dca" y="190.225404"/>
      </g>
     </g>
    </g>
    <g id="xtick_27">
     <g id="line2d_53">
      <path clip-path="url(#p9bae10063e)" d="M 266.628859 190.225404 
L 266.628859 10.8 
" style="fill:none;stroke:#dddddd;stroke-linecap:square;stroke-width:0.5;"/>
     </g>
     <g id="line2d_54">
      <g>
       <use style="stroke:#000000;stroke-width:0.6;" x="266.628859" xlink:href="#m352d845dca" y="190.225404"/>
      </g>
     </g>
    </g>
    <g id="xtick_28">
     <g id="line2d_55">
      <path clip-path="url(#p9bae10063e)" d="M 270.431483 190.225404 
L 270.431483 10.8 
" style="fill:none;stroke:#dddddd;stroke-linecap:square;stroke-width:0.5;"/>
     </g>
     <g id="line2d_56">
      <g>
       <use style="stroke:#000000;stroke-width:0.6;" x="270.431483" xlink:href="#m352d845dca" y="190.225404"/>
      </g>
     </g>
    </g>
    <g id="text_5">
     <!-- rate $\gamma$ [$\textrm{ns}^{-1}$] -->
     <defs>
      <path d="M 15 23.703125 
C 15 33.34375 19.09375 42.390625 26.59375 42.390625 
C 27.296875 42.390625 28 42.296875 28.703125 41.984375 
C 28.703125 41.984375 26.5 41.28125 26.5 38.671875 
C 26.5 36.265625 28.40625 35.265625 29.90625 35.265625 
C 31.09375 35.265625 33.296875 35.96875 33.296875 38.78125 
C 33.296875 41.984375 30.09375 44 26.703125 44 
C 19.09375 44 15.796875 36.5625 14.796875 33.046875 
L 14.703125 33.046875 
L 14.703125 44 
L 3.09375 42.890625 
L 3.09375 40.28125 
C 9 40.28125 9.90625 39.6875 9.90625 34.859375 
L 9.90625 6.921875 
C 9.90625 3.09375 9.5 2.59375 3.09375 2.59375 
L 3.09375 0 
C 5.5 0.1875 10.09375 0.1875 12.703125 0.1875 
C 15.59375 0.1875 20.703125 0.1875 23.40625 0 
L 23.40625 2.59375 
C 16.203125 2.59375 15 2.59375 15 7.109375 
z
" id="CMR17-114"/>
      <path d="M 36 25.875 
C 36 32 36 35.546875 31.796875 39.59375 
C 28.09375 42.984375 23.796875 44 20.40625 44 
C 12.5 44 6.796875 37.625 6.796875 30.890625 
C 6.796875 27.1875 9.796875 27 10.40625 27 
C 11.703125 27 14 27.796875 14 30.59375 
C 14 33.09375 12.09375 34.1875 10.40625 34.1875 
C 10 34.1875 9.5 34.09375 9.203125 34 
C 11.296875 40.53125 16.703125 42.390625 20.203125 42.390625 
C 25.203125 42.390625 30.703125 37.828125 30.703125 29.296875 
L 30.703125 25.5 
C 24.796875 25.296875 17.703125 24.5 12.09375 21.453125 
C 5.796875 17.921875 4 12.84375 4 9 
C 4 1.203125 13 -1 18.296875 -1 
C 23.796875 -1 28.90625 2.109375 31.09375 7.890625 
C 31.296875 3.421875 34.09375 -0.609375 38.5 -0.609375 
C 40.59375 -0.609375 45.90625 0.796875 45.90625 8.796875 
L 45.90625 14.46875 
L 44.09375 14.46875 
L 44.09375 8.703125 
C 44.09375 2.515625 41.40625 1.703125 40.09375 1.703125 
C 36 1.703125 36 6.96875 36 11.4375 
z
M 30.703125 13.859375 
C 30.703125 5.046875 24.5 0.59375 19 0.59375 
C 14 0.59375 10.09375 4.34375 10.09375 9 
C 10.09375 12.046875 11.40625 17.40625 17.203125 20.65625 
C 22 23.390625 27.5 23.796875 30.703125 24 
z
" id="CMR17-97"/>
      <path d="M 15.09375 40.390625 
L 29.09375 40.390625 
L 29.09375 43 
L 15.09375 43 
L 15.09375 62 
L 13.296875 62 
C 13.09375 51.4375 9.59375 42.1875 1.09375 41.984375 
L 1.09375 40.390625 
L 9.796875 40.390625 
L 9.796875 12.15625 
C 9.796875 10.234375 9.796875 -1 21.40625 -1 
C 27.296875 -1 30.703125 4.8125 30.703125 12.25 
L 30.703125 17.984375 
L 28.90625 17.984375 
L 28.90625 12.34375 
C 28.90625 5.421875 26.203125 0.796875 22 0.796875 
C 19.09375 0.796875 15.09375 2.796875 15.09375 11.953125 
z
" id="CMR17-116"/>
      <path d="M 38.09375 23.484375 
C 38.5 23.890625 38.5 24.09375 38.5 25.09375 
C 38.5 35.171875 33.09375 44 21.703125 44 
C 11.09375 44 2.703125 33.984375 2.703125 21.78125 
C 2.703125 8.65625 12.203125 -1 22.796875 -1 
C 34 -1 38.40625 9.671875 38.40625 11.796875 
C 38.40625 12.5 37.796875 12.5 37.59375 12.5 
C 36.90625 12.5 36.796875 12.296875 36.40625 11.078125 
C 34.203125 4.21875 28.703125 0.796875 23.5 0.796875 
C 19.203125 0.796875 14.90625 3.21875 12.203125 7.65625 
C 9.09375 12.796875 9.09375 18.75 9.09375 23.484375 
z
M 9.203125 25 
C 9.90625 39.234375 17.59375 42.390625 21.59375 42.390625 
C 28.40625 42.390625 33 36.0625 33.09375 25 
z
" id="CMR17-101"/>
      <path d="M 37.796875 12.265625 
C 37.59375 17.140625 37.40625 24.78125 33.59375 33.71875 
C 31.59375 38.6875 28.203125 44 20.90625 44 
C 8.59375 44 1.90625 28.359375 1.90625 25.765625 
C 1.90625 24.875 2.59375 24.875 2.90625 24.875 
C 3.796875 24.875 3.796875 25.078125 4.296875 26.375 
C 6.40625 32.515625 12.796875 37.390625 19.703125 37.390625 
C 33.59375 37.390625 35.59375 22 35.59375 12.171875 
C 35.59375 5.90625 34.90625 3.828125 34.296875 1.84375 
C 32.40625 -4.3125 29.09375 -16.625 29.09375 -19.40625 
C 29.09375 -20.203125 29.40625 -21.109375 30.203125 -21.109375 
C 31.703125 -21.109375 32.59375 -17.8125 33.703125 -13.84375 
C 36.09375 -5.109375 36.703125 -0.734375 37.203125 3.234375 
C 37.5 5.625 43.203125 22.015625 51.09375 37.609375 
C 51.796875 39.203125 53.203125 41.890625 53.203125 42.1875 
C 53.203125 42.296875 53.09375 43 52.203125 43 
C 52 43 51.5 43 51.296875 42.59375 
C 51.09375 42.390625 47.59375 35.625 44.59375 28.875 
C 43.09375 25.46875 41.09375 21 37.796875 12.265625 
z
" id="CMMI12-13"/>
      <path d="M 23.5 -25 
L 23.5 -21.5 
L 14.09375 -21.5 
L 14.09375 71.484375 
L 23.5 71.484375 
L 23.5 75 
L 10.59375 75 
L 10.59375 -25 
z
" id="CMR17-91"/>
      <path d="M 41.5 30.53125 
C 41.5 35.65625 40.5 44 28.703125 44 
C 20.796875 44 16.703125 37.875 15.203125 33.84375 
L 15.09375 33.84375 
L 15.09375 44 
L 3.296875 42.890625 
L 3.296875 40.28125 
C 9.203125 40.28125 10.09375 39.6875 10.09375 34.859375 
L 10.09375 6.921875 
C 10.09375 3.09375 9.703125 2.59375 3.296875 2.59375 
L 3.296875 0 
C 5.703125 0.1875 10.09375 0.1875 12.703125 0.1875 
C 15.296875 0.1875 19.796875 0.1875 22.203125 0 
L 22.203125 2.59375 
C 15.796875 2.59375 15.40625 3 15.40625 6.921875 
L 15.40625 26.21875 
C 15.40625 35.453125 21 42.390625 28 42.390625 
C 35.40625 42.390625 36.203125 35.765625 36.203125 30.9375 
L 36.203125 6.921875 
C 36.203125 3.09375 35.796875 2.59375 29.40625 2.59375 
L 29.40625 0 
C 31.796875 0.1875 36.203125 0.1875 38.796875 0.1875 
C 41.40625 0.1875 45.90625 0.1875 48.296875 0 
L 48.296875 2.59375 
C 41.90625 2.59375 41.5 3 41.5 6.921875 
z
" id="CMR17-110"/>
      <path d="M 30.90625 42 
C 30.90625 43.796875 30.796875 43.890625 30.203125 43.890625 
C 29.796875 43.890625 29.703125 43.796875 28.5 42.296875 
C 28.203125 41.890625 27.296875 40.890625 27 40.5 
C 23.796875 43.890625 19.296875 44 17.59375 44 
C 6.5 44 2.5 38.1875 2.5 32.390625 
C 2.5 23.390625 12.703125 21.296875 15.59375 20.6875 
C 21.90625 19.390625 24.09375 19 26.203125 17.1875 
C 27.5 16 29.703125 13.796875 29.703125 10.1875 
C 29.703125 6 27.296875 0.59375 18.09375 0.59375 
C 9.40625 0.59375 6.296875 7.1875 4.5 16 
C 4.203125 17.390625 4.203125 17.5 3.40625 17.5 
C 2.59375 17.5 2.5 17.390625 2.5 15.390625 
L 2.5 1 
C 2.5 -0.8125 2.59375 -0.90625 3.203125 -0.90625 
C 3.703125 -0.90625 3.796875 -0.8125 4.296875 0 
C 4.90625 0.890625 6.40625 3.296875 7 4.296875 
C 9 1.59375 12.5 -1 18.09375 -1 
C 28 -1 33.296875 4.390625 33.296875 12.1875 
C 33.296875 17.296875 30.59375 20 29.296875 21.1875 
C 26.296875 24.296875 22.796875 25 18.59375 25.796875 
C 13.09375 27 6.09375 28.390625 6.09375 34.5 
C 6.09375 37.09375 7.5 42.59375 17.59375 42.59375 
C 28.296875 42.59375 28.90625 32.59375 29.09375 29.390625 
C 29.203125 28.890625 29.703125 28.796875 30 28.796875 
C 30.90625 28.796875 30.90625 29.09375 30.90625 30.796875 
z
" id="CMR17-115"/>
      <path d="M 14.296875 75 
L 1.40625 75 
L 1.40625 71.484375 
L 10.796875 71.484375 
L 10.796875 -21.5 
L 1.40625 -21.5 
L 1.40625 -25 
L 14.296875 -25 
z
" id="CMR17-93"/>
     </defs>
     <g transform="translate(134.707578 218.1907)scale(0.1 -0.1)">
      <use transform="scale(0.996264)" xlink:href="#CMR17-114"/>
      <use transform="translate(35.280768 0)scale(0.996264)" xlink:href="#CMR17-97"/>
      <use transform="translate(80.971245 0)scale(0.996264)" xlink:href="#CMR17-116"/>
      <use transform="translate(116.252013 0)scale(0.996264)" xlink:href="#CMR17-101"/>
      <use transform="translate(186.81364 0)scale(0.996264)" xlink:href="#CMMI12-13"/>
      <use transform="translate(272.908174 0)scale(0.996264)" xlink:href="#CMR17-91"/>
      <use transform="translate(297.779232 0)scale(0.996264)" xlink:href="#CMR17-110"/>
      <use transform="translate(348.674602 0)scale(0.996264)" xlink:href="#CMR17-115"/>
      <use transform="translate(384.47594 36.153639)scale(0.697382)" xlink:href="#CMSY10-0"/>
      <use transform="translate(438.716933 36.153639)scale(0.697382)" xlink:href="#CMR17-49"/>
      <use transform="translate(471.198247 0)scale(0.996264)" xlink:href="#CMR17-93"/>
     </g>
    </g>
   </g>
   <g id="matplotlib.axis_2">
    <g id="ytick_1">
     <g id="line2d_57">
      <path clip-path="url(#p9bae10063e)" d="M 50.81625 158.093752 
L 273.833046 158.093752 
" style="fill:none;stroke:#dddddd;stroke-linecap:square;stroke-width:0.5;"/>
     </g>
     <g id="line2d_58">
      <defs>
       <path d="M 0 0 
L -3.5 0 
" id="m385d2293bb" style="stroke:#000000;stroke-width:0.8;"/>
      </defs>
      <g>
       <use style="stroke:#000000;stroke-width:0.8;" x="50.81625" xlink:href="#m385d2293bb" y="158.093752"/>
      </g>
     </g>
     <g id="text_6">
      <!-- $\mathdefault{10^{-4}}$ -->
      <defs>
       <path d="M 33.59375 64.796875 
C 33.59375 66.890625 33.5 67 31.703125 67 
L 2 19.59375 
L 2 17 
L 27.796875 17 
L 27.796875 7.1875 
C 27.796875 3.59375 27.59375 2.59375 20.59375 2.59375 
L 18.703125 2.59375 
L 18.703125 0 
C 21.90625 0.1875 27.296875 0.1875 30.703125 0.1875 
C 34.09375 0.1875 39.5 0.1875 42.703125 0 
L 42.703125 2.59375 
L 40.796875 2.59375 
C 33.796875 2.59375 33.59375 3.59375 33.59375 7.1875 
L 33.59375 17 
L 43.796875 17 
L 43.796875 19.59375 
L 33.59375 19.59375 
z
M 28.09375 58.171875 
L 28.09375 19.59375 
L 4 19.59375 
z
" id="CMR17-52"/>
      </defs>
      <g transform="translate(23.655677 161.553001)scale(0.1 -0.1)">
       <use transform="scale(0.996264)" xlink:href="#CMR17-49"/>
       <use transform="translate(45.690477 0)scale(0.996264)" xlink:href="#CMR17-48"/>
       <use transform="translate(91.380954 36.153639)scale(0.697382)" xlink:href="#CMSY10-0"/>
       <use transform="translate(145.621947 36.153639)scale(0.697382)" xlink:href="#CMR17-52"/>
      </g>
     </g>
    </g>
    <g id="ytick_2">
     <g id="line2d_59">
      <path clip-path="url(#p9bae10063e)" d="M 50.81625 100.348041 
L 273.833046 100.348041 
" style="fill:none;stroke:#dddddd;stroke-linecap:square;stroke-width:0.5;"/>
     </g>
     <g id="line2d_60">
      <g>
       <use style="stroke:#000000;stroke-width:0.8;" x="50.81625" xlink:href="#m385d2293bb" y="100.348041"/>
      </g>
     </g>
     <g id="text_7">
      <!-- $\mathdefault{10^{-3}}$ -->
      <defs>
       <path d="M 22.09375 34 
C 31 34 34.90625 26.140625 34.90625 17.09375 
C 34.90625 5.03125 28.5 0.390625 22.703125 0.390625 
C 17.40625 0.390625 8.796875 3.015625 6.09375 10.796875 
C 6.59375 10.59375 7.09375 10.59375 7.59375 10.59375 
C 10 10.59375 11.796875 12.1875 11.796875 14.796875 
C 11.796875 17.6875 9.59375 19 7.59375 19 
C 5.90625 19 3.296875 18.1875 3.296875 14.484375 
C 3.296875 5.234375 12.296875 -2 22.90625 -2 
C 34 -2 42.5 6.75 42.5 16.984375 
C 42.5 26.84375 34.5 34 25 35.09375 
C 32.59375 36.671875 39.90625 43.375 39.90625 52.390625 
C 39.90625 60.25 32 66 23 66 
C 13.90625 66 5.90625 60.34375 5.90625 52.296875 
C 5.90625 48.796875 8.5 48.1875 9.796875 48.1875 
C 11.90625 48.1875 13.703125 49.484375 13.703125 52.09375 
C 13.703125 54.6875 11.90625 56 9.796875 56 
C 9.40625 56 8.90625 56 8.5 55.796875 
C 11.40625 62.484375 19.296875 63.6875 22.796875 63.6875 
C 26.296875 63.6875 32.90625 61.96875 32.90625 52.296875 
C 32.90625 49.484375 32.5 44.546875 29.09375 40.21875 
C 26.09375 36.390625 22.703125 36.1875 19.40625 35.890625 
C 18.90625 35.890625 16.59375 35.6875 16.203125 35.6875 
C 15.5 35.59375 15.09375 35.5 15.09375 34.796875 
C 15.09375 34.09375 15.203125 34 17.203125 34 
z
" id="CMR17-51"/>
      </defs>
      <g transform="translate(23.655677 103.807291)scale(0.1 -0.1)">
       <use transform="scale(0.996264)" xlink:href="#CMR17-49"/>
       <use transform="translate(45.690477 0)scale(0.996264)" xlink:href="#CMR17-48"/>
       <use transform="translate(91.380954 36.153639)scale(0.697382)" xlink:href="#CMSY10-0"/>
       <use transform="translate(145.621947 36.153639)scale(0.697382)" xlink:href="#CMR17-51"/>
      </g>
     </g>
    </g>
    <g id="ytick_3">
     <g id="line2d_61">
      <path clip-path="url(#p9bae10063e)" d="M 50.81625 42.602331 
L 273.833046 42.602331 
" style="fill:none;stroke:#dddddd;stroke-linecap:square;stroke-width:0.5;"/>
     </g>
     <g id="line2d_62">
      <g>
       <use style="stroke:#000000;stroke-width:0.8;" x="50.81625" xlink:href="#m385d2293bb" y="42.602331"/>
      </g>
     </g>
     <g id="text_8">
      <!-- $\mathdefault{10^{-2}}$ -->
      <g transform="translate(23.655677 46.06158)scale(0.1 -0.1)">
       <use transform="scale(0.996264)" xlink:href="#CMR17-49"/>
       <use transform="translate(45.690477 0)scale(0.996264)" xlink:href="#CMR17-48"/>
       <use transform="translate(91.380954 36.153639)scale(0.697382)" xlink:href="#CMSY10-0"/>
       <use transform="translate(145.621947 36.153639)scale(0.697382)" xlink:href="#CMR17-50"/>
      </g>
     </g>
    </g>
    <g id="ytick_4">
     <g id="line2d_63">
      <path clip-path="url(#p9bae10063e)" d="M 50.81625 188.287756 
L 273.833046 188.287756 
" style="fill:none;stroke:#dddddd;stroke-linecap:square;stroke-width:0.5;"/>
     </g>
     <g id="line2d_64">
      <defs>
       <path d="M 0 0 
L -2 0 
" id="m3e26d75b5c" style="stroke:#000000;stroke-width:0.6;"/>
      </defs>
      <g>
       <use style="stroke:#000000;stroke-width:0.6;" x="50.81625" xlink:href="#m3e26d75b5c" y="188.287756"/>
      </g>
     </g>
    </g>
    <g id="ytick_5">
     <g id="line2d_65">
      <path clip-path="url(#p9bae10063e)" d="M 50.81625 181.07308 
L 273.833046 181.07308 
" style="fill:none;stroke:#dddddd;stroke-linecap:square;stroke-width:0.5;"/>
     </g>
     <g id="line2d_66">
      <g>
       <use style="stroke:#000000;stroke-width:0.6;" x="50.81625" xlink:href="#m3e26d75b5c" y="181.07308"/>
      </g>
     </g>
    </g>
    <g id="ytick_6">
     <g id="line2d_67">
      <path clip-path="url(#p9bae10063e)" d="M 50.81625 175.476943 
L 273.833046 175.476943 
" style="fill:none;stroke:#dddddd;stroke-linecap:square;stroke-width:0.5;"/>
     </g>
     <g id="line2d_68">
      <g>
       <use style="stroke:#000000;stroke-width:0.6;" x="50.81625" xlink:href="#m3e26d75b5c" y="175.476943"/>
      </g>
     </g>
    </g>
    <g id="ytick_7">
     <g id="line2d_69">
      <path clip-path="url(#p9bae10063e)" d="M 50.81625 170.904565 
L 273.833046 170.904565 
" style="fill:none;stroke:#dddddd;stroke-linecap:square;stroke-width:0.5;"/>
     </g>
     <g id="line2d_70">
      <g>
       <use style="stroke:#000000;stroke-width:0.6;" x="50.81625" xlink:href="#m3e26d75b5c" y="170.904565"/>
      </g>
     </g>
    </g>
    <g id="ytick_8">
     <g id="line2d_71">
      <path clip-path="url(#p9bae10063e)" d="M 50.81625 167.038675 
L 273.833046 167.038675 
" style="fill:none;stroke:#dddddd;stroke-linecap:square;stroke-width:0.5;"/>
     </g>
     <g id="line2d_72">
      <g>
       <use style="stroke:#000000;stroke-width:0.6;" x="50.81625" xlink:href="#m3e26d75b5c" y="167.038675"/>
      </g>
     </g>
    </g>
    <g id="ytick_9">
     <g id="line2d_73">
      <path clip-path="url(#p9bae10063e)" d="M 50.81625 163.689889 
L 273.833046 163.689889 
" style="fill:none;stroke:#dddddd;stroke-linecap:square;stroke-width:0.5;"/>
     </g>
     <g id="line2d_74">
      <g>
       <use style="stroke:#000000;stroke-width:0.6;" x="50.81625" xlink:href="#m3e26d75b5c" y="163.689889"/>
      </g>
     </g>
    </g>
    <g id="ytick_10">
     <g id="line2d_75">
      <path clip-path="url(#p9bae10063e)" d="M 50.81625 160.73605 
L 273.833046 160.73605 
" style="fill:none;stroke:#dddddd;stroke-linecap:square;stroke-width:0.5;"/>
     </g>
     <g id="line2d_76">
      <g>
       <use style="stroke:#000000;stroke-width:0.6;" x="50.81625" xlink:href="#m3e26d75b5c" y="160.73605"/>
      </g>
     </g>
    </g>
    <g id="ytick_11">
     <g id="line2d_77">
      <path clip-path="url(#p9bae10063e)" d="M 50.81625 140.710561 
L 273.833046 140.710561 
" style="fill:none;stroke:#dddddd;stroke-linecap:square;stroke-width:0.5;"/>
     </g>
     <g id="line2d_78">
      <g>
       <use style="stroke:#000000;stroke-width:0.6;" x="50.81625" xlink:href="#m3e26d75b5c" y="140.710561"/>
      </g>
     </g>
    </g>
    <g id="ytick_12">
     <g id="line2d_79">
      <path clip-path="url(#p9bae10063e)" d="M 50.81625 130.542046 
L 273.833046 130.542046 
" style="fill:none;stroke:#dddddd;stroke-linecap:square;stroke-width:0.5;"/>
     </g>
     <g id="line2d_80">
      <g>
       <use style="stroke:#000000;stroke-width:0.6;" x="50.81625" xlink:href="#m3e26d75b5c" y="130.542046"/>
      </g>
     </g>
    </g>
    <g id="ytick_13">
     <g id="line2d_81">
      <path clip-path="url(#p9bae10063e)" d="M 50.81625 123.32737 
L 273.833046 123.32737 
" style="fill:none;stroke:#dddddd;stroke-linecap:square;stroke-width:0.5;"/>
     </g>
     <g id="line2d_82">
      <g>
       <use style="stroke:#000000;stroke-width:0.6;" x="50.81625" xlink:href="#m3e26d75b5c" y="123.32737"/>
      </g>
     </g>
    </g>
    <g id="ytick_14">
     <g id="line2d_83">
      <path clip-path="url(#p9bae10063e)" d="M 50.81625 117.731232 
L 273.833046 117.731232 
" style="fill:none;stroke:#dddddd;stroke-linecap:square;stroke-width:0.5;"/>
     </g>
     <g id="line2d_84">
      <g>
       <use style="stroke:#000000;stroke-width:0.6;" x="50.81625" xlink:href="#m3e26d75b5c" y="117.731232"/>
      </g>
     </g>
    </g>
    <g id="ytick_15">
     <g id="line2d_85">
      <path clip-path="url(#p9bae10063e)" d="M 50.81625 113.158855 
L 273.833046 113.158855 
" style="fill:none;stroke:#dddddd;stroke-linecap:square;stroke-width:0.5;"/>
     </g>
     <g id="line2d_86">
      <g>
       <use style="stroke:#000000;stroke-width:0.6;" x="50.81625" xlink:href="#m3e26d75b5c" y="113.158855"/>
      </g>
     </g>
    </g>
    <g id="ytick_16">
     <g id="line2d_87">
      <path clip-path="url(#p9bae10063e)" d="M 50.81625 109.292965 
L 273.833046 109.292965 
" style="fill:none;stroke:#dddddd;stroke-linecap:square;stroke-width:0.5;"/>
     </g>
     <g id="line2d_88">
      <g>
       <use style="stroke:#000000;stroke-width:0.6;" x="50.81625" xlink:href="#m3e26d75b5c" y="109.292965"/>
      </g>
     </g>
    </g>
    <g id="ytick_17">
     <g id="line2d_89">
      <path clip-path="url(#p9bae10063e)" d="M 50.81625 105.944179 
L 273.833046 105.944179 
" style="fill:none;stroke:#dddddd;stroke-linecap:square;stroke-width:0.5;"/>
     </g>
     <g id="line2d_90">
      <g>
       <use style="stroke:#000000;stroke-width:0.6;" x="50.81625" xlink:href="#m3e26d75b5c" y="105.944179"/>
      </g>
     </g>
    </g>
    <g id="ytick_18">
     <g id="line2d_91">
      <path clip-path="url(#p9bae10063e)" d="M 50.81625 102.99034 
L 273.833046 102.99034 
" style="fill:none;stroke:#dddddd;stroke-linecap:square;stroke-width:0.5;"/>
     </g>
     <g id="line2d_92">
      <g>
       <use style="stroke:#000000;stroke-width:0.6;" x="50.81625" xlink:href="#m3e26d75b5c" y="102.99034"/>
      </g>
     </g>
    </g>
    <g id="ytick_19">
     <g id="line2d_93">
      <path clip-path="url(#p9bae10063e)" d="M 50.81625 82.96485 
L 273.833046 82.96485 
" style="fill:none;stroke:#dddddd;stroke-linecap:square;stroke-width:0.5;"/>
     </g>
     <g id="line2d_94">
      <g>
       <use style="stroke:#000000;stroke-width:0.6;" x="50.81625" xlink:href="#m3e26d75b5c" y="82.96485"/>
      </g>
     </g>
    </g>
    <g id="ytick_20">
     <g id="line2d_95">
      <path clip-path="url(#p9bae10063e)" d="M 50.81625 72.796336 
L 273.833046 72.796336 
" style="fill:none;stroke:#dddddd;stroke-linecap:square;stroke-width:0.5;"/>
     </g>
     <g id="line2d_96">
      <g>
       <use style="stroke:#000000;stroke-width:0.6;" x="50.81625" xlink:href="#m3e26d75b5c" y="72.796336"/>
      </g>
     </g>
    </g>
    <g id="ytick_21">
     <g id="line2d_97">
      <path clip-path="url(#p9bae10063e)" d="M 50.81625 65.581659 
L 273.833046 65.581659 
" style="fill:none;stroke:#dddddd;stroke-linecap:square;stroke-width:0.5;"/>
     </g>
     <g id="line2d_98">
      <g>
       <use style="stroke:#000000;stroke-width:0.6;" x="50.81625" xlink:href="#m3e26d75b5c" y="65.581659"/>
      </g>
     </g>
    </g>
    <g id="ytick_22">
     <g id="line2d_99">
      <path clip-path="url(#p9bae10063e)" d="M 50.81625 59.985522 
L 273.833046 59.985522 
" style="fill:none;stroke:#dddddd;stroke-linecap:square;stroke-width:0.5;"/>
     </g>
     <g id="line2d_100">
      <g>
       <use style="stroke:#000000;stroke-width:0.6;" x="50.81625" xlink:href="#m3e26d75b5c" y="59.985522"/>
      </g>
     </g>
    </g>
    <g id="ytick_23">
     <g id="line2d_101">
      <path clip-path="url(#p9bae10063e)" d="M 50.81625 55.413145 
L 273.833046 55.413145 
" style="fill:none;stroke:#dddddd;stroke-linecap:square;stroke-width:0.5;"/>
     </g>
     <g id="line2d_102">
      <g>
       <use style="stroke:#000000;stroke-width:0.6;" x="50.81625" xlink:href="#m3e26d75b5c" y="55.413145"/>
      </g>
     </g>
    </g>
    <g id="ytick_24">
     <g id="line2d_103">
      <path clip-path="url(#p9bae10063e)" d="M 50.81625 51.547255 
L 273.833046 51.547255 
" style="fill:none;stroke:#dddddd;stroke-linecap:square;stroke-width:0.5;"/>
     </g>
     <g id="line2d_104">
      <g>
       <use style="stroke:#000000;stroke-width:0.6;" x="50.81625" xlink:href="#m3e26d75b5c" y="51.547255"/>
      </g>
     </g>
    </g>
    <g id="ytick_25">
     <g id="line2d_105">
      <path clip-path="url(#p9bae10063e)" d="M 50.81625 48.198469 
L 273.833046 48.198469 
" style="fill:none;stroke:#dddddd;stroke-linecap:square;stroke-width:0.5;"/>
     </g>
     <g id="line2d_106">
      <g>
       <use style="stroke:#000000;stroke-width:0.6;" x="50.81625" xlink:href="#m3e26d75b5c" y="48.198469"/>
      </g>
     </g>
    </g>
    <g id="ytick_26">
     <g id="line2d_107">
      <path clip-path="url(#p9bae10063e)" d="M 50.81625 45.24463 
L 273.833046 45.24463 
" style="fill:none;stroke:#dddddd;stroke-linecap:square;stroke-width:0.5;"/>
     </g>
     <g id="line2d_108">
      <g>
       <use style="stroke:#000000;stroke-width:0.6;" x="50.81625" xlink:href="#m3e26d75b5c" y="45.24463"/>
      </g>
     </g>
    </g>
    <g id="ytick_27">
     <g id="line2d_109">
      <path clip-path="url(#p9bae10063e)" d="M 50.81625 25.21914 
L 273.833046 25.21914 
" style="fill:none;stroke:#dddddd;stroke-linecap:square;stroke-width:0.5;"/>
     </g>
     <g id="line2d_110">
      <g>
       <use style="stroke:#000000;stroke-width:0.6;" x="50.81625" xlink:href="#m3e26d75b5c" y="25.21914"/>
      </g>
     </g>
    </g>
    <g id="ytick_28">
     <g id="line2d_111">
      <path clip-path="url(#p9bae10063e)" d="M 50.81625 15.050625 
L 273.833046 15.050625 
" style="fill:none;stroke:#dddddd;stroke-linecap:square;stroke-width:0.5;"/>
     </g>
     <g id="line2d_112">
      <g>
       <use style="stroke:#000000;stroke-width:0.6;" x="50.81625" xlink:href="#m3e26d75b5c" y="15.050625"/>
      </g>
     </g>
    </g>
    <g id="text_9">
     <!-- conversion error $\epsilon$ -->
     <defs>
      <path d="M 34.90625 35 
C 33 35 30.203125 35 30.203125 31.484375 
C 30.203125 28.6875 32.5 27.890625 33.796875 27.890625 
C 34.5 27.890625 37.40625 28.1875 37.40625 31.6875 
C 37.40625 38.6875 30.59375 44 22.90625 44 
C 12.296875 44 3.296875 34.390625 3.296875 21.546875 
C 3.296875 8.140625 12.703125 -1 22.90625 -1 
C 35.296875 -1 38.40625 10.5625 38.40625 11.671875 
C 38.40625 12.078125 38.296875 12.375 37.59375 12.375 
C 36.90625 12.375 36.796875 12.28125 36.40625 10.96875 
C 33.796875 2.8125 28.09375 0.796875 23.796875 0.796875 
C 17.40625 0.796875 9.703125 6.734375 9.703125 21.640625 
C 9.703125 36.84375 17.09375 42.1875 23 42.1875 
C 26.90625 42.1875 32.703125 40.34375 34.90625 35 
z
" id="CMR17-99"/>
      <path d="M 43.09375 21.1875 
C 43.09375 34 33.796875 44 22.90625 44 
C 12 44 2.703125 34 2.703125 21.1875 
C 2.703125 8.59375 12 -1 22.90625 -1 
C 33.796875 -1 43.09375 8.59375 43.09375 21.1875 
z
M 22.90625 0.796875 
C 18.203125 0.796875 14.203125 3.59375 11.90625 7.5 
C 9.40625 12 9.09375 17.59375 9.09375 22 
C 9.09375 26.1875 9.296875 31.390625 11.90625 35.890625 
C 13.90625 39.1875 17.796875 42.390625 22.90625 42.390625 
C 27.40625 42.390625 31.203125 39.890625 33.59375 36.390625 
C 36.703125 31.6875 36.703125 25.09375 36.703125 22 
C 36.703125 18.09375 36.5 12.09375 33.796875 7.296875 
C 31 2.6875 26.703125 0.796875 22.90625 0.796875 
z
" id="CMR17-111"/>
      <path d="M 39.09375 33.953125 
C 40 36.171875 41.59375 40.1875 47.40625 40.390625 
L 47.40625 43 
C 45.5 42.890625 43 42.796875 41.09375 42.796875 
C 39 42.796875 35.703125 42.796875 33.703125 43 
L 33.703125 40.390625 
C 36.203125 40.1875 37.59375 38.984375 37.59375 36.375 
C 37.59375 35.46875 37.59375 35.265625 37 33.859375 
L 26 5.921875 
L 14.09375 36.0625 
C 13.5 37.375 13.5 37.578125 13.5 37.984375 
C 13.5 40.390625 16.796875 40.390625 18.296875 40.390625 
L 18.296875 43 
C 15.90625 42.796875 11.5 42.796875 9 42.796875 
C 6.296875 42.796875 3.203125 42.796875 1 43 
L 1 40.390625 
C 4.796875 40.390625 6.90625 40.390625 8.09375 37.28125 
L 22.59375 0.6875 
C 23.203125 -0.8125 23.296875 -1 24.203125 -1 
C 25.09375 -1 25.203125 -0.8125 25.796875 0.6875 
z
" id="CMR17-118"/>
      <path d="M 15.5 61.890625 
C 15.5 64.09375 13.703125 66 11.40625 66 
C 9.203125 66 7.296875 64.1875 7.296875 61.890625 
C 7.296875 59.6875 9.09375 57.796875 11.40625 57.796875 
C 13.59375 57.796875 15.5 59.59375 15.5 61.890625 
z
M 3.796875 42.890625 
L 3.796875 40.296875 
C 9.40625 40.296875 10.203125 39.6875 10.203125 34.859375 
L 10.203125 6.921875 
C 10.203125 3.09375 9.796875 2.59375 3.40625 2.59375 
L 3.40625 0 
C 5.796875 0.1875 10.09375 0.1875 12.59375 0.1875 
C 15 0.1875 19.09375 0.1875 21.40625 0 
L 21.40625 2.59375 
C 15.5 2.59375 15.296875 3.203125 15.296875 6.8125 
L 15.296875 44 
z
" id="CMR17-105"/>
      <path d="M 29.09375 23 
C 30.59375 23 32.296875 23 32.296875 24.59375 
C 32.296875 25.890625 31.296875 25.890625 29.5 25.890625 
L 13.296875 25.890625 
C 15.796875 34.75 21.703125 40.09375 30.59375 40.09375 
L 33.5 40.09375 
C 35.203125 40.09375 36.703125 40.09375 36.703125 41.6875 
C 36.703125 43 35.59375 43 33.796875 43 
L 30.40625 43 
C 18.09375 43 4.59375 33.375 4.59375 17.828125 
C 4.59375 6.5625 12.09375 -1 22 -1 
C 28.40625 -1 34.703125 3.015625 34.703125 4.03125 
C 34.703125 4.640625 34.40625 5.25 33.796875 5.25 
C 33.5 5.25 33.296875 5.15625 32.796875 4.75 
C 29 2.203125 25.296875 1 22.296875 1 
C 17 1 11.40625 4.546875 11.40625 14.375 
C 11.40625 16.296875 11.59375 18.9375 12.5 23 
z
" id="CMMI12-15"/>
     </defs>
     <g transform="translate(17.718498 139.009019)rotate(-90)scale(0.1 -0.1)">
      <use transform="scale(0.996264)" xlink:href="#CMR17-99"/>
      <use transform="translate(40.48566 0)scale(0.996264)" xlink:href="#CMR17-111"/>
      <use transform="translate(86.176138 0)scale(0.996264)" xlink:href="#CMR17-110"/>
      <use transform="translate(134.469053 0)scale(0.996264)" xlink:href="#CMR17-118"/>
      <use transform="translate(180.159515 0)scale(0.996264)" xlink:href="#CMR17-101"/>
      <use transform="translate(220.645176 0)scale(0.996264)" xlink:href="#CMR17-114"/>
      <use transform="translate(255.925944 0)scale(0.996264)" xlink:href="#CMR17-115"/>
      <use transform="translate(291.727281 0)scale(0.996264)" xlink:href="#CMR17-105"/>
      <use transform="translate(316.59834 0)scale(0.996264)" xlink:href="#CMR17-111"/>
      <use transform="translate(362.288817 0)scale(0.996264)" xlink:href="#CMR17-110"/>
      <use transform="translate(443.260153 0)scale(0.996264)" xlink:href="#CMR17-101"/>
      <use transform="translate(483.745813 0)scale(0.996264)" xlink:href="#CMR17-114"/>
      <use transform="translate(519.026581 0)scale(0.996264)" xlink:href="#CMR17-114"/>
      <use transform="translate(554.307349 0)scale(0.996264)" xlink:href="#CMR17-111"/>
      <use transform="translate(599.997826 0)scale(0.996264)" xlink:href="#CMR17-114"/>
      <use transform="translate(665.35456 0)scale(0.996264)" xlink:href="#CMMI12-15"/>
     </g>
    </g>
   </g>
   <g id="line2d_113">
    <path clip-path="url(#p9bae10063e)" d="M 273.833046 37.734035 
L 269.37271 32.816288 
L 264.912374 33.365997 
L 260.452038 37.538062 
L 255.991702 35.504513 
L 251.531366 35.269826 
L 247.07103 33.833124 
L 242.610695 37.520754 
L 238.150359 34.219117 
L 233.690023 33.455854 
L 229.229687 33.953197 
L 224.769351 35.653788 
L 220.309015 32.979608 
L 215.848679 34.788343 
L 211.388343 32.644026 
L 206.928007 38.328744 
L 202.467671 40.107175 
L 198.007335 38.941536 
L 193.546999 36.231429 
L 189.086664 42.066495 
L 184.626328 41.898476 
L 180.165992 38.861847 
L 175.705656 40.495801 
L 171.24532 41.346844 
L 166.784984 40.504182 
L 162.324648 41.880543 
L 157.864312 42.479545 
L 153.403976 40.512974 
L 148.94364 42.288777 
L 144.483304 42.768219 
L 140.022968 42.067182 
L 135.562633 42.585794 
L 131.102297 42.752829 
L 126.641961 43.274229 
L 122.181625 43.018498 
L 117.721289 43.058282 
L 113.260953 43.428471 
L 108.800617 43.280025 
L 104.340281 43.643692 
L 99.879945 43.089006 
L 95.419609 43.42774 
L 90.959273 43.263294 
L 86.498937 43.772966 
L 82.038602 43.666839 
L 77.578266 43.548959 
L 73.11793 43.136611 
L 68.657594 43.509434 
L 64.197258 43.509209 
L 59.736922 43.779004 
L 55.276586 43.619895 
L 50.81625 43.408716 
" style="fill:none;stroke:#0088ff;stroke-linecap:square;stroke-width:1.5;"/>
   </g>
   <g id="line2d_114">
    <path clip-path="url(#p9bae10063e)" d="M 273.833046 105.500257 
L 269.37271 110.279605 
L 264.912374 110.642605 
L 260.452038 102.358205 
L 255.991702 100.134616 
L 251.531366 101.323639 
L 247.07103 101.668261 
L 242.610695 112.602039 
L 238.150359 113.171493 
L 233.690023 123.156255 
L 229.229687 109.458231 
L 224.769351 119.101186 
L 220.309015 130.392001 
L 215.848679 120.973079 
L 211.388343 135.863283 
L 206.928007 123.300985 
L 202.467671 135.902744 
L 198.007335 126.762074 
L 193.546999 139.114444 
L 189.086664 143.904487 
L 184.626328 124.522915 
L 180.165992 150.999712 
L 175.705656 142.781661 
L 171.24532 141.338784 
L 166.784984 145.570849 
L 162.324648 153.718525 
L 157.864312 156.348743 
L 153.403976 148.802806 
L 148.94364 153.677905 
L 144.483304 151.427791 
L 140.022968 158.753082 
L 135.562633 149.668511 
L 131.102297 162.472871 
L 126.641961 156.02889 
L 122.181625 160.805624 
L 117.721289 160.788591 
L 113.260953 165.713718 
L 108.800617 163.992745 
L 104.340281 158.840604 
L 99.879945 168.276047 
L 95.419609 163.425273 
L 90.959273 162.766154 
L 86.498937 161.188666 
L 82.038602 162.842531 
L 77.578266 161.928657 
L 73.11793 164.817617 
L 68.657594 165.538891 
L 64.197258 165.857139 
L 59.736922 167.103023 
L 55.276586 168.06755 
L 50.81625 167.343765 
" style="fill:none;stroke:#dd5500;stroke-linecap:square;stroke-width:1.5;"/>
   </g>
   <g id="patch_3">
    <path d="M 50.81625 190.225404 
L 50.81625 10.8 
" style="fill:none;stroke:#000000;stroke-linecap:square;stroke-linejoin:miter;stroke-width:0.8;"/>
   </g>
   <g id="patch_4">
    <path d="M 273.833046 190.225404 
L 273.833046 10.8 
" style="fill:none;stroke:#000000;stroke-linecap:square;stroke-linejoin:miter;stroke-width:0.8;"/>
   </g>
   <g id="patch_5">
    <path d="M 50.81625 190.225404 
L 273.833046 190.225404 
" style="fill:none;stroke:#000000;stroke-linecap:square;stroke-linejoin:miter;stroke-width:0.8;"/>
   </g>
   <g id="patch_6">
    <path d="M 50.81625 10.8 
L 273.833046 10.8 
" style="fill:none;stroke:#000000;stroke-linecap:square;stroke-linejoin:miter;stroke-width:0.8;"/>
   </g>
   <g id="legend_1">
    <g id="patch_7">
     <path d="M 204.612967 185.225404 
L 266.833046 185.225404 
Q 268.833046 185.225404 268.833046 183.225404 
L 268.833046 156.351047 
Q 268.833046 154.351047 266.833046 154.351047 
L 204.612967 154.351047 
Q 202.612967 154.351047 202.612967 156.351047 
L 202.612967 183.225404 
Q 202.612967 185.225404 204.612967 185.225404 
z
" style="fill:#ffffff;opacity:0.8;stroke:#cccccc;stroke-linejoin:miter;"/>
    </g>
    <g id="line2d_115">
     <path d="M 206.612967 161.851047 
L 226.612967 161.851047 
" style="fill:none;stroke:#0088ff;stroke-linecap:square;stroke-width:1.5;"/>
    </g>
    <g id="line2d_116"/>
    <g id="text_10">
     <!-- linear -->
     <defs>
      <path d="M 15.296875 69 
L 3.40625 67.890625 
L 3.40625 65.296875 
C 9.296875 65.296875 10.203125 64.703125 10.203125 59.921875 
L 10.203125 6.859375 
C 10.203125 3.09375 9.796875 2.59375 3.40625 2.59375 
L 3.40625 0 
C 5.796875 0.1875 10.203125 0.1875 12.703125 0.1875 
C 15.296875 0.1875 19.703125 0.1875 22.09375 0 
L 22.09375 2.59375 
C 15.703125 2.59375 15.296875 2.984375 15.296875 6.859375 
z
" id="CMR17-108"/>
     </defs>
     <g transform="translate(234.612967 165.351047)scale(0.1 -0.1)">
      <use transform="scale(0.996264)" xlink:href="#CMR17-108"/>
      <use transform="translate(24.871058 0)scale(0.996264)" xlink:href="#CMR17-105"/>
      <use transform="translate(49.742117 0)scale(0.996264)" xlink:href="#CMR17-110"/>
      <use transform="translate(100.637487 0)scale(0.996264)" xlink:href="#CMR17-101"/>
      <use transform="translate(141.123147 0)scale(0.996264)" xlink:href="#CMR17-97"/>
      <use transform="translate(186.813624 0)scale(0.996264)" xlink:href="#CMR17-114"/>
     </g>
    </g>
    <g id="line2d_117">
     <path d="M 206.612967 175.788226 
L 226.612967 175.788226 
" style="fill:none;stroke:#dd5500;stroke-linecap:square;stroke-width:1.5;"/>
    </g>
    <g id="line2d_118"/>
    <g id="text_11">
     <!-- shaped -->
     <defs>
      <path d="M 41.5 30.53125 
C 41.5 35.65625 40.5 44 28.703125 44 
C 20.5 44 16.5 37.375 15.296875 34.046875 
L 15.203125 34.046875 
L 15.203125 69 
L 3.296875 67.890625 
L 3.296875 65.296875 
C 9.203125 65.296875 10.09375 64.703125 10.09375 60.046875 
L 10.09375 6.921875 
C 10.09375 3.09375 9.703125 2.59375 3.296875 2.59375 
L 3.296875 0 
C 5.703125 0.1875 10.09375 0.1875 12.703125 0.1875 
C 15.296875 0.1875 19.796875 0.1875 22.203125 0 
L 22.203125 2.59375 
C 15.796875 2.59375 15.40625 3 15.40625 6.921875 
L 15.40625 26.21875 
C 15.40625 35.453125 21 42.390625 28 42.390625 
C 35.40625 42.390625 36.203125 35.765625 36.203125 30.9375 
L 36.203125 6.921875 
C 36.203125 3.09375 35.796875 2.59375 29.40625 2.59375 
L 29.40625 0 
C 31.796875 0.1875 36.203125 0.1875 38.796875 0.1875 
C 41.40625 0.1875 45.90625 0.1875 48.296875 0 
L 48.296875 2.59375 
C 41.90625 2.59375 41.5 3 41.5 6.921875 
z
" id="CMR17-104"/>
      <path d="M 22 -17.40625 
C 15.59375 -17.40625 15.203125 -17 15.203125 -13.03125 
L 15.203125 5.9375 
C 18.09375 1.703125 22.296875 -1 27.59375 -1 
C 37.59375 -1 47.703125 7.859375 47.703125 21.59375 
C 47.703125 34.3125 39 44 28.703125 44 
C 22.703125 44 17.796875 40.671875 15 36.640625 
L 15 44 
L 3.09375 42.890625 
L 3.09375 40.265625 
C 9 40.265625 9.90625 39.671875 9.90625 34.8125 
L 9.90625 -13.03125 
C 9.90625 -16.890625 9.5 -17.40625 3.09375 -17.40625 
L 3.09375 -20 
C 5.5 -19.8125 9.90625 -19.8125 12.5 -19.8125 
C 15.09375 -19.8125 19.59375 -19.8125 22 -20 
z
M 15.203125 31.484375 
C 15.203125 32.90625 15.203125 35.015625 19.09375 38.765625 
C 19.59375 39.15625 23 42.1875 28 42.1875 
C 35.296875 42.1875 41.296875 33 41.296875 21.5 
C 41.296875 9.984375 34.90625 0.59375 27 0.59375 
C 23.40625 0.59375 19.5 2.3125 16.5 7.046875 
C 15.203125 9.28125 15.203125 9.875 15.203125 11.5 
z
" id="CMR17-112"/>
      <path d="M 29.203125 67.890625 
L 29.203125 65.296875 
C 35.09375 65.296875 36 64.703125 36 60.046875 
L 36 37.046875 
C 35.59375 37.546875 31.5 44 23.40625 44 
C 13.203125 44 3.296875 34.8125 3.296875 21.5 
C 3.296875 8.265625 12.59375 -1 22.40625 -1 
C 30.90625 -1 35.296875 5.640625 35.796875 6.34375 
L 35.796875 -1 
L 47.90625 -0.203125 
L 47.90625 2.40625 
C 42 2.40625 41.09375 3.015625 41.09375 7.859375 
L 41.09375 69 
z
M 35.796875 11.90625 
C 35.796875 8.875 34 6.140625 31.703125 4.125 
C 28.296875 1.09375 24.90625 0.59375 23 0.59375 
C 20.09375 0.59375 9.703125 2.109375 9.703125 21.390625 
C 9.703125 41.1875 21.296875 42.390625 23.90625 42.390625 
C 28.5 42.390625 32.203125 39.765625 34.5 36.140625 
C 35.796875 34.015625 35.796875 33.703125 35.796875 31.890625 
z
" id="CMR17-100"/>
     </defs>
     <g transform="translate(234.612967 179.288226)scale(0.1 -0.1)">
      <use transform="scale(0.996264)" xlink:href="#CMR17-115"/>
      <use transform="translate(35.801338 0)scale(0.996264)" xlink:href="#CMR17-104"/>
      <use transform="translate(86.696707 0)scale(0.996264)" xlink:href="#CMR17-97"/>
      <use transform="translate(132.387185 0)scale(0.996264)" xlink:href="#CMR17-112"/>
      <use transform="translate(185.884993 0)scale(0.996264)" xlink:href="#CMR17-101"/>
      <use transform="translate(226.370654 0)scale(0.996264)" xlink:href="#CMR17-100"/>
     </g>
    </g>
   </g>
  </g>
 </g>
 <defs>
  <clipPath id="p9bae10063e">
   <rect height="179.425404" width="223.016796" x="50.81625" y="10.8"/>
  </clipPath>
 </defs>
</svg>
