<?xml version="1.0" encoding="utf-8" standalone="no"?>
<!DOCTYPE svg PUBLIC "-//W3C//DTD SVG 1.1//EN"
  "http://www.w3.org/Graphics/SVG/1.1/DTD/svg11.dtd">
<!-- Created with matplotlib (https://matplotlib.org/) -->
<svg height="345.6pt" version="1.1" viewBox="0 0 460.8 345.6" width="460.8pt" xmlns="http://www.w3.org/2000/svg" xmlns:xlink="http://www.w3.org/1999/xlink">
 <metadata>
  <rdf:RDF xmlns:cc="http://creativecommons.org/ns#" xmlns:dc="http://purl.org/dc/elements/1.1/" xmlns:rdf="http://www.w3.org/1999/02/22-rdf-syntax-ns#">
   <cc:Work>
    <dc:type rdf:resource="http://purl.org/dc/dcmitype/StillImage"/>
    <dc:date>2021-07-16T14:52:29.564505</dc:date>
    <dc:format>image/svg+xml</dc:format>
    <dc:creator>
     <cc:Agent>
      <dc:title>Matplotlib v3.3.4, https://matplotlib.org/</dc:title>
     </cc:Agent>
    </dc:creator>
   </cc:Work>
  </rdf:RDF>
 </metadata>
 <defs>
  <style type="text/css">*{stroke-linecap:butt;stroke-linejoin:round;}</style>
 </defs>
 <g id="figure_1">
  <g id="patch_1">
   <path d="M 0 345.6 
L 460.8 345.6 
L 460.8 0 
L 0 0 
z
" style="fill:#ffffff;"/>
  </g>
  <g id="axes_1">
   <g id="patch_2">
    <path d="M 57.6 307.584 
L 414.72 307.584 
L 414.72 41.472 
L 57.6 41.472 
z
" style="fill:#ffffff;"/>
   </g>
   <g id="matplotlib.axis_1">
    <g id="xtick_1">
     <g id="line2d_1">
      <defs>
       <path d="M 0 0 
L 0 3.5 
" id="mba5e94434c" style="stroke:#000000;stroke-width:0.8;"/>
      </defs>
      <g>
       <use style="stroke:#000000;stroke-width:0.8;" x="73.832727" xlink:href="#mba5e94434c" y="307.584"/>
      </g>
     </g>
     <g id="text_1">
      <!-- −50 -->
      <g transform="translate(63.280384 322.182437)scale(0.1 -0.1)">
       <defs>
        <path d="M 10.59375 35.5 
L 73.1875 35.5 
L 73.1875 27.203125 
L 10.59375 27.203125 
z
" id="DejaVuSans-8722"/>
        <path d="M 10.796875 72.90625 
L 49.515625 72.90625 
L 49.515625 64.59375 
L 19.828125 64.59375 
L 19.828125 46.734375 
Q 21.96875 47.46875 24.109375 47.828125 
Q 26.265625 48.1875 28.421875 48.1875 
Q 40.625 48.1875 47.75 41.5 
Q 54.890625 34.8125 54.890625 23.390625 
Q 54.890625 11.625 47.5625 5.09375 
Q 40.234375 -1.421875 26.90625 -1.421875 
Q 22.3125 -1.421875 17.546875 -0.640625 
Q 12.796875 0.140625 7.71875 1.703125 
L 7.71875 11.625 
Q 12.109375 9.234375 16.796875 8.0625 
Q 21.484375 6.890625 26.703125 6.890625 
Q 35.15625 6.890625 40.078125 11.328125 
Q 45.015625 15.765625 45.015625 23.390625 
Q 45.015625 31 40.078125 35.4375 
Q 35.15625 39.890625 26.703125 39.890625 
Q 22.75 39.890625 18.8125 39.015625 
Q 14.890625 38.140625 10.796875 36.28125 
z
" id="DejaVuSans-53"/>
        <path d="M 31.78125 66.40625 
Q 24.171875 66.40625 20.328125 58.90625 
Q 16.5 51.421875 16.5 36.375 
Q 16.5 21.390625 20.328125 13.890625 
Q 24.171875 6.390625 31.78125 6.390625 
Q 39.453125 6.390625 43.28125 13.890625 
Q 47.125 21.390625 47.125 36.375 
Q 47.125 51.421875 43.28125 58.90625 
Q 39.453125 66.40625 31.78125 66.40625 
z
M 31.78125 74.21875 
Q 44.046875 74.21875 50.515625 64.515625 
Q 56.984375 54.828125 56.984375 36.375 
Q 56.984375 17.96875 50.515625 8.265625 
Q 44.046875 -1.421875 31.78125 -1.421875 
Q 19.53125 -1.421875 13.0625 8.265625 
Q 6.59375 17.96875 6.59375 36.375 
Q 6.59375 54.828125 13.0625 64.515625 
Q 19.53125 74.21875 31.78125 74.21875 
z
" id="DejaVuSans-48"/>
       </defs>
       <use xlink:href="#DejaVuSans-8722"/>
       <use x="83.789062" xlink:href="#DejaVuSans-53"/>
       <use x="147.412109" xlink:href="#DejaVuSans-48"/>
      </g>
     </g>
    </g>
    <g id="xtick_2">
     <g id="line2d_2">
      <g>
       <use style="stroke:#000000;stroke-width:0.8;" x="120.211948" xlink:href="#mba5e94434c" y="307.584"/>
      </g>
     </g>
     <g id="text_2">
      <!-- −40 -->
      <g transform="translate(109.659604 322.182437)scale(0.1 -0.1)">
       <defs>
        <path d="M 37.796875 64.3125 
L 12.890625 25.390625 
L 37.796875 25.390625 
z
M 35.203125 72.90625 
L 47.609375 72.90625 
L 47.609375 25.390625 
L 58.015625 25.390625 
L 58.015625 17.1875 
L 47.609375 17.1875 
L 47.609375 0 
L 37.796875 0 
L 37.796875 17.1875 
L 4.890625 17.1875 
L 4.890625 26.703125 
z
" id="DejaVuSans-52"/>
       </defs>
       <use xlink:href="#DejaVuSans-8722"/>
       <use x="83.789062" xlink:href="#DejaVuSans-52"/>
       <use x="147.412109" xlink:href="#DejaVuSans-48"/>
      </g>
     </g>
    </g>
    <g id="xtick_3">
     <g id="line2d_3">
      <g>
       <use style="stroke:#000000;stroke-width:0.8;" x="166.591169" xlink:href="#mba5e94434c" y="307.584"/>
      </g>
     </g>
     <g id="text_3">
      <!-- −30 -->
      <g transform="translate(156.038825 322.182437)scale(0.1 -0.1)">
       <defs>
        <path d="M 40.578125 39.3125 
Q 47.65625 37.796875 51.625 33 
Q 55.609375 28.21875 55.609375 21.1875 
Q 55.609375 10.40625 48.1875 4.484375 
Q 40.765625 -1.421875 27.09375 -1.421875 
Q 22.515625 -1.421875 17.65625 -0.515625 
Q 12.796875 0.390625 7.625 2.203125 
L 7.625 11.71875 
Q 11.71875 9.328125 16.59375 8.109375 
Q 21.484375 6.890625 26.8125 6.890625 
Q 36.078125 6.890625 40.9375 10.546875 
Q 45.796875 14.203125 45.796875 21.1875 
Q 45.796875 27.640625 41.28125 31.265625 
Q 36.765625 34.90625 28.71875 34.90625 
L 20.21875 34.90625 
L 20.21875 43.015625 
L 29.109375 43.015625 
Q 36.375 43.015625 40.234375 45.921875 
Q 44.09375 48.828125 44.09375 54.296875 
Q 44.09375 59.90625 40.109375 62.90625 
Q 36.140625 65.921875 28.71875 65.921875 
Q 24.65625 65.921875 20.015625 65.03125 
Q 15.375 64.15625 9.8125 62.3125 
L 9.8125 71.09375 
Q 15.4375 72.65625 20.34375 73.4375 
Q 25.25 74.21875 29.59375 74.21875 
Q 40.828125 74.21875 47.359375 69.109375 
Q 53.90625 64.015625 53.90625 55.328125 
Q 53.90625 49.265625 50.4375 45.09375 
Q 46.96875 40.921875 40.578125 39.3125 
z
" id="DejaVuSans-51"/>
       </defs>
       <use xlink:href="#DejaVuSans-8722"/>
       <use x="83.789062" xlink:href="#DejaVuSans-51"/>
       <use x="147.412109" xlink:href="#DejaVuSans-48"/>
      </g>
     </g>
    </g>
    <g id="xtick_4">
     <g id="line2d_4">
      <g>
       <use style="stroke:#000000;stroke-width:0.8;" x="212.97039" xlink:href="#mba5e94434c" y="307.584"/>
      </g>
     </g>
     <g id="text_4">
      <!-- −20 -->
      <g transform="translate(202.418046 322.182437)scale(0.1 -0.1)">
       <defs>
        <path d="M 19.1875 8.296875 
L 53.609375 8.296875 
L 53.609375 0 
L 7.328125 0 
L 7.328125 8.296875 
Q 12.9375 14.109375 22.625 23.890625 
Q 32.328125 33.6875 34.8125 36.53125 
Q 39.546875 41.84375 41.421875 45.53125 
Q 43.3125 49.21875 43.3125 52.78125 
Q 43.3125 58.59375 39.234375 62.25 
Q 35.15625 65.921875 28.609375 65.921875 
Q 23.96875 65.921875 18.8125 64.3125 
Q 13.671875 62.703125 7.8125 59.421875 
L 7.8125 69.390625 
Q 13.765625 71.78125 18.9375 73 
Q 24.125 74.21875 28.421875 74.21875 
Q 39.75 74.21875 46.484375 68.546875 
Q 53.21875 62.890625 53.21875 53.421875 
Q 53.21875 48.921875 51.53125 44.890625 
Q 49.859375 40.875 45.40625 35.40625 
Q 44.1875 33.984375 37.640625 27.21875 
Q 31.109375 20.453125 19.1875 8.296875 
z
" id="DejaVuSans-50"/>
       </defs>
       <use xlink:href="#DejaVuSans-8722"/>
       <use x="83.789062" xlink:href="#DejaVuSans-50"/>
       <use x="147.412109" xlink:href="#DejaVuSans-48"/>
      </g>
     </g>
    </g>
    <g id="xtick_5">
     <g id="line2d_5">
      <g>
       <use style="stroke:#000000;stroke-width:0.8;" x="259.34961" xlink:href="#mba5e94434c" y="307.584"/>
      </g>
     </g>
     <g id="text_5">
      <!-- −10 -->
      <g transform="translate(248.797267 322.182437)scale(0.1 -0.1)">
       <defs>
        <path d="M 12.40625 8.296875 
L 28.515625 8.296875 
L 28.515625 63.921875 
L 10.984375 60.40625 
L 10.984375 69.390625 
L 28.421875 72.90625 
L 38.28125 72.90625 
L 38.28125 8.296875 
L 54.390625 8.296875 
L 54.390625 0 
L 12.40625 0 
z
" id="DejaVuSans-49"/>
       </defs>
       <use xlink:href="#DejaVuSans-8722"/>
       <use x="83.789062" xlink:href="#DejaVuSans-49"/>
       <use x="147.412109" xlink:href="#DejaVuSans-48"/>
      </g>
     </g>
    </g>
    <g id="xtick_6">
     <g id="line2d_6">
      <g>
       <use style="stroke:#000000;stroke-width:0.8;" x="305.728831" xlink:href="#mba5e94434c" y="307.584"/>
      </g>
     </g>
     <g id="text_6">
      <!-- 0 -->
      <g transform="translate(302.547581 322.182437)scale(0.1 -0.1)">
       <use xlink:href="#DejaVuSans-48"/>
      </g>
     </g>
    </g>
    <g id="xtick_7">
     <g id="line2d_7">
      <g>
       <use style="stroke:#000000;stroke-width:0.8;" x="352.108052" xlink:href="#mba5e94434c" y="307.584"/>
      </g>
     </g>
     <g id="text_7">
      <!-- 10 -->
      <g transform="translate(345.745552 322.182437)scale(0.1 -0.1)">
       <use xlink:href="#DejaVuSans-49"/>
       <use x="63.623047" xlink:href="#DejaVuSans-48"/>
      </g>
     </g>
    </g>
    <g id="xtick_8">
     <g id="line2d_8">
      <g>
       <use style="stroke:#000000;stroke-width:0.8;" x="398.487273" xlink:href="#mba5e94434c" y="307.584"/>
      </g>
     </g>
     <g id="text_8">
      <!-- 20 -->
      <g transform="translate(392.124773 322.182437)scale(0.1 -0.1)">
       <use xlink:href="#DejaVuSans-50"/>
       <use x="63.623047" xlink:href="#DejaVuSans-48"/>
      </g>
     </g>
    </g>
   </g>
   <g id="matplotlib.axis_2">
    <g id="ytick_1">
     <g id="line2d_9">
      <defs>
       <path d="M 0 0 
L -3.5 0 
" id="m16c08c9a0c" style="stroke:#000000;stroke-width:0.8;"/>
      </defs>
      <g>
       <use style="stroke:#000000;stroke-width:0.8;" x="57.6" xlink:href="#m16c08c9a0c" y="295.488"/>
      </g>
     </g>
     <g id="text_9">
      <!-- 0.0 -->
      <g transform="translate(34.696875 299.287219)scale(0.1 -0.1)">
       <defs>
        <path d="M 10.6875 12.40625 
L 21 12.40625 
L 21 0 
L 10.6875 0 
z
" id="DejaVuSans-46"/>
       </defs>
       <use xlink:href="#DejaVuSans-48"/>
       <use x="63.623047" xlink:href="#DejaVuSans-46"/>
       <use x="95.410156" xlink:href="#DejaVuSans-48"/>
      </g>
     </g>
    </g>
    <g id="ytick_2">
     <g id="line2d_10">
      <g>
       <use style="stroke:#000000;stroke-width:0.8;" x="57.6" xlink:href="#m16c08c9a0c" y="256.388674"/>
      </g>
     </g>
     <g id="text_10">
      <!-- 0.1 -->
      <g transform="translate(34.696875 260.187893)scale(0.1 -0.1)">
       <use xlink:href="#DejaVuSans-48"/>
       <use x="63.623047" xlink:href="#DejaVuSans-46"/>
       <use x="95.410156" xlink:href="#DejaVuSans-49"/>
      </g>
     </g>
    </g>
    <g id="ytick_3">
     <g id="line2d_11">
      <g>
       <use style="stroke:#000000;stroke-width:0.8;" x="57.6" xlink:href="#m16c08c9a0c" y="217.289349"/>
      </g>
     </g>
     <g id="text_11">
      <!-- 0.2 -->
      <g transform="translate(34.696875 221.088568)scale(0.1 -0.1)">
       <use xlink:href="#DejaVuSans-48"/>
       <use x="63.623047" xlink:href="#DejaVuSans-46"/>
       <use x="95.410156" xlink:href="#DejaVuSans-50"/>
      </g>
     </g>
    </g>
    <g id="ytick_4">
     <g id="line2d_12">
      <g>
       <use style="stroke:#000000;stroke-width:0.8;" x="57.6" xlink:href="#m16c08c9a0c" y="178.190023"/>
      </g>
     </g>
     <g id="text_12">
      <!-- 0.3 -->
      <g transform="translate(34.696875 181.989242)scale(0.1 -0.1)">
       <use xlink:href="#DejaVuSans-48"/>
       <use x="63.623047" xlink:href="#DejaVuSans-46"/>
       <use x="95.410156" xlink:href="#DejaVuSans-51"/>
      </g>
     </g>
    </g>
    <g id="ytick_5">
     <g id="line2d_13">
      <g>
       <use style="stroke:#000000;stroke-width:0.8;" x="57.6" xlink:href="#m16c08c9a0c" y="139.090698"/>
      </g>
     </g>
     <g id="text_13">
      <!-- 0.4 -->
      <g transform="translate(34.696875 142.889916)scale(0.1 -0.1)">
       <use xlink:href="#DejaVuSans-48"/>
       <use x="63.623047" xlink:href="#DejaVuSans-46"/>
       <use x="95.410156" xlink:href="#DejaVuSans-52"/>
      </g>
     </g>
    </g>
    <g id="ytick_6">
     <g id="line2d_14">
      <g>
       <use style="stroke:#000000;stroke-width:0.8;" x="57.6" xlink:href="#m16c08c9a0c" y="99.991372"/>
      </g>
     </g>
     <g id="text_14">
      <!-- 0.5 -->
      <g transform="translate(34.696875 103.790591)scale(0.1 -0.1)">
       <use xlink:href="#DejaVuSans-48"/>
       <use x="63.623047" xlink:href="#DejaVuSans-46"/>
       <use x="95.410156" xlink:href="#DejaVuSans-53"/>
      </g>
     </g>
    </g>
    <g id="ytick_7">
     <g id="line2d_15">
      <g>
       <use style="stroke:#000000;stroke-width:0.8;" x="57.6" xlink:href="#m16c08c9a0c" y="60.892047"/>
      </g>
     </g>
     <g id="text_15">
      <!-- 0.6 -->
      <g transform="translate(34.696875 64.691265)scale(0.1 -0.1)">
       <defs>
        <path d="M 33.015625 40.375 
Q 26.375 40.375 22.484375 35.828125 
Q 18.609375 31.296875 18.609375 23.390625 
Q 18.609375 15.53125 22.484375 10.953125 
Q 26.375 6.390625 33.015625 6.390625 
Q 39.65625 6.390625 43.53125 10.953125 
Q 47.40625 15.53125 47.40625 23.390625 
Q 47.40625 31.296875 43.53125 35.828125 
Q 39.65625 40.375 33.015625 40.375 
z
M 52.59375 71.296875 
L 52.59375 62.3125 
Q 48.875 64.0625 45.09375 64.984375 
Q 41.3125 65.921875 37.59375 65.921875 
Q 27.828125 65.921875 22.671875 59.328125 
Q 17.53125 52.734375 16.796875 39.40625 
Q 19.671875 43.65625 24.015625 45.921875 
Q 28.375 48.1875 33.59375 48.1875 
Q 44.578125 48.1875 50.953125 41.515625 
Q 57.328125 34.859375 57.328125 23.390625 
Q 57.328125 12.15625 50.6875 5.359375 
Q 44.046875 -1.421875 33.015625 -1.421875 
Q 20.359375 -1.421875 13.671875 8.265625 
Q 6.984375 17.96875 6.984375 36.375 
Q 6.984375 53.65625 15.1875 63.9375 
Q 23.390625 74.21875 37.203125 74.21875 
Q 40.921875 74.21875 44.703125 73.484375 
Q 48.484375 72.75 52.59375 71.296875 
z
" id="DejaVuSans-54"/>
       </defs>
       <use xlink:href="#DejaVuSans-48"/>
       <use x="63.623047" xlink:href="#DejaVuSans-46"/>
       <use x="95.410156" xlink:href="#DejaVuSans-54"/>
      </g>
     </g>
    </g>
   </g>
   <g id="line2d_16">
    <path clip-path="url(#p750dfb6c3a)" d="M 73.832727 295.486637 
L 100.424594 295.485743 
L 111.983451 295.461492 
L 117.0161 295.42669 
L 121.139625 295.455126 
L 125.880056 295.380453 
L 130.165924 295.452957 
L 135.003761 295.316212 
L 139.159755 295.453792 
L 144.387215 295.223316 
L 147.991241 295.469002 
L 149.614676 295.254522 
L 152.114766 294.911155 
L 153.413514 294.990668 
L 157.374696 295.440419 
L 158.543569 295.170969 
L 161.400815 294.38575 
L 162.342407 294.443002 
L 163.381406 294.74055 
L 165.654215 295.474168 
L 166.433464 295.439993 
L 167.180244 295.185299 
L 168.056899 294.640136 
L 170.394645 293.039116 
L 171.044019 292.925853 
L 171.660925 293.046156 
L 172.342767 293.428289 
L 173.28436 294.250682 
L 174.51817 295.279325 
L 175.102607 295.482688 
L 175.589638 295.413936 
L 176.044199 295.119004 
L 176.563699 294.493748 
L 177.180604 293.374714 
L 178.089728 291.188387 
L 179.485882 287.851375 
L 180.03785 287.049326 
L 180.459943 286.78295 
L 180.78463 286.815237 
L 181.141785 287.103016 
L 181.563879 287.78147 
L 182.115846 289.16434 
L 183.02497 292.192199 
L 183.869156 294.738671 
L 184.291249 295.406124 
L 184.550999 295.477323 
L 184.77828 295.272951 
L 185.03803 294.683301 
L 185.362717 293.330084 
L 185.752341 290.665219 
L 186.206903 285.916413 
L 186.726402 278.07201 
L 187.343307 265.147837 
L 188.057619 245.224817 
L 188.966742 212.953664 
L 190.395365 152.730731 
L 191.856457 94.247116 
L 192.635706 71.194881 
L 193.220142 59.724059 
L 193.642235 55.038726 
L 193.934454 53.674498 
L 194.064329 53.572008 
L 194.096797 53.595072 
L 194.226672 53.882181 
L 194.453953 55.133075 
L 194.77864 58.553487 
L 195.200733 65.7782 
L 195.752701 79.608153 
L 196.467013 103.735006 
L 197.53848 148.64669 
L 199.648945 238.063467 
L 200.5256 265.324874 
L 201.207443 280.398759 
L 201.79188 288.960281 
L 202.27891 293.232647 
L 202.668534 294.990252 
L 202.960753 295.468478 
L 203.155565 295.439131 
L 203.382846 295.098262 
L 203.707533 294.130021 
L 204.227032 291.727158 
L 206.27256 281.289091 
L 206.727122 280.266527 
L 207.051809 279.98147 
L 207.311559 280.021292 
L 207.603777 280.339438 
L 207.993402 281.176416 
L 208.512901 282.90374 
L 209.357087 286.638591 
L 210.720772 292.607743 
L 211.337678 294.402136 
L 211.824708 295.220711 
L 212.214333 295.477653 
L 212.53902 295.432296 
L 212.896175 295.134873 
L 213.350737 294.440922 
L 214.065049 292.86972 
L 215.591078 289.429529 
L 216.143046 288.727293 
L 216.565139 288.499194 
L 216.954763 288.539298 
L 217.344388 288.812136 
L 217.831418 289.443992 
L 218.513261 290.734071 
L 220.493852 294.727761 
L 221.045819 295.299679 
L 221.500381 295.483213 
L 221.922474 295.417743 
L 222.377036 295.112678 
L 222.961473 294.42979 
L 224.03294 292.742986 
L 225.007001 291.378073 
L 225.591438 290.896274 
L 226.078468 290.758259 
L 226.53303 290.857848 
L 227.052529 291.225628 
L 227.701903 291.992935 
L 230.201993 295.276386 
L 230.721493 295.478256 
L 231.208523 295.430471 
L 231.728022 295.139235 
L 232.377396 294.491309 
L 234.909955 291.635236 
L 235.429454 291.49851 
L 235.916485 291.590728 
L 236.468453 291.938897 
L 237.182764 292.692785 
L 239.390636 295.242211 
L 239.942604 295.470777 
L 240.429634 295.45016 
L 240.949133 295.200578 
L 241.566039 294.641676 
L 242.572569 293.369381 
L 243.708973 292.026508 
L 244.358347 291.591778 
L 244.877846 291.499812 
L 245.364877 291.633969 
L 245.916845 292.02611 
L 246.663625 292.866385 
L 248.579278 295.162119 
L 249.163715 295.457589 
L 249.650745 295.460792 
L 250.137776 295.235102 
L 250.722213 294.688867 
L 251.53393 293.572205 
L 253.124896 291.324125 
L 253.709333 290.874478 
L 254.196364 290.758204 
L 254.650925 290.877978 
L 255.170425 291.273397 
L 255.819799 292.08609 
L 258.125077 295.291842 
L 258.612107 295.484117 
L 259.0342 295.41213 
L 259.488762 295.079054 
L 260.008261 294.395053 
L 260.722573 293.04158 
L 262.670695 289.115901 
L 263.190194 288.606803 
L 263.612287 288.486564 
L 264.001911 288.625557 
L 264.424005 289.042114 
L 264.943504 289.892941 
L 265.722753 291.655289 
L 267.053969 294.66607 
L 267.573469 295.325246 
L 267.930624 295.486615 
L 268.255311 295.394613 
L 268.579998 295.060241 
L 269.002091 294.257817 
L 269.521591 292.730292 
L 270.235902 289.848854 
L 272.248962 281.272746 
L 272.735992 280.248151 
L 273.060679 279.979594 
L 273.320429 280.025944 
L 273.612647 280.364195 
L 273.969803 281.185141 
L 274.456833 282.973319 
L 275.138676 286.474454 
L 276.599768 294.239618 
L 277.021861 295.327308 
L 277.249142 295.487827 
L 277.411485 295.385492 
L 277.638766 294.902844 
L 277.930984 293.636749 
L 278.28814 290.988825 
L 278.742702 285.675437 
L 279.262201 276.710772 
L 279.879106 261.899741 
L 280.625887 238.155778 
L 281.599948 199.418189 
L 284.392256 83.597096 
L 285.074099 65.831747 
L 285.593598 57.358301 
L 285.983222 54.154528 
L 286.210503 53.57313 
L 286.307909 53.616159 
L 286.470253 54.076565 
L 286.697534 55.531174 
L 287.022221 59.21585 
L 287.476783 67.403828 
L 288.061219 82.625286 
L 288.840468 109.548783 
L 290.106747 162.486118 
L 291.79512 231.016167 
L 292.704244 259.308414 
L 293.451024 276.24804 
L 294.100398 286.287006 
L 294.652366 291.670153 
L 295.106927 294.219135 
L 295.464083 295.216664 
L 295.756301 295.484718 
L 295.983582 295.408258 
L 296.275801 295.010425 
L 296.697894 293.990921 
L 297.509611 291.295705 
L 298.483672 288.295291 
L 299.03564 287.231189 
L 299.457733 286.831688 
L 299.814889 286.782366 
L 300.172045 286.984706 
L 300.594138 287.512606 
L 301.178575 288.650409 
L 302.250042 291.350024 
L 303.321509 293.825669 
L 304.003352 294.880196 
L 304.55532 295.351951 
L 305.04235 295.487637 
L 305.529381 295.391632 
L 306.146286 295.015191 
L 307.28269 293.976824 
L 308.256751 293.217956 
L 308.938594 292.955066 
L 309.5555 292.952577 
L 310.204874 293.176894 
L 311.04906 293.723634 
L 313.224463 295.243892 
L 314.003712 295.46591 
L 314.78296 295.454303 
L 315.724553 295.198936 
L 318.224643 294.401412 
L 319.166235 294.412939 
L 320.237702 294.662329 
L 323.127417 295.465643 
L 324.231353 295.456554 
L 325.757382 295.192489 
L 327.608098 294.918538 
L 328.906846 294.962854 
L 330.952374 295.30563 
L 332.673215 295.485473 
L 334.264181 295.407815 
L 337.705864 295.155897 
L 339.783861 295.331381 
L 342.219013 295.487936 
L 344.491822 295.369555 
L 347.154256 295.281704 
L 354.654526 295.370199 
L 357.414365 295.379001 
L 362.219733 295.461835 
L 367.025101 295.421515 
L 371.862938 295.460765 
L 376.79818 295.451309 
L 381.733423 295.457125 
L 386.895946 295.474377 
L 392.577969 295.449038 
L 398.487273 295.486312 
L 398.487273 295.486312 
" style="fill:none;stroke:#1f77b4;stroke-linecap:square;stroke-width:1.5;"/>
   </g>
   <g id="patch_3">
    <path d="M 57.6 307.584 
L 57.6 41.472 
" style="fill:none;stroke:#000000;stroke-linecap:square;stroke-linejoin:miter;stroke-width:0.8;"/>
   </g>
   <g id="patch_4">
    <path d="M 414.72 307.584 
L 414.72 41.472 
" style="fill:none;stroke:#000000;stroke-linecap:square;stroke-linejoin:miter;stroke-width:0.8;"/>
   </g>
   <g id="patch_5">
    <path d="M 57.6 307.584 
L 414.72 307.584 
" style="fill:none;stroke:#000000;stroke-linecap:square;stroke-linejoin:miter;stroke-width:0.8;"/>
   </g>
   <g id="patch_6">
    <path d="M 57.6 41.472 
L 414.72 41.472 
" style="fill:none;stroke:#000000;stroke-linecap:square;stroke-linejoin:miter;stroke-width:0.8;"/>
   </g>
  </g>
 </g>
 <defs>
  <clipPath id="p750dfb6c3a">
   <rect height="266.112" width="357.12" x="57.6" y="41.472"/>
  </clipPath>
 </defs>
</svg>
