<?xml version="1.0" encoding="utf-8" standalone="no"?>
<!DOCTYPE svg PUBLIC "-//W3C//DTD SVG 1.1//EN"
  "http://www.w3.org/Graphics/SVG/1.1/DTD/svg11.dtd">
<!-- Created with matplotlib (https://matplotlib.org/) -->
<svg height="214.56pt" version="1.1" viewBox="0 0 288 214.56" width="288pt" xmlns="http://www.w3.org/2000/svg" xmlns:xlink="http://www.w3.org/1999/xlink">
 <defs>
  <style type="text/css">
*{stroke-linecap:butt;stroke-linejoin:round;}
  </style>
 </defs>
 <g id="figure_1">
  <g id="patch_1">
   <path d="M 0 214.56 
L 288 214.56 
L 288 0 
L 0 0 
z
" style="fill:#ffffff;"/>
  </g>
  <g id="axes_1">
   <g id="patch_2">
    <path d="M 44.928 180.87408 
L 283.104 180.87408 
L 283.104 5.364 
L 44.928 5.364 
z
" style="fill:#ffffff;"/>
   </g>
   <g id="PolyCollection_1">
    <path clip-path="url(#p92f9df62c7)" d="M 283.104 111.488825 
L 283.104 145.046463 
L 281.940531 145.046463 
L 281.940531 149.885695 
L 279.558771 149.885695 
L 279.558771 143.144835 
L 277.177011 143.144835 
L 277.177011 144.118826 
L 274.795251 144.118826 
L 274.795251 145.237855 
L 272.413491 145.237855 
L 272.413491 142.281875 
L 270.031731 142.281875 
L 270.031731 143.921046 
L 267.649971 143.921046 
L 267.649971 140.471034 
L 265.268211 140.471034 
L 265.268211 140.957579 
L 262.886451 140.957579 
L 262.886451 146.51328 
L 260.504691 146.51328 
L 260.504691 137.227514 
L 258.122931 137.227514 
L 258.122931 140.593548 
L 255.741171 140.593548 
L 255.741171 134.321764 
L 253.359411 134.321764 
L 253.359411 139.432662 
L 250.977651 139.432662 
L 250.977651 134.923023 
L 248.595891 134.923023 
L 248.595891 132.303102 
L 246.214131 132.303102 
L 246.214131 133.325685 
L 243.832371 133.325685 
L 243.832371 135.882396 
L 241.450611 135.882396 
L 241.450611 124.356404 
L 239.068851 124.356404 
L 239.068851 130.29148 
L 236.687091 130.29148 
L 236.687091 138.075842 
L 234.305331 138.075842 
L 234.305331 130.289068 
L 231.923571 130.289068 
L 231.923571 115.678447 
L 229.541811 115.678447 
L 229.541811 117.819049 
L 227.160051 117.819049 
L 227.160051 137.929405 
L 224.778291 137.929405 
L 224.778291 131.949211 
L 222.396531 131.949211 
L 222.396531 112.478821 
L 220.014771 112.478821 
L 220.014771 114.729128 
L 217.633011 114.729128 
L 217.633011 117.983658 
L 215.251251 117.983658 
L 215.251251 120.647825 
L 212.869491 120.647825 
L 212.869491 121.171301 
L 210.487731 121.171301 
L 210.487731 121.510862 
L 208.105971 121.510862 
L 208.105971 114.165003 
L 205.724211 114.165003 
L 205.724211 125.835941 
L 203.342451 125.835941 
L 203.342451 121.356937 
L 200.960691 121.356937 
L 200.960691 125.24246 
L 198.578931 125.24246 
L 198.578931 130.971508 
L 196.197171 130.971508 
L 196.197171 132.472707 
L 193.815411 132.472707 
L 193.815411 145.952073 
L 191.433651 145.952073 
L 191.433651 131.085342 
L 189.051891 131.085342 
L 189.051891 129.464039 
L 186.670131 129.464039 
L 186.670131 141.746006 
L 184.288371 141.746006 
L 184.288371 137.359021 
L 181.906611 137.359021 
L 181.906611 139.520716 
L 179.524851 139.520716 
L 179.524851 136.746773 
L 177.143091 136.746773 
L 177.143091 125.976042 
L 174.761331 125.976042 
L 174.761331 145.434125 
L 172.379571 145.434125 
L 172.379571 148.995908 
L 169.997811 148.995908 
L 169.997811 145.5993 
L 167.616051 145.5993 
L 167.616051 151.917188 
L 165.234291 151.917188 
L 165.234291 144.572247 
L 162.852531 144.572247 
L 162.852531 144.57495 
L 160.470771 144.57495 
L 160.470771 152.657618 
L 158.089011 152.657618 
L 158.089011 146.55948 
L 155.707251 146.55948 
L 155.707251 154.690696 
L 153.325491 154.690696 
L 153.325491 153.267587 
L 150.943731 153.267587 
L 150.943731 159.836527 
L 148.561971 159.836527 
L 148.561971 155.358012 
L 146.180211 155.358012 
L 146.180211 152.906707 
L 143.798451 152.906707 
L 143.798451 157.627834 
L 141.416691 157.627834 
L 141.416691 155.177464 
L 139.034931 155.177464 
L 139.034931 156.631427 
L 136.653171 156.631427 
L 136.653171 158.827061 
L 134.271411 158.827061 
L 134.271411 159.664081 
L 131.889651 159.664081 
L 131.889651 166.676053 
L 129.507891 166.676053 
L 129.507891 162.717341 
L 127.126131 162.717341 
L 127.126131 161.986951 
L 124.744371 161.986951 
L 124.744371 161.587688 
L 122.362611 161.587688 
L 122.362611 164.103018 
L 119.980851 164.103018 
L 119.980851 164.084297 
L 117.599091 164.084297 
L 117.599091 165.306833 
L 115.217331 165.306833 
L 115.217331 165.043144 
L 112.835571 165.043144 
L 112.835571 165.672744 
L 110.453811 165.672744 
L 110.453811 168.161693 
L 108.072051 168.161693 
L 108.072051 165.494171 
L 105.690291 165.494171 
L 105.690291 170.557377 
L 103.308531 170.557377 
L 103.308531 166.755753 
L 100.926771 166.755753 
L 100.926771 168.124941 
L 98.545011 168.124941 
L 98.545011 169.965201 
L 96.163251 169.965201 
L 96.163251 168.609218 
L 93.781491 168.609218 
L 93.781491 166.729639 
L 91.399731 166.729639 
L 91.399731 166.49007 
L 89.017971 166.49007 
L 89.017971 167.431137 
L 86.636211 167.431137 
L 86.636211 168.000986 
L 84.254451 168.000986 
L 84.254451 167.112552 
L 81.872691 167.112552 
L 81.872691 169.016347 
L 79.490931 169.016347 
L 79.490931 166.376657 
L 77.109171 166.376657 
L 77.109171 167.696367 
L 74.727411 167.696367 
L 74.727411 168.456401 
L 72.345651 168.456401 
L 72.345651 165.828037 
L 69.963891 165.828037 
L 69.963891 166.829999 
L 67.582131 166.829999 
L 67.582131 168.405122 
L 65.200371 168.405122 
L 65.200371 168.8949 
L 62.818611 168.8949 
L 62.818611 172.088244 
L 60.436851 172.088244 
L 60.436851 171.023148 
L 58.055091 171.023148 
L 58.055091 169.06275 
L 55.673331 169.06275 
L 55.673331 168.222518 
L 53.291571 168.222518 
L 53.291571 166.538759 
L 50.909811 166.538759 
L 50.909811 166.514038 
L 48.528051 166.514038 
L 48.528051 172.896349 
L 46.146291 172.896349 
L 46.146291 169.57742 
L 44.928 169.57742 
L 44.928 151.604169 
L 44.928 151.604169 
L 46.146291 151.604169 
L 46.146291 150.982207 
L 48.528051 150.982207 
L 48.528051 148.285414 
L 50.909811 148.285414 
L 50.909811 152.191456 
L 53.291571 152.191456 
L 53.291571 152.298155 
L 55.673331 152.298155 
L 55.673331 150.214012 
L 58.055091 150.214012 
L 58.055091 153.131336 
L 60.436851 153.131336 
L 60.436851 150.816567 
L 62.818611 150.816567 
L 62.818611 146.712506 
L 65.200371 146.712506 
L 65.200371 149.416246 
L 67.582131 149.416246 
L 67.582131 152.555903 
L 69.963891 152.555903 
L 69.963891 149.257127 
L 72.345651 149.257127 
L 72.345651 145.382449 
L 74.727411 145.382449 
L 74.727411 145.042241 
L 77.109171 145.042241 
L 77.109171 147.153239 
L 79.490931 147.153239 
L 79.490931 146.434666 
L 81.872691 146.434666 
L 81.872691 148.825466 
L 84.254451 148.825466 
L 84.254451 140.252786 
L 86.636211 140.252786 
L 86.636211 148.100023 
L 89.017971 148.100023 
L 89.017971 145.694391 
L 91.399731 145.694391 
L 91.399731 142.670684 
L 93.781491 142.670684 
L 93.781491 148.276172 
L 96.163251 148.276172 
L 96.163251 147.391054 
L 98.545011 147.391054 
L 98.545011 144.87895 
L 100.926771 144.87895 
L 100.926771 145.344887 
L 103.308531 145.344887 
L 103.308531 142.738224 
L 105.690291 142.738224 
L 105.690291 139.003956 
L 108.072051 139.003956 
L 108.072051 141.119136 
L 110.453811 141.119136 
L 110.453811 136.848095 
L 112.835571 136.848095 
L 112.835571 131.233923 
L 115.217331 131.233923 
L 115.217331 140.248491 
L 117.599091 140.248491 
L 117.599091 139.162035 
L 119.980851 139.162035 
L 119.980851 130.441246 
L 122.362611 130.441246 
L 122.362611 136.733959 
L 124.744371 136.733959 
L 124.744371 128.700426 
L 127.126131 128.700426 
L 127.126131 132.473272 
L 129.507891 132.473272 
L 129.507891 141.828588 
L 131.889651 141.828588 
L 131.889651 122.419625 
L 134.271411 122.419625 
L 134.271411 131.155279 
L 136.653171 131.155279 
L 136.653171 128.700496 
L 139.034931 128.700496 
L 139.034931 119.009858 
L 141.416691 119.009858 
L 141.416691 127.880973 
L 143.798451 127.880973 
L 143.798451 123.05488 
L 146.180211 123.05488 
L 146.180211 124.713887 
L 148.561971 124.713887 
L 148.561971 122.289554 
L 150.943731 122.289554 
L 150.943731 128.284129 
L 153.325491 128.284129 
L 153.325491 110.619964 
L 155.707251 110.619964 
L 155.707251 110.02397 
L 158.089011 110.02397 
L 158.089011 108.171493 
L 160.470771 108.171493 
L 160.470771 114.446265 
L 162.852531 114.446265 
L 162.852531 108.517324 
L 165.234291 108.517324 
L 165.234291 111.376761 
L 167.616051 111.376761 
L 167.616051 104.493474 
L 169.997811 104.493474 
L 169.997811 100.725012 
L 172.379571 100.725012 
L 172.379571 107.943035 
L 174.761331 107.943035 
L 174.761331 95.982709 
L 177.143091 95.982709 
L 177.143091 92.148416 
L 179.524851 92.148416 
L 179.524851 96.993199 
L 181.906611 96.993199 
L 181.906611 97.311652 
L 184.288371 97.311652 
L 184.288371 105.920356 
L 186.670131 105.920356 
L 186.670131 89.901164 
L 189.051891 89.901164 
L 189.051891 81.170512 
L 191.433651 81.170512 
L 191.433651 102.884116 
L 193.815411 102.884116 
L 193.815411 80.768865 
L 196.197171 80.768865 
L 196.197171 84.907252 
L 198.578931 84.907252 
L 198.578931 89.105866 
L 200.960691 89.105866 
L 200.960691 82.131119 
L 203.342451 82.131119 
L 203.342451 79.751186 
L 205.724211 79.751186 
L 205.724211 70.403795 
L 208.105971 70.403795 
L 208.105971 73.521491 
L 210.487731 73.521491 
L 210.487731 82.282926 
L 212.869491 82.282926 
L 212.869491 79.187361 
L 215.251251 79.187361 
L 215.251251 79.032332 
L 217.633011 79.032332 
L 217.633011 78.409041 
L 220.014771 78.409041 
L 220.014771 76.164966 
L 222.396531 76.164966 
L 222.396531 94.335136 
L 224.778291 94.335136 
L 224.778291 99.74984 
L 227.160051 99.74984 
L 227.160051 82.557174 
L 229.541811 82.557174 
L 229.541811 85.519196 
L 231.923571 85.519196 
L 231.923571 88.901853 
L 234.305331 88.901853 
L 234.305331 92.851391 
L 236.687091 92.851391 
L 236.687091 91.865705 
L 239.068851 91.865705 
L 239.068851 91.708665 
L 241.450611 91.708665 
L 241.450611 104.968929 
L 243.832371 104.968929 
L 243.832371 88.140707 
L 246.214131 88.140707 
L 246.214131 93.994524 
L 248.595891 93.994524 
L 248.595891 102.029373 
L 250.977651 102.029373 
L 250.977651 89.25756 
L 253.359411 89.25756 
L 253.359411 95.15387 
L 255.741171 95.15387 
L 255.741171 98.671027 
L 258.122931 98.671027 
L 258.122931 104.095263 
L 260.504691 104.095263 
L 260.504691 102.794333 
L 262.886451 102.794333 
L 262.886451 104.634978 
L 265.268211 104.634978 
L 265.268211 99.119866 
L 267.649971 99.119866 
L 267.649971 103.335053 
L 270.031731 103.335053 
L 270.031731 119.065468 
L 272.413491 119.065468 
L 272.413491 102.281036 
L 274.795251 102.281036 
L 274.795251 105.397184 
L 277.177011 105.397184 
L 277.177011 106.117661 
L 279.558771 106.117661 
L 279.558771 114.659494 
L 281.940531 114.659494 
L 281.940531 111.488825 
L 283.104 111.488825 
z
" style="fill:#dd5500;fill-opacity:0.15;"/>
   </g>
   <g id="PolyCollection_2">
    <path clip-path="url(#p92f9df62c7)" d="M 283.104 35.837549 
L 283.104 37.932476 
L 281.940531 37.932476 
L 281.940531 37.721628 
L 279.558771 37.721628 
L 279.558771 37.900253 
L 277.177011 37.900253 
L 277.177011 37.750418 
L 274.795251 37.750418 
L 274.795251 37.802825 
L 272.413491 37.802825 
L 272.413491 37.447856 
L 270.031731 37.447856 
L 270.031731 37.828772 
L 267.649971 37.828772 
L 267.649971 37.742369 
L 265.268211 37.742369 
L 265.268211 37.044733 
L 262.886451 37.044733 
L 262.886451 36.93136 
L 260.504691 36.93136 
L 260.504691 37.661456 
L 258.122931 37.661456 
L 258.122931 37.582514 
L 255.741171 37.582514 
L 255.741171 36.922931 
L 253.359411 36.922931 
L 253.359411 37.577711 
L 250.977651 37.577711 
L 250.977651 37.150055 
L 248.595891 37.150055 
L 248.595891 37.440471 
L 246.214131 37.440471 
L 246.214131 37.098681 
L 243.832371 37.098681 
L 243.832371 36.481989 
L 241.450611 36.481989 
L 241.450611 36.296235 
L 239.068851 36.296235 
L 239.068851 36.300928 
L 236.687091 36.300928 
L 236.687091 35.446032 
L 234.305331 35.446032 
L 234.305331 36.460254 
L 231.923571 36.460254 
L 231.923571 34.897475 
L 229.541811 34.897475 
L 229.541811 36.718966 
L 227.160051 36.718966 
L 227.160051 36.469204 
L 224.778291 36.469204 
L 224.778291 34.365802 
L 222.396531 34.365802 
L 222.396531 35.214681 
L 220.014771 35.214681 
L 220.014771 34.432641 
L 217.633011 34.432641 
L 217.633011 35.14747 
L 215.251251 35.14747 
L 215.251251 35.374854 
L 212.869491 35.374854 
L 212.869491 33.238871 
L 210.487731 33.238871 
L 210.487731 31.702988 
L 208.105971 31.702988 
L 208.105971 34.457682 
L 205.724211 34.457682 
L 205.724211 35.429511 
L 203.342451 35.429511 
L 203.342451 33.126658 
L 200.960691 33.126658 
L 200.960691 32.485409 
L 198.578931 32.485409 
L 198.578931 35.350488 
L 196.197171 35.350488 
L 196.197171 33.555879 
L 193.815411 33.555879 
L 193.815411 32.644608 
L 191.433651 32.644608 
L 191.433651 35.400947 
L 189.051891 35.400947 
L 189.051891 34.36149 
L 186.670131 34.36149 
L 186.670131 34.957803 
L 184.288371 34.957803 
L 184.288371 34.459143 
L 181.906611 34.459143 
L 181.906611 34.445105 
L 179.524851 34.445105 
L 179.524851 34.777255 
L 177.143091 34.777255 
L 177.143091 32.681585 
L 174.761331 32.681585 
L 174.761331 35.107306 
L 172.379571 35.107306 
L 172.379571 36.386183 
L 169.997811 36.386183 
L 169.997811 37.642978 
L 167.616051 37.642978 
L 167.616051 36.460891 
L 165.234291 36.460891 
L 165.234291 36.777225 
L 162.852531 36.777225 
L 162.852531 35.631236 
L 160.470771 35.631236 
L 160.470771 37.500939 
L 158.089011 37.500939 
L 158.089011 35.172668 
L 155.707251 35.172668 
L 155.707251 36.821916 
L 153.325491 36.821916 
L 153.325491 37.275129 
L 150.943731 37.275129 
L 150.943731 37.769246 
L 148.561971 37.769246 
L 148.561971 38.081433 
L 146.180211 38.081433 
L 146.180211 37.088421 
L 143.798451 37.088421 
L 143.798451 37.720442 
L 141.416691 37.720442 
L 141.416691 37.474616 
L 139.034931 37.474616 
L 139.034931 37.168989 
L 136.653171 37.168989 
L 136.653171 37.961402 
L 134.271411 37.961402 
L 134.271411 38.165834 
L 131.889651 38.165834 
L 131.889651 37.859592 
L 129.507891 37.859592 
L 129.507891 38.030167 
L 127.126131 38.030167 
L 127.126131 37.512998 
L 124.744371 37.512998 
L 124.744371 38.015035 
L 122.362611 38.015035 
L 122.362611 38.339703 
L 119.980851 38.339703 
L 119.980851 38.26605 
L 117.599091 38.26605 
L 117.599091 38.492745 
L 115.217331 38.492745 
L 115.217331 37.742938 
L 112.835571 37.742938 
L 112.835571 37.977715 
L 110.453811 37.977715 
L 110.453811 37.962471 
L 108.072051 37.962471 
L 108.072051 37.960785 
L 105.690291 37.960785 
L 105.690291 38.516468 
L 103.308531 38.516468 
L 103.308531 38.223065 
L 100.926771 38.223065 
L 100.926771 38.491759 
L 98.545011 38.491759 
L 98.545011 38.314847 
L 96.163251 38.314847 
L 96.163251 38.7365 
L 93.781491 38.7365 
L 93.781491 38.447343 
L 91.399731 38.447343 
L 91.399731 38.443713 
L 89.017971 38.443713 
L 89.017971 38.49983 
L 86.636211 38.49983 
L 86.636211 38.608895 
L 84.254451 38.608895 
L 84.254451 38.417203 
L 81.872691 38.417203 
L 81.872691 38.382185 
L 79.490931 38.382185 
L 79.490931 38.529214 
L 77.109171 38.529214 
L 77.109171 38.538445 
L 74.727411 38.538445 
L 74.727411 38.576497 
L 72.345651 38.576497 
L 72.345651 38.489245 
L 69.963891 38.489245 
L 69.963891 38.516619 
L 67.582131 38.516619 
L 67.582131 38.328247 
L 65.200371 38.328247 
L 65.200371 38.47347 
L 62.818611 38.47347 
L 62.818611 38.458528 
L 60.436851 38.458528 
L 60.436851 38.452833 
L 58.055091 38.452833 
L 58.055091 38.412343 
L 55.673331 38.412343 
L 55.673331 38.408294 
L 53.291571 38.408294 
L 53.291571 38.563727 
L 50.909811 38.563727 
L 50.909811 38.436895 
L 48.528051 38.436895 
L 48.528051 38.4649 
L 46.146291 38.4649 
L 46.146291 38.331301 
L 44.928 38.331301 
L 44.928 37.693528 
L 44.928 37.693528 
L 46.146291 37.693528 
L 46.146291 37.744098 
L 48.528051 37.744098 
L 48.528051 37.784763 
L 50.909811 37.784763 
L 50.909811 37.828425 
L 53.291571 37.828425 
L 53.291571 37.540341 
L 55.673331 37.540341 
L 55.673331 37.436218 
L 58.055091 37.436218 
L 58.055091 37.467762 
L 60.436851 37.467762 
L 60.436851 37.493991 
L 62.818611 37.493991 
L 62.818611 37.52739 
L 65.200371 37.52739 
L 65.200371 37.371112 
L 67.582131 37.371112 
L 67.582131 37.373297 
L 69.963891 37.373297 
L 69.963891 37.5435 
L 72.345651 37.5435 
L 72.345651 37.242651 
L 74.727411 37.242651 
L 74.727411 37.218086 
L 77.109171 37.218086 
L 77.109171 37.289219 
L 79.490931 37.289219 
L 79.490931 37.14569 
L 81.872691 37.14569 
L 81.872691 37.223838 
L 84.254451 37.223838 
L 84.254451 36.549824 
L 86.636211 36.549824 
L 86.636211 36.572169 
L 89.017971 36.572169 
L 89.017971 36.598489 
L 91.399731 36.598489 
L 91.399731 36.196171 
L 93.781491 36.196171 
L 93.781491 36.334346 
L 96.163251 36.334346 
L 96.163251 36.368307 
L 98.545011 36.368307 
L 98.545011 36.446869 
L 100.926771 36.446869 
L 100.926771 35.62531 
L 103.308531 35.62531 
L 103.308531 36.967882 
L 105.690291 36.967882 
L 105.690291 35.31952 
L 108.072051 35.31952 
L 108.072051 35.280419 
L 110.453811 35.280419 
L 110.453811 35.068588 
L 112.835571 35.068588 
L 112.835571 33.763767 
L 115.217331 33.763767 
L 115.217331 36.01071 
L 117.599091 36.01071 
L 117.599091 35.093078 
L 119.980851 35.093078 
L 119.980851 34.20144 
L 122.362611 34.20144 
L 122.362611 35.094035 
L 124.744371 35.094035 
L 124.744371 32.880083 
L 127.126131 32.880083 
L 127.126131 34.815022 
L 129.507891 34.815022 
L 129.507891 33.734829 
L 131.889651 33.734829 
L 131.889651 33.703703 
L 134.271411 33.703703 
L 134.271411 30.073653 
L 136.653171 30.073653 
L 136.653171 32.807128 
L 139.034931 32.807128 
L 139.034931 29.63036 
L 141.416691 29.63036 
L 141.416691 32.086321 
L 143.798451 32.086321 
L 143.798451 29.099592 
L 146.180211 29.099592 
L 146.180211 31.544825 
L 148.561971 31.544825 
L 148.561971 30.871815 
L 150.943731 30.871815 
L 150.943731 28.917033 
L 153.325491 28.917033 
L 153.325491 31.108842 
L 155.707251 31.108842 
L 155.707251 27.33832 
L 158.089011 27.33832 
L 158.089011 31.556977 
L 160.470771 31.556977 
L 160.470771 26.615031 
L 162.852531 26.615031 
L 162.852531 29.998739 
L 165.234291 29.998739 
L 165.234291 26.226527 
L 167.616051 26.226527 
L 167.616051 28.144288 
L 169.997811 28.144288 
L 169.997811 26.914222 
L 172.379571 26.914222 
L 172.379571 26.248959 
L 174.761331 26.248959 
L 174.761331 20.911898 
L 177.143091 20.911898 
L 177.143091 20.251697 
L 179.524851 20.251697 
L 179.524851 16.269103 
L 181.906611 16.269103 
L 181.906611 21.64552 
L 184.288371 21.64552 
L 184.288371 20.033542 
L 186.670131 20.033542 
L 186.670131 22.804705 
L 189.051891 22.804705 
L 189.051891 22.866251 
L 191.433651 22.866251 
L 191.433651 14.472605 
L 193.815411 14.472605 
L 193.815411 20.951905 
L 196.197171 20.951905 
L 196.197171 24.011072 
L 198.578931 24.011072 
L 198.578931 19.611884 
L 200.960691 19.611884 
L 200.960691 13.341731 
L 203.342451 13.341731 
L 203.342451 19.255816 
L 205.724211 19.255816 
L 205.724211 20.392634 
L 208.105971 20.392634 
L 208.105971 15.579384 
L 210.487731 15.579384 
L 210.487731 14.602948 
L 212.869491 14.602948 
L 212.869491 24.010537 
L 215.251251 24.010537 
L 215.251251 20.716896 
L 217.633011 20.716896 
L 217.633011 21.877928 
L 220.014771 21.877928 
L 220.014771 19.764948 
L 222.396531 19.764948 
L 222.396531 18.343229 
L 224.778291 18.343229 
L 224.778291 28.08946 
L 227.160051 28.08946 
L 227.160051 28.565176 
L 229.541811 28.565176 
L 229.541811 24.124415 
L 231.923571 24.124415 
L 231.923571 28.41184 
L 234.305331 28.41184 
L 234.305331 26.602163 
L 236.687091 26.602163 
L 236.687091 29.861324 
L 239.068851 29.861324 
L 239.068851 20.796674 
L 241.450611 20.796674 
L 241.450611 27.084027 
L 243.832371 27.084027 
L 243.832371 30.360547 
L 246.214131 30.360547 
L 246.214131 31.603856 
L 248.595891 31.603856 
L 248.595891 31.077617 
L 250.977651 31.077617 
L 250.977651 32.224844 
L 253.359411 32.224844 
L 253.359411 31.476171 
L 255.741171 31.476171 
L 255.741171 31.032232 
L 258.122931 31.032232 
L 258.122931 32.036578 
L 260.504691 32.036578 
L 260.504691 30.505749 
L 262.886451 30.505749 
L 262.886451 33.946623 
L 265.268211 33.946623 
L 265.268211 33.608487 
L 267.649971 33.608487 
L 267.649971 35.247986 
L 270.031731 35.247986 
L 270.031731 33.863684 
L 272.413491 33.863684 
L 272.413491 35.541668 
L 274.795251 35.541668 
L 274.795251 34.889096 
L 277.177011 34.889096 
L 277.177011 34.045002 
L 279.558771 34.045002 
L 279.558771 35.208302 
L 281.940531 35.208302 
L 281.940531 35.837549 
L 283.104 35.837549 
z
" style="fill:#0088ff;fill-opacity:0.15;"/>
   </g>
   <g id="matplotlib.axis_1">
    <g id="xtick_1">
     <g id="line2d_1">
      <path clip-path="url(#p92f9df62c7)" d="M 44.928 180.87408 
L 44.928 5.364 
" style="fill:none;stroke:#dddddd;stroke-linecap:square;stroke-width:0.5;"/>
     </g>
     <g id="line2d_2">
      <defs>
       <path d="M 0 0 
L 0 3.5 
" id="m107abae5c8" style="stroke:#000000;stroke-width:0.8;"/>
      </defs>
      <g>
       <use style="stroke:#000000;stroke-width:0.8;" x="44.928" xlink:href="#m107abae5c8" y="180.87408"/>
      </g>
     </g>
     <g id="text_1">
      <!-- $\mathdefault{10^{-1}}$ -->
      <defs>
       <path d="M 26.59375 63.796875 
C 26.59375 65.890625 26.5 66 25.09375 66 
C 21.203125 61.359375 15.296875 59.890625 9.703125 59.6875 
C 9.40625 59.6875 8.90625 59.6875 8.796875 59.5 
C 8.703125 59.296875 8.703125 59.09375 8.703125 57 
C 11.796875 57 17 57.59375 21 59.984375 
L 21 7.296875 
C 21 3.796875 20.796875 2.59375 12.203125 2.59375 
L 9.203125 2.59375 
L 9.203125 0 
C 14 0.09375 19 0.1875 23.796875 0.1875 
C 28.59375 0.1875 33.59375 0.09375 38.40625 0 
L 38.40625 2.59375 
L 35.40625 2.59375 
C 26.796875 2.59375 26.59375 3.6875 26.59375 7.296875 
z
" id="CMR17-49"/>
       <path d="M 42 31.84375 
C 42 37.96875 41.90625 48.421875 37.703125 56.453125 
C 34 63.484375 28.09375 66 22.90625 66 
C 18.09375 66 12 63.78125 8.203125 56.5625 
C 4.203125 49.015625 3.796875 39.671875 3.796875 31.84375 
C 3.796875 26.109375 3.90625 17.375 7 9.734375 
C 11.296875 -0.609375 19 -2 22.90625 -2 
C 27.5 -2 34.5 -0.109375 38.59375 9.4375 
C 41.59375 16.375 42 24.5 42 31.84375 
z
M 22.90625 -0.40625 
C 16.5 -0.40625 12.703125 5.125 11.296875 12.75 
C 10.203125 18.6875 10.203125 27.328125 10.203125 32.953125 
C 10.203125 40.6875 10.203125 47.109375 11.5 53.234375 
C 13.40625 61.78125 19 64.390625 22.90625 64.390625 
C 27 64.390625 32.296875 61.671875 34.203125 53.4375 
C 35.5 47.71875 35.59375 40.984375 35.59375 32.953125 
C 35.59375 26.421875 35.59375 18.375 34.40625 12.453125 
C 32.296875 1.5 26.40625 -0.40625 22.90625 -0.40625 
z
" id="CMR17-48"/>
       <path d="M 65.90625 23 
C 67.59375 23 69.40625 23 69.40625 25 
C 69.40625 27 67.59375 27 65.90625 27 
L 11.796875 27 
C 10.09375 27 8.296875 27 8.296875 25 
C 8.296875 23 10.09375 23 11.796875 23 
z
" id="CMSY10-0"/>
      </defs>
      <g transform="translate(34.847713 194.792578)scale(0.1 -0.1)">
       <use transform="scale(0.996264)" xlink:href="#CMR17-49"/>
       <use transform="translate(45.690477 0)scale(0.996264)" xlink:href="#CMR17-48"/>
       <use transform="translate(91.380954 36.153639)scale(0.697382)" xlink:href="#CMSY10-0"/>
       <use transform="translate(145.621947 36.153639)scale(0.697382)" xlink:href="#CMR17-49"/>
      </g>
     </g>
    </g>
    <g id="xtick_2">
     <g id="line2d_3">
      <path clip-path="url(#p92f9df62c7)" d="M 104.472 180.87408 
L 104.472 5.364 
" style="fill:none;stroke:#dddddd;stroke-linecap:square;stroke-width:0.5;"/>
     </g>
     <g id="line2d_4">
      <g>
       <use style="stroke:#000000;stroke-width:0.8;" x="104.472" xlink:href="#m107abae5c8" y="180.87408"/>
      </g>
     </g>
     <g id="text_2">
      <!-- $\mathdefault{10^{0}}$ -->
      <g transform="translate(97.505046 194.792578)scale(0.1 -0.1)">
       <use transform="scale(0.996264)" xlink:href="#CMR17-49"/>
       <use transform="translate(45.690477 0)scale(0.996264)" xlink:href="#CMR17-48"/>
       <use transform="translate(91.380954 36.153639)scale(0.697382)" xlink:href="#CMR17-48"/>
      </g>
     </g>
    </g>
    <g id="xtick_3">
     <g id="line2d_5">
      <path clip-path="url(#p92f9df62c7)" d="M 164.016 180.87408 
L 164.016 5.364 
" style="fill:none;stroke:#dddddd;stroke-linecap:square;stroke-width:0.5;"/>
     </g>
     <g id="line2d_6">
      <g>
       <use style="stroke:#000000;stroke-width:0.8;" x="164.016" xlink:href="#m107abae5c8" y="180.87408"/>
      </g>
     </g>
     <g id="text_3">
      <!-- $\mathdefault{10^{1}}$ -->
      <g transform="translate(157.049046 194.792578)scale(0.1 -0.1)">
       <use transform="scale(0.996264)" xlink:href="#CMR17-49"/>
       <use transform="translate(45.690477 0)scale(0.996264)" xlink:href="#CMR17-48"/>
       <use transform="translate(91.380954 36.153639)scale(0.697382)" xlink:href="#CMR17-49"/>
      </g>
     </g>
    </g>
    <g id="xtick_4">
     <g id="line2d_7">
      <path clip-path="url(#p92f9df62c7)" d="M 223.56 180.87408 
L 223.56 5.364 
" style="fill:none;stroke:#dddddd;stroke-linecap:square;stroke-width:0.5;"/>
     </g>
     <g id="line2d_8">
      <g>
       <use style="stroke:#000000;stroke-width:0.8;" x="223.56" xlink:href="#m107abae5c8" y="180.87408"/>
      </g>
     </g>
     <g id="text_4">
      <!-- $\mathdefault{10^{2}}$ -->
      <defs>
       <path d="M 41.703125 15.46875 
L 39.90625 15.46875 
C 38.90625 8.390625 38.09375 7.1875 37.703125 6.59375 
C 37.203125 5.796875 30 5.796875 28.59375 5.796875 
L 9.40625 5.796875 
C 13 9.6875 20 16.765625 28.5 24.9375 
C 34.59375 30.71875 41.703125 37.5 41.703125 47.390625 
C 41.703125 59.1875 32.296875 66 21.796875 66 
C 10.796875 66 4.09375 56.296875 4.09375 47.296875 
C 4.09375 43.390625 7 42.890625 8.203125 42.890625 
C 9.203125 42.890625 12.203125 43.484375 12.203125 46.984375 
C 12.203125 50.09375 9.59375 51 8.203125 51 
C 7.59375 51 7 50.890625 6.59375 50.6875 
C 8.5 59.1875 14.296875 63.390625 20.40625 63.390625 
C 29.09375 63.390625 34.796875 56.5 34.796875 47.390625 
C 34.796875 38.703125 29.703125 31.21875 24 24.734375 
L 4.09375 2.296875 
L 4.09375 0 
L 39.296875 0 
z
" id="CMR17-50"/>
      </defs>
      <g transform="translate(216.593046 194.792578)scale(0.1 -0.1)">
       <use transform="scale(0.996264)" xlink:href="#CMR17-49"/>
       <use transform="translate(45.690477 0)scale(0.996264)" xlink:href="#CMR17-48"/>
       <use transform="translate(91.380954 36.153639)scale(0.697382)" xlink:href="#CMR17-50"/>
      </g>
     </g>
    </g>
    <g id="xtick_5">
     <g id="line2d_9">
      <path clip-path="url(#p92f9df62c7)" d="M 283.104 180.87408 
L 283.104 5.364 
" style="fill:none;stroke:#dddddd;stroke-linecap:square;stroke-width:0.5;"/>
     </g>
     <g id="line2d_10">
      <g>
       <use style="stroke:#000000;stroke-width:0.8;" x="283.104" xlink:href="#m107abae5c8" y="180.87408"/>
      </g>
     </g>
     <g id="text_5">
      <!-- $\mathdefault{10^{3}}$ -->
      <defs>
       <path d="M 22.09375 34 
C 31 34 34.90625 26.140625 34.90625 17.09375 
C 34.90625 5.03125 28.5 0.390625 22.703125 0.390625 
C 17.40625 0.390625 8.796875 3.015625 6.09375 10.796875 
C 6.59375 10.59375 7.09375 10.59375 7.59375 10.59375 
C 10 10.59375 11.796875 12.1875 11.796875 14.796875 
C 11.796875 17.6875 9.59375 19 7.59375 19 
C 5.90625 19 3.296875 18.1875 3.296875 14.484375 
C 3.296875 5.234375 12.296875 -2 22.90625 -2 
C 34 -2 42.5 6.75 42.5 16.984375 
C 42.5 26.84375 34.5 34 25 35.09375 
C 32.59375 36.671875 39.90625 43.375 39.90625 52.390625 
C 39.90625 60.25 32 66 23 66 
C 13.90625 66 5.90625 60.34375 5.90625 52.296875 
C 5.90625 48.796875 8.5 48.1875 9.796875 48.1875 
C 11.90625 48.1875 13.703125 49.484375 13.703125 52.09375 
C 13.703125 54.6875 11.90625 56 9.796875 56 
C 9.40625 56 8.90625 56 8.5 55.796875 
C 11.40625 62.484375 19.296875 63.6875 22.796875 63.6875 
C 26.296875 63.6875 32.90625 61.96875 32.90625 52.296875 
C 32.90625 49.484375 32.5 44.546875 29.09375 40.21875 
C 26.09375 36.390625 22.703125 36.1875 19.40625 35.890625 
C 18.90625 35.890625 16.59375 35.6875 16.203125 35.6875 
C 15.5 35.59375 15.09375 35.5 15.09375 34.796875 
C 15.09375 34.09375 15.203125 34 17.203125 34 
z
" id="CMR17-51"/>
      </defs>
      <g transform="translate(276.137046 194.792578)scale(0.1 -0.1)">
       <use transform="scale(0.996264)" xlink:href="#CMR17-49"/>
       <use transform="translate(45.690477 0)scale(0.996264)" xlink:href="#CMR17-48"/>
       <use transform="translate(91.380954 36.153639)scale(0.697382)" xlink:href="#CMR17-51"/>
      </g>
     </g>
    </g>
    <g id="xtick_6">
     <g id="line2d_11">
      <path clip-path="url(#p92f9df62c7)" d="M 62.85253 180.87408 
L 62.85253 5.364 
" style="fill:none;stroke:#dddddd;stroke-linecap:square;stroke-width:0.5;"/>
     </g>
     <g id="line2d_12">
      <defs>
       <path d="M 0 0 
L 0 2 
" id="m2882a7b966" style="stroke:#000000;stroke-width:0.6;"/>
      </defs>
      <g>
       <use style="stroke:#000000;stroke-width:0.6;" x="62.85253" xlink:href="#m2882a7b966" y="180.87408"/>
      </g>
     </g>
    </g>
    <g id="xtick_7">
     <g id="line2d_13">
      <path clip-path="url(#p92f9df62c7)" d="M 73.337708 180.87408 
L 73.337708 5.364 
" style="fill:none;stroke:#dddddd;stroke-linecap:square;stroke-width:0.5;"/>
     </g>
     <g id="line2d_14">
      <g>
       <use style="stroke:#000000;stroke-width:0.6;" x="73.337708" xlink:href="#m2882a7b966" y="180.87408"/>
      </g>
     </g>
    </g>
    <g id="xtick_8">
     <g id="line2d_15">
      <path clip-path="url(#p92f9df62c7)" d="M 80.77706 180.87408 
L 80.77706 5.364 
" style="fill:none;stroke:#dddddd;stroke-linecap:square;stroke-width:0.5;"/>
     </g>
     <g id="line2d_16">
      <g>
       <use style="stroke:#000000;stroke-width:0.6;" x="80.77706" xlink:href="#m2882a7b966" y="180.87408"/>
      </g>
     </g>
    </g>
    <g id="xtick_9">
     <g id="line2d_17">
      <path clip-path="url(#p92f9df62c7)" d="M 86.54747 180.87408 
L 86.54747 5.364 
" style="fill:none;stroke:#dddddd;stroke-linecap:square;stroke-width:0.5;"/>
     </g>
     <g id="line2d_18">
      <g>
       <use style="stroke:#000000;stroke-width:0.6;" x="86.54747" xlink:href="#m2882a7b966" y="180.87408"/>
      </g>
     </g>
    </g>
    <g id="xtick_10">
     <g id="line2d_19">
      <path clip-path="url(#p92f9df62c7)" d="M 91.262238 180.87408 
L 91.262238 5.364 
" style="fill:none;stroke:#dddddd;stroke-linecap:square;stroke-width:0.5;"/>
     </g>
     <g id="line2d_20">
      <g>
       <use style="stroke:#000000;stroke-width:0.6;" x="91.262238" xlink:href="#m2882a7b966" y="180.87408"/>
      </g>
     </g>
    </g>
    <g id="xtick_11">
     <g id="line2d_21">
      <path clip-path="url(#p92f9df62c7)" d="M 95.248518 180.87408 
L 95.248518 5.364 
" style="fill:none;stroke:#dddddd;stroke-linecap:square;stroke-width:0.5;"/>
     </g>
     <g id="line2d_22">
      <g>
       <use style="stroke:#000000;stroke-width:0.6;" x="95.248518" xlink:href="#m2882a7b966" y="180.87408"/>
      </g>
     </g>
    </g>
    <g id="xtick_12">
     <g id="line2d_23">
      <path clip-path="url(#p92f9df62c7)" d="M 98.70159 180.87408 
L 98.70159 5.364 
" style="fill:none;stroke:#dddddd;stroke-linecap:square;stroke-width:0.5;"/>
     </g>
     <g id="line2d_24">
      <g>
       <use style="stroke:#000000;stroke-width:0.6;" x="98.70159" xlink:href="#m2882a7b966" y="180.87408"/>
      </g>
     </g>
    </g>
    <g id="xtick_13">
     <g id="line2d_25">
      <path clip-path="url(#p92f9df62c7)" d="M 101.747416 180.87408 
L 101.747416 5.364 
" style="fill:none;stroke:#dddddd;stroke-linecap:square;stroke-width:0.5;"/>
     </g>
     <g id="line2d_26">
      <g>
       <use style="stroke:#000000;stroke-width:0.6;" x="101.747416" xlink:href="#m2882a7b966" y="180.87408"/>
      </g>
     </g>
    </g>
    <g id="xtick_14">
     <g id="line2d_27">
      <path clip-path="url(#p92f9df62c7)" d="M 122.39653 180.87408 
L 122.39653 5.364 
" style="fill:none;stroke:#dddddd;stroke-linecap:square;stroke-width:0.5;"/>
     </g>
     <g id="line2d_28">
      <g>
       <use style="stroke:#000000;stroke-width:0.6;" x="122.39653" xlink:href="#m2882a7b966" y="180.87408"/>
      </g>
     </g>
    </g>
    <g id="xtick_15">
     <g id="line2d_29">
      <path clip-path="url(#p92f9df62c7)" d="M 132.881708 180.87408 
L 132.881708 5.364 
" style="fill:none;stroke:#dddddd;stroke-linecap:square;stroke-width:0.5;"/>
     </g>
     <g id="line2d_30">
      <g>
       <use style="stroke:#000000;stroke-width:0.6;" x="132.881708" xlink:href="#m2882a7b966" y="180.87408"/>
      </g>
     </g>
    </g>
    <g id="xtick_16">
     <g id="line2d_31">
      <path clip-path="url(#p92f9df62c7)" d="M 140.32106 180.87408 
L 140.32106 5.364 
" style="fill:none;stroke:#dddddd;stroke-linecap:square;stroke-width:0.5;"/>
     </g>
     <g id="line2d_32">
      <g>
       <use style="stroke:#000000;stroke-width:0.6;" x="140.32106" xlink:href="#m2882a7b966" y="180.87408"/>
      </g>
     </g>
    </g>
    <g id="xtick_17">
     <g id="line2d_33">
      <path clip-path="url(#p92f9df62c7)" d="M 146.09147 180.87408 
L 146.09147 5.364 
" style="fill:none;stroke:#dddddd;stroke-linecap:square;stroke-width:0.5;"/>
     </g>
     <g id="line2d_34">
      <g>
       <use style="stroke:#000000;stroke-width:0.6;" x="146.09147" xlink:href="#m2882a7b966" y="180.87408"/>
      </g>
     </g>
    </g>
    <g id="xtick_18">
     <g id="line2d_35">
      <path clip-path="url(#p92f9df62c7)" d="M 150.806238 180.87408 
L 150.806238 5.364 
" style="fill:none;stroke:#dddddd;stroke-linecap:square;stroke-width:0.5;"/>
     </g>
     <g id="line2d_36">
      <g>
       <use style="stroke:#000000;stroke-width:0.6;" x="150.806238" xlink:href="#m2882a7b966" y="180.87408"/>
      </g>
     </g>
    </g>
    <g id="xtick_19">
     <g id="line2d_37">
      <path clip-path="url(#p92f9df62c7)" d="M 154.792518 180.87408 
L 154.792518 5.364 
" style="fill:none;stroke:#dddddd;stroke-linecap:square;stroke-width:0.5;"/>
     </g>
     <g id="line2d_38">
      <g>
       <use style="stroke:#000000;stroke-width:0.6;" x="154.792518" xlink:href="#m2882a7b966" y="180.87408"/>
      </g>
     </g>
    </g>
    <g id="xtick_20">
     <g id="line2d_39">
      <path clip-path="url(#p92f9df62c7)" d="M 158.24559 180.87408 
L 158.24559 5.364 
" style="fill:none;stroke:#dddddd;stroke-linecap:square;stroke-width:0.5;"/>
     </g>
     <g id="line2d_40">
      <g>
       <use style="stroke:#000000;stroke-width:0.6;" x="158.24559" xlink:href="#m2882a7b966" y="180.87408"/>
      </g>
     </g>
    </g>
    <g id="xtick_21">
     <g id="line2d_41">
      <path clip-path="url(#p92f9df62c7)" d="M 161.291416 180.87408 
L 161.291416 5.364 
" style="fill:none;stroke:#dddddd;stroke-linecap:square;stroke-width:0.5;"/>
     </g>
     <g id="line2d_42">
      <g>
       <use style="stroke:#000000;stroke-width:0.6;" x="161.291416" xlink:href="#m2882a7b966" y="180.87408"/>
      </g>
     </g>
    </g>
    <g id="xtick_22">
     <g id="line2d_43">
      <path clip-path="url(#p92f9df62c7)" d="M 181.94053 180.87408 
L 181.94053 5.364 
" style="fill:none;stroke:#dddddd;stroke-linecap:square;stroke-width:0.5;"/>
     </g>
     <g id="line2d_44">
      <g>
       <use style="stroke:#000000;stroke-width:0.6;" x="181.94053" xlink:href="#m2882a7b966" y="180.87408"/>
      </g>
     </g>
    </g>
    <g id="xtick_23">
     <g id="line2d_45">
      <path clip-path="url(#p92f9df62c7)" d="M 192.425708 180.87408 
L 192.425708 5.364 
" style="fill:none;stroke:#dddddd;stroke-linecap:square;stroke-width:0.5;"/>
     </g>
     <g id="line2d_46">
      <g>
       <use style="stroke:#000000;stroke-width:0.6;" x="192.425708" xlink:href="#m2882a7b966" y="180.87408"/>
      </g>
     </g>
    </g>
    <g id="xtick_24">
     <g id="line2d_47">
      <path clip-path="url(#p92f9df62c7)" d="M 199.86506 180.87408 
L 199.86506 5.364 
" style="fill:none;stroke:#dddddd;stroke-linecap:square;stroke-width:0.5;"/>
     </g>
     <g id="line2d_48">
      <g>
       <use style="stroke:#000000;stroke-width:0.6;" x="199.86506" xlink:href="#m2882a7b966" y="180.87408"/>
      </g>
     </g>
    </g>
    <g id="xtick_25">
     <g id="line2d_49">
      <path clip-path="url(#p92f9df62c7)" d="M 205.63547 180.87408 
L 205.63547 5.364 
" style="fill:none;stroke:#dddddd;stroke-linecap:square;stroke-width:0.5;"/>
     </g>
     <g id="line2d_50">
      <g>
       <use style="stroke:#000000;stroke-width:0.6;" x="205.63547" xlink:href="#m2882a7b966" y="180.87408"/>
      </g>
     </g>
    </g>
    <g id="xtick_26">
     <g id="line2d_51">
      <path clip-path="url(#p92f9df62c7)" d="M 210.350238 180.87408 
L 210.350238 5.364 
" style="fill:none;stroke:#dddddd;stroke-linecap:square;stroke-width:0.5;"/>
     </g>
     <g id="line2d_52">
      <g>
       <use style="stroke:#000000;stroke-width:0.6;" x="210.350238" xlink:href="#m2882a7b966" y="180.87408"/>
      </g>
     </g>
    </g>
    <g id="xtick_27">
     <g id="line2d_53">
      <path clip-path="url(#p92f9df62c7)" d="M 214.336518 180.87408 
L 214.336518 5.364 
" style="fill:none;stroke:#dddddd;stroke-linecap:square;stroke-width:0.5;"/>
     </g>
     <g id="line2d_54">
      <g>
       <use style="stroke:#000000;stroke-width:0.6;" x="214.336518" xlink:href="#m2882a7b966" y="180.87408"/>
      </g>
     </g>
    </g>
    <g id="xtick_28">
     <g id="line2d_55">
      <path clip-path="url(#p92f9df62c7)" d="M 217.78959 180.87408 
L 217.78959 5.364 
" style="fill:none;stroke:#dddddd;stroke-linecap:square;stroke-width:0.5;"/>
     </g>
     <g id="line2d_56">
      <g>
       <use style="stroke:#000000;stroke-width:0.6;" x="217.78959" xlink:href="#m2882a7b966" y="180.87408"/>
      </g>
     </g>
    </g>
    <g id="xtick_29">
     <g id="line2d_57">
      <path clip-path="url(#p92f9df62c7)" d="M 220.835416 180.87408 
L 220.835416 5.364 
" style="fill:none;stroke:#dddddd;stroke-linecap:square;stroke-width:0.5;"/>
     </g>
     <g id="line2d_58">
      <g>
       <use style="stroke:#000000;stroke-width:0.6;" x="220.835416" xlink:href="#m2882a7b966" y="180.87408"/>
      </g>
     </g>
    </g>
    <g id="xtick_30">
     <g id="line2d_59">
      <path clip-path="url(#p92f9df62c7)" d="M 241.48453 180.87408 
L 241.48453 5.364 
" style="fill:none;stroke:#dddddd;stroke-linecap:square;stroke-width:0.5;"/>
     </g>
     <g id="line2d_60">
      <g>
       <use style="stroke:#000000;stroke-width:0.6;" x="241.48453" xlink:href="#m2882a7b966" y="180.87408"/>
      </g>
     </g>
    </g>
    <g id="xtick_31">
     <g id="line2d_61">
      <path clip-path="url(#p92f9df62c7)" d="M 251.969708 180.87408 
L 251.969708 5.364 
" style="fill:none;stroke:#dddddd;stroke-linecap:square;stroke-width:0.5;"/>
     </g>
     <g id="line2d_62">
      <g>
       <use style="stroke:#000000;stroke-width:0.6;" x="251.969708" xlink:href="#m2882a7b966" y="180.87408"/>
      </g>
     </g>
    </g>
    <g id="xtick_32">
     <g id="line2d_63">
      <path clip-path="url(#p92f9df62c7)" d="M 259.40906 180.87408 
L 259.40906 5.364 
" style="fill:none;stroke:#dddddd;stroke-linecap:square;stroke-width:0.5;"/>
     </g>
     <g id="line2d_64">
      <g>
       <use style="stroke:#000000;stroke-width:0.6;" x="259.40906" xlink:href="#m2882a7b966" y="180.87408"/>
      </g>
     </g>
    </g>
    <g id="xtick_33">
     <g id="line2d_65">
      <path clip-path="url(#p92f9df62c7)" d="M 265.17947 180.87408 
L 265.17947 5.364 
" style="fill:none;stroke:#dddddd;stroke-linecap:square;stroke-width:0.5;"/>
     </g>
     <g id="line2d_66">
      <g>
       <use style="stroke:#000000;stroke-width:0.6;" x="265.17947" xlink:href="#m2882a7b966" y="180.87408"/>
      </g>
     </g>
    </g>
    <g id="xtick_34">
     <g id="line2d_67">
      <path clip-path="url(#p92f9df62c7)" d="M 269.894238 180.87408 
L 269.894238 5.364 
" style="fill:none;stroke:#dddddd;stroke-linecap:square;stroke-width:0.5;"/>
     </g>
     <g id="line2d_68">
      <g>
       <use style="stroke:#000000;stroke-width:0.6;" x="269.894238" xlink:href="#m2882a7b966" y="180.87408"/>
      </g>
     </g>
    </g>
    <g id="xtick_35">
     <g id="line2d_69">
      <path clip-path="url(#p92f9df62c7)" d="M 273.880518 180.87408 
L 273.880518 5.364 
" style="fill:none;stroke:#dddddd;stroke-linecap:square;stroke-width:0.5;"/>
     </g>
     <g id="line2d_70">
      <g>
       <use style="stroke:#000000;stroke-width:0.6;" x="273.880518" xlink:href="#m2882a7b966" y="180.87408"/>
      </g>
     </g>
    </g>
    <g id="xtick_36">
     <g id="line2d_71">
      <path clip-path="url(#p92f9df62c7)" d="M 277.33359 180.87408 
L 277.33359 5.364 
" style="fill:none;stroke:#dddddd;stroke-linecap:square;stroke-width:0.5;"/>
     </g>
     <g id="line2d_72">
      <g>
       <use style="stroke:#000000;stroke-width:0.6;" x="277.33359" xlink:href="#m2882a7b966" y="180.87408"/>
      </g>
     </g>
    </g>
    <g id="xtick_37">
     <g id="line2d_73">
      <path clip-path="url(#p92f9df62c7)" d="M 280.379416 180.87408 
L 280.379416 5.364 
" style="fill:none;stroke:#dddddd;stroke-linecap:square;stroke-width:0.5;"/>
     </g>
     <g id="line2d_74">
      <g>
       <use style="stroke:#000000;stroke-width:0.6;" x="280.379416" xlink:href="#m2882a7b966" y="180.87408"/>
      </g>
     </g>
    </g>
    <g id="text_6">
     <!-- fluctuator rate $\gamma$ [$\textrm{ns}^{-1}$] -->
     <defs>
      <path d="M 39.90625 69.1875 
C 38.796875 68.984375 37.90625 68.796875 36.59375 68.484375 
C 33.703125 70 29.90625 70 28.90625 70 
C 20.40625 70 9.90625 65.21875 9.90625 54.59375 
L 9.90625 43 
L 1.90625 43 
L 1.90625 40.390625 
L 9.90625 40.390625 
L 9.90625 6.890625 
C 9.90625 3.09375 9.5 2.59375 3.09375 2.59375 
L 3.09375 0 
C 5.5 0.1875 9.90625 0.1875 12.40625 0.1875 
C 15 0.1875 19.40625 0.1875 21.796875 0 
L 21.796875 2.59375 
C 15.40625 2.59375 15 3 15 6.890625 
L 15 40.390625 
L 34.796875 40.390625 
L 34.796875 6.890625 
C 34.796875 3.09375 34.40625 2.59375 28 2.59375 
L 28 0 
C 30.40625 0.1875 34.796875 0.1875 37.296875 0.1875 
C 39.90625 0.1875 44.296875 0.1875 46.703125 0 
L 46.703125 2.59375 
C 40.296875 2.59375 39.90625 3 39.90625 6.890625 
z
M 14.796875 43 
L 14.796875 54.59375 
C 14.796875 63.328125 21.40625 68.390625 28.703125 68.390625 
C 29.203125 68.390625 34.703125 68.1875 34.703125 67.203125 
C 34.703125 67.09375 34.59375 67 34.09375 66.5 
C 33.203125 65.90625 32.796875 64.921875 32.796875 63.921875 
C 32.796875 62.53125 33.5 61.34375 34.796875 60.84375 
L 34.796875 43 
z
" id="CMR17-13"/>
      <path d="M 29.40625 42.890625 
L 29.40625 40.296875 
C 35.296875 40.296875 36.203125 39.6875 36.203125 34.828125 
L 36.203125 16.453125 
C 36.203125 7.96875 31.703125 0.59375 24.296875 0.59375 
C 16.09375 0.59375 15.40625 5.546875 15.40625 10.796875 
L 15.40625 44 
L 3.296875 42.890625 
L 3.296875 40.296875 
C 7.296875 40.296875 10 40.296875 10.09375 36.25 
L 10.09375 16.859375 
C 10.09375 10.09375 10.09375 5.75 12.703125 2.921875 
C 14 1.609375 16.5 -1 23.703125 -1 
C 32.203125 -1 35.5 6.25 36.296875 8.375 
L 36.40625 8.375 
L 36.40625 -1 
L 48.296875 -0.203125 
L 48.296875 2.40625 
C 42.40625 2.40625 41.5 3.015625 41.5 7.859375 
L 41.5 44 
z
" id="CMR17-117"/>
      <path d="M 34.90625 35 
C 33 35 30.203125 35 30.203125 31.484375 
C 30.203125 28.6875 32.5 27.890625 33.796875 27.890625 
C 34.5 27.890625 37.40625 28.1875 37.40625 31.6875 
C 37.40625 38.6875 30.59375 44 22.90625 44 
C 12.296875 44 3.296875 34.390625 3.296875 21.546875 
C 3.296875 8.140625 12.703125 -1 22.90625 -1 
C 35.296875 -1 38.40625 10.5625 38.40625 11.671875 
C 38.40625 12.078125 38.296875 12.375 37.59375 12.375 
C 36.90625 12.375 36.796875 12.28125 36.40625 10.96875 
C 33.796875 2.8125 28.09375 0.796875 23.796875 0.796875 
C 17.40625 0.796875 9.703125 6.734375 9.703125 21.640625 
C 9.703125 36.84375 17.09375 42.1875 23 42.1875 
C 26.90625 42.1875 32.703125 40.34375 34.90625 35 
z
" id="CMR17-99"/>
      <path d="M 15.09375 40.390625 
L 29.09375 40.390625 
L 29.09375 43 
L 15.09375 43 
L 15.09375 62 
L 13.296875 62 
C 13.09375 51.4375 9.59375 42.1875 1.09375 41.984375 
L 1.09375 40.390625 
L 9.796875 40.390625 
L 9.796875 12.15625 
C 9.796875 10.234375 9.796875 -1 21.40625 -1 
C 27.296875 -1 30.703125 4.8125 30.703125 12.25 
L 30.703125 17.984375 
L 28.90625 17.984375 
L 28.90625 12.34375 
C 28.90625 5.421875 26.203125 0.796875 22 0.796875 
C 19.09375 0.796875 15.09375 2.796875 15.09375 11.953125 
z
" id="CMR17-116"/>
      <path d="M 36 25.875 
C 36 32 36 35.546875 31.796875 39.59375 
C 28.09375 42.984375 23.796875 44 20.40625 44 
C 12.5 44 6.796875 37.625 6.796875 30.890625 
C 6.796875 27.1875 9.796875 27 10.40625 27 
C 11.703125 27 14 27.796875 14 30.59375 
C 14 33.09375 12.09375 34.1875 10.40625 34.1875 
C 10 34.1875 9.5 34.09375 9.203125 34 
C 11.296875 40.53125 16.703125 42.390625 20.203125 42.390625 
C 25.203125 42.390625 30.703125 37.828125 30.703125 29.296875 
L 30.703125 25.5 
C 24.796875 25.296875 17.703125 24.5 12.09375 21.453125 
C 5.796875 17.921875 4 12.84375 4 9 
C 4 1.203125 13 -1 18.296875 -1 
C 23.796875 -1 28.90625 2.109375 31.09375 7.890625 
C 31.296875 3.421875 34.09375 -0.609375 38.5 -0.609375 
C 40.59375 -0.609375 45.90625 0.796875 45.90625 8.796875 
L 45.90625 14.46875 
L 44.09375 14.46875 
L 44.09375 8.703125 
C 44.09375 2.515625 41.40625 1.703125 40.09375 1.703125 
C 36 1.703125 36 6.96875 36 11.4375 
z
M 30.703125 13.859375 
C 30.703125 5.046875 24.5 0.59375 19 0.59375 
C 14 0.59375 10.09375 4.34375 10.09375 9 
C 10.09375 12.046875 11.40625 17.40625 17.203125 20.65625 
C 22 23.390625 27.5 23.796875 30.703125 24 
z
" id="CMR17-97"/>
      <path d="M 43.09375 21.1875 
C 43.09375 34 33.796875 44 22.90625 44 
C 12 44 2.703125 34 2.703125 21.1875 
C 2.703125 8.59375 12 -1 22.90625 -1 
C 33.796875 -1 43.09375 8.59375 43.09375 21.1875 
z
M 22.90625 0.796875 
C 18.203125 0.796875 14.203125 3.59375 11.90625 7.5 
C 9.40625 12 9.09375 17.59375 9.09375 22 
C 9.09375 26.1875 9.296875 31.390625 11.90625 35.890625 
C 13.90625 39.1875 17.796875 42.390625 22.90625 42.390625 
C 27.40625 42.390625 31.203125 39.890625 33.59375 36.390625 
C 36.703125 31.6875 36.703125 25.09375 36.703125 22 
C 36.703125 18.09375 36.5 12.09375 33.796875 7.296875 
C 31 2.6875 26.703125 0.796875 22.90625 0.796875 
z
" id="CMR17-111"/>
      <path d="M 15 23.703125 
C 15 33.34375 19.09375 42.390625 26.59375 42.390625 
C 27.296875 42.390625 28 42.296875 28.703125 41.984375 
C 28.703125 41.984375 26.5 41.28125 26.5 38.671875 
C 26.5 36.265625 28.40625 35.265625 29.90625 35.265625 
C 31.09375 35.265625 33.296875 35.96875 33.296875 38.78125 
C 33.296875 41.984375 30.09375 44 26.703125 44 
C 19.09375 44 15.796875 36.5625 14.796875 33.046875 
L 14.703125 33.046875 
L 14.703125 44 
L 3.09375 42.890625 
L 3.09375 40.28125 
C 9 40.28125 9.90625 39.6875 9.90625 34.859375 
L 9.90625 6.921875 
C 9.90625 3.09375 9.5 2.59375 3.09375 2.59375 
L 3.09375 0 
C 5.5 0.1875 10.09375 0.1875 12.703125 0.1875 
C 15.59375 0.1875 20.703125 0.1875 23.40625 0 
L 23.40625 2.59375 
C 16.203125 2.59375 15 2.59375 15 7.109375 
z
" id="CMR17-114"/>
      <path d="M 38.09375 23.484375 
C 38.5 23.890625 38.5 24.09375 38.5 25.09375 
C 38.5 35.171875 33.09375 44 21.703125 44 
C 11.09375 44 2.703125 33.984375 2.703125 21.78125 
C 2.703125 8.65625 12.203125 -1 22.796875 -1 
C 34 -1 38.40625 9.671875 38.40625 11.796875 
C 38.40625 12.5 37.796875 12.5 37.59375 12.5 
C 36.90625 12.5 36.796875 12.296875 36.40625 11.078125 
C 34.203125 4.21875 28.703125 0.796875 23.5 0.796875 
C 19.203125 0.796875 14.90625 3.21875 12.203125 7.65625 
C 9.09375 12.796875 9.09375 18.75 9.09375 23.484375 
z
M 9.203125 25 
C 9.90625 39.234375 17.59375 42.390625 21.59375 42.390625 
C 28.40625 42.390625 33 36.0625 33.09375 25 
z
" id="CMR17-101"/>
      <path d="M 37.796875 12.265625 
C 37.59375 17.140625 37.40625 24.78125 33.59375 33.71875 
C 31.59375 38.6875 28.203125 44 20.90625 44 
C 8.59375 44 1.90625 28.359375 1.90625 25.765625 
C 1.90625 24.875 2.59375 24.875 2.90625 24.875 
C 3.796875 24.875 3.796875 25.078125 4.296875 26.375 
C 6.40625 32.515625 12.796875 37.390625 19.703125 37.390625 
C 33.59375 37.390625 35.59375 22 35.59375 12.171875 
C 35.59375 5.90625 34.90625 3.828125 34.296875 1.84375 
C 32.40625 -4.3125 29.09375 -16.625 29.09375 -19.40625 
C 29.09375 -20.203125 29.40625 -21.109375 30.203125 -21.109375 
C 31.703125 -21.109375 32.59375 -17.8125 33.703125 -13.84375 
C 36.09375 -5.109375 36.703125 -0.734375 37.203125 3.234375 
C 37.5 5.625 43.203125 22.015625 51.09375 37.609375 
C 51.796875 39.203125 53.203125 41.890625 53.203125 42.1875 
C 53.203125 42.296875 53.09375 43 52.203125 43 
C 52 43 51.5 43 51.296875 42.59375 
C 51.09375 42.390625 47.59375 35.625 44.59375 28.875 
C 43.09375 25.46875 41.09375 21 37.796875 12.265625 
z
" id="CMMI12-13"/>
      <path d="M 23.5 -25 
L 23.5 -21.5 
L 14.09375 -21.5 
L 14.09375 71.484375 
L 23.5 71.484375 
L 23.5 75 
L 10.59375 75 
L 10.59375 -25 
z
" id="CMR17-91"/>
      <path d="M 41.5 30.53125 
C 41.5 35.65625 40.5 44 28.703125 44 
C 20.796875 44 16.703125 37.875 15.203125 33.84375 
L 15.09375 33.84375 
L 15.09375 44 
L 3.296875 42.890625 
L 3.296875 40.28125 
C 9.203125 40.28125 10.09375 39.6875 10.09375 34.859375 
L 10.09375 6.921875 
C 10.09375 3.09375 9.703125 2.59375 3.296875 2.59375 
L 3.296875 0 
C 5.703125 0.1875 10.09375 0.1875 12.703125 0.1875 
C 15.296875 0.1875 19.796875 0.1875 22.203125 0 
L 22.203125 2.59375 
C 15.796875 2.59375 15.40625 3 15.40625 6.921875 
L 15.40625 26.21875 
C 15.40625 35.453125 21 42.390625 28 42.390625 
C 35.40625 42.390625 36.203125 35.765625 36.203125 30.9375 
L 36.203125 6.921875 
C 36.203125 3.09375 35.796875 2.59375 29.40625 2.59375 
L 29.40625 0 
C 31.796875 0.1875 36.203125 0.1875 38.796875 0.1875 
C 41.40625 0.1875 45.90625 0.1875 48.296875 0 
L 48.296875 2.59375 
C 41.90625 2.59375 41.5 3 41.5 6.921875 
z
" id="CMR17-110"/>
      <path d="M 30.90625 42 
C 30.90625 43.796875 30.796875 43.890625 30.203125 43.890625 
C 29.796875 43.890625 29.703125 43.796875 28.5 42.296875 
C 28.203125 41.890625 27.296875 40.890625 27 40.5 
C 23.796875 43.890625 19.296875 44 17.59375 44 
C 6.5 44 2.5 38.1875 2.5 32.390625 
C 2.5 23.390625 12.703125 21.296875 15.59375 20.6875 
C 21.90625 19.390625 24.09375 19 26.203125 17.1875 
C 27.5 16 29.703125 13.796875 29.703125 10.1875 
C 29.703125 6 27.296875 0.59375 18.09375 0.59375 
C 9.40625 0.59375 6.296875 7.1875 4.5 16 
C 4.203125 17.390625 4.203125 17.5 3.40625 17.5 
C 2.59375 17.5 2.5 17.390625 2.5 15.390625 
L 2.5 1 
C 2.5 -0.8125 2.59375 -0.90625 3.203125 -0.90625 
C 3.703125 -0.90625 3.796875 -0.8125 4.296875 0 
C 4.90625 0.890625 6.40625 3.296875 7 4.296875 
C 9 1.59375 12.5 -1 18.09375 -1 
C 28 -1 33.296875 4.390625 33.296875 12.1875 
C 33.296875 17.296875 30.59375 20 29.296875 21.1875 
C 26.296875 24.296875 22.796875 25 18.59375 25.796875 
C 13.09375 27 6.09375 28.390625 6.09375 34.5 
C 6.09375 37.09375 7.5 42.59375 17.59375 42.59375 
C 28.296875 42.59375 28.90625 32.59375 29.09375 29.390625 
C 29.203125 28.890625 29.703125 28.796875 30 28.796875 
C 30.90625 28.796875 30.90625 29.09375 30.90625 30.796875 
z
" id="CMR17-115"/>
      <path d="M 14.296875 75 
L 1.40625 75 
L 1.40625 71.484375 
L 10.796875 71.484375 
L 10.796875 -21.5 
L 1.40625 -21.5 
L 1.40625 -25 
L 14.296875 -25 
z
" id="CMR17-93"/>
     </defs>
     <g transform="translate(113.415621 208.839376)scale(0.1 -0.1)">
      <use transform="scale(0.996264)" xlink:href="#CMR17-13"/>
      <use transform="translate(49.742223 0)scale(0.996264)" xlink:href="#CMR17-117"/>
      <use transform="translate(100.637593 0)scale(0.996264)" xlink:href="#CMR17-99"/>
      <use transform="translate(141.123254 0)scale(0.996264)" xlink:href="#CMR17-116"/>
      <use transform="translate(176.404021 0)scale(0.996264)" xlink:href="#CMR17-117"/>
      <use transform="translate(227.299391 0)scale(0.996264)" xlink:href="#CMR17-97"/>
      <use transform="translate(272.989868 0)scale(0.996264)" xlink:href="#CMR17-116"/>
      <use transform="translate(308.270636 0)scale(0.996264)" xlink:href="#CMR17-111"/>
      <use transform="translate(353.961113 0)scale(0.996264)" xlink:href="#CMR17-114"/>
      <use transform="translate(419.317847 0)scale(0.996264)" xlink:href="#CMR17-114"/>
      <use transform="translate(454.598615 0)scale(0.996264)" xlink:href="#CMR17-97"/>
      <use transform="translate(500.289092 0)scale(0.996264)" xlink:href="#CMR17-116"/>
      <use transform="translate(535.56986 0)scale(0.996264)" xlink:href="#CMR17-101"/>
      <use transform="translate(606.131487 0)scale(0.996264)" xlink:href="#CMMI12-13"/>
      <use transform="translate(692.226021 0)scale(0.996264)" xlink:href="#CMR17-91"/>
      <use transform="translate(717.09708 0)scale(0.996264)" xlink:href="#CMR17-110"/>
      <use transform="translate(767.99245 0)scale(0.996264)" xlink:href="#CMR17-115"/>
      <use transform="translate(803.793787 36.153639)scale(0.697382)" xlink:href="#CMSY10-0"/>
      <use transform="translate(858.03478 36.153639)scale(0.697382)" xlink:href="#CMR17-49"/>
      <use transform="translate(890.516094 0)scale(0.996264)" xlink:href="#CMR17-93"/>
     </g>
    </g>
   </g>
   <g id="matplotlib.axis_2">
    <g id="ytick_1">
     <g id="line2d_75">
      <path clip-path="url(#p92f9df62c7)" d="M 44.928 150.838565 
L 283.104 150.838565 
" style="fill:none;stroke:#dddddd;stroke-linecap:square;stroke-width:0.5;"/>
     </g>
     <g id="line2d_76">
      <defs>
       <path d="M 0 0 
L -3.5 0 
" id="m29d2843d0e" style="stroke:#000000;stroke-width:0.8;"/>
      </defs>
      <g>
       <use style="stroke:#000000;stroke-width:0.8;" x="44.928" xlink:href="#m29d2843d0e" y="150.838565"/>
      </g>
     </g>
     <g id="text_7">
      <!-- $\mathdefault{10^{-4}}$ -->
      <defs>
       <path d="M 33.59375 64.796875 
C 33.59375 66.890625 33.5 67 31.703125 67 
L 2 19.59375 
L 2 17 
L 27.796875 17 
L 27.796875 7.1875 
C 27.796875 3.59375 27.59375 2.59375 20.59375 2.59375 
L 18.703125 2.59375 
L 18.703125 0 
C 21.90625 0.1875 27.296875 0.1875 30.703125 0.1875 
C 34.09375 0.1875 39.5 0.1875 42.703125 0 
L 42.703125 2.59375 
L 40.796875 2.59375 
C 33.796875 2.59375 33.59375 3.59375 33.59375 7.1875 
L 33.59375 17 
L 43.796875 17 
L 43.796875 19.59375 
L 33.59375 19.59375 
z
M 28.09375 58.171875 
L 28.09375 19.59375 
L 4 19.59375 
z
" id="CMR17-52"/>
      </defs>
      <g transform="translate(17.767427 154.297814)scale(0.1 -0.1)">
       <use transform="scale(0.996264)" xlink:href="#CMR17-49"/>
       <use transform="translate(45.690477 0)scale(0.996264)" xlink:href="#CMR17-48"/>
       <use transform="translate(91.380954 36.153639)scale(0.697382)" xlink:href="#CMSY10-0"/>
       <use transform="translate(145.621947 36.153639)scale(0.697382)" xlink:href="#CMR17-52"/>
      </g>
     </g>
    </g>
    <g id="ytick_2">
     <g id="line2d_77">
      <path clip-path="url(#p92f9df62c7)" d="M 44.928 93.954465 
L 283.104 93.954465 
" style="fill:none;stroke:#dddddd;stroke-linecap:square;stroke-width:0.5;"/>
     </g>
     <g id="line2d_78">
      <g>
       <use style="stroke:#000000;stroke-width:0.8;" x="44.928" xlink:href="#m29d2843d0e" y="93.954465"/>
      </g>
     </g>
     <g id="text_8">
      <!-- $\mathdefault{10^{-3}}$ -->
      <g transform="translate(17.767427 97.413714)scale(0.1 -0.1)">
       <use transform="scale(0.996264)" xlink:href="#CMR17-49"/>
       <use transform="translate(45.690477 0)scale(0.996264)" xlink:href="#CMR17-48"/>
       <use transform="translate(91.380954 36.153639)scale(0.697382)" xlink:href="#CMSY10-0"/>
       <use transform="translate(145.621947 36.153639)scale(0.697382)" xlink:href="#CMR17-51"/>
      </g>
     </g>
    </g>
    <g id="ytick_3">
     <g id="line2d_79">
      <path clip-path="url(#p92f9df62c7)" d="M 44.928 37.070366 
L 283.104 37.070366 
" style="fill:none;stroke:#dddddd;stroke-linecap:square;stroke-width:0.5;"/>
     </g>
     <g id="line2d_80">
      <g>
       <use style="stroke:#000000;stroke-width:0.8;" x="44.928" xlink:href="#m29d2843d0e" y="37.070366"/>
      </g>
     </g>
     <g id="text_9">
      <!-- $\mathdefault{10^{-2}}$ -->
      <g transform="translate(17.767427 40.529615)scale(0.1 -0.1)">
       <use transform="scale(0.996264)" xlink:href="#CMR17-49"/>
       <use transform="translate(45.690477 0)scale(0.996264)" xlink:href="#CMR17-48"/>
       <use transform="translate(91.380954 36.153639)scale(0.697382)" xlink:href="#CMSY10-0"/>
       <use transform="translate(145.621947 36.153639)scale(0.697382)" xlink:href="#CMR17-50"/>
      </g>
     </g>
    </g>
    <g id="ytick_4">
     <g id="line2d_81">
      <path clip-path="url(#p92f9df62c7)" d="M 44.928 180.582051 
L 283.104 180.582051 
" style="fill:none;stroke:#dddddd;stroke-linecap:square;stroke-width:0.5;"/>
     </g>
     <g id="line2d_82">
      <defs>
       <path d="M 0 0 
L -2 0 
" id="m5c0365c346" style="stroke:#000000;stroke-width:0.6;"/>
      </defs>
      <g>
       <use style="stroke:#000000;stroke-width:0.6;" x="44.928" xlink:href="#m5c0365c346" y="180.582051"/>
      </g>
     </g>
    </g>
    <g id="ytick_5">
     <g id="line2d_83">
      <path clip-path="url(#p92f9df62c7)" d="M 44.928 173.475024 
L 283.104 173.475024 
" style="fill:none;stroke:#dddddd;stroke-linecap:square;stroke-width:0.5;"/>
     </g>
     <g id="line2d_84">
      <g>
       <use style="stroke:#000000;stroke-width:0.6;" x="44.928" xlink:href="#m5c0365c346" y="173.475024"/>
      </g>
     </g>
    </g>
    <g id="ytick_6">
     <g id="line2d_85">
      <path clip-path="url(#p92f9df62c7)" d="M 44.928 167.962385 
L 283.104 167.962385 
" style="fill:none;stroke:#dddddd;stroke-linecap:square;stroke-width:0.5;"/>
     </g>
     <g id="line2d_86">
      <g>
       <use style="stroke:#000000;stroke-width:0.6;" x="44.928" xlink:href="#m5c0365c346" y="167.962385"/>
      </g>
     </g>
    </g>
    <g id="ytick_7">
     <g id="line2d_87">
      <path clip-path="url(#p92f9df62c7)" d="M 44.928 163.458231 
L 283.104 163.458231 
" style="fill:none;stroke:#dddddd;stroke-linecap:square;stroke-width:0.5;"/>
     </g>
     <g id="line2d_88">
      <g>
       <use style="stroke:#000000;stroke-width:0.6;" x="44.928" xlink:href="#m5c0365c346" y="163.458231"/>
      </g>
     </g>
    </g>
    <g id="ytick_8">
     <g id="line2d_89">
      <path clip-path="url(#p92f9df62c7)" d="M 44.928 159.650023 
L 283.104 159.650023 
" style="fill:none;stroke:#dddddd;stroke-linecap:square;stroke-width:0.5;"/>
     </g>
     <g id="line2d_90">
      <g>
       <use style="stroke:#000000;stroke-width:0.6;" x="44.928" xlink:href="#m5c0365c346" y="159.650023"/>
      </g>
     </g>
    </g>
    <g id="ytick_9">
     <g id="line2d_91">
      <path clip-path="url(#p92f9df62c7)" d="M 44.928 156.351204 
L 283.104 156.351204 
" style="fill:none;stroke:#dddddd;stroke-linecap:square;stroke-width:0.5;"/>
     </g>
     <g id="line2d_92">
      <g>
       <use style="stroke:#000000;stroke-width:0.6;" x="44.928" xlink:href="#m5c0365c346" y="156.351204"/>
      </g>
     </g>
    </g>
    <g id="ytick_10">
     <g id="line2d_93">
      <path clip-path="url(#p92f9df62c7)" d="M 44.928 153.441438 
L 283.104 153.441438 
" style="fill:none;stroke:#dddddd;stroke-linecap:square;stroke-width:0.5;"/>
     </g>
     <g id="line2d_94">
      <g>
       <use style="stroke:#000000;stroke-width:0.6;" x="44.928" xlink:href="#m5c0365c346" y="153.441438"/>
      </g>
     </g>
    </g>
    <g id="ytick_11">
     <g id="line2d_95">
      <path clip-path="url(#p92f9df62c7)" d="M 44.928 133.714745 
L 283.104 133.714745 
" style="fill:none;stroke:#dddddd;stroke-linecap:square;stroke-width:0.5;"/>
     </g>
     <g id="line2d_96">
      <g>
       <use style="stroke:#000000;stroke-width:0.6;" x="44.928" xlink:href="#m5c0365c346" y="133.714745"/>
      </g>
     </g>
    </g>
    <g id="ytick_12">
     <g id="line2d_97">
      <path clip-path="url(#p92f9df62c7)" d="M 44.928 123.697952 
L 283.104 123.697952 
" style="fill:none;stroke:#dddddd;stroke-linecap:square;stroke-width:0.5;"/>
     </g>
     <g id="line2d_98">
      <g>
       <use style="stroke:#000000;stroke-width:0.6;" x="44.928" xlink:href="#m5c0365c346" y="123.697952"/>
      </g>
     </g>
    </g>
    <g id="ytick_13">
     <g id="line2d_99">
      <path clip-path="url(#p92f9df62c7)" d="M 44.928 116.590924 
L 283.104 116.590924 
" style="fill:none;stroke:#dddddd;stroke-linecap:square;stroke-width:0.5;"/>
     </g>
     <g id="line2d_100">
      <g>
       <use style="stroke:#000000;stroke-width:0.6;" x="44.928" xlink:href="#m5c0365c346" y="116.590924"/>
      </g>
     </g>
    </g>
    <g id="ytick_14">
     <g id="line2d_101">
      <path clip-path="url(#p92f9df62c7)" d="M 44.928 111.078285 
L 283.104 111.078285 
" style="fill:none;stroke:#dddddd;stroke-linecap:square;stroke-width:0.5;"/>
     </g>
     <g id="line2d_102">
      <g>
       <use style="stroke:#000000;stroke-width:0.6;" x="44.928" xlink:href="#m5c0365c346" y="111.078285"/>
      </g>
     </g>
    </g>
    <g id="ytick_15">
     <g id="line2d_103">
      <path clip-path="url(#p92f9df62c7)" d="M 44.928 106.574132 
L 283.104 106.574132 
" style="fill:none;stroke:#dddddd;stroke-linecap:square;stroke-width:0.5;"/>
     </g>
     <g id="line2d_104">
      <g>
       <use style="stroke:#000000;stroke-width:0.6;" x="44.928" xlink:href="#m5c0365c346" y="106.574132"/>
      </g>
     </g>
    </g>
    <g id="ytick_16">
     <g id="line2d_105">
      <path clip-path="url(#p92f9df62c7)" d="M 44.928 102.765924 
L 283.104 102.765924 
" style="fill:none;stroke:#dddddd;stroke-linecap:square;stroke-width:0.5;"/>
     </g>
     <g id="line2d_106">
      <g>
       <use style="stroke:#000000;stroke-width:0.6;" x="44.928" xlink:href="#m5c0365c346" y="102.765924"/>
      </g>
     </g>
    </g>
    <g id="ytick_17">
     <g id="line2d_107">
      <path clip-path="url(#p92f9df62c7)" d="M 44.928 99.467104 
L 283.104 99.467104 
" style="fill:none;stroke:#dddddd;stroke-linecap:square;stroke-width:0.5;"/>
     </g>
     <g id="line2d_108">
      <g>
       <use style="stroke:#000000;stroke-width:0.6;" x="44.928" xlink:href="#m5c0365c346" y="99.467104"/>
      </g>
     </g>
    </g>
    <g id="ytick_18">
     <g id="line2d_109">
      <path clip-path="url(#p92f9df62c7)" d="M 44.928 96.557339 
L 283.104 96.557339 
" style="fill:none;stroke:#dddddd;stroke-linecap:square;stroke-width:0.5;"/>
     </g>
     <g id="line2d_110">
      <g>
       <use style="stroke:#000000;stroke-width:0.6;" x="44.928" xlink:href="#m5c0365c346" y="96.557339"/>
      </g>
     </g>
    </g>
    <g id="ytick_19">
     <g id="line2d_111">
      <path clip-path="url(#p92f9df62c7)" d="M 44.928 76.830645 
L 283.104 76.830645 
" style="fill:none;stroke:#dddddd;stroke-linecap:square;stroke-width:0.5;"/>
     </g>
     <g id="line2d_112">
      <g>
       <use style="stroke:#000000;stroke-width:0.6;" x="44.928" xlink:href="#m5c0365c346" y="76.830645"/>
      </g>
     </g>
    </g>
    <g id="ytick_20">
     <g id="line2d_113">
      <path clip-path="url(#p92f9df62c7)" d="M 44.928 66.813852 
L 283.104 66.813852 
" style="fill:none;stroke:#dddddd;stroke-linecap:square;stroke-width:0.5;"/>
     </g>
     <g id="line2d_114">
      <g>
       <use style="stroke:#000000;stroke-width:0.6;" x="44.928" xlink:href="#m5c0365c346" y="66.813852"/>
      </g>
     </g>
    </g>
    <g id="ytick_21">
     <g id="line2d_115">
      <path clip-path="url(#p92f9df62c7)" d="M 44.928 59.706825 
L 283.104 59.706825 
" style="fill:none;stroke:#dddddd;stroke-linecap:square;stroke-width:0.5;"/>
     </g>
     <g id="line2d_116">
      <g>
       <use style="stroke:#000000;stroke-width:0.6;" x="44.928" xlink:href="#m5c0365c346" y="59.706825"/>
      </g>
     </g>
    </g>
    <g id="ytick_22">
     <g id="line2d_117">
      <path clip-path="url(#p92f9df62c7)" d="M 44.928 54.194186 
L 283.104 54.194186 
" style="fill:none;stroke:#dddddd;stroke-linecap:square;stroke-width:0.5;"/>
     </g>
     <g id="line2d_118">
      <g>
       <use style="stroke:#000000;stroke-width:0.6;" x="44.928" xlink:href="#m5c0365c346" y="54.194186"/>
      </g>
     </g>
    </g>
    <g id="ytick_23">
     <g id="line2d_119">
      <path clip-path="url(#p92f9df62c7)" d="M 44.928 49.690032 
L 283.104 49.690032 
" style="fill:none;stroke:#dddddd;stroke-linecap:square;stroke-width:0.5;"/>
     </g>
     <g id="line2d_120">
      <g>
       <use style="stroke:#000000;stroke-width:0.6;" x="44.928" xlink:href="#m5c0365c346" y="49.690032"/>
      </g>
     </g>
    </g>
    <g id="ytick_24">
     <g id="line2d_121">
      <path clip-path="url(#p92f9df62c7)" d="M 44.928 45.881824 
L 283.104 45.881824 
" style="fill:none;stroke:#dddddd;stroke-linecap:square;stroke-width:0.5;"/>
     </g>
     <g id="line2d_122">
      <g>
       <use style="stroke:#000000;stroke-width:0.6;" x="44.928" xlink:href="#m5c0365c346" y="45.881824"/>
      </g>
     </g>
    </g>
    <g id="ytick_25">
     <g id="line2d_123">
      <path clip-path="url(#p92f9df62c7)" d="M 44.928 42.583005 
L 283.104 42.583005 
" style="fill:none;stroke:#dddddd;stroke-linecap:square;stroke-width:0.5;"/>
     </g>
     <g id="line2d_124">
      <g>
       <use style="stroke:#000000;stroke-width:0.6;" x="44.928" xlink:href="#m5c0365c346" y="42.583005"/>
      </g>
     </g>
    </g>
    <g id="ytick_26">
     <g id="line2d_125">
      <path clip-path="url(#p92f9df62c7)" d="M 44.928 39.673239 
L 283.104 39.673239 
" style="fill:none;stroke:#dddddd;stroke-linecap:square;stroke-width:0.5;"/>
     </g>
     <g id="line2d_126">
      <g>
       <use style="stroke:#000000;stroke-width:0.6;" x="44.928" xlink:href="#m5c0365c346" y="39.673239"/>
      </g>
     </g>
    </g>
    <g id="ytick_27">
     <g id="line2d_127">
      <path clip-path="url(#p92f9df62c7)" d="M 44.928 19.946546 
L 283.104 19.946546 
" style="fill:none;stroke:#dddddd;stroke-linecap:square;stroke-width:0.5;"/>
     </g>
     <g id="line2d_128">
      <g>
       <use style="stroke:#000000;stroke-width:0.6;" x="44.928" xlink:href="#m5c0365c346" y="19.946546"/>
      </g>
     </g>
    </g>
    <g id="ytick_28">
     <g id="line2d_129">
      <path clip-path="url(#p92f9df62c7)" d="M 44.928 9.929753 
L 283.104 9.929753 
" style="fill:none;stroke:#dddddd;stroke-linecap:square;stroke-width:0.5;"/>
     </g>
     <g id="line2d_130">
      <g>
       <use style="stroke:#000000;stroke-width:0.6;" x="44.928" xlink:href="#m5c0365c346" y="9.929753"/>
      </g>
     </g>
    </g>
    <g id="text_10">
     <!-- transfer error $\epsilon$ -->
     <defs>
      <path d="M 15.296875 40.390625 
L 26.703125 40.390625 
L 26.703125 43 
L 15.09375 43 
L 15.09375 55.296875 
C 15.09375 63.6875 19.296875 68.390625 23.59375 68.390625 
C 24.90625 68.390625 26.40625 68.171875 27.40625 67.796875 
C 26.59375 67.59375 24.5 66.890625 24.5 64.390625 
C 24.5 61.796875 26.5 61 27.90625 61 
C 29.296875 61 31.296875 61.796875 31.296875 64.390625 
C 31.296875 68.015625 27.703125 70 23.703125 70 
C 18 70 10.203125 65.796875 10.203125 55.09375 
L 10.203125 43 
L 2.203125 43 
L 2.203125 40.390625 
L 10.203125 40.390625 
L 10.203125 6.890625 
C 10.203125 3.09375 9.796875 2.59375 3.40625 2.59375 
L 3.40625 0 
C 5.796875 0.1875 10.40625 0.1875 13 0.1875 
C 15.90625 0.1875 21 0.1875 23.703125 0 
L 23.703125 2.59375 
C 16.5 2.59375 15.296875 2.59375 15.296875 7.09375 
z
" id="CMR17-102"/>
      <path d="M 29.09375 23 
C 30.59375 23 32.296875 23 32.296875 24.59375 
C 32.296875 25.890625 31.296875 25.890625 29.5 25.890625 
L 13.296875 25.890625 
C 15.796875 34.75 21.703125 40.09375 30.59375 40.09375 
L 33.5 40.09375 
C 35.203125 40.09375 36.703125 40.09375 36.703125 41.6875 
C 36.703125 43 35.59375 43 33.796875 43 
L 30.40625 43 
C 18.09375 43 4.59375 33.375 4.59375 17.828125 
C 4.59375 6.5625 12.09375 -1 22 -1 
C 28.40625 -1 34.703125 3.015625 34.703125 4.03125 
C 34.703125 4.640625 34.40625 5.25 33.796875 5.25 
C 33.5 5.25 33.296875 5.15625 32.796875 4.75 
C 29 2.203125 25.296875 1 22.296875 1 
C 17 1 11.40625 4.546875 11.40625 14.375 
C 11.40625 16.296875 11.59375 18.9375 12.5 23 
z
" id="CMMI12-15"/>
     </defs>
     <g transform="translate(11.830248 125.817648)rotate(-90)scale(0.1 -0.1)">
      <use transform="scale(0.996264)" xlink:href="#CMR17-116"/>
      <use transform="translate(35.280768 0)scale(0.996264)" xlink:href="#CMR17-114"/>
      <use transform="translate(70.561536 0)scale(0.996264)" xlink:href="#CMR17-97"/>
      <use transform="translate(116.252013 0)scale(0.996264)" xlink:href="#CMR17-110"/>
      <use transform="translate(167.147382 0)scale(0.996264)" xlink:href="#CMR17-115"/>
      <use transform="translate(202.94872 0)scale(0.996264)" xlink:href="#CMR17-102"/>
      <use transform="translate(230.422233 0)scale(0.996264)" xlink:href="#CMR17-101"/>
      <use transform="translate(270.907893 0)scale(0.996264)" xlink:href="#CMR17-114"/>
      <use transform="translate(336.264627 0)scale(0.996264)" xlink:href="#CMR17-101"/>
      <use transform="translate(376.750288 0)scale(0.996264)" xlink:href="#CMR17-114"/>
      <use transform="translate(412.031055 0)scale(0.996264)" xlink:href="#CMR17-114"/>
      <use transform="translate(447.311823 0)scale(0.996264)" xlink:href="#CMR17-111"/>
      <use transform="translate(493.0023 0)scale(0.996264)" xlink:href="#CMR17-114"/>
      <use transform="translate(558.359034 0)scale(0.996264)" xlink:href="#CMMI12-15"/>
     </g>
    </g>
   </g>
   <g id="line2d_131">
    <path clip-path="url(#p92f9df62c7)" d="M 283.104 126.050253 
L 280.72224 128.140429 
L 278.34048 123.513182 
L 275.95872 120.806391 
L 273.57696 119.648838 
L 271.1952 127.992264 
L 268.81344 120.343248 
L 266.43168 115.600977 
L 264.04992 120.219004 
L 261.66816 117.599898 
L 259.2864 120.916491 
L 256.90464 120.004055 
L 254.52288 113.878242 
L 252.14112 114.144495 
L 249.75936 122.491392 
L 247.3776 112.318136 
L 244.99584 109.33978 
L 242.61408 118.432886 
L 240.23232 105.415214 
L 237.85056 109.649259 
L 235.4688 110.703068 
L 233.08704 108.305999 
L 230.70528 98.925609 
L 228.32352 99.168138 
L 225.94176 114.322672 
L 223.56 108.503298 
L 221.17824 93.96464 
L 218.79648 94.229573 
L 216.41472 94.613297 
L 214.03296 95.109055 
L 211.6512 99.131939 
L 209.26944 96.853015 
L 206.88768 93.116972 
L 204.50592 102.373138 
L 202.12416 98.070426 
L 199.7424 103.914779 
L 197.36064 103.38893 
L 194.97888 105.677797 
L 192.59712 122.053252 
L 190.21536 108.020535 
L 187.8336 109.491798 
L 185.45184 119.953392 
L 183.07008 113.970219 
L 180.68832 114.53708 
L 178.30656 117.674373 
L 175.9248 111.964287 
L 173.54304 127.191627 
L 171.16128 125.984546 
L 168.77952 121.090673 
L 166.39776 128.614769 
L 164.016 128.079309 
L 161.63424 126.949152 
L 159.25248 125.644941 
L 156.87072 125.954647 
L 154.48896 135.708718 
L 152.1072 137.975031 
L 149.72544 137.501949 
L 147.34368 138.516622 
L 144.96192 139.556308 
L 142.58016 143.10682 
L 140.1984 137.156909 
L 137.81664 144.207315 
L 135.43488 146.157279 
L 133.05312 142.682456 
L 130.67136 153.232745 
L 128.2896 144.27408 
L 125.90784 149.464657 
L 123.52608 149.26195 
L 121.14432 150.616119 
L 118.76256 152.436406 
L 116.3808 151.278048 
L 113.99904 150.942003 
L 111.61728 151.66327 
L 109.23552 153.655183 
L 106.85376 152.689099 
L 104.472 156.275847 
L 102.09024 155.84333 
L 99.70848 155.040689 
L 97.32672 158.417438 
L 94.94496 157.345565 
L 92.5632 155.651311 
L 90.18144 154.925406 
L 87.79968 157.041754 
L 85.41792 151.503516 
L 83.03616 156.994947 
L 80.6544 158.360372 
L 78.27264 156.609685 
L 75.89088 156.899515 
L 73.50912 157.026024 
L 71.12736 156.422219 
L 68.7456 158.92986 
L 66.36384 157.800479 
L 63.98208 157.335161 
L 61.60032 160.971131 
L 59.21856 161.749027 
L 56.8368 161.233113 
L 54.45504 160.334642 
L 52.07328 158.96995 
L 49.69152 156.038453 
L 47.30976 161.018901 
L 44.928 159.140543 
" style="fill:none;stroke:#dd5500;stroke-linecap:square;stroke-width:1.5;"/>
    <defs>
     <path d="M 0 1.5 
C 0.397805 1.5 0.77937 1.341951 1.06066 1.06066 
C 1.341951 0.77937 1.5 0.397805 1.5 0 
C 1.5 -0.397805 1.341951 -0.77937 1.06066 -1.06066 
C 0.77937 -1.341951 0.397805 -1.5 0 -1.5 
C -0.397805 -1.5 -0.77937 -1.341951 -1.06066 -1.06066 
C -1.341951 -0.77937 -1.5 -0.397805 -1.5 0 
C -1.5 0.397805 -1.341951 0.77937 -1.06066 1.06066 
C -0.77937 1.341951 -0.397805 1.5 0 1.5 
z
" id="m20aaf95dc2" style="stroke:#dd5500;"/>
    </defs>
    <g clip-path="url(#p92f9df62c7)">
     <use style="fill:#ffffff;stroke:#dd5500;" x="283.104" xlink:href="#m20aaf95dc2" y="126.050253"/>
     <use style="fill:#ffffff;stroke:#dd5500;" x="280.72224" xlink:href="#m20aaf95dc2" y="128.140429"/>
     <use style="fill:#ffffff;stroke:#dd5500;" x="278.34048" xlink:href="#m20aaf95dc2" y="123.513182"/>
     <use style="fill:#ffffff;stroke:#dd5500;" x="275.95872" xlink:href="#m20aaf95dc2" y="120.806391"/>
     <use style="fill:#ffffff;stroke:#dd5500;" x="273.57696" xlink:href="#m20aaf95dc2" y="119.648838"/>
     <use style="fill:#ffffff;stroke:#dd5500;" x="271.1952" xlink:href="#m20aaf95dc2" y="127.992264"/>
     <use style="fill:#ffffff;stroke:#dd5500;" x="268.81344" xlink:href="#m20aaf95dc2" y="120.343248"/>
     <use style="fill:#ffffff;stroke:#dd5500;" x="266.43168" xlink:href="#m20aaf95dc2" y="115.600977"/>
     <use style="fill:#ffffff;stroke:#dd5500;" x="264.04992" xlink:href="#m20aaf95dc2" y="120.219004"/>
     <use style="fill:#ffffff;stroke:#dd5500;" x="261.66816" xlink:href="#m20aaf95dc2" y="117.599898"/>
     <use style="fill:#ffffff;stroke:#dd5500;" x="259.2864" xlink:href="#m20aaf95dc2" y="120.916491"/>
     <use style="fill:#ffffff;stroke:#dd5500;" x="256.90464" xlink:href="#m20aaf95dc2" y="120.004055"/>
     <use style="fill:#ffffff;stroke:#dd5500;" x="254.52288" xlink:href="#m20aaf95dc2" y="113.878242"/>
     <use style="fill:#ffffff;stroke:#dd5500;" x="252.14112" xlink:href="#m20aaf95dc2" y="114.144495"/>
     <use style="fill:#ffffff;stroke:#dd5500;" x="249.75936" xlink:href="#m20aaf95dc2" y="122.491392"/>
     <use style="fill:#ffffff;stroke:#dd5500;" x="247.3776" xlink:href="#m20aaf95dc2" y="112.318136"/>
     <use style="fill:#ffffff;stroke:#dd5500;" x="244.99584" xlink:href="#m20aaf95dc2" y="109.33978"/>
     <use style="fill:#ffffff;stroke:#dd5500;" x="242.61408" xlink:href="#m20aaf95dc2" y="118.432886"/>
     <use style="fill:#ffffff;stroke:#dd5500;" x="240.23232" xlink:href="#m20aaf95dc2" y="105.415214"/>
     <use style="fill:#ffffff;stroke:#dd5500;" x="237.85056" xlink:href="#m20aaf95dc2" y="109.649259"/>
     <use style="fill:#ffffff;stroke:#dd5500;" x="235.4688" xlink:href="#m20aaf95dc2" y="110.703068"/>
     <use style="fill:#ffffff;stroke:#dd5500;" x="233.08704" xlink:href="#m20aaf95dc2" y="108.305999"/>
     <use style="fill:#ffffff;stroke:#dd5500;" x="230.70528" xlink:href="#m20aaf95dc2" y="98.925609"/>
     <use style="fill:#ffffff;stroke:#dd5500;" x="228.32352" xlink:href="#m20aaf95dc2" y="99.168138"/>
     <use style="fill:#ffffff;stroke:#dd5500;" x="225.94176" xlink:href="#m20aaf95dc2" y="114.322672"/>
     <use style="fill:#ffffff;stroke:#dd5500;" x="223.56" xlink:href="#m20aaf95dc2" y="108.503298"/>
     <use style="fill:#ffffff;stroke:#dd5500;" x="221.17824" xlink:href="#m20aaf95dc2" y="93.96464"/>
     <use style="fill:#ffffff;stroke:#dd5500;" x="218.79648" xlink:href="#m20aaf95dc2" y="94.229573"/>
     <use style="fill:#ffffff;stroke:#dd5500;" x="216.41472" xlink:href="#m20aaf95dc2" y="94.613297"/>
     <use style="fill:#ffffff;stroke:#dd5500;" x="214.03296" xlink:href="#m20aaf95dc2" y="95.109055"/>
     <use style="fill:#ffffff;stroke:#dd5500;" x="211.6512" xlink:href="#m20aaf95dc2" y="99.131939"/>
     <use style="fill:#ffffff;stroke:#dd5500;" x="209.26944" xlink:href="#m20aaf95dc2" y="96.853015"/>
     <use style="fill:#ffffff;stroke:#dd5500;" x="206.88768" xlink:href="#m20aaf95dc2" y="93.116972"/>
     <use style="fill:#ffffff;stroke:#dd5500;" x="204.50592" xlink:href="#m20aaf95dc2" y="102.373138"/>
     <use style="fill:#ffffff;stroke:#dd5500;" x="202.12416" xlink:href="#m20aaf95dc2" y="98.070426"/>
     <use style="fill:#ffffff;stroke:#dd5500;" x="199.7424" xlink:href="#m20aaf95dc2" y="103.914779"/>
     <use style="fill:#ffffff;stroke:#dd5500;" x="197.36064" xlink:href="#m20aaf95dc2" y="103.38893"/>
     <use style="fill:#ffffff;stroke:#dd5500;" x="194.97888" xlink:href="#m20aaf95dc2" y="105.677797"/>
     <use style="fill:#ffffff;stroke:#dd5500;" x="192.59712" xlink:href="#m20aaf95dc2" y="122.053252"/>
     <use style="fill:#ffffff;stroke:#dd5500;" x="190.21536" xlink:href="#m20aaf95dc2" y="108.020535"/>
     <use style="fill:#ffffff;stroke:#dd5500;" x="187.8336" xlink:href="#m20aaf95dc2" y="109.491798"/>
     <use style="fill:#ffffff;stroke:#dd5500;" x="185.45184" xlink:href="#m20aaf95dc2" y="119.953392"/>
     <use style="fill:#ffffff;stroke:#dd5500;" x="183.07008" xlink:href="#m20aaf95dc2" y="113.970219"/>
     <use style="fill:#ffffff;stroke:#dd5500;" x="180.68832" xlink:href="#m20aaf95dc2" y="114.53708"/>
     <use style="fill:#ffffff;stroke:#dd5500;" x="178.30656" xlink:href="#m20aaf95dc2" y="117.674373"/>
     <use style="fill:#ffffff;stroke:#dd5500;" x="175.9248" xlink:href="#m20aaf95dc2" y="111.964287"/>
     <use style="fill:#ffffff;stroke:#dd5500;" x="173.54304" xlink:href="#m20aaf95dc2" y="127.191627"/>
     <use style="fill:#ffffff;stroke:#dd5500;" x="171.16128" xlink:href="#m20aaf95dc2" y="125.984546"/>
     <use style="fill:#ffffff;stroke:#dd5500;" x="168.77952" xlink:href="#m20aaf95dc2" y="121.090673"/>
     <use style="fill:#ffffff;stroke:#dd5500;" x="166.39776" xlink:href="#m20aaf95dc2" y="128.614769"/>
     <use style="fill:#ffffff;stroke:#dd5500;" x="164.016" xlink:href="#m20aaf95dc2" y="128.079309"/>
     <use style="fill:#ffffff;stroke:#dd5500;" x="161.63424" xlink:href="#m20aaf95dc2" y="126.949152"/>
     <use style="fill:#ffffff;stroke:#dd5500;" x="159.25248" xlink:href="#m20aaf95dc2" y="125.644941"/>
     <use style="fill:#ffffff;stroke:#dd5500;" x="156.87072" xlink:href="#m20aaf95dc2" y="125.954647"/>
     <use style="fill:#ffffff;stroke:#dd5500;" x="154.48896" xlink:href="#m20aaf95dc2" y="135.708718"/>
     <use style="fill:#ffffff;stroke:#dd5500;" x="152.1072" xlink:href="#m20aaf95dc2" y="137.975031"/>
     <use style="fill:#ffffff;stroke:#dd5500;" x="149.72544" xlink:href="#m20aaf95dc2" y="137.501949"/>
     <use style="fill:#ffffff;stroke:#dd5500;" x="147.34368" xlink:href="#m20aaf95dc2" y="138.516622"/>
     <use style="fill:#ffffff;stroke:#dd5500;" x="144.96192" xlink:href="#m20aaf95dc2" y="139.556308"/>
     <use style="fill:#ffffff;stroke:#dd5500;" x="142.58016" xlink:href="#m20aaf95dc2" y="143.10682"/>
     <use style="fill:#ffffff;stroke:#dd5500;" x="140.1984" xlink:href="#m20aaf95dc2" y="137.156909"/>
     <use style="fill:#ffffff;stroke:#dd5500;" x="137.81664" xlink:href="#m20aaf95dc2" y="144.207315"/>
     <use style="fill:#ffffff;stroke:#dd5500;" x="135.43488" xlink:href="#m20aaf95dc2" y="146.157279"/>
     <use style="fill:#ffffff;stroke:#dd5500;" x="133.05312" xlink:href="#m20aaf95dc2" y="142.682456"/>
     <use style="fill:#ffffff;stroke:#dd5500;" x="130.67136" xlink:href="#m20aaf95dc2" y="153.232745"/>
     <use style="fill:#ffffff;stroke:#dd5500;" x="128.2896" xlink:href="#m20aaf95dc2" y="144.27408"/>
     <use style="fill:#ffffff;stroke:#dd5500;" x="125.90784" xlink:href="#m20aaf95dc2" y="149.464657"/>
     <use style="fill:#ffffff;stroke:#dd5500;" x="123.52608" xlink:href="#m20aaf95dc2" y="149.26195"/>
     <use style="fill:#ffffff;stroke:#dd5500;" x="121.14432" xlink:href="#m20aaf95dc2" y="150.616119"/>
     <use style="fill:#ffffff;stroke:#dd5500;" x="118.76256" xlink:href="#m20aaf95dc2" y="152.436406"/>
     <use style="fill:#ffffff;stroke:#dd5500;" x="116.3808" xlink:href="#m20aaf95dc2" y="151.278048"/>
     <use style="fill:#ffffff;stroke:#dd5500;" x="113.99904" xlink:href="#m20aaf95dc2" y="150.942003"/>
     <use style="fill:#ffffff;stroke:#dd5500;" x="111.61728" xlink:href="#m20aaf95dc2" y="151.66327"/>
     <use style="fill:#ffffff;stroke:#dd5500;" x="109.23552" xlink:href="#m20aaf95dc2" y="153.655183"/>
     <use style="fill:#ffffff;stroke:#dd5500;" x="106.85376" xlink:href="#m20aaf95dc2" y="152.689099"/>
     <use style="fill:#ffffff;stroke:#dd5500;" x="104.472" xlink:href="#m20aaf95dc2" y="156.275847"/>
     <use style="fill:#ffffff;stroke:#dd5500;" x="102.09024" xlink:href="#m20aaf95dc2" y="155.84333"/>
     <use style="fill:#ffffff;stroke:#dd5500;" x="99.70848" xlink:href="#m20aaf95dc2" y="155.040689"/>
     <use style="fill:#ffffff;stroke:#dd5500;" x="97.32672" xlink:href="#m20aaf95dc2" y="158.417438"/>
     <use style="fill:#ffffff;stroke:#dd5500;" x="94.94496" xlink:href="#m20aaf95dc2" y="157.345565"/>
     <use style="fill:#ffffff;stroke:#dd5500;" x="92.5632" xlink:href="#m20aaf95dc2" y="155.651311"/>
     <use style="fill:#ffffff;stroke:#dd5500;" x="90.18144" xlink:href="#m20aaf95dc2" y="154.925406"/>
     <use style="fill:#ffffff;stroke:#dd5500;" x="87.79968" xlink:href="#m20aaf95dc2" y="157.041754"/>
     <use style="fill:#ffffff;stroke:#dd5500;" x="85.41792" xlink:href="#m20aaf95dc2" y="151.503516"/>
     <use style="fill:#ffffff;stroke:#dd5500;" x="83.03616" xlink:href="#m20aaf95dc2" y="156.994947"/>
     <use style="fill:#ffffff;stroke:#dd5500;" x="80.6544" xlink:href="#m20aaf95dc2" y="158.360372"/>
     <use style="fill:#ffffff;stroke:#dd5500;" x="78.27264" xlink:href="#m20aaf95dc2" y="156.609685"/>
     <use style="fill:#ffffff;stroke:#dd5500;" x="75.89088" xlink:href="#m20aaf95dc2" y="156.899515"/>
     <use style="fill:#ffffff;stroke:#dd5500;" x="73.50912" xlink:href="#m20aaf95dc2" y="157.026024"/>
     <use style="fill:#ffffff;stroke:#dd5500;" x="71.12736" xlink:href="#m20aaf95dc2" y="156.422219"/>
     <use style="fill:#ffffff;stroke:#dd5500;" x="68.7456" xlink:href="#m20aaf95dc2" y="158.92986"/>
     <use style="fill:#ffffff;stroke:#dd5500;" x="66.36384" xlink:href="#m20aaf95dc2" y="157.800479"/>
     <use style="fill:#ffffff;stroke:#dd5500;" x="63.98208" xlink:href="#m20aaf95dc2" y="157.335161"/>
     <use style="fill:#ffffff;stroke:#dd5500;" x="61.60032" xlink:href="#m20aaf95dc2" y="160.971131"/>
     <use style="fill:#ffffff;stroke:#dd5500;" x="59.21856" xlink:href="#m20aaf95dc2" y="161.749027"/>
     <use style="fill:#ffffff;stroke:#dd5500;" x="56.8368" xlink:href="#m20aaf95dc2" y="161.233113"/>
     <use style="fill:#ffffff;stroke:#dd5500;" x="54.45504" xlink:href="#m20aaf95dc2" y="160.334642"/>
     <use style="fill:#ffffff;stroke:#dd5500;" x="52.07328" xlink:href="#m20aaf95dc2" y="158.96995"/>
     <use style="fill:#ffffff;stroke:#dd5500;" x="49.69152" xlink:href="#m20aaf95dc2" y="156.038453"/>
     <use style="fill:#ffffff;stroke:#dd5500;" x="47.30976" xlink:href="#m20aaf95dc2" y="161.018901"/>
     <use style="fill:#ffffff;stroke:#dd5500;" x="44.928" xlink:href="#m20aaf95dc2" y="159.140543"/>
    </g>
   </g>
   <g id="line2d_132">
    <path clip-path="url(#p92f9df62c7)" d="M 283.104 37.206071 
L 280.72224 36.911452 
L 278.34048 36.751606 
L 275.95872 36.597595 
L 273.57696 36.798431 
L 271.1952 36.143061 
L 268.81344 36.882343 
L 266.43168 36.279543 
L 264.04992 35.615269 
L 261.66816 35.011301 
L 259.2864 35.626325 
L 256.90464 35.368322 
L 254.52288 34.714242 
L 252.14112 35.566957 
L 249.75936 34.966387 
L 247.3776 35.133884 
L 244.99584 34.120509 
L 242.61408 32.893392 
L 240.23232 32.701366 
L 237.85056 33.157072 
L 235.4688 31.851261 
L 233.08704 32.802555 
L 230.70528 30.287068 
L 228.32352 33.540462 
L 225.94176 33.58904 
L 223.56 28.135956 
L 221.17824 28.976249 
L 218.79648 28.891628 
L 216.41472 29.986427 
L 214.03296 30.757397 
L 211.6512 24.744953 
L 209.26944 26.158634 
L 206.88768 28.609779 
L 204.50592 29.656325 
L 202.12416 23.575061 
L 199.7424 26.998309 
L 197.36064 30.434616 
L 194.97888 27.236111 
L 192.59712 23.077747 
L 190.21536 29.378915 
L 187.8336 29.305169 
L 185.45184 29.307475 
L 183.07008 28.789107 
L 180.68832 27.53438 
L 178.30656 29.445339 
L 175.9248 28.278177 
L 173.54304 30.9252 
L 171.16128 32.08921 
L 168.77952 33.813421 
L 166.39776 32.093285 
L 164.016 33.42485 
L 161.63424 32.574302 
L 159.25248 34.336985 
L 156.87072 32.054422 
L 154.48896 34.412147 
L 152.1072 33.962351 
L 149.72544 35.439215 
L 147.34368 34.878333 
L 144.96192 34.500674 
L 142.58016 34.984616 
L 140.1984 35.164701 
L 137.81664 35.202088 
L 135.43488 35.891138 
L 133.05312 36.180756 
L 130.67136 36.2931 
L 128.2896 36.478063 
L 125.90784 35.932928 
L 123.52608 36.968677 
L 121.14432 36.937996 
L 118.76256 36.822354 
L 116.3808 37.371523 
L 113.99904 36.625958 
L 111.61728 36.873697 
L 109.23552 37.016967 
L 106.85376 36.891903 
L 104.472 37.708656 
L 102.09024 36.956339 
L 99.70848 37.506216 
L 97.32672 37.458493 
L 94.94496 37.541646 
L 92.5632 37.474711 
L 90.18144 37.862474 
L 87.79968 37.713943 
L 85.41792 37.757853 
L 83.03616 37.926198 
L 80.6544 37.846289 
L 78.27264 37.923573 
L 75.89088 37.905704 
L 73.50912 37.910252 
L 71.12736 37.991047 
L 68.7456 37.948144 
L 66.36384 37.870477 
L 63.98208 38.044671 
L 61.60032 37.97319 
L 59.21856 37.957028 
L 56.8368 37.937536 
L 54.45504 37.965844 
L 52.07328 38.144272 
L 49.69152 38.116414 
L 47.30976 38.188265 
L 44.928 38.067399 
" style="fill:none;stroke:#0088ff;stroke-linecap:square;stroke-width:1.5;"/>
   </g>
   <g id="patch_3">
    <path d="M 44.928 180.87408 
L 44.928 5.364 
" style="fill:none;stroke:#000000;stroke-linecap:square;stroke-linejoin:miter;stroke-width:0.8;"/>
   </g>
   <g id="patch_4">
    <path d="M 283.104 180.87408 
L 283.104 5.364 
" style="fill:none;stroke:#000000;stroke-linecap:square;stroke-linejoin:miter;stroke-width:0.8;"/>
   </g>
   <g id="patch_5">
    <path d="M 44.928 180.87408 
L 283.104 180.87408 
" style="fill:none;stroke:#000000;stroke-linecap:square;stroke-linejoin:miter;stroke-width:0.8;"/>
   </g>
   <g id="patch_6">
    <path d="M 44.928 5.364 
L 283.104 5.364 
" style="fill:none;stroke:#000000;stroke-linecap:square;stroke-linejoin:miter;stroke-width:0.8;"/>
   </g>
   <g id="legend_1">
    <g id="patch_7">
     <path d="M 213.883921 175.87408 
L 276.104 175.87408 
Q 278.104 175.87408 278.104 173.87408 
L 278.104 146.999723 
Q 278.104 144.999723 276.104 144.999723 
L 213.883921 144.999723 
Q 211.883921 144.999723 211.883921 146.999723 
L 211.883921 173.87408 
Q 211.883921 175.87408 213.883921 175.87408 
z
" style="fill:#ffffff;opacity:0.8;stroke:#cccccc;stroke-linejoin:miter;"/>
    </g>
    <g id="line2d_133">
     <path d="M 215.883921 152.499723 
L 235.883921 152.499723 
" style="fill:none;stroke:#dd5500;stroke-linecap:square;stroke-width:1.5;"/>
    </g>
    <g id="line2d_134">
     <g>
      <use style="fill:#ffffff;stroke:#dd5500;" x="225.883921" xlink:href="#m20aaf95dc2" y="152.499723"/>
     </g>
    </g>
    <g id="text_11">
     <!-- shaped -->
     <defs>
      <path d="M 41.5 30.53125 
C 41.5 35.65625 40.5 44 28.703125 44 
C 20.5 44 16.5 37.375 15.296875 34.046875 
L 15.203125 34.046875 
L 15.203125 69 
L 3.296875 67.890625 
L 3.296875 65.296875 
C 9.203125 65.296875 10.09375 64.703125 10.09375 60.046875 
L 10.09375 6.921875 
C 10.09375 3.09375 9.703125 2.59375 3.296875 2.59375 
L 3.296875 0 
C 5.703125 0.1875 10.09375 0.1875 12.703125 0.1875 
C 15.296875 0.1875 19.796875 0.1875 22.203125 0 
L 22.203125 2.59375 
C 15.796875 2.59375 15.40625 3 15.40625 6.921875 
L 15.40625 26.21875 
C 15.40625 35.453125 21 42.390625 28 42.390625 
C 35.40625 42.390625 36.203125 35.765625 36.203125 30.9375 
L 36.203125 6.921875 
C 36.203125 3.09375 35.796875 2.59375 29.40625 2.59375 
L 29.40625 0 
C 31.796875 0.1875 36.203125 0.1875 38.796875 0.1875 
C 41.40625 0.1875 45.90625 0.1875 48.296875 0 
L 48.296875 2.59375 
C 41.90625 2.59375 41.5 3 41.5 6.921875 
z
" id="CMR17-104"/>
      <path d="M 22 -17.40625 
C 15.59375 -17.40625 15.203125 -17 15.203125 -13.03125 
L 15.203125 5.9375 
C 18.09375 1.703125 22.296875 -1 27.59375 -1 
C 37.59375 -1 47.703125 7.859375 47.703125 21.59375 
C 47.703125 34.3125 39 44 28.703125 44 
C 22.703125 44 17.796875 40.671875 15 36.640625 
L 15 44 
L 3.09375 42.890625 
L 3.09375 40.265625 
C 9 40.265625 9.90625 39.671875 9.90625 34.8125 
L 9.90625 -13.03125 
C 9.90625 -16.890625 9.5 -17.40625 3.09375 -17.40625 
L 3.09375 -20 
C 5.5 -19.8125 9.90625 -19.8125 12.5 -19.8125 
C 15.09375 -19.8125 19.59375 -19.8125 22 -20 
z
M 15.203125 31.484375 
C 15.203125 32.90625 15.203125 35.015625 19.09375 38.765625 
C 19.59375 39.15625 23 42.1875 28 42.1875 
C 35.296875 42.1875 41.296875 33 41.296875 21.5 
C 41.296875 9.984375 34.90625 0.59375 27 0.59375 
C 23.40625 0.59375 19.5 2.3125 16.5 7.046875 
C 15.203125 9.28125 15.203125 9.875 15.203125 11.5 
z
" id="CMR17-112"/>
      <path d="M 29.203125 67.890625 
L 29.203125 65.296875 
C 35.09375 65.296875 36 64.703125 36 60.046875 
L 36 37.046875 
C 35.59375 37.546875 31.5 44 23.40625 44 
C 13.203125 44 3.296875 34.8125 3.296875 21.5 
C 3.296875 8.265625 12.59375 -1 22.40625 -1 
C 30.90625 -1 35.296875 5.640625 35.796875 6.34375 
L 35.796875 -1 
L 47.90625 -0.203125 
L 47.90625 2.40625 
C 42 2.40625 41.09375 3.015625 41.09375 7.859375 
L 41.09375 69 
z
M 35.796875 11.90625 
C 35.796875 8.875 34 6.140625 31.703125 4.125 
C 28.296875 1.09375 24.90625 0.59375 23 0.59375 
C 20.09375 0.59375 9.703125 2.109375 9.703125 21.390625 
C 9.703125 41.1875 21.296875 42.390625 23.90625 42.390625 
C 28.5 42.390625 32.203125 39.765625 34.5 36.140625 
C 35.796875 34.015625 35.796875 33.703125 35.796875 31.890625 
z
" id="CMR17-100"/>
     </defs>
     <g transform="translate(243.883921 155.999723)scale(0.1 -0.1)">
      <use transform="scale(0.996264)" xlink:href="#CMR17-115"/>
      <use transform="translate(35.801338 0)scale(0.996264)" xlink:href="#CMR17-104"/>
      <use transform="translate(86.696707 0)scale(0.996264)" xlink:href="#CMR17-97"/>
      <use transform="translate(132.387185 0)scale(0.996264)" xlink:href="#CMR17-112"/>
      <use transform="translate(185.884993 0)scale(0.996264)" xlink:href="#CMR17-101"/>
      <use transform="translate(226.370654 0)scale(0.996264)" xlink:href="#CMR17-100"/>
     </g>
    </g>
    <g id="line2d_135">
     <path d="M 215.883921 166.436902 
L 235.883921 166.436902 
" style="fill:none;stroke:#0088ff;stroke-linecap:square;stroke-width:1.5;"/>
    </g>
    <g id="line2d_136"/>
    <g id="text_12">
     <!-- linear -->
     <defs>
      <path d="M 15.296875 69 
L 3.40625 67.890625 
L 3.40625 65.296875 
C 9.296875 65.296875 10.203125 64.703125 10.203125 59.921875 
L 10.203125 6.859375 
C 10.203125 3.09375 9.796875 2.59375 3.40625 2.59375 
L 3.40625 0 
C 5.796875 0.1875 10.203125 0.1875 12.703125 0.1875 
C 15.296875 0.1875 19.703125 0.1875 22.09375 0 
L 22.09375 2.59375 
C 15.703125 2.59375 15.296875 2.984375 15.296875 6.859375 
z
" id="CMR17-108"/>
      <path d="M 15.5 61.890625 
C 15.5 64.09375 13.703125 66 11.40625 66 
C 9.203125 66 7.296875 64.1875 7.296875 61.890625 
C 7.296875 59.6875 9.09375 57.796875 11.40625 57.796875 
C 13.59375 57.796875 15.5 59.59375 15.5 61.890625 
z
M 3.796875 42.890625 
L 3.796875 40.296875 
C 9.40625 40.296875 10.203125 39.6875 10.203125 34.859375 
L 10.203125 6.921875 
C 10.203125 3.09375 9.796875 2.59375 3.40625 2.59375 
L 3.40625 0 
C 5.796875 0.1875 10.09375 0.1875 12.59375 0.1875 
C 15 0.1875 19.09375 0.1875 21.40625 0 
L 21.40625 2.59375 
C 15.5 2.59375 15.296875 3.203125 15.296875 6.8125 
L 15.296875 44 
z
" id="CMR17-105"/>
     </defs>
     <g transform="translate(243.883921 169.936902)scale(0.1 -0.1)">
      <use transform="scale(0.996264)" xlink:href="#CMR17-108"/>
      <use transform="translate(24.871058 0)scale(0.996264)" xlink:href="#CMR17-105"/>
      <use transform="translate(49.742117 0)scale(0.996264)" xlink:href="#CMR17-110"/>
      <use transform="translate(100.637487 0)scale(0.996264)" xlink:href="#CMR17-101"/>
      <use transform="translate(141.123147 0)scale(0.996264)" xlink:href="#CMR17-97"/>
      <use transform="translate(186.813624 0)scale(0.996264)" xlink:href="#CMR17-114"/>
     </g>
    </g>
   </g>
  </g>
 </g>
 <defs>
  <clipPath id="p92f9df62c7">
   <rect height="175.51008" width="238.176" x="44.928" y="5.364"/>
  </clipPath>
 </defs>
</svg>
