<?xml version="1.0" encoding="utf-8" standalone="no"?>
<!DOCTYPE svg PUBLIC "-//W3C//DTD SVG 1.1//EN"
  "http://www.w3.org/Graphics/SVG/1.1/DTD/svg11.dtd">
<!-- Created with matplotlib (https://matplotlib.org/) -->
<svg height="216.72pt" version="1.1" viewBox="0 0 287.28 216.72" width="287.28pt" xmlns="http://www.w3.org/2000/svg" xmlns:xlink="http://www.w3.org/1999/xlink">
 <defs>
  <style type="text/css">
*{stroke-linecap:butt;stroke-linejoin:round;}
  </style>
 </defs>
 <g id="figure_1">
  <g id="patch_1">
   <path d="M 0 216.72 
L 287.28 216.72 
L 287.28 0 
L 0 0 
z
" style="fill:#ffffff;"/>
  </g>
  <g id="axes_1">
   <g id="patch_2">
    <path d="M 50.81625 175.741948 
L 269.513046 175.741948 
L 269.513046 14.259249 
L 50.81625 14.259249 
z
" style="fill:#ffffff;"/>
   </g>
   <g id="PolyCollection_1">
    <path clip-path="url(#p8b917e99db)" d="M 54.101809 19.038135 
L 54.101809 19.166588 
L 55.188165 19.166588 
L 55.188165 19.275846 
L 57.342277 19.275846 
L 57.342277 19.369996 
L 59.49639 19.369996 
L 59.49639 19.450307 
L 61.650502 19.450307 
L 61.650502 19.593057 
L 63.804615 19.593057 
L 63.804615 19.699641 
L 65.958727 19.699641 
L 65.958727 19.858334 
L 68.112839 19.858334 
L 68.112839 19.948737 
L 70.266952 19.948737 
L 70.266952 20.150923 
L 72.421064 20.150923 
L 72.421064 20.310816 
L 74.575176 20.310816 
L 74.575176 20.483387 
L 76.729289 20.483387 
L 76.729289 20.699528 
L 78.883401 20.699528 
L 78.883401 20.903708 
L 81.037513 20.903708 
L 81.037513 21.155236 
L 83.191626 21.155236 
L 83.191626 21.354237 
L 85.345738 21.354237 
L 85.345738 21.623957 
L 87.499851 21.623957 
L 87.499851 21.901569 
L 89.653963 21.901569 
L 89.653963 22.173648 
L 91.808075 22.173648 
L 91.808075 22.484597 
L 93.962188 22.484597 
L 93.962188 22.824766 
L 96.1163 22.824766 
L 96.1163 23.198246 
L 98.270412 23.198246 
L 98.270412 23.575717 
L 100.424525 23.575717 
L 100.424525 23.988448 
L 102.578637 23.988448 
L 102.578637 24.449531 
L 104.73275 24.449531 
L 104.73275 24.969592 
L 106.886862 24.969592 
L 106.886862 25.44391 
L 109.040974 25.44391 
L 109.040974 26.014461 
L 111.195087 26.014461 
L 111.195087 26.59517 
L 113.349199 26.59517 
L 113.349199 27.242518 
L 115.503311 27.242518 
L 115.503311 27.928375 
L 117.657424 27.928375 
L 117.657424 28.659699 
L 119.811536 28.659699 
L 119.811536 29.473691 
L 121.965648 29.473691 
L 121.965648 30.330775 
L 124.119761 30.330775 
L 124.119761 31.243117 
L 126.273873 31.243117 
L 126.273873 32.148603 
L 128.427986 32.148603 
L 128.427986 33.214231 
L 130.582098 33.214231 
L 130.582098 34.399042 
L 132.73621 34.399042 
L 132.73621 35.518702 
L 134.890323 35.518702 
L 134.890323 36.774666 
L 137.044435 36.774666 
L 137.044435 38.316153 
L 139.198547 38.316153 
L 139.198547 39.697306 
L 141.35266 39.697306 
L 141.35266 41.349458 
L 143.506772 41.349458 
L 143.506772 42.982721 
L 145.660884 42.982721 
L 145.660884 44.714125 
L 147.814997 44.714125 
L 147.814997 46.712418 
L 149.969109 46.712418 
L 149.969109 48.538507 
L 152.123222 48.538507 
L 152.123222 50.959301 
L 154.277334 50.959301 
L 154.277334 53.044949 
L 156.431446 53.044949 
L 156.431446 55.612209 
L 158.585559 55.612209 
L 158.585559 57.57719 
L 160.739671 57.57719 
L 160.739671 60.700418 
L 162.893783 60.700418 
L 162.893783 63.188827 
L 165.047896 63.188827 
L 165.047896 65.76311 
L 167.202008 65.76311 
L 167.202008 68.111649 
L 169.35612 68.111649 
L 169.35612 71.217619 
L 171.510233 71.217619 
L 171.510233 73.74007 
L 173.664345 73.74007 
L 173.664345 75.698341 
L 175.818458 75.698341 
L 175.818458 78.900815 
L 177.97257 78.900815 
L 177.97257 79.278323 
L 180.126682 79.278323 
L 180.126682 81.558121 
L 182.280795 81.558121 
L 182.280795 81.616131 
L 184.434907 81.616131 
L 184.434907 83.986822 
L 186.589019 83.986822 
L 186.589019 85.114367 
L 188.743132 85.114367 
L 188.743132 88.841132 
L 190.897244 88.841132 
L 190.897244 90.081965 
L 193.051357 90.081965 
L 193.051357 93.181096 
L 195.205469 93.181096 
L 195.205469 93.517077 
L 197.359581 93.517077 
L 197.359581 98.739327 
L 199.513694 98.739327 
L 199.513694 98.570772 
L 201.667806 98.570772 
L 201.667806 100.371022 
L 203.821918 100.371022 
L 203.821918 107.083592 
L 205.976031 107.083592 
L 205.976031 107.664882 
L 208.130143 107.664882 
L 208.130143 111.290659 
L 210.284255 111.290659 
L 210.284255 114.986893 
L 212.438368 114.986893 
L 212.438368 127.872871 
L 214.59248 127.872871 
L 214.59248 120.591342 
L 216.746593 120.591342 
L 216.746593 93.365559 
L 218.900705 93.365559 
L 218.900705 103.219555 
L 221.054817 103.219555 
L 221.054817 103.162346 
L 223.20893 103.162346 
L 223.20893 104.204684 
L 225.363042 104.204684 
L 225.363042 96.493748 
L 227.517154 96.493748 
L 227.517154 91.179568 
L 229.671267 91.179568 
L 229.671267 94.748475 
L 231.825379 94.748475 
L 231.825379 99.316602 
L 233.979491 99.316602 
L 233.979491 89.894826 
L 236.133604 89.894826 
L 236.133604 103.951242 
L 238.287716 103.951242 
L 238.287716 85.86108 
L 240.441829 85.86108 
L 240.441829 99.95746 
L 242.595941 99.95746 
L 242.595941 91.347377 
L 244.750053 91.347377 
L 244.750053 88.124498 
L 246.904166 88.124498 
L 246.904166 88.385641 
L 249.058278 88.385641 
L 249.058278 77.789365 
L 251.21239 77.789365 
L 251.21239 85.152968 
L 253.366503 85.152968 
L 253.366503 74.466493 
L 255.520615 74.466493 
L 255.520615 80.097555 
L 257.674728 80.097555 
L 257.674728 70.444112 
L 259.82884 70.444112 
L 259.82884 78.643751 
L 261.982952 78.643751 
L 261.982952 82.571808 
L 264.137065 82.571808 
L 264.137065 81.281447 
L 266.291177 81.281447 
L 266.291177 63.761834 
L 268.445289 63.761834 
L 268.445289 61.292939 
L 269.513046 61.292939 
L 269.513046 42.972452 
L 269.513046 42.972452 
L 268.445289 42.972452 
L 268.445289 39.997683 
L 266.291177 39.997683 
L 266.291177 44.555215 
L 264.137065 44.555215 
L 264.137065 54.453287 
L 261.982952 54.453287 
L 261.982952 43.840734 
L 259.82884 43.840734 
L 259.82884 44.596386 
L 257.674728 44.596386 
L 257.674728 46.816484 
L 255.520615 46.816484 
L 255.520615 52.677124 
L 253.366503 52.677124 
L 253.366503 53.580152 
L 251.21239 53.580152 
L 251.21239 51.731254 
L 249.058278 51.731254 
L 249.058278 62.635892 
L 246.904166 62.635892 
L 246.904166 62.270622 
L 244.750053 62.270622 
L 244.750053 66.43895 
L 242.595941 66.43895 
L 242.595941 64.503335 
L 240.441829 64.503335 
L 240.441829 68.410547 
L 238.287716 68.410547 
L 238.287716 65.01641 
L 236.133604 65.01641 
L 236.133604 63.228859 
L 233.979491 63.228859 
L 233.979491 70.83465 
L 231.825379 70.83465 
L 231.825379 64.150451 
L 229.671267 64.150451 
L 229.671267 68.981006 
L 227.517154 68.981006 
L 227.517154 70.252714 
L 225.363042 70.252714 
L 225.363042 81.490977 
L 223.20893 81.490977 
L 223.20893 68.786811 
L 221.054817 68.786811 
L 221.054817 75.856467 
L 218.900705 75.856467 
L 218.900705 81.050514 
L 216.746593 81.050514 
L 216.746593 84.411193 
L 214.59248 84.411193 
L 214.59248 87.514591 
L 212.438368 87.514591 
L 212.438368 80.51623 
L 210.284255 80.51623 
L 210.284255 86.236726 
L 208.130143 86.236726 
L 208.130143 83.755537 
L 205.976031 83.755537 
L 205.976031 88.713989 
L 203.821918 88.713989 
L 203.821918 80.620879 
L 201.667806 80.620879 
L 201.667806 78.439626 
L 199.513694 78.439626 
L 199.513694 88.944165 
L 197.359581 88.944165 
L 197.359581 77.418502 
L 195.205469 77.418502 
L 195.205469 81.70421 
L 193.051357 81.70421 
L 193.051357 84.35327 
L 190.897244 84.35327 
L 190.897244 81.686415 
L 188.743132 81.686415 
L 188.743132 79.275906 
L 186.589019 79.275906 
L 186.589019 77.495124 
L 184.434907 77.495124 
L 184.434907 74.943235 
L 182.280795 74.943235 
L 182.280795 76.134902 
L 180.126682 76.134902 
L 180.126682 74.300584 
L 177.97257 74.300584 
L 177.97257 75.133571 
L 175.818458 75.133571 
L 175.818458 70.765152 
L 173.664345 70.765152 
L 173.664345 70.768392 
L 171.510233 70.768392 
L 171.510233 69.149005 
L 169.35612 69.149005 
L 169.35612 66.416828 
L 167.202008 66.416828 
L 167.202008 63.550176 
L 165.047896 63.550176 
L 165.047896 60.728026 
L 162.893783 60.728026 
L 162.893783 58.952938 
L 160.739671 58.952938 
L 160.739671 56.223831 
L 158.585559 56.223831 
L 158.585559 53.812642 
L 156.431446 53.812642 
L 156.431446 51.312163 
L 154.277334 51.312163 
L 154.277334 49.402883 
L 152.123222 49.402883 
L 152.123222 47.513024 
L 149.969109 47.513024 
L 149.969109 45.857622 
L 147.814997 45.857622 
L 147.814997 43.569721 
L 145.660884 43.569721 
L 145.660884 42.042983 
L 143.506772 42.042983 
L 143.506772 40.852943 
L 141.35266 40.852943 
L 141.35266 39.251598 
L 139.198547 39.251598 
L 139.198547 37.882598 
L 137.044435 37.882598 
L 137.044435 36.334565 
L 134.890323 36.334565 
L 134.890323 35.247133 
L 132.73621 35.247133 
L 132.73621 34.074555 
L 130.582098 34.074555 
L 130.582098 32.915215 
L 128.427986 32.915215 
L 128.427986 31.826749 
L 126.273873 31.826749 
L 126.273873 30.980294 
L 124.119761 30.980294 
L 124.119761 30.047228 
L 121.965648 30.047228 
L 121.965648 29.223575 
L 119.811536 29.223575 
L 119.811536 28.471372 
L 117.657424 28.471372 
L 117.657424 27.70271 
L 115.503311 27.70271 
L 115.503311 27.029778 
L 113.349199 27.029778 
L 113.349199 26.371353 
L 111.195087 26.371353 
L 111.195087 25.803728 
L 109.040974 25.803728 
L 109.040974 25.222617 
L 106.886862 25.222617 
L 106.886862 24.822317 
L 104.73275 24.822317 
L 104.73275 24.263767 
L 102.578637 24.263767 
L 102.578637 23.826164 
L 100.424525 23.826164 
L 100.424525 23.414748 
L 98.270412 23.414748 
L 98.270412 23.047478 
L 96.1163 23.047478 
L 96.1163 22.685328 
L 93.962188 22.685328 
L 93.962188 22.313235 
L 91.808075 22.313235 
L 91.808075 22.047081 
L 89.653963 22.047081 
L 89.653963 21.760865 
L 87.499851 21.760865 
L 87.499851 21.47035 
L 85.345738 21.47035 
L 85.345738 21.227548 
L 83.191626 21.227548 
L 83.191626 21.005115 
L 81.037513 21.005115 
L 81.037513 20.769816 
L 78.883401 20.769816 
L 78.883401 20.563738 
L 76.729289 20.563738 
L 76.729289 20.363721 
L 74.575176 20.363721 
L 74.575176 20.199496 
L 72.421064 20.199496 
L 72.421064 20.081619 
L 70.266952 20.081619 
L 70.266952 19.839851 
L 68.112839 19.839851 
L 68.112839 19.763373 
L 65.958727 19.763373 
L 65.958727 19.596069 
L 63.804615 19.596069 
L 63.804615 19.466317 
L 61.650502 19.466317 
L 61.650502 19.338284 
L 59.49639 19.338284 
L 59.49639 19.261576 
L 57.342277 19.261576 
L 57.342277 19.128853 
L 55.188165 19.128853 
L 55.188165 19.038135 
L 54.101809 19.038135 
z
" style="fill:#dd5500;fill-opacity:0.15;"/>
   </g>
   <g id="PolyCollection_2">
    <path clip-path="url(#p8b917e99db)" d="M 54.101809 19.797682 
L 54.101809 19.895443 
L 55.188165 19.895443 
L 55.188165 20.035529 
L 57.342277 20.035529 
L 57.342277 20.207079 
L 59.49639 20.207079 
L 59.49639 20.407737 
L 61.650502 20.407737 
L 61.650502 20.599019 
L 63.804615 20.599019 
L 63.804615 20.744115 
L 65.958727 20.744115 
L 65.958727 20.990469 
L 68.112839 20.990469 
L 68.112839 21.228212 
L 70.266952 21.228212 
L 70.266952 21.516037 
L 72.421064 21.516037 
L 72.421064 21.760747 
L 74.575176 21.760747 
L 74.575176 22.056508 
L 76.729289 22.056508 
L 76.729289 22.347382 
L 78.883401 22.347382 
L 78.883401 22.765642 
L 81.037513 22.765642 
L 81.037513 23.080723 
L 83.191626 23.080723 
L 83.191626 23.504212 
L 85.345738 23.504212 
L 85.345738 23.90601 
L 87.499851 23.90601 
L 87.499851 24.386549 
L 89.653963 24.386549 
L 89.653963 24.842588 
L 91.808075 24.842588 
L 91.808075 25.407984 
L 93.962188 25.407984 
L 93.962188 25.94062 
L 96.1163 25.94062 
L 96.1163 26.628844 
L 98.270412 26.628844 
L 98.270412 27.267031 
L 100.424525 27.267031 
L 100.424525 27.985195 
L 102.578637 27.985195 
L 102.578637 28.732223 
L 104.73275 28.732223 
L 104.73275 29.686889 
L 106.886862 29.686889 
L 106.886862 30.598617 
L 109.040974 30.598617 
L 109.040974 31.604827 
L 111.195087 31.604827 
L 111.195087 32.760739 
L 113.349199 32.760739 
L 113.349199 33.874262 
L 115.503311 33.874262 
L 115.503311 35.197053 
L 117.657424 35.197053 
L 117.657424 36.683803 
L 119.811536 36.683803 
L 119.811536 38.112012 
L 121.965648 38.112012 
L 121.965648 39.898501 
L 124.119761 39.898501 
L 124.119761 41.757859 
L 126.273873 41.757859 
L 126.273873 43.923855 
L 128.427986 43.923855 
L 128.427986 46.257317 
L 130.582098 46.257317 
L 130.582098 48.830198 
L 132.73621 48.830198 
L 132.73621 51.670705 
L 134.890323 51.670705 
L 134.890323 54.990207 
L 137.044435 54.990207 
L 137.044435 58.513905 
L 139.198547 58.513905 
L 139.198547 62.763558 
L 141.35266 62.763558 
L 141.35266 67.884635 
L 143.506772 67.884635 
L 143.506772 73.638772 
L 145.660884 73.638772 
L 145.660884 79.967467 
L 147.814997 79.967467 
L 147.814997 87.031653 
L 149.969109 87.031653 
L 149.969109 98.392551 
L 152.123222 98.392551 
L 152.123222 112.355205 
L 154.277334 112.355205 
L 154.277334 130.501547 
L 156.431446 130.501547 
L 156.431446 145.847823 
L 158.585559 145.847823 
L 158.585559 130.369205 
L 160.739671 130.369205 
L 160.739671 113.910797 
L 162.893783 113.910797 
L 162.893783 101.362401 
L 165.047896 101.362401 
L 165.047896 95.712867 
L 167.202008 95.712867 
L 167.202008 89.551409 
L 169.35612 89.551409 
L 169.35612 85.374359 
L 171.510233 85.374359 
L 171.510233 84.11266 
L 173.664345 84.11266 
L 173.664345 81.891291 
L 175.818458 81.891291 
L 175.818458 81.477381 
L 177.97257 81.477381 
L 177.97257 82.681085 
L 180.126682 82.681085 
L 180.126682 85.442652 
L 182.280795 85.442652 
L 182.280795 88.764561 
L 184.434907 88.764561 
L 184.434907 92.26606 
L 186.589019 92.26606 
L 186.589019 96.974421 
L 188.743132 96.974421 
L 188.743132 108.498833 
L 190.897244 108.498833 
L 190.897244 117.69313 
L 193.051357 117.69313 
L 193.051357 115.260604 
L 195.205469 115.260604 
L 195.205469 122.799908 
L 197.359581 122.799908 
L 197.359581 108.809203 
L 199.513694 108.809203 
L 199.513694 103.086393 
L 201.667806 103.086393 
L 201.667806 102.574038 
L 203.821918 102.574038 
L 203.821918 98.616052 
L 205.976031 98.616052 
L 205.976031 100.816621 
L 208.130143 100.816621 
L 208.130143 98.005529 
L 210.284255 98.005529 
L 210.284255 96.757622 
L 212.438368 96.757622 
L 212.438368 102.002291 
L 214.59248 102.002291 
L 214.59248 99.736623 
L 216.746593 99.736623 
L 216.746593 107.367103 
L 218.900705 107.367103 
L 218.900705 98.865468 
L 221.054817 98.865468 
L 221.054817 98.742094 
L 223.20893 98.742094 
L 223.20893 103.766453 
L 225.363042 103.766453 
L 225.363042 89.000712 
L 227.517154 89.000712 
L 227.517154 99.836933 
L 229.671267 99.836933 
L 229.671267 104.219414 
L 231.825379 104.219414 
L 231.825379 83.279884 
L 233.979491 83.279884 
L 233.979491 96.75781 
L 236.133604 96.75781 
L 236.133604 94.690838 
L 238.287716 94.690838 
L 238.287716 76.030171 
L 240.441829 76.030171 
L 240.441829 88.642039 
L 242.595941 88.642039 
L 242.595941 83.927748 
L 244.750053 83.927748 
L 244.750053 79.982619 
L 246.904166 79.982619 
L 246.904166 87.565441 
L 249.058278 87.565441 
L 249.058278 58.177946 
L 251.21239 58.177946 
L 251.21239 62.370148 
L 253.366503 62.370148 
L 253.366503 58.653866 
L 255.520615 58.653866 
L 255.520615 59.599342 
L 257.674728 59.599342 
L 257.674728 54.176598 
L 259.82884 54.176598 
L 259.82884 64.237378 
L 261.982952 64.237378 
L 261.982952 83.888687 
L 264.137065 83.888687 
L 264.137065 71.505302 
L 266.291177 71.505302 
L 266.291177 51.317152 
L 268.445289 51.317152 
L 268.445289 47.029007 
L 269.513046 47.029007 
L 269.513046 26.996574 
L 269.513046 26.996574 
L 268.445289 26.996574 
L 268.445289 29.289578 
L 266.291177 29.289578 
L 266.291177 36.93779 
L 264.137065 36.93779 
L 264.137065 45.574863 
L 261.982952 45.574863 
L 261.982952 39.42675 
L 259.82884 39.42675 
L 259.82884 38.701904 
L 257.674728 38.701904 
L 257.674728 36.223487 
L 255.520615 36.223487 
L 255.520615 40.57832 
L 253.366503 40.57832 
L 253.366503 43.585124 
L 251.21239 43.585124 
L 251.21239 44.222543 
L 249.058278 44.222543 
L 249.058278 46.686559 
L 246.904166 46.686559 
L 246.904166 52.886505 
L 244.750053 52.886505 
L 244.750053 53.076657 
L 242.595941 53.076657 
L 242.595941 59.17818 
L 240.441829 59.17818 
L 240.441829 49.969435 
L 238.287716 49.969435 
L 238.287716 63.322153 
L 236.133604 63.322153 
L 236.133604 60.097563 
L 233.979491 60.097563 
L 233.979491 60.474763 
L 231.825379 60.474763 
L 231.825379 70.413927 
L 229.671267 70.413927 
L 229.671267 62.133953 
L 227.517154 62.133953 
L 227.517154 63.599198 
L 225.363042 63.599198 
L 225.363042 78.399015 
L 223.20893 78.399015 
L 223.20893 72.138572 
L 221.054817 72.138572 
L 221.054817 73.41462 
L 218.900705 73.41462 
L 218.900705 76.47764 
L 216.746593 76.47764 
L 216.746593 73.496203 
L 214.59248 73.496203 
L 214.59248 82.44633 
L 212.438368 82.44633 
L 212.438368 67.846794 
L 210.284255 67.846794 
L 210.284255 78.200273 
L 208.130143 78.200273 
L 208.130143 77.408664 
L 205.976031 77.408664 
L 205.976031 83.47893 
L 203.821918 83.47893 
L 203.821918 82.391964 
L 201.667806 82.391964 
L 201.667806 87.60814 
L 199.513694 87.60814 
L 199.513694 85.196367 
L 197.359581 85.196367 
L 197.359581 99.68628 
L 195.205469 99.68628 
L 195.205469 96.721643 
L 193.051357 96.721643 
L 193.051357 91.674416 
L 190.897244 91.674416 
L 190.897244 87.392511 
L 188.743132 87.392511 
L 188.743132 86.28666 
L 186.589019 86.28666 
L 186.589019 84.794306 
L 184.434907 84.794306 
L 184.434907 83.931046 
L 182.280795 83.931046 
L 182.280795 78.833195 
L 180.126682 78.833195 
L 180.126682 78.073567 
L 177.97257 78.073567 
L 177.97257 78.437621 
L 175.818458 78.437621 
L 175.818458 75.665793 
L 173.664345 75.665793 
L 173.664345 80.958358 
L 171.510233 80.958358 
L 171.510233 80.911222 
L 169.35612 80.911222 
L 169.35612 84.942504 
L 167.202008 84.942504 
L 167.202008 92.417968 
L 165.047896 92.417968 
L 165.047896 95.389219 
L 162.893783 95.389219 
L 162.893783 107.593237 
L 160.739671 107.593237 
L 160.739671 118.520673 
L 158.585559 118.520673 
L 158.585559 133.666711 
L 156.431446 133.666711 
L 156.431446 124.172802 
L 154.277334 124.172802 
L 154.277334 107.18272 
L 152.123222 107.18272 
L 152.123222 95.73346 
L 149.969109 95.73346 
L 149.969109 85.167267 
L 147.814997 85.167267 
L 147.814997 78.261276 
L 145.660884 78.261276 
L 145.660884 72.117002 
L 143.506772 72.117002 
L 143.506772 66.415526 
L 141.35266 66.415526 
L 141.35266 61.726321 
L 139.198547 61.726321 
L 139.198547 57.744462 
L 137.044435 57.744462 
L 137.044435 54.504419 
L 134.890323 54.504419 
L 134.890323 51.113102 
L 132.73621 51.113102 
L 132.73621 48.373767 
L 130.582098 48.373767 
L 130.582098 45.800522 
L 128.427986 45.800522 
L 128.427986 43.494965 
L 126.273873 43.494965 
L 126.273873 41.461153 
L 124.119761 41.461153 
L 124.119761 39.57333 
L 121.965648 39.57333 
L 121.965648 37.876928 
L 119.811536 37.876928 
L 119.811536 36.367162 
L 117.657424 36.367162 
L 117.657424 34.966851 
L 115.503311 34.966851 
L 115.503311 33.632018 
L 113.349199 33.632018 
L 113.349199 32.527664 
L 111.195087 32.527664 
L 111.195087 31.418151 
L 109.040974 31.418151 
L 109.040974 30.362768 
L 106.886862 30.362768 
L 106.886862 29.46715 
L 104.73275 29.46715 
L 104.73275 28.520989 
L 102.578637 28.520989 
L 102.578637 27.821396 
L 100.424525 27.821396 
L 100.424525 27.021364 
L 98.270412 27.021364 
L 98.270412 26.434953 
L 96.1163 26.434953 
L 96.1163 25.785192 
L 93.962188 25.785192 
L 93.962188 25.232668 
L 91.808075 25.232668 
L 91.808075 24.673787 
L 89.653963 24.673787 
L 89.653963 24.189231 
L 87.499851 24.189231 
L 87.499851 23.776121 
L 85.345738 23.776121 
L 85.345738 23.330907 
L 83.191626 23.330907 
L 83.191626 22.901056 
L 81.037513 22.901056 
L 81.037513 22.596081 
L 78.883401 22.596081 
L 78.883401 22.19458 
L 76.729289 22.19458 
L 76.729289 21.92048 
L 74.575176 21.92048 
L 74.575176 21.633277 
L 72.421064 21.633277 
L 72.421064 21.362716 
L 70.266952 21.362716 
L 70.266952 21.108205 
L 68.112839 21.108205 
L 68.112839 20.904904 
L 65.958727 20.904904 
L 65.958727 20.666053 
L 63.804615 20.666053 
L 63.804615 20.475767 
L 61.650502 20.475767 
L 61.650502 20.278736 
L 59.49639 20.278736 
L 59.49639 20.100207 
L 57.342277 20.100207 
L 57.342277 19.917785 
L 55.188165 19.917785 
L 55.188165 19.797682 
L 54.101809 19.797682 
z
" style="fill:#dd5500;fill-opacity:0.15;"/>
   </g>
   <g id="matplotlib.axis_1">
    <g id="xtick_1">
     <g id="line2d_1">
      <path clip-path="url(#p8b917e99db)" d="M 125.905555 175.741948 
L 125.905555 14.259249 
" style="fill:none;stroke:#dddddd;stroke-linecap:square;stroke-width:0.5;"/>
     </g>
     <g id="line2d_2">
      <defs>
       <path d="M 0 0 
L 0 3.5 
" id="m9622459272" style="stroke:#000000;stroke-width:0.8;"/>
      </defs>
      <g>
       <use style="stroke:#000000;stroke-width:0.8;" x="125.905555" xlink:href="#m9622459272" y="175.741948"/>
      </g>
     </g>
     <g id="text_1">
      <!-- $\mathdefault{10^{1}}$ -->
      <defs>
       <path d="M 26.59375 63.796875 
C 26.59375 65.890625 26.5 66 25.09375 66 
C 21.203125 61.359375 15.296875 59.890625 9.703125 59.6875 
C 9.40625 59.6875 8.90625 59.6875 8.796875 59.5 
C 8.703125 59.296875 8.703125 59.09375 8.703125 57 
C 11.796875 57 17 57.59375 21 59.984375 
L 21 7.296875 
C 21 3.796875 20.796875 2.59375 12.203125 2.59375 
L 9.203125 2.59375 
L 9.203125 0 
C 14 0.09375 19 0.1875 23.796875 0.1875 
C 28.59375 0.1875 33.59375 0.09375 38.40625 0 
L 38.40625 2.59375 
L 35.40625 2.59375 
C 26.796875 2.59375 26.59375 3.6875 26.59375 7.296875 
z
" id="CMR17-49"/>
       <path d="M 42 31.84375 
C 42 37.96875 41.90625 48.421875 37.703125 56.453125 
C 34 63.484375 28.09375 66 22.90625 66 
C 18.09375 66 12 63.78125 8.203125 56.5625 
C 4.203125 49.015625 3.796875 39.671875 3.796875 31.84375 
C 3.796875 26.109375 3.90625 17.375 7 9.734375 
C 11.296875 -0.609375 19 -2 22.90625 -2 
C 27.5 -2 34.5 -0.109375 38.59375 9.4375 
C 41.59375 16.375 42 24.5 42 31.84375 
z
M 22.90625 -0.40625 
C 16.5 -0.40625 12.703125 5.125 11.296875 12.75 
C 10.203125 18.6875 10.203125 27.328125 10.203125 32.953125 
C 10.203125 40.6875 10.203125 47.109375 11.5 53.234375 
C 13.40625 61.78125 19 64.390625 22.90625 64.390625 
C 27 64.390625 32.296875 61.671875 34.203125 53.4375 
C 35.5 47.71875 35.59375 40.984375 35.59375 32.953125 
C 35.59375 26.421875 35.59375 18.375 34.40625 12.453125 
C 32.296875 1.5 26.40625 -0.40625 22.90625 -0.40625 
z
" id="CMR17-48"/>
      </defs>
      <g transform="translate(118.938601 189.660447)scale(0.1 -0.1)">
       <use transform="scale(0.996264)" xlink:href="#CMR17-49"/>
       <use transform="translate(45.690477 0)scale(0.996264)" xlink:href="#CMR17-48"/>
       <use transform="translate(91.380954 36.153639)scale(0.697382)" xlink:href="#CMR17-49"/>
      </g>
     </g>
    </g>
    <g id="xtick_2">
     <g id="line2d_3">
      <path clip-path="url(#p8b917e99db)" d="M 269.513046 175.741948 
L 269.513046 14.259249 
" style="fill:none;stroke:#dddddd;stroke-linecap:square;stroke-width:0.5;"/>
     </g>
     <g id="line2d_4">
      <g>
       <use style="stroke:#000000;stroke-width:0.8;" x="269.513046" xlink:href="#m9622459272" y="175.741948"/>
      </g>
     </g>
     <g id="text_2">
      <!-- $\mathdefault{10^{2}}$ -->
      <defs>
       <path d="M 41.703125 15.46875 
L 39.90625 15.46875 
C 38.90625 8.390625 38.09375 7.1875 37.703125 6.59375 
C 37.203125 5.796875 30 5.796875 28.59375 5.796875 
L 9.40625 5.796875 
C 13 9.6875 20 16.765625 28.5 24.9375 
C 34.59375 30.71875 41.703125 37.5 41.703125 47.390625 
C 41.703125 59.1875 32.296875 66 21.796875 66 
C 10.796875 66 4.09375 56.296875 4.09375 47.296875 
C 4.09375 43.390625 7 42.890625 8.203125 42.890625 
C 9.203125 42.890625 12.203125 43.484375 12.203125 46.984375 
C 12.203125 50.09375 9.59375 51 8.203125 51 
C 7.59375 51 7 50.890625 6.59375 50.6875 
C 8.5 59.1875 14.296875 63.390625 20.40625 63.390625 
C 29.09375 63.390625 34.796875 56.5 34.796875 47.390625 
C 34.796875 38.703125 29.703125 31.21875 24 24.734375 
L 4.09375 2.296875 
L 4.09375 0 
L 39.296875 0 
z
" id="CMR17-50"/>
      </defs>
      <g transform="translate(262.546092 189.660447)scale(0.1 -0.1)">
       <use transform="scale(0.996264)" xlink:href="#CMR17-49"/>
       <use transform="translate(45.690477 0)scale(0.996264)" xlink:href="#CMR17-48"/>
       <use transform="translate(91.380954 36.153639)scale(0.697382)" xlink:href="#CMR17-50"/>
      </g>
     </g>
    </g>
    <g id="xtick_3">
     <g id="line2d_5">
      <path clip-path="url(#p8b917e99db)" d="M 50.81625 175.741948 
L 50.81625 14.259249 
" style="fill:none;stroke:#dddddd;stroke-linecap:square;stroke-width:0.5;"/>
     </g>
     <g id="line2d_6">
      <defs>
       <path d="M 0 0 
L 0 2 
" id="m12de3cc78d" style="stroke:#000000;stroke-width:0.6;"/>
      </defs>
      <g>
       <use style="stroke:#000000;stroke-width:0.6;" x="50.81625" xlink:href="#m12de3cc78d" y="175.741948"/>
      </g>
     </g>
    </g>
    <g id="xtick_4">
     <g id="line2d_7">
      <path clip-path="url(#p8b917e99db)" d="M 68.758389 175.741948 
L 68.758389 14.259249 
" style="fill:none;stroke:#dddddd;stroke-linecap:square;stroke-width:0.5;"/>
     </g>
     <g id="line2d_8">
      <g>
       <use style="stroke:#000000;stroke-width:0.6;" x="68.758389" xlink:href="#m12de3cc78d" y="175.741948"/>
      </g>
     </g>
    </g>
    <g id="xtick_5">
     <g id="line2d_9">
      <path clip-path="url(#p8b917e99db)" d="M 82.675392 175.741948 
L 82.675392 14.259249 
" style="fill:none;stroke:#dddddd;stroke-linecap:square;stroke-width:0.5;"/>
     </g>
     <g id="line2d_10">
      <g>
       <use style="stroke:#000000;stroke-width:0.6;" x="82.675392" xlink:href="#m12de3cc78d" y="175.741948"/>
      </g>
     </g>
    </g>
    <g id="xtick_6">
     <g id="line2d_11">
      <path clip-path="url(#p8b917e99db)" d="M 94.046413 175.741948 
L 94.046413 14.259249 
" style="fill:none;stroke:#dddddd;stroke-linecap:square;stroke-width:0.5;"/>
     </g>
     <g id="line2d_12">
      <g>
       <use style="stroke:#000000;stroke-width:0.6;" x="94.046413" xlink:href="#m12de3cc78d" y="175.741948"/>
      </g>
     </g>
    </g>
    <g id="xtick_7">
     <g id="line2d_13">
      <path clip-path="url(#p8b917e99db)" d="M 103.660473 175.741948 
L 103.660473 14.259249 
" style="fill:none;stroke:#dddddd;stroke-linecap:square;stroke-width:0.5;"/>
     </g>
     <g id="line2d_14">
      <g>
       <use style="stroke:#000000;stroke-width:0.6;" x="103.660473" xlink:href="#m12de3cc78d" y="175.741948"/>
      </g>
     </g>
    </g>
    <g id="xtick_8">
     <g id="line2d_15">
      <path clip-path="url(#p8b917e99db)" d="M 111.988551 175.741948 
L 111.988551 14.259249 
" style="fill:none;stroke:#dddddd;stroke-linecap:square;stroke-width:0.5;"/>
     </g>
     <g id="line2d_16">
      <g>
       <use style="stroke:#000000;stroke-width:0.6;" x="111.988551" xlink:href="#m12de3cc78d" y="175.741948"/>
      </g>
     </g>
    </g>
    <g id="xtick_9">
     <g id="line2d_17">
      <path clip-path="url(#p8b917e99db)" d="M 119.334436 175.741948 
L 119.334436 14.259249 
" style="fill:none;stroke:#dddddd;stroke-linecap:square;stroke-width:0.5;"/>
     </g>
     <g id="line2d_18">
      <g>
       <use style="stroke:#000000;stroke-width:0.6;" x="119.334436" xlink:href="#m12de3cc78d" y="175.741948"/>
      </g>
     </g>
    </g>
    <g id="xtick_10">
     <g id="line2d_19">
      <path clip-path="url(#p8b917e99db)" d="M 169.135717 175.741948 
L 169.135717 14.259249 
" style="fill:none;stroke:#dddddd;stroke-linecap:square;stroke-width:0.5;"/>
     </g>
     <g id="line2d_20">
      <g>
       <use style="stroke:#000000;stroke-width:0.6;" x="169.135717" xlink:href="#m12de3cc78d" y="175.741948"/>
      </g>
     </g>
    </g>
    <g id="xtick_11">
     <g id="line2d_21">
      <path clip-path="url(#p8b917e99db)" d="M 194.423741 175.741948 
L 194.423741 14.259249 
" style="fill:none;stroke:#dddddd;stroke-linecap:square;stroke-width:0.5;"/>
     </g>
     <g id="line2d_22">
      <g>
       <use style="stroke:#000000;stroke-width:0.6;" x="194.423741" xlink:href="#m12de3cc78d" y="175.741948"/>
      </g>
     </g>
    </g>
    <g id="xtick_12">
     <g id="line2d_23">
      <path clip-path="url(#p8b917e99db)" d="M 212.36588 175.741948 
L 212.36588 14.259249 
" style="fill:none;stroke:#dddddd;stroke-linecap:square;stroke-width:0.5;"/>
     </g>
     <g id="line2d_24">
      <g>
       <use style="stroke:#000000;stroke-width:0.6;" x="212.36588" xlink:href="#m12de3cc78d" y="175.741948"/>
      </g>
     </g>
    </g>
    <g id="xtick_13">
     <g id="line2d_25">
      <path clip-path="url(#p8b917e99db)" d="M 226.282884 175.741948 
L 226.282884 14.259249 
" style="fill:none;stroke:#dddddd;stroke-linecap:square;stroke-width:0.5;"/>
     </g>
     <g id="line2d_26">
      <g>
       <use style="stroke:#000000;stroke-width:0.6;" x="226.282884" xlink:href="#m12de3cc78d" y="175.741948"/>
      </g>
     </g>
    </g>
    <g id="xtick_14">
     <g id="line2d_27">
      <path clip-path="url(#p8b917e99db)" d="M 237.653904 175.741948 
L 237.653904 14.259249 
" style="fill:none;stroke:#dddddd;stroke-linecap:square;stroke-width:0.5;"/>
     </g>
     <g id="line2d_28">
      <g>
       <use style="stroke:#000000;stroke-width:0.6;" x="237.653904" xlink:href="#m12de3cc78d" y="175.741948"/>
      </g>
     </g>
    </g>
    <g id="xtick_15">
     <g id="line2d_29">
      <path clip-path="url(#p8b917e99db)" d="M 247.267964 175.741948 
L 247.267964 14.259249 
" style="fill:none;stroke:#dddddd;stroke-linecap:square;stroke-width:0.5;"/>
     </g>
     <g id="line2d_30">
      <g>
       <use style="stroke:#000000;stroke-width:0.6;" x="247.267964" xlink:href="#m12de3cc78d" y="175.741948"/>
      </g>
     </g>
    </g>
    <g id="xtick_16">
     <g id="line2d_31">
      <path clip-path="url(#p8b917e99db)" d="M 255.596042 175.741948 
L 255.596042 14.259249 
" style="fill:none;stroke:#dddddd;stroke-linecap:square;stroke-width:0.5;"/>
     </g>
     <g id="line2d_32">
      <g>
       <use style="stroke:#000000;stroke-width:0.6;" x="255.596042" xlink:href="#m12de3cc78d" y="175.741948"/>
      </g>
     </g>
    </g>
    <g id="xtick_17">
     <g id="line2d_33">
      <path clip-path="url(#p8b917e99db)" d="M 262.941928 175.741948 
L 262.941928 14.259249 
" style="fill:none;stroke:#dddddd;stroke-linecap:square;stroke-width:0.5;"/>
     </g>
     <g id="line2d_34">
      <g>
       <use style="stroke:#000000;stroke-width:0.6;" x="262.941928" xlink:href="#m12de3cc78d" y="175.741948"/>
      </g>
     </g>
    </g>
    <g id="text_3">
     <!-- final time $t_f$ [ns] -->
     <defs>
      <path d="M 39.90625 44 
C 37.5 43.890625 30.09375 43.390625 28.203125 43.1875 
C 27.59375 43.09375 27.40625 43.09375 26.203125 43.09375 
L 14.796875 43.09375 
L 14.796875 54.953125 
C 14.796875 64.484375 22.40625 69 28.40625 69 
C 30.296875 69 34.59375 68.484375 36.796875 65 
C 35.796875 65 32.59375 65 32.59375 61.484375 
C 32.59375 59.09375 34.203125 57.890625 36.203125 57.890625 
C 38 57.890625 39.796875 58.890625 39.796875 61.59375 
C 39.796875 66.640625 35 70.59375 28.796875 70.59375 
C 20.90625 70.59375 9.90625 66.015625 9.90625 54.953125 
L 9.90625 43.09375 
L 1.90625 43.09375 
L 1.90625 40.484375 
L 9.90625 40.484375 
L 9.90625 6.90625 
C 9.90625 3.09375 9.5 2.59375 3.09375 2.59375 
L 3.09375 0 
C 5.5 0.1875 9.90625 0.1875 12.40625 0.1875 
C 15 0.1875 19.40625 0.1875 21.796875 0 
L 21.796875 2.59375 
C 15.40625 2.59375 15 3 15 6.90625 
L 15 40.484375 
L 29.703125 40.484375 
C 34 40.484375 34.796875 39.59375 34.796875 35.171875 
L 34.796875 6.90625 
C 34.796875 3.09375 34.40625 2.59375 28 2.59375 
L 28 0 
C 30.40625 0.1875 34.796875 0.1875 37.296875 0.1875 
C 39.90625 0.1875 44.296875 0.1875 46.703125 0 
L 46.703125 2.59375 
C 40.296875 2.59375 39.90625 3 39.90625 6.90625 
z
" id="CMR17-12"/>
      <path d="M 41.5 30.53125 
C 41.5 35.65625 40.5 44 28.703125 44 
C 20.796875 44 16.703125 37.875 15.203125 33.84375 
L 15.09375 33.84375 
L 15.09375 44 
L 3.296875 42.890625 
L 3.296875 40.28125 
C 9.203125 40.28125 10.09375 39.6875 10.09375 34.859375 
L 10.09375 6.921875 
C 10.09375 3.09375 9.703125 2.59375 3.296875 2.59375 
L 3.296875 0 
C 5.703125 0.1875 10.09375 0.1875 12.703125 0.1875 
C 15.296875 0.1875 19.796875 0.1875 22.203125 0 
L 22.203125 2.59375 
C 15.796875 2.59375 15.40625 3 15.40625 6.921875 
L 15.40625 26.21875 
C 15.40625 35.453125 21 42.390625 28 42.390625 
C 35.40625 42.390625 36.203125 35.765625 36.203125 30.9375 
L 36.203125 6.921875 
C 36.203125 3.09375 35.796875 2.59375 29.40625 2.59375 
L 29.40625 0 
C 31.796875 0.1875 36.203125 0.1875 38.796875 0.1875 
C 41.40625 0.1875 45.90625 0.1875 48.296875 0 
L 48.296875 2.59375 
C 41.90625 2.59375 41.5 3 41.5 6.921875 
z
" id="CMR17-110"/>
      <path d="M 36 25.875 
C 36 32 36 35.546875 31.796875 39.59375 
C 28.09375 42.984375 23.796875 44 20.40625 44 
C 12.5 44 6.796875 37.625 6.796875 30.890625 
C 6.796875 27.1875 9.796875 27 10.40625 27 
C 11.703125 27 14 27.796875 14 30.59375 
C 14 33.09375 12.09375 34.1875 10.40625 34.1875 
C 10 34.1875 9.5 34.09375 9.203125 34 
C 11.296875 40.53125 16.703125 42.390625 20.203125 42.390625 
C 25.203125 42.390625 30.703125 37.828125 30.703125 29.296875 
L 30.703125 25.5 
C 24.796875 25.296875 17.703125 24.5 12.09375 21.453125 
C 5.796875 17.921875 4 12.84375 4 9 
C 4 1.203125 13 -1 18.296875 -1 
C 23.796875 -1 28.90625 2.109375 31.09375 7.890625 
C 31.296875 3.421875 34.09375 -0.609375 38.5 -0.609375 
C 40.59375 -0.609375 45.90625 0.796875 45.90625 8.796875 
L 45.90625 14.46875 
L 44.09375 14.46875 
L 44.09375 8.703125 
C 44.09375 2.515625 41.40625 1.703125 40.09375 1.703125 
C 36 1.703125 36 6.96875 36 11.4375 
z
M 30.703125 13.859375 
C 30.703125 5.046875 24.5 0.59375 19 0.59375 
C 14 0.59375 10.09375 4.34375 10.09375 9 
C 10.09375 12.046875 11.40625 17.40625 17.203125 20.65625 
C 22 23.390625 27.5 23.796875 30.703125 24 
z
" id="CMR17-97"/>
      <path d="M 15.296875 69 
L 3.40625 67.890625 
L 3.40625 65.296875 
C 9.296875 65.296875 10.203125 64.703125 10.203125 59.921875 
L 10.203125 6.859375 
C 10.203125 3.09375 9.796875 2.59375 3.40625 2.59375 
L 3.40625 0 
C 5.796875 0.1875 10.203125 0.1875 12.703125 0.1875 
C 15.296875 0.1875 19.703125 0.1875 22.09375 0 
L 22.09375 2.59375 
C 15.703125 2.59375 15.296875 2.984375 15.296875 6.859375 
z
" id="CMR17-108"/>
      <path d="M 15.09375 40.390625 
L 29.09375 40.390625 
L 29.09375 43 
L 15.09375 43 
L 15.09375 62 
L 13.296875 62 
C 13.09375 51.4375 9.59375 42.1875 1.09375 41.984375 
L 1.09375 40.390625 
L 9.796875 40.390625 
L 9.796875 12.15625 
C 9.796875 10.234375 9.796875 -1 21.40625 -1 
C 27.296875 -1 30.703125 4.8125 30.703125 12.25 
L 30.703125 17.984375 
L 28.90625 17.984375 
L 28.90625 12.34375 
C 28.90625 5.421875 26.203125 0.796875 22 0.796875 
C 19.09375 0.796875 15.09375 2.796875 15.09375 11.953125 
z
" id="CMR17-116"/>
      <path d="M 15.5 61.890625 
C 15.5 64.09375 13.703125 66 11.40625 66 
C 9.203125 66 7.296875 64.1875 7.296875 61.890625 
C 7.296875 59.6875 9.09375 57.796875 11.40625 57.796875 
C 13.59375 57.796875 15.5 59.59375 15.5 61.890625 
z
M 3.796875 42.890625 
L 3.796875 40.296875 
C 9.40625 40.296875 10.203125 39.6875 10.203125 34.859375 
L 10.203125 6.921875 
C 10.203125 3.09375 9.796875 2.59375 3.40625 2.59375 
L 3.40625 0 
C 5.796875 0.1875 10.09375 0.1875 12.59375 0.1875 
C 15 0.1875 19.09375 0.1875 21.40625 0 
L 21.40625 2.59375 
C 15.5 2.59375 15.296875 3.203125 15.296875 6.8125 
L 15.296875 44 
z
" id="CMR17-105"/>
      <path d="M 67.59375 30.53125 
C 67.59375 35.5625 66.703125 44 54.796875 44 
C 48 44 43.296875 39.375 41.5 33.953125 
L 41.40625 33.953125 
C 40.203125 42.1875 34.296875 44 28.703125 44 
C 20.796875 44 16.703125 37.875 15.203125 33.84375 
L 15.09375 33.84375 
L 15.09375 44 
L 3.296875 42.890625 
L 3.296875 40.28125 
C 9.203125 40.28125 10.09375 39.6875 10.09375 34.859375 
L 10.09375 6.921875 
C 10.09375 3.09375 9.703125 2.59375 3.296875 2.59375 
L 3.296875 0 
C 5.703125 0.1875 10.09375 0.1875 12.703125 0.1875 
C 15.296875 0.1875 19.796875 0.1875 22.203125 0 
L 22.203125 2.59375 
C 15.796875 2.59375 15.40625 3 15.40625 6.921875 
L 15.40625 26.21875 
C 15.40625 35.453125 21 42.390625 28 42.390625 
C 35.40625 42.390625 36.203125 35.765625 36.203125 30.9375 
L 36.203125 6.921875 
C 36.203125 3.09375 35.796875 2.59375 29.40625 2.59375 
L 29.40625 0 
C 31.796875 0.1875 36.203125 0.1875 38.796875 0.1875 
C 41.40625 0.1875 45.90625 0.1875 48.296875 0 
L 48.296875 2.59375 
C 41.90625 2.59375 41.5 3 41.5 6.921875 
L 41.5 26.21875 
C 41.5 35.453125 47.09375 42.390625 54.09375 42.390625 
C 61.5 42.390625 62.296875 35.765625 62.296875 30.9375 
L 62.296875 6.921875 
C 62.296875 3.09375 61.90625 2.59375 55.5 2.59375 
L 55.5 0 
C 57.90625 0.1875 62.296875 0.1875 64.90625 0.1875 
C 67.5 0.1875 72 0.1875 74.40625 0 
L 74.40625 2.59375 
C 68 2.59375 67.59375 3 67.59375 6.921875 
z
" id="CMR17-109"/>
      <path d="M 38.09375 23.484375 
C 38.5 23.890625 38.5 24.09375 38.5 25.09375 
C 38.5 35.171875 33.09375 44 21.703125 44 
C 11.09375 44 2.703125 33.984375 2.703125 21.78125 
C 2.703125 8.65625 12.203125 -1 22.796875 -1 
C 34 -1 38.40625 9.671875 38.40625 11.796875 
C 38.40625 12.5 37.796875 12.5 37.59375 12.5 
C 36.90625 12.5 36.796875 12.296875 36.40625 11.078125 
C 34.203125 4.21875 28.703125 0.796875 23.5 0.796875 
C 19.203125 0.796875 14.90625 3.21875 12.203125 7.65625 
C 9.09375 12.796875 9.09375 18.75 9.09375 23.484375 
z
M 9.203125 25 
C 9.90625 39.234375 17.59375 42.390625 21.59375 42.390625 
C 28.40625 42.390625 33 36.0625 33.09375 25 
z
" id="CMR17-101"/>
      <path d="M 20.09375 40.09375 
L 29.296875 40.09375 
C 31.203125 40.09375 32.203125 40.09375 32.203125 41.890625 
C 32.203125 43 31.59375 43 29.59375 43 
L 20.796875 43 
L 24.5 57.25 
C 24.90625 58.625 24.90625 58.8125 24.90625 59.5 
C 24.90625 61.09375 23.59375 62 22.296875 62 
C 21.5 62 19.203125 61.6875 18.40625 58.53125 
L 14.5 43 
L 5.09375 43 
C 3.09375 43 2.203125 43 2.203125 41.09375 
C 2.203125 40.09375 2.90625 40.09375 4.796875 40.09375 
L 13.703125 40.09375 
L 7.09375 13.765625 
C 6.296875 10.265625 6 9.265625 6 7.96875 
C 6 3.28125 9.296875 -1 14.90625 -1 
C 25 -1 30.40625 13.5625 30.40625 14.265625 
C 30.40625 14.859375 30 15.15625 29.40625 15.15625 
C 29.203125 15.15625 28.796875 15.15625 28.59375 14.75 
C 28.5 14.65625 28.40625 14.5625 27.703125 12.96875 
C 25.59375 7.96875 21 1 15.203125 1 
C 12.203125 1 12 3.484375 12 5.6875 
C 12 5.78125 12 7.671875 12.296875 8.875 
z
" id="CMMI12-116"/>
      <path d="M 44.59375 40.09375 
C 46.59375 40.09375 47.40625 40.09375 47.40625 41.984375 
C 47.40625 43 46.59375 43 44.796875 43 
L 36.703125 43 
C 38.59375 53.09375 40 60.09375 40.796875 63.296875 
C 41.40625 65.6875 43.5 67.984375 46.09375 67.984375 
C 48.203125 67.984375 50.296875 67.09375 51.296875 66.1875 
C 47.40625 65.796875 46.203125 62.890625 46.203125 61.1875 
C 46.203125 59.1875 47.703125 58 49.59375 58 
C 51.59375 58 54.59375 59.6875 54.59375 63.5 
C 54.59375 67.6875 50.40625 70 46 70 
C 41.703125 70 37.5 66.796875 35.5 62.890625 
C 33.703125 59.390625 32.703125 55.828125 30.40625 43 
L 23.703125 43 
C 21.796875 43 20.796875 43 20.796875 41.1875 
C 20.796875 40.09375 21.40625 40.09375 23.40625 40.09375 
L 29.796875 40.09375 
C 28 30.890625 23.90625 8.515625 21.59375 -2.0625 
C 19.90625 -10.703125 18.40625 -18 13.40625 -18 
C 13.09375 -18 10.203125 -18 8.40625 -16.109375 
C 13.5 -15.703125 13.5 -11.3125 13.5 -11.203125 
C 13.5 -9.203125 12 -8 10.09375 -8 
C 8.09375 -8 5.09375 -9.703125 5.09375 -13.515625 
C 5.09375 -17.8125 9.5 -20 13.40625 -20 
C 23.59375 -20 27.796875 -1.765625 28.90625 3.171875 
C 30.703125 10.796875 35.59375 37.125 36.09375 40.09375 
z
" id="CMMI12-102"/>
      <path d="M 23.5 -25 
L 23.5 -21.5 
L 14.09375 -21.5 
L 14.09375 71.484375 
L 23.5 71.484375 
L 23.5 75 
L 10.59375 75 
L 10.59375 -25 
z
" id="CMR17-91"/>
      <path d="M 30.90625 42 
C 30.90625 43.796875 30.796875 43.890625 30.203125 43.890625 
C 29.796875 43.890625 29.703125 43.796875 28.5 42.296875 
C 28.203125 41.890625 27.296875 40.890625 27 40.5 
C 23.796875 43.890625 19.296875 44 17.59375 44 
C 6.5 44 2.5 38.1875 2.5 32.390625 
C 2.5 23.390625 12.703125 21.296875 15.59375 20.6875 
C 21.90625 19.390625 24.09375 19 26.203125 17.1875 
C 27.5 16 29.703125 13.796875 29.703125 10.1875 
C 29.703125 6 27.296875 0.59375 18.09375 0.59375 
C 9.40625 0.59375 6.296875 7.1875 4.5 16 
C 4.203125 17.390625 4.203125 17.5 3.40625 17.5 
C 2.59375 17.5 2.5 17.390625 2.5 15.390625 
L 2.5 1 
C 2.5 -0.8125 2.59375 -0.90625 3.203125 -0.90625 
C 3.703125 -0.90625 3.796875 -0.8125 4.296875 0 
C 4.90625 0.890625 6.40625 3.296875 7 4.296875 
C 9 1.59375 12.5 -1 18.09375 -1 
C 28 -1 33.296875 4.390625 33.296875 12.1875 
C 33.296875 17.296875 30.59375 20 29.296875 21.1875 
C 26.296875 24.296875 22.796875 25 18.59375 25.796875 
C 13.09375 27 6.09375 28.390625 6.09375 34.5 
C 6.09375 37.09375 7.5 42.59375 17.59375 42.59375 
C 28.296875 42.59375 28.90625 32.59375 29.09375 29.390625 
C 29.203125 28.890625 29.703125 28.796875 30 28.796875 
C 30.90625 28.796875 30.90625 29.09375 30.90625 30.796875 
z
" id="CMR17-115"/>
      <path d="M 14.296875 75 
L 1.40625 75 
L 1.40625 71.484375 
L 10.796875 71.484375 
L 10.796875 -21.5 
L 1.40625 -21.5 
L 1.40625 -25 
L 14.296875 -25 
z
" id="CMR17-93"/>
     </defs>
     <g transform="translate(124.207386 203.069605)scale(0.1 -0.1)">
      <use transform="scale(0.996264)" xlink:href="#CMR17-12"/>
      <use transform="translate(49.742223 0)scale(0.996264)" xlink:href="#CMR17-110"/>
      <use transform="translate(100.637593 0)scale(0.996264)" xlink:href="#CMR17-97"/>
      <use transform="translate(146.32807 0)scale(0.996264)" xlink:href="#CMR17-108"/>
      <use transform="translate(201.275095 0)scale(0.996264)" xlink:href="#CMR17-116"/>
      <use transform="translate(236.555863 0)scale(0.996264)" xlink:href="#CMR17-105"/>
      <use transform="translate(261.426921 0)scale(0.996264)" xlink:href="#CMR17-109"/>
      <use transform="translate(338.346511 0)scale(0.996264)" xlink:href="#CMR17-101"/>
      <use transform="translate(408.908138 0)scale(0.996264)" xlink:href="#CMMI12-116"/>
      <use transform="translate(444.134468 -14.943915)scale(0.697382)" xlink:href="#CMMI12-102"/>
      <use transform="translate(515.81259 0)scale(0.996264)" xlink:href="#CMR17-91"/>
      <use transform="translate(540.683648 0)scale(0.996264)" xlink:href="#CMR17-110"/>
      <use transform="translate(591.579018 0)scale(0.996264)" xlink:href="#CMR17-115"/>
      <use transform="translate(627.380356 0)scale(0.996264)" xlink:href="#CMR17-93"/>
     </g>
    </g>
   </g>
   <g id="matplotlib.axis_2">
    <g id="ytick_1">
     <g id="line2d_35">
      <path clip-path="url(#p8b917e99db)" d="M 50.81625 175.741948 
L 269.513046 175.741948 
" style="fill:none;stroke:#dddddd;stroke-linecap:square;stroke-width:0.5;"/>
     </g>
     <g id="line2d_36">
      <defs>
       <path d="M 0 0 
L -3.5 0 
" id="me07f3e6d36" style="stroke:#000000;stroke-width:0.8;"/>
      </defs>
      <g>
       <use style="stroke:#000000;stroke-width:0.8;" x="50.81625" xlink:href="#me07f3e6d36" y="175.741948"/>
      </g>
     </g>
     <g id="text_4">
      <!-- $\mathdefault{10^{-5}}$ -->
      <defs>
       <path d="M 65.90625 23 
C 67.59375 23 69.40625 23 69.40625 25 
C 69.40625 27 67.59375 27 65.90625 27 
L 11.796875 27 
C 10.09375 27 8.296875 27 8.296875 25 
C 8.296875 23 10.09375 23 11.796875 23 
z
" id="CMSY10-0"/>
       <path d="M 11.40625 58.59375 
C 12.40625 58.1875 16.5 56.890625 20.703125 56.890625 
C 30 56.890625 35.09375 61.890625 38 64.6875 
C 38 65.484375 38 66 37.40625 66 
C 37.296875 66 37.09375 66 36.296875 65.59375 
C 32.796875 64.09375 28.703125 63 23.703125 63 
C 20.703125 63 16.203125 63.359375 11.296875 65.484375 
C 10.203125 66 10 66 9.90625 66 
C 9.40625 66 9.296875 65.890625 9.296875 63.90625 
L 9.296875 34.859375 
C 9.296875 33.015625 9.296875 32.5 10.296875 32.5 
C 10.796875 32.5 11 32.703125 11.5 33.421875 
C 14.703125 38.046875 19.09375 40 24.09375 40 
C 27.59375 40 35.09375 37.734375 35.09375 20.203125 
C 35.09375 16.984375 35.09375 11.1875 32.09375 6.59375 
C 29.59375 2.484375 25.703125 0.390625 21.40625 0.390625 
C 14.796875 0.390625 8.09375 4.984375 6.296875 12.6875 
C 6.703125 12.59375 7.5 12.390625 7.90625 12.390625 
C 9.203125 12.390625 11.703125 13.09375 11.703125 16.1875 
C 11.703125 18.890625 9.796875 20 7.90625 20 
C 5.59375 20 4.09375 18.59375 4.09375 15.796875 
C 4.09375 7.09375 11 -2 21.59375 -2 
C 31.90625 -2 41.703125 6.890625 41.703125 19.796875 
C 41.703125 32.09375 33.90625 41.59375 24.203125 41.59375 
C 19.09375 41.59375 14.796875 39.6875 11.40625 36 
z
" id="CMR17-53"/>
      </defs>
      <g transform="translate(23.655677 179.201197)scale(0.1 -0.1)">
       <use transform="scale(0.996264)" xlink:href="#CMR17-49"/>
       <use transform="translate(45.690477 0)scale(0.996264)" xlink:href="#CMR17-48"/>
       <use transform="translate(91.380954 36.153639)scale(0.697382)" xlink:href="#CMSY10-0"/>
       <use transform="translate(145.621947 36.153639)scale(0.697382)" xlink:href="#CMR17-53"/>
      </g>
     </g>
    </g>
    <g id="ytick_2">
     <g id="line2d_37">
      <path clip-path="url(#p8b917e99db)" d="M 50.81625 135.371273 
L 269.513046 135.371273 
" style="fill:none;stroke:#dddddd;stroke-linecap:square;stroke-width:0.5;"/>
     </g>
     <g id="line2d_38">
      <g>
       <use style="stroke:#000000;stroke-width:0.8;" x="50.81625" xlink:href="#me07f3e6d36" y="135.371273"/>
      </g>
     </g>
     <g id="text_5">
      <!-- $\mathdefault{10^{-4}}$ -->
      <defs>
       <path d="M 33.59375 64.796875 
C 33.59375 66.890625 33.5 67 31.703125 67 
L 2 19.59375 
L 2 17 
L 27.796875 17 
L 27.796875 7.1875 
C 27.796875 3.59375 27.59375 2.59375 20.59375 2.59375 
L 18.703125 2.59375 
L 18.703125 0 
C 21.90625 0.1875 27.296875 0.1875 30.703125 0.1875 
C 34.09375 0.1875 39.5 0.1875 42.703125 0 
L 42.703125 2.59375 
L 40.796875 2.59375 
C 33.796875 2.59375 33.59375 3.59375 33.59375 7.1875 
L 33.59375 17 
L 43.796875 17 
L 43.796875 19.59375 
L 33.59375 19.59375 
z
M 28.09375 58.171875 
L 28.09375 19.59375 
L 4 19.59375 
z
" id="CMR17-52"/>
      </defs>
      <g transform="translate(23.655677 138.830523)scale(0.1 -0.1)">
       <use transform="scale(0.996264)" xlink:href="#CMR17-49"/>
       <use transform="translate(45.690477 0)scale(0.996264)" xlink:href="#CMR17-48"/>
       <use transform="translate(91.380954 36.153639)scale(0.697382)" xlink:href="#CMSY10-0"/>
       <use transform="translate(145.621947 36.153639)scale(0.697382)" xlink:href="#CMR17-52"/>
      </g>
     </g>
    </g>
    <g id="ytick_3">
     <g id="line2d_39">
      <path clip-path="url(#p8b917e99db)" d="M 50.81625 95.000599 
L 269.513046 95.000599 
" style="fill:none;stroke:#dddddd;stroke-linecap:square;stroke-width:0.5;"/>
     </g>
     <g id="line2d_40">
      <g>
       <use style="stroke:#000000;stroke-width:0.8;" x="50.81625" xlink:href="#me07f3e6d36" y="95.000599"/>
      </g>
     </g>
     <g id="text_6">
      <!-- $\mathdefault{10^{-3}}$ -->
      <defs>
       <path d="M 22.09375 34 
C 31 34 34.90625 26.140625 34.90625 17.09375 
C 34.90625 5.03125 28.5 0.390625 22.703125 0.390625 
C 17.40625 0.390625 8.796875 3.015625 6.09375 10.796875 
C 6.59375 10.59375 7.09375 10.59375 7.59375 10.59375 
C 10 10.59375 11.796875 12.1875 11.796875 14.796875 
C 11.796875 17.6875 9.59375 19 7.59375 19 
C 5.90625 19 3.296875 18.1875 3.296875 14.484375 
C 3.296875 5.234375 12.296875 -2 22.90625 -2 
C 34 -2 42.5 6.75 42.5 16.984375 
C 42.5 26.84375 34.5 34 25 35.09375 
C 32.59375 36.671875 39.90625 43.375 39.90625 52.390625 
C 39.90625 60.25 32 66 23 66 
C 13.90625 66 5.90625 60.34375 5.90625 52.296875 
C 5.90625 48.796875 8.5 48.1875 9.796875 48.1875 
C 11.90625 48.1875 13.703125 49.484375 13.703125 52.09375 
C 13.703125 54.6875 11.90625 56 9.796875 56 
C 9.40625 56 8.90625 56 8.5 55.796875 
C 11.40625 62.484375 19.296875 63.6875 22.796875 63.6875 
C 26.296875 63.6875 32.90625 61.96875 32.90625 52.296875 
C 32.90625 49.484375 32.5 44.546875 29.09375 40.21875 
C 26.09375 36.390625 22.703125 36.1875 19.40625 35.890625 
C 18.90625 35.890625 16.59375 35.6875 16.203125 35.6875 
C 15.5 35.59375 15.09375 35.5 15.09375 34.796875 
C 15.09375 34.09375 15.203125 34 17.203125 34 
z
" id="CMR17-51"/>
      </defs>
      <g transform="translate(23.655677 98.459848)scale(0.1 -0.1)">
       <use transform="scale(0.996264)" xlink:href="#CMR17-49"/>
       <use transform="translate(45.690477 0)scale(0.996264)" xlink:href="#CMR17-48"/>
       <use transform="translate(91.380954 36.153639)scale(0.697382)" xlink:href="#CMSY10-0"/>
       <use transform="translate(145.621947 36.153639)scale(0.697382)" xlink:href="#CMR17-51"/>
      </g>
     </g>
    </g>
    <g id="ytick_4">
     <g id="line2d_41">
      <path clip-path="url(#p8b917e99db)" d="M 50.81625 54.629924 
L 269.513046 54.629924 
" style="fill:none;stroke:#dddddd;stroke-linecap:square;stroke-width:0.5;"/>
     </g>
     <g id="line2d_42">
      <g>
       <use style="stroke:#000000;stroke-width:0.8;" x="50.81625" xlink:href="#me07f3e6d36" y="54.629924"/>
      </g>
     </g>
     <g id="text_7">
      <!-- $\mathdefault{10^{-2}}$ -->
      <g transform="translate(23.655677 58.089173)scale(0.1 -0.1)">
       <use transform="scale(0.996264)" xlink:href="#CMR17-49"/>
       <use transform="translate(45.690477 0)scale(0.996264)" xlink:href="#CMR17-48"/>
       <use transform="translate(91.380954 36.153639)scale(0.697382)" xlink:href="#CMSY10-0"/>
       <use transform="translate(145.621947 36.153639)scale(0.697382)" xlink:href="#CMR17-50"/>
      </g>
     </g>
    </g>
    <g id="ytick_5">
     <g id="line2d_43">
      <path clip-path="url(#p8b917e99db)" d="M 50.81625 14.259249 
L 269.513046 14.259249 
" style="fill:none;stroke:#dddddd;stroke-linecap:square;stroke-width:0.5;"/>
     </g>
     <g id="line2d_44">
      <g>
       <use style="stroke:#000000;stroke-width:0.8;" x="50.81625" xlink:href="#me07f3e6d36" y="14.259249"/>
      </g>
     </g>
     <g id="text_8">
      <!-- $\mathdefault{10^{-1}}$ -->
      <g transform="translate(23.655677 17.718498)scale(0.1 -0.1)">
       <use transform="scale(0.996264)" xlink:href="#CMR17-49"/>
       <use transform="translate(45.690477 0)scale(0.996264)" xlink:href="#CMR17-48"/>
       <use transform="translate(91.380954 36.153639)scale(0.697382)" xlink:href="#CMSY10-0"/>
       <use transform="translate(145.621947 36.153639)scale(0.697382)" xlink:href="#CMR17-49"/>
      </g>
     </g>
    </g>
    <g id="ytick_6">
     <g id="line2d_45">
      <path clip-path="url(#p8b917e99db)" d="M 50.81625 163.589164 
L 269.513046 163.589164 
" style="fill:none;stroke:#dddddd;stroke-linecap:square;stroke-width:0.5;"/>
     </g>
     <g id="line2d_46">
      <defs>
       <path d="M 0 0 
L -2 0 
" id="m2268dd93dd" style="stroke:#000000;stroke-width:0.6;"/>
      </defs>
      <g>
       <use style="stroke:#000000;stroke-width:0.6;" x="50.81625" xlink:href="#m2268dd93dd" y="163.589164"/>
      </g>
     </g>
    </g>
    <g id="ytick_7">
     <g id="line2d_47">
      <path clip-path="url(#p8b917e99db)" d="M 50.81625 156.480241 
L 269.513046 156.480241 
" style="fill:none;stroke:#dddddd;stroke-linecap:square;stroke-width:0.5;"/>
     </g>
     <g id="line2d_48">
      <g>
       <use style="stroke:#000000;stroke-width:0.6;" x="50.81625" xlink:href="#m2268dd93dd" y="156.480241"/>
      </g>
     </g>
    </g>
    <g id="ytick_8">
     <g id="line2d_49">
      <path clip-path="url(#p8b917e99db)" d="M 50.81625 151.43638 
L 269.513046 151.43638 
" style="fill:none;stroke:#dddddd;stroke-linecap:square;stroke-width:0.5;"/>
     </g>
     <g id="line2d_50">
      <g>
       <use style="stroke:#000000;stroke-width:0.6;" x="50.81625" xlink:href="#m2268dd93dd" y="151.43638"/>
      </g>
     </g>
    </g>
    <g id="ytick_9">
     <g id="line2d_51">
      <path clip-path="url(#p8b917e99db)" d="M 50.81625 147.524058 
L 269.513046 147.524058 
" style="fill:none;stroke:#dddddd;stroke-linecap:square;stroke-width:0.5;"/>
     </g>
     <g id="line2d_52">
      <g>
       <use style="stroke:#000000;stroke-width:0.6;" x="50.81625" xlink:href="#m2268dd93dd" y="147.524058"/>
      </g>
     </g>
    </g>
    <g id="ytick_10">
     <g id="line2d_53">
      <path clip-path="url(#p8b917e99db)" d="M 50.81625 144.327457 
L 269.513046 144.327457 
" style="fill:none;stroke:#dddddd;stroke-linecap:square;stroke-width:0.5;"/>
     </g>
     <g id="line2d_54">
      <g>
       <use style="stroke:#000000;stroke-width:0.6;" x="50.81625" xlink:href="#m2268dd93dd" y="144.327457"/>
      </g>
     </g>
    </g>
    <g id="ytick_11">
     <g id="line2d_55">
      <path clip-path="url(#p8b917e99db)" d="M 50.81625 141.62477 
L 269.513046 141.62477 
" style="fill:none;stroke:#dddddd;stroke-linecap:square;stroke-width:0.5;"/>
     </g>
     <g id="line2d_56">
      <g>
       <use style="stroke:#000000;stroke-width:0.6;" x="50.81625" xlink:href="#m2268dd93dd" y="141.62477"/>
      </g>
     </g>
    </g>
    <g id="ytick_12">
     <g id="line2d_57">
      <path clip-path="url(#p8b917e99db)" d="M 50.81625 139.283596 
L 269.513046 139.283596 
" style="fill:none;stroke:#dddddd;stroke-linecap:square;stroke-width:0.5;"/>
     </g>
     <g id="line2d_58">
      <g>
       <use style="stroke:#000000;stroke-width:0.6;" x="50.81625" xlink:href="#m2268dd93dd" y="139.283596"/>
      </g>
     </g>
    </g>
    <g id="ytick_13">
     <g id="line2d_59">
      <path clip-path="url(#p8b917e99db)" d="M 50.81625 137.218534 
L 269.513046 137.218534 
" style="fill:none;stroke:#dddddd;stroke-linecap:square;stroke-width:0.5;"/>
     </g>
     <g id="line2d_60">
      <g>
       <use style="stroke:#000000;stroke-width:0.6;" x="50.81625" xlink:href="#m2268dd93dd" y="137.218534"/>
      </g>
     </g>
    </g>
    <g id="ytick_14">
     <g id="line2d_61">
      <path clip-path="url(#p8b917e99db)" d="M 50.81625 123.218489 
L 269.513046 123.218489 
" style="fill:none;stroke:#dddddd;stroke-linecap:square;stroke-width:0.5;"/>
     </g>
     <g id="line2d_62">
      <g>
       <use style="stroke:#000000;stroke-width:0.6;" x="50.81625" xlink:href="#m2268dd93dd" y="123.218489"/>
      </g>
     </g>
    </g>
    <g id="ytick_15">
     <g id="line2d_63">
      <path clip-path="url(#p8b917e99db)" d="M 50.81625 116.109566 
L 269.513046 116.109566 
" style="fill:none;stroke:#dddddd;stroke-linecap:square;stroke-width:0.5;"/>
     </g>
     <g id="line2d_64">
      <g>
       <use style="stroke:#000000;stroke-width:0.6;" x="50.81625" xlink:href="#m2268dd93dd" y="116.109566"/>
      </g>
     </g>
    </g>
    <g id="ytick_16">
     <g id="line2d_65">
      <path clip-path="url(#p8b917e99db)" d="M 50.81625 111.065705 
L 269.513046 111.065705 
" style="fill:none;stroke:#dddddd;stroke-linecap:square;stroke-width:0.5;"/>
     </g>
     <g id="line2d_66">
      <g>
       <use style="stroke:#000000;stroke-width:0.6;" x="50.81625" xlink:href="#m2268dd93dd" y="111.065705"/>
      </g>
     </g>
    </g>
    <g id="ytick_17">
     <g id="line2d_67">
      <path clip-path="url(#p8b917e99db)" d="M 50.81625 107.153383 
L 269.513046 107.153383 
" style="fill:none;stroke:#dddddd;stroke-linecap:square;stroke-width:0.5;"/>
     </g>
     <g id="line2d_68">
      <g>
       <use style="stroke:#000000;stroke-width:0.6;" x="50.81625" xlink:href="#m2268dd93dd" y="107.153383"/>
      </g>
     </g>
    </g>
    <g id="ytick_18">
     <g id="line2d_69">
      <path clip-path="url(#p8b917e99db)" d="M 50.81625 103.956782 
L 269.513046 103.956782 
" style="fill:none;stroke:#dddddd;stroke-linecap:square;stroke-width:0.5;"/>
     </g>
     <g id="line2d_70">
      <g>
       <use style="stroke:#000000;stroke-width:0.6;" x="50.81625" xlink:href="#m2268dd93dd" y="103.956782"/>
      </g>
     </g>
    </g>
    <g id="ytick_19">
     <g id="line2d_71">
      <path clip-path="url(#p8b917e99db)" d="M 50.81625 101.254095 
L 269.513046 101.254095 
" style="fill:none;stroke:#dddddd;stroke-linecap:square;stroke-width:0.5;"/>
     </g>
     <g id="line2d_72">
      <g>
       <use style="stroke:#000000;stroke-width:0.6;" x="50.81625" xlink:href="#m2268dd93dd" y="101.254095"/>
      </g>
     </g>
    </g>
    <g id="ytick_20">
     <g id="line2d_73">
      <path clip-path="url(#p8b917e99db)" d="M 50.81625 98.912921 
L 269.513046 98.912921 
" style="fill:none;stroke:#dddddd;stroke-linecap:square;stroke-width:0.5;"/>
     </g>
     <g id="line2d_74">
      <g>
       <use style="stroke:#000000;stroke-width:0.6;" x="50.81625" xlink:href="#m2268dd93dd" y="98.912921"/>
      </g>
     </g>
    </g>
    <g id="ytick_21">
     <g id="line2d_75">
      <path clip-path="url(#p8b917e99db)" d="M 50.81625 96.847859 
L 269.513046 96.847859 
" style="fill:none;stroke:#dddddd;stroke-linecap:square;stroke-width:0.5;"/>
     </g>
     <g id="line2d_76">
      <g>
       <use style="stroke:#000000;stroke-width:0.6;" x="50.81625" xlink:href="#m2268dd93dd" y="96.847859"/>
      </g>
     </g>
    </g>
    <g id="ytick_22">
     <g id="line2d_77">
      <path clip-path="url(#p8b917e99db)" d="M 50.81625 82.847815 
L 269.513046 82.847815 
" style="fill:none;stroke:#dddddd;stroke-linecap:square;stroke-width:0.5;"/>
     </g>
     <g id="line2d_78">
      <g>
       <use style="stroke:#000000;stroke-width:0.6;" x="50.81625" xlink:href="#m2268dd93dd" y="82.847815"/>
      </g>
     </g>
    </g>
    <g id="ytick_23">
     <g id="line2d_79">
      <path clip-path="url(#p8b917e99db)" d="M 50.81625 75.738892 
L 269.513046 75.738892 
" style="fill:none;stroke:#dddddd;stroke-linecap:square;stroke-width:0.5;"/>
     </g>
     <g id="line2d_80">
      <g>
       <use style="stroke:#000000;stroke-width:0.6;" x="50.81625" xlink:href="#m2268dd93dd" y="75.738892"/>
      </g>
     </g>
    </g>
    <g id="ytick_24">
     <g id="line2d_81">
      <path clip-path="url(#p8b917e99db)" d="M 50.81625 70.695031 
L 269.513046 70.695031 
" style="fill:none;stroke:#dddddd;stroke-linecap:square;stroke-width:0.5;"/>
     </g>
     <g id="line2d_82">
      <g>
       <use style="stroke:#000000;stroke-width:0.6;" x="50.81625" xlink:href="#m2268dd93dd" y="70.695031"/>
      </g>
     </g>
    </g>
    <g id="ytick_25">
     <g id="line2d_83">
      <path clip-path="url(#p8b917e99db)" d="M 50.81625 66.782708 
L 269.513046 66.782708 
" style="fill:none;stroke:#dddddd;stroke-linecap:square;stroke-width:0.5;"/>
     </g>
     <g id="line2d_84">
      <g>
       <use style="stroke:#000000;stroke-width:0.6;" x="50.81625" xlink:href="#m2268dd93dd" y="66.782708"/>
      </g>
     </g>
    </g>
    <g id="ytick_26">
     <g id="line2d_85">
      <path clip-path="url(#p8b917e99db)" d="M 50.81625 63.586108 
L 269.513046 63.586108 
" style="fill:none;stroke:#dddddd;stroke-linecap:square;stroke-width:0.5;"/>
     </g>
     <g id="line2d_86">
      <g>
       <use style="stroke:#000000;stroke-width:0.6;" x="50.81625" xlink:href="#m2268dd93dd" y="63.586108"/>
      </g>
     </g>
    </g>
    <g id="ytick_27">
     <g id="line2d_87">
      <path clip-path="url(#p8b917e99db)" d="M 50.81625 60.883421 
L 269.513046 60.883421 
" style="fill:none;stroke:#dddddd;stroke-linecap:square;stroke-width:0.5;"/>
     </g>
     <g id="line2d_88">
      <g>
       <use style="stroke:#000000;stroke-width:0.6;" x="50.81625" xlink:href="#m2268dd93dd" y="60.883421"/>
      </g>
     </g>
    </g>
    <g id="ytick_28">
     <g id="line2d_89">
      <path clip-path="url(#p8b917e99db)" d="M 50.81625 58.542247 
L 269.513046 58.542247 
" style="fill:none;stroke:#dddddd;stroke-linecap:square;stroke-width:0.5;"/>
     </g>
     <g id="line2d_90">
      <g>
       <use style="stroke:#000000;stroke-width:0.6;" x="50.81625" xlink:href="#m2268dd93dd" y="58.542247"/>
      </g>
     </g>
    </g>
    <g id="ytick_29">
     <g id="line2d_91">
      <path clip-path="url(#p8b917e99db)" d="M 50.81625 56.477185 
L 269.513046 56.477185 
" style="fill:none;stroke:#dddddd;stroke-linecap:square;stroke-width:0.5;"/>
     </g>
     <g id="line2d_92">
      <g>
       <use style="stroke:#000000;stroke-width:0.6;" x="50.81625" xlink:href="#m2268dd93dd" y="56.477185"/>
      </g>
     </g>
    </g>
    <g id="ytick_30">
     <g id="line2d_93">
      <path clip-path="url(#p8b917e99db)" d="M 50.81625 42.47714 
L 269.513046 42.47714 
" style="fill:none;stroke:#dddddd;stroke-linecap:square;stroke-width:0.5;"/>
     </g>
     <g id="line2d_94">
      <g>
       <use style="stroke:#000000;stroke-width:0.6;" x="50.81625" xlink:href="#m2268dd93dd" y="42.47714"/>
      </g>
     </g>
    </g>
    <g id="ytick_31">
     <g id="line2d_95">
      <path clip-path="url(#p8b917e99db)" d="M 50.81625 35.368217 
L 269.513046 35.368217 
" style="fill:none;stroke:#dddddd;stroke-linecap:square;stroke-width:0.5;"/>
     </g>
     <g id="line2d_96">
      <g>
       <use style="stroke:#000000;stroke-width:0.6;" x="50.81625" xlink:href="#m2268dd93dd" y="35.368217"/>
      </g>
     </g>
    </g>
    <g id="ytick_32">
     <g id="line2d_97">
      <path clip-path="url(#p8b917e99db)" d="M 50.81625 30.324356 
L 269.513046 30.324356 
" style="fill:none;stroke:#dddddd;stroke-linecap:square;stroke-width:0.5;"/>
     </g>
     <g id="line2d_98">
      <g>
       <use style="stroke:#000000;stroke-width:0.6;" x="50.81625" xlink:href="#m2268dd93dd" y="30.324356"/>
      </g>
     </g>
    </g>
    <g id="ytick_33">
     <g id="line2d_99">
      <path clip-path="url(#p8b917e99db)" d="M 50.81625 26.412033 
L 269.513046 26.412033 
" style="fill:none;stroke:#dddddd;stroke-linecap:square;stroke-width:0.5;"/>
     </g>
     <g id="line2d_100">
      <g>
       <use style="stroke:#000000;stroke-width:0.6;" x="50.81625" xlink:href="#m2268dd93dd" y="26.412033"/>
      </g>
     </g>
    </g>
    <g id="ytick_34">
     <g id="line2d_101">
      <path clip-path="url(#p8b917e99db)" d="M 50.81625 23.215433 
L 269.513046 23.215433 
" style="fill:none;stroke:#dddddd;stroke-linecap:square;stroke-width:0.5;"/>
     </g>
     <g id="line2d_102">
      <g>
       <use style="stroke:#000000;stroke-width:0.6;" x="50.81625" xlink:href="#m2268dd93dd" y="23.215433"/>
      </g>
     </g>
    </g>
    <g id="ytick_35">
     <g id="line2d_103">
      <path clip-path="url(#p8b917e99db)" d="M 50.81625 20.512746 
L 269.513046 20.512746 
" style="fill:none;stroke:#dddddd;stroke-linecap:square;stroke-width:0.5;"/>
     </g>
     <g id="line2d_104">
      <g>
       <use style="stroke:#000000;stroke-width:0.6;" x="50.81625" xlink:href="#m2268dd93dd" y="20.512746"/>
      </g>
     </g>
    </g>
    <g id="ytick_36">
     <g id="line2d_105">
      <path clip-path="url(#p8b917e99db)" d="M 50.81625 18.171572 
L 269.513046 18.171572 
" style="fill:none;stroke:#dddddd;stroke-linecap:square;stroke-width:0.5;"/>
     </g>
     <g id="line2d_106">
      <g>
       <use style="stroke:#000000;stroke-width:0.6;" x="50.81625" xlink:href="#m2268dd93dd" y="18.171572"/>
      </g>
     </g>
    </g>
    <g id="ytick_37">
     <g id="line2d_107">
      <path clip-path="url(#p8b917e99db)" d="M 50.81625 16.10651 
L 269.513046 16.10651 
" style="fill:none;stroke:#dddddd;stroke-linecap:square;stroke-width:0.5;"/>
     </g>
     <g id="line2d_108">
      <g>
       <use style="stroke:#000000;stroke-width:0.6;" x="50.81625" xlink:href="#m2268dd93dd" y="16.10651"/>
      </g>
     </g>
    </g>
    <g id="text_9">
     <!-- error $\epsilon$ -->
     <defs>
      <path d="M 15 23.703125 
C 15 33.34375 19.09375 42.390625 26.59375 42.390625 
C 27.296875 42.390625 28 42.296875 28.703125 41.984375 
C 28.703125 41.984375 26.5 41.28125 26.5 38.671875 
C 26.5 36.265625 28.40625 35.265625 29.90625 35.265625 
C 31.09375 35.265625 33.296875 35.96875 33.296875 38.78125 
C 33.296875 41.984375 30.09375 44 26.703125 44 
C 19.09375 44 15.796875 36.5625 14.796875 33.046875 
L 14.703125 33.046875 
L 14.703125 44 
L 3.09375 42.890625 
L 3.09375 40.28125 
C 9 40.28125 9.90625 39.6875 9.90625 34.859375 
L 9.90625 6.921875 
C 9.90625 3.09375 9.5 2.59375 3.09375 2.59375 
L 3.09375 0 
C 5.5 0.1875 10.09375 0.1875 12.703125 0.1875 
C 15.59375 0.1875 20.703125 0.1875 23.40625 0 
L 23.40625 2.59375 
C 16.203125 2.59375 15 2.59375 15 7.109375 
z
" id="CMR17-114"/>
      <path d="M 43.09375 21.1875 
C 43.09375 34 33.796875 44 22.90625 44 
C 12 44 2.703125 34 2.703125 21.1875 
C 2.703125 8.59375 12 -1 22.90625 -1 
C 33.796875 -1 43.09375 8.59375 43.09375 21.1875 
z
M 22.90625 0.796875 
C 18.203125 0.796875 14.203125 3.59375 11.90625 7.5 
C 9.40625 12 9.09375 17.59375 9.09375 22 
C 9.09375 26.1875 9.296875 31.390625 11.90625 35.890625 
C 13.90625 39.1875 17.796875 42.390625 22.90625 42.390625 
C 27.40625 42.390625 31.203125 39.890625 33.59375 36.390625 
C 36.703125 31.6875 36.703125 25.09375 36.703125 22 
C 36.703125 18.09375 36.5 12.09375 33.796875 7.296875 
C 31 2.6875 26.703125 0.796875 22.90625 0.796875 
z
" id="CMR17-111"/>
      <path d="M 29.09375 23 
C 30.59375 23 32.296875 23 32.296875 24.59375 
C 32.296875 25.890625 31.296875 25.890625 29.5 25.890625 
L 13.296875 25.890625 
C 15.796875 34.75 21.703125 40.09375 30.59375 40.09375 
L 33.5 40.09375 
C 35.203125 40.09375 36.703125 40.09375 36.703125 41.6875 
C 36.703125 43 35.59375 43 33.796875 43 
L 30.40625 43 
C 18.09375 43 4.59375 33.375 4.59375 17.828125 
C 4.59375 6.5625 12.09375 -1 22 -1 
C 28.40625 -1 34.703125 3.015625 34.703125 4.03125 
C 34.703125 4.640625 34.40625 5.25 33.796875 5.25 
C 33.5 5.25 33.296875 5.15625 32.796875 4.75 
C 29 2.203125 25.296875 1 22.296875 1 
C 17 1 11.40625 4.546875 11.40625 14.375 
C 11.40625 16.296875 11.59375 18.9375 12.5 23 
z
" id="CMMI12-15"/>
     </defs>
     <g transform="translate(17.718498 109.240618)rotate(-90)scale(0.1 -0.1)">
      <use transform="scale(0.996264)" xlink:href="#CMR17-101"/>
      <use transform="translate(40.48566 0)scale(0.996264)" xlink:href="#CMR17-114"/>
      <use transform="translate(75.766428 0)scale(0.996264)" xlink:href="#CMR17-114"/>
      <use transform="translate(111.047196 0)scale(0.996264)" xlink:href="#CMR17-111"/>
      <use transform="translate(156.737673 0)scale(0.996264)" xlink:href="#CMR17-114"/>
      <use transform="translate(222.094407 0)scale(0.996264)" xlink:href="#CMMI12-15"/>
     </g>
    </g>
   </g>
   <g id="line2d_109">
    <path clip-path="url(#p8b917e99db)" d="M 54.101809 19.114851 
L 56.255922 19.200605 
L 58.410034 19.315674 
L 60.564146 19.388282 
L 62.718259 19.525682 
L 64.872371 19.647389 
L 67.026484 19.811804 
L 69.180596 19.891751 
L 71.334708 20.112855 
L 73.488821 20.261161 
L 75.642933 20.438655 
L 77.797045 20.635489 
L 79.951158 20.84643 
L 82.10527 21.070628 
L 84.259382 21.299042 
L 86.413495 21.570618 
L 88.567607 21.833127 
L 90.72172 22.110187 
L 92.875832 22.409436 
L 95.029944 22.755777 
L 97.184057 23.130357 
L 99.338169 23.512639 
L 101.492281 23.917422 
L 103.646394 24.362019 
L 105.800506 24.89131 
L 107.954618 25.338077 
L 110.108731 25.915136 
L 112.262843 26.507994 
L 114.416956 27.126021 
L 116.571068 27.852289 
L 118.72518 28.532518 
L 120.879293 29.340477 
L 123.033405 30.149384 
L 125.187517 31.114304 
L 127.34163 31.999622 
L 129.495742 33.042643 
L 131.649854 34.274554 
L 133.803967 35.381521 
L 135.958079 36.558623 
L 138.112192 38.091425 
L 140.266304 39.477996 
L 142.420416 41.055273 
L 144.574529 42.577807 
L 146.728641 44.426254 
L 148.882753 46.205767 
L 151.036866 48.119056 
L 153.190978 50.26561 
L 155.345091 52.306228 
L 157.499203 54.940224 
L 159.653315 56.966842 
L 161.807428 59.936042 
L 163.96154 62.170625 
L 166.115652 64.805258 
L 168.269765 67.488132 
L 170.423877 70.256814 
L 172.577989 72.386618 
L 174.732102 74.113503 
L 176.886214 77.244946 
L 179.040327 77.21199 
L 181.194439 79.630477 
L 183.348551 78.468745 
L 185.502664 81.068513 
L 187.656776 82.3797 
L 189.810888 84.040368 
L 191.965001 87.33733 
L 194.119113 88.549446 
L 196.273225 86.079721 
L 198.427338 93.62999 
L 200.58145 87.4132 
L 202.735563 89.795968 
L 204.889675 97.582809 
L 207.043787 92.934629 
L 209.1979 98.707527 
L 211.352012 96.674794 
L 213.506124 100.405486 
L 215.660237 102.079606 
L 217.814349 87.465879 
L 219.968462 84.47588 
L 222.122574 83.79163 
L 224.276686 90.220722 
L 226.430799 79.726345 
L 228.584911 75.916895 
L 230.739023 79.874009 
L 232.893136 85.906083 
L 235.047248 73.734233 
L 237.20136 79.008481 
L 239.355473 74.459018 
L 241.509585 81.156767 
L 243.663698 77.554066 
L 245.81781 71.242224 
L 247.971922 74.405593 
L 250.126035 62.64611 
L 252.280147 60.976628 
L 254.434259 62.632131 
L 256.588372 56.522879 
L 258.742484 54.493782 
L 260.896596 61.220667 
L 263.050709 69.543592 
L 265.204821 58.690284 
L 267.358934 48.528353 
L 269.513046 48.421968 
" style="fill:none;stroke:#55aaff;stroke-linecap:square;stroke-width:1.5;"/>
   </g>
   <g id="line2d_110">
    <path clip-path="url(#p8b917e99db)" d="M 54.101809 19.841741 
L 56.255922 19.985 
L 58.410034 20.15222 
L 60.564146 20.33547 
L 62.718259 20.526302 
L 64.872371 20.712222 
L 67.026484 20.952245 
L 69.180596 21.171238 
L 71.334708 21.422258 
L 73.488821 21.697885 
L 75.642933 21.988939 
L 77.797045 22.283733 
L 79.951158 22.666616 
L 82.10527 22.995952 
L 84.259382 23.406577 
L 86.413495 23.824158 
L 88.567607 24.289852 
L 90.72172 24.765578 
L 92.875832 25.297898 
L 95.029944 25.867099 
L 97.184057 26.530811 
L 99.338169 27.167624 
L 101.492281 27.895847 
L 103.646394 28.643107 
L 105.800506 29.557851 
L 107.954618 30.47619 
L 110.108731 31.511689 
L 112.262843 32.625353 
L 114.416956 33.769703 
L 116.571068 35.084358 
L 118.72518 36.561044 
L 120.879293 37.996209 
L 123.033405 39.7488 
L 125.187517 41.610406 
L 127.34163 43.723275 
L 129.495742 46.018732 
L 131.649854 48.5826 
L 133.803967 51.39596 
L 135.958079 54.747181 
L 138.112192 58.091004 
L 140.266304 62.252791 
L 142.420416 67.126059 
L 144.574529 72.822487 
L 146.728641 79.164748 
L 148.882753 86.148772 
L 151.036866 97.151256 
L 153.190978 110.334814 
L 155.345091 127.21742 
L 157.499203 140.381603 
L 159.653315 124.791743 
L 161.807428 110.885234 
L 163.96154 98.418627 
L 166.115652 93.952139 
L 168.269765 87.004898 
L 170.423877 83.478648 
L 172.577989 82.081512 
L 174.732102 79.800851 
L 176.886214 79.98946 
L 179.040327 80.062656 
L 181.194439 82.725014 
L 183.348551 86.186736 
L 185.502664 88.404852 
L 187.656776 91.401472 
L 189.810888 95.281688 
L 191.965001 99.417538 
L 194.119113 105.125065 
L 196.273225 108.629201 
L 198.427338 94.986258 
L 200.58145 97.013644 
L 202.735563 89.87702 
L 204.889675 91.403966 
L 207.043787 88.512655 
L 209.1979 86.564144 
L 211.352012 86.382264 
L 213.506124 93.577395 
L 215.660237 84.392187 
L 217.814349 88.957198 
L 219.968462 86.526972 
L 222.122574 89.541343 
L 224.276686 86.98301 
L 226.430799 74.693228 
L 228.584911 76.88004 
L 230.739023 84.048681 
L 232.893136 69.113525 
L 235.047248 74.283475 
L 237.20136 77.352555 
L 239.355473 61.707396 
L 241.509585 69.908851 
L 243.663698 68.65439 
L 245.81781 66.134982 
L 247.971922 58.388568 
L 250.126035 53.191587 
L 252.280147 51.365266 
L 254.434259 48.597016 
L 256.588372 45.887181 
L 258.742484 45.997401 
L 260.896596 46.035068 
L 263.050709 59.92138 
L 265.204821 53.464172 
L 267.358934 37.318891 
L 269.513046 35.387194 
" style="fill:none;stroke:#dd5500;stroke-linecap:square;stroke-width:1.5;"/>
    <defs>
     <path d="M 0 1.5 
C 0.397805 1.5 0.77937 1.341951 1.06066 1.06066 
C 1.341951 0.77937 1.5 0.397805 1.5 0 
C 1.5 -0.397805 1.341951 -0.77937 1.06066 -1.06066 
C 0.77937 -1.341951 0.397805 -1.5 0 -1.5 
C -0.397805 -1.5 -0.77937 -1.341951 -1.06066 -1.06066 
C -1.341951 -0.77937 -1.5 -0.397805 -1.5 0 
C -1.5 0.397805 -1.341951 0.77937 -1.06066 1.06066 
C -0.77937 1.341951 -0.397805 1.5 0 1.5 
z
" id="m71dc391eeb" style="stroke:#dd5500;"/>
    </defs>
    <g clip-path="url(#p8b917e99db)">
     <use style="fill:#dd5500;stroke:#dd5500;" x="54.101809" xlink:href="#m71dc391eeb" y="19.841741"/>
     <use style="fill:#dd5500;stroke:#dd5500;" x="56.255922" xlink:href="#m71dc391eeb" y="19.985"/>
     <use style="fill:#dd5500;stroke:#dd5500;" x="58.410034" xlink:href="#m71dc391eeb" y="20.15222"/>
     <use style="fill:#dd5500;stroke:#dd5500;" x="60.564146" xlink:href="#m71dc391eeb" y="20.33547"/>
     <use style="fill:#dd5500;stroke:#dd5500;" x="62.718259" xlink:href="#m71dc391eeb" y="20.526302"/>
     <use style="fill:#dd5500;stroke:#dd5500;" x="64.872371" xlink:href="#m71dc391eeb" y="20.712222"/>
     <use style="fill:#dd5500;stroke:#dd5500;" x="67.026484" xlink:href="#m71dc391eeb" y="20.952245"/>
     <use style="fill:#dd5500;stroke:#dd5500;" x="69.180596" xlink:href="#m71dc391eeb" y="21.171238"/>
     <use style="fill:#dd5500;stroke:#dd5500;" x="71.334708" xlink:href="#m71dc391eeb" y="21.422258"/>
     <use style="fill:#dd5500;stroke:#dd5500;" x="73.488821" xlink:href="#m71dc391eeb" y="21.697885"/>
     <use style="fill:#dd5500;stroke:#dd5500;" x="75.642933" xlink:href="#m71dc391eeb" y="21.988939"/>
     <use style="fill:#dd5500;stroke:#dd5500;" x="77.797045" xlink:href="#m71dc391eeb" y="22.283733"/>
     <use style="fill:#dd5500;stroke:#dd5500;" x="79.951158" xlink:href="#m71dc391eeb" y="22.666616"/>
     <use style="fill:#dd5500;stroke:#dd5500;" x="82.10527" xlink:href="#m71dc391eeb" y="22.995952"/>
     <use style="fill:#dd5500;stroke:#dd5500;" x="84.259382" xlink:href="#m71dc391eeb" y="23.406577"/>
     <use style="fill:#dd5500;stroke:#dd5500;" x="86.413495" xlink:href="#m71dc391eeb" y="23.824158"/>
     <use style="fill:#dd5500;stroke:#dd5500;" x="88.567607" xlink:href="#m71dc391eeb" y="24.289852"/>
     <use style="fill:#dd5500;stroke:#dd5500;" x="90.72172" xlink:href="#m71dc391eeb" y="24.765578"/>
     <use style="fill:#dd5500;stroke:#dd5500;" x="92.875832" xlink:href="#m71dc391eeb" y="25.297898"/>
     <use style="fill:#dd5500;stroke:#dd5500;" x="95.029944" xlink:href="#m71dc391eeb" y="25.867099"/>
     <use style="fill:#dd5500;stroke:#dd5500;" x="97.184057" xlink:href="#m71dc391eeb" y="26.530811"/>
     <use style="fill:#dd5500;stroke:#dd5500;" x="99.338169" xlink:href="#m71dc391eeb" y="27.167624"/>
     <use style="fill:#dd5500;stroke:#dd5500;" x="101.492281" xlink:href="#m71dc391eeb" y="27.895847"/>
     <use style="fill:#dd5500;stroke:#dd5500;" x="103.646394" xlink:href="#m71dc391eeb" y="28.643107"/>
     <use style="fill:#dd5500;stroke:#dd5500;" x="105.800506" xlink:href="#m71dc391eeb" y="29.557851"/>
     <use style="fill:#dd5500;stroke:#dd5500;" x="107.954618" xlink:href="#m71dc391eeb" y="30.47619"/>
     <use style="fill:#dd5500;stroke:#dd5500;" x="110.108731" xlink:href="#m71dc391eeb" y="31.511689"/>
     <use style="fill:#dd5500;stroke:#dd5500;" x="112.262843" xlink:href="#m71dc391eeb" y="32.625353"/>
     <use style="fill:#dd5500;stroke:#dd5500;" x="114.416956" xlink:href="#m71dc391eeb" y="33.769703"/>
     <use style="fill:#dd5500;stroke:#dd5500;" x="116.571068" xlink:href="#m71dc391eeb" y="35.084358"/>
     <use style="fill:#dd5500;stroke:#dd5500;" x="118.72518" xlink:href="#m71dc391eeb" y="36.561044"/>
     <use style="fill:#dd5500;stroke:#dd5500;" x="120.879293" xlink:href="#m71dc391eeb" y="37.996209"/>
     <use style="fill:#dd5500;stroke:#dd5500;" x="123.033405" xlink:href="#m71dc391eeb" y="39.7488"/>
     <use style="fill:#dd5500;stroke:#dd5500;" x="125.187517" xlink:href="#m71dc391eeb" y="41.610406"/>
     <use style="fill:#dd5500;stroke:#dd5500;" x="127.34163" xlink:href="#m71dc391eeb" y="43.723275"/>
     <use style="fill:#dd5500;stroke:#dd5500;" x="129.495742" xlink:href="#m71dc391eeb" y="46.018732"/>
     <use style="fill:#dd5500;stroke:#dd5500;" x="131.649854" xlink:href="#m71dc391eeb" y="48.5826"/>
     <use style="fill:#dd5500;stroke:#dd5500;" x="133.803967" xlink:href="#m71dc391eeb" y="51.39596"/>
     <use style="fill:#dd5500;stroke:#dd5500;" x="135.958079" xlink:href="#m71dc391eeb" y="54.747181"/>
     <use style="fill:#dd5500;stroke:#dd5500;" x="138.112192" xlink:href="#m71dc391eeb" y="58.091004"/>
     <use style="fill:#dd5500;stroke:#dd5500;" x="140.266304" xlink:href="#m71dc391eeb" y="62.252791"/>
     <use style="fill:#dd5500;stroke:#dd5500;" x="142.420416" xlink:href="#m71dc391eeb" y="67.126059"/>
     <use style="fill:#dd5500;stroke:#dd5500;" x="144.574529" xlink:href="#m71dc391eeb" y="72.822487"/>
     <use style="fill:#dd5500;stroke:#dd5500;" x="146.728641" xlink:href="#m71dc391eeb" y="79.164748"/>
     <use style="fill:#dd5500;stroke:#dd5500;" x="148.882753" xlink:href="#m71dc391eeb" y="86.148772"/>
     <use style="fill:#dd5500;stroke:#dd5500;" x="151.036866" xlink:href="#m71dc391eeb" y="97.151256"/>
     <use style="fill:#dd5500;stroke:#dd5500;" x="153.190978" xlink:href="#m71dc391eeb" y="110.334814"/>
     <use style="fill:#dd5500;stroke:#dd5500;" x="155.345091" xlink:href="#m71dc391eeb" y="127.21742"/>
     <use style="fill:#dd5500;stroke:#dd5500;" x="157.499203" xlink:href="#m71dc391eeb" y="140.381603"/>
     <use style="fill:#dd5500;stroke:#dd5500;" x="159.653315" xlink:href="#m71dc391eeb" y="124.791743"/>
     <use style="fill:#dd5500;stroke:#dd5500;" x="161.807428" xlink:href="#m71dc391eeb" y="110.885234"/>
     <use style="fill:#dd5500;stroke:#dd5500;" x="163.96154" xlink:href="#m71dc391eeb" y="98.418627"/>
     <use style="fill:#dd5500;stroke:#dd5500;" x="166.115652" xlink:href="#m71dc391eeb" y="93.952139"/>
     <use style="fill:#dd5500;stroke:#dd5500;" x="168.269765" xlink:href="#m71dc391eeb" y="87.004898"/>
     <use style="fill:#dd5500;stroke:#dd5500;" x="170.423877" xlink:href="#m71dc391eeb" y="83.478648"/>
     <use style="fill:#dd5500;stroke:#dd5500;" x="172.577989" xlink:href="#m71dc391eeb" y="82.081512"/>
     <use style="fill:#dd5500;stroke:#dd5500;" x="174.732102" xlink:href="#m71dc391eeb" y="79.800851"/>
     <use style="fill:#dd5500;stroke:#dd5500;" x="176.886214" xlink:href="#m71dc391eeb" y="79.98946"/>
     <use style="fill:#dd5500;stroke:#dd5500;" x="179.040327" xlink:href="#m71dc391eeb" y="80.062656"/>
     <use style="fill:#dd5500;stroke:#dd5500;" x="181.194439" xlink:href="#m71dc391eeb" y="82.725014"/>
     <use style="fill:#dd5500;stroke:#dd5500;" x="183.348551" xlink:href="#m71dc391eeb" y="86.186736"/>
     <use style="fill:#dd5500;stroke:#dd5500;" x="185.502664" xlink:href="#m71dc391eeb" y="88.404852"/>
     <use style="fill:#dd5500;stroke:#dd5500;" x="187.656776" xlink:href="#m71dc391eeb" y="91.401472"/>
     <use style="fill:#dd5500;stroke:#dd5500;" x="189.810888" xlink:href="#m71dc391eeb" y="95.281688"/>
     <use style="fill:#dd5500;stroke:#dd5500;" x="191.965001" xlink:href="#m71dc391eeb" y="99.417538"/>
     <use style="fill:#dd5500;stroke:#dd5500;" x="194.119113" xlink:href="#m71dc391eeb" y="105.125065"/>
     <use style="fill:#dd5500;stroke:#dd5500;" x="196.273225" xlink:href="#m71dc391eeb" y="108.629201"/>
     <use style="fill:#dd5500;stroke:#dd5500;" x="198.427338" xlink:href="#m71dc391eeb" y="94.986258"/>
     <use style="fill:#dd5500;stroke:#dd5500;" x="200.58145" xlink:href="#m71dc391eeb" y="97.013644"/>
     <use style="fill:#dd5500;stroke:#dd5500;" x="202.735563" xlink:href="#m71dc391eeb" y="89.87702"/>
     <use style="fill:#dd5500;stroke:#dd5500;" x="204.889675" xlink:href="#m71dc391eeb" y="91.403966"/>
     <use style="fill:#dd5500;stroke:#dd5500;" x="207.043787" xlink:href="#m71dc391eeb" y="88.512655"/>
     <use style="fill:#dd5500;stroke:#dd5500;" x="209.1979" xlink:href="#m71dc391eeb" y="86.564144"/>
     <use style="fill:#dd5500;stroke:#dd5500;" x="211.352012" xlink:href="#m71dc391eeb" y="86.382264"/>
     <use style="fill:#dd5500;stroke:#dd5500;" x="213.506124" xlink:href="#m71dc391eeb" y="93.577395"/>
     <use style="fill:#dd5500;stroke:#dd5500;" x="215.660237" xlink:href="#m71dc391eeb" y="84.392187"/>
     <use style="fill:#dd5500;stroke:#dd5500;" x="217.814349" xlink:href="#m71dc391eeb" y="88.957198"/>
     <use style="fill:#dd5500;stroke:#dd5500;" x="219.968462" xlink:href="#m71dc391eeb" y="86.526972"/>
     <use style="fill:#dd5500;stroke:#dd5500;" x="222.122574" xlink:href="#m71dc391eeb" y="89.541343"/>
     <use style="fill:#dd5500;stroke:#dd5500;" x="224.276686" xlink:href="#m71dc391eeb" y="86.98301"/>
     <use style="fill:#dd5500;stroke:#dd5500;" x="226.430799" xlink:href="#m71dc391eeb" y="74.693228"/>
     <use style="fill:#dd5500;stroke:#dd5500;" x="228.584911" xlink:href="#m71dc391eeb" y="76.88004"/>
     <use style="fill:#dd5500;stroke:#dd5500;" x="230.739023" xlink:href="#m71dc391eeb" y="84.048681"/>
     <use style="fill:#dd5500;stroke:#dd5500;" x="232.893136" xlink:href="#m71dc391eeb" y="69.113525"/>
     <use style="fill:#dd5500;stroke:#dd5500;" x="235.047248" xlink:href="#m71dc391eeb" y="74.283475"/>
     <use style="fill:#dd5500;stroke:#dd5500;" x="237.20136" xlink:href="#m71dc391eeb" y="77.352555"/>
     <use style="fill:#dd5500;stroke:#dd5500;" x="239.355473" xlink:href="#m71dc391eeb" y="61.707396"/>
     <use style="fill:#dd5500;stroke:#dd5500;" x="241.509585" xlink:href="#m71dc391eeb" y="69.908851"/>
     <use style="fill:#dd5500;stroke:#dd5500;" x="243.663698" xlink:href="#m71dc391eeb" y="68.65439"/>
     <use style="fill:#dd5500;stroke:#dd5500;" x="245.81781" xlink:href="#m71dc391eeb" y="66.134982"/>
     <use style="fill:#dd5500;stroke:#dd5500;" x="247.971922" xlink:href="#m71dc391eeb" y="58.388568"/>
     <use style="fill:#dd5500;stroke:#dd5500;" x="250.126035" xlink:href="#m71dc391eeb" y="53.191587"/>
     <use style="fill:#dd5500;stroke:#dd5500;" x="252.280147" xlink:href="#m71dc391eeb" y="51.365266"/>
     <use style="fill:#dd5500;stroke:#dd5500;" x="254.434259" xlink:href="#m71dc391eeb" y="48.597016"/>
     <use style="fill:#dd5500;stroke:#dd5500;" x="256.588372" xlink:href="#m71dc391eeb" y="45.887181"/>
     <use style="fill:#dd5500;stroke:#dd5500;" x="258.742484" xlink:href="#m71dc391eeb" y="45.997401"/>
     <use style="fill:#dd5500;stroke:#dd5500;" x="260.896596" xlink:href="#m71dc391eeb" y="46.035068"/>
     <use style="fill:#dd5500;stroke:#dd5500;" x="263.050709" xlink:href="#m71dc391eeb" y="59.92138"/>
     <use style="fill:#dd5500;stroke:#dd5500;" x="265.204821" xlink:href="#m71dc391eeb" y="53.464172"/>
     <use style="fill:#dd5500;stroke:#dd5500;" x="267.358934" xlink:href="#m71dc391eeb" y="37.318891"/>
     <use style="fill:#dd5500;stroke:#dd5500;" x="269.513046" xlink:href="#m71dc391eeb" y="35.387194"/>
    </g>
   </g>
   <g id="line2d_111">
    <path clip-path="url(#p8b917e99db)" d="M -1 171.046731 
L -0.294968 170.848533 
L 2.606194 170.032964 
L 5.507355 169.217395 
L 8.408517 168.401826 
L 11.309678 167.586256 
L 14.21084 166.770687 
L 17.112001 165.955118 
L 20.013162 165.139549 
L 22.914324 164.32398 
L 25.815485 163.50841 
L 28.716647 162.692841 
L 31.617808 161.877272 
L 34.51897 161.061703 
L 37.420131 160.246134 
L 40.321292 159.430564 
L 43.222454 158.614995 
L 46.123615 157.799426 
L 49.024777 156.983857 
L 51.925938 156.168288 
L 54.8271 155.352719 
L 57.728261 154.537149 
L 60.629423 153.72158 
L 63.530584 152.906011 
L 66.431745 152.090442 
L 69.332907 151.274873 
L 72.234068 150.459303 
L 75.13523 149.643734 
L 78.036391 148.828165 
L 80.937553 148.012596 
L 83.838714 147.197027 
L 86.739875 146.381457 
L 89.641037 145.565888 
L 92.542198 144.750319 
L 95.44336 143.93475 
L 98.344521 143.119181 
L 101.245683 142.303612 
L 104.146844 141.488042 
L 107.048006 140.672473 
L 109.949167 139.856904 
L 112.850328 139.041335 
L 115.75149 138.225766 
L 118.652651 137.410196 
L 121.553813 136.594627 
L 124.454974 135.779058 
L 127.356136 134.963489 
L 130.257297 134.14792 
L 133.158458 133.33235 
L 136.05962 132.516781 
L 138.960781 131.701212 
L 141.861943 130.885643 
L 144.763104 130.070074 
L 147.664266 129.254505 
L 150.565427 128.438935 
L 153.466588 127.623366 
L 156.36775 126.807797 
L 159.268911 125.992228 
L 162.170073 125.176659 
L 165.071234 124.361089 
L 167.972396 123.54552 
L 170.873557 122.729951 
L 173.774719 121.914382 
L 176.67588 121.098813 
L 179.577041 120.283243 
L 182.478203 119.467674 
L 185.379364 118.652105 
L 188.280526 117.836536 
L 191.181687 117.020967 
L 194.082849 116.205398 
L 196.98401 115.389828 
L 199.885171 114.574259 
L 202.786333 113.75869 
L 205.687494 112.943121 
L 208.588656 112.127552 
L 211.489817 111.311982 
L 214.390979 110.496413 
L 217.29214 109.680844 
L 220.193302 108.865275 
L 223.094463 108.049706 
L 225.995624 107.234137 
L 228.896786 106.418567 
L 231.797947 105.602998 
L 234.699109 104.787429 
L 237.60027 103.97186 
L 240.501432 103.156291 
L 243.402593 102.340721 
L 246.303754 101.525152 
L 249.204916 100.709583 
L 252.106077 99.894014 
L 255.007239 99.078445 
L 257.9084 98.262875 
L 260.809562 97.447306 
L 263.710723 96.631737 
L 266.611885 95.816168 
L 269.513046 95.000599 
" style="fill:none;stroke:#000000;stroke-linecap:square;stroke-width:1.5;"/>
   </g>
   <g id="patch_3">
    <path d="M 50.81625 175.741948 
L 50.81625 14.259249 
" style="fill:none;stroke:#000000;stroke-linecap:square;stroke-linejoin:miter;stroke-width:0.8;"/>
   </g>
   <g id="patch_4">
    <path d="M 269.513046 175.741948 
L 269.513046 14.259249 
" style="fill:none;stroke:#000000;stroke-linecap:square;stroke-linejoin:miter;stroke-width:0.8;"/>
   </g>
   <g id="patch_5">
    <path d="M 50.81625 175.741948 
L 269.513046 175.741948 
" style="fill:none;stroke:#000000;stroke-linecap:square;stroke-linejoin:miter;stroke-width:0.8;"/>
   </g>
   <g id="patch_6">
    <path d="M 50.81625 14.259249 
L 269.513046 14.259249 
" style="fill:none;stroke:#000000;stroke-linecap:square;stroke-linejoin:miter;stroke-width:0.8;"/>
   </g>
   <g id="legend_1">
    <g id="patch_7">
     <path d="M 148.53222 170.741948 
L 262.513046 170.741948 
Q 264.513046 170.741948 264.513046 168.741948 
L 264.513046 126.545216 
Q 264.513046 124.545216 262.513046 124.545216 
L 148.53222 124.545216 
Q 146.53222 124.545216 146.53222 126.545216 
L 146.53222 168.741948 
Q 146.53222 170.741948 148.53222 170.741948 
z
" style="fill:#ffffff;opacity:0.8;stroke:#cccccc;stroke-linejoin:miter;"/>
    </g>
    <g id="line2d_112">
     <path d="M 150.53222 132.045216 
L 170.53222 132.045216 
" style="fill:none;stroke:#55aaff;stroke-linecap:square;stroke-width:1.5;"/>
    </g>
    <g id="line2d_113"/>
    <g id="text_10">
     <!-- linear -->
     <g transform="translate(178.53222 135.545216)scale(0.1 -0.1)">
      <use transform="scale(0.996264)" xlink:href="#CMR17-108"/>
      <use transform="translate(24.871058 0)scale(0.996264)" xlink:href="#CMR17-105"/>
      <use transform="translate(49.742117 0)scale(0.996264)" xlink:href="#CMR17-110"/>
      <use transform="translate(100.637487 0)scale(0.996264)" xlink:href="#CMR17-101"/>
      <use transform="translate(141.123147 0)scale(0.996264)" xlink:href="#CMR17-97"/>
      <use transform="translate(186.813624 0)scale(0.996264)" xlink:href="#CMR17-114"/>
     </g>
    </g>
    <g id="line2d_114">
     <path d="M 150.53222 145.982395 
L 170.53222 145.982395 
" style="fill:none;stroke:#dd5500;stroke-linecap:square;stroke-width:1.5;"/>
    </g>
    <g id="line2d_115">
     <g>
      <use style="fill:#dd5500;stroke:#dd5500;" x="160.53222" xlink:href="#m71dc391eeb" y="145.982395"/>
     </g>
    </g>
    <g id="text_11">
     <!-- shaped -->
     <defs>
      <path d="M 41.5 30.53125 
C 41.5 35.65625 40.5 44 28.703125 44 
C 20.5 44 16.5 37.375 15.296875 34.046875 
L 15.203125 34.046875 
L 15.203125 69 
L 3.296875 67.890625 
L 3.296875 65.296875 
C 9.203125 65.296875 10.09375 64.703125 10.09375 60.046875 
L 10.09375 6.921875 
C 10.09375 3.09375 9.703125 2.59375 3.296875 2.59375 
L 3.296875 0 
C 5.703125 0.1875 10.09375 0.1875 12.703125 0.1875 
C 15.296875 0.1875 19.796875 0.1875 22.203125 0 
L 22.203125 2.59375 
C 15.796875 2.59375 15.40625 3 15.40625 6.921875 
L 15.40625 26.21875 
C 15.40625 35.453125 21 42.390625 28 42.390625 
C 35.40625 42.390625 36.203125 35.765625 36.203125 30.9375 
L 36.203125 6.921875 
C 36.203125 3.09375 35.796875 2.59375 29.40625 2.59375 
L 29.40625 0 
C 31.796875 0.1875 36.203125 0.1875 38.796875 0.1875 
C 41.40625 0.1875 45.90625 0.1875 48.296875 0 
L 48.296875 2.59375 
C 41.90625 2.59375 41.5 3 41.5 6.921875 
z
" id="CMR17-104"/>
      <path d="M 22 -17.40625 
C 15.59375 -17.40625 15.203125 -17 15.203125 -13.03125 
L 15.203125 5.9375 
C 18.09375 1.703125 22.296875 -1 27.59375 -1 
C 37.59375 -1 47.703125 7.859375 47.703125 21.59375 
C 47.703125 34.3125 39 44 28.703125 44 
C 22.703125 44 17.796875 40.671875 15 36.640625 
L 15 44 
L 3.09375 42.890625 
L 3.09375 40.265625 
C 9 40.265625 9.90625 39.671875 9.90625 34.8125 
L 9.90625 -13.03125 
C 9.90625 -16.890625 9.5 -17.40625 3.09375 -17.40625 
L 3.09375 -20 
C 5.5 -19.8125 9.90625 -19.8125 12.5 -19.8125 
C 15.09375 -19.8125 19.59375 -19.8125 22 -20 
z
M 15.203125 31.484375 
C 15.203125 32.90625 15.203125 35.015625 19.09375 38.765625 
C 19.59375 39.15625 23 42.1875 28 42.1875 
C 35.296875 42.1875 41.296875 33 41.296875 21.5 
C 41.296875 9.984375 34.90625 0.59375 27 0.59375 
C 23.40625 0.59375 19.5 2.3125 16.5 7.046875 
C 15.203125 9.28125 15.203125 9.875 15.203125 11.5 
z
" id="CMR17-112"/>
      <path d="M 29.203125 67.890625 
L 29.203125 65.296875 
C 35.09375 65.296875 36 64.703125 36 60.046875 
L 36 37.046875 
C 35.59375 37.546875 31.5 44 23.40625 44 
C 13.203125 44 3.296875 34.8125 3.296875 21.5 
C 3.296875 8.265625 12.59375 -1 22.40625 -1 
C 30.90625 -1 35.296875 5.640625 35.796875 6.34375 
L 35.796875 -1 
L 47.90625 -0.203125 
L 47.90625 2.40625 
C 42 2.40625 41.09375 3.015625 41.09375 7.859375 
L 41.09375 69 
z
M 35.796875 11.90625 
C 35.796875 8.875 34 6.140625 31.703125 4.125 
C 28.296875 1.09375 24.90625 0.59375 23 0.59375 
C 20.09375 0.59375 9.703125 2.109375 9.703125 21.390625 
C 9.703125 41.1875 21.296875 42.390625 23.90625 42.390625 
C 28.5 42.390625 32.203125 39.765625 34.5 36.140625 
C 35.796875 34.015625 35.796875 33.703125 35.796875 31.890625 
z
" id="CMR17-100"/>
     </defs>
     <g transform="translate(178.53222 149.482395)scale(0.1 -0.1)">
      <use transform="scale(0.996264)" xlink:href="#CMR17-115"/>
      <use transform="translate(35.801338 0)scale(0.996264)" xlink:href="#CMR17-104"/>
      <use transform="translate(86.696707 0)scale(0.996264)" xlink:href="#CMR17-97"/>
      <use transform="translate(132.387185 0)scale(0.996264)" xlink:href="#CMR17-112"/>
      <use transform="translate(185.884993 0)scale(0.996264)" xlink:href="#CMR17-101"/>
      <use transform="translate(226.370654 0)scale(0.996264)" xlink:href="#CMR17-100"/>
     </g>
    </g>
    <g id="line2d_116">
     <path d="M 150.53222 160.391553 
L 170.53222 160.391553 
" style="fill:none;stroke:#000000;stroke-linecap:square;stroke-width:1.5;"/>
    </g>
    <g id="line2d_117"/>
    <g id="text_12">
     <!-- $t_f / T_1$, $T_1 = 0.1\textrm{ ms}$ -->
     <defs>
      <path d="M 42.90625 71.296875 
C 42.90625 71.390625 43.5 72.890625 43.5 73.09375 
C 43.5 74.296875 42.5 75 41.703125 75 
C 41.203125 75 40.296875 75 39.5 72.796875 
L 6 -21.3125 
C 6 -21.40625 5.40625 -22.90625 5.40625 -23.109375 
C 5.40625 -24.3125 6.40625 -25 7.203125 -25 
C 7.796875 -25 8.703125 -24.90625 9.40625 -22.8125 
z
" id="CMMI12-61"/>
      <path d="M 41.703125 60.71875 
C 42.296875 63.09375 42.5 64 44 64.390625 
C 44.796875 64.59375 48.09375 64.59375 50.203125 64.59375 
C 60.203125 64.59375 64.90625 64.203125 64.90625 56.4375 
C 64.90625 54.9375 64.5 51.15625 63.90625 47.46875 
L 63.796875 46.28125 
C 63.796875 45.890625 64.203125 45.28125 64.796875 45.28125 
C 65.796875 45.28125 65.796875 45.78125 66.09375 47.375 
L 69 64.984375 
C 69.203125 65.890625 69.203125 66.09375 69.203125 66.390625 
C 69.203125 67.484375 68.59375 67.484375 66.59375 67.484375 
L 11.90625 67.484375 
C 9.59375 67.484375 9.5 67.390625 8.90625 65.59375 
L 2.796875 47.671875 
C 2.703125 47.46875 2.40625 46.375 2.40625 46.28125 
C 2.40625 45.78125 2.796875 45.28125 3.40625 45.28125 
C 4.203125 45.28125 4.40625 45.6875 4.796875 46.984375 
C 9 59.015625 11.09375 64.59375 24.40625 64.59375 
L 31.09375 64.59375 
C 33.5 64.59375 34.5 64.59375 34.5 63.5 
C 34.5 63.203125 34.5 63 34 61.203125 
L 20.59375 7.765625 
C 19.59375 3.890625 19.40625 2.890625 8.796875 2.890625 
C 6.296875 2.890625 5.59375 2.890625 5.59375 1 
C 5.59375 0 6.703125 0 7.203125 0 
C 9.703125 0 12.296875 0.1875 14.796875 0.1875 
L 30.40625 0.1875 
C 32.90625 0.1875 35.59375 0 38.09375 0 
C 39.203125 0 40.203125 0 40.203125 1.890625 
C 40.203125 2.890625 39.5 2.890625 36.90625 2.890625 
C 27.90625 2.890625 27.90625 3.78125 27.90625 5.28125 
C 27.90625 5.375 27.90625 6.078125 28.296875 7.671875 
z
" id="CMMI12-84"/>
      <path d="M 15.796875 1.59375 
C 16 0.6875 16 0.390625 16 -1.1875 
C 16 -7.046875 14 -12.421875 9.796875 -17.3125 
C 9.296875 -17.8125 9.296875 -18 9.296875 -18.203125 
C 9.296875 -18.609375 9.703125 -19 10.09375 -19 
C 10.703125 -19 17.59375 -12.125 17.59375 -1.28125 
C 17.59375 2 17.203125 8.1875 12.5 8.1875 
C 10.296875 8.1875 8.40625 6.6875 8.40625 4.09375 
C 8.40625 1.5 10.296875 0 12.5 0 
C 13.703125 0 15 0.5 15.796875 1.59375 
z
" id="CMR17-44"/>
      <path d="M 64.296875 32 
C 65.796875 32 67.296875 32 67.296875 33.6875 
C 67.296875 35.5 65.59375 35.5 63.90625 35.5 
L 8 35.5 
C 6.296875 35.5 4.59375 35.5 4.59375 33.6875 
C 4.59375 32 6.09375 32 7.59375 32 
z
M 63.90625 14.484375 
C 65.59375 14.484375 67.296875 14.484375 67.296875 16.296875 
C 67.296875 18 65.796875 18 64.296875 18 
L 7.59375 18 
C 6.09375 18 4.59375 18 4.59375 16.296875 
C 4.59375 14.484375 6.296875 14.484375 8 14.484375 
z
" id="CMR17-61"/>
      <path d="M 18.40625 4.796875 
C 18.40625 7.6875 16 9.6875 13.59375 9.6875 
C 10.703125 9.6875 8.703125 7.296875 8.703125 4.890625 
C 8.703125 2 11.09375 0 13.5 0 
C 16.40625 0 18.40625 2.390625 18.40625 4.796875 
z
" id="CMMI12-58"/>
     </defs>
     <g transform="translate(178.53222 163.891553)scale(0.1 -0.1)">
      <use transform="scale(0.996264)" xlink:href="#CMMI12-116"/>
      <use transform="translate(35.22633 -14.943915)scale(0.697382)" xlink:href="#CMMI12-102"/>
      <use transform="translate(76.828486 0)scale(0.996264)" xlink:href="#CMMI12-61"/>
      <use transform="translate(125.603404 0)scale(0.996264)" xlink:href="#CMMI12-84"/>
      <use transform="translate(182.778448 -14.943915)scale(0.697382)" xlink:href="#CMR17-49"/>
      <use transform="translate(215.259762 0)scale(0.996264)" xlink:href="#CMR17-44"/>
      <use transform="translate(270.206787 0)scale(0.996264)" xlink:href="#CMMI12-84"/>
      <use transform="translate(327.38183 -14.943915)scale(0.697382)" xlink:href="#CMR17-49"/>
      <use transform="translate(387.537153 0)scale(0.996264)" xlink:href="#CMR17-61"/>
      <use transform="translate(486.92595 0)scale(0.996264)" xlink:href="#CMR17-48"/>
      <use transform="translate(532.616427 0)scale(0.996264)" xlink:href="#CMMI12-58"/>
      <use transform="translate(559.713605 0)scale(0.996264)" xlink:href="#CMR17-49"/>
      <use transform="translate(635.480048 0)scale(0.996264)" xlink:href="#CMR17-109"/>
      <use transform="translate(712.399638 0)scale(0.996264)" xlink:href="#CMR17-115"/>
     </g>
    </g>
   </g>
  </g>
 </g>
 <defs>
  <clipPath id="p8b917e99db">
   <rect height="161.482699" width="218.696796" x="50.81625" y="14.259249"/>
  </clipPath>
 </defs>
</svg>
