<?xml version="1.0" encoding="utf-8" standalone="no"?>
<!DOCTYPE svg PUBLIC "-//W3C//DTD SVG 1.1//EN"
  "http://www.w3.org/Graphics/SVG/1.1/DTD/svg11.dtd">
<!-- Created with matplotlib (https://matplotlib.org/) -->
<svg height="214.56pt" version="1.1" viewBox="0 0 288 214.56" width="288pt" xmlns="http://www.w3.org/2000/svg" xmlns:xlink="http://www.w3.org/1999/xlink">
 <defs>
  <style type="text/css">
*{stroke-linecap:butt;stroke-linejoin:round;}
  </style>
 </defs>
 <g id="figure_1">
  <g id="patch_1">
   <path d="M 0 214.56 
L 288 214.56 
L 288 0 
L 0 0 
z
" style="fill:#ffffff;"/>
  </g>
  <g id="axes_1">
   <g id="patch_2">
    <path d="M 44.928 180.87408 
L 283.104 180.87408 
L 283.104 5.364 
L 44.928 5.364 
z
" style="fill:#ffffff;"/>
   </g>
   <g id="PolyCollection_1">
    <path clip-path="url(#pe9bacec0d7)" d="M 272.277818 111.488825 
L 272.277818 145.046463 
L 271.220119 145.046463 
L 271.220119 149.885695 
L 269.054883 149.885695 
L 269.054883 143.144835 
L 266.889647 143.144835 
L 266.889647 144.118826 
L 264.72441 144.118826 
L 264.72441 145.237855 
L 262.559174 145.237855 
L 262.559174 142.281875 
L 260.393938 142.281875 
L 260.393938 143.921046 
L 258.228701 143.921046 
L 258.228701 140.471034 
L 256.063465 140.471034 
L 256.063465 140.957579 
L 253.898228 140.957579 
L 253.898228 146.51328 
L 251.732992 146.51328 
L 251.732992 137.227514 
L 249.567756 137.227514 
L 249.567756 140.593548 
L 247.402519 140.593548 
L 247.402519 134.321764 
L 245.237283 134.321764 
L 245.237283 139.432662 
L 243.072047 139.432662 
L 243.072047 134.923023 
L 240.90681 134.923023 
L 240.90681 132.303102 
L 238.741574 132.303102 
L 238.741574 133.325685 
L 236.576338 133.325685 
L 236.576338 135.882396 
L 234.411101 135.882396 
L 234.411101 124.356404 
L 232.245865 124.356404 
L 232.245865 130.29148 
L 230.080628 130.29148 
L 230.080628 138.075842 
L 227.915392 138.075842 
L 227.915392 130.289068 
L 225.750156 130.289068 
L 225.750156 115.678447 
L 223.584919 115.678447 
L 223.584919 117.819049 
L 221.419683 117.819049 
L 221.419683 137.929405 
L 219.254447 137.929405 
L 219.254447 131.949211 
L 217.08921 131.949211 
L 217.08921 112.478821 
L 214.923974 112.478821 
L 214.923974 114.729128 
L 212.758738 114.729128 
L 212.758738 117.983658 
L 210.593501 117.983658 
L 210.593501 120.647825 
L 208.428265 120.647825 
L 208.428265 121.171301 
L 206.263028 121.171301 
L 206.263028 121.510862 
L 204.097792 121.510862 
L 204.097792 114.165003 
L 201.932556 114.165003 
L 201.932556 125.835941 
L 199.767319 125.835941 
L 199.767319 121.356937 
L 197.602083 121.356937 
L 197.602083 125.24246 
L 195.436847 125.24246 
L 195.436847 130.971508 
L 193.27161 130.971508 
L 193.27161 132.472707 
L 191.106374 132.472707 
L 191.106374 145.952073 
L 188.941138 145.952073 
L 188.941138 131.085342 
L 186.775901 131.085342 
L 186.775901 129.464039 
L 184.610665 129.464039 
L 184.610665 141.746006 
L 182.445428 141.746006 
L 182.445428 137.359021 
L 180.280192 137.359021 
L 180.280192 139.520716 
L 178.114956 139.520716 
L 178.114956 136.746773 
L 175.949719 136.746773 
L 175.949719 125.976042 
L 173.784483 125.976042 
L 173.784483 145.434125 
L 171.619247 145.434125 
L 171.619247 148.995908 
L 169.45401 148.995908 
L 169.45401 145.5993 
L 167.288774 145.5993 
L 167.288774 151.917188 
L 165.123538 151.917188 
L 165.123538 144.572247 
L 162.958301 144.572247 
L 162.958301 144.57495 
L 160.793065 144.57495 
L 160.793065 152.657618 
L 158.627828 152.657618 
L 158.627828 146.55948 
L 156.462592 146.55948 
L 156.462592 154.690696 
L 154.297356 154.690696 
L 154.297356 153.267587 
L 152.132119 153.267587 
L 152.132119 159.836527 
L 149.966883 159.836527 
L 149.966883 155.358012 
L 147.801647 155.358012 
L 147.801647 152.906707 
L 145.63641 152.906707 
L 145.63641 157.627834 
L 143.471174 157.627834 
L 143.471174 155.177464 
L 141.305938 155.177464 
L 141.305938 156.631427 
L 139.140701 156.631427 
L 139.140701 158.827061 
L 136.975465 158.827061 
L 136.975465 159.664081 
L 134.810228 159.664081 
L 134.810228 166.676053 
L 132.644992 166.676053 
L 132.644992 162.717341 
L 130.479756 162.717341 
L 130.479756 161.986951 
L 128.314519 161.986951 
L 128.314519 161.587688 
L 126.149283 161.587688 
L 126.149283 164.103018 
L 123.984047 164.103018 
L 123.984047 164.084297 
L 121.81881 164.084297 
L 121.81881 165.306833 
L 119.653574 165.306833 
L 119.653574 165.043144 
L 117.488338 165.043144 
L 117.488338 165.672744 
L 115.323101 165.672744 
L 115.323101 168.161693 
L 113.157865 168.161693 
L 113.157865 165.494171 
L 110.992628 165.494171 
L 110.992628 170.557377 
L 108.827392 170.557377 
L 108.827392 166.755753 
L 106.662156 166.755753 
L 106.662156 168.124941 
L 104.496919 168.124941 
L 104.496919 169.965201 
L 102.331683 169.965201 
L 102.331683 168.609218 
L 100.166447 168.609218 
L 100.166447 166.729639 
L 98.00121 166.729639 
L 98.00121 166.49007 
L 95.835974 166.49007 
L 95.835974 167.431137 
L 93.670738 167.431137 
L 93.670738 168.000986 
L 91.505501 168.000986 
L 91.505501 167.112552 
L 89.340265 167.112552 
L 89.340265 169.016347 
L 87.175028 169.016347 
L 87.175028 166.376657 
L 85.009792 166.376657 
L 85.009792 167.696367 
L 82.844556 167.696367 
L 82.844556 168.456401 
L 80.679319 168.456401 
L 80.679319 165.828037 
L 78.514083 165.828037 
L 78.514083 166.829999 
L 76.348847 166.829999 
L 76.348847 168.405122 
L 74.18361 168.405122 
L 74.18361 168.8949 
L 72.018374 168.8949 
L 72.018374 172.088244 
L 69.853138 172.088244 
L 69.853138 171.023148 
L 67.687901 171.023148 
L 67.687901 169.06275 
L 65.522665 169.06275 
L 65.522665 168.222518 
L 63.357428 168.222518 
L 63.357428 166.538759 
L 61.192192 166.538759 
L 61.192192 166.514038 
L 59.026956 166.514038 
L 59.026956 172.896349 
L 56.861719 172.896349 
L 56.861719 169.57742 
L 55.754182 169.57742 
L 55.754182 151.604169 
L 55.754182 151.604169 
L 56.861719 151.604169 
L 56.861719 150.982207 
L 59.026956 150.982207 
L 59.026956 148.285414 
L 61.192192 148.285414 
L 61.192192 152.191456 
L 63.357428 152.191456 
L 63.357428 152.298155 
L 65.522665 152.298155 
L 65.522665 150.214012 
L 67.687901 150.214012 
L 67.687901 153.131336 
L 69.853138 153.131336 
L 69.853138 150.816567 
L 72.018374 150.816567 
L 72.018374 146.712506 
L 74.18361 146.712506 
L 74.18361 149.416246 
L 76.348847 149.416246 
L 76.348847 152.555903 
L 78.514083 152.555903 
L 78.514083 149.257127 
L 80.679319 149.257127 
L 80.679319 145.382449 
L 82.844556 145.382449 
L 82.844556 145.042241 
L 85.009792 145.042241 
L 85.009792 147.153239 
L 87.175028 147.153239 
L 87.175028 146.434666 
L 89.340265 146.434666 
L 89.340265 148.825466 
L 91.505501 148.825466 
L 91.505501 140.252786 
L 93.670738 140.252786 
L 93.670738 148.100023 
L 95.835974 148.100023 
L 95.835974 145.694391 
L 98.00121 145.694391 
L 98.00121 142.670684 
L 100.166447 142.670684 
L 100.166447 148.276172 
L 102.331683 148.276172 
L 102.331683 147.391054 
L 104.496919 147.391054 
L 104.496919 144.87895 
L 106.662156 144.87895 
L 106.662156 145.344887 
L 108.827392 145.344887 
L 108.827392 142.738224 
L 110.992628 142.738224 
L 110.992628 139.003956 
L 113.157865 139.003956 
L 113.157865 141.119136 
L 115.323101 141.119136 
L 115.323101 136.848095 
L 117.488338 136.848095 
L 117.488338 131.233923 
L 119.653574 131.233923 
L 119.653574 140.248491 
L 121.81881 140.248491 
L 121.81881 139.162035 
L 123.984047 139.162035 
L 123.984047 130.441246 
L 126.149283 130.441246 
L 126.149283 136.733959 
L 128.314519 136.733959 
L 128.314519 128.700426 
L 130.479756 128.700426 
L 130.479756 132.473272 
L 132.644992 132.473272 
L 132.644992 141.828588 
L 134.810228 141.828588 
L 134.810228 122.419625 
L 136.975465 122.419625 
L 136.975465 131.155279 
L 139.140701 131.155279 
L 139.140701 128.700496 
L 141.305938 128.700496 
L 141.305938 119.009858 
L 143.471174 119.009858 
L 143.471174 127.880973 
L 145.63641 127.880973 
L 145.63641 123.05488 
L 147.801647 123.05488 
L 147.801647 124.713887 
L 149.966883 124.713887 
L 149.966883 122.289554 
L 152.132119 122.289554 
L 152.132119 128.284129 
L 154.297356 128.284129 
L 154.297356 110.619964 
L 156.462592 110.619964 
L 156.462592 110.02397 
L 158.627828 110.02397 
L 158.627828 108.171493 
L 160.793065 108.171493 
L 160.793065 114.446265 
L 162.958301 114.446265 
L 162.958301 108.517324 
L 165.123538 108.517324 
L 165.123538 111.376761 
L 167.288774 111.376761 
L 167.288774 104.493474 
L 169.45401 104.493474 
L 169.45401 100.725012 
L 171.619247 100.725012 
L 171.619247 107.943035 
L 173.784483 107.943035 
L 173.784483 95.982709 
L 175.949719 95.982709 
L 175.949719 92.148416 
L 178.114956 92.148416 
L 178.114956 96.993199 
L 180.280192 96.993199 
L 180.280192 97.311652 
L 182.445428 97.311652 
L 182.445428 105.920356 
L 184.610665 105.920356 
L 184.610665 89.901164 
L 186.775901 89.901164 
L 186.775901 81.170512 
L 188.941138 81.170512 
L 188.941138 102.884116 
L 191.106374 102.884116 
L 191.106374 80.768865 
L 193.27161 80.768865 
L 193.27161 84.907252 
L 195.436847 84.907252 
L 195.436847 89.105866 
L 197.602083 89.105866 
L 197.602083 82.131119 
L 199.767319 82.131119 
L 199.767319 79.751186 
L 201.932556 79.751186 
L 201.932556 70.403795 
L 204.097792 70.403795 
L 204.097792 73.521491 
L 206.263028 73.521491 
L 206.263028 82.282926 
L 208.428265 82.282926 
L 208.428265 79.187361 
L 210.593501 79.187361 
L 210.593501 79.032332 
L 212.758738 79.032332 
L 212.758738 78.409041 
L 214.923974 78.409041 
L 214.923974 76.164966 
L 217.08921 76.164966 
L 217.08921 94.335136 
L 219.254447 94.335136 
L 219.254447 99.74984 
L 221.419683 99.74984 
L 221.419683 82.557174 
L 223.584919 82.557174 
L 223.584919 85.519196 
L 225.750156 85.519196 
L 225.750156 88.901853 
L 227.915392 88.901853 
L 227.915392 92.851391 
L 230.080628 92.851391 
L 230.080628 91.865705 
L 232.245865 91.865705 
L 232.245865 91.708665 
L 234.411101 91.708665 
L 234.411101 104.968929 
L 236.576338 104.968929 
L 236.576338 88.140707 
L 238.741574 88.140707 
L 238.741574 93.994524 
L 240.90681 93.994524 
L 240.90681 102.029373 
L 243.072047 102.029373 
L 243.072047 89.25756 
L 245.237283 89.25756 
L 245.237283 95.15387 
L 247.402519 95.15387 
L 247.402519 98.671027 
L 249.567756 98.671027 
L 249.567756 104.095263 
L 251.732992 104.095263 
L 251.732992 102.794333 
L 253.898228 102.794333 
L 253.898228 104.634978 
L 256.063465 104.634978 
L 256.063465 99.119866 
L 258.228701 99.119866 
L 258.228701 103.335053 
L 260.393938 103.335053 
L 260.393938 119.065468 
L 262.559174 119.065468 
L 262.559174 102.281036 
L 264.72441 102.281036 
L 264.72441 105.397184 
L 266.889647 105.397184 
L 266.889647 106.117661 
L 269.054883 106.117661 
L 269.054883 114.659494 
L 271.220119 114.659494 
L 271.220119 111.488825 
L 272.277818 111.488825 
z
" style="fill:#dd5500;fill-opacity:0.15;"/>
   </g>
   <g id="PolyCollection_2">
    <path clip-path="url(#pe9bacec0d7)" d="M 272.277818 35.837549 
L 272.277818 37.932476 
L 271.220119 37.932476 
L 271.220119 37.721628 
L 269.054883 37.721628 
L 269.054883 37.900253 
L 266.889647 37.900253 
L 266.889647 37.750418 
L 264.72441 37.750418 
L 264.72441 37.802825 
L 262.559174 37.802825 
L 262.559174 37.447856 
L 260.393938 37.447856 
L 260.393938 37.828772 
L 258.228701 37.828772 
L 258.228701 37.742369 
L 256.063465 37.742369 
L 256.063465 37.044733 
L 253.898228 37.044733 
L 253.898228 36.93136 
L 251.732992 36.93136 
L 251.732992 37.661456 
L 249.567756 37.661456 
L 249.567756 37.582514 
L 247.402519 37.582514 
L 247.402519 36.922931 
L 245.237283 36.922931 
L 245.237283 37.577711 
L 243.072047 37.577711 
L 243.072047 37.150055 
L 240.90681 37.150055 
L 240.90681 37.440471 
L 238.741574 37.440471 
L 238.741574 37.098681 
L 236.576338 37.098681 
L 236.576338 36.481989 
L 234.411101 36.481989 
L 234.411101 36.296235 
L 232.245865 36.296235 
L 232.245865 36.300928 
L 230.080628 36.300928 
L 230.080628 35.446032 
L 227.915392 35.446032 
L 227.915392 36.460254 
L 225.750156 36.460254 
L 225.750156 34.897475 
L 223.584919 34.897475 
L 223.584919 36.718966 
L 221.419683 36.718966 
L 221.419683 36.469204 
L 219.254447 36.469204 
L 219.254447 34.365802 
L 217.08921 34.365802 
L 217.08921 35.214681 
L 214.923974 35.214681 
L 214.923974 34.432641 
L 212.758738 34.432641 
L 212.758738 35.14747 
L 210.593501 35.14747 
L 210.593501 35.374854 
L 208.428265 35.374854 
L 208.428265 33.238871 
L 206.263028 33.238871 
L 206.263028 31.702988 
L 204.097792 31.702988 
L 204.097792 34.457682 
L 201.932556 34.457682 
L 201.932556 35.429511 
L 199.767319 35.429511 
L 199.767319 33.126658 
L 197.602083 33.126658 
L 197.602083 32.485409 
L 195.436847 32.485409 
L 195.436847 35.350488 
L 193.27161 35.350488 
L 193.27161 33.555879 
L 191.106374 33.555879 
L 191.106374 32.644608 
L 188.941138 32.644608 
L 188.941138 35.400947 
L 186.775901 35.400947 
L 186.775901 34.36149 
L 184.610665 34.36149 
L 184.610665 34.957803 
L 182.445428 34.957803 
L 182.445428 34.459143 
L 180.280192 34.459143 
L 180.280192 34.445105 
L 178.114956 34.445105 
L 178.114956 34.777255 
L 175.949719 34.777255 
L 175.949719 32.681585 
L 173.784483 32.681585 
L 173.784483 35.107306 
L 171.619247 35.107306 
L 171.619247 36.386183 
L 169.45401 36.386183 
L 169.45401 37.642978 
L 167.288774 37.642978 
L 167.288774 36.460891 
L 165.123538 36.460891 
L 165.123538 36.777225 
L 162.958301 36.777225 
L 162.958301 35.631236 
L 160.793065 35.631236 
L 160.793065 37.500939 
L 158.627828 37.500939 
L 158.627828 35.172668 
L 156.462592 35.172668 
L 156.462592 36.821916 
L 154.297356 36.821916 
L 154.297356 37.275129 
L 152.132119 37.275129 
L 152.132119 37.769246 
L 149.966883 37.769246 
L 149.966883 38.081433 
L 147.801647 38.081433 
L 147.801647 37.088421 
L 145.63641 37.088421 
L 145.63641 37.720442 
L 143.471174 37.720442 
L 143.471174 37.474616 
L 141.305938 37.474616 
L 141.305938 37.168989 
L 139.140701 37.168989 
L 139.140701 37.961402 
L 136.975465 37.961402 
L 136.975465 38.165834 
L 134.810228 38.165834 
L 134.810228 37.859592 
L 132.644992 37.859592 
L 132.644992 38.030167 
L 130.479756 38.030167 
L 130.479756 37.512998 
L 128.314519 37.512998 
L 128.314519 38.015035 
L 126.149283 38.015035 
L 126.149283 38.339703 
L 123.984047 38.339703 
L 123.984047 38.26605 
L 121.81881 38.26605 
L 121.81881 38.492745 
L 119.653574 38.492745 
L 119.653574 37.742938 
L 117.488338 37.742938 
L 117.488338 37.977715 
L 115.323101 37.977715 
L 115.323101 37.962471 
L 113.157865 37.962471 
L 113.157865 37.960785 
L 110.992628 37.960785 
L 110.992628 38.516468 
L 108.827392 38.516468 
L 108.827392 38.223065 
L 106.662156 38.223065 
L 106.662156 38.491759 
L 104.496919 38.491759 
L 104.496919 38.314847 
L 102.331683 38.314847 
L 102.331683 38.7365 
L 100.166447 38.7365 
L 100.166447 38.447343 
L 98.00121 38.447343 
L 98.00121 38.443713 
L 95.835974 38.443713 
L 95.835974 38.49983 
L 93.670738 38.49983 
L 93.670738 38.608895 
L 91.505501 38.608895 
L 91.505501 38.417203 
L 89.340265 38.417203 
L 89.340265 38.382185 
L 87.175028 38.382185 
L 87.175028 38.529214 
L 85.009792 38.529214 
L 85.009792 38.538445 
L 82.844556 38.538445 
L 82.844556 38.576497 
L 80.679319 38.576497 
L 80.679319 38.489245 
L 78.514083 38.489245 
L 78.514083 38.516619 
L 76.348847 38.516619 
L 76.348847 38.328247 
L 74.18361 38.328247 
L 74.18361 38.47347 
L 72.018374 38.47347 
L 72.018374 38.458528 
L 69.853138 38.458528 
L 69.853138 38.452833 
L 67.687901 38.452833 
L 67.687901 38.412343 
L 65.522665 38.412343 
L 65.522665 38.408294 
L 63.357428 38.408294 
L 63.357428 38.563727 
L 61.192192 38.563727 
L 61.192192 38.436895 
L 59.026956 38.436895 
L 59.026956 38.4649 
L 56.861719 38.4649 
L 56.861719 38.331301 
L 55.754182 38.331301 
L 55.754182 37.693528 
L 55.754182 37.693528 
L 56.861719 37.693528 
L 56.861719 37.744098 
L 59.026956 37.744098 
L 59.026956 37.784763 
L 61.192192 37.784763 
L 61.192192 37.828425 
L 63.357428 37.828425 
L 63.357428 37.540341 
L 65.522665 37.540341 
L 65.522665 37.436218 
L 67.687901 37.436218 
L 67.687901 37.467762 
L 69.853138 37.467762 
L 69.853138 37.493991 
L 72.018374 37.493991 
L 72.018374 37.52739 
L 74.18361 37.52739 
L 74.18361 37.371112 
L 76.348847 37.371112 
L 76.348847 37.373297 
L 78.514083 37.373297 
L 78.514083 37.5435 
L 80.679319 37.5435 
L 80.679319 37.242651 
L 82.844556 37.242651 
L 82.844556 37.218086 
L 85.009792 37.218086 
L 85.009792 37.289219 
L 87.175028 37.289219 
L 87.175028 37.14569 
L 89.340265 37.14569 
L 89.340265 37.223838 
L 91.505501 37.223838 
L 91.505501 36.549824 
L 93.670738 36.549824 
L 93.670738 36.572169 
L 95.835974 36.572169 
L 95.835974 36.598489 
L 98.00121 36.598489 
L 98.00121 36.196171 
L 100.166447 36.196171 
L 100.166447 36.334346 
L 102.331683 36.334346 
L 102.331683 36.368307 
L 104.496919 36.368307 
L 104.496919 36.446869 
L 106.662156 36.446869 
L 106.662156 35.62531 
L 108.827392 35.62531 
L 108.827392 36.967882 
L 110.992628 36.967882 
L 110.992628 35.31952 
L 113.157865 35.31952 
L 113.157865 35.280419 
L 115.323101 35.280419 
L 115.323101 35.068588 
L 117.488338 35.068588 
L 117.488338 33.763767 
L 119.653574 33.763767 
L 119.653574 36.01071 
L 121.81881 36.01071 
L 121.81881 35.093078 
L 123.984047 35.093078 
L 123.984047 34.20144 
L 126.149283 34.20144 
L 126.149283 35.094035 
L 128.314519 35.094035 
L 128.314519 32.880083 
L 130.479756 32.880083 
L 130.479756 34.815022 
L 132.644992 34.815022 
L 132.644992 33.734829 
L 134.810228 33.734829 
L 134.810228 33.703703 
L 136.975465 33.703703 
L 136.975465 30.073653 
L 139.140701 30.073653 
L 139.140701 32.807128 
L 141.305938 32.807128 
L 141.305938 29.63036 
L 143.471174 29.63036 
L 143.471174 32.086321 
L 145.63641 32.086321 
L 145.63641 29.099592 
L 147.801647 29.099592 
L 147.801647 31.544825 
L 149.966883 31.544825 
L 149.966883 30.871815 
L 152.132119 30.871815 
L 152.132119 28.917033 
L 154.297356 28.917033 
L 154.297356 31.108842 
L 156.462592 31.108842 
L 156.462592 27.33832 
L 158.627828 27.33832 
L 158.627828 31.556977 
L 160.793065 31.556977 
L 160.793065 26.615031 
L 162.958301 26.615031 
L 162.958301 29.998739 
L 165.123538 29.998739 
L 165.123538 26.226527 
L 167.288774 26.226527 
L 167.288774 28.144288 
L 169.45401 28.144288 
L 169.45401 26.914222 
L 171.619247 26.914222 
L 171.619247 26.248959 
L 173.784483 26.248959 
L 173.784483 20.911898 
L 175.949719 20.911898 
L 175.949719 20.251697 
L 178.114956 20.251697 
L 178.114956 16.269103 
L 180.280192 16.269103 
L 180.280192 21.64552 
L 182.445428 21.64552 
L 182.445428 20.033542 
L 184.610665 20.033542 
L 184.610665 22.804705 
L 186.775901 22.804705 
L 186.775901 22.866251 
L 188.941138 22.866251 
L 188.941138 14.472605 
L 191.106374 14.472605 
L 191.106374 20.951905 
L 193.27161 20.951905 
L 193.27161 24.011072 
L 195.436847 24.011072 
L 195.436847 19.611884 
L 197.602083 19.611884 
L 197.602083 13.341731 
L 199.767319 13.341731 
L 199.767319 19.255816 
L 201.932556 19.255816 
L 201.932556 20.392634 
L 204.097792 20.392634 
L 204.097792 15.579384 
L 206.263028 15.579384 
L 206.263028 14.602948 
L 208.428265 14.602948 
L 208.428265 24.010537 
L 210.593501 24.010537 
L 210.593501 20.716896 
L 212.758738 20.716896 
L 212.758738 21.877928 
L 214.923974 21.877928 
L 214.923974 19.764948 
L 217.08921 19.764948 
L 217.08921 18.343229 
L 219.254447 18.343229 
L 219.254447 28.08946 
L 221.419683 28.08946 
L 221.419683 28.565176 
L 223.584919 28.565176 
L 223.584919 24.124415 
L 225.750156 24.124415 
L 225.750156 28.41184 
L 227.915392 28.41184 
L 227.915392 26.602163 
L 230.080628 26.602163 
L 230.080628 29.861324 
L 232.245865 29.861324 
L 232.245865 20.796674 
L 234.411101 20.796674 
L 234.411101 27.084027 
L 236.576338 27.084027 
L 236.576338 30.360547 
L 238.741574 30.360547 
L 238.741574 31.603856 
L 240.90681 31.603856 
L 240.90681 31.077617 
L 243.072047 31.077617 
L 243.072047 32.224844 
L 245.237283 32.224844 
L 245.237283 31.476171 
L 247.402519 31.476171 
L 247.402519 31.032232 
L 249.567756 31.032232 
L 249.567756 32.036578 
L 251.732992 32.036578 
L 251.732992 30.505749 
L 253.898228 30.505749 
L 253.898228 33.946623 
L 256.063465 33.946623 
L 256.063465 33.608487 
L 258.228701 33.608487 
L 258.228701 35.247986 
L 260.393938 35.247986 
L 260.393938 33.863684 
L 262.559174 33.863684 
L 262.559174 35.541668 
L 264.72441 35.541668 
L 264.72441 34.889096 
L 266.889647 34.889096 
L 266.889647 34.045002 
L 269.054883 34.045002 
L 269.054883 35.208302 
L 271.220119 35.208302 
L 271.220119 35.837549 
L 272.277818 35.837549 
z
" style="fill:#0088ff;fill-opacity:0.15;"/>
   </g>
   <g id="matplotlib.axis_1">
    <g id="xtick_1">
     <g id="line2d_1">
      <path clip-path="url(#pe9bacec0d7)" d="M 55.754182 180.87408 
L 55.754182 5.364 
" style="fill:none;stroke:#dddddd;stroke-linecap:square;stroke-width:0.5;"/>
     </g>
     <g id="line2d_2">
      <defs>
       <path d="M 0 0 
L 0 3.5 
" id="m1dfae9a796" style="stroke:#000000;stroke-width:0.8;"/>
      </defs>
      <g>
       <use style="stroke:#000000;stroke-width:0.8;" x="55.754182" xlink:href="#m1dfae9a796" y="180.87408"/>
      </g>
     </g>
     <g id="text_1">
      <!-- $\mathdefault{10^{-1}}$ -->
      <defs>
       <path d="M 26.59375 63.796875 
C 26.59375 65.890625 26.5 66 25.09375 66 
C 21.203125 61.359375 15.296875 59.890625 9.703125 59.6875 
C 9.40625 59.6875 8.90625 59.6875 8.796875 59.5 
C 8.703125 59.296875 8.703125 59.09375 8.703125 57 
C 11.796875 57 17 57.59375 21 59.984375 
L 21 7.296875 
C 21 3.796875 20.796875 2.59375 12.203125 2.59375 
L 9.203125 2.59375 
L 9.203125 0 
C 14 0.09375 19 0.1875 23.796875 0.1875 
C 28.59375 0.1875 33.59375 0.09375 38.40625 0 
L 38.40625 2.59375 
L 35.40625 2.59375 
C 26.796875 2.59375 26.59375 3.6875 26.59375 7.296875 
z
" id="CMR17-49"/>
       <path d="M 42 31.84375 
C 42 37.96875 41.90625 48.421875 37.703125 56.453125 
C 34 63.484375 28.09375 66 22.90625 66 
C 18.09375 66 12 63.78125 8.203125 56.5625 
C 4.203125 49.015625 3.796875 39.671875 3.796875 31.84375 
C 3.796875 26.109375 3.90625 17.375 7 9.734375 
C 11.296875 -0.609375 19 -2 22.90625 -2 
C 27.5 -2 34.5 -0.109375 38.59375 9.4375 
C 41.59375 16.375 42 24.5 42 31.84375 
z
M 22.90625 -0.40625 
C 16.5 -0.40625 12.703125 5.125 11.296875 12.75 
C 10.203125 18.6875 10.203125 27.328125 10.203125 32.953125 
C 10.203125 40.6875 10.203125 47.109375 11.5 53.234375 
C 13.40625 61.78125 19 64.390625 22.90625 64.390625 
C 27 64.390625 32.296875 61.671875 34.203125 53.4375 
C 35.5 47.71875 35.59375 40.984375 35.59375 32.953125 
C 35.59375 26.421875 35.59375 18.375 34.40625 12.453125 
C 32.296875 1.5 26.40625 -0.40625 22.90625 -0.40625 
z
" id="CMR17-48"/>
       <path d="M 65.90625 23 
C 67.59375 23 69.40625 23 69.40625 25 
C 69.40625 27 67.59375 27 65.90625 27 
L 11.796875 27 
C 10.09375 27 8.296875 27 8.296875 25 
C 8.296875 23 10.09375 23 11.796875 23 
z
" id="CMSY10-0"/>
      </defs>
      <g transform="translate(45.673895 194.792578)scale(0.1 -0.1)">
       <use transform="scale(0.996264)" xlink:href="#CMR17-49"/>
       <use transform="translate(45.690477 0)scale(0.996264)" xlink:href="#CMR17-48"/>
       <use transform="translate(91.380954 36.153639)scale(0.697382)" xlink:href="#CMSY10-0"/>
       <use transform="translate(145.621947 36.153639)scale(0.697382)" xlink:href="#CMR17-49"/>
      </g>
     </g>
    </g>
    <g id="xtick_2">
     <g id="line2d_3">
      <path clip-path="url(#pe9bacec0d7)" d="M 109.885091 180.87408 
L 109.885091 5.364 
" style="fill:none;stroke:#dddddd;stroke-linecap:square;stroke-width:0.5;"/>
     </g>
     <g id="line2d_4">
      <g>
       <use style="stroke:#000000;stroke-width:0.8;" x="109.885091" xlink:href="#m1dfae9a796" y="180.87408"/>
      </g>
     </g>
     <g id="text_2">
      <!-- $\mathdefault{10^{0}}$ -->
      <g transform="translate(102.918137 194.792578)scale(0.1 -0.1)">
       <use transform="scale(0.996264)" xlink:href="#CMR17-49"/>
       <use transform="translate(45.690477 0)scale(0.996264)" xlink:href="#CMR17-48"/>
       <use transform="translate(91.380954 36.153639)scale(0.697382)" xlink:href="#CMR17-48"/>
      </g>
     </g>
    </g>
    <g id="xtick_3">
     <g id="line2d_5">
      <path clip-path="url(#pe9bacec0d7)" d="M 164.016 180.87408 
L 164.016 5.364 
" style="fill:none;stroke:#dddddd;stroke-linecap:square;stroke-width:0.5;"/>
     </g>
     <g id="line2d_6">
      <g>
       <use style="stroke:#000000;stroke-width:0.8;" x="164.016" xlink:href="#m1dfae9a796" y="180.87408"/>
      </g>
     </g>
     <g id="text_3">
      <!-- $\mathdefault{10^{1}}$ -->
      <g transform="translate(157.049046 194.792578)scale(0.1 -0.1)">
       <use transform="scale(0.996264)" xlink:href="#CMR17-49"/>
       <use transform="translate(45.690477 0)scale(0.996264)" xlink:href="#CMR17-48"/>
       <use transform="translate(91.380954 36.153639)scale(0.697382)" xlink:href="#CMR17-49"/>
      </g>
     </g>
    </g>
    <g id="xtick_4">
     <g id="line2d_7">
      <path clip-path="url(#pe9bacec0d7)" d="M 218.146909 180.87408 
L 218.146909 5.364 
" style="fill:none;stroke:#dddddd;stroke-linecap:square;stroke-width:0.5;"/>
     </g>
     <g id="line2d_8">
      <g>
       <use style="stroke:#000000;stroke-width:0.8;" x="218.146909" xlink:href="#m1dfae9a796" y="180.87408"/>
      </g>
     </g>
     <g id="text_4">
      <!-- $\mathdefault{10^{2}}$ -->
      <defs>
       <path d="M 41.703125 15.46875 
L 39.90625 15.46875 
C 38.90625 8.390625 38.09375 7.1875 37.703125 6.59375 
C 37.203125 5.796875 30 5.796875 28.59375 5.796875 
L 9.40625 5.796875 
C 13 9.6875 20 16.765625 28.5 24.9375 
C 34.59375 30.71875 41.703125 37.5 41.703125 47.390625 
C 41.703125 59.1875 32.296875 66 21.796875 66 
C 10.796875 66 4.09375 56.296875 4.09375 47.296875 
C 4.09375 43.390625 7 42.890625 8.203125 42.890625 
C 9.203125 42.890625 12.203125 43.484375 12.203125 46.984375 
C 12.203125 50.09375 9.59375 51 8.203125 51 
C 7.59375 51 7 50.890625 6.59375 50.6875 
C 8.5 59.1875 14.296875 63.390625 20.40625 63.390625 
C 29.09375 63.390625 34.796875 56.5 34.796875 47.390625 
C 34.796875 38.703125 29.703125 31.21875 24 24.734375 
L 4.09375 2.296875 
L 4.09375 0 
L 39.296875 0 
z
" id="CMR17-50"/>
      </defs>
      <g transform="translate(211.179955 194.792578)scale(0.1 -0.1)">
       <use transform="scale(0.996264)" xlink:href="#CMR17-49"/>
       <use transform="translate(45.690477 0)scale(0.996264)" xlink:href="#CMR17-48"/>
       <use transform="translate(91.380954 36.153639)scale(0.697382)" xlink:href="#CMR17-50"/>
      </g>
     </g>
    </g>
    <g id="xtick_5">
     <g id="line2d_9">
      <path clip-path="url(#pe9bacec0d7)" d="M 272.277818 180.87408 
L 272.277818 5.364 
" style="fill:none;stroke:#dddddd;stroke-linecap:square;stroke-width:0.5;"/>
     </g>
     <g id="line2d_10">
      <g>
       <use style="stroke:#000000;stroke-width:0.8;" x="272.277818" xlink:href="#m1dfae9a796" y="180.87408"/>
      </g>
     </g>
     <g id="text_5">
      <!-- $\mathdefault{10^{3}}$ -->
      <defs>
       <path d="M 22.09375 34 
C 31 34 34.90625 26.140625 34.90625 17.09375 
C 34.90625 5.03125 28.5 0.390625 22.703125 0.390625 
C 17.40625 0.390625 8.796875 3.015625 6.09375 10.796875 
C 6.59375 10.59375 7.09375 10.59375 7.59375 10.59375 
C 10 10.59375 11.796875 12.1875 11.796875 14.796875 
C 11.796875 17.6875 9.59375 19 7.59375 19 
C 5.90625 19 3.296875 18.1875 3.296875 14.484375 
C 3.296875 5.234375 12.296875 -2 22.90625 -2 
C 34 -2 42.5 6.75 42.5 16.984375 
C 42.5 26.84375 34.5 34 25 35.09375 
C 32.59375 36.671875 39.90625 43.375 39.90625 52.390625 
C 39.90625 60.25 32 66 23 66 
C 13.90625 66 5.90625 60.34375 5.90625 52.296875 
C 5.90625 48.796875 8.5 48.1875 9.796875 48.1875 
C 11.90625 48.1875 13.703125 49.484375 13.703125 52.09375 
C 13.703125 54.6875 11.90625 56 9.796875 56 
C 9.40625 56 8.90625 56 8.5 55.796875 
C 11.40625 62.484375 19.296875 63.6875 22.796875 63.6875 
C 26.296875 63.6875 32.90625 61.96875 32.90625 52.296875 
C 32.90625 49.484375 32.5 44.546875 29.09375 40.21875 
C 26.09375 36.390625 22.703125 36.1875 19.40625 35.890625 
C 18.90625 35.890625 16.59375 35.6875 16.203125 35.6875 
C 15.5 35.59375 15.09375 35.5 15.09375 34.796875 
C 15.09375 34.09375 15.203125 34 17.203125 34 
z
" id="CMR17-51"/>
      </defs>
      <g transform="translate(265.310864 194.792578)scale(0.1 -0.1)">
       <use transform="scale(0.996264)" xlink:href="#CMR17-49"/>
       <use transform="translate(45.690477 0)scale(0.996264)" xlink:href="#CMR17-48"/>
       <use transform="translate(91.380954 36.153639)scale(0.697382)" xlink:href="#CMR17-51"/>
      </g>
     </g>
    </g>
    <g id="xtick_6">
     <g id="line2d_11">
      <path clip-path="url(#pe9bacec0d7)" d="M 47.369198 180.87408 
L 47.369198 5.364 
" style="fill:none;stroke:#dddddd;stroke-linecap:square;stroke-width:0.5;"/>
     </g>
     <g id="line2d_12">
      <defs>
       <path d="M 0 0 
L 0 2 
" id="m360b4179f5" style="stroke:#000000;stroke-width:0.6;"/>
      </defs>
      <g>
       <use style="stroke:#000000;stroke-width:0.6;" x="47.369198" xlink:href="#m360b4179f5" y="180.87408"/>
      </g>
     </g>
    </g>
    <g id="xtick_7">
     <g id="line2d_13">
      <path clip-path="url(#pe9bacec0d7)" d="M 50.508355 180.87408 
L 50.508355 5.364 
" style="fill:none;stroke:#dddddd;stroke-linecap:square;stroke-width:0.5;"/>
     </g>
     <g id="line2d_14">
      <g>
       <use style="stroke:#000000;stroke-width:0.6;" x="50.508355" xlink:href="#m360b4179f5" y="180.87408"/>
      </g>
     </g>
    </g>
    <g id="xtick_8">
     <g id="line2d_15">
      <path clip-path="url(#pe9bacec0d7)" d="M 53.277287 180.87408 
L 53.277287 5.364 
" style="fill:none;stroke:#dddddd;stroke-linecap:square;stroke-width:0.5;"/>
     </g>
     <g id="line2d_16">
      <g>
       <use style="stroke:#000000;stroke-width:0.6;" x="53.277287" xlink:href="#m360b4179f5" y="180.87408"/>
      </g>
     </g>
    </g>
    <g id="xtick_9">
     <g id="line2d_17">
      <path clip-path="url(#pe9bacec0d7)" d="M 72.049209 180.87408 
L 72.049209 5.364 
" style="fill:none;stroke:#dddddd;stroke-linecap:square;stroke-width:0.5;"/>
     </g>
     <g id="line2d_18">
      <g>
       <use style="stroke:#000000;stroke-width:0.6;" x="72.049209" xlink:href="#m360b4179f5" y="180.87408"/>
      </g>
     </g>
    </g>
    <g id="xtick_10">
     <g id="line2d_19">
      <path clip-path="url(#pe9bacec0d7)" d="M 81.581189 180.87408 
L 81.581189 5.364 
" style="fill:none;stroke:#dddddd;stroke-linecap:square;stroke-width:0.5;"/>
     </g>
     <g id="line2d_20">
      <g>
       <use style="stroke:#000000;stroke-width:0.6;" x="81.581189" xlink:href="#m360b4179f5" y="180.87408"/>
      </g>
     </g>
    </g>
    <g id="xtick_11">
     <g id="line2d_21">
      <path clip-path="url(#pe9bacec0d7)" d="M 88.344236 180.87408 
L 88.344236 5.364 
" style="fill:none;stroke:#dddddd;stroke-linecap:square;stroke-width:0.5;"/>
     </g>
     <g id="line2d_22">
      <g>
       <use style="stroke:#000000;stroke-width:0.6;" x="88.344236" xlink:href="#m360b4179f5" y="180.87408"/>
      </g>
     </g>
    </g>
    <g id="xtick_12">
     <g id="line2d_23">
      <path clip-path="url(#pe9bacec0d7)" d="M 93.590064 180.87408 
L 93.590064 5.364 
" style="fill:none;stroke:#dddddd;stroke-linecap:square;stroke-width:0.5;"/>
     </g>
     <g id="line2d_24">
      <g>
       <use style="stroke:#000000;stroke-width:0.6;" x="93.590064" xlink:href="#m360b4179f5" y="180.87408"/>
      </g>
     </g>
    </g>
    <g id="xtick_13">
     <g id="line2d_25">
      <path clip-path="url(#pe9bacec0d7)" d="M 97.876216 180.87408 
L 97.876216 5.364 
" style="fill:none;stroke:#dddddd;stroke-linecap:square;stroke-width:0.5;"/>
     </g>
     <g id="line2d_26">
      <g>
       <use style="stroke:#000000;stroke-width:0.6;" x="97.876216" xlink:href="#m360b4179f5" y="180.87408"/>
      </g>
     </g>
    </g>
    <g id="xtick_14">
     <g id="line2d_27">
      <path clip-path="url(#pe9bacec0d7)" d="M 101.500107 180.87408 
L 101.500107 5.364 
" style="fill:none;stroke:#dddddd;stroke-linecap:square;stroke-width:0.5;"/>
     </g>
     <g id="line2d_28">
      <g>
       <use style="stroke:#000000;stroke-width:0.6;" x="101.500107" xlink:href="#m360b4179f5" y="180.87408"/>
      </g>
     </g>
    </g>
    <g id="xtick_15">
     <g id="line2d_29">
      <path clip-path="url(#pe9bacec0d7)" d="M 104.639264 180.87408 
L 104.639264 5.364 
" style="fill:none;stroke:#dddddd;stroke-linecap:square;stroke-width:0.5;"/>
     </g>
     <g id="line2d_30">
      <g>
       <use style="stroke:#000000;stroke-width:0.6;" x="104.639264" xlink:href="#m360b4179f5" y="180.87408"/>
      </g>
     </g>
    </g>
    <g id="xtick_16">
     <g id="line2d_31">
      <path clip-path="url(#pe9bacec0d7)" d="M 107.408196 180.87408 
L 107.408196 5.364 
" style="fill:none;stroke:#dddddd;stroke-linecap:square;stroke-width:0.5;"/>
     </g>
     <g id="line2d_32">
      <g>
       <use style="stroke:#000000;stroke-width:0.6;" x="107.408196" xlink:href="#m360b4179f5" y="180.87408"/>
      </g>
     </g>
    </g>
    <g id="xtick_17">
     <g id="line2d_33">
      <path clip-path="url(#pe9bacec0d7)" d="M 126.180118 180.87408 
L 126.180118 5.364 
" style="fill:none;stroke:#dddddd;stroke-linecap:square;stroke-width:0.5;"/>
     </g>
     <g id="line2d_34">
      <g>
       <use style="stroke:#000000;stroke-width:0.6;" x="126.180118" xlink:href="#m360b4179f5" y="180.87408"/>
      </g>
     </g>
    </g>
    <g id="xtick_18">
     <g id="line2d_35">
      <path clip-path="url(#pe9bacec0d7)" d="M 135.712098 180.87408 
L 135.712098 5.364 
" style="fill:none;stroke:#dddddd;stroke-linecap:square;stroke-width:0.5;"/>
     </g>
     <g id="line2d_36">
      <g>
       <use style="stroke:#000000;stroke-width:0.6;" x="135.712098" xlink:href="#m360b4179f5" y="180.87408"/>
      </g>
     </g>
    </g>
    <g id="xtick_19">
     <g id="line2d_37">
      <path clip-path="url(#pe9bacec0d7)" d="M 142.475146 180.87408 
L 142.475146 5.364 
" style="fill:none;stroke:#dddddd;stroke-linecap:square;stroke-width:0.5;"/>
     </g>
     <g id="line2d_38">
      <g>
       <use style="stroke:#000000;stroke-width:0.6;" x="142.475146" xlink:href="#m360b4179f5" y="180.87408"/>
      </g>
     </g>
    </g>
    <g id="xtick_20">
     <g id="line2d_39">
      <path clip-path="url(#pe9bacec0d7)" d="M 147.720973 180.87408 
L 147.720973 5.364 
" style="fill:none;stroke:#dddddd;stroke-linecap:square;stroke-width:0.5;"/>
     </g>
     <g id="line2d_40">
      <g>
       <use style="stroke:#000000;stroke-width:0.6;" x="147.720973" xlink:href="#m360b4179f5" y="180.87408"/>
      </g>
     </g>
    </g>
    <g id="xtick_21">
     <g id="line2d_41">
      <path clip-path="url(#pe9bacec0d7)" d="M 152.007126 180.87408 
L 152.007126 5.364 
" style="fill:none;stroke:#dddddd;stroke-linecap:square;stroke-width:0.5;"/>
     </g>
     <g id="line2d_42">
      <g>
       <use style="stroke:#000000;stroke-width:0.6;" x="152.007126" xlink:href="#m360b4179f5" y="180.87408"/>
      </g>
     </g>
    </g>
    <g id="xtick_22">
     <g id="line2d_43">
      <path clip-path="url(#pe9bacec0d7)" d="M 155.631016 180.87408 
L 155.631016 5.364 
" style="fill:none;stroke:#dddddd;stroke-linecap:square;stroke-width:0.5;"/>
     </g>
     <g id="line2d_44">
      <g>
       <use style="stroke:#000000;stroke-width:0.6;" x="155.631016" xlink:href="#m360b4179f5" y="180.87408"/>
      </g>
     </g>
    </g>
    <g id="xtick_23">
     <g id="line2d_45">
      <path clip-path="url(#pe9bacec0d7)" d="M 158.770173 180.87408 
L 158.770173 5.364 
" style="fill:none;stroke:#dddddd;stroke-linecap:square;stroke-width:0.5;"/>
     </g>
     <g id="line2d_46">
      <g>
       <use style="stroke:#000000;stroke-width:0.6;" x="158.770173" xlink:href="#m360b4179f5" y="180.87408"/>
      </g>
     </g>
    </g>
    <g id="xtick_24">
     <g id="line2d_47">
      <path clip-path="url(#pe9bacec0d7)" d="M 161.539105 180.87408 
L 161.539105 5.364 
" style="fill:none;stroke:#dddddd;stroke-linecap:square;stroke-width:0.5;"/>
     </g>
     <g id="line2d_48">
      <g>
       <use style="stroke:#000000;stroke-width:0.6;" x="161.539105" xlink:href="#m360b4179f5" y="180.87408"/>
      </g>
     </g>
    </g>
    <g id="xtick_25">
     <g id="line2d_49">
      <path clip-path="url(#pe9bacec0d7)" d="M 180.311027 180.87408 
L 180.311027 5.364 
" style="fill:none;stroke:#dddddd;stroke-linecap:square;stroke-width:0.5;"/>
     </g>
     <g id="line2d_50">
      <g>
       <use style="stroke:#000000;stroke-width:0.6;" x="180.311027" xlink:href="#m360b4179f5" y="180.87408"/>
      </g>
     </g>
    </g>
    <g id="xtick_26">
     <g id="line2d_51">
      <path clip-path="url(#pe9bacec0d7)" d="M 189.843007 180.87408 
L 189.843007 5.364 
" style="fill:none;stroke:#dddddd;stroke-linecap:square;stroke-width:0.5;"/>
     </g>
     <g id="line2d_52">
      <g>
       <use style="stroke:#000000;stroke-width:0.6;" x="189.843007" xlink:href="#m360b4179f5" y="180.87408"/>
      </g>
     </g>
    </g>
    <g id="xtick_27">
     <g id="line2d_53">
      <path clip-path="url(#pe9bacec0d7)" d="M 196.606055 180.87408 
L 196.606055 5.364 
" style="fill:none;stroke:#dddddd;stroke-linecap:square;stroke-width:0.5;"/>
     </g>
     <g id="line2d_54">
      <g>
       <use style="stroke:#000000;stroke-width:0.6;" x="196.606055" xlink:href="#m360b4179f5" y="180.87408"/>
      </g>
     </g>
    </g>
    <g id="xtick_28">
     <g id="line2d_55">
      <path clip-path="url(#pe9bacec0d7)" d="M 201.851882 180.87408 
L 201.851882 5.364 
" style="fill:none;stroke:#dddddd;stroke-linecap:square;stroke-width:0.5;"/>
     </g>
     <g id="line2d_56">
      <g>
       <use style="stroke:#000000;stroke-width:0.6;" x="201.851882" xlink:href="#m360b4179f5" y="180.87408"/>
      </g>
     </g>
    </g>
    <g id="xtick_29">
     <g id="line2d_57">
      <path clip-path="url(#pe9bacec0d7)" d="M 206.138035 180.87408 
L 206.138035 5.364 
" style="fill:none;stroke:#dddddd;stroke-linecap:square;stroke-width:0.5;"/>
     </g>
     <g id="line2d_58">
      <g>
       <use style="stroke:#000000;stroke-width:0.6;" x="206.138035" xlink:href="#m360b4179f5" y="180.87408"/>
      </g>
     </g>
    </g>
    <g id="xtick_30">
     <g id="line2d_59">
      <path clip-path="url(#pe9bacec0d7)" d="M 209.761925 180.87408 
L 209.761925 5.364 
" style="fill:none;stroke:#dddddd;stroke-linecap:square;stroke-width:0.5;"/>
     </g>
     <g id="line2d_60">
      <g>
       <use style="stroke:#000000;stroke-width:0.6;" x="209.761925" xlink:href="#m360b4179f5" y="180.87408"/>
      </g>
     </g>
    </g>
    <g id="xtick_31">
     <g id="line2d_61">
      <path clip-path="url(#pe9bacec0d7)" d="M 212.901082 180.87408 
L 212.901082 5.364 
" style="fill:none;stroke:#dddddd;stroke-linecap:square;stroke-width:0.5;"/>
     </g>
     <g id="line2d_62">
      <g>
       <use style="stroke:#000000;stroke-width:0.6;" x="212.901082" xlink:href="#m360b4179f5" y="180.87408"/>
      </g>
     </g>
    </g>
    <g id="xtick_32">
     <g id="line2d_63">
      <path clip-path="url(#pe9bacec0d7)" d="M 215.670015 180.87408 
L 215.670015 5.364 
" style="fill:none;stroke:#dddddd;stroke-linecap:square;stroke-width:0.5;"/>
     </g>
     <g id="line2d_64">
      <g>
       <use style="stroke:#000000;stroke-width:0.6;" x="215.670015" xlink:href="#m360b4179f5" y="180.87408"/>
      </g>
     </g>
    </g>
    <g id="xtick_33">
     <g id="line2d_65">
      <path clip-path="url(#pe9bacec0d7)" d="M 234.441936 180.87408 
L 234.441936 5.364 
" style="fill:none;stroke:#dddddd;stroke-linecap:square;stroke-width:0.5;"/>
     </g>
     <g id="line2d_66">
      <g>
       <use style="stroke:#000000;stroke-width:0.6;" x="234.441936" xlink:href="#m360b4179f5" y="180.87408"/>
      </g>
     </g>
    </g>
    <g id="xtick_34">
     <g id="line2d_67">
      <path clip-path="url(#pe9bacec0d7)" d="M 243.973916 180.87408 
L 243.973916 5.364 
" style="fill:none;stroke:#dddddd;stroke-linecap:square;stroke-width:0.5;"/>
     </g>
     <g id="line2d_68">
      <g>
       <use style="stroke:#000000;stroke-width:0.6;" x="243.973916" xlink:href="#m360b4179f5" y="180.87408"/>
      </g>
     </g>
    </g>
    <g id="xtick_35">
     <g id="line2d_69">
      <path clip-path="url(#pe9bacec0d7)" d="M 250.736964 180.87408 
L 250.736964 5.364 
" style="fill:none;stroke:#dddddd;stroke-linecap:square;stroke-width:0.5;"/>
     </g>
     <g id="line2d_70">
      <g>
       <use style="stroke:#000000;stroke-width:0.6;" x="250.736964" xlink:href="#m360b4179f5" y="180.87408"/>
      </g>
     </g>
    </g>
    <g id="xtick_36">
     <g id="line2d_71">
      <path clip-path="url(#pe9bacec0d7)" d="M 255.982791 180.87408 
L 255.982791 5.364 
" style="fill:none;stroke:#dddddd;stroke-linecap:square;stroke-width:0.5;"/>
     </g>
     <g id="line2d_72">
      <g>
       <use style="stroke:#000000;stroke-width:0.6;" x="255.982791" xlink:href="#m360b4179f5" y="180.87408"/>
      </g>
     </g>
    </g>
    <g id="xtick_37">
     <g id="line2d_73">
      <path clip-path="url(#pe9bacec0d7)" d="M 260.268944 180.87408 
L 260.268944 5.364 
" style="fill:none;stroke:#dddddd;stroke-linecap:square;stroke-width:0.5;"/>
     </g>
     <g id="line2d_74">
      <g>
       <use style="stroke:#000000;stroke-width:0.6;" x="260.268944" xlink:href="#m360b4179f5" y="180.87408"/>
      </g>
     </g>
    </g>
    <g id="xtick_38">
     <g id="line2d_75">
      <path clip-path="url(#pe9bacec0d7)" d="M 263.892834 180.87408 
L 263.892834 5.364 
" style="fill:none;stroke:#dddddd;stroke-linecap:square;stroke-width:0.5;"/>
     </g>
     <g id="line2d_76">
      <g>
       <use style="stroke:#000000;stroke-width:0.6;" x="263.892834" xlink:href="#m360b4179f5" y="180.87408"/>
      </g>
     </g>
    </g>
    <g id="xtick_39">
     <g id="line2d_77">
      <path clip-path="url(#pe9bacec0d7)" d="M 267.031991 180.87408 
L 267.031991 5.364 
" style="fill:none;stroke:#dddddd;stroke-linecap:square;stroke-width:0.5;"/>
     </g>
     <g id="line2d_78">
      <g>
       <use style="stroke:#000000;stroke-width:0.6;" x="267.031991" xlink:href="#m360b4179f5" y="180.87408"/>
      </g>
     </g>
    </g>
    <g id="xtick_40">
     <g id="line2d_79">
      <path clip-path="url(#pe9bacec0d7)" d="M 269.800924 180.87408 
L 269.800924 5.364 
" style="fill:none;stroke:#dddddd;stroke-linecap:square;stroke-width:0.5;"/>
     </g>
     <g id="line2d_80">
      <g>
       <use style="stroke:#000000;stroke-width:0.6;" x="269.800924" xlink:href="#m360b4179f5" y="180.87408"/>
      </g>
     </g>
    </g>
    <g id="text_6">
     <!-- fluctuator rate $\gamma$ [$\textrm{ns}^{-1}$] -->
     <defs>
      <path d="M 39.90625 69.1875 
C 38.796875 68.984375 37.90625 68.796875 36.59375 68.484375 
C 33.703125 70 29.90625 70 28.90625 70 
C 20.40625 70 9.90625 65.21875 9.90625 54.59375 
L 9.90625 43 
L 1.90625 43 
L 1.90625 40.390625 
L 9.90625 40.390625 
L 9.90625 6.890625 
C 9.90625 3.09375 9.5 2.59375 3.09375 2.59375 
L 3.09375 0 
C 5.5 0.1875 9.90625 0.1875 12.40625 0.1875 
C 15 0.1875 19.40625 0.1875 21.796875 0 
L 21.796875 2.59375 
C 15.40625 2.59375 15 3 15 6.890625 
L 15 40.390625 
L 34.796875 40.390625 
L 34.796875 6.890625 
C 34.796875 3.09375 34.40625 2.59375 28 2.59375 
L 28 0 
C 30.40625 0.1875 34.796875 0.1875 37.296875 0.1875 
C 39.90625 0.1875 44.296875 0.1875 46.703125 0 
L 46.703125 2.59375 
C 40.296875 2.59375 39.90625 3 39.90625 6.890625 
z
M 14.796875 43 
L 14.796875 54.59375 
C 14.796875 63.328125 21.40625 68.390625 28.703125 68.390625 
C 29.203125 68.390625 34.703125 68.1875 34.703125 67.203125 
C 34.703125 67.09375 34.59375 67 34.09375 66.5 
C 33.203125 65.90625 32.796875 64.921875 32.796875 63.921875 
C 32.796875 62.53125 33.5 61.34375 34.796875 60.84375 
L 34.796875 43 
z
" id="CMR17-13"/>
      <path d="M 29.40625 42.890625 
L 29.40625 40.296875 
C 35.296875 40.296875 36.203125 39.6875 36.203125 34.828125 
L 36.203125 16.453125 
C 36.203125 7.96875 31.703125 0.59375 24.296875 0.59375 
C 16.09375 0.59375 15.40625 5.546875 15.40625 10.796875 
L 15.40625 44 
L 3.296875 42.890625 
L 3.296875 40.296875 
C 7.296875 40.296875 10 40.296875 10.09375 36.25 
L 10.09375 16.859375 
C 10.09375 10.09375 10.09375 5.75 12.703125 2.921875 
C 14 1.609375 16.5 -1 23.703125 -1 
C 32.203125 -1 35.5 6.25 36.296875 8.375 
L 36.40625 8.375 
L 36.40625 -1 
L 48.296875 -0.203125 
L 48.296875 2.40625 
C 42.40625 2.40625 41.5 3.015625 41.5 7.859375 
L 41.5 44 
z
" id="CMR17-117"/>
      <path d="M 34.90625 35 
C 33 35 30.203125 35 30.203125 31.484375 
C 30.203125 28.6875 32.5 27.890625 33.796875 27.890625 
C 34.5 27.890625 37.40625 28.1875 37.40625 31.6875 
C 37.40625 38.6875 30.59375 44 22.90625 44 
C 12.296875 44 3.296875 34.390625 3.296875 21.546875 
C 3.296875 8.140625 12.703125 -1 22.90625 -1 
C 35.296875 -1 38.40625 10.5625 38.40625 11.671875 
C 38.40625 12.078125 38.296875 12.375 37.59375 12.375 
C 36.90625 12.375 36.796875 12.28125 36.40625 10.96875 
C 33.796875 2.8125 28.09375 0.796875 23.796875 0.796875 
C 17.40625 0.796875 9.703125 6.734375 9.703125 21.640625 
C 9.703125 36.84375 17.09375 42.1875 23 42.1875 
C 26.90625 42.1875 32.703125 40.34375 34.90625 35 
z
" id="CMR17-99"/>
      <path d="M 15.09375 40.390625 
L 29.09375 40.390625 
L 29.09375 43 
L 15.09375 43 
L 15.09375 62 
L 13.296875 62 
C 13.09375 51.4375 9.59375 42.1875 1.09375 41.984375 
L 1.09375 40.390625 
L 9.796875 40.390625 
L 9.796875 12.15625 
C 9.796875 10.234375 9.796875 -1 21.40625 -1 
C 27.296875 -1 30.703125 4.8125 30.703125 12.25 
L 30.703125 17.984375 
L 28.90625 17.984375 
L 28.90625 12.34375 
C 28.90625 5.421875 26.203125 0.796875 22 0.796875 
C 19.09375 0.796875 15.09375 2.796875 15.09375 11.953125 
z
" id="CMR17-116"/>
      <path d="M 36 25.875 
C 36 32 36 35.546875 31.796875 39.59375 
C 28.09375 42.984375 23.796875 44 20.40625 44 
C 12.5 44 6.796875 37.625 6.796875 30.890625 
C 6.796875 27.1875 9.796875 27 10.40625 27 
C 11.703125 27 14 27.796875 14 30.59375 
C 14 33.09375 12.09375 34.1875 10.40625 34.1875 
C 10 34.1875 9.5 34.09375 9.203125 34 
C 11.296875 40.53125 16.703125 42.390625 20.203125 42.390625 
C 25.203125 42.390625 30.703125 37.828125 30.703125 29.296875 
L 30.703125 25.5 
C 24.796875 25.296875 17.703125 24.5 12.09375 21.453125 
C 5.796875 17.921875 4 12.84375 4 9 
C 4 1.203125 13 -1 18.296875 -1 
C 23.796875 -1 28.90625 2.109375 31.09375 7.890625 
C 31.296875 3.421875 34.09375 -0.609375 38.5 -0.609375 
C 40.59375 -0.609375 45.90625 0.796875 45.90625 8.796875 
L 45.90625 14.46875 
L 44.09375 14.46875 
L 44.09375 8.703125 
C 44.09375 2.515625 41.40625 1.703125 40.09375 1.703125 
C 36 1.703125 36 6.96875 36 11.4375 
z
M 30.703125 13.859375 
C 30.703125 5.046875 24.5 0.59375 19 0.59375 
C 14 0.59375 10.09375 4.34375 10.09375 9 
C 10.09375 12.046875 11.40625 17.40625 17.203125 20.65625 
C 22 23.390625 27.5 23.796875 30.703125 24 
z
" id="CMR17-97"/>
      <path d="M 43.09375 21.1875 
C 43.09375 34 33.796875 44 22.90625 44 
C 12 44 2.703125 34 2.703125 21.1875 
C 2.703125 8.59375 12 -1 22.90625 -1 
C 33.796875 -1 43.09375 8.59375 43.09375 21.1875 
z
M 22.90625 0.796875 
C 18.203125 0.796875 14.203125 3.59375 11.90625 7.5 
C 9.40625 12 9.09375 17.59375 9.09375 22 
C 9.09375 26.1875 9.296875 31.390625 11.90625 35.890625 
C 13.90625 39.1875 17.796875 42.390625 22.90625 42.390625 
C 27.40625 42.390625 31.203125 39.890625 33.59375 36.390625 
C 36.703125 31.6875 36.703125 25.09375 36.703125 22 
C 36.703125 18.09375 36.5 12.09375 33.796875 7.296875 
C 31 2.6875 26.703125 0.796875 22.90625 0.796875 
z
" id="CMR17-111"/>
      <path d="M 15 23.703125 
C 15 33.34375 19.09375 42.390625 26.59375 42.390625 
C 27.296875 42.390625 28 42.296875 28.703125 41.984375 
C 28.703125 41.984375 26.5 41.28125 26.5 38.671875 
C 26.5 36.265625 28.40625 35.265625 29.90625 35.265625 
C 31.09375 35.265625 33.296875 35.96875 33.296875 38.78125 
C 33.296875 41.984375 30.09375 44 26.703125 44 
C 19.09375 44 15.796875 36.5625 14.796875 33.046875 
L 14.703125 33.046875 
L 14.703125 44 
L 3.09375 42.890625 
L 3.09375 40.28125 
C 9 40.28125 9.90625 39.6875 9.90625 34.859375 
L 9.90625 6.921875 
C 9.90625 3.09375 9.5 2.59375 3.09375 2.59375 
L 3.09375 0 
C 5.5 0.1875 10.09375 0.1875 12.703125 0.1875 
C 15.59375 0.1875 20.703125 0.1875 23.40625 0 
L 23.40625 2.59375 
C 16.203125 2.59375 15 2.59375 15 7.109375 
z
" id="CMR17-114"/>
      <path d="M 38.09375 23.484375 
C 38.5 23.890625 38.5 24.09375 38.5 25.09375 
C 38.5 35.171875 33.09375 44 21.703125 44 
C 11.09375 44 2.703125 33.984375 2.703125 21.78125 
C 2.703125 8.65625 12.203125 -1 22.796875 -1 
C 34 -1 38.40625 9.671875 38.40625 11.796875 
C 38.40625 12.5 37.796875 12.5 37.59375 12.5 
C 36.90625 12.5 36.796875 12.296875 36.40625 11.078125 
C 34.203125 4.21875 28.703125 0.796875 23.5 0.796875 
C 19.203125 0.796875 14.90625 3.21875 12.203125 7.65625 
C 9.09375 12.796875 9.09375 18.75 9.09375 23.484375 
z
M 9.203125 25 
C 9.90625 39.234375 17.59375 42.390625 21.59375 42.390625 
C 28.40625 42.390625 33 36.0625 33.09375 25 
z
" id="CMR17-101"/>
      <path d="M 37.796875 12.265625 
C 37.59375 17.140625 37.40625 24.78125 33.59375 33.71875 
C 31.59375 38.6875 28.203125 44 20.90625 44 
C 8.59375 44 1.90625 28.359375 1.90625 25.765625 
C 1.90625 24.875 2.59375 24.875 2.90625 24.875 
C 3.796875 24.875 3.796875 25.078125 4.296875 26.375 
C 6.40625 32.515625 12.796875 37.390625 19.703125 37.390625 
C 33.59375 37.390625 35.59375 22 35.59375 12.171875 
C 35.59375 5.90625 34.90625 3.828125 34.296875 1.84375 
C 32.40625 -4.3125 29.09375 -16.625 29.09375 -19.40625 
C 29.09375 -20.203125 29.40625 -21.109375 30.203125 -21.109375 
C 31.703125 -21.109375 32.59375 -17.8125 33.703125 -13.84375 
C 36.09375 -5.109375 36.703125 -0.734375 37.203125 3.234375 
C 37.5 5.625 43.203125 22.015625 51.09375 37.609375 
C 51.796875 39.203125 53.203125 41.890625 53.203125 42.1875 
C 53.203125 42.296875 53.09375 43 52.203125 43 
C 52 43 51.5 43 51.296875 42.59375 
C 51.09375 42.390625 47.59375 35.625 44.59375 28.875 
C 43.09375 25.46875 41.09375 21 37.796875 12.265625 
z
" id="CMMI12-13"/>
      <path d="M 23.5 -25 
L 23.5 -21.5 
L 14.09375 -21.5 
L 14.09375 71.484375 
L 23.5 71.484375 
L 23.5 75 
L 10.59375 75 
L 10.59375 -25 
z
" id="CMR17-91"/>
      <path d="M 41.5 30.53125 
C 41.5 35.65625 40.5 44 28.703125 44 
C 20.796875 44 16.703125 37.875 15.203125 33.84375 
L 15.09375 33.84375 
L 15.09375 44 
L 3.296875 42.890625 
L 3.296875 40.28125 
C 9.203125 40.28125 10.09375 39.6875 10.09375 34.859375 
L 10.09375 6.921875 
C 10.09375 3.09375 9.703125 2.59375 3.296875 2.59375 
L 3.296875 0 
C 5.703125 0.1875 10.09375 0.1875 12.703125 0.1875 
C 15.296875 0.1875 19.796875 0.1875 22.203125 0 
L 22.203125 2.59375 
C 15.796875 2.59375 15.40625 3 15.40625 6.921875 
L 15.40625 26.21875 
C 15.40625 35.453125 21 42.390625 28 42.390625 
C 35.40625 42.390625 36.203125 35.765625 36.203125 30.9375 
L 36.203125 6.921875 
C 36.203125 3.09375 35.796875 2.59375 29.40625 2.59375 
L 29.40625 0 
C 31.796875 0.1875 36.203125 0.1875 38.796875 0.1875 
C 41.40625 0.1875 45.90625 0.1875 48.296875 0 
L 48.296875 2.59375 
C 41.90625 2.59375 41.5 3 41.5 6.921875 
z
" id="CMR17-110"/>
      <path d="M 30.90625 42 
C 30.90625 43.796875 30.796875 43.890625 30.203125 43.890625 
C 29.796875 43.890625 29.703125 43.796875 28.5 42.296875 
C 28.203125 41.890625 27.296875 40.890625 27 40.5 
C 23.796875 43.890625 19.296875 44 17.59375 44 
C 6.5 44 2.5 38.1875 2.5 32.390625 
C 2.5 23.390625 12.703125 21.296875 15.59375 20.6875 
C 21.90625 19.390625 24.09375 19 26.203125 17.1875 
C 27.5 16 29.703125 13.796875 29.703125 10.1875 
C 29.703125 6 27.296875 0.59375 18.09375 0.59375 
C 9.40625 0.59375 6.296875 7.1875 4.5 16 
C 4.203125 17.390625 4.203125 17.5 3.40625 17.5 
C 2.59375 17.5 2.5 17.390625 2.5 15.390625 
L 2.5 1 
C 2.5 -0.8125 2.59375 -0.90625 3.203125 -0.90625 
C 3.703125 -0.90625 3.796875 -0.8125 4.296875 0 
C 4.90625 0.890625 6.40625 3.296875 7 4.296875 
C 9 1.59375 12.5 -1 18.09375 -1 
C 28 -1 33.296875 4.390625 33.296875 12.1875 
C 33.296875 17.296875 30.59375 20 29.296875 21.1875 
C 26.296875 24.296875 22.796875 25 18.59375 25.796875 
C 13.09375 27 6.09375 28.390625 6.09375 34.5 
C 6.09375 37.09375 7.5 42.59375 17.59375 42.59375 
C 28.296875 42.59375 28.90625 32.59375 29.09375 29.390625 
C 29.203125 28.890625 29.703125 28.796875 30 28.796875 
C 30.90625 28.796875 30.90625 29.09375 30.90625 30.796875 
z
" id="CMR17-115"/>
      <path d="M 14.296875 75 
L 1.40625 75 
L 1.40625 71.484375 
L 10.796875 71.484375 
L 10.796875 -21.5 
L 1.40625 -21.5 
L 1.40625 -25 
L 14.296875 -25 
z
" id="CMR17-93"/>
     </defs>
     <g transform="translate(113.415621 208.839376)scale(0.1 -0.1)">
      <use transform="scale(0.996264)" xlink:href="#CMR17-13"/>
      <use transform="translate(49.742223 0)scale(0.996264)" xlink:href="#CMR17-117"/>
      <use transform="translate(100.637593 0)scale(0.996264)" xlink:href="#CMR17-99"/>
      <use transform="translate(141.123254 0)scale(0.996264)" xlink:href="#CMR17-116"/>
      <use transform="translate(176.404021 0)scale(0.996264)" xlink:href="#CMR17-117"/>
      <use transform="translate(227.299391 0)scale(0.996264)" xlink:href="#CMR17-97"/>
      <use transform="translate(272.989868 0)scale(0.996264)" xlink:href="#CMR17-116"/>
      <use transform="translate(308.270636 0)scale(0.996264)" xlink:href="#CMR17-111"/>
      <use transform="translate(353.961113 0)scale(0.996264)" xlink:href="#CMR17-114"/>
      <use transform="translate(419.317847 0)scale(0.996264)" xlink:href="#CMR17-114"/>
      <use transform="translate(454.598615 0)scale(0.996264)" xlink:href="#CMR17-97"/>
      <use transform="translate(500.289092 0)scale(0.996264)" xlink:href="#CMR17-116"/>
      <use transform="translate(535.56986 0)scale(0.996264)" xlink:href="#CMR17-101"/>
      <use transform="translate(606.131487 0)scale(0.996264)" xlink:href="#CMMI12-13"/>
      <use transform="translate(692.226021 0)scale(0.996264)" xlink:href="#CMR17-91"/>
      <use transform="translate(717.09708 0)scale(0.996264)" xlink:href="#CMR17-110"/>
      <use transform="translate(767.99245 0)scale(0.996264)" xlink:href="#CMR17-115"/>
      <use transform="translate(803.793787 36.153639)scale(0.697382)" xlink:href="#CMSY10-0"/>
      <use transform="translate(858.03478 36.153639)scale(0.697382)" xlink:href="#CMR17-49"/>
      <use transform="translate(890.516094 0)scale(0.996264)" xlink:href="#CMR17-93"/>
     </g>
    </g>
   </g>
   <g id="matplotlib.axis_2">
    <g id="ytick_1">
     <g id="line2d_81">
      <path clip-path="url(#pe9bacec0d7)" d="M 44.928 150.838565 
L 283.104 150.838565 
" style="fill:none;stroke:#dddddd;stroke-linecap:square;stroke-width:0.5;"/>
     </g>
     <g id="line2d_82">
      <defs>
       <path d="M 0 0 
L -3.5 0 
" id="m4f483e345b" style="stroke:#000000;stroke-width:0.8;"/>
      </defs>
      <g>
       <use style="stroke:#000000;stroke-width:0.8;" x="44.928" xlink:href="#m4f483e345b" y="150.838565"/>
      </g>
     </g>
     <g id="text_7">
      <!-- $\mathdefault{10^{-4}}$ -->
      <defs>
       <path d="M 33.59375 64.796875 
C 33.59375 66.890625 33.5 67 31.703125 67 
L 2 19.59375 
L 2 17 
L 27.796875 17 
L 27.796875 7.1875 
C 27.796875 3.59375 27.59375 2.59375 20.59375 2.59375 
L 18.703125 2.59375 
L 18.703125 0 
C 21.90625 0.1875 27.296875 0.1875 30.703125 0.1875 
C 34.09375 0.1875 39.5 0.1875 42.703125 0 
L 42.703125 2.59375 
L 40.796875 2.59375 
C 33.796875 2.59375 33.59375 3.59375 33.59375 7.1875 
L 33.59375 17 
L 43.796875 17 
L 43.796875 19.59375 
L 33.59375 19.59375 
z
M 28.09375 58.171875 
L 28.09375 19.59375 
L 4 19.59375 
z
" id="CMR17-52"/>
      </defs>
      <g transform="translate(17.767427 154.297814)scale(0.1 -0.1)">
       <use transform="scale(0.996264)" xlink:href="#CMR17-49"/>
       <use transform="translate(45.690477 0)scale(0.996264)" xlink:href="#CMR17-48"/>
       <use transform="translate(91.380954 36.153639)scale(0.697382)" xlink:href="#CMSY10-0"/>
       <use transform="translate(145.621947 36.153639)scale(0.697382)" xlink:href="#CMR17-52"/>
      </g>
     </g>
    </g>
    <g id="ytick_2">
     <g id="line2d_83">
      <path clip-path="url(#pe9bacec0d7)" d="M 44.928 93.954465 
L 283.104 93.954465 
" style="fill:none;stroke:#dddddd;stroke-linecap:square;stroke-width:0.5;"/>
     </g>
     <g id="line2d_84">
      <g>
       <use style="stroke:#000000;stroke-width:0.8;" x="44.928" xlink:href="#m4f483e345b" y="93.954465"/>
      </g>
     </g>
     <g id="text_8">
      <!-- $\mathdefault{10^{-3}}$ -->
      <g transform="translate(17.767427 97.413714)scale(0.1 -0.1)">
       <use transform="scale(0.996264)" xlink:href="#CMR17-49"/>
       <use transform="translate(45.690477 0)scale(0.996264)" xlink:href="#CMR17-48"/>
       <use transform="translate(91.380954 36.153639)scale(0.697382)" xlink:href="#CMSY10-0"/>
       <use transform="translate(145.621947 36.153639)scale(0.697382)" xlink:href="#CMR17-51"/>
      </g>
     </g>
    </g>
    <g id="ytick_3">
     <g id="line2d_85">
      <path clip-path="url(#pe9bacec0d7)" d="M 44.928 37.070366 
L 283.104 37.070366 
" style="fill:none;stroke:#dddddd;stroke-linecap:square;stroke-width:0.5;"/>
     </g>
     <g id="line2d_86">
      <g>
       <use style="stroke:#000000;stroke-width:0.8;" x="44.928" xlink:href="#m4f483e345b" y="37.070366"/>
      </g>
     </g>
     <g id="text_9">
      <!-- $\mathdefault{10^{-2}}$ -->
      <g transform="translate(17.767427 40.529615)scale(0.1 -0.1)">
       <use transform="scale(0.996264)" xlink:href="#CMR17-49"/>
       <use transform="translate(45.690477 0)scale(0.996264)" xlink:href="#CMR17-48"/>
       <use transform="translate(91.380954 36.153639)scale(0.697382)" xlink:href="#CMSY10-0"/>
       <use transform="translate(145.621947 36.153639)scale(0.697382)" xlink:href="#CMR17-50"/>
      </g>
     </g>
    </g>
    <g id="ytick_4">
     <g id="line2d_87">
      <path clip-path="url(#pe9bacec0d7)" d="M 44.928 180.582051 
L 283.104 180.582051 
" style="fill:none;stroke:#dddddd;stroke-linecap:square;stroke-width:0.5;"/>
     </g>
     <g id="line2d_88">
      <defs>
       <path d="M 0 0 
L -2 0 
" id="m5961f36441" style="stroke:#000000;stroke-width:0.6;"/>
      </defs>
      <g>
       <use style="stroke:#000000;stroke-width:0.6;" x="44.928" xlink:href="#m5961f36441" y="180.582051"/>
      </g>
     </g>
    </g>
    <g id="ytick_5">
     <g id="line2d_89">
      <path clip-path="url(#pe9bacec0d7)" d="M 44.928 173.475024 
L 283.104 173.475024 
" style="fill:none;stroke:#dddddd;stroke-linecap:square;stroke-width:0.5;"/>
     </g>
     <g id="line2d_90">
      <g>
       <use style="stroke:#000000;stroke-width:0.6;" x="44.928" xlink:href="#m5961f36441" y="173.475024"/>
      </g>
     </g>
    </g>
    <g id="ytick_6">
     <g id="line2d_91">
      <path clip-path="url(#pe9bacec0d7)" d="M 44.928 167.962385 
L 283.104 167.962385 
" style="fill:none;stroke:#dddddd;stroke-linecap:square;stroke-width:0.5;"/>
     </g>
     <g id="line2d_92">
      <g>
       <use style="stroke:#000000;stroke-width:0.6;" x="44.928" xlink:href="#m5961f36441" y="167.962385"/>
      </g>
     </g>
    </g>
    <g id="ytick_7">
     <g id="line2d_93">
      <path clip-path="url(#pe9bacec0d7)" d="M 44.928 163.458231 
L 283.104 163.458231 
" style="fill:none;stroke:#dddddd;stroke-linecap:square;stroke-width:0.5;"/>
     </g>
     <g id="line2d_94">
      <g>
       <use style="stroke:#000000;stroke-width:0.6;" x="44.928" xlink:href="#m5961f36441" y="163.458231"/>
      </g>
     </g>
    </g>
    <g id="ytick_8">
     <g id="line2d_95">
      <path clip-path="url(#pe9bacec0d7)" d="M 44.928 159.650023 
L 283.104 159.650023 
" style="fill:none;stroke:#dddddd;stroke-linecap:square;stroke-width:0.5;"/>
     </g>
     <g id="line2d_96">
      <g>
       <use style="stroke:#000000;stroke-width:0.6;" x="44.928" xlink:href="#m5961f36441" y="159.650023"/>
      </g>
     </g>
    </g>
    <g id="ytick_9">
     <g id="line2d_97">
      <path clip-path="url(#pe9bacec0d7)" d="M 44.928 156.351204 
L 283.104 156.351204 
" style="fill:none;stroke:#dddddd;stroke-linecap:square;stroke-width:0.5;"/>
     </g>
     <g id="line2d_98">
      <g>
       <use style="stroke:#000000;stroke-width:0.6;" x="44.928" xlink:href="#m5961f36441" y="156.351204"/>
      </g>
     </g>
    </g>
    <g id="ytick_10">
     <g id="line2d_99">
      <path clip-path="url(#pe9bacec0d7)" d="M 44.928 153.441438 
L 283.104 153.441438 
" style="fill:none;stroke:#dddddd;stroke-linecap:square;stroke-width:0.5;"/>
     </g>
     <g id="line2d_100">
      <g>
       <use style="stroke:#000000;stroke-width:0.6;" x="44.928" xlink:href="#m5961f36441" y="153.441438"/>
      </g>
     </g>
    </g>
    <g id="ytick_11">
     <g id="line2d_101">
      <path clip-path="url(#pe9bacec0d7)" d="M 44.928 133.714745 
L 283.104 133.714745 
" style="fill:none;stroke:#dddddd;stroke-linecap:square;stroke-width:0.5;"/>
     </g>
     <g id="line2d_102">
      <g>
       <use style="stroke:#000000;stroke-width:0.6;" x="44.928" xlink:href="#m5961f36441" y="133.714745"/>
      </g>
     </g>
    </g>
    <g id="ytick_12">
     <g id="line2d_103">
      <path clip-path="url(#pe9bacec0d7)" d="M 44.928 123.697952 
L 283.104 123.697952 
" style="fill:none;stroke:#dddddd;stroke-linecap:square;stroke-width:0.5;"/>
     </g>
     <g id="line2d_104">
      <g>
       <use style="stroke:#000000;stroke-width:0.6;" x="44.928" xlink:href="#m5961f36441" y="123.697952"/>
      </g>
     </g>
    </g>
    <g id="ytick_13">
     <g id="line2d_105">
      <path clip-path="url(#pe9bacec0d7)" d="M 44.928 116.590924 
L 283.104 116.590924 
" style="fill:none;stroke:#dddddd;stroke-linecap:square;stroke-width:0.5;"/>
     </g>
     <g id="line2d_106">
      <g>
       <use style="stroke:#000000;stroke-width:0.6;" x="44.928" xlink:href="#m5961f36441" y="116.590924"/>
      </g>
     </g>
    </g>
    <g id="ytick_14">
     <g id="line2d_107">
      <path clip-path="url(#pe9bacec0d7)" d="M 44.928 111.078285 
L 283.104 111.078285 
" style="fill:none;stroke:#dddddd;stroke-linecap:square;stroke-width:0.5;"/>
     </g>
     <g id="line2d_108">
      <g>
       <use style="stroke:#000000;stroke-width:0.6;" x="44.928" xlink:href="#m5961f36441" y="111.078285"/>
      </g>
     </g>
    </g>
    <g id="ytick_15">
     <g id="line2d_109">
      <path clip-path="url(#pe9bacec0d7)" d="M 44.928 106.574132 
L 283.104 106.574132 
" style="fill:none;stroke:#dddddd;stroke-linecap:square;stroke-width:0.5;"/>
     </g>
     <g id="line2d_110">
      <g>
       <use style="stroke:#000000;stroke-width:0.6;" x="44.928" xlink:href="#m5961f36441" y="106.574132"/>
      </g>
     </g>
    </g>
    <g id="ytick_16">
     <g id="line2d_111">
      <path clip-path="url(#pe9bacec0d7)" d="M 44.928 102.765924 
L 283.104 102.765924 
" style="fill:none;stroke:#dddddd;stroke-linecap:square;stroke-width:0.5;"/>
     </g>
     <g id="line2d_112">
      <g>
       <use style="stroke:#000000;stroke-width:0.6;" x="44.928" xlink:href="#m5961f36441" y="102.765924"/>
      </g>
     </g>
    </g>
    <g id="ytick_17">
     <g id="line2d_113">
      <path clip-path="url(#pe9bacec0d7)" d="M 44.928 99.467104 
L 283.104 99.467104 
" style="fill:none;stroke:#dddddd;stroke-linecap:square;stroke-width:0.5;"/>
     </g>
     <g id="line2d_114">
      <g>
       <use style="stroke:#000000;stroke-width:0.6;" x="44.928" xlink:href="#m5961f36441" y="99.467104"/>
      </g>
     </g>
    </g>
    <g id="ytick_18">
     <g id="line2d_115">
      <path clip-path="url(#pe9bacec0d7)" d="M 44.928 96.557339 
L 283.104 96.557339 
" style="fill:none;stroke:#dddddd;stroke-linecap:square;stroke-width:0.5;"/>
     </g>
     <g id="line2d_116">
      <g>
       <use style="stroke:#000000;stroke-width:0.6;" x="44.928" xlink:href="#m5961f36441" y="96.557339"/>
      </g>
     </g>
    </g>
    <g id="ytick_19">
     <g id="line2d_117">
      <path clip-path="url(#pe9bacec0d7)" d="M 44.928 76.830645 
L 283.104 76.830645 
" style="fill:none;stroke:#dddddd;stroke-linecap:square;stroke-width:0.5;"/>
     </g>
     <g id="line2d_118">
      <g>
       <use style="stroke:#000000;stroke-width:0.6;" x="44.928" xlink:href="#m5961f36441" y="76.830645"/>
      </g>
     </g>
    </g>
    <g id="ytick_20">
     <g id="line2d_119">
      <path clip-path="url(#pe9bacec0d7)" d="M 44.928 66.813852 
L 283.104 66.813852 
" style="fill:none;stroke:#dddddd;stroke-linecap:square;stroke-width:0.5;"/>
     </g>
     <g id="line2d_120">
      <g>
       <use style="stroke:#000000;stroke-width:0.6;" x="44.928" xlink:href="#m5961f36441" y="66.813852"/>
      </g>
     </g>
    </g>
    <g id="ytick_21">
     <g id="line2d_121">
      <path clip-path="url(#pe9bacec0d7)" d="M 44.928 59.706825 
L 283.104 59.706825 
" style="fill:none;stroke:#dddddd;stroke-linecap:square;stroke-width:0.5;"/>
     </g>
     <g id="line2d_122">
      <g>
       <use style="stroke:#000000;stroke-width:0.6;" x="44.928" xlink:href="#m5961f36441" y="59.706825"/>
      </g>
     </g>
    </g>
    <g id="ytick_22">
     <g id="line2d_123">
      <path clip-path="url(#pe9bacec0d7)" d="M 44.928 54.194186 
L 283.104 54.194186 
" style="fill:none;stroke:#dddddd;stroke-linecap:square;stroke-width:0.5;"/>
     </g>
     <g id="line2d_124">
      <g>
       <use style="stroke:#000000;stroke-width:0.6;" x="44.928" xlink:href="#m5961f36441" y="54.194186"/>
      </g>
     </g>
    </g>
    <g id="ytick_23">
     <g id="line2d_125">
      <path clip-path="url(#pe9bacec0d7)" d="M 44.928 49.690032 
L 283.104 49.690032 
" style="fill:none;stroke:#dddddd;stroke-linecap:square;stroke-width:0.5;"/>
     </g>
     <g id="line2d_126">
      <g>
       <use style="stroke:#000000;stroke-width:0.6;" x="44.928" xlink:href="#m5961f36441" y="49.690032"/>
      </g>
     </g>
    </g>
    <g id="ytick_24">
     <g id="line2d_127">
      <path clip-path="url(#pe9bacec0d7)" d="M 44.928 45.881824 
L 283.104 45.881824 
" style="fill:none;stroke:#dddddd;stroke-linecap:square;stroke-width:0.5;"/>
     </g>
     <g id="line2d_128">
      <g>
       <use style="stroke:#000000;stroke-width:0.6;" x="44.928" xlink:href="#m5961f36441" y="45.881824"/>
      </g>
     </g>
    </g>
    <g id="ytick_25">
     <g id="line2d_129">
      <path clip-path="url(#pe9bacec0d7)" d="M 44.928 42.583005 
L 283.104 42.583005 
" style="fill:none;stroke:#dddddd;stroke-linecap:square;stroke-width:0.5;"/>
     </g>
     <g id="line2d_130">
      <g>
       <use style="stroke:#000000;stroke-width:0.6;" x="44.928" xlink:href="#m5961f36441" y="42.583005"/>
      </g>
     </g>
    </g>
    <g id="ytick_26">
     <g id="line2d_131">
      <path clip-path="url(#pe9bacec0d7)" d="M 44.928 39.673239 
L 283.104 39.673239 
" style="fill:none;stroke:#dddddd;stroke-linecap:square;stroke-width:0.5;"/>
     </g>
     <g id="line2d_132">
      <g>
       <use style="stroke:#000000;stroke-width:0.6;" x="44.928" xlink:href="#m5961f36441" y="39.673239"/>
      </g>
     </g>
    </g>
    <g id="ytick_27">
     <g id="line2d_133">
      <path clip-path="url(#pe9bacec0d7)" d="M 44.928 19.946546 
L 283.104 19.946546 
" style="fill:none;stroke:#dddddd;stroke-linecap:square;stroke-width:0.5;"/>
     </g>
     <g id="line2d_134">
      <g>
       <use style="stroke:#000000;stroke-width:0.6;" x="44.928" xlink:href="#m5961f36441" y="19.946546"/>
      </g>
     </g>
    </g>
    <g id="ytick_28">
     <g id="line2d_135">
      <path clip-path="url(#pe9bacec0d7)" d="M 44.928 9.929753 
L 283.104 9.929753 
" style="fill:none;stroke:#dddddd;stroke-linecap:square;stroke-width:0.5;"/>
     </g>
     <g id="line2d_136">
      <g>
       <use style="stroke:#000000;stroke-width:0.6;" x="44.928" xlink:href="#m5961f36441" y="9.929753"/>
      </g>
     </g>
    </g>
    <g id="text_10">
     <!-- transfer error $\epsilon$ -->
     <defs>
      <path d="M 15.296875 40.390625 
L 26.703125 40.390625 
L 26.703125 43 
L 15.09375 43 
L 15.09375 55.296875 
C 15.09375 63.6875 19.296875 68.390625 23.59375 68.390625 
C 24.90625 68.390625 26.40625 68.171875 27.40625 67.796875 
C 26.59375 67.59375 24.5 66.890625 24.5 64.390625 
C 24.5 61.796875 26.5 61 27.90625 61 
C 29.296875 61 31.296875 61.796875 31.296875 64.390625 
C 31.296875 68.015625 27.703125 70 23.703125 70 
C 18 70 10.203125 65.796875 10.203125 55.09375 
L 10.203125 43 
L 2.203125 43 
L 2.203125 40.390625 
L 10.203125 40.390625 
L 10.203125 6.890625 
C 10.203125 3.09375 9.796875 2.59375 3.40625 2.59375 
L 3.40625 0 
C 5.796875 0.1875 10.40625 0.1875 13 0.1875 
C 15.90625 0.1875 21 0.1875 23.703125 0 
L 23.703125 2.59375 
C 16.5 2.59375 15.296875 2.59375 15.296875 7.09375 
z
" id="CMR17-102"/>
      <path d="M 29.09375 23 
C 30.59375 23 32.296875 23 32.296875 24.59375 
C 32.296875 25.890625 31.296875 25.890625 29.5 25.890625 
L 13.296875 25.890625 
C 15.796875 34.75 21.703125 40.09375 30.59375 40.09375 
L 33.5 40.09375 
C 35.203125 40.09375 36.703125 40.09375 36.703125 41.6875 
C 36.703125 43 35.59375 43 33.796875 43 
L 30.40625 43 
C 18.09375 43 4.59375 33.375 4.59375 17.828125 
C 4.59375 6.5625 12.09375 -1 22 -1 
C 28.40625 -1 34.703125 3.015625 34.703125 4.03125 
C 34.703125 4.640625 34.40625 5.25 33.796875 5.25 
C 33.5 5.25 33.296875 5.15625 32.796875 4.75 
C 29 2.203125 25.296875 1 22.296875 1 
C 17 1 11.40625 4.546875 11.40625 14.375 
C 11.40625 16.296875 11.59375 18.9375 12.5 23 
z
" id="CMMI12-15"/>
     </defs>
     <g transform="translate(11.830248 125.817648)rotate(-90)scale(0.1 -0.1)">
      <use transform="scale(0.996264)" xlink:href="#CMR17-116"/>
      <use transform="translate(35.280768 0)scale(0.996264)" xlink:href="#CMR17-114"/>
      <use transform="translate(70.561536 0)scale(0.996264)" xlink:href="#CMR17-97"/>
      <use transform="translate(116.252013 0)scale(0.996264)" xlink:href="#CMR17-110"/>
      <use transform="translate(167.147382 0)scale(0.996264)" xlink:href="#CMR17-115"/>
      <use transform="translate(202.94872 0)scale(0.996264)" xlink:href="#CMR17-102"/>
      <use transform="translate(230.422233 0)scale(0.996264)" xlink:href="#CMR17-101"/>
      <use transform="translate(270.907893 0)scale(0.996264)" xlink:href="#CMR17-114"/>
      <use transform="translate(336.264627 0)scale(0.996264)" xlink:href="#CMR17-101"/>
      <use transform="translate(376.750288 0)scale(0.996264)" xlink:href="#CMR17-114"/>
      <use transform="translate(412.031055 0)scale(0.996264)" xlink:href="#CMR17-114"/>
      <use transform="translate(447.311823 0)scale(0.996264)" xlink:href="#CMR17-111"/>
      <use transform="translate(493.0023 0)scale(0.996264)" xlink:href="#CMR17-114"/>
      <use transform="translate(558.359034 0)scale(0.996264)" xlink:href="#CMMI12-15"/>
     </g>
    </g>
   </g>
   <g id="line2d_137">
    <path clip-path="url(#pe9bacec0d7)" d="M 272.277818 126.050253 
L 270.112582 128.140429 
L 267.947345 123.513182 
L 265.782109 120.806391 
L 263.616873 119.648838 
L 261.451636 127.992264 
L 259.2864 120.343248 
L 257.121164 115.600977 
L 254.955927 120.219004 
L 252.790691 117.599898 
L 250.625455 120.916491 
L 248.460218 120.004055 
L 246.294982 113.878242 
L 244.129745 114.144495 
L 241.964509 122.491392 
L 239.799273 112.318136 
L 237.634036 109.33978 
L 235.4688 118.432886 
L 233.303564 105.415214 
L 231.138327 109.649259 
L 228.973091 110.703068 
L 226.807855 108.305999 
L 224.642618 98.925609 
L 222.477382 99.168138 
L 220.312145 114.322672 
L 218.146909 108.503298 
L 215.981673 93.96464 
L 213.816436 94.229573 
L 211.6512 94.613297 
L 209.485964 95.109055 
L 207.320727 99.131939 
L 205.155491 96.853015 
L 202.990255 93.116972 
L 200.825018 102.373138 
L 198.659782 98.070426 
L 196.494545 103.914779 
L 194.329309 103.38893 
L 192.164073 105.677797 
L 189.998836 122.053252 
L 187.8336 108.020535 
L 185.668364 109.491798 
L 183.503127 119.953392 
L 181.337891 113.970219 
L 179.172655 114.53708 
L 177.007418 117.674373 
L 174.842182 111.964287 
L 172.676945 127.191627 
L 170.511709 125.984546 
L 168.346473 121.090673 
L 166.181236 128.614769 
L 164.016 128.079309 
L 161.850764 126.949152 
L 159.685527 125.644941 
L 157.520291 125.954647 
L 155.355055 135.708718 
L 153.189818 137.975031 
L 151.024582 137.501949 
L 148.859345 138.516622 
L 146.694109 139.556308 
L 144.528873 143.10682 
L 142.363636 137.156909 
L 140.1984 144.207315 
L 138.033164 146.157279 
L 135.867927 142.682456 
L 133.702691 153.232745 
L 131.537455 144.27408 
L 129.372218 149.464657 
L 127.206982 149.26195 
L 125.041745 150.616119 
L 122.876509 152.436406 
L 120.711273 151.278048 
L 118.546036 150.942003 
L 116.3808 151.66327 
L 114.215564 153.655183 
L 112.050327 152.689099 
L 109.885091 156.275847 
L 107.719855 155.84333 
L 105.554618 155.040689 
L 103.389382 158.417438 
L 101.224145 157.345565 
L 99.058909 155.651311 
L 96.893673 154.925406 
L 94.728436 157.041754 
L 92.5632 151.503516 
L 90.397964 156.994947 
L 88.232727 158.360372 
L 86.067491 156.609685 
L 83.902255 156.899515 
L 81.737018 157.026024 
L 79.571782 156.422219 
L 77.406545 158.92986 
L 75.241309 157.800479 
L 73.076073 157.335161 
L 70.910836 160.971131 
L 68.7456 161.749027 
L 66.580364 161.233113 
L 64.415127 160.334642 
L 62.249891 158.96995 
L 60.084655 156.038453 
L 57.919418 161.018901 
L 55.754182 159.140543 
" style="fill:none;stroke:#dd5500;stroke-linecap:square;stroke-width:1.5;"/>
    <defs>
     <path d="M 0 1.5 
C 0.397805 1.5 0.77937 1.341951 1.06066 1.06066 
C 1.341951 0.77937 1.5 0.397805 1.5 0 
C 1.5 -0.397805 1.341951 -0.77937 1.06066 -1.06066 
C 0.77937 -1.341951 0.397805 -1.5 0 -1.5 
C -0.397805 -1.5 -0.77937 -1.341951 -1.06066 -1.06066 
C -1.341951 -0.77937 -1.5 -0.397805 -1.5 0 
C -1.5 0.397805 -1.341951 0.77937 -1.06066 1.06066 
C -0.77937 1.341951 -0.397805 1.5 0 1.5 
z
" id="m1cb3a73f12" style="stroke:#dd5500;"/>
    </defs>
    <g clip-path="url(#pe9bacec0d7)">
     <use style="fill:#ffffff;stroke:#dd5500;" x="272.277818" xlink:href="#m1cb3a73f12" y="126.050253"/>
     <use style="fill:#ffffff;stroke:#dd5500;" x="270.112582" xlink:href="#m1cb3a73f12" y="128.140429"/>
     <use style="fill:#ffffff;stroke:#dd5500;" x="267.947345" xlink:href="#m1cb3a73f12" y="123.513182"/>
     <use style="fill:#ffffff;stroke:#dd5500;" x="265.782109" xlink:href="#m1cb3a73f12" y="120.806391"/>
     <use style="fill:#ffffff;stroke:#dd5500;" x="263.616873" xlink:href="#m1cb3a73f12" y="119.648838"/>
     <use style="fill:#ffffff;stroke:#dd5500;" x="261.451636" xlink:href="#m1cb3a73f12" y="127.992264"/>
     <use style="fill:#ffffff;stroke:#dd5500;" x="259.2864" xlink:href="#m1cb3a73f12" y="120.343248"/>
     <use style="fill:#ffffff;stroke:#dd5500;" x="257.121164" xlink:href="#m1cb3a73f12" y="115.600977"/>
     <use style="fill:#ffffff;stroke:#dd5500;" x="254.955927" xlink:href="#m1cb3a73f12" y="120.219004"/>
     <use style="fill:#ffffff;stroke:#dd5500;" x="252.790691" xlink:href="#m1cb3a73f12" y="117.599898"/>
     <use style="fill:#ffffff;stroke:#dd5500;" x="250.625455" xlink:href="#m1cb3a73f12" y="120.916491"/>
     <use style="fill:#ffffff;stroke:#dd5500;" x="248.460218" xlink:href="#m1cb3a73f12" y="120.004055"/>
     <use style="fill:#ffffff;stroke:#dd5500;" x="246.294982" xlink:href="#m1cb3a73f12" y="113.878242"/>
     <use style="fill:#ffffff;stroke:#dd5500;" x="244.129745" xlink:href="#m1cb3a73f12" y="114.144495"/>
     <use style="fill:#ffffff;stroke:#dd5500;" x="241.964509" xlink:href="#m1cb3a73f12" y="122.491392"/>
     <use style="fill:#ffffff;stroke:#dd5500;" x="239.799273" xlink:href="#m1cb3a73f12" y="112.318136"/>
     <use style="fill:#ffffff;stroke:#dd5500;" x="237.634036" xlink:href="#m1cb3a73f12" y="109.33978"/>
     <use style="fill:#ffffff;stroke:#dd5500;" x="235.4688" xlink:href="#m1cb3a73f12" y="118.432886"/>
     <use style="fill:#ffffff;stroke:#dd5500;" x="233.303564" xlink:href="#m1cb3a73f12" y="105.415214"/>
     <use style="fill:#ffffff;stroke:#dd5500;" x="231.138327" xlink:href="#m1cb3a73f12" y="109.649259"/>
     <use style="fill:#ffffff;stroke:#dd5500;" x="228.973091" xlink:href="#m1cb3a73f12" y="110.703068"/>
     <use style="fill:#ffffff;stroke:#dd5500;" x="226.807855" xlink:href="#m1cb3a73f12" y="108.305999"/>
     <use style="fill:#ffffff;stroke:#dd5500;" x="224.642618" xlink:href="#m1cb3a73f12" y="98.925609"/>
     <use style="fill:#ffffff;stroke:#dd5500;" x="222.477382" xlink:href="#m1cb3a73f12" y="99.168138"/>
     <use style="fill:#ffffff;stroke:#dd5500;" x="220.312145" xlink:href="#m1cb3a73f12" y="114.322672"/>
     <use style="fill:#ffffff;stroke:#dd5500;" x="218.146909" xlink:href="#m1cb3a73f12" y="108.503298"/>
     <use style="fill:#ffffff;stroke:#dd5500;" x="215.981673" xlink:href="#m1cb3a73f12" y="93.96464"/>
     <use style="fill:#ffffff;stroke:#dd5500;" x="213.816436" xlink:href="#m1cb3a73f12" y="94.229573"/>
     <use style="fill:#ffffff;stroke:#dd5500;" x="211.6512" xlink:href="#m1cb3a73f12" y="94.613297"/>
     <use style="fill:#ffffff;stroke:#dd5500;" x="209.485964" xlink:href="#m1cb3a73f12" y="95.109055"/>
     <use style="fill:#ffffff;stroke:#dd5500;" x="207.320727" xlink:href="#m1cb3a73f12" y="99.131939"/>
     <use style="fill:#ffffff;stroke:#dd5500;" x="205.155491" xlink:href="#m1cb3a73f12" y="96.853015"/>
     <use style="fill:#ffffff;stroke:#dd5500;" x="202.990255" xlink:href="#m1cb3a73f12" y="93.116972"/>
     <use style="fill:#ffffff;stroke:#dd5500;" x="200.825018" xlink:href="#m1cb3a73f12" y="102.373138"/>
     <use style="fill:#ffffff;stroke:#dd5500;" x="198.659782" xlink:href="#m1cb3a73f12" y="98.070426"/>
     <use style="fill:#ffffff;stroke:#dd5500;" x="196.494545" xlink:href="#m1cb3a73f12" y="103.914779"/>
     <use style="fill:#ffffff;stroke:#dd5500;" x="194.329309" xlink:href="#m1cb3a73f12" y="103.38893"/>
     <use style="fill:#ffffff;stroke:#dd5500;" x="192.164073" xlink:href="#m1cb3a73f12" y="105.677797"/>
     <use style="fill:#ffffff;stroke:#dd5500;" x="189.998836" xlink:href="#m1cb3a73f12" y="122.053252"/>
     <use style="fill:#ffffff;stroke:#dd5500;" x="187.8336" xlink:href="#m1cb3a73f12" y="108.020535"/>
     <use style="fill:#ffffff;stroke:#dd5500;" x="185.668364" xlink:href="#m1cb3a73f12" y="109.491798"/>
     <use style="fill:#ffffff;stroke:#dd5500;" x="183.503127" xlink:href="#m1cb3a73f12" y="119.953392"/>
     <use style="fill:#ffffff;stroke:#dd5500;" x="181.337891" xlink:href="#m1cb3a73f12" y="113.970219"/>
     <use style="fill:#ffffff;stroke:#dd5500;" x="179.172655" xlink:href="#m1cb3a73f12" y="114.53708"/>
     <use style="fill:#ffffff;stroke:#dd5500;" x="177.007418" xlink:href="#m1cb3a73f12" y="117.674373"/>
     <use style="fill:#ffffff;stroke:#dd5500;" x="174.842182" xlink:href="#m1cb3a73f12" y="111.964287"/>
     <use style="fill:#ffffff;stroke:#dd5500;" x="172.676945" xlink:href="#m1cb3a73f12" y="127.191627"/>
     <use style="fill:#ffffff;stroke:#dd5500;" x="170.511709" xlink:href="#m1cb3a73f12" y="125.984546"/>
     <use style="fill:#ffffff;stroke:#dd5500;" x="168.346473" xlink:href="#m1cb3a73f12" y="121.090673"/>
     <use style="fill:#ffffff;stroke:#dd5500;" x="166.181236" xlink:href="#m1cb3a73f12" y="128.614769"/>
     <use style="fill:#ffffff;stroke:#dd5500;" x="164.016" xlink:href="#m1cb3a73f12" y="128.079309"/>
     <use style="fill:#ffffff;stroke:#dd5500;" x="161.850764" xlink:href="#m1cb3a73f12" y="126.949152"/>
     <use style="fill:#ffffff;stroke:#dd5500;" x="159.685527" xlink:href="#m1cb3a73f12" y="125.644941"/>
     <use style="fill:#ffffff;stroke:#dd5500;" x="157.520291" xlink:href="#m1cb3a73f12" y="125.954647"/>
     <use style="fill:#ffffff;stroke:#dd5500;" x="155.355055" xlink:href="#m1cb3a73f12" y="135.708718"/>
     <use style="fill:#ffffff;stroke:#dd5500;" x="153.189818" xlink:href="#m1cb3a73f12" y="137.975031"/>
     <use style="fill:#ffffff;stroke:#dd5500;" x="151.024582" xlink:href="#m1cb3a73f12" y="137.501949"/>
     <use style="fill:#ffffff;stroke:#dd5500;" x="148.859345" xlink:href="#m1cb3a73f12" y="138.516622"/>
     <use style="fill:#ffffff;stroke:#dd5500;" x="146.694109" xlink:href="#m1cb3a73f12" y="139.556308"/>
     <use style="fill:#ffffff;stroke:#dd5500;" x="144.528873" xlink:href="#m1cb3a73f12" y="143.10682"/>
     <use style="fill:#ffffff;stroke:#dd5500;" x="142.363636" xlink:href="#m1cb3a73f12" y="137.156909"/>
     <use style="fill:#ffffff;stroke:#dd5500;" x="140.1984" xlink:href="#m1cb3a73f12" y="144.207315"/>
     <use style="fill:#ffffff;stroke:#dd5500;" x="138.033164" xlink:href="#m1cb3a73f12" y="146.157279"/>
     <use style="fill:#ffffff;stroke:#dd5500;" x="135.867927" xlink:href="#m1cb3a73f12" y="142.682456"/>
     <use style="fill:#ffffff;stroke:#dd5500;" x="133.702691" xlink:href="#m1cb3a73f12" y="153.232745"/>
     <use style="fill:#ffffff;stroke:#dd5500;" x="131.537455" xlink:href="#m1cb3a73f12" y="144.27408"/>
     <use style="fill:#ffffff;stroke:#dd5500;" x="129.372218" xlink:href="#m1cb3a73f12" y="149.464657"/>
     <use style="fill:#ffffff;stroke:#dd5500;" x="127.206982" xlink:href="#m1cb3a73f12" y="149.26195"/>
     <use style="fill:#ffffff;stroke:#dd5500;" x="125.041745" xlink:href="#m1cb3a73f12" y="150.616119"/>
     <use style="fill:#ffffff;stroke:#dd5500;" x="122.876509" xlink:href="#m1cb3a73f12" y="152.436406"/>
     <use style="fill:#ffffff;stroke:#dd5500;" x="120.711273" xlink:href="#m1cb3a73f12" y="151.278048"/>
     <use style="fill:#ffffff;stroke:#dd5500;" x="118.546036" xlink:href="#m1cb3a73f12" y="150.942003"/>
     <use style="fill:#ffffff;stroke:#dd5500;" x="116.3808" xlink:href="#m1cb3a73f12" y="151.66327"/>
     <use style="fill:#ffffff;stroke:#dd5500;" x="114.215564" xlink:href="#m1cb3a73f12" y="153.655183"/>
     <use style="fill:#ffffff;stroke:#dd5500;" x="112.050327" xlink:href="#m1cb3a73f12" y="152.689099"/>
     <use style="fill:#ffffff;stroke:#dd5500;" x="109.885091" xlink:href="#m1cb3a73f12" y="156.275847"/>
     <use style="fill:#ffffff;stroke:#dd5500;" x="107.719855" xlink:href="#m1cb3a73f12" y="155.84333"/>
     <use style="fill:#ffffff;stroke:#dd5500;" x="105.554618" xlink:href="#m1cb3a73f12" y="155.040689"/>
     <use style="fill:#ffffff;stroke:#dd5500;" x="103.389382" xlink:href="#m1cb3a73f12" y="158.417438"/>
     <use style="fill:#ffffff;stroke:#dd5500;" x="101.224145" xlink:href="#m1cb3a73f12" y="157.345565"/>
     <use style="fill:#ffffff;stroke:#dd5500;" x="99.058909" xlink:href="#m1cb3a73f12" y="155.651311"/>
     <use style="fill:#ffffff;stroke:#dd5500;" x="96.893673" xlink:href="#m1cb3a73f12" y="154.925406"/>
     <use style="fill:#ffffff;stroke:#dd5500;" x="94.728436" xlink:href="#m1cb3a73f12" y="157.041754"/>
     <use style="fill:#ffffff;stroke:#dd5500;" x="92.5632" xlink:href="#m1cb3a73f12" y="151.503516"/>
     <use style="fill:#ffffff;stroke:#dd5500;" x="90.397964" xlink:href="#m1cb3a73f12" y="156.994947"/>
     <use style="fill:#ffffff;stroke:#dd5500;" x="88.232727" xlink:href="#m1cb3a73f12" y="158.360372"/>
     <use style="fill:#ffffff;stroke:#dd5500;" x="86.067491" xlink:href="#m1cb3a73f12" y="156.609685"/>
     <use style="fill:#ffffff;stroke:#dd5500;" x="83.902255" xlink:href="#m1cb3a73f12" y="156.899515"/>
     <use style="fill:#ffffff;stroke:#dd5500;" x="81.737018" xlink:href="#m1cb3a73f12" y="157.026024"/>
     <use style="fill:#ffffff;stroke:#dd5500;" x="79.571782" xlink:href="#m1cb3a73f12" y="156.422219"/>
     <use style="fill:#ffffff;stroke:#dd5500;" x="77.406545" xlink:href="#m1cb3a73f12" y="158.92986"/>
     <use style="fill:#ffffff;stroke:#dd5500;" x="75.241309" xlink:href="#m1cb3a73f12" y="157.800479"/>
     <use style="fill:#ffffff;stroke:#dd5500;" x="73.076073" xlink:href="#m1cb3a73f12" y="157.335161"/>
     <use style="fill:#ffffff;stroke:#dd5500;" x="70.910836" xlink:href="#m1cb3a73f12" y="160.971131"/>
     <use style="fill:#ffffff;stroke:#dd5500;" x="68.7456" xlink:href="#m1cb3a73f12" y="161.749027"/>
     <use style="fill:#ffffff;stroke:#dd5500;" x="66.580364" xlink:href="#m1cb3a73f12" y="161.233113"/>
     <use style="fill:#ffffff;stroke:#dd5500;" x="64.415127" xlink:href="#m1cb3a73f12" y="160.334642"/>
     <use style="fill:#ffffff;stroke:#dd5500;" x="62.249891" xlink:href="#m1cb3a73f12" y="158.96995"/>
     <use style="fill:#ffffff;stroke:#dd5500;" x="60.084655" xlink:href="#m1cb3a73f12" y="156.038453"/>
     <use style="fill:#ffffff;stroke:#dd5500;" x="57.919418" xlink:href="#m1cb3a73f12" y="161.018901"/>
     <use style="fill:#ffffff;stroke:#dd5500;" x="55.754182" xlink:href="#m1cb3a73f12" y="159.140543"/>
    </g>
   </g>
   <g id="line2d_138">
    <path clip-path="url(#pe9bacec0d7)" d="M 272.277818 37.206071 
L 270.112582 36.911452 
L 267.947345 36.751606 
L 265.782109 36.597595 
L 263.616873 36.798431 
L 261.451636 36.143061 
L 259.2864 36.882343 
L 257.121164 36.279543 
L 254.955927 35.615269 
L 252.790691 35.011301 
L 250.625455 35.626325 
L 248.460218 35.368322 
L 246.294982 34.714242 
L 244.129745 35.566957 
L 241.964509 34.966387 
L 239.799273 35.133884 
L 237.634036 34.120509 
L 235.4688 32.893392 
L 233.303564 32.701366 
L 231.138327 33.157072 
L 228.973091 31.851261 
L 226.807855 32.802555 
L 224.642618 30.287068 
L 222.477382 33.540462 
L 220.312145 33.58904 
L 218.146909 28.135956 
L 215.981673 28.976249 
L 213.816436 28.891628 
L 211.6512 29.986427 
L 209.485964 30.757397 
L 207.320727 24.744953 
L 205.155491 26.158634 
L 202.990255 28.609779 
L 200.825018 29.656325 
L 198.659782 23.575061 
L 196.494545 26.998309 
L 194.329309 30.434616 
L 192.164073 27.236111 
L 189.998836 23.077747 
L 187.8336 29.378915 
L 185.668364 29.305169 
L 183.503127 29.307475 
L 181.337891 28.789107 
L 179.172655 27.53438 
L 177.007418 29.445339 
L 174.842182 28.278177 
L 172.676945 30.9252 
L 170.511709 32.08921 
L 168.346473 33.813421 
L 166.181236 32.093285 
L 164.016 33.42485 
L 161.850764 32.574302 
L 159.685527 34.336985 
L 157.520291 32.054422 
L 155.355055 34.412147 
L 153.189818 33.962351 
L 151.024582 35.439215 
L 148.859345 34.878333 
L 146.694109 34.500674 
L 144.528873 34.984616 
L 142.363636 35.164701 
L 140.1984 35.202088 
L 138.033164 35.891138 
L 135.867927 36.180756 
L 133.702691 36.2931 
L 131.537455 36.478063 
L 129.372218 35.932928 
L 127.206982 36.968677 
L 125.041745 36.937996 
L 122.876509 36.822354 
L 120.711273 37.371523 
L 118.546036 36.625958 
L 116.3808 36.873697 
L 114.215564 37.016967 
L 112.050327 36.891903 
L 109.885091 37.708656 
L 107.719855 36.956339 
L 105.554618 37.506216 
L 103.389382 37.458493 
L 101.224145 37.541646 
L 99.058909 37.474711 
L 96.893673 37.862474 
L 94.728436 37.713943 
L 92.5632 37.757853 
L 90.397964 37.926198 
L 88.232727 37.846289 
L 86.067491 37.923573 
L 83.902255 37.905704 
L 81.737018 37.910252 
L 79.571782 37.991047 
L 77.406545 37.948144 
L 75.241309 37.870477 
L 73.076073 38.044671 
L 70.910836 37.97319 
L 68.7456 37.957028 
L 66.580364 37.937536 
L 64.415127 37.965844 
L 62.249891 38.144272 
L 60.084655 38.116414 
L 57.919418 38.188265 
L 55.754182 38.067399 
" style="fill:none;stroke:#0088ff;stroke-linecap:square;stroke-width:1.5;"/>
   </g>
   <g id="patch_3">
    <path d="M 44.928 180.87408 
L 44.928 5.364 
" style="fill:none;stroke:#000000;stroke-linecap:square;stroke-linejoin:miter;stroke-width:0.8;"/>
   </g>
   <g id="patch_4">
    <path d="M 283.104 180.87408 
L 283.104 5.364 
" style="fill:none;stroke:#000000;stroke-linecap:square;stroke-linejoin:miter;stroke-width:0.8;"/>
   </g>
   <g id="patch_5">
    <path d="M 44.928 180.87408 
L 283.104 180.87408 
" style="fill:none;stroke:#000000;stroke-linecap:square;stroke-linejoin:miter;stroke-width:0.8;"/>
   </g>
   <g id="patch_6">
    <path d="M 44.928 5.364 
L 283.104 5.364 
" style="fill:none;stroke:#000000;stroke-linecap:square;stroke-linejoin:miter;stroke-width:0.8;"/>
   </g>
   <g id="legend_1">
    <g id="patch_7">
     <path d="M 213.883921 175.87408 
L 276.104 175.87408 
Q 278.104 175.87408 278.104 173.87408 
L 278.104 146.999723 
Q 278.104 144.999723 276.104 144.999723 
L 213.883921 144.999723 
Q 211.883921 144.999723 211.883921 146.999723 
L 211.883921 173.87408 
Q 211.883921 175.87408 213.883921 175.87408 
z
" style="fill:#ffffff;opacity:0.8;stroke:#cccccc;stroke-linejoin:miter;"/>
    </g>
    <g id="line2d_139">
     <path d="M 215.883921 152.499723 
L 235.883921 152.499723 
" style="fill:none;stroke:#dd5500;stroke-linecap:square;stroke-width:1.5;"/>
    </g>
    <g id="line2d_140">
     <g>
      <use style="fill:#ffffff;stroke:#dd5500;" x="225.883921" xlink:href="#m1cb3a73f12" y="152.499723"/>
     </g>
    </g>
    <g id="text_11">
     <!-- shaped -->
     <defs>
      <path d="M 41.5 30.53125 
C 41.5 35.65625 40.5 44 28.703125 44 
C 20.5 44 16.5 37.375 15.296875 34.046875 
L 15.203125 34.046875 
L 15.203125 69 
L 3.296875 67.890625 
L 3.296875 65.296875 
C 9.203125 65.296875 10.09375 64.703125 10.09375 60.046875 
L 10.09375 6.921875 
C 10.09375 3.09375 9.703125 2.59375 3.296875 2.59375 
L 3.296875 0 
C 5.703125 0.1875 10.09375 0.1875 12.703125 0.1875 
C 15.296875 0.1875 19.796875 0.1875 22.203125 0 
L 22.203125 2.59375 
C 15.796875 2.59375 15.40625 3 15.40625 6.921875 
L 15.40625 26.21875 
C 15.40625 35.453125 21 42.390625 28 42.390625 
C 35.40625 42.390625 36.203125 35.765625 36.203125 30.9375 
L 36.203125 6.921875 
C 36.203125 3.09375 35.796875 2.59375 29.40625 2.59375 
L 29.40625 0 
C 31.796875 0.1875 36.203125 0.1875 38.796875 0.1875 
C 41.40625 0.1875 45.90625 0.1875 48.296875 0 
L 48.296875 2.59375 
C 41.90625 2.59375 41.5 3 41.5 6.921875 
z
" id="CMR17-104"/>
      <path d="M 22 -17.40625 
C 15.59375 -17.40625 15.203125 -17 15.203125 -13.03125 
L 15.203125 5.9375 
C 18.09375 1.703125 22.296875 -1 27.59375 -1 
C 37.59375 -1 47.703125 7.859375 47.703125 21.59375 
C 47.703125 34.3125 39 44 28.703125 44 
C 22.703125 44 17.796875 40.671875 15 36.640625 
L 15 44 
L 3.09375 42.890625 
L 3.09375 40.265625 
C 9 40.265625 9.90625 39.671875 9.90625 34.8125 
L 9.90625 -13.03125 
C 9.90625 -16.890625 9.5 -17.40625 3.09375 -17.40625 
L 3.09375 -20 
C 5.5 -19.8125 9.90625 -19.8125 12.5 -19.8125 
C 15.09375 -19.8125 19.59375 -19.8125 22 -20 
z
M 15.203125 31.484375 
C 15.203125 32.90625 15.203125 35.015625 19.09375 38.765625 
C 19.59375 39.15625 23 42.1875 28 42.1875 
C 35.296875 42.1875 41.296875 33 41.296875 21.5 
C 41.296875 9.984375 34.90625 0.59375 27 0.59375 
C 23.40625 0.59375 19.5 2.3125 16.5 7.046875 
C 15.203125 9.28125 15.203125 9.875 15.203125 11.5 
z
" id="CMR17-112"/>
      <path d="M 29.203125 67.890625 
L 29.203125 65.296875 
C 35.09375 65.296875 36 64.703125 36 60.046875 
L 36 37.046875 
C 35.59375 37.546875 31.5 44 23.40625 44 
C 13.203125 44 3.296875 34.8125 3.296875 21.5 
C 3.296875 8.265625 12.59375 -1 22.40625 -1 
C 30.90625 -1 35.296875 5.640625 35.796875 6.34375 
L 35.796875 -1 
L 47.90625 -0.203125 
L 47.90625 2.40625 
C 42 2.40625 41.09375 3.015625 41.09375 7.859375 
L 41.09375 69 
z
M 35.796875 11.90625 
C 35.796875 8.875 34 6.140625 31.703125 4.125 
C 28.296875 1.09375 24.90625 0.59375 23 0.59375 
C 20.09375 0.59375 9.703125 2.109375 9.703125 21.390625 
C 9.703125 41.1875 21.296875 42.390625 23.90625 42.390625 
C 28.5 42.390625 32.203125 39.765625 34.5 36.140625 
C 35.796875 34.015625 35.796875 33.703125 35.796875 31.890625 
z
" id="CMR17-100"/>
     </defs>
     <g transform="translate(243.883921 155.999723)scale(0.1 -0.1)">
      <use transform="scale(0.996264)" xlink:href="#CMR17-115"/>
      <use transform="translate(35.801338 0)scale(0.996264)" xlink:href="#CMR17-104"/>
      <use transform="translate(86.696707 0)scale(0.996264)" xlink:href="#CMR17-97"/>
      <use transform="translate(132.387185 0)scale(0.996264)" xlink:href="#CMR17-112"/>
      <use transform="translate(185.884993 0)scale(0.996264)" xlink:href="#CMR17-101"/>
      <use transform="translate(226.370654 0)scale(0.996264)" xlink:href="#CMR17-100"/>
     </g>
    </g>
    <g id="line2d_141">
     <path d="M 215.883921 166.436902 
L 235.883921 166.436902 
" style="fill:none;stroke:#0088ff;stroke-linecap:square;stroke-width:1.5;"/>
    </g>
    <g id="line2d_142"/>
    <g id="text_12">
     <!-- linear -->
     <defs>
      <path d="M 15.296875 69 
L 3.40625 67.890625 
L 3.40625 65.296875 
C 9.296875 65.296875 10.203125 64.703125 10.203125 59.921875 
L 10.203125 6.859375 
C 10.203125 3.09375 9.796875 2.59375 3.40625 2.59375 
L 3.40625 0 
C 5.796875 0.1875 10.203125 0.1875 12.703125 0.1875 
C 15.296875 0.1875 19.703125 0.1875 22.09375 0 
L 22.09375 2.59375 
C 15.703125 2.59375 15.296875 2.984375 15.296875 6.859375 
z
" id="CMR17-108"/>
      <path d="M 15.5 61.890625 
C 15.5 64.09375 13.703125 66 11.40625 66 
C 9.203125 66 7.296875 64.1875 7.296875 61.890625 
C 7.296875 59.6875 9.09375 57.796875 11.40625 57.796875 
C 13.59375 57.796875 15.5 59.59375 15.5 61.890625 
z
M 3.796875 42.890625 
L 3.796875 40.296875 
C 9.40625 40.296875 10.203125 39.6875 10.203125 34.859375 
L 10.203125 6.921875 
C 10.203125 3.09375 9.796875 2.59375 3.40625 2.59375 
L 3.40625 0 
C 5.796875 0.1875 10.09375 0.1875 12.59375 0.1875 
C 15 0.1875 19.09375 0.1875 21.40625 0 
L 21.40625 2.59375 
C 15.5 2.59375 15.296875 3.203125 15.296875 6.8125 
L 15.296875 44 
z
" id="CMR17-105"/>
     </defs>
     <g transform="translate(243.883921 169.936902)scale(0.1 -0.1)">
      <use transform="scale(0.996264)" xlink:href="#CMR17-108"/>
      <use transform="translate(24.871058 0)scale(0.996264)" xlink:href="#CMR17-105"/>
      <use transform="translate(49.742117 0)scale(0.996264)" xlink:href="#CMR17-110"/>
      <use transform="translate(100.637487 0)scale(0.996264)" xlink:href="#CMR17-101"/>
      <use transform="translate(141.123147 0)scale(0.996264)" xlink:href="#CMR17-97"/>
      <use transform="translate(186.813624 0)scale(0.996264)" xlink:href="#CMR17-114"/>
     </g>
    </g>
   </g>
  </g>
 </g>
 <defs>
  <clipPath id="pe9bacec0d7">
   <rect height="175.51008" width="238.176" x="44.928" y="5.364"/>
  </clipPath>
 </defs>
</svg>
