<?xml version="1.0" encoding="utf-8" standalone="no"?>
<!DOCTYPE svg PUBLIC "-//W3C//DTD SVG 1.1//EN"
  "http://www.w3.org/Graphics/SVG/1.1/DTD/svg11.dtd">
<!-- Created with matplotlib (https://matplotlib.org/) -->
<svg height="344.16pt" version="1.1" viewBox="0 0 460.8 344.16" width="460.8pt" xmlns="http://www.w3.org/2000/svg" xmlns:xlink="http://www.w3.org/1999/xlink">
 <defs>
  <style type="text/css">
*{stroke-linecap:butt;stroke-linejoin:round;}
  </style>
 </defs>
 <g id="figure_1">
  <g id="patch_1">
   <path d="M 0 344.16 
L 460.8 344.16 
L 460.8 0 
L 0 0 
z
" style="fill:#ffffff;"/>
  </g>
  <g id="axes_1">
   <g id="patch_2">
    <path d="M 57.6 306.3024 
L 414.72 306.3024 
L 414.72 41.2992 
L 57.6 41.2992 
z
" style="fill:#ffffff;"/>
   </g>
   <g id="matplotlib.axis_1">
    <g id="xtick_1">
     <g id="line2d_1">
      <defs>
       <path d="M 0 0 
L 0 3.5 
" id="mdaed8f7e17" style="stroke:#000000;stroke-width:0.8;"/>
      </defs>
      <g>
       <use style="stroke:#000000;stroke-width:0.8;" x="73.832727" xlink:href="#mdaed8f7e17" y="306.3024"/>
      </g>
     </g>
     <g id="text_1">
      <!-- −20 -->
      <defs>
       <path d="M 10.59375 35.5 
L 73.1875 35.5 
L 73.1875 27.203125 
L 10.59375 27.203125 
z
" id="DejaVuSans-8722"/>
       <path d="M 19.1875 8.296875 
L 53.609375 8.296875 
L 53.609375 0 
L 7.328125 0 
L 7.328125 8.296875 
Q 12.9375 14.109375 22.625 23.890625 
Q 32.328125 33.6875 34.8125 36.53125 
Q 39.546875 41.84375 41.421875 45.53125 
Q 43.3125 49.21875 43.3125 52.78125 
Q 43.3125 58.59375 39.234375 62.25 
Q 35.15625 65.921875 28.609375 65.921875 
Q 23.96875 65.921875 18.8125 64.3125 
Q 13.671875 62.703125 7.8125 59.421875 
L 7.8125 69.390625 
Q 13.765625 71.78125 18.9375 73 
Q 24.125 74.21875 28.421875 74.21875 
Q 39.75 74.21875 46.484375 68.546875 
Q 53.21875 62.890625 53.21875 53.421875 
Q 53.21875 48.921875 51.53125 44.890625 
Q 49.859375 40.875 45.40625 35.40625 
Q 44.1875 33.984375 37.640625 27.21875 
Q 31.109375 20.453125 19.1875 8.296875 
z
" id="DejaVuSans-50"/>
       <path d="M 31.78125 66.40625 
Q 24.171875 66.40625 20.328125 58.90625 
Q 16.5 51.421875 16.5 36.375 
Q 16.5 21.390625 20.328125 13.890625 
Q 24.171875 6.390625 31.78125 6.390625 
Q 39.453125 6.390625 43.28125 13.890625 
Q 47.125 21.390625 47.125 36.375 
Q 47.125 51.421875 43.28125 58.90625 
Q 39.453125 66.40625 31.78125 66.40625 
z
M 31.78125 74.21875 
Q 44.046875 74.21875 50.515625 64.515625 
Q 56.984375 54.828125 56.984375 36.375 
Q 56.984375 17.96875 50.515625 8.265625 
Q 44.046875 -1.421875 31.78125 -1.421875 
Q 19.53125 -1.421875 13.0625 8.265625 
Q 6.59375 17.96875 6.59375 36.375 
Q 6.59375 54.828125 13.0625 64.515625 
Q 19.53125 74.21875 31.78125 74.21875 
z
" id="DejaVuSans-48"/>
      </defs>
      <g transform="translate(63.280384 320.900838)scale(0.1 -0.1)">
       <use xlink:href="#DejaVuSans-8722"/>
       <use x="83.789062" xlink:href="#DejaVuSans-50"/>
       <use x="147.412109" xlink:href="#DejaVuSans-48"/>
      </g>
     </g>
    </g>
    <g id="xtick_2">
     <g id="line2d_2">
      <g>
       <use style="stroke:#000000;stroke-width:0.8;" x="127.941818" xlink:href="#mdaed8f7e17" y="306.3024"/>
      </g>
     </g>
     <g id="text_2">
      <!-- −15 -->
      <defs>
       <path d="M 12.40625 8.296875 
L 28.515625 8.296875 
L 28.515625 63.921875 
L 10.984375 60.40625 
L 10.984375 69.390625 
L 28.421875 72.90625 
L 38.28125 72.90625 
L 38.28125 8.296875 
L 54.390625 8.296875 
L 54.390625 0 
L 12.40625 0 
z
" id="DejaVuSans-49"/>
       <path d="M 10.796875 72.90625 
L 49.515625 72.90625 
L 49.515625 64.59375 
L 19.828125 64.59375 
L 19.828125 46.734375 
Q 21.96875 47.46875 24.109375 47.828125 
Q 26.265625 48.1875 28.421875 48.1875 
Q 40.625 48.1875 47.75 41.5 
Q 54.890625 34.8125 54.890625 23.390625 
Q 54.890625 11.625 47.5625 5.09375 
Q 40.234375 -1.421875 26.90625 -1.421875 
Q 22.3125 -1.421875 17.546875 -0.640625 
Q 12.796875 0.140625 7.71875 1.703125 
L 7.71875 11.625 
Q 12.109375 9.234375 16.796875 8.0625 
Q 21.484375 6.890625 26.703125 6.890625 
Q 35.15625 6.890625 40.078125 11.328125 
Q 45.015625 15.765625 45.015625 23.390625 
Q 45.015625 31 40.078125 35.4375 
Q 35.15625 39.890625 26.703125 39.890625 
Q 22.75 39.890625 18.8125 39.015625 
Q 14.890625 38.140625 10.796875 36.28125 
z
" id="DejaVuSans-53"/>
      </defs>
      <g transform="translate(117.389474 320.900838)scale(0.1 -0.1)">
       <use xlink:href="#DejaVuSans-8722"/>
       <use x="83.789062" xlink:href="#DejaVuSans-49"/>
       <use x="147.412109" xlink:href="#DejaVuSans-53"/>
      </g>
     </g>
    </g>
    <g id="xtick_3">
     <g id="line2d_3">
      <g>
       <use style="stroke:#000000;stroke-width:0.8;" x="182.050909" xlink:href="#mdaed8f7e17" y="306.3024"/>
      </g>
     </g>
     <g id="text_3">
      <!-- −10 -->
      <g transform="translate(171.498565 320.900838)scale(0.1 -0.1)">
       <use xlink:href="#DejaVuSans-8722"/>
       <use x="83.789062" xlink:href="#DejaVuSans-49"/>
       <use x="147.412109" xlink:href="#DejaVuSans-48"/>
      </g>
     </g>
    </g>
    <g id="xtick_4">
     <g id="line2d_4">
      <g>
       <use style="stroke:#000000;stroke-width:0.8;" x="236.16" xlink:href="#mdaed8f7e17" y="306.3024"/>
      </g>
     </g>
     <g id="text_4">
      <!-- −5 -->
      <g transform="translate(228.788906 320.900838)scale(0.1 -0.1)">
       <use xlink:href="#DejaVuSans-8722"/>
       <use x="83.789062" xlink:href="#DejaVuSans-53"/>
      </g>
     </g>
    </g>
    <g id="xtick_5">
     <g id="line2d_5">
      <g>
       <use style="stroke:#000000;stroke-width:0.8;" x="290.269091" xlink:href="#mdaed8f7e17" y="306.3024"/>
      </g>
     </g>
     <g id="text_5">
      <!-- 0 -->
      <g transform="translate(287.087841 320.900838)scale(0.1 -0.1)">
       <use xlink:href="#DejaVuSans-48"/>
      </g>
     </g>
    </g>
    <g id="xtick_6">
     <g id="line2d_6">
      <g>
       <use style="stroke:#000000;stroke-width:0.8;" x="344.378182" xlink:href="#mdaed8f7e17" y="306.3024"/>
      </g>
     </g>
     <g id="text_6">
      <!-- 5 -->
      <g transform="translate(341.196932 320.900838)scale(0.1 -0.1)">
       <use xlink:href="#DejaVuSans-53"/>
      </g>
     </g>
    </g>
    <g id="xtick_7">
     <g id="line2d_7">
      <g>
       <use style="stroke:#000000;stroke-width:0.8;" x="398.487273" xlink:href="#mdaed8f7e17" y="306.3024"/>
      </g>
     </g>
     <g id="text_7">
      <!-- 10 -->
      <g transform="translate(392.124773 320.900838)scale(0.1 -0.1)">
       <use xlink:href="#DejaVuSans-49"/>
       <use x="63.623047" xlink:href="#DejaVuSans-48"/>
      </g>
     </g>
    </g>
   </g>
   <g id="matplotlib.axis_2">
    <g id="ytick_1">
     <g id="line2d_8">
      <defs>
       <path d="M 0 0 
L -3.5 0 
" id="m311f00c5a1" style="stroke:#000000;stroke-width:0.8;"/>
      </defs>
      <g>
       <use style="stroke:#000000;stroke-width:0.8;" x="57.6" xlink:href="#m311f00c5a1" y="294.2568"/>
      </g>
     </g>
     <g id="text_8">
      <!-- 0.0 -->
      <defs>
       <path d="M 10.6875 12.40625 
L 21 12.40625 
L 21 0 
L 10.6875 0 
z
" id="DejaVuSans-46"/>
      </defs>
      <g transform="translate(34.696875 298.056019)scale(0.1 -0.1)">
       <use xlink:href="#DejaVuSans-48"/>
       <use x="63.623047" xlink:href="#DejaVuSans-46"/>
       <use x="95.410156" xlink:href="#DejaVuSans-48"/>
      </g>
     </g>
    </g>
    <g id="ytick_2">
     <g id="line2d_9">
      <g>
       <use style="stroke:#000000;stroke-width:0.8;" x="57.6" xlink:href="#m311f00c5a1" y="246.220694"/>
      </g>
     </g>
     <g id="text_9">
      <!-- 0.2 -->
      <g transform="translate(34.696875 250.019912)scale(0.1 -0.1)">
       <use xlink:href="#DejaVuSans-48"/>
       <use x="63.623047" xlink:href="#DejaVuSans-46"/>
       <use x="95.410156" xlink:href="#DejaVuSans-50"/>
      </g>
     </g>
    </g>
    <g id="ytick_3">
     <g id="line2d_10">
      <g>
       <use style="stroke:#000000;stroke-width:0.8;" x="57.6" xlink:href="#m311f00c5a1" y="198.184587"/>
      </g>
     </g>
     <g id="text_10">
      <!-- 0.4 -->
      <defs>
       <path d="M 37.796875 64.3125 
L 12.890625 25.390625 
L 37.796875 25.390625 
z
M 35.203125 72.90625 
L 47.609375 72.90625 
L 47.609375 25.390625 
L 58.015625 25.390625 
L 58.015625 17.1875 
L 47.609375 17.1875 
L 47.609375 0 
L 37.796875 0 
L 37.796875 17.1875 
L 4.890625 17.1875 
L 4.890625 26.703125 
z
" id="DejaVuSans-52"/>
      </defs>
      <g transform="translate(34.696875 201.983806)scale(0.1 -0.1)">
       <use xlink:href="#DejaVuSans-48"/>
       <use x="63.623047" xlink:href="#DejaVuSans-46"/>
       <use x="95.410156" xlink:href="#DejaVuSans-52"/>
      </g>
     </g>
    </g>
    <g id="ytick_4">
     <g id="line2d_11">
      <g>
       <use style="stroke:#000000;stroke-width:0.8;" x="57.6" xlink:href="#m311f00c5a1" y="150.148481"/>
      </g>
     </g>
     <g id="text_11">
      <!-- 0.6 -->
      <defs>
       <path d="M 33.015625 40.375 
Q 26.375 40.375 22.484375 35.828125 
Q 18.609375 31.296875 18.609375 23.390625 
Q 18.609375 15.53125 22.484375 10.953125 
Q 26.375 6.390625 33.015625 6.390625 
Q 39.65625 6.390625 43.53125 10.953125 
Q 47.40625 15.53125 47.40625 23.390625 
Q 47.40625 31.296875 43.53125 35.828125 
Q 39.65625 40.375 33.015625 40.375 
z
M 52.59375 71.296875 
L 52.59375 62.3125 
Q 48.875 64.0625 45.09375 64.984375 
Q 41.3125 65.921875 37.59375 65.921875 
Q 27.828125 65.921875 22.671875 59.328125 
Q 17.53125 52.734375 16.796875 39.40625 
Q 19.671875 43.65625 24.015625 45.921875 
Q 28.375 48.1875 33.59375 48.1875 
Q 44.578125 48.1875 50.953125 41.515625 
Q 57.328125 34.859375 57.328125 23.390625 
Q 57.328125 12.15625 50.6875 5.359375 
Q 44.046875 -1.421875 33.015625 -1.421875 
Q 20.359375 -1.421875 13.671875 8.265625 
Q 6.984375 17.96875 6.984375 36.375 
Q 6.984375 53.65625 15.1875 63.9375 
Q 23.390625 74.21875 37.203125 74.21875 
Q 40.921875 74.21875 44.703125 73.484375 
Q 48.484375 72.75 52.59375 71.296875 
z
" id="DejaVuSans-54"/>
      </defs>
      <g transform="translate(34.696875 153.9477)scale(0.1 -0.1)">
       <use xlink:href="#DejaVuSans-48"/>
       <use x="63.623047" xlink:href="#DejaVuSans-46"/>
       <use x="95.410156" xlink:href="#DejaVuSans-54"/>
      </g>
     </g>
    </g>
    <g id="ytick_5">
     <g id="line2d_12">
      <g>
       <use style="stroke:#000000;stroke-width:0.8;" x="57.6" xlink:href="#m311f00c5a1" y="102.112375"/>
      </g>
     </g>
     <g id="text_12">
      <!-- 0.8 -->
      <defs>
       <path d="M 31.78125 34.625 
Q 24.75 34.625 20.71875 30.859375 
Q 16.703125 27.09375 16.703125 20.515625 
Q 16.703125 13.921875 20.71875 10.15625 
Q 24.75 6.390625 31.78125 6.390625 
Q 38.8125 6.390625 42.859375 10.171875 
Q 46.921875 13.96875 46.921875 20.515625 
Q 46.921875 27.09375 42.890625 30.859375 
Q 38.875 34.625 31.78125 34.625 
z
M 21.921875 38.8125 
Q 15.578125 40.375 12.03125 44.71875 
Q 8.5 49.078125 8.5 55.328125 
Q 8.5 64.0625 14.71875 69.140625 
Q 20.953125 74.21875 31.78125 74.21875 
Q 42.671875 74.21875 48.875 69.140625 
Q 55.078125 64.0625 55.078125 55.328125 
Q 55.078125 49.078125 51.53125 44.71875 
Q 48 40.375 41.703125 38.8125 
Q 48.828125 37.15625 52.796875 32.3125 
Q 56.78125 27.484375 56.78125 20.515625 
Q 56.78125 9.90625 50.3125 4.234375 
Q 43.84375 -1.421875 31.78125 -1.421875 
Q 19.734375 -1.421875 13.25 4.234375 
Q 6.78125 9.90625 6.78125 20.515625 
Q 6.78125 27.484375 10.78125 32.3125 
Q 14.796875 37.15625 21.921875 38.8125 
z
M 18.3125 54.390625 
Q 18.3125 48.734375 21.84375 45.5625 
Q 25.390625 42.390625 31.78125 42.390625 
Q 38.140625 42.390625 41.71875 45.5625 
Q 45.3125 48.734375 45.3125 54.390625 
Q 45.3125 60.0625 41.71875 63.234375 
Q 38.140625 66.40625 31.78125 66.40625 
Q 25.390625 66.40625 21.84375 63.234375 
Q 18.3125 60.0625 18.3125 54.390625 
z
" id="DejaVuSans-56"/>
      </defs>
      <g transform="translate(34.696875 105.911593)scale(0.1 -0.1)">
       <use xlink:href="#DejaVuSans-48"/>
       <use x="63.623047" xlink:href="#DejaVuSans-46"/>
       <use x="95.410156" xlink:href="#DejaVuSans-56"/>
      </g>
     </g>
    </g>
    <g id="ytick_6">
     <g id="line2d_13">
      <g>
       <use style="stroke:#000000;stroke-width:0.8;" x="57.6" xlink:href="#m311f00c5a1" y="54.076268"/>
      </g>
     </g>
     <g id="text_13">
      <!-- 1.0 -->
      <g transform="translate(34.696875 57.875487)scale(0.1 -0.1)">
       <use xlink:href="#DejaVuSans-49"/>
       <use x="63.623047" xlink:href="#DejaVuSans-46"/>
       <use x="95.410156" xlink:href="#DejaVuSans-48"/>
      </g>
     </g>
    </g>
   </g>
   <g id="line2d_14">
    <path clip-path="url(#pca0920f2ce)" d="M 73.832727 294.253713 
L 144.289809 294.224964 
L 151.303049 294.211349 
L 155.621386 294.192391 
L 158.153945 294.245069 
L 160.361817 294.204195 
L 162.699563 294.187163 
L 165.394465 294.218607 
L 168.056899 294.144341 
L 170.751801 294.216217 
L 173.479172 294.077513 
L 176.141605 294.211238 
L 178.966382 293.965418 
L 181.53141 294.206037 
L 182.667814 293.899753 
L 183.739282 293.682968 
L 184.51853 293.759539 
L 186.888746 294.208679 
L 187.603057 293.929698 
L 189.258961 293.161636 
L 189.810929 293.206882 
L 190.427834 293.491673 
L 191.856457 294.249039 
L 192.311019 294.197922 
L 192.765581 293.920256 
L 193.382486 293.239025 
L 194.583828 291.851266 
L 195.005921 291.705247 
L 195.363077 291.808182 
L 195.78517 292.19152 
L 196.434544 293.147997 
L 197.148855 294.1 
L 197.506011 294.256784 
L 197.798229 294.130705 
L 198.090448 293.739941 
L 198.480072 292.797255 
L 199.03204 290.772119 
L 200.233382 286.148589 
L 200.590538 285.607092 
L 200.78535 285.597091 
L 200.980162 285.806634 
L 201.27238 286.534197 
L 201.694473 288.359271 
L 202.895815 294.153585 
L 203.058159 294.249587 
L 203.188034 294.072853 
L 203.382846 293.306257 
L 203.642596 291.175705 
L 203.967283 286.389342 
L 204.356907 277.014833 
L 204.843937 259.135443 
L 205.428374 228.708104 
L 206.305029 169.496341 
L 207.571308 85.231748 
L 208.123276 62.282642 
L 208.480432 54.775669 
L 208.707713 53.3448 
L 208.77265 53.426867 
L 208.902525 54.24752 
L 209.129806 57.771598 
L 209.454493 67.249618 
L 209.909055 88.395656 
L 210.558429 130.463161 
L 212.409145 256.469226 
L 212.993582 279.583598 
L 213.448143 289.789748 
L 213.805299 293.51847 
L 214.03258 294.242981 
L 214.129986 294.222557 
L 214.29233 293.811286 
L 214.552079 292.356659 
L 215.03911 288.052294 
L 215.883296 280.752762 
L 216.27292 279.086836 
L 216.500201 278.802711 
L 216.662545 278.911707 
L 216.889826 279.475773 
L 217.214513 281.005678 
L 217.766481 284.911422 
L 218.805479 292.262897 
L 219.227572 293.831854 
L 219.519791 294.240365 
L 219.714603 294.211787 
L 219.941884 293.903086 
L 220.299039 292.929755 
L 221.013351 290.09136 
L 221.662725 287.924777 
L 222.019881 287.35819 
L 222.27963 287.297163 
L 222.506911 287.487052 
L 222.831598 288.11534 
L 223.318629 289.643118 
L 224.519971 293.621764 
L 224.909595 294.180693 
L 225.169345 294.251553 
L 225.429094 294.086184 
L 225.78625 293.523858 
L 226.370687 292.070872 
L 227.214873 290.052727 
L 227.604497 289.605214 
L 227.896715 289.560097 
L 228.188934 289.768069 
L 228.578558 290.391408 
L 229.227932 291.966201 
L 230.03965 293.777574 
L 230.429274 294.197408 
L 230.721493 294.247189 
L 231.013711 294.068311 
L 231.403335 293.520326 
L 232.085178 292.067289 
L 232.831958 290.650083 
L 233.221583 290.31376 
L 233.513801 290.307586 
L 233.838488 290.549522 
L 234.260581 291.197526 
L 235.948953 294.200939 
L 236.27364 294.24055 
L 236.598327 294.019562 
L 237.020421 293.394438 
L 237.864607 291.588183 
L 238.481512 290.549522 
L 238.838668 290.297556 
L 239.130886 290.327819 
L 239.455573 290.608761 
L 239.910135 291.365037 
L 241.371227 294.126905 
L 241.695914 294.256553 
L 241.988132 294.129148 
L 242.345288 293.671752 
L 242.864787 292.550223 
L 244.03366 289.889942 
L 244.390816 289.570949 
L 244.683034 289.587505 
L 244.975252 289.857317 
L 245.364877 290.562499 
L 246.111657 292.511007 
L 246.761031 293.92238 
L 247.118187 294.243441 
L 247.377936 294.202901 
L 247.637686 293.918921 
L 247.994842 293.154309 
L 248.54681 291.340043 
L 249.585808 287.886759 
L 249.942964 287.35145 
L 250.202713 287.299944 
L 250.429994 287.501333 
L 250.754681 288.168969 
L 251.209243 289.702787 
L 252.378116 293.903086 
L 252.670335 294.246843 
L 252.865147 294.197489 
L 253.092428 293.831854 
L 253.384646 292.865126 
L 253.806739 290.563839 
L 254.553519 284.911422 
L 255.267831 280.14495 
L 255.624986 278.9637 
L 255.819799 278.802711 
L 255.982142 278.952973 
L 256.209423 279.604727 
L 256.53411 281.384625 
L 257.021141 285.505752 
L 257.962733 293.53017 
L 258.222483 294.249533 
L 258.319889 294.208169 
L 258.449764 293.844024 
L 258.644576 292.557037 
L 258.936794 288.726691 
L 259.29395 280.533291 
L 259.748512 264.027705 
L 260.30048 234.998744 
L 261.112197 178.880845 
L 262.475882 84.874349 
L 262.995382 62.851948 
L 263.352537 54.984937 
L 263.579818 53.358461 
L 263.644756 53.385853 
L 263.774631 54.095535 
L 263.969443 56.777633 
L 264.261661 64.30604 
L 264.683754 81.903717 
L 265.30066 118.659518 
L 267.508531 260.545352 
L 268.060499 279.756195 
L 268.515061 289.101156 
L 268.904685 293.113316 
L 269.196904 294.191855 
L 269.359247 294.230548 
L 269.521591 293.952216 
L 269.813809 292.858509 
L 270.52812 288.879383 
L 271.080088 286.429639 
L 271.437244 285.674027 
L 271.664525 285.579936 
L 271.859337 285.729986 
L 272.151556 286.311125 
L 272.606117 287.857716 
L 274.099678 293.478206 
L 274.521771 294.130705 
L 274.846458 294.255653 
L 275.138676 294.126288 
L 275.560769 293.645937 
L 276.956923 291.808182 
L 277.346548 291.706471 
L 277.736172 291.851266 
L 278.223203 292.311058 
L 279.911575 294.157489 
L 280.366137 294.256445 
L 280.853167 294.133835 
L 281.632416 293.659017 
L 282.509071 293.206882 
L 283.093508 293.165717 
L 283.710413 293.365232 
L 285.78841 294.255415 
L 286.502722 294.165295 
L 288.678125 293.689039 
L 289.554779 293.870382 
L 291.210683 294.252494 
L 292.152276 294.184918 
L 294.29521 293.928738 
L 295.593958 294.120569 
L 296.957643 294.256585 
L 298.353798 294.130679 
L 299.879827 294.05166 
L 304.263101 294.144341 
L 305.919005 294.144162 
L 308.906126 294.227385 
L 311.665965 294.188677 
L 314.588148 294.229494 
L 317.510331 294.219807 
L 320.464983 294.225907 
L 323.54951 294.243631 
L 326.958724 294.21771 
L 340.108548 294.250533 
L 348.940034 294.2419 
L 377.674835 294.251597 
L 398.487273 294.253713 
L 398.487273 294.253713 
" style="fill:none;stroke:#1f77b4;stroke-linecap:square;stroke-width:1.5;"/>
   </g>
   <g id="patch_3">
    <path d="M 57.6 306.3024 
L 57.6 41.2992 
" style="fill:none;stroke:#000000;stroke-linecap:square;stroke-linejoin:miter;stroke-width:0.8;"/>
   </g>
   <g id="patch_4">
    <path d="M 414.72 306.3024 
L 414.72 41.2992 
" style="fill:none;stroke:#000000;stroke-linecap:square;stroke-linejoin:miter;stroke-width:0.8;"/>
   </g>
   <g id="patch_5">
    <path d="M 57.6 306.3024 
L 414.72 306.3024 
" style="fill:none;stroke:#000000;stroke-linecap:square;stroke-linejoin:miter;stroke-width:0.8;"/>
   </g>
   <g id="patch_6">
    <path d="M 57.6 41.2992 
L 414.72 41.2992 
" style="fill:none;stroke:#000000;stroke-linecap:square;stroke-linejoin:miter;stroke-width:0.8;"/>
   </g>
  </g>
 </g>
 <defs>
  <clipPath id="pca0920f2ce">
   <rect height="265.0032" width="357.12" x="57.6" y="41.2992"/>
  </clipPath>
 </defs>
</svg>
