<?xml version="1.0" encoding="utf-8" standalone="no"?>
<!DOCTYPE svg PUBLIC "-//W3C//DTD SVG 1.1//EN"
  "http://www.w3.org/Graphics/SVG/1.1/DTD/svg11.dtd">
<!-- Created with matplotlib (https://matplotlib.org/) -->
<svg height="344.16pt" version="1.1" viewBox="0 0 460.8 344.16" width="460.8pt" xmlns="http://www.w3.org/2000/svg" xmlns:xlink="http://www.w3.org/1999/xlink">
 <defs>
  <style type="text/css">
*{stroke-linecap:butt;stroke-linejoin:round;}
  </style>
 </defs>
 <g id="figure_1">
  <g id="patch_1">
   <path d="M 0 344.16 
L 460.8 344.16 
L 460.8 0 
L 0 0 
z
" style="fill:#ffffff;"/>
  </g>
  <g id="axes_1">
   <g id="patch_2">
    <path d="M 57.6 306.3024 
L 414.72 306.3024 
L 414.72 41.2992 
L 57.6 41.2992 
z
" style="fill:#ffffff;"/>
   </g>
   <g id="matplotlib.axis_1">
    <g id="xtick_1">
     <g id="line2d_1">
      <defs>
       <path d="M 0 0 
L 0 3.5 
" id="mc0830c7c53" style="stroke:#000000;stroke-width:0.8;"/>
      </defs>
      <g>
       <use style="stroke:#000000;stroke-width:0.8;" x="73.832727" xlink:href="#mc0830c7c53" y="306.3024"/>
      </g>
     </g>
     <g id="text_1">
      <!-- −20 -->
      <defs>
       <path d="M 10.59375 35.5 
L 73.1875 35.5 
L 73.1875 27.203125 
L 10.59375 27.203125 
z
" id="DejaVuSans-8722"/>
       <path d="M 19.1875 8.296875 
L 53.609375 8.296875 
L 53.609375 0 
L 7.328125 0 
L 7.328125 8.296875 
Q 12.9375 14.109375 22.625 23.890625 
Q 32.328125 33.6875 34.8125 36.53125 
Q 39.546875 41.84375 41.421875 45.53125 
Q 43.3125 49.21875 43.3125 52.78125 
Q 43.3125 58.59375 39.234375 62.25 
Q 35.15625 65.921875 28.609375 65.921875 
Q 23.96875 65.921875 18.8125 64.3125 
Q 13.671875 62.703125 7.8125 59.421875 
L 7.8125 69.390625 
Q 13.765625 71.78125 18.9375 73 
Q 24.125 74.21875 28.421875 74.21875 
Q 39.75 74.21875 46.484375 68.546875 
Q 53.21875 62.890625 53.21875 53.421875 
Q 53.21875 48.921875 51.53125 44.890625 
Q 49.859375 40.875 45.40625 35.40625 
Q 44.1875 33.984375 37.640625 27.21875 
Q 31.109375 20.453125 19.1875 8.296875 
z
" id="DejaVuSans-50"/>
       <path d="M 31.78125 66.40625 
Q 24.171875 66.40625 20.328125 58.90625 
Q 16.5 51.421875 16.5 36.375 
Q 16.5 21.390625 20.328125 13.890625 
Q 24.171875 6.390625 31.78125 6.390625 
Q 39.453125 6.390625 43.28125 13.890625 
Q 47.125 21.390625 47.125 36.375 
Q 47.125 51.421875 43.28125 58.90625 
Q 39.453125 66.40625 31.78125 66.40625 
z
M 31.78125 74.21875 
Q 44.046875 74.21875 50.515625 64.515625 
Q 56.984375 54.828125 56.984375 36.375 
Q 56.984375 17.96875 50.515625 8.265625 
Q 44.046875 -1.421875 31.78125 -1.421875 
Q 19.53125 -1.421875 13.0625 8.265625 
Q 6.59375 17.96875 6.59375 36.375 
Q 6.59375 54.828125 13.0625 64.515625 
Q 19.53125 74.21875 31.78125 74.21875 
z
" id="DejaVuSans-48"/>
      </defs>
      <g transform="translate(63.280384 320.900838)scale(0.1 -0.1)">
       <use xlink:href="#DejaVuSans-8722"/>
       <use x="83.789062" xlink:href="#DejaVuSans-50"/>
       <use x="147.412109" xlink:href="#DejaVuSans-48"/>
      </g>
     </g>
    </g>
    <g id="xtick_2">
     <g id="line2d_2">
      <g>
       <use style="stroke:#000000;stroke-width:0.8;" x="114.414545" xlink:href="#mc0830c7c53" y="306.3024"/>
      </g>
     </g>
     <g id="text_2">
      <!-- −15 -->
      <defs>
       <path d="M 12.40625 8.296875 
L 28.515625 8.296875 
L 28.515625 63.921875 
L 10.984375 60.40625 
L 10.984375 69.390625 
L 28.421875 72.90625 
L 38.28125 72.90625 
L 38.28125 8.296875 
L 54.390625 8.296875 
L 54.390625 0 
L 12.40625 0 
z
" id="DejaVuSans-49"/>
       <path d="M 10.796875 72.90625 
L 49.515625 72.90625 
L 49.515625 64.59375 
L 19.828125 64.59375 
L 19.828125 46.734375 
Q 21.96875 47.46875 24.109375 47.828125 
Q 26.265625 48.1875 28.421875 48.1875 
Q 40.625 48.1875 47.75 41.5 
Q 54.890625 34.8125 54.890625 23.390625 
Q 54.890625 11.625 47.5625 5.09375 
Q 40.234375 -1.421875 26.90625 -1.421875 
Q 22.3125 -1.421875 17.546875 -0.640625 
Q 12.796875 0.140625 7.71875 1.703125 
L 7.71875 11.625 
Q 12.109375 9.234375 16.796875 8.0625 
Q 21.484375 6.890625 26.703125 6.890625 
Q 35.15625 6.890625 40.078125 11.328125 
Q 45.015625 15.765625 45.015625 23.390625 
Q 45.015625 31 40.078125 35.4375 
Q 35.15625 39.890625 26.703125 39.890625 
Q 22.75 39.890625 18.8125 39.015625 
Q 14.890625 38.140625 10.796875 36.28125 
z
" id="DejaVuSans-53"/>
      </defs>
      <g transform="translate(103.862202 320.900838)scale(0.1 -0.1)">
       <use xlink:href="#DejaVuSans-8722"/>
       <use x="83.789062" xlink:href="#DejaVuSans-49"/>
       <use x="147.412109" xlink:href="#DejaVuSans-53"/>
      </g>
     </g>
    </g>
    <g id="xtick_3">
     <g id="line2d_3">
      <g>
       <use style="stroke:#000000;stroke-width:0.8;" x="154.996364" xlink:href="#mc0830c7c53" y="306.3024"/>
      </g>
     </g>
     <g id="text_3">
      <!-- −10 -->
      <g transform="translate(144.44402 320.900838)scale(0.1 -0.1)">
       <use xlink:href="#DejaVuSans-8722"/>
       <use x="83.789062" xlink:href="#DejaVuSans-49"/>
       <use x="147.412109" xlink:href="#DejaVuSans-48"/>
      </g>
     </g>
    </g>
    <g id="xtick_4">
     <g id="line2d_4">
      <g>
       <use style="stroke:#000000;stroke-width:0.8;" x="195.578182" xlink:href="#mc0830c7c53" y="306.3024"/>
      </g>
     </g>
     <g id="text_4">
      <!-- −5 -->
      <g transform="translate(188.207088 320.900838)scale(0.1 -0.1)">
       <use xlink:href="#DejaVuSans-8722"/>
       <use x="83.789062" xlink:href="#DejaVuSans-53"/>
      </g>
     </g>
    </g>
    <g id="xtick_5">
     <g id="line2d_5">
      <g>
       <use style="stroke:#000000;stroke-width:0.8;" x="236.16" xlink:href="#mc0830c7c53" y="306.3024"/>
      </g>
     </g>
     <g id="text_5">
      <!-- 0 -->
      <g transform="translate(232.97875 320.900838)scale(0.1 -0.1)">
       <use xlink:href="#DejaVuSans-48"/>
      </g>
     </g>
    </g>
    <g id="xtick_6">
     <g id="line2d_6">
      <g>
       <use style="stroke:#000000;stroke-width:0.8;" x="276.741818" xlink:href="#mc0830c7c53" y="306.3024"/>
      </g>
     </g>
     <g id="text_6">
      <!-- 5 -->
      <g transform="translate(273.560568 320.900838)scale(0.1 -0.1)">
       <use xlink:href="#DejaVuSans-53"/>
      </g>
     </g>
    </g>
    <g id="xtick_7">
     <g id="line2d_7">
      <g>
       <use style="stroke:#000000;stroke-width:0.8;" x="317.323636" xlink:href="#mc0830c7c53" y="306.3024"/>
      </g>
     </g>
     <g id="text_7">
      <!-- 10 -->
      <g transform="translate(310.961136 320.900838)scale(0.1 -0.1)">
       <use xlink:href="#DejaVuSans-49"/>
       <use x="63.623047" xlink:href="#DejaVuSans-48"/>
      </g>
     </g>
    </g>
    <g id="xtick_8">
     <g id="line2d_8">
      <g>
       <use style="stroke:#000000;stroke-width:0.8;" x="357.905455" xlink:href="#mc0830c7c53" y="306.3024"/>
      </g>
     </g>
     <g id="text_8">
      <!-- 15 -->
      <g transform="translate(351.542955 320.900838)scale(0.1 -0.1)">
       <use xlink:href="#DejaVuSans-49"/>
       <use x="63.623047" xlink:href="#DejaVuSans-53"/>
      </g>
     </g>
    </g>
    <g id="xtick_9">
     <g id="line2d_9">
      <g>
       <use style="stroke:#000000;stroke-width:0.8;" x="398.487273" xlink:href="#mc0830c7c53" y="306.3024"/>
      </g>
     </g>
     <g id="text_9">
      <!-- 20 -->
      <g transform="translate(392.124773 320.900838)scale(0.1 -0.1)">
       <use xlink:href="#DejaVuSans-50"/>
       <use x="63.623047" xlink:href="#DejaVuSans-48"/>
      </g>
     </g>
    </g>
   </g>
   <g id="matplotlib.axis_2">
    <g id="ytick_1">
     <g id="line2d_10">
      <defs>
       <path d="M 0 0 
L -3.5 0 
" id="m63ba2cb430" style="stroke:#000000;stroke-width:0.8;"/>
      </defs>
      <g>
       <use style="stroke:#000000;stroke-width:0.8;" x="57.6" xlink:href="#m63ba2cb430" y="290.848379"/>
      </g>
     </g>
     <g id="text_10">
      <!-- −0.2 -->
      <defs>
       <path d="M 10.6875 12.40625 
L 21 12.40625 
L 21 0 
L 10.6875 0 
z
" id="DejaVuSans-46"/>
      </defs>
      <g transform="translate(26.317187 294.647597)scale(0.1 -0.1)">
       <use xlink:href="#DejaVuSans-8722"/>
       <use x="83.789062" xlink:href="#DejaVuSans-48"/>
       <use x="147.412109" xlink:href="#DejaVuSans-46"/>
       <use x="179.199219" xlink:href="#DejaVuSans-50"/>
      </g>
     </g>
    </g>
    <g id="ytick_2">
     <g id="line2d_11">
      <g>
       <use style="stroke:#000000;stroke-width:0.8;" x="57.6" xlink:href="#m63ba2cb430" y="251.262245"/>
      </g>
     </g>
     <g id="text_11">
      <!-- 0.0 -->
      <g transform="translate(34.696875 255.061464)scale(0.1 -0.1)">
       <use xlink:href="#DejaVuSans-48"/>
       <use x="63.623047" xlink:href="#DejaVuSans-46"/>
       <use x="95.410156" xlink:href="#DejaVuSans-48"/>
      </g>
     </g>
    </g>
    <g id="ytick_3">
     <g id="line2d_12">
      <g>
       <use style="stroke:#000000;stroke-width:0.8;" x="57.6" xlink:href="#m63ba2cb430" y="211.676112"/>
      </g>
     </g>
     <g id="text_12">
      <!-- 0.2 -->
      <g transform="translate(34.696875 215.475331)scale(0.1 -0.1)">
       <use xlink:href="#DejaVuSans-48"/>
       <use x="63.623047" xlink:href="#DejaVuSans-46"/>
       <use x="95.410156" xlink:href="#DejaVuSans-50"/>
      </g>
     </g>
    </g>
    <g id="ytick_4">
     <g id="line2d_13">
      <g>
       <use style="stroke:#000000;stroke-width:0.8;" x="57.6" xlink:href="#m63ba2cb430" y="172.089979"/>
      </g>
     </g>
     <g id="text_13">
      <!-- 0.4 -->
      <defs>
       <path d="M 37.796875 64.3125 
L 12.890625 25.390625 
L 37.796875 25.390625 
z
M 35.203125 72.90625 
L 47.609375 72.90625 
L 47.609375 25.390625 
L 58.015625 25.390625 
L 58.015625 17.1875 
L 47.609375 17.1875 
L 47.609375 0 
L 37.796875 0 
L 37.796875 17.1875 
L 4.890625 17.1875 
L 4.890625 26.703125 
z
" id="DejaVuSans-52"/>
      </defs>
      <g transform="translate(34.696875 175.889197)scale(0.1 -0.1)">
       <use xlink:href="#DejaVuSans-48"/>
       <use x="63.623047" xlink:href="#DejaVuSans-46"/>
       <use x="95.410156" xlink:href="#DejaVuSans-52"/>
      </g>
     </g>
    </g>
    <g id="ytick_5">
     <g id="line2d_14">
      <g>
       <use style="stroke:#000000;stroke-width:0.8;" x="57.6" xlink:href="#m63ba2cb430" y="132.503845"/>
      </g>
     </g>
     <g id="text_14">
      <!-- 0.6 -->
      <defs>
       <path d="M 33.015625 40.375 
Q 26.375 40.375 22.484375 35.828125 
Q 18.609375 31.296875 18.609375 23.390625 
Q 18.609375 15.53125 22.484375 10.953125 
Q 26.375 6.390625 33.015625 6.390625 
Q 39.65625 6.390625 43.53125 10.953125 
Q 47.40625 15.53125 47.40625 23.390625 
Q 47.40625 31.296875 43.53125 35.828125 
Q 39.65625 40.375 33.015625 40.375 
z
M 52.59375 71.296875 
L 52.59375 62.3125 
Q 48.875 64.0625 45.09375 64.984375 
Q 41.3125 65.921875 37.59375 65.921875 
Q 27.828125 65.921875 22.671875 59.328125 
Q 17.53125 52.734375 16.796875 39.40625 
Q 19.671875 43.65625 24.015625 45.921875 
Q 28.375 48.1875 33.59375 48.1875 
Q 44.578125 48.1875 50.953125 41.515625 
Q 57.328125 34.859375 57.328125 23.390625 
Q 57.328125 12.15625 50.6875 5.359375 
Q 44.046875 -1.421875 33.015625 -1.421875 
Q 20.359375 -1.421875 13.671875 8.265625 
Q 6.984375 17.96875 6.984375 36.375 
Q 6.984375 53.65625 15.1875 63.9375 
Q 23.390625 74.21875 37.203125 74.21875 
Q 40.921875 74.21875 44.703125 73.484375 
Q 48.484375 72.75 52.59375 71.296875 
z
" id="DejaVuSans-54"/>
      </defs>
      <g transform="translate(34.696875 136.303064)scale(0.1 -0.1)">
       <use xlink:href="#DejaVuSans-48"/>
       <use x="63.623047" xlink:href="#DejaVuSans-46"/>
       <use x="95.410156" xlink:href="#DejaVuSans-54"/>
      </g>
     </g>
    </g>
    <g id="ytick_6">
     <g id="line2d_15">
      <g>
       <use style="stroke:#000000;stroke-width:0.8;" x="57.6" xlink:href="#m63ba2cb430" y="92.917712"/>
      </g>
     </g>
     <g id="text_15">
      <!-- 0.8 -->
      <defs>
       <path d="M 31.78125 34.625 
Q 24.75 34.625 20.71875 30.859375 
Q 16.703125 27.09375 16.703125 20.515625 
Q 16.703125 13.921875 20.71875 10.15625 
Q 24.75 6.390625 31.78125 6.390625 
Q 38.8125 6.390625 42.859375 10.171875 
Q 46.921875 13.96875 46.921875 20.515625 
Q 46.921875 27.09375 42.890625 30.859375 
Q 38.875 34.625 31.78125 34.625 
z
M 21.921875 38.8125 
Q 15.578125 40.375 12.03125 44.71875 
Q 8.5 49.078125 8.5 55.328125 
Q 8.5 64.0625 14.71875 69.140625 
Q 20.953125 74.21875 31.78125 74.21875 
Q 42.671875 74.21875 48.875 69.140625 
Q 55.078125 64.0625 55.078125 55.328125 
Q 55.078125 49.078125 51.53125 44.71875 
Q 48 40.375 41.703125 38.8125 
Q 48.828125 37.15625 52.796875 32.3125 
Q 56.78125 27.484375 56.78125 20.515625 
Q 56.78125 9.90625 50.3125 4.234375 
Q 43.84375 -1.421875 31.78125 -1.421875 
Q 19.734375 -1.421875 13.25 4.234375 
Q 6.78125 9.90625 6.78125 20.515625 
Q 6.78125 27.484375 10.78125 32.3125 
Q 14.796875 37.15625 21.921875 38.8125 
z
M 18.3125 54.390625 
Q 18.3125 48.734375 21.84375 45.5625 
Q 25.390625 42.390625 31.78125 42.390625 
Q 38.140625 42.390625 41.71875 45.5625 
Q 45.3125 48.734375 45.3125 54.390625 
Q 45.3125 60.0625 41.71875 63.234375 
Q 38.140625 66.40625 31.78125 66.40625 
Q 25.390625 66.40625 21.84375 63.234375 
Q 18.3125 60.0625 18.3125 54.390625 
z
" id="DejaVuSans-56"/>
      </defs>
      <g transform="translate(34.696875 96.716931)scale(0.1 -0.1)">
       <use xlink:href="#DejaVuSans-48"/>
       <use x="63.623047" xlink:href="#DejaVuSans-46"/>
       <use x="95.410156" xlink:href="#DejaVuSans-56"/>
      </g>
     </g>
    </g>
    <g id="ytick_7">
     <g id="line2d_16">
      <g>
       <use style="stroke:#000000;stroke-width:0.8;" x="57.6" xlink:href="#m63ba2cb430" y="53.331578"/>
      </g>
     </g>
     <g id="text_16">
      <!-- 1.0 -->
      <g transform="translate(34.696875 57.130797)scale(0.1 -0.1)">
       <use xlink:href="#DejaVuSans-49"/>
       <use x="63.623047" xlink:href="#DejaVuSans-46"/>
       <use x="95.410156" xlink:href="#DejaVuSans-48"/>
      </g>
     </g>
    </g>
   </g>
   <g id="line2d_17">
    <path clip-path="url(#pa3ea2f1b59)" d="M 73.832727 242.227252 
L 75.132645 242.920141 
L 76.432563 243.839575 
L 78.057461 245.276583 
L 80.007338 247.353932 
L 82.607174 250.537148 
L 88.131826 257.491011 
L 90.081704 259.535652 
L 91.706601 260.918639 
L 93.006519 261.769366 
L 94.306437 262.364276 
L 95.606355 262.683388 
L 96.906274 262.713388 
L 98.206192 262.448082 
L 99.50611 261.888687 
L 100.806028 261.043936 
L 102.105946 259.929996 
L 103.730844 258.195225 
L 105.355741 256.136966 
L 107.630598 252.856161 
L 114.455168 242.628506 
L 116.080066 240.673986 
L 117.704963 239.094609 
L 119.004881 238.15127 
L 120.304799 237.526122 
L 121.279738 237.280335 
L 122.254676 237.233566 
L 123.229615 237.389909 
L 124.204554 237.750636 
L 125.179492 238.314135 
L 126.47941 239.372645 
L 127.779328 240.764529 
L 129.079247 242.462173 
L 130.704144 244.958588 
L 132.654021 248.386198 
L 135.903817 254.665495 
L 139.153612 260.80912 
L 141.103489 264.010887 
L 142.728387 266.218246 
L 144.028305 267.607037 
L 145.003243 268.398398 
L 145.978182 268.957242 
L 146.95312 269.270502 
L 147.928059 269.328291 
L 148.902998 269.124104 
L 149.877936 268.654978 
L 150.852875 267.921609 
L 151.827813 266.928421 
L 153.127731 265.21467 
L 154.427649 263.083593 
L 156.052547 259.896324 
L 158.002424 255.443448 
L 160.60226 248.812651 
L 165.151974 237.10647 
L 167.101851 232.807127 
L 168.401769 230.391973 
L 169.701687 228.426994 
L 170.676626 227.289705 
L 171.651564 226.468741 
L 172.626503 225.985377 
L 173.276462 225.859401 
L 173.926421 225.895311 
L 174.57638 226.096282 
L 175.226339 226.464559 
L 176.201278 227.333221 
L 177.176216 228.581151 
L 178.151155 230.203391 
L 179.451073 232.930304 
L 180.750991 236.265408 
L 182.375889 241.204476 
L 184.000786 246.865563 
L 186.275643 255.661658 
L 192.125274 278.85651 
L 193.750172 284.269082 
L 195.05009 287.934701 
L 196.350008 290.870371 
L 197.324947 292.520569 
L 198.299885 293.64585 
L 198.949844 294.083218 
L 199.599803 294.2568 
L 200.249762 294.156109 
L 200.899722 293.771715 
L 201.549681 293.095307 
L 202.19964 292.119752 
L 203.174578 290.082949 
L 204.149517 287.345572 
L 205.124455 283.899863 
L 206.099394 279.745037 
L 207.399312 273.114198 
L 208.69923 265.269775 
L 210.324128 253.847603 
L 211.949025 240.782046 
L 213.898903 223.236244 
L 216.498739 197.436402 
L 225.273186 107.568021 
L 227.223063 90.971771 
L 228.847961 79.039976 
L 230.147879 70.942084 
L 231.447797 64.265211 
L 232.422735 60.25214 
L 233.397674 57.130612 
L 234.047633 55.558509 
L 234.697592 54.400808 
L 235.347551 53.661958 
L 235.99751 53.3448 
L 236.647469 53.450553 
L 237.297428 53.978811 
L 237.947387 54.927542 
L 238.597346 56.2931 
L 239.572285 59.111081 
L 240.547224 62.830439 
L 241.522162 67.419145 
L 242.82208 74.820607 
L 244.121998 83.584199 
L 245.746896 96.25062 
L 247.696773 113.564468 
L 249.97163 135.944034 
L 254.196364 180.432949 
L 257.446159 213.829925 
L 259.721016 235.141591 
L 261.670893 251.359883 
L 263.29579 263.125311 
L 264.920688 273.114198 
L 266.220606 279.745037 
L 267.520524 285.127331 
L 268.495463 288.336493 
L 269.470401 290.839144 
L 270.44534 292.645321 
L 271.095299 293.470487 
L 271.745258 293.999921 
L 272.395217 294.241354 
L 273.045176 294.203661 
L 273.695135 293.896812 
L 274.345094 293.331798 
L 274.995053 292.520569 
L 275.969992 290.870371 
L 276.94493 288.741899 
L 278.244848 285.247023 
L 279.544767 281.11775 
L 281.494644 274.025606 
L 284.419459 262.276798 
L 287.994234 248.069451 
L 289.944111 241.204476 
L 291.569009 236.265408 
L 292.868927 232.930304 
L 294.168845 230.203391 
L 295.143784 228.581151 
L 296.118722 227.333221 
L 297.093661 226.464559 
L 298.0686 225.975002 
L 298.718559 225.856901 
L 299.368518 225.902387 
L 300.018477 226.107834 
L 300.993415 226.705857 
L 301.968354 227.634812 
L 302.943292 228.872181 
L 304.24321 230.956392 
L 305.543129 233.472528 
L 307.168026 237.10647 
L 309.442883 242.811487 
L 314.967535 256.992254 
L 316.917412 261.23565 
L 318.54231 264.198997 
L 319.842228 266.125834 
L 321.142146 267.619089 
L 322.117084 268.439741 
L 323.092023 268.997208 
L 324.066962 269.289558 
L 325.0419 269.318543 
L 326.016839 269.089505 
L 326.991777 268.611223 
L 327.966716 267.895729 
L 329.266634 266.599163 
L 330.566552 264.951137 
L 332.19145 262.474544 
L 334.141327 259.040623 
L 337.391122 252.750164 
L 340.640917 246.622971 
L 342.590794 243.41471 
L 344.215692 241.161543 
L 345.51561 239.690292 
L 346.815528 238.54633 
L 348.115446 237.750636 
L 349.090385 237.389909 
L 350.065324 237.233566 
L 351.040262 237.280335 
L 352.015201 237.526122 
L 352.990139 237.964113 
L 354.290057 238.830499 
L 355.589975 239.99277 
L 357.214873 241.806964 
L 359.16475 244.404561 
L 361.764586 248.315451 
L 366.3143 255.239354 
L 368.264177 257.80726 
L 369.889075 259.612034 
L 371.188993 260.789895 
L 372.488911 261.703745 
L 373.788829 262.335592 
L 375.088747 262.674827 
L 376.388665 262.718359 
L 377.688583 262.470548 
L 378.988501 261.942966 
L 380.288419 261.153977 
L 381.588337 260.128163 
L 383.213235 258.559133 
L 385.163112 256.347688 
L 388.087928 252.641767 
L 391.987682 247.730657 
L 393.937559 245.598412 
L 395.562457 244.102625 
L 397.187355 242.920141 
L 398.487273 242.227252 
L 398.487273 242.227252 
" style="fill:none;stroke:#1f77b4;stroke-linecap:square;stroke-width:1.5;"/>
   </g>
   <g id="patch_3">
    <path d="M 57.6 306.3024 
L 57.6 41.2992 
" style="fill:none;stroke:#000000;stroke-linecap:square;stroke-linejoin:miter;stroke-width:0.8;"/>
   </g>
   <g id="patch_4">
    <path d="M 414.72 306.3024 
L 414.72 41.2992 
" style="fill:none;stroke:#000000;stroke-linecap:square;stroke-linejoin:miter;stroke-width:0.8;"/>
   </g>
   <g id="patch_5">
    <path d="M 57.6 306.3024 
L 414.72 306.3024 
" style="fill:none;stroke:#000000;stroke-linecap:square;stroke-linejoin:miter;stroke-width:0.8;"/>
   </g>
   <g id="patch_6">
    <path d="M 57.6 41.2992 
L 414.72 41.2992 
" style="fill:none;stroke:#000000;stroke-linecap:square;stroke-linejoin:miter;stroke-width:0.8;"/>
   </g>
  </g>
 </g>
 <defs>
  <clipPath id="pa3ea2f1b59">
   <rect height="265.0032" width="357.12" x="57.6" y="41.2992"/>
  </clipPath>
 </defs>
</svg>
